<svg xmlns="http://www.w3.org/2000/svg" xmlns:xlink="http://www.w3.org/1999/xlink" viewBox="0 0 19.98 18.37"><defs><style>.cls-1{fill:none;stroke-linecap:round;stroke-linejoin:round;stroke-width:2px;stroke:url(#Градієнт_без_назви_8);}</style><linearGradient id="Градієнт_без_назви_8" y1="9.18" x2="19.98" y2="9.18" gradientUnits="userSpaceOnUse"><stop offset="0" stop-color="#00bcd4"/><stop offset="1" stop-color="#60e8bd"/></linearGradient></defs><title>3</title><g id="Шар_2" data-name="Шар 2"><g id="Шар_1-2" data-name="Шар 1"><path class="cls-1" d="M18.7,4.37A5,5,0,0,0,10,2.93a5,5,0,0,0-8.09.21A4.82,4.82,0,0,0,1,5.38a6.09,6.09,0,0,0,.19,2.27,11.94,11.94,0,0,0,2,3.93,23.38,23.38,0,0,0,6.39,5.58l.33.21.33-.21a21.29,21.29,0,0,0,7.29-6.93A8.68,8.68,0,0,0,19,6.29a5,5,0,0,0-.27-1.92Z"/></g></g></svg>