<?xml version="1.0" standalone="no"?>
<!DOCTYPE svg PUBLIC "-//W3C//DTD SVG 1.1//EN" "http://www.w3.org/Graphics/SVG/1.1/DTD/svg11.dtd" >
<svg>
<metadata>
Created by FontForge 20090622 at Fri Feb 10 11:29:02 2017
 By deploy user
Copyright (C) 2010, 2014 Hoefler &#38; Co. http://www.typography.com
</metadata>
<defs>
<font id="WhitneySSm-Medium" horiz-adv-x="400" >
  <font-face 
    font-family="Whitney SSm Medium"
    font-weight="350"
    font-stretch="normal"
    units-per-em="1000"
    panose-1="0 0 0 0 0 0 0 0 0 0"
    ascent="800"
    descent="-200"
    x-height="534"
    cap-height="725"
    bbox="-101 -311 1387 1060"
    underline-thickness="50"
    underline-position="-50"
    unicode-range="U+0020-U+FB04"
  />
<missing-glyph horiz-adv-x="520" 
d="M0 -200v1000h520v-1000h-520zM74 750l186 -390l186 390h-372zM468 676l-179 -376l179 -376v752zM52 -76l179 376l-179 376v-752zM260 240l-186 -390h372z" />
    <glyph glyph-name=".notdef" horiz-adv-x="520" 
d="M0 -200v1000h520v-1000h-520zM74 750l186 -390l186 390h-372zM468 676l-179 -376l179 -376v752zM52 -76l179 376l-179 376v-752zM260 240l-186 -390h372z" />
    <glyph glyph-name=".null" horiz-adv-x="0" 
 />
    <glyph glyph-name="nonmarkingreturn" horiz-adv-x="333" 
 />
    <glyph glyph-name="space" unicode=" " horiz-adv-x="257" 
 />
    <glyph glyph-name="exclam" unicode="!" horiz-adv-x="305" 
d="M210 725l-27 -495l-61 -14l-26 509h114zM206 0h-107v126h107v-126z" />
    <glyph glyph-name="quotedbl" unicode="&#x22;" horiz-adv-x="452" 
d="M182 710l-26 -219l-57 12l-26 207h109zM379 710l-27 -219l-55 12l-27 207h109z" />
    <glyph glyph-name="numbersign" unicode="#" horiz-adv-x="728" 
d="M286 449l-31 -188h185l31 188h-185zM589 701l-28 -171h117v-81h-131l-31 -188h127l14 -81h-154l-30 -182h-76l30 182h-185l-31 -187l-72 16l28 171h-118v81h131l31 188h-126l-14 81h153l30 182h76l-30 -182h185l31 187z" />
    <glyph glyph-name="dollar" unicode="$" horiz-adv-x="584" 
d="M155 536q0 -40 25 -65t89 -49l35 214h-17q-65 0 -98.5 -26.5t-33.5 -73.5zM439 189q0 42 -25 71t-94 54l-39 -239h7q151 0 151 114zM399 777l-13 -70q60 -11 111 -33l-14 -89q-50 29 -112 42l-37 -226q101 -35 147.5 -83t46.5 -124q0 -92 -65 -145t-182 -53h-12l-20 -124
l-68 15l18 115q-82 11 -148 43l13 90q72 -41 150 -54l41 254q-101 34 -144 76t-43 117q0 90 63.5 138t168.5 48h15l13 79z" />
    <glyph glyph-name="percent" unicode="%" horiz-adv-x="989" 
d="M408 509q0 -96 -50.5 -153t-126.5 -57q-77 0 -127.5 57t-50.5 153t50.5 152.5t127.5 56.5q76 0 126.5 -56.5t50.5 -152.5zM296 -7l-73 18l238 352l231 354l74 -18l-238 -353zM324 509q0 62 -24 102t-70 40t-69.5 -39.5t-23.5 -102.5q0 -62 24 -102.5t70 -40.5t69.5 40
t23.5 103zM934 201q0 -96 -50.5 -152.5t-126.5 -56.5t-126.5 56.5t-50.5 152.5t50.5 153t126.5 57t126.5 -57t50.5 -153zM851 201q0 63 -24 103t-70 40q-47 0 -70.5 -39.5t-23.5 -103.5q0 -61 24.5 -101.5t69.5 -40.5q47 0 70.5 39.5t23.5 102.5z" />
    <glyph glyph-name="ampersand" unicode="&#x26;" horiz-adv-x="752" 
d="M291 71q108 0 181 86l-199 188q-130 -56 -130 -153q0 -53 41 -87t107 -34zM749 18l-104 -24l-110 104q-98 -112 -245 -112q-117 0 -182 51t-65 145q0 140 171 221q-39 39 -56.5 75t-17.5 85q0 74 55 124.5t149 50.5q100 0 185 -45l-16 -100q-93 58 -170 58
q-51 0 -77.5 -23t-26.5 -63q0 -33 17.5 -61.5t58.5 -67.5l208 -201q36 75 54 186l87 -19q-23 -131 -77 -229z" />
    <glyph glyph-name="quotesingle" unicode="'" horiz-adv-x="255" 
d="M182 710l-26 -219l-57 12l-26 207h109z" />
    <glyph glyph-name="parenleft" unicode="(" horiz-adv-x="464" 
d="M424 -84l-96 -21q-127 107 -187.5 213t-60.5 242q0 284 295 463l15 -93q-105 -71 -155 -161.5t-50 -210.5q0 -116 57.5 -220t181.5 -212z" />
    <glyph glyph-name="parenright" unicode=")" horiz-adv-x="464" 
d="M40 788l96 21q126 -107 187 -213.5t61 -242.5q0 -283 -295 -463l-16 93q106 71 156 161.5t50 210.5q0 116 -57.5 220.5t-181.5 212.5z" />
    <glyph glyph-name="asterisk" unicode="*" horiz-adv-x="475" 
d="M422 638l-129 -58l69 -121l-28 -18l-96 98l-98 -98l-27 18l68 121l-127 58l10 32l139 -24l16 132h36l16 -132l140 24z" />
    <glyph glyph-name="plus" unicode="+" horiz-adv-x="632" 
d="M569 315h-211v-208h-83v208h-212v79h212v209h83v-209h211v-79z" />
    <glyph glyph-name="comma" unicode="," horiz-adv-x="271" 
d="M210 132l-119 -281l-54 13l58 268h115z" />
    <glyph glyph-name="hyphen" unicode="-" horiz-adv-x="423" 
d="M354 270h-286v97h286v-97z" />
    <glyph glyph-name="period" unicode="." horiz-adv-x="271" 
d="M190 0h-110v132h110v-132z" />
    <glyph glyph-name="slash" unicode="/" horiz-adv-x="628" 
d="M599 764l-549 -906l-89 19l550 906z" />
    <glyph glyph-name="zero" unicode="0" horiz-adv-x="684" 
d="M623 355q0 -174 -76.5 -271.5t-204.5 -97.5q-129 0 -205 97.5t-76 271.5t76 271t205 97q128 0 204.5 -97t76.5 -271zM525 355q0 138 -48 211t-135 73q-86 0 -134.5 -73.5t-48.5 -210.5t48.5 -211t134.5 -74q87 0 135 73.5t48 211.5z" />
    <glyph glyph-name="one" unicode="1" horiz-adv-x="398" 
d="M289 0h-95v612l-155 -55l-10 76l177 79h83v-712z" />
    <glyph glyph-name="two" unicode="2" horiz-adv-x="591" 
d="M533 0h-480v74l273 273q52 52 74.5 90t22.5 79q0 119 -136 119q-102 0 -201 -84l-14 93q97 79 220 79q107 0 168.5 -54t61.5 -147q0 -62 -29 -112t-100 -120l-211 -205h338z" />
    <glyph glyph-name="three" unicode="3" horiz-adv-x="570" 
d="M515 194q0 -94 -71 -151t-191 -57q-118 0 -212 56l16 94q97 -63 201 -63q75 0 117 31t42 89q0 135 -204 135h-33l-14 87h55q181 0 181 118q0 47 -36 75.5t-103 28.5q-107 0 -196 -68l-14 89q93 65 214 65q116 0 174.5 -53.5t58.5 -132.5q0 -121 -135 -164
q150 -41 150 -179z" />
    <glyph glyph-name="four" unicode="4" horiz-adv-x="652" 
d="M620 160h-119v-160h-88v160h-370v71l344 481h114v-473h119v-79zM413 239v365l-268 -365h268z" />
    <glyph glyph-name="five" unicode="5" horiz-adv-x="584" 
d="M534 223q0 -111 -76 -174t-194 -63q-123 0 -212 55l15 90q91 -61 200 -61q76 0 123.5 37.5t47.5 109.5q0 63 -41 99.5t-117 36.5q-70 0 -126 -23l-71 16l26 364h387l13 -85h-320l-17 -206q58 18 119 18q112 0 177.5 -58.5t65.5 -155.5z" />
    <glyph glyph-name="six" unicode="6" horiz-adv-x="624" 
d="M471 638q-267 -63 -310 -259q90 56 188 56q106 0 167.5 -58.5t61.5 -159.5q0 -100 -72 -165.5t-181 -65.5q-119 0 -192 78.5t-73 222.5q0 177 106 284.5t292 151.5zM328 351q-95 0 -175 -61v-1q0 -100 47.5 -160t127.5 -59q69 0 111.5 38.5t42.5 104.5q0 138 -154 138z
" />
    <glyph glyph-name="seven" unicode="7" horiz-adv-x="585" 
d="M531 635l-297 -642l-94 21l283 610h-367l-13 86h488v-75z" />
    <glyph glyph-name="eight" unicode="8" horiz-adv-x="629" 
d="M54 182q0 115 151 190q-64 32 -93 73.5t-29 98.5q0 79 66 129t169 50q107 0 168.5 -49.5t61.5 -129.5q0 -102 -125 -171q76 -34 113.5 -78.5t37.5 -116.5q0 -79 -72 -135.5t-189 -56.5q-121 0 -190 56.5t-69 139.5zM176 545q0 -47 35.5 -76t129.5 -63q53 26 83.5 61
t30.5 74q0 46 -38 75.5t-101 29.5q-64 0 -102 -29t-38 -72zM148 186q0 -53 47 -87t120 -34t119 33.5t46 83.5q0 54 -40 85.5t-150 70.5q-65 -25 -103.5 -65.5t-38.5 -86.5z" />
    <glyph glyph-name="nine" unicode="9" horiz-adv-x="624" 
d="M143 72q262 52 316 246q-86 -53 -184 -53q-106 0 -167 59.5t-61 163.5q0 103 71 169t181 66q120 0 193 -78t73 -222q0 -177 -110 -288t-298 -149zM295 349q98 0 177 62v7q0 101 -48 161t-127 60q-71 0 -112.5 -38.5t-41.5 -108.5q0 -143 152 -143z" />
    <glyph glyph-name="colon" unicode=":" horiz-adv-x="281" 
d="M196 402h-111v132h111v-132zM196 0h-111v132h111v-132z" />
    <glyph glyph-name="semicolon" unicode=";" horiz-adv-x="281" 
d="M204 402h-112v132h112v-132zM207 132l-119 -281l-54 13l58 268h115z" />
    <glyph glyph-name="less" unicode="&#x3c;" horiz-adv-x="632" 
d="M554 86l-488 233v72l488 233v-91l-390 -177l390 -178v-92z" />
    <glyph glyph-name="equal" unicode="=" horiz-adv-x="654" 
d="M571 430h-487v85h487v-85zM571 195h-487v85h487v-85z" />
    <glyph glyph-name="greater" unicode="&#x3e;" horiz-adv-x="632" 
d="M566 319l-487 -233v91l389 177l-389 177v93l487 -233v-72z" />
    <glyph glyph-name="question" unicode="?" horiz-adv-x="572" 
d="M507 552q0 -79 -49 -125.5t-158 -93.5l-10 -103l-62 -14l-14 173l43 18q82 31 116 61.5t34 79.5q0 46 -35.5 73t-92.5 27q-106 0 -213 -86l-14 98q107 78 232 78q101 0 162 -50t61 -136zM312 0h-107v126h107v-126z" />
    <glyph glyph-name="at" unicode="@" horiz-adv-x="983" 
d="M711 49q-60 0 -99.5 27t-48.5 77q-49 -56 -86.5 -80t-79.5 -24q-51 0 -87 36t-36 102q0 136 80.5 225t183.5 89q72 0 155 -30l-41 -234q-7 -35 -7 -61q0 -35 19.5 -53.5t56.5 -18.5q65 0 106 63t41 173q0 155 -91.5 238.5t-239.5 83.5q-176 0 -299.5 -129.5
t-123.5 -325.5q0 -162 92 -243.5t244 -81.5q139 0 252 55l7 -40q-121 -54 -264 -54q-176 0 -278 95.5t-102 267.5q0 205 138 350.5t338 145.5q171 0 273 -98t102 -263q0 -129 -58 -210.5t-147 -81.5zM422 124q51 0 140 104l36 191q-34 11 -70 11q-64 0 -115.5 -65
t-51.5 -163q0 -78 61 -78z" />
    <glyph glyph-name="A" unicode="A" horiz-adv-x="760" 
d="M37 0l295 728h100l291 -714l-99 -21l-88 223h-311l-84 -216h-104zM380 610l-121 -305h242z" />
    <glyph glyph-name="B" unicode="B" horiz-adv-x="603" 
d="M553 212q0 -106 -72.5 -159t-205.5 -53h-179v725h181q120 0 181.5 -51t61.5 -138q0 -105 -109 -150q142 -40 142 -174zM422 533q0 106 -147 106h-81v-218h74q75 0 114.5 29t39.5 83zM454 210q0 62 -45 95.5t-130 33.5h-85v-254h89q82 0 126.5 31.5t44.5 93.5z" />
    <glyph glyph-name="C" unicode="C" horiz-adv-x="699" 
d="M641 57q-100 -71 -229 -71q-157 0 -252 103.5t-95 271.5q0 169 96 273t254 104q122 0 214 -60l-15 -102q-96 70 -200 70q-115 0 -180.5 -76.5t-65.5 -207.5q0 -130 66 -206.5t180 -76.5q107 0 212 72z" />
    <glyph glyph-name="D" unicode="D" horiz-adv-x="775" 
d="M709 363q0 -165 -105.5 -264t-295.5 -99h-212v725h217q191 0 293.5 -99t102.5 -263zM605 362q0 133 -77.5 202.5t-211.5 69.5h-120v-543h117q140 0 216 68t76 203z" />
    <glyph glyph-name="E" unicode="E" horiz-adv-x="561" 
d="M511 0h-415v725h405v-92h-305v-208h237l15 -92h-252v-241h315v-92z" />
    <glyph glyph-name="F" unicode="F" horiz-adv-x="530" 
d="M486 633h-290v-220h228l15 -91h-243v-322h-100v725h390v-92z" />
    <glyph glyph-name="G" unicode="G" horiz-adv-x="769" 
d="M684 57q-115 -71 -254 -71q-174 0 -269.5 101.5t-95.5 273.5q0 171 95.5 274t261.5 103q133 0 229 -62l-16 -102q-96 72 -214 72q-122 0 -187.5 -75.5t-65.5 -208.5q0 -132 67.5 -207.5t194.5 -75.5q88 0 155 35v191h-174l-14 92h287v-340z" />
    <glyph glyph-name="H" unicode="H" horiz-adv-x="776" 
d="M680 0h-100v333h-384v-333h-100v725h100v-300h384v300h100v-725z" />
    <glyph glyph-name="I" unicode="I" horiz-adv-x="305" 
d="M202 0h-100v725h100v-725z" />
    <glyph glyph-name="J" unicode="J" horiz-adv-x="411" 
d="M322 179q0 -94 -56 -140t-155 -46q-30 0 -68 6l-14 90q36 -9 83 -9q110 0 110 107v538h100v-546z" />
    <glyph glyph-name="K" unicode="K" horiz-adv-x="673" 
d="M658 16l-111 -23l-351 374v-367h-100v725h100v-326l315 326h128l-334 -341z" />
    <glyph glyph-name="L" unicode="L" horiz-adv-x="519" 
d="M483 0h-387v725h100v-631h273z" />
    <glyph glyph-name="M" unicode="M" horiz-adv-x="992" 
d="M915 0h-96l-47 583l-238 -586h-80l-238 586l-46 -583h-94l60 725h124l237 -593l237 593h122z" />
    <glyph glyph-name="N" unicode="N" horiz-adv-x="776" 
d="M680 0h-75l-417 561v-561h-92v725h89l403 -541v541h92v-725z" />
    <glyph glyph-name="O" unicode="O" horiz-adv-x="823" 
d="M758 363q0 -168 -95 -272.5t-253 -104.5q-157 0 -251 103t-94 272q0 170 94.5 273.5t252.5 103.5t252 -103t94 -272zM655 362q0 131 -66 207.5t-178 76.5t-177.5 -76.5t-65.5 -207.5q0 -130 65.5 -207t177.5 -77q113 0 178.5 77t65.5 207z" />
    <glyph glyph-name="P" unicode="P" horiz-adv-x="593" 
d="M549 515q0 -108 -73 -165t-199 -57h-81v-293h-100v725h198q120 0 187.5 -54.5t67.5 -155.5zM448 512q0 124 -159 124h-93v-254h86q166 0 166 130z" />
    <glyph glyph-name="Q" unicode="Q" horiz-adv-x="823" 
d="M758 363q0 -135 -63 -226t-172 -126l218 -73l-20 -88l-407 146q-249 90 -249 365q0 170 94.5 273.5t252.5 103.5t252 -103t94 -272zM655 362q0 131 -66 207.5t-178 76.5t-177.5 -76.5t-65.5 -207.5t66 -210t177 -79q112 0 178 79t66 210z" />
    <glyph glyph-name="R" unicode="R" horiz-adv-x="630" 
d="M608 15l-105 -22l-229 312h-78v-305h-100v725h203q117 0 183.5 -54t66.5 -153q0 -79 -44.5 -129.5t-121.5 -70.5zM449 513q0 59 -39 91t-115 32h-99v-247h88q77 0 121 32t44 92z" />
    <glyph glyph-name="S" unicode="S" horiz-adv-x="567" 
d="M510 196q0 -93 -65.5 -148.5t-172.5 -55.5q-120 0 -209 47l15 102q94 -62 197 -62q61 0 98.5 29t37.5 80q0 49 -29 77t-116 65q-111 48 -153 91.5t-42 119.5q0 87 62.5 139.5t165.5 52.5q96 0 171 -41l-16 -100q-76 54 -159 54q-61 0 -93 -27.5t-32 -69.5
q0 -41 28.5 -67.5t115.5 -64.5q112 -49 154 -95t42 -126z" />
    <glyph glyph-name="T" unicode="T" horiz-adv-x="661" 
d="M627 633h-246v-633h-101v633h-240v92h573z" />
    <glyph glyph-name="U" unicode="U" horiz-adv-x="760" 
d="M672 279q0 -137 -78.5 -215t-215.5 -78q-136 0 -213.5 77.5t-77.5 210.5v451h101v-438q0 -98 47.5 -153.5t142.5 -55.5q96 0 145 53.5t49 152.5v441h100v-446z" />
    <glyph glyph-name="V" unicode="V" horiz-adv-x="748" 
d="M711 725l-293 -730h-92l-289 716l102 21l234 -600l230 593h108z" />
    <glyph glyph-name="W" unicode="W" horiz-adv-x="1119" 
d="M1076 725l-227 -728h-84l-206 588l-205 -588h-83l-224 714l101 21l170 -574l193 567h100l194 -567l167 567h104z" />
    <glyph glyph-name="X" unicode="X" horiz-adv-x="702" 
d="M665 14l-102 -21l-214 314l-205 -307h-111l259 377l-230 334l101 21l188 -280l181 273h112l-236 -345z" />
    <glyph glyph-name="Y" unicode="Y" horiz-adv-x="702" 
d="M673 725l-274 -438v-287h-100v287l-267 424l103 21l215 -351l209 344h114z" />
    <glyph glyph-name="Z" unicode="Z" horiz-adv-x="659" 
d="M613 0h-561v75l431 562h-398l-14 88h532v-75l-431 -563h427z" />
    <glyph glyph-name="bracketleft" unicode="[" horiz-adv-x="484" 
d="M426 -117h-318v890h310v-75h-216v-739h212z" />
    <glyph glyph-name="backslash" unicode="\" horiz-adv-x="628" 
d="M667 -124l-89 -19l-550 906l89 19z" />
    <glyph glyph-name="bracketright" unicode="]" horiz-adv-x="484" 
d="M57 773h318v-890h-311v76h217v739h-212z" />
    <glyph glyph-name="asciicircum" unicode="^" horiz-adv-x="537" 
d="M430 613h-62l-101 80l-100 -80h-62l116 158h93z" />
    <glyph glyph-name="underscore" unicode="_" horiz-adv-x="540" 
d="M537 -117h-535v78h535v-78z" />
    <glyph glyph-name="grave" unicode="`" horiz-adv-x="537" 
d="M372 613h-67l-156 142l121 27z" />
    <glyph glyph-name="a" unicode="a" horiz-adv-x="587" 
d="M404 146v126q-98 -9 -156.5 -30t-77.5 -44.5t-19 -54.5q0 -33 22.5 -52.5t62.5 -19.5q90 0 168 75zM503 0h-79l-12 72q-87 -83 -196 -83q-74 0 -118.5 40.5t-44.5 107.5q0 97 84 144t267 66v23q0 91 -107 91q-84 0 -192 -46l-13 85q114 45 213 45q100 0 149 -41.5
t49 -129.5v-374z" />
    <glyph glyph-name="b" unicode="b" horiz-adv-x="628" 
d="M572 282q0 -142 -73.5 -215.5t-197.5 -73.5q-99 0 -214 34v766l99 15v-337q74 74 167 74q95 0 157 -67.5t62 -195.5zM473 278q0 85 -37 132.5t-97 47.5q-79 0 -153 -88v-275q52 -18 114 -18q173 0 173 201z" />
    <glyph glyph-name="c" unicode="c" horiz-adv-x="552" 
d="M501 44q-76 -55 -189 -55q-114 0 -185.5 73.5t-71.5 203.5q0 132 74.5 205.5t189.5 73.5q104 0 177 -49l-15 -96q-78 59 -164 59q-74 0 -118 -50t-44 -141q0 -95 45.5 -144t120.5 -49q93 0 166 60z" />
    <glyph glyph-name="d" unicode="d" horiz-adv-x="633" 
d="M448 170v258q-63 30 -138 30q-69 0 -112 -52.5t-43 -149.5q0 -86 37 -133t97 -47q83 0 159 94zM546 0h-78l-13 77q-77 -88 -180 -88q-96 0 -158 67.5t-62 195.5q0 139 72 214t180 75q79 0 141 -24v276l98 15v-808z" />
    <glyph glyph-name="e" unicode="e" horiz-adv-x="587" 
d="M531 61q-93 -72 -220 -72q-115 0 -185.5 70t-70.5 210q0 126 68.5 201t174.5 75q115 0 174.5 -75t59.5 -192v-21h-378q3 -93 45.5 -138.5t118.5 -45.5q100 0 199 76zM297 468q-52 0 -89 -35.5t-49 -101.5h273q-17 137 -135 137z" />
    <glyph glyph-name="f" unicode="f" horiz-adv-x="367" 
d="M345 710q-27 5 -52 5q-78 0 -78 -70v-111h112l12 -83h-124v-451h-96v451h-84v83h84v121q0 147 169 147q15 0 43 -2z" />
    <glyph glyph-name="g" unicode="g" horiz-adv-x="595" 
d="M393 361q0 49 -33 80.5t-86 31.5t-84.5 -33t-31.5 -84q0 -47 32 -78.5t84 -31.5q54 0 86.5 32.5t32.5 82.5zM553 -39q0 -80 -77.5 -122.5t-192.5 -42.5q-114 0 -186 35t-72 103q0 76 119 138q-36 23 -36 56q0 39 58 72q-48 23 -75.5 64.5t-27.5 95.5q0 83 62 134t149 51
q84 0 143 -45l140 42l15 -89l-106 -10q22 -39 22 -83q0 -83 -62 -133.5t-150 -50.5q-22 0 -43 3q-29 -16 -29 -32q0 -14 21 -21t97 -20l40 -7q95 -16 143 -47.5t48 -90.5zM286 29q-48 8 -70 13q-96 -44 -96 -100q0 -34 44.5 -54.5t123.5 -20.5t125.5 23t46.5 58
q0 51 -110 70z" />
    <glyph glyph-name="h" unicode="h" horiz-adv-x="621" 
d="M537 0h-99v364q0 93 -88 93q-77 0 -164 -87v-370h-99v793l99 15v-345q96 82 189 82q78 0 120 -41.5t42 -115.5v-388z" />
    <glyph glyph-name="i" unicode="i" horiz-adv-x="289" 
d="M208 705q0 -26 -18.5 -44t-44.5 -18t-45 18t-19 44t19 44.5t45 18.5t44.5 -18.5t18.5 -44.5zM194 0h-99v534h99v-534z" />
    <glyph glyph-name="j" unicode="j" horiz-adv-x="289" 
d="M208 705q0 -26 -18.5 -44t-44.5 -18t-45 18t-19 44t19 44.5t45 18.5t44.5 -18.5t18.5 -44.5zM194 -68q0 -69 -38.5 -102.5t-105.5 -33.5q-36 0 -47 4l-14 87q22 -5 48 -5q58 0 58 59v593h99v-602z" />
    <glyph glyph-name="k" unicode="k" horiz-adv-x="565" 
d="M545 9l-107 -17l-252 288v-280h-99v793l99 15v-498l220 224h119l-238 -236z" />
    <glyph glyph-name="l" unicode="l" horiz-adv-x="289" 
d="M194 0h-99v793l99 15v-808z" />
    <glyph glyph-name="m" unicode="m" horiz-adv-x="958" 
d="M874 0h-99v364q0 93 -85 93q-73 0 -160 -87v-370h-99v364q0 93 -85 93q-73 0 -160 -87v-370h-99v534h78l13 -77q103 88 194 88q115 0 147 -88q99 88 197 88q79 0 118.5 -41t39.5 -116v-388z" />
    <glyph glyph-name="n" unicode="n" horiz-adv-x="621" 
d="M537 0h-99v364q0 93 -88 93q-77 0 -164 -87v-370h-99v534h78l13 -77q103 88 197 88q78 0 120 -41.5t42 -115.5v-388z" />
    <glyph glyph-name="o" unicode="o" horiz-adv-x="621" 
d="M566 266q0 -128 -72 -202.5t-185 -74.5t-183.5 74t-70.5 203t71 204t183 75q114 0 185.5 -75t71.5 -204zM466 266q0 86 -42 141.5t-115 55.5q-74 0 -114 -54.5t-40 -142.5q0 -85 41 -140t113 -55q75 0 116 53.5t41 141.5z" />
    <glyph glyph-name="p" unicode="p" horiz-adv-x="633" 
d="M478 278q0 86 -37 133t-98 47q-83 0 -157 -94v-259q61 -29 136 -29q70 0 113 52.5t43 149.5zM578 282q0 -139 -72 -214t-180 -75q-80 0 -140 24v-211l-99 -14v742h78l13 -77q79 88 180 88q95 0 157.5 -67.5t62.5 -195.5z" />
    <glyph glyph-name="q" unicode="q" horiz-adv-x="628" 
d="M541 -194l-99 -14v270q-77 -73 -167 -73q-96 0 -158 67.5t-62 195.5q0 142 74 215.5t198 73.5q97 0 214 -34v-701zM442 164v274q-55 19 -115 19q-172 0 -172 -201q0 -86 37 -133t97 -47q79 0 153 88z" />
    <glyph glyph-name="r" unicode="r" horiz-adv-x="422" 
d="M393 451q-66 -3 -122 -41t-85 -93v-317h-99v534h78l17 -109q75 115 195 120z" />
    <glyph glyph-name="s" unicode="s" horiz-adv-x="522" 
d="M471 149q0 -75 -56.5 -117.5t-160.5 -42.5q-109 0 -201 50l14 93q92 -61 195 -61q55 0 85.5 18.5t30.5 52.5q0 36 -28 54.5t-106 36.5q-100 25 -140.5 60.5t-40.5 104.5q0 65 52.5 106t141.5 41q100 0 180 -36l-15 -92q-85 45 -168 45q-48 0 -73 -16.5t-25 -45.5
q0 -27 25.5 -44.5t91.5 -33.5q107 -27 152.5 -63.5t45.5 -109.5z" />
    <glyph glyph-name="t" unicode="t" horiz-adv-x="399" 
d="M350 -2q-30 -7 -78 -7q-76 0 -117 32.5t-41 108.5v319h-84v83h84v178l96 15v-193h122l13 -83h-135v-302q0 -71 78 -71q32 0 49 4z" />
    <glyph glyph-name="u" unicode="u" horiz-adv-x="621" 
d="M534 0h-78l-13 77q-101 -88 -197 -88q-79 0 -120.5 41.5t-41.5 115.5v388h99v-364q0 -93 88 -93q77 0 164 87v370h99v-534z" />
    <glyph glyph-name="v" unicode="v" horiz-adv-x="556" 
d="M524 534l-198 -537h-96l-197 529l101 16l146 -424l141 416h103z" />
    <glyph glyph-name="w" unicode="w" horiz-adv-x="850" 
d="M813 534l-179 -536h-84l-126 405l-125 -405h-82l-180 528l97 16l125 -406l125 398h83l126 -398l121 398h99z" />
    <glyph glyph-name="x" unicode="x" horiz-adv-x="557" 
d="M518 7l-97 -15l-144 215l-134 -207h-104l186 273l-174 253l97 16l131 -199l125 191h103l-175 -258z" />
    <glyph glyph-name="y" unicode="y" horiz-adv-x="570" 
d="M538 534l-229 -591q-31 -84 -74.5 -115.5t-108.5 -31.5q-17 0 -42 5l-15 89q34 -8 53 -8q36 0 59.5 18.5t40.5 60.5l15 37l-204 528l100 16l153 -425l149 417h103z" />
    <glyph glyph-name="z" unicode="z" horiz-adv-x="534" 
d="M486 0h-440v77l315 375h-287l-13 82h412v-77l-315 -375h315z" />
    <glyph glyph-name="braceleft" unicode="{" horiz-adv-x="562" 
d="M504 -117h-132q-167 0 -167 147q0 26 7.5 77t7.5 78q0 107 -116 107h-40l-13 74h54q115 0 115 105q0 27 -7.5 78t-7.5 77q0 147 167 147h125v-75h-118q-80 0 -80 -71q0 -23 8 -76t8 -78q0 -65 -30.5 -98t-88.5 -46v-2q58 -12 88.5 -44.5t30.5 -98.5q0 -25 -8 -78.5
t-8 -76.5q0 -70 78 -70h115z" />
    <glyph glyph-name="bar" unicode="|" horiz-adv-x="318" 
d="M203 -194l-88 -14v1002l88 15v-1003z" />
    <glyph glyph-name="braceright" unicode="}" horiz-adv-x="562" 
d="M57 773h132q167 0 167 -147q0 -25 -7.5 -76t-7.5 -78q0 -107 116 -107h40l12 -74h-53q-115 0 -115 -106q0 -27 7.5 -78t7.5 -77q0 -147 -167 -147h-126v76h119q80 0 80 70q0 23 -8 76.5t-8 78.5q0 65 30 97.5t88 45.5v2q-58 12 -88 45t-30 99q0 24 8 77.5t8 76.5
q0 71 -79 71h-114z" />
    <glyph glyph-name="asciitilde" unicode="~" horiz-adv-x="484" 
d="M421 377q-17 -127 -96 -127q-31 0 -83 26q-56 28 -76 28q-25 0 -38 -57l-64 13q15 127 95 127q30 0 82 -26q57 -28 77 -28q25 0 38 58z" />
    <glyph glyph-name="uni00A0" unicode="&#xa0;" horiz-adv-x="143" 
 />
    <glyph glyph-name="exclamdown" unicode="&#xa1;" horiz-adv-x="305" 
d="M206 598h-107v127h107v-127zM210 0h-114l26 495l61 13z" />
    <glyph glyph-name="cent" unicode="&#xa2;" horiz-adv-x="534" 
d="M147 355q0 -130 92 -164l54 340q-68 -2 -107 -47t-39 -129zM477 151q-71 -52 -178 -52h-7l-17 -110l-69 16l17 103q-78 22 -122.5 85t-44.5 160q0 122 68 189.5t177 67.5h3l18 109l70 -15l-17 -101q53 -9 97 -38l-13 -89q-48 38 -99 49l-56 -345h6q46 0 81 11t74 42z" />
    <glyph glyph-name="sterling" unicode="&#xa3;" horiz-adv-x="594" 
d="M55 391h106l49 145q33 99 88.5 143t149.5 44q47 0 90 -10l-13 -87q-37 10 -86 10q-53 0 -86.5 -29t-56.5 -97l-40 -119h191l12 -83h-231l-74 -223h375l13 -85h-487v74l78 234h-78v83z" />
    <glyph glyph-name="yen" unicode="&#xa5;" horiz-adv-x="672" 
d="M107 236v74h162l-236 386l95 21l207 -356l202 349h105l-244 -400h156l12 -74h-187v-79h181v-73h-181v-84h-91v84h-173l-13 73h186v79h-181z" />
    <glyph glyph-name="section" unicode="&#xa7;" horiz-adv-x="585" 
d="M531 377q0 -50 -33 -104l-77 14q24 42 24 72t-22 45t-86 28l-60 11q-86 18 -126.5 46.5t-40.5 90.5q0 59 49.5 98.5t126.5 39.5q100 0 179 -32l-14 -86q-80 43 -167 43q-41 0 -63.5 -16.5t-22.5 -42.5q0 -24 20.5 -38t66.5 -23l99 -21q78 -17 112.5 -46.5t34.5 -78.5z
M54 333q0 48 33 104l77 -14q-24 -42 -24 -72t22 -45t86 -28l60 -11q86 -18 126.5 -46.5t40.5 -90.5q0 -59 -49.5 -98.5t-126.5 -39.5q-101 0 -178 32l13 85q81 -42 167 -42q41 0 63.5 16.5t22.5 41.5t-20.5 39t-66.5 23l-99 21q-78 17 -112.5 46t-34.5 79z" />
    <glyph glyph-name="dieresis" unicode="&#xa8;" horiz-adv-x="537" 
d="M221 618h-112v112h112v-112zM428 618h-112v112h112v-112z" />
    <glyph glyph-name="copyright" unicode="&#xa9;" horiz-adv-x="881" 
d="M818 363q0 -167 -105.5 -272t-272.5 -105q-168 0 -272.5 103.5t-104.5 271.5t105 272.5t273 104.5t272.5 -103.5t104.5 -271.5zM771 362q0 159 -93 248.5t-237 89.5q-146 0 -238 -89.5t-92 -248.5q0 -158 92.5 -247.5t237.5 -89.5q146 0 238 89.5t92 247.5zM589 194
q-65 -43 -137 -43q-91 0 -147 59t-56 155q0 95 56.5 155t146.5 60q69 0 130 -37l-11 -72q-59 43 -119 43q-59 0 -95 -41t-36 -108t36 -107.5t95 -40.5q58 0 127 46z" />
    <glyph glyph-name="ordfeminine" unicode="&#xaa;" horiz-adv-x="425" 
d="M277 469v72q-145 -17 -145 -74q0 -40 48 -40q52 0 97 42zM347 375h-58l-6 40q-55 -47 -117 -47q-47 0 -75 25.5t-28 69.5q0 58 50.5 89t163.5 42v9q0 52 -63 52q-50 0 -117 -30l-11 62q68 28 135 28q64 0 95 -26t31 -82v-232zM357 234h-291v62h280z" />
    <glyph glyph-name="guillemotleft" unicode="&#xab;" horiz-adv-x="619" 
d="M559 534l-169 -266l163 -256l-80 -18l-191 274l188 266h89zM323 534l-169 -266l163 -256l-80 -18l-191 274l188 266h89z" />
    <glyph glyph-name="registered" unicode="&#xae;" horiz-adv-x="665" 
d="M596 526q0 -115 -74 -187.5t-190 -72.5q-118 0 -191 72t-73 188t74 188.5t191 72.5t190 -72t73 -189zM560 526q0 108 -64.5 169.5t-162.5 61.5q-100 0 -164.5 -61.5t-64.5 -169.5q0 -106 65 -168t163 -62q100 0 164 61.5t64 168.5zM461 399l-51 -12l-90 124h-29v-119h-49
v288h88q48 0 76.5 -22.5t28.5 -61.5q0 -62 -62 -80zM384 592q0 43 -54 43h-40v-85h38q56 0 56 42z" />
    <glyph glyph-name="macron" unicode="&#xaf;" horiz-adv-x="537" 
d="M423 639h-309v80h309v-80z" />
    <glyph glyph-name="degree" unicode="&#xb0;" horiz-adv-x="474" 
d="M418 539q0 -77 -51 -126t-130 -49q-80 0 -131 49.5t-51 125.5q0 77 51.5 127t130.5 50t130 -50t51 -127zM345 539q0 47 -31 78t-77 31q-47 0 -78 -31t-31 -78t31 -76.5t78 -29.5t77.5 29.5t30.5 76.5z" />
    <glyph glyph-name="plusminus" unicode="&#xb1;" horiz-adv-x="598" 
d="M506 389h-167v-165h-81v165h-166v75h166v165h81v-165h167v-75zM541 99h-484v74h484v-74z" />
    <glyph glyph-name="two.sup" unicode="&#xb2;" 
d="M365 460h-324v67l166 139q35 29 47.5 46t12.5 39q0 26 -20 40.5t-52 14.5q-60 0 -133 -43l-11 72q70 43 150 43q71 0 112 -34t41 -85q0 -37 -20.5 -66t-67.5 -67l-122 -95h208z" />
    <glyph glyph-name="three.sup" unicode="&#xb3;" 
d="M358 571q0 -55 -48.5 -87.5t-126.5 -32.5q-84 0 -145 34l11 67q68 -33 137 -33q40 0 64 16t24 44q0 32 -28 45.5t-93 13.5h-34l-11 67h48q110 0 110 56q0 50 -76 50q-71 0 -134 -37l-11 67q72 37 146 37q77 0 117.5 -28t40.5 -77q0 -72 -95 -101q52 -13 78 -37t26 -64z
" />
    <glyph glyph-name="acute" unicode="&#xb4;" horiz-adv-x="537" 
d="M388 755l-156 -142h-67l103 169z" />
    <glyph glyph-name="mu" unicode="&#xb5;" horiz-adv-x="652" 
d="M87 -208v742h99v-371q0 -86 88 -86q77 0 164 87v370h99v-413q0 -43 42 -43q19 0 35 6l-12 -83q-28 -7 -54 -7q-41 0 -69 20.5t-36 59.5q-92 -83 -176 -83q-59 0 -98 43q14 -62 14 -182v-46z" />
    <glyph glyph-name="paragraph" unicode="&#xb6;" horiz-adv-x="592" 
d="M496 0h-85v639h-78v-152l-35 -210q-120 5 -187.5 60t-67.5 160q0 101 68.5 157t188.5 56h196v-710z" />
    <glyph glyph-name="periodcentered" unicode="&#xb7;" horiz-adv-x="269" 
d="M190 251h-111v132h111v-132z" />
    <glyph glyph-name="cedilla" unicode="&#xb8;" horiz-adv-x="537" 
d="M358 -99l-143 -122h-67l91 149z" />
    <glyph glyph-name="one.sup" unicode="&#xb9;" 
d="M366 460h-301v67h112v270l-109 -39l-10 64l138 55h59v-350h99z" />
    <glyph glyph-name="ordmasculine" unicode="&#xba;" horiz-adv-x="429" 
d="M375 541q0 -81 -44.5 -127t-116.5 -46q-71 0 -115.5 46t-44.5 127t44.5 127.5t115.5 46.5q72 0 116.5 -46.5t44.5 -127.5zM301 541q0 49 -22.5 80.5t-64.5 31.5t-64 -31t-22 -81q0 -49 22.5 -80.5t63.5 -31.5q42 0 64.5 31t22.5 81zM369 234h-303v62h292z" />
    <glyph glyph-name="guillemotright" unicode="&#xbb;" horiz-adv-x="619" 
d="M337 266l-188 -266h-90l170 266l-163 256l79 18zM573 266l-188 -266h-90l170 266l-163 256l79 18z" />
    <glyph glyph-name="onequarter" unicode="&#xbc;" horiz-adv-x="900" 
d="M293 -8l-68 19l223 354l212 353l68 -19l-224 -355zM358 327h-283v63h105v250l-102 -36l-9 62l130 51h56v-327h93zM850 77h-63v-82h-67v82h-203v55l168 254h102v-252h63v-57zM721 135v94l2 105h-7l-37 -64l-51 -79l-36 -54l2 -4l60 2h67z" />
    <glyph glyph-name="onehalf" unicode="&#xbd;" horiz-adv-x="900" 
d="M277 -8l-68 19l223 354l212 353l68 -19l-224 -355zM358 327h-283v63h105v250l-102 -36l-9 62l130 51h56v-327h93zM849 0h-305v64l156 130q32 26 43.5 42t11.5 36q0 24 -18.5 37t-47.5 13q-58 0 -124 -40l-11 70q67 40 141 40q67 0 105.5 -32t38.5 -80q0 -34 -19 -61
t-64 -64l-112 -87h192z" />
    <glyph glyph-name="threequarters" unicode="&#xbe;" horiz-adv-x="900" 
d="M282 -8l-68 19l223 354l212 353l68 -19l-224 -355zM352 431q0 -53 -45 -83t-120 -30q-78 0 -137 32l11 65q66 -32 129 -32q37 0 59 15t22 40q0 30 -25.5 42t-86.5 12h-33l-10 65h46q101 0 101 51q0 45 -69 45q-70 0 -127 -34l-10 65q66 34 138 34t110 -26.5t38 -72.5
q0 -67 -88 -94q97 -25 97 -94zM850 77h-63v-82h-67v82h-203v55l168 254h102v-252h63v-57zM721 135v94l2 105h-7l-37 -64l-51 -79l-36 -54l2 -4l60 2h67z" />
    <glyph glyph-name="questiondown" unicode="&#xbf;" horiz-adv-x="572" 
d="M259 725h107v-127h-107v127zM64 173q0 79 49.5 125t158.5 94l10 103l62 13l14 -173l-44 -18q-82 -31 -116 -61.5t-34 -78.5q0 -47 35.5 -73.5t93.5 -26.5q106 0 212 85l14 -98q-108 -78 -232 -78q-100 0 -161.5 51t-61.5 136z" />
    <glyph glyph-name="Agrave" unicode="&#xc0;" horiz-adv-x="760" 
d="M420 800h-64l-147 133l116 26zM37 0l295 728h100l291 -714l-99 -21l-88 223h-311l-84 -216h-104zM380 610l-121 -305h242z" />
    <glyph glyph-name="Aacute" unicode="&#xc1;" horiz-adv-x="760" 
d="M551 933l-147 -133h-64l95 159zM37 0l295 728h100l291 -714l-99 -21l-88 223h-311l-84 -216h-104zM380 610l-121 -305h242z" />
    <glyph glyph-name="Acircumflex" unicode="&#xc2;" horiz-adv-x="760" 
d="M533 800h-60l-93 74l-94 -74h-59l108 148h90zM37 0l295 728h100l291 -714l-99 -21l-88 223h-311l-84 -216h-104zM380 610l-121 -305h242z" />
    <glyph glyph-name="Atilde" unicode="&#xc3;" horiz-adv-x="760" 
d="M551 923q-13 -120 -89 -120q-26 0 -77 24q-52 26 -71 26q-13 0 -21 -11.5t-15 -41.5l-62 13q15 120 89 120q30 0 78 -24q51 -26 71 -26q13 0 21 11.5t15 41.5zM37 0l295 728h100l291 -714l-99 -21l-88 223h-311l-84 -216h-104zM380 610l-121 -305h242z" />
    <glyph glyph-name="Adieresis" unicode="&#xc4;" horiz-adv-x="760" 
d="M336 804h-107v107h107v-107zM531 804h-107v107h107v-107zM37 0l295 728h100l291 -714l-99 -21l-88 223h-311l-84 -216h-104zM380 610l-121 -305h242z" />
    <glyph glyph-name="Aring" unicode="&#xc5;" horiz-adv-x="760" 
d="M493 762q0 -54 -40 -84l270 -664l-97 -21l-89 223h-314l-85 -216h-101l273 675q-43 30 -43 87q0 47 32 78t81 31t81 -31t32 -78zM442 762q0 27 -17.5 45t-44.5 18t-45 -18t-18 -45t18 -44.5t45 -17.5t44.5 17.5t17.5 44.5zM380 610l-121 -305h243z" />
    <glyph glyph-name="AE" unicode="&#xc6;" horiz-adv-x="973" 
d="M302 305h206v334zM7 0l449 725h457v-92h-307v-208h239l14 -92h-253v-241h318v-92h-416v216h-260l-132 -216h-109z" />
    <glyph glyph-name="Ccedilla" unicode="&#xc7;" horiz-adv-x="699" 
d="M641 57q-100 -71 -229 -71q-157 0 -252 103.5t-95 271.5q0 169 96 273t254 104q122 0 214 -60l-15 -102q-96 70 -200 70q-115 0 -180.5 -76.5t-65.5 -207.5q0 -130 66 -206.5t180 -76.5q107 0 212 72zM468 -99l-134 -113h-64l84 140z" />
    <glyph glyph-name="Egrave" unicode="&#xc8;" horiz-adv-x="561" 
d="M341 789h-64l-147 133l116 26zM511 0h-415v725h405v-92h-305v-208h237l15 -92h-252v-241h315v-92z" />
    <glyph glyph-name="Eacute" unicode="&#xc9;" horiz-adv-x="561" 
d="M472 922l-147 -133h-64l95 159zM511 0h-415v725h405v-92h-305v-208h237l15 -92h-252v-241h315v-92z" />
    <glyph glyph-name="Ecircumflex" unicode="&#xca;" horiz-adv-x="561" 
d="M454 789h-60l-93 74l-94 -74h-59l108 148h90zM511 0h-415v725h405v-92h-305v-208h237l15 -92h-252v-241h315v-92z" />
    <glyph glyph-name="Edieresis" unicode="&#xcb;" horiz-adv-x="561" 
d="M257 793h-107v107h107v-107zM452 793h-107v107h107v-107zM511 0h-415v725h405v-92h-305v-208h237l15 -92h-252v-241h315v-92z" />
    <glyph glyph-name="Igrave" unicode="&#xcc;" horiz-adv-x="305" 
d="M192 789h-64l-147 133l116 26zM202 0h-100v725h100v-725z" />
    <glyph glyph-name="Iacute" unicode="&#xcd;" horiz-adv-x="305" 
d="M323 922l-147 -133h-64l95 159zM202 0h-100v725h100v-725z" />
    <glyph glyph-name="Icircumflex" unicode="&#xce;" horiz-adv-x="305" 
d="M305 789h-60l-93 74l-94 -74h-59l108 148h90zM202 0h-100v725h100v-725z" />
    <glyph glyph-name="Idieresis" unicode="&#xcf;" horiz-adv-x="305" 
d="M108 793h-107v107h107v-107zM303 793h-107v107h107v-107zM202 0h-100v725h100v-725z" />
    <glyph glyph-name="Eth" unicode="&#xd0;" horiz-adv-x="794" 
d="M727 363q0 -165 -105.5 -264t-294.5 -99h-213v334h-82l-15 90h97v301h217q191 0 293.5 -99t102.5 -263zM624 362q0 133 -78 202.5t-212 69.5h-120v-210h179v-90h-179v-243h117q140 0 216.5 68t76.5 203z" />
    <glyph glyph-name="Ntilde" unicode="&#xd1;" horiz-adv-x="776" 
d="M559 902q-13 -120 -89 -120q-26 0 -77 24q-52 26 -71 26q-13 0 -21 -11.5t-15 -41.5l-62 13q15 120 89 120q30 0 78 -24q51 -26 71 -26q13 0 21 11.5t15 41.5zM680 0h-75l-417 561v-561h-92v725h89l403 -541v541h92v-725z" />
    <glyph glyph-name="Ograve" unicode="&#xd2;" horiz-adv-x="823" 
d="M451 800h-64l-147 133l116 26zM758 363q0 -168 -95 -272.5t-253 -104.5q-157 0 -251 103t-94 272q0 170 94.5 273.5t252.5 103.5t252 -103t94 -272zM655 362q0 131 -66 207.5t-178 76.5t-177.5 -76.5t-65.5 -207.5q0 -130 65.5 -207t177.5 -77q113 0 178.5 77t65.5 207z
" />
    <glyph glyph-name="Oacute" unicode="&#xd3;" horiz-adv-x="823" 
d="M582 933l-147 -133h-64l95 159zM758 363q0 -168 -95 -272.5t-253 -104.5q-157 0 -251 103t-94 272q0 170 94.5 273.5t252.5 103.5t252 -103t94 -272zM655 362q0 131 -66 207.5t-178 76.5t-177.5 -76.5t-65.5 -207.5q0 -130 65.5 -207t177.5 -77q113 0 178.5 77t65.5 207z
" />
    <glyph glyph-name="Ocircumflex" unicode="&#xd4;" horiz-adv-x="823" 
d="M564 800h-60l-93 74l-94 -74h-59l108 148h90zM758 363q0 -168 -95 -272.5t-253 -104.5q-157 0 -251 103t-94 272q0 170 94.5 273.5t252.5 103.5t252 -103t94 -272zM655 362q0 131 -66 207.5t-178 76.5t-177.5 -76.5t-65.5 -207.5q0 -130 65.5 -207t177.5 -77
q113 0 178.5 77t65.5 207z" />
    <glyph glyph-name="Otilde" unicode="&#xd5;" horiz-adv-x="823" 
d="M583 923q-13 -120 -89 -120q-26 0 -77 24q-52 26 -71 26q-13 0 -21 -11.5t-15 -41.5l-62 13q15 120 89 120q30 0 78 -24q51 -26 71 -26q13 0 21 11.5t15 41.5zM758 363q0 -168 -95 -272.5t-253 -104.5q-157 0 -251 103t-94 272q0 170 94.5 273.5t252.5 103.5t252 -103
t94 -272zM655 362q0 131 -66 207.5t-178 76.5t-177.5 -76.5t-65.5 -207.5q0 -130 65.5 -207t177.5 -77q113 0 178.5 77t65.5 207z" />
    <glyph glyph-name="Odieresis" unicode="&#xd6;" horiz-adv-x="823" 
d="M367 804h-107v107h107v-107zM562 804h-107v107h107v-107zM758 363q0 -168 -95 -272.5t-253 -104.5q-157 0 -251 103t-94 272q0 170 94.5 273.5t252.5 103.5t252 -103t94 -272zM655 362q0 131 -66 207.5t-178 76.5t-177.5 -76.5t-65.5 -207.5q0 -130 65.5 -207t177.5 -77
q113 0 178.5 77t65.5 207z" />
    <glyph glyph-name="multiply" unicode="&#xd7;" horiz-adv-x="632" 
d="M494 128l-179 173l-178 -173l-56 55l181 171l-181 171l58 57l178 -173l179 173l55 -55l-180 -171l180 -171z" />
    <glyph glyph-name="Oslash" unicode="&#xd8;" horiz-adv-x="823" 
d="M758 363q0 -168 -95 -272.5t-253 -104.5q-124 0 -209 65l-51 -61l-90 20l82 98q-77 100 -77 253q0 170 94.5 273.5t252.5 103.5q121 0 210 -65l51 61l89 -19l-83 -99q79 -99 79 -253zM411 649q-113 0 -179 -77.5t-66 -209.5q0 -105 43 -177l352 415q-61 49 -150 49z
M658 362q0 105 -45 178l-351 -415q60 -49 149 -49q114 0 180.5 77.5t66.5 208.5z" />
    <glyph glyph-name="Ugrave" unicode="&#xd9;" horiz-adv-x="760" 
d="M419 779h-64l-147 133l116 26zM672 279q0 -137 -78.5 -215t-215.5 -78q-136 0 -213.5 77.5t-77.5 210.5v451h101v-438q0 -98 47.5 -153.5t142.5 -55.5q96 0 145 53.5t49 152.5v441h100v-446z" />
    <glyph glyph-name="Uacute" unicode="&#xda;" horiz-adv-x="760" 
d="M550 912l-147 -133h-64l95 159zM672 279q0 -137 -78.5 -215t-215.5 -78q-136 0 -213.5 77.5t-77.5 210.5v451h101v-438q0 -98 47.5 -153.5t142.5 -55.5q96 0 145 53.5t49 152.5v441h100v-446z" />
    <glyph glyph-name="Ucircumflex" unicode="&#xdb;" horiz-adv-x="760" 
d="M532 779h-60l-93 74l-94 -74h-59l108 148h90zM672 279q0 -137 -78.5 -215t-215.5 -78q-136 0 -213.5 77.5t-77.5 210.5v451h101v-438q0 -98 47.5 -153.5t142.5 -55.5q96 0 145 53.5t49 152.5v441h100v-446z" />
    <glyph glyph-name="Udieresis" unicode="&#xdc;" horiz-adv-x="760" 
d="M335 783h-107v107h107v-107zM530 783h-107v107h107v-107zM672 279q0 -137 -78.5 -215t-215.5 -78q-136 0 -213.5 77.5t-77.5 210.5v451h101v-438q0 -98 47.5 -153.5t142.5 -55.5q96 0 145 53.5t49 152.5v441h100v-446z" />
    <glyph glyph-name="Yacute" unicode="&#xdd;" horiz-adv-x="702" 
d="M522 912l-147 -133h-64l95 159zM673 725l-274 -438v-287h-100v287l-267 424l103 21l215 -351l209 344h114z" />
    <glyph glyph-name="Thorn" unicode="&#xde;" horiz-adv-x="598" 
d="M549 377q0 -108 -73 -165t-199 -57h-81v-155h-100v725h100v-139h98q120 0 187.5 -54.5t67.5 -154.5zM448 374q0 124 -159 124h-93v-255h86q166 0 166 131z" />
    <glyph glyph-name="germandbls" unicode="&#xdf;" horiz-adv-x="719" 
d="M673 164q0 -82 -54 -128.5t-146 -46.5q-96 0 -175 46l15 91q87 -55 165 -55q47 0 74.5 24t27.5 66q0 23 -8.5 41.5t-32.5 40.5t-77 42.5t-132 37.5l-11 78q98 120 98 213q0 49 -26.5 76.5t-71.5 27.5q-49 0 -76 -30t-27 -82v-606h-98v451h-83v83h83v61q0 99 53.5 153
t145.5 54q94 0 146 -47.5t52 -136.5q0 -60 -28 -113.5t-82 -115.5q139 -32 203.5 -85.5t64.5 -139.5z" />
    <glyph glyph-name="agrave" unicode="&#xe0;" horiz-adv-x="587" 
d="M335 613h-67l-156 142l121 27zM404 146v126q-98 -9 -156.5 -30t-77.5 -44.5t-19 -54.5q0 -33 22.5 -52.5t62.5 -19.5q90 0 168 75zM503 0h-79l-12 72q-87 -83 -196 -83q-74 0 -118.5 40.5t-44.5 107.5q0 97 84 144t267 66v23q0 91 -107 91q-84 0 -192 -46l-13 85
q114 45 213 45q100 0 149 -41.5t49 -129.5v-374z" />
    <glyph glyph-name="aacute" unicode="&#xe1;" horiz-adv-x="587" 
d="M476 755l-156 -142h-67l103 169zM404 146v126q-98 -9 -156.5 -30t-77.5 -44.5t-19 -54.5q0 -33 22.5 -52.5t62.5 -19.5q90 0 168 75zM503 0h-79l-12 72q-87 -83 -196 -83q-74 0 -118.5 40.5t-44.5 107.5q0 97 84 144t267 66v23q0 91 -107 91q-84 0 -192 -46l-13 85
q114 45 213 45q100 0 149 -41.5t49 -129.5v-374z" />
    <glyph glyph-name="acircumflex" unicode="&#xe2;" horiz-adv-x="587" 
d="M456 613h-62l-101 80l-100 -80h-62l116 158h93zM404 146v126q-98 -9 -156.5 -30t-77.5 -44.5t-19 -54.5q0 -33 22.5 -52.5t62.5 -19.5q90 0 168 75zM503 0h-79l-12 72q-87 -83 -196 -83q-74 0 -118.5 40.5t-44.5 107.5q0 97 84 144t267 66v23q0 91 -107 91
q-84 0 -192 -46l-13 85q114 45 213 45q100 0 149 -41.5t49 -129.5v-374z" />
    <glyph glyph-name="atilde" unicode="&#xe3;" horiz-adv-x="587" 
d="M476 743q-15 -127 -94 -127q-31 0 -83 26q-54 28 -76 28q-13 0 -22 -12.5t-16 -44.5l-64 13q15 127 94 127q31 0 83 -26q56 -28 76 -28q26 0 38 58zM404 146v126q-98 -9 -156.5 -30t-77.5 -44.5t-19 -54.5q0 -33 22.5 -52.5t62.5 -19.5q90 0 168 75zM503 0h-79l-12 72
q-87 -83 -196 -83q-74 0 -118.5 40.5t-44.5 107.5q0 97 84 144t267 66v23q0 91 -107 91q-84 0 -192 -46l-13 85q114 45 213 45q100 0 149 -41.5t49 -129.5v-374z" />
    <glyph glyph-name="adieresis" unicode="&#xe4;" horiz-adv-x="587" 
d="M246 618h-112v112h112v-112zM453 618h-112v112h112v-112zM404 146v126q-98 -9 -156.5 -30t-77.5 -44.5t-19 -54.5q0 -33 22.5 -52.5t62.5 -19.5q90 0 168 75zM503 0h-79l-12 72q-87 -83 -196 -83q-74 0 -118.5 40.5t-44.5 107.5q0 97 84 144t267 66v23q0 91 -107 91
q-84 0 -192 -46l-13 85q114 45 213 45q100 0 149 -41.5t49 -129.5v-374z" />
    <glyph glyph-name="aring" unicode="&#xe5;" horiz-adv-x="587" 
d="M413 724q0 -49 -33.5 -81t-85.5 -32t-86 32t-34 81q0 50 34 83.5t86 33.5q51 0 85 -33.5t34 -83.5zM360 724q0 29 -19 48.5t-47 19.5q-29 0 -48 -19.5t-19 -48.5t19 -47.5t48 -18.5q28 0 47 19t19 47zM404 146v126q-98 -9 -156.5 -30t-77.5 -44.5t-19 -54.5
q0 -33 22.5 -52.5t62.5 -19.5q90 0 168 75zM503 0h-79l-12 72q-87 -83 -196 -83q-74 0 -118.5 40.5t-44.5 107.5q0 97 84 144t267 66v23q0 91 -107 91q-84 0 -192 -46l-13 85q114 45 213 45q100 0 149 -41.5t49 -129.5v-374z" />
    <glyph glyph-name="ae" unicode="&#xe6;" horiz-adv-x="928" 
d="M872 278v-21h-379q3 -92 46.5 -138t118.5 -46q100 0 199 76l14 -88q-93 -72 -220 -72q-131 0 -200 85q-100 -85 -218 -85q-81 0 -130.5 38.5t-49.5 110.5q0 93 81.5 141.5t260.5 66.5v24q0 49 -24 70t-74 21q-84 0 -192 -46l-13 85q114 45 206 45q72 0 111 -17.5
t60 -58.5q62 76 170 76q115 0 174 -75t59 -192zM772 331q-17 137 -134 137q-53 0 -91 -35t-48 -102h273zM415 142q-20 60 -20 127v2q-138 -15 -191 -48t-53 -80q0 -34 25.5 -53t69.5 -19q91 0 169 71z" />
    <glyph glyph-name="ccedilla" unicode="&#xe7;" horiz-adv-x="552" 
d="M501 44q-76 -55 -189 -55q-114 0 -185.5 73.5t-71.5 203.5q0 132 74.5 205.5t189.5 73.5q104 0 177 -49l-15 -96q-78 59 -164 59q-74 0 -118 -50t-44 -141q0 -95 45.5 -144t120.5 -49q93 0 166 60zM378 -99l-143 -122h-67l91 149z" />
    <glyph glyph-name="egrave" unicode="&#xe8;" horiz-adv-x="587" 
d="M346 613h-67l-156 142l121 27zM531 61q-93 -72 -220 -72q-115 0 -185.5 70t-70.5 210q0 126 68.5 201t174.5 75q115 0 174.5 -75t59.5 -192v-21h-378q3 -93 45.5 -138.5t118.5 -45.5q100 0 199 76zM297 468q-52 0 -89 -35.5t-49 -101.5h273q-17 137 -135 137z" />
    <glyph glyph-name="eacute" unicode="&#xe9;" horiz-adv-x="587" 
d="M486 755l-156 -142h-67l103 169zM531 61q-93 -72 -220 -72q-115 0 -185.5 70t-70.5 210q0 126 68.5 201t174.5 75q115 0 174.5 -75t59.5 -192v-21h-378q3 -93 45.5 -138.5t118.5 -45.5q100 0 199 76zM297 468q-52 0 -89 -35.5t-49 -101.5h273q-17 137 -135 137z" />
    <glyph glyph-name="ecircumflex" unicode="&#xea;" horiz-adv-x="587" 
d="M467 613h-62l-101 80l-100 -80h-62l116 158h93zM531 61q-93 -72 -220 -72q-115 0 -185.5 70t-70.5 210q0 126 68.5 201t174.5 75q115 0 174.5 -75t59.5 -192v-21h-378q3 -93 45.5 -138.5t118.5 -45.5q100 0 199 76zM297 468q-52 0 -89 -35.5t-49 -101.5h273
q-17 137 -135 137z" />
    <glyph glyph-name="edieresis" unicode="&#xeb;" horiz-adv-x="587" 
d="M257 618h-112v112h112v-112zM464 618h-112v112h112v-112zM531 61q-93 -72 -220 -72q-115 0 -185.5 70t-70.5 210q0 126 68.5 201t174.5 75q115 0 174.5 -75t59.5 -192v-21h-378q3 -93 45.5 -138.5t118.5 -45.5q100 0 199 76zM297 468q-52 0 -89 -35.5t-49 -101.5h273
q-17 137 -135 137z" />
    <glyph glyph-name="igrave" unicode="&#xec;" horiz-adv-x="289" 
d="M185 613h-67l-156 142l121 27zM194 0h-99v534h99v-534z" />
    <glyph glyph-name="iacute" unicode="&#xed;" horiz-adv-x="289" 
d="M326 755l-156 -142h-67l103 169zM194 0h-99v534h99v-534z" />
    <glyph glyph-name="icircumflex" unicode="&#xee;" horiz-adv-x="289" 
d="M306 613h-62l-101 80l-100 -80h-62l116 158h93zM194 0h-99v534h99v-534z" />
    <glyph glyph-name="idieresis" unicode="&#xef;" horiz-adv-x="289" 
d="M96 618h-112v112h112v-112zM303 618h-112v112h112v-112zM194 0h-99v534h99v-534z" />
    <glyph glyph-name="eth" unicode="&#xf0;" horiz-adv-x="634" 
d="M322 568h-89l72 105q-53 31 -133 54l14 81q97 -25 167 -65l44 66l85 -16l-65 -93q156 -126 156 -366q0 -184 -97 -278q-67 -67 -172 -67q-110 0 -179.5 67.5t-69.5 180.5t69 189.5t172 76.5q93 0 168 -52q-24 109 -99 178zM312 71q75 0 120.5 69t45.5 183q0 6 -0.5 16.5
t-0.5 15.5q-78 66 -167 66q-70 0 -112.5 -49t-42.5 -128t42 -126t115 -47z" />
    <glyph glyph-name="ntilde" unicode="&#xf1;" horiz-adv-x="621" 
d="M493 743q-15 -127 -94 -127q-31 0 -83 26q-54 28 -76 28q-13 0 -22 -12.5t-16 -44.5l-64 13q15 127 94 127q31 0 83 -26q56 -28 76 -28q26 0 38 58zM537 0h-99v364q0 93 -88 93q-77 0 -164 -87v-370h-99v534h78l13 -77q103 88 197 88q78 0 120 -41.5t42 -115.5v-388z" />
    <glyph glyph-name="ograve" unicode="&#xf2;" horiz-adv-x="621" 
d="M351 613h-67l-156 142l121 27zM566 266q0 -128 -72 -202.5t-185 -74.5t-183.5 74t-70.5 203t71 204t183 75q114 0 185.5 -75t71.5 -204zM466 266q0 86 -42 141.5t-115 55.5q-74 0 -114 -54.5t-40 -142.5q0 -85 41 -140t113 -55q75 0 116 53.5t41 141.5z" />
    <glyph glyph-name="oacute" unicode="&#xf3;" horiz-adv-x="621" 
d="M492 755l-156 -142h-67l103 169zM566 266q0 -128 -72 -202.5t-185 -74.5t-183.5 74t-70.5 203t71 204t183 75q114 0 185.5 -75t71.5 -204zM466 266q0 86 -42 141.5t-115 55.5q-74 0 -114 -54.5t-40 -142.5q0 -85 41 -140t113 -55q75 0 116 53.5t41 141.5z" />
    <glyph glyph-name="ocircumflex" unicode="&#xf4;" horiz-adv-x="621" 
d="M472 613h-62l-101 80l-100 -80h-62l116 158h93zM566 266q0 -128 -72 -202.5t-185 -74.5t-183.5 74t-70.5 203t71 204t183 75q114 0 185.5 -75t71.5 -204zM466 266q0 86 -42 141.5t-115 55.5q-74 0 -114 -54.5t-40 -142.5q0 -85 41 -140t113 -55q75 0 116 53.5t41 141.5z
" />
    <glyph glyph-name="otilde" unicode="&#xf5;" horiz-adv-x="621" 
d="M492 743q-15 -127 -94 -127q-31 0 -83 26q-54 28 -76 28q-13 0 -22 -12.5t-16 -44.5l-64 13q15 127 94 127q31 0 83 -26q56 -28 76 -28q26 0 38 58zM566 266q0 -128 -72 -202.5t-185 -74.5t-183.5 74t-70.5 203t71 204t183 75q114 0 185.5 -75t71.5 -204zM466 266
q0 86 -42 141.5t-115 55.5q-74 0 -114 -54.5t-40 -142.5q0 -85 41 -140t113 -55q75 0 116 53.5t41 141.5z" />
    <glyph glyph-name="odieresis" unicode="&#xf6;" horiz-adv-x="621" 
d="M262 618h-112v112h112v-112zM469 618h-112v112h112v-112zM566 266q0 -128 -72 -202.5t-185 -74.5t-183.5 74t-70.5 203t71 204t183 75q114 0 185.5 -75t71.5 -204zM466 266q0 86 -42 141.5t-115 55.5q-74 0 -114 -54.5t-40 -142.5q0 -85 41 -140t113 -55q75 0 116 53.5
t41 141.5z" />
    <glyph glyph-name="divide" unicode="&#xf7;" horiz-adv-x="632" 
d="M369 490h-105v113h105v-113zM569 315h-506v79h506v-79zM369 107h-105v113h105v-113z" />
    <glyph glyph-name="oslash" unicode="&#xf8;" horiz-adv-x="621" 
d="M309 466q-75 0 -116.5 -55t-41.5 -145q0 -64 22 -109l229 277q-38 32 -93 32zM469 266q0 60 -22 109l-230 -277q39 -30 92 -30q76 0 118 54.5t42 143.5zM566 266q0 -128 -72 -202.5t-185 -74.5q-84 0 -145 41l-39 -48l-82 18l66 82q-54 73 -54 184q0 129 71 204t183 75
q84 0 147 -43l41 50l82 -18l-68 -84q55 -72 55 -184z" />
    <glyph glyph-name="ugrave" unicode="&#xf9;" horiz-adv-x="621" 
d="M350 613h-67l-156 142l121 27zM534 0h-78l-13 77q-101 -88 -197 -88q-79 0 -120.5 41.5t-41.5 115.5v388h99v-364q0 -93 88 -93q77 0 164 87v370h99v-534z" />
    <glyph glyph-name="uacute" unicode="&#xfa;" horiz-adv-x="621" 
d="M490 755l-156 -142h-67l103 169zM534 0h-78l-13 77q-101 -88 -197 -88q-79 0 -120.5 41.5t-41.5 115.5v388h99v-364q0 -93 88 -93q77 0 164 87v370h99v-534z" />
    <glyph glyph-name="ucircumflex" unicode="&#xfb;" horiz-adv-x="621" 
d="M471 613h-62l-101 80l-100 -80h-62l116 158h93zM534 0h-78l-13 77q-101 -88 -197 -88q-79 0 -120.5 41.5t-41.5 115.5v388h99v-364q0 -93 88 -93q77 0 164 87v370h99v-534z" />
    <glyph glyph-name="udieresis" unicode="&#xfc;" horiz-adv-x="621" 
d="M261 618h-112v112h112v-112zM468 618h-112v112h112v-112zM534 0h-78l-13 77q-101 -88 -197 -88q-79 0 -120.5 41.5t-41.5 115.5v388h99v-364q0 -93 88 -93q77 0 164 87v370h99v-534z" />
    <glyph glyph-name="yacute" unicode="&#xfd;" horiz-adv-x="570" 
d="M467 755l-156 -142h-67l103 169zM538 534l-229 -591q-31 -84 -74.5 -115.5t-108.5 -31.5q-17 0 -42 5l-15 89q34 -8 53 -8q36 0 59.5 18.5t40.5 60.5l15 37l-204 528l100 16l153 -425l149 417h103z" />
    <glyph glyph-name="thorn" unicode="&#xfe;" horiz-adv-x="633" 
d="M478 278q0 86 -37 133t-98 47q-83 0 -157 -94v-259q61 -29 133 -29t115.5 52.5t43.5 149.5zM578 282q0 -139 -72 -214t-180 -75q-80 0 -140 24v-211l-99 -14v1001l99 15v-343q78 80 172 80q95 0 157.5 -67.5t62.5 -195.5z" />
    <glyph glyph-name="ydieresis" unicode="&#xff;" horiz-adv-x="570" 
d="M238 618h-112v112h112v-112zM445 618h-112v112h112v-112zM538 534l-229 -591q-31 -84 -74.5 -115.5t-108.5 -31.5q-17 0 -42 5l-15 89q34 -8 53 -8q36 0 59.5 18.5t40.5 60.5l15 37l-204 528l100 16l153 -425l149 417h103z" />
    <glyph glyph-name="Amacron" unicode="&#x100;" horiz-adv-x="760" 
d="M525 824h-290v77h290v-77zM37 0l295 728h100l291 -714l-99 -21l-88 223h-311l-84 -216h-104zM380 610l-121 -305h242z" />
    <glyph glyph-name="amacron" unicode="&#x101;" horiz-adv-x="587" 
d="M449 639h-309v80h309v-80zM404 146v126q-98 -9 -156.5 -30t-77.5 -44.5t-19 -54.5q0 -33 22.5 -52.5t62.5 -19.5q90 0 168 75zM503 0h-79l-12 72q-87 -83 -196 -83q-74 0 -118.5 40.5t-44.5 107.5q0 97 84 144t267 66v23q0 91 -107 91q-84 0 -192 -46l-13 85
q114 45 213 45q100 0 149 -41.5t49 -129.5v-374z" />
    <glyph glyph-name="Abreve" unicode="&#x102;" horiz-adv-x="760" 
d="M534 923q-24 -122 -155 -122q-129 0 -152 122l64 14q17 -61 90 -61q69 0 88 61zM37 0l295 728h100l291 -714l-99 -21l-88 223h-311l-84 -216h-104zM380 610l-121 -305h242z" />
    <glyph glyph-name="abreve" unicode="&#x103;" horiz-adv-x="587" 
d="M458 744q-26 -130 -165 -130q-136 0 -161 130l67 14q19 -65 97 -65q74 0 94 65zM404 146v126q-98 -9 -156.5 -30t-77.5 -44.5t-19 -54.5q0 -33 22.5 -52.5t62.5 -19.5q90 0 168 75zM503 0h-79l-12 72q-87 -83 -196 -83q-74 0 -118.5 40.5t-44.5 107.5q0 97 84 144t267 66
v23q0 91 -107 91q-84 0 -192 -46l-13 85q114 45 213 45q100 0 149 -41.5t49 -129.5v-374z" />
    <glyph glyph-name="Aogonek" unicode="&#x104;" horiz-adv-x="760" 
d="M37 0l295 728h100l291 -714l-32 -7l-24 -31q-35 -46 -35 -71q0 -33 42 -33q12 0 46 6v-58q-43 -15 -78 -15q-40 0 -63.5 19t-23.5 57q0 51 65 122l-84 213h-311l-84 -216h-104zM380 610l-121 -305h242z" />
    <glyph glyph-name="aogonek" unicode="&#x105;" horiz-adv-x="587" 
d="M503 0h-16l-19 -26q-37 -49 -37 -76q0 -35 44 -35q19 0 49 5v-59q-43 -16 -81 -16q-43 0 -67.5 20.5t-24.5 60.5q0 52 68 129l4 4l-11 65q-87 -83 -196 -83q-74 0 -118.5 40.5t-44.5 107.5q0 97 84 144t267 66v23q0 91 -107 91q-84 0 -192 -46l-13 85q114 45 213 45
q100 0 149 -41.5t49 -129.5v-374zM404 146v126q-98 -9 -156.5 -30t-77.5 -44.5t-19 -54.5q0 -33 22.5 -52.5t62.5 -19.5q90 0 168 75z" />
    <glyph glyph-name="Cacute" unicode="&#x106;" horiz-adv-x="699" 
d="M574 933l-147 -133h-64l95 159zM641 57q-100 -71 -229 -71q-157 0 -252 103.5t-95 271.5q0 169 96 273t254 104q122 0 214 -60l-15 -102q-96 70 -200 70q-115 0 -180.5 -76.5t-65.5 -207.5q0 -130 66 -206.5t180 -76.5q107 0 212 72z" />
    <glyph glyph-name="cacute" unicode="&#x107;" horiz-adv-x="552" 
d="M492 755l-156 -142h-67l103 169zM501 44q-76 -55 -189 -55q-114 0 -185.5 73.5t-71.5 203.5q0 132 74.5 205.5t189.5 73.5q104 0 177 -49l-15 -96q-78 59 -164 59q-74 0 -118 -50t-44 -141q0 -95 45.5 -144t120.5 -49q93 0 166 60z" />
    <glyph glyph-name="Cdotaccent" unicode="&#x10a;" horiz-adv-x="699" 
d="M457 804h-108v107h108v-107zM641 57q-100 -71 -229 -71q-157 0 -252 103.5t-95 271.5q0 169 96 273t254 104q122 0 214 -60l-15 -102q-96 70 -200 70q-115 0 -180.5 -76.5t-65.5 -207.5q0 -130 66 -206.5t180 -76.5q107 0 212 72z" />
    <glyph glyph-name="cdotaccent" unicode="&#x10b;" horiz-adv-x="552" 
d="M367 617h-113v113h113v-113zM501 44q-76 -55 -189 -55q-114 0 -185.5 73.5t-71.5 203.5q0 132 74.5 205.5t189.5 73.5q104 0 177 -49l-15 -96q-78 59 -164 59q-74 0 -118 -50t-44 -141q0 -95 45.5 -144t120.5 -49q93 0 166 60z" />
    <glyph glyph-name="Ccaron" unicode="&#x10c;" horiz-adv-x="699" 
d="M250 948h60l93 -74l94 74h59l-108 -148h-90zM641 57q-100 -71 -229 -71q-157 0 -252 103.5t-95 271.5q0 169 96 273t254 104q122 0 214 -60l-15 -102q-96 70 -200 70q-115 0 -180.5 -76.5t-65.5 -207.5q0 -130 66 -206.5t180 -76.5q107 0 212 72z" />
    <glyph glyph-name="ccaron" unicode="&#x10d;" horiz-adv-x="552" 
d="M148 771h62l101 -80l100 80h63l-117 -158h-93zM501 44q-76 -55 -189 -55q-114 0 -185.5 73.5t-71.5 203.5q0 132 74.5 205.5t189.5 73.5q104 0 177 -49l-15 -96q-78 59 -164 59q-74 0 -118 -50t-44 -141q0 -95 45.5 -144t120.5 -49q93 0 166 60z" />
    <glyph glyph-name="Dcaron" unicode="&#x10e;" horiz-adv-x="775" 
d="M224 937h60l93 -74l94 74h59l-108 -148h-90zM709 363q0 -165 -105.5 -264t-295.5 -99h-212v725h217q191 0 293.5 -99t102.5 -263zM605 362q0 133 -77.5 202.5t-211.5 69.5h-120v-543h117q140 0 216 68t76 203z" />
    <glyph glyph-name="dcaron" unicode="&#x10f;" horiz-adv-x="633" 
d="M706 807q23 -43 23 -80q0 -72 -77 -137l-50 11q40 57 40 104q0 34 -28 88zM448 170v258q-63 30 -138 30q-69 0 -112 -52.5t-43 -149.5q0 -86 37 -133t97 -47q83 0 159 94zM546 0h-78l-13 77q-77 -88 -180 -88q-96 0 -158 67.5t-62 195.5q0 139 72 214t180 75
q79 0 141 -24v276l98 15v-808z" />
    <glyph glyph-name="Dcroat" unicode="&#x110;" horiz-adv-x="794" 
d="M727 363q0 -165 -105.5 -264t-294.5 -99h-213v334h-82l-15 90h97v301h217q191 0 293.5 -99t102.5 -263zM624 362q0 133 -78 202.5t-212 69.5h-120v-210h179v-90h-179v-243h117q140 0 216.5 68t76.5 203z" />
    <glyph glyph-name="dcroat" unicode="&#x111;" horiz-adv-x="633" 
d="M448 170v258q-63 30 -138 30q-69 0 -112 -52.5t-43 -149.5q0 -86 37 -133t97 -47q83 0 159 94zM546 0h-78l-13 77q-77 -88 -180 -88q-96 0 -158 67.5t-62 195.5q0 139 72 214t180 75q79 0 141 -24v113h-147l-13 80h160v83l98 15v-98h81v-80h-81v-630z" />
    <glyph glyph-name="Emacron" unicode="&#x112;" horiz-adv-x="561" 
d="M446 813h-290v77h290v-77zM511 0h-415v725h405v-92h-305v-208h237l15 -92h-252v-241h315v-92z" />
    <glyph glyph-name="emacron" unicode="&#x113;" horiz-adv-x="587" 
d="M459 639h-309v80h309v-80zM531 61q-93 -72 -220 -72q-115 0 -185.5 70t-70.5 210q0 126 68.5 201t174.5 75q115 0 174.5 -75t59.5 -192v-21h-378q3 -93 45.5 -138.5t118.5 -45.5q100 0 199 76zM297 468q-52 0 -89 -35.5t-49 -101.5h273q-17 137 -135 137z" />
    <glyph glyph-name="Ebreve" unicode="&#x114;" horiz-adv-x="561" 
d="M455 912q-24 -122 -155 -122q-129 0 -152 122l64 14q17 -61 90 -61q69 0 88 61zM511 0h-415v725h405v-92h-305v-208h237l15 -92h-252v-241h315v-92z" />
    <glyph glyph-name="ebreve" unicode="&#x115;" horiz-adv-x="587" 
d="M468 744q-26 -130 -165 -130q-136 0 -161 130l67 14q19 -65 97 -65q74 0 94 65zM531 61q-93 -72 -220 -72q-115 0 -185.5 70t-70.5 210q0 126 68.5 201t174.5 75q115 0 174.5 -75t59.5 -192v-21h-378q3 -93 45.5 -138.5t118.5 -45.5q100 0 199 76zM297 468
q-52 0 -89 -35.5t-49 -101.5h273q-17 137 -135 137z" />
    <glyph glyph-name="Edotaccent" unicode="&#x116;" horiz-adv-x="561" 
d="M355 793h-108v107h108v-107zM511 0h-415v725h405v-92h-305v-208h237l15 -92h-252v-241h315v-92z" />
    <glyph glyph-name="edotaccent" unicode="&#x117;" horiz-adv-x="587" 
d="M361 617h-113v113h113v-113zM531 61q-93 -72 -220 -72q-115 0 -185.5 70t-70.5 210q0 126 68.5 201t174.5 75q115 0 174.5 -75t59.5 -192v-21h-378q3 -93 45.5 -138.5t118.5 -45.5q100 0 199 76zM297 468q-52 0 -89 -35.5t-49 -101.5h273q-17 137 -135 137z" />
    <glyph glyph-name="Eogonek" unicode="&#x118;" horiz-adv-x="560" 
d="M511 0h-32l-18 -24q-35 -46 -35 -71q0 -33 42 -33q12 0 46 6v-58q-43 -15 -78 -15q-40 0 -63.5 19t-23.5 57q0 48 62 119h-315v725h405v-92h-305v-208h237l15 -92h-252v-241h315v-92z" />
    <glyph glyph-name="eogonek" unicode="&#x119;" horiz-adv-x="587" 
d="M298 545q115 0 174.5 -75t59.5 -192v-21h-378q2 -92 45 -138t119 -46q100 0 199 76l13 -79l-72 -95q-39 -48 -39 -77q0 -35 44 -35q19 0 49 5v-59q-43 -16 -81 -16q-43 0 -68 20.5t-25 60.5q0 49 67 125l3 1q-46 -11 -97 -11q-115 0 -185.5 70t-70.5 210q0 126 68.5 201
t174.5 75zM297 468q-53 0 -90 -35t-49 -102h274q-17 137 -135 137z" />
    <glyph glyph-name="Ecaron" unicode="&#x11a;" horiz-adv-x="561" 
d="M148 937h60l93 -74l94 74h59l-108 -148h-90zM511 0h-415v725h405v-92h-305v-208h237l15 -92h-252v-241h315v-92z" />
    <glyph glyph-name="ecaron" unicode="&#x11b;" horiz-adv-x="587" 
d="M142 771h62l101 -80l100 80h63l-117 -158h-93zM531 61q-93 -72 -220 -72q-115 0 -185.5 70t-70.5 210q0 126 68.5 201t174.5 75q115 0 174.5 -75t59.5 -192v-21h-378q3 -93 45.5 -138.5t118.5 -45.5q100 0 199 76zM297 468q-52 0 -89 -35.5t-49 -101.5h273
q-17 137 -135 137z" />
    <glyph glyph-name="Gbreve" unicode="&#x11e;" horiz-adv-x="769" 
d="M564 923q-24 -122 -155 -122q-129 0 -152 122l64 14q17 -61 90 -61q69 0 88 61zM684 57q-115 -71 -254 -71q-174 0 -269.5 101.5t-95.5 273.5q0 171 95.5 274t261.5 103q133 0 229 -62l-16 -102q-96 72 -214 72q-122 0 -187.5 -75.5t-65.5 -208.5q0 -132 67.5 -207.5
t194.5 -75.5q88 0 155 35v191h-174l-14 92h287v-340z" />
    <glyph glyph-name="gbreve" unicode="&#x11f;" horiz-adv-x="595" 
d="M441 744q-26 -130 -165 -130q-136 0 -161 130l67 14q19 -65 97 -65q74 0 94 65zM393 361q0 49 -33 80.5t-86 31.5t-84.5 -33t-31.5 -84q0 -47 32 -78.5t84 -31.5q54 0 86.5 32.5t32.5 82.5zM553 -39q0 -80 -77.5 -122.5t-192.5 -42.5q-114 0 -186 35t-72 103
q0 76 119 138q-36 23 -36 56q0 39 58 72q-48 23 -75.5 64.5t-27.5 95.5q0 83 62 134t149 51q84 0 143 -45l140 42l15 -89l-106 -10q22 -39 22 -83q0 -83 -62 -133.5t-150 -50.5q-22 0 -43 3q-29 -16 -29 -32q0 -14 21 -21t97 -20l40 -7q95 -16 143 -47.5t48 -90.5zM286 29
q-48 8 -70 13q-96 -44 -96 -100q0 -34 44.5 -54.5t123.5 -20.5t125.5 23t46.5 58q0 51 -110 70z" />
    <glyph glyph-name="Gdotaccent" unicode="&#x120;" horiz-adv-x="769" 
d="M464 804h-108v107h108v-107zM684 57q-115 -71 -254 -71q-174 0 -269.5 101.5t-95.5 273.5q0 171 95.5 274t261.5 103q133 0 229 -62l-16 -102q-96 72 -214 72q-122 0 -187.5 -75.5t-65.5 -208.5q0 -132 67.5 -207.5t194.5 -75.5q88 0 155 35v191h-174l-14 92h287v-340z
" />
    <glyph glyph-name="gdotaccent" unicode="&#x121;" horiz-adv-x="595" 
d="M334 617h-113v113h113v-113zM393 361q0 49 -33 80.5t-86 31.5t-84.5 -33t-31.5 -84q0 -47 32 -78.5t84 -31.5q54 0 86.5 32.5t32.5 82.5zM553 -39q0 -80 -77.5 -122.5t-192.5 -42.5q-114 0 -186 35t-72 103q0 76 119 138q-36 23 -36 56q0 39 58 72q-48 23 -75.5 64.5
t-27.5 95.5q0 83 62 134t149 51q84 0 143 -45l140 42l15 -89l-106 -10q22 -39 22 -83q0 -83 -62 -133.5t-150 -50.5q-22 0 -43 3q-29 -16 -29 -32q0 -14 21 -21t97 -20l40 -7q95 -16 143 -47.5t48 -90.5zM286 29q-48 8 -70 13q-96 -44 -96 -100q0 -34 44.5 -54.5
t123.5 -20.5t125.5 23t46.5 58q0 51 -110 70z" />
    <glyph glyph-name="Gcommaaccent" unicode="&#x122;" horiz-adv-x="769" 
d="M684 57q-115 -71 -254 -71q-174 0 -269.5 101.5t-95.5 273.5q0 171 95.5 274t261.5 103q133 0 229 -62l-16 -102q-96 72 -214 72q-122 0 -187.5 -75.5t-65.5 -208.5q0 -132 67.5 -207.5t194.5 -75.5q88 0 155 35v191h-174l-14 92h287v-340zM344 -100l83 28q45 -46 45 -94
q0 -57 -78 -132l-58 15q51 67 51 106q0 37 -43 77z" />
    <glyph glyph-name="gcommaaccent" unicode="&#x123;" horiz-adv-x="595" 
d="M336 637l-86 -29q-49 49 -49 100q0 60 83 139l61 -15q-55 -69 -55 -112q0 -40 46 -83zM393 361q0 49 -33 80.5t-86 31.5t-84.5 -33t-31.5 -84q0 -47 32 -78.5t84 -31.5q54 0 86.5 32.5t32.5 82.5zM553 -39q0 -80 -77.5 -122.5t-192.5 -42.5q-114 0 -186 35t-72 103
q0 76 119 138q-36 23 -36 56q0 39 58 72q-48 23 -75.5 64.5t-27.5 95.5q0 83 62 134t149 51q84 0 143 -45l140 42l15 -89l-106 -10q22 -39 22 -83q0 -83 -62 -133.5t-150 -50.5q-22 0 -43 3q-29 -16 -29 -32q0 -14 21 -21t97 -20l40 -7q95 -16 143 -47.5t48 -90.5zM286 29
q-48 8 -70 13q-96 -44 -96 -100q0 -34 44.5 -54.5t123.5 -20.5t125.5 23t46.5 58q0 51 -110 70z" />
    <glyph glyph-name="Hbar" unicode="&#x126;" horiz-adv-x="812" 
d="M214 417h384v118h-384v-118zM699 0h-101v328h-384v-328h-100v532h-84l-13 85h97v108h100v-108h384v108h101v-108h90v-85h-90v-532z" />
    <glyph glyph-name="hbar" unicode="&#x127;" horiz-adv-x="621" 
d="M341 630h-155v-167q96 82 189 82q78 0 120 -41.5t42 -115.5v-388h-99v364q0 93 -88 93q-77 0 -164 -87v-370h-99v630h-72l-13 80h85v83l99 15v-98h155v-80z" />
    <glyph glyph-name="Imacron" unicode="&#x12a;" horiz-adv-x="305" 
d="M297 813h-290v77h290v-77zM202 0h-100v725h100v-725z" />
    <glyph glyph-name="imacron" unicode="&#x12b;" horiz-adv-x="289" 
d="M298 639h-309v80h309v-80zM194 0h-99v534h99v-534z" />
    <glyph glyph-name="Ibreve" unicode="&#x12c;" horiz-adv-x="305" 
d="M306 912q-24 -122 -155 -122q-129 0 -152 122l64 14q17 -61 90 -61q69 0 88 61zM202 0h-100v725h100v-725z" />
    <glyph glyph-name="ibreve" unicode="&#x12d;" horiz-adv-x="289" 
d="M307 744q-26 -130 -165 -130q-136 0 -161 130l67 14q19 -65 97 -65q74 0 94 65zM194 0h-99v534h99v-534z" />
    <glyph glyph-name="Iogonek" unicode="&#x12e;" horiz-adv-x="305" 
d="M202 0h-16l-18 -24q-35 -46 -35 -71q0 -33 42 -33q12 0 46 6v-58q-43 -15 -78 -15q-40 0 -63.5 19t-23.5 57q0 48 62 119h-16v725h100v-725z" />
    <glyph glyph-name="iogonek" unicode="&#x12f;" horiz-adv-x="289" 
d="M208 705q0 -26 -18.5 -44t-44.5 -18t-45 18t-19 44t19 44.5t45 18.5t44.5 -18.5t18.5 -44.5zM194 0h-13l-19 -26q-37 -49 -37 -76q0 -35 44 -35q19 0 49 5v-59q-43 -16 -81 -16q-43 0 -67.5 20.5t-24.5 60.5q0 52 65 126h-15v534h99v-534z" />
    <glyph glyph-name="Idotaccent" unicode="&#x130;" horiz-adv-x="305" 
d="M206 793h-108v107h108v-107zM202 0h-100v725h100v-725z" />
    <glyph glyph-name="dotlessi" unicode="&#x131;" horiz-adv-x="289" 
d="M194 0h-99v534h99v-534z" />
    <glyph glyph-name="Kcommaaccent" unicode="&#x136;" horiz-adv-x="673" 
d="M658 16l-111 -23l-351 374v-367h-100v725h100v-326l315 326h128l-334 -341zM274 -90l83 28q45 -46 45 -94q0 -57 -78 -132l-58 15q51 67 51 106q0 37 -43 77z" />
    <glyph glyph-name="kcommaaccent" unicode="&#x137;" horiz-adv-x="565" 
d="M545 9l-107 -17l-252 288v-280h-99v793l99 15v-498l220 224h119l-238 -236zM226 -101l86 29q48 -48 48 -99q0 -60 -83 -140l-61 16q56 69 56 112q0 39 -46 82z" />
    <glyph glyph-name="Lacute" unicode="&#x139;" horiz-adv-x="519" 
d="M339 917l-147 -133h-64l95 159zM483 0h-387v725h100v-631h273z" />
    <glyph glyph-name="lacute" unicode="&#x13a;" horiz-adv-x="289" 
d="M330 1001l-156 -142h-67l103 169zM194 0h-99v793l99 15v-808z" />
    <glyph glyph-name="Lcommaaccent" unicode="&#x13b;" horiz-adv-x="519" 
d="M483 0h-387v725h100v-631h273zM219 -95l83 28q45 -46 45 -94q0 -57 -78 -132l-58 15q51 67 51 106q0 37 -43 77z" />
    <glyph glyph-name="lcommaaccent" unicode="&#x13c;" horiz-adv-x="289" 
d="M194 0h-99v793l99 15v-808zM75 -101l86 29q48 -48 48 -99q0 -60 -83 -140l-61 16q56 69 56 112q0 39 -46 82z" />
    <glyph glyph-name="Lcaron" unicode="&#x13d;" horiz-adv-x="519" 
d="M374 732q22 -41 22 -75q0 -68 -73 -129l-48 11q38 53 38 98q0 31 -28 82zM483 0h-387v725h100v-631h273z" />
    <glyph glyph-name="lcaron" unicode="&#x13e;" horiz-adv-x="289" 
d="M194 0h-99v793l99 15v-808zM353 807q23 -43 23 -80q0 -72 -77 -137l-50 11q40 57 40 104q0 34 -28 88z" />
    <glyph glyph-name="Ldot" unicode="&#x13f;" horiz-adv-x="519" 
d="M483 0h-387v725h100v-631h273zM456 315h-107v107h107v-107z" />
    <glyph glyph-name="ldot" unicode="&#x140;" horiz-adv-x="350" 
d="M194 0h-99v793l99 15v-808zM361 341h-91v112h91v-112z" />
    <glyph glyph-name="Lslash" unicode="&#x141;" horiz-adv-x="537" 
d="M386 419l-172 -92v-233h274l13 -94h-387v272l-82 -45l-15 91l97 53v354h100v-300l172 93v-99z" />
    <glyph glyph-name="lslash" unicode="&#x142;" horiz-adv-x="334" 
d="M216 0h-97v311l-89 -48l-14 94l103 55v381l97 15v-343l96 52v-102l-96 -52v-363z" />
    <glyph glyph-name="Nacute" unicode="&#x143;" horiz-adv-x="776" 
d="M559 912l-147 -133h-64l95 159zM680 0h-75l-417 561v-561h-92v725h89l403 -541v541h92v-725z" />
    <glyph glyph-name="nacute" unicode="&#x144;" horiz-adv-x="621" 
d="M493 755l-156 -142h-67l103 169zM537 0h-99v364q0 93 -88 93q-77 0 -164 -87v-370h-99v534h78l13 -77q103 88 197 88q78 0 120 -41.5t42 -115.5v-388z" />
    <glyph glyph-name="Ncommaaccent" unicode="&#x145;" horiz-adv-x="776" 
d="M680 0h-75l-417 561v-561h-92v725h89l403 -541v541h92v-725zM321 -90l83 28q45 -46 45 -94q0 -57 -78 -132l-58 15q51 67 51 106q0 37 -43 77z" />
    <glyph glyph-name="ncommaaccent" unicode="&#x146;" horiz-adv-x="621" 
d="M537 0h-99v364q0 93 -88 93q-77 0 -164 -87v-370h-99v534h78l13 -77q103 88 197 88q78 0 120 -41.5t42 -115.5v-388zM242 -101l86 29q48 -48 48 -99q0 -60 -83 -140l-61 16q56 69 56 112q0 39 -46 82z" />
    <glyph glyph-name="Ncaron" unicode="&#x147;" horiz-adv-x="776" 
d="M235 927h60l93 -74l94 74h59l-108 -148h-90zM680 0h-75l-417 561v-561h-92v725h89l403 -541v541h92v-725z" />
    <glyph glyph-name="ncaron" unicode="&#x148;" horiz-adv-x="621" 
d="M148 771h62l101 -80l100 80h63l-117 -158h-93zM537 0h-99v364q0 93 -88 93q-77 0 -164 -87v-370h-99v534h78l13 -77q103 88 197 88q78 0 120 -41.5t42 -115.5v-388z" />
    <glyph glyph-name="Omacron" unicode="&#x14c;" horiz-adv-x="823" 
d="M556 824h-290v77h290v-77zM758 363q0 -168 -95 -272.5t-253 -104.5q-157 0 -251 103t-94 272q0 170 94.5 273.5t252.5 103.5t252 -103t94 -272zM655 362q0 131 -66 207.5t-178 76.5t-177.5 -76.5t-65.5 -207.5q0 -130 65.5 -207t177.5 -77q113 0 178.5 77t65.5 207z" />
    <glyph glyph-name="omacron" unicode="&#x14d;" horiz-adv-x="621" 
d="M464 639h-309v80h309v-80zM566 266q0 -128 -72 -202.5t-185 -74.5t-183.5 74t-70.5 203t71 204t183 75q114 0 185.5 -75t71.5 -204zM466 266q0 86 -42 141.5t-115 55.5q-74 0 -114 -54.5t-40 -142.5q0 -85 41 -140t113 -55q75 0 116 53.5t41 141.5z" />
    <glyph glyph-name="Obreve" unicode="&#x14e;" horiz-adv-x="823" 
d="M565 923q-24 -122 -155 -122q-129 0 -152 122l64 14q17 -61 90 -61q69 0 88 61zM758 363q0 -168 -95 -272.5t-253 -104.5q-157 0 -251 103t-94 272q0 170 94.5 273.5t252.5 103.5t252 -103t94 -272zM655 362q0 131 -66 207.5t-178 76.5t-177.5 -76.5t-65.5 -207.5
q0 -130 65.5 -207t177.5 -77q113 0 178.5 77t65.5 207z" />
    <glyph glyph-name="obreve" unicode="&#x14f;" horiz-adv-x="621" 
d="M473 744q-26 -130 -165 -130q-136 0 -161 130l67 14q19 -65 97 -65q74 0 94 65zM566 266q0 -128 -72 -202.5t-185 -74.5t-183.5 74t-70.5 203t71 204t183 75q114 0 185.5 -75t71.5 -204zM466 266q0 86 -42 141.5t-115 55.5q-74 0 -114 -54.5t-40 -142.5q0 -85 41 -140
t113 -55q75 0 116 53.5t41 141.5z" />
    <glyph glyph-name="Ohungarumlaut" unicode="&#x150;" horiz-adv-x="823" 
d="M481 935l-141 -131h-57l93 154zM653 935l-141 -131h-57l93 154zM758 363q0 -168 -95 -272.5t-253 -104.5q-157 0 -251 103t-94 272q0 170 94.5 273.5t252.5 103.5t252 -103t94 -272zM655 362q0 131 -66 207.5t-178 76.5t-177.5 -76.5t-65.5 -207.5q0 -130 65.5 -207
t177.5 -77q113 0 178.5 77t65.5 207z" />
    <glyph glyph-name="ohungarumlaut" unicode="&#x151;" horiz-adv-x="621" 
d="M384 758l-151 -141h-59l100 165zM568 758l-152 -141h-59l101 165zM566 266q0 -128 -72 -202.5t-185 -74.5t-183.5 74t-70.5 203t71 204t183 75q114 0 185.5 -75t71.5 -204zM466 266q0 86 -42 141.5t-115 55.5q-74 0 -114 -54.5t-40 -142.5q0 -85 41 -140t113 -55
q75 0 116 53.5t41 141.5z" />
    <glyph glyph-name="OE" unicode="&#x152;" horiz-adv-x="965" 
d="M915 0h-454q-190 0 -292.5 99t-102.5 262q0 165 105.5 264.5t295.5 99.5h438v-92h-304v-208h237l14 -92h-251v-241h314v-92zM502 91v543h-41q-139 0 -215.5 -68.5t-76.5 -203.5q0 -132 78 -201.5t212 -69.5h43z" />
    <glyph glyph-name="oe" unicode="&#x153;" horiz-adv-x="999" 
d="M943 278v-21h-379q3 -92 46 -138t119 -46q100 0 199 76l14 -88q-94 -72 -220 -72q-145 0 -207 109q-68 -109 -206 -109q-113 0 -183.5 74t-70.5 203t71 204t183 75q145 0 207 -110q64 110 194 110q115 0 174 -75t59 -192zM843 331q-19 137 -134 137q-54 0 -91 -35
t-48 -102h273zM466 266q0 86 -41.5 141t-115.5 55t-114 -54t-40 -142q0 -86 40.5 -140.5t113.5 -54.5q76 0 116.5 54t40.5 141z" />
    <glyph glyph-name="Racute" unicode="&#x154;" horiz-adv-x="630" 
d="M480 922l-147 -133h-64l95 159zM608 15l-105 -22l-229 312h-78v-305h-100v725h203q117 0 183.5 -54t66.5 -153q0 -79 -44.5 -129.5t-121.5 -70.5zM449 513q0 59 -39 91t-115 32h-99v-247h88q77 0 121 32t44 92z" />
    <glyph glyph-name="racute" unicode="&#x155;" horiz-adv-x="422" 
d="M400 755l-156 -142h-67l103 169zM393 451q-66 -3 -122 -41t-85 -93v-317h-99v534h78l17 -109q75 115 195 120z" />
    <glyph glyph-name="Rcommaaccent" unicode="&#x156;" horiz-adv-x="630" 
d="M608 15l-105 -22l-229 312h-78v-305h-100v725h203q117 0 183.5 -54t66.5 -153q0 -79 -44.5 -129.5t-121.5 -70.5zM449 513q0 59 -39 91t-115 32h-99v-247h88q77 0 121 32t44 92zM252 -90l83 28q45 -46 45 -94q0 -57 -78 -132l-58 15q51 67 51 106q0 37 -43 77z" />
    <glyph glyph-name="rcommaaccent" unicode="&#x157;" horiz-adv-x="422" 
d="M393 451q-66 -3 -122 -41t-85 -93v-317h-99v534h78l17 -109q75 115 195 120zM84 -101l86 29q48 -48 48 -99q0 -60 -83 -140l-61 16q56 69 56 112q0 39 -46 82z" />
    <glyph glyph-name="Rcaron" unicode="&#x158;" horiz-adv-x="630" 
d="M156 937h60l93 -74l94 74h59l-108 -148h-90zM608 15l-105 -22l-229 312h-78v-305h-100v725h203q117 0 183.5 -54t66.5 -153q0 -79 -44.5 -129.5t-121.5 -70.5zM449 513q0 59 -39 91t-115 32h-99v-247h88q77 0 121 32t44 92z" />
    <glyph glyph-name="rcaron" unicode="&#x159;" horiz-adv-x="422" 
d="M56 771h62l101 -80l100 80h63l-117 -158h-93zM393 451q-66 -3 -122 -41t-85 -93v-317h-99v534h78l17 -109q75 115 195 120z" />
    <glyph glyph-name="Sacute" unicode="&#x15a;" horiz-adv-x="567" 
d="M464 933l-147 -133h-64l95 159zM510 196q0 -93 -65.5 -148.5t-172.5 -55.5q-120 0 -209 47l15 102q94 -62 197 -62q61 0 98.5 29t37.5 80q0 49 -29 77t-116 65q-111 48 -153 91.5t-42 119.5q0 87 62.5 139.5t165.5 52.5q96 0 171 -41l-16 -100q-76 54 -159 54
q-61 0 -93 -27.5t-32 -69.5q0 -41 28.5 -67.5t115.5 -64.5q112 -49 154 -95t42 -126z" />
    <glyph glyph-name="sacute" unicode="&#x15b;" horiz-adv-x="522" 
d="M449 755l-156 -142h-67l103 169zM471 149q0 -75 -56.5 -117.5t-160.5 -42.5q-109 0 -201 50l14 93q92 -61 195 -61q55 0 85.5 18.5t30.5 52.5q0 36 -28 54.5t-106 36.5q-100 25 -140.5 60.5t-40.5 104.5q0 65 52.5 106t141.5 41q100 0 180 -36l-15 -92q-85 45 -168 45
q-48 0 -73 -16.5t-25 -45.5q0 -27 25.5 -44.5t91.5 -33.5q107 -27 152.5 -63.5t45.5 -109.5z" />
    <glyph glyph-name="Scedilla" unicode="&#x15e;" horiz-adv-x="567" 
d="M510 196q0 -93 -65.5 -148.5t-172.5 -55.5q-120 0 -209 47l15 102q94 -62 197 -62q61 0 98.5 29t37.5 80q0 49 -29 77t-116 65q-111 48 -153 91.5t-42 119.5q0 87 62.5 139.5t165.5 52.5q96 0 171 -41l-16 -100q-76 54 -159 54q-61 0 -93 -27.5t-32 -69.5
q0 -41 28.5 -67.5t115.5 -64.5q112 -49 154 -95t42 -126zM358 -99l-134 -113h-64l84 140z" />
    <glyph glyph-name="scedilla" unicode="&#x15f;" horiz-adv-x="522" 
d="M471 149q0 -75 -56.5 -117.5t-160.5 -42.5q-109 0 -201 50l14 93q92 -61 195 -61q55 0 85.5 18.5t30.5 52.5q0 36 -28 54.5t-106 36.5q-100 25 -140.5 60.5t-40.5 104.5q0 65 52.5 106t141.5 41q100 0 180 -36l-15 -92q-85 45 -168 45q-48 0 -73 -16.5t-25 -45.5
q0 -27 25.5 -44.5t91.5 -33.5q107 -27 152.5 -63.5t45.5 -109.5zM335 -99l-143 -122h-67l91 149z" />
    <glyph glyph-name="Scaron" unicode="&#x160;" horiz-adv-x="567" 
d="M140 948h60l93 -74l94 74h59l-108 -148h-90zM510 196q0 -93 -65.5 -148.5t-172.5 -55.5q-120 0 -209 47l15 102q94 -62 197 -62q61 0 98.5 29t37.5 80q0 49 -29 77t-116 65q-111 48 -153 91.5t-42 119.5q0 87 62.5 139.5t165.5 52.5q96 0 171 -41l-16 -100
q-76 54 -159 54q-61 0 -93 -27.5t-32 -69.5q0 -41 28.5 -67.5t115.5 -64.5q112 -49 154 -95t42 -126z" />
    <glyph glyph-name="scaron" unicode="&#x161;" horiz-adv-x="522" 
d="M105 771h62l101 -80l100 80h63l-117 -158h-93zM471 149q0 -75 -56.5 -117.5t-160.5 -42.5q-109 0 -201 50l14 93q92 -61 195 -61q55 0 85.5 18.5t30.5 52.5q0 36 -28 54.5t-106 36.5q-100 25 -140.5 60.5t-40.5 104.5q0 65 52.5 106t141.5 41q100 0 180 -36l-15 -92
q-85 45 -168 45q-48 0 -73 -16.5t-25 -45.5q0 -27 25.5 -44.5t91.5 -33.5q107 -27 152.5 -63.5t45.5 -109.5z" />
    <glyph glyph-name="Tcommaaccent" unicode="&#x162;" horiz-adv-x="661" 
d="M627 633h-246v-633h-101v633h-240v92h573zM267 -95l83 28q45 -46 45 -94q0 -57 -78 -132l-58 15q51 67 51 106q0 37 -43 77z" />
    <glyph glyph-name="tcommaaccent" unicode="&#x163;" horiz-adv-x="399" 
d="M350 -2q-30 -7 -78 -7q-76 0 -117 32.5t-41 108.5v319h-84v83h84v178l96 15v-193h122l13 -83h-135v-302q0 -71 78 -71q32 0 49 4zM157 -101l86 29q48 -48 48 -99q0 -60 -83 -140l-61 16q56 69 56 112q0 39 -46 82z" />
    <glyph glyph-name="Tcaron" unicode="&#x164;" horiz-adv-x="661" 
d="M181 937h60l93 -74l94 74h59l-108 -148h-90zM627 633h-246v-633h-101v633h-240v92h573z" />
    <glyph glyph-name="tcaron" unicode="&#x165;" horiz-adv-x="399" 
d="M381 822q23 -43 23 -80q0 -72 -77 -137l-50 11q40 57 40 104q0 34 -28 88zM350 -2q-30 -7 -78 -7q-76 0 -117 32.5t-41 108.5v319h-84v83h84v178l96 15v-193h122l13 -83h-135v-302q0 -71 78 -71q32 0 49 4z" />
    <glyph glyph-name="Umacron" unicode="&#x16a;" horiz-adv-x="760" 
d="M524 803h-290v77h290v-77zM672 279q0 -137 -78.5 -215t-215.5 -78q-136 0 -213.5 77.5t-77.5 210.5v451h101v-438q0 -98 47.5 -153.5t142.5 -55.5q96 0 145 53.5t49 152.5v441h100v-446z" />
    <glyph glyph-name="umacron" unicode="&#x16b;" horiz-adv-x="621" 
d="M463 639h-309v80h309v-80zM534 0h-78l-13 77q-101 -88 -197 -88q-79 0 -120.5 41.5t-41.5 115.5v388h99v-364q0 -93 88 -93q77 0 164 87v370h99v-534z" />
    <glyph glyph-name="Ubreve" unicode="&#x16c;" horiz-adv-x="760" 
d="M533 897q-24 -122 -155 -122q-129 0 -152 122l64 14q17 -61 90 -61q69 0 88 61zM672 279q0 -137 -78.5 -215t-215.5 -78q-136 0 -213.5 77.5t-77.5 210.5v451h101v-438q0 -98 47.5 -153.5t142.5 -55.5q96 0 145 53.5t49 152.5v441h100v-446z" />
    <glyph glyph-name="ubreve" unicode="&#x16d;" horiz-adv-x="621" 
d="M472 744q-26 -130 -165 -130q-136 0 -161 130l67 14q19 -65 97 -65q74 0 94 65zM534 0h-78l-13 77q-101 -88 -197 -88q-79 0 -120.5 41.5t-41.5 115.5v388h99v-364q0 -93 88 -93q77 0 164 87v370h99v-534z" />
    <glyph glyph-name="Uring" unicode="&#x16e;" horiz-adv-x="760" 
d="M492 874q0 -48 -32 -78t-81 -30t-81 30t-32 78q0 47 32 78t81 31t81 -31t32 -78zM441 874q0 26 -17.5 44t-44.5 18t-44.5 -18t-17.5 -44q0 -27 17.5 -44.5t44.5 -17.5t44.5 17.5t17.5 44.5zM672 279q0 -137 -78.5 -215t-215.5 -78q-136 0 -213.5 77.5t-77.5 210.5v451
h101v-438q0 -98 47.5 -153.5t142.5 -55.5q96 0 145 53.5t49 152.5v441h100v-446z" />
    <glyph glyph-name="uring" unicode="&#x16f;" horiz-adv-x="621" 
d="M428 724q0 -49 -33.5 -81t-85.5 -32t-86 32t-34 81q0 50 34 83.5t86 33.5q51 0 85 -33.5t34 -83.5zM375 724q0 29 -19 48.5t-47 19.5q-29 0 -48 -19.5t-19 -48.5t19 -47.5t48 -18.5t47.5 19t18.5 47zM534 0h-78l-13 77q-101 -88 -197 -88q-79 0 -120.5 41.5t-41.5 115.5
v388h99v-364q0 -93 88 -93q77 0 164 87v370h99v-534z" />
    <glyph glyph-name="Uhungarumlaut" unicode="&#x170;" horiz-adv-x="760" 
d="M449 914l-141 -131h-57l93 154zM621 914l-141 -131h-57l93 154zM672 279q0 -137 -78.5 -215t-215.5 -78q-136 0 -213.5 77.5t-77.5 210.5v451h101v-438q0 -98 47.5 -153.5t142.5 -55.5q96 0 145 53.5t49 152.5v441h100v-446z" />
    <glyph glyph-name="uhungarumlaut" unicode="&#x171;" horiz-adv-x="621" 
d="M383 758l-151 -141h-59l100 165zM567 758l-152 -141h-59l101 165zM534 0h-78l-13 77q-101 -88 -197 -88q-79 0 -120.5 41.5t-41.5 115.5v388h99v-364q0 -93 88 -93q77 0 164 87v370h99v-534z" />
    <glyph glyph-name="Uogonek" unicode="&#x172;" horiz-adv-x="760" 
d="M672 279q0 -126 -67 -203t-186 -88l-9 -12q-35 -46 -35 -71q0 -33 42 -33q12 0 46 6v-58q-43 -15 -78 -15q-40 0 -63.5 19t-23.5 57q0 44 51 106q-123 8 -192.5 84.5t-69.5 202.5v451h101v-438q0 -98 47.5 -153.5t142.5 -55.5q96 0 145 53.5t49 152.5v441h100v-446z" />
    <glyph glyph-name="uogonek" unicode="&#x173;" horiz-adv-x="621" 
d="M534 0h-15l-19 -26q-37 -49 -37 -76q0 -35 44 -35q19 0 49 5v-59q-43 -16 -81 -16q-43 0 -67.5 20.5t-24.5 60.5q0 52 68 129l4 4l-12 70q-101 -88 -197 -88q-79 0 -120.5 41.5t-41.5 115.5v388h99v-364q0 -93 88 -93q77 0 164 87v370h99v-534z" />
    <glyph glyph-name="Wcircumflex" unicode="&#x174;" horiz-adv-x="1119" 
d="M714 790h-60l-93 74l-94 -74h-59l108 148h90zM1076 725l-227 -728h-84l-206 588l-205 -588h-83l-224 714l101 21l170 -574l193 567h100l194 -567l167 567h104z" />
    <glyph glyph-name="wcircumflex" unicode="&#x175;" horiz-adv-x="850" 
d="M589 613h-62l-101 80l-100 -80h-62l116 158h93zM813 534l-179 -536h-84l-126 405l-125 -405h-82l-180 528l97 16l125 -406l125 398h83l126 -398l121 398h99z" />
    <glyph glyph-name="Ycircumflex" unicode="&#x176;" horiz-adv-x="702" 
d="M504 779h-60l-93 74l-94 -74h-59l108 148h90zM673 725l-274 -438v-287h-100v287l-267 424l103 21l215 -351l209 344h114z" />
    <glyph glyph-name="ycircumflex" unicode="&#x177;" horiz-adv-x="570" 
d="M448 613h-62l-101 80l-100 -80h-62l116 158h93zM538 534l-229 -591q-31 -84 -74.5 -115.5t-108.5 -31.5q-17 0 -42 5l-15 89q34 -8 53 -8q36 0 59.5 18.5t40.5 60.5l15 37l-204 528l100 16l153 -425l149 417h103z" />
    <glyph glyph-name="Ydieresis" unicode="&#x178;" horiz-adv-x="702" 
d="M307 783h-107v107h107v-107zM502 783h-107v107h107v-107zM673 725l-274 -438v-287h-100v287l-267 424l103 21l215 -351l209 344h114z" />
    <glyph glyph-name="Zacute" unicode="&#x179;" horiz-adv-x="659" 
d="M501 922l-147 -133h-64l95 159zM613 0h-561v75l431 562h-398l-14 88h532v-75l-431 -563h427z" />
    <glyph glyph-name="zacute" unicode="&#x17a;" horiz-adv-x="534" 
d="M448 755l-156 -142h-67l103 169zM486 0h-440v77l315 375h-287l-13 82h412v-77l-315 -375h315z" />
    <glyph glyph-name="Zdotaccent" unicode="&#x17b;" horiz-adv-x="659" 
d="M384 793h-108v107h108v-107zM613 0h-561v75l431 562h-398l-14 88h532v-75l-431 -563h427z" />
    <glyph glyph-name="zdotaccent" unicode="&#x17c;" horiz-adv-x="534" 
d="M322 617h-113v113h113v-113zM486 0h-440v77l315 375h-287l-13 82h412v-77l-315 -375h315z" />
    <glyph glyph-name="Zcaron" unicode="&#x17d;" horiz-adv-x="659" 
d="M177 937h60l93 -74l94 74h59l-108 -148h-90zM613 0h-561v75l431 562h-398l-14 88h532v-75l-431 -563h427z" />
    <glyph glyph-name="zcaron" unicode="&#x17e;" horiz-adv-x="534" 
d="M103 771h62l101 -80l100 80h63l-117 -158h-93zM486 0h-440v77l315 375h-287l-13 82h412v-77l-315 -375h315z" />
    <glyph glyph-name="uni018F" unicode="&#x18f;" horiz-adv-x="768" 
d="M361 646q-128 0 -259 -84l-15 99q68 39 131.5 58t143.5 19q155 0 248.5 -100t93.5 -275q0 -171 -91.5 -274t-231.5 -103q-138 0 -222 94t-84 269v73h523q-14 105 -76.5 164.5t-160.5 59.5zM383 76q88 0 149.5 66t68.5 191h-422q3 -257 204 -257z" />
    <glyph glyph-name="florin" unicode="&#x192;" horiz-adv-x="425" 
d="M347 476v-80h-115l-66 -396h-95l65 396h-75l13 80h75l16 94q13 78 54.5 113t121.5 35q27 0 49 -2v-85q-33 3 -49 3q-38 0 -57 -18.5t-26 -61.5l-13 -78h102z" />
    <glyph glyph-name="Aringacute" unicode="&#x1fa;" horiz-adv-x="760" 
d="M552 1034l-147 -133h-64l95 159zM493 762q0 -54 -40 -84l270 -664l-97 -21l-89 223h-314l-85 -216h-101l273 675q-43 30 -43 87q0 47 32 78t81 31t81 -31t32 -78zM442 762q0 27 -17.5 45t-44.5 18t-45 -18t-18 -45t18 -44.5t45 -17.5t44.5 17.5t17.5 44.5zM380 610
l-121 -305h243z" />
    <glyph glyph-name="aringacute" unicode="&#x1fb;" horiz-adv-x="587" 
d="M475 1029l-156 -142h-67l103 169zM413 724q0 -49 -33.5 -81t-85.5 -32t-86 32t-34 81q0 50 34 83.5t86 33.5q51 0 85 -33.5t34 -83.5zM360 724q0 29 -19 48.5t-47 19.5q-29 0 -48 -19.5t-19 -48.5t19 -47.5t48 -18.5q28 0 47 19t19 47zM404 146v126q-98 -9 -156.5 -30
t-77.5 -44.5t-19 -54.5q0 -33 22.5 -52.5t62.5 -19.5q90 0 168 75zM503 0h-79l-12 72q-87 -83 -196 -83q-74 0 -118.5 40.5t-44.5 107.5q0 97 84 144t267 66v23q0 91 -107 91q-84 0 -192 -46l-13 85q114 45 213 45q100 0 149 -41.5t49 -129.5v-374z" />
    <glyph glyph-name="AEacute" unicode="&#x1fc;" horiz-adv-x="973" 
d="M741 922l-147 -133h-64l95 159zM302 305h206v334zM7 0l449 725h457v-92h-307v-208h239l14 -92h-253v-241h318v-92h-416v216h-260l-132 -216h-109z" />
    <glyph glyph-name="aeacute" unicode="&#x1fd;" horiz-adv-x="928" 
d="M643 755l-156 -142h-67l103 169zM872 278v-21h-379q3 -92 46.5 -138t118.5 -46q100 0 199 76l14 -88q-93 -72 -220 -72q-131 0 -200 85q-100 -85 -218 -85q-81 0 -130.5 38.5t-49.5 110.5q0 93 81.5 141.5t260.5 66.5v24q0 49 -24 70t-74 21q-84 0 -192 -46l-13 85
q114 45 206 45q72 0 111 -17.5t60 -58.5q62 76 170 76q115 0 174 -75t59 -192zM772 331q-17 137 -134 137q-53 0 -91 -35t-48 -102h273zM415 142q-20 60 -20 127v2q-138 -15 -191 -48t-53 -80q0 -34 25.5 -53t69.5 -19q91 0 169 71z" />
    <glyph glyph-name="Oslashacute" unicode="&#x1fe;" horiz-adv-x="823" 
d="M582 933l-147 -133h-64l95 159zM758 363q0 -168 -95 -272.5t-253 -104.5q-124 0 -209 65l-51 -61l-90 20l82 98q-77 100 -77 253q0 170 94.5 273.5t252.5 103.5q121 0 210 -65l51 61l89 -19l-83 -99q79 -99 79 -253zM411 649q-113 0 -179 -77.5t-66 -209.5
q0 -105 43 -177l352 415q-61 49 -150 49zM658 362q0 105 -45 178l-351 -415q60 -49 149 -49q114 0 180.5 77.5t66.5 208.5z" />
    <glyph glyph-name="oslashacute" unicode="&#x1ff;" horiz-adv-x="621" 
d="M493 755l-156 -142h-67l103 169zM309 466q-75 0 -116.5 -55t-41.5 -145q0 -64 22 -109l229 277q-38 32 -93 32zM469 266q0 60 -22 109l-230 -277q39 -30 92 -30q76 0 118 54.5t42 143.5zM566 266q0 -128 -72 -202.5t-185 -74.5q-84 0 -145 41l-39 -48l-82 18l66 82
q-54 73 -54 184q0 129 71 204t183 75q84 0 147 -43l41 50l82 -18l-68 -84q55 -72 55 -184z" />
    <glyph glyph-name="Scommaaccent" unicode="&#x218;" horiz-adv-x="567" 
d="M510 196q0 -93 -65.5 -148.5t-172.5 -55.5q-120 0 -209 47l15 102q94 -62 197 -62q61 0 98.5 29t37.5 80q0 49 -29 77t-116 65q-111 48 -153 91.5t-42 119.5q0 87 62.5 139.5t165.5 52.5q96 0 171 -41l-16 -100q-76 54 -159 54q-61 0 -93 -27.5t-32 -69.5
q0 -41 28.5 -67.5t115.5 -64.5q112 -49 154 -95t42 -126zM227 -100l83 28q45 -46 45 -94q0 -57 -78 -132l-58 15q51 67 51 106q0 37 -43 77z" />
    <glyph glyph-name="scommaaccent" unicode="&#x219;" horiz-adv-x="522" 
d="M471 149q0 -75 -56.5 -117.5t-160.5 -42.5q-109 0 -201 50l14 93q92 -61 195 -61q55 0 85.5 18.5t30.5 52.5q0 36 -28 54.5t-106 36.5q-100 25 -140.5 60.5t-40.5 104.5q0 65 52.5 106t141.5 41q100 0 180 -36l-15 -92q-85 45 -168 45q-48 0 -73 -16.5t-25 -45.5
q0 -27 25.5 -44.5t91.5 -33.5q107 -27 152.5 -63.5t45.5 -109.5zM198 -101l86 29q48 -48 48 -99q0 -60 -83 -140l-61 16q56 69 56 112q0 39 -46 82z" />
    <glyph glyph-name="schwa" unicode="&#x259;" horiz-adv-x="587" 
d="M56 473q94 72 220 72q115 0 185.5 -70t70.5 -210q0 -126 -68.5 -201t-174.5 -75q-114 0 -174 75t-60 192v21h379q-3 92 -46 138t-119 46q-99 0 -198 -76zM290 66q51 0 89 35t50 102h-274q19 -137 135 -137z" />
    <glyph glyph-name="circumflex" unicode="&#x2c6;" horiz-adv-x="537" 
d="M430 613h-62l-101 80l-100 -80h-62l116 158h93z" />
    <glyph glyph-name="caron" unicode="&#x2c7;" horiz-adv-x="537" 
d="M107 771h62l101 -80l100 80h63l-117 -158h-93z" />
    <glyph glyph-name="breve" unicode="&#x2d8;" horiz-adv-x="537" 
d="M432 744q-26 -130 -165 -130q-136 0 -161 130l67 14q19 -65 97 -65q74 0 94 65z" />
    <glyph glyph-name="dotaccent" unicode="&#x2d9;" horiz-adv-x="537" 
d="M325 617h-113v113h113v-113z" />
    <glyph glyph-name="ring" unicode="&#x2da;" horiz-adv-x="537" 
d="M388 724q0 -49 -33.5 -81t-85.5 -32t-86 32t-34 81q0 50 34 83.5t86 33.5q51 0 85 -33.5t34 -83.5zM335 724q0 29 -19 48.5t-47 19.5q-29 0 -48 -19.5t-19 -48.5t19 -47.5t48 -18.5t47.5 19t18.5 47z" />
    <glyph glyph-name="ogonek" unicode="&#x2db;" horiz-adv-x="537" 
d="M276 41l44 -27l-30 -40q-37 -49 -37 -76q0 -35 44 -35q19 0 49 5v-59q-43 -16 -81 -16q-43 0 -67.5 20.5t-24.5 60.5q0 52 68 129z" />
    <glyph glyph-name="tilde" unicode="&#x2dc;" horiz-adv-x="537" 
d="M445 743q-15 -127 -94 -127q-31 0 -83 26q-54 28 -76 28q-13 0 -22 -12.5t-16 -44.5l-64 13q15 127 94 127q31 0 83 -26q56 -28 76 -28q26 0 38 58z" />
    <glyph glyph-name="hungarumlaut" unicode="&#x2dd;" horiz-adv-x="537" 
d="M279 758l-151 -141h-59l100 165zM463 758l-152 -141h-59l101 165z" />
    <glyph glyph-name="commaaccent" unicode="&#x326;" horiz-adv-x="537" 
d="M187 -101l86 29q48 -48 48 -99q0 -60 -83 -140l-61 16q56 69 56 112q0 39 -46 82z" />
    <glyph glyph-name="uni0400" unicode="&#x400;" horiz-adv-x="561" 
d="M341 789h-64l-147 133l116 26zM511 0h-415v725h405v-92h-305v-208h237l15 -92h-252v-241h315v-92z" />
    <glyph glyph-name="uni0401" unicode="&#x401;" horiz-adv-x="561" 
d="M257 793h-107v107h107v-107zM452 793h-107v107h107v-107zM511 0h-415v725h405v-92h-305v-208h237l15 -92h-252v-241h315v-92z" />
    <glyph glyph-name="uni0402" unicode="&#x402;" horiz-adv-x="845" 
d="M622 633h-247v-196q80 13 142 13q127 0 199.5 -59t72.5 -169q0 -100 -67.5 -164t-175.5 -64q-42 0 -81 10l16 89q38 -9 61 -9q64 0 104.5 38.5t40.5 96.5q0 69 -46 104t-132 35q-60 0 -134 -14v-344h-100v633h-235v92h567z" />
    <glyph glyph-name="uni0403" unicode="&#x403;" horiz-adv-x="531" 
d="M452 922l-147 -133h-64l95 159zM96 725h385l15 -95h-300v-630h-100v725z" />
    <glyph glyph-name="uni0404" unicode="&#x404;" horiz-adv-x="699" 
d="M641 57q-100 -71 -229 -71q-161 0 -254 103t-93 272q0 171 94 274t256 103q122 0 214 -60l-15 -101q-98 71 -200 71q-107 0 -170 -62t-75 -171l368 2l14 -92l-384 2q8 -117 72.5 -183.5t174.5 -66.5q108 0 212 73z" />
    <glyph glyph-name="uni0405" unicode="&#x405;" horiz-adv-x="567" 
d="M510 196q0 -93 -65.5 -148.5t-172.5 -55.5q-120 0 -209 47l15 102q94 -62 197 -62q61 0 98.5 29t37.5 80q0 49 -29 77t-116 65q-111 48 -153 91.5t-42 119.5q0 87 62.5 139.5t165.5 52.5q96 0 171 -41l-16 -100q-76 54 -159 54q-61 0 -93 -27.5t-32 -69.5
q0 -41 28.5 -67.5t115.5 -64.5q112 -49 154 -95t42 -126z" />
    <glyph glyph-name="uni0406" unicode="&#x406;" horiz-adv-x="305" 
d="M202 0h-100v725h100v-725z" />
    <glyph glyph-name="uni0407" unicode="&#x407;" horiz-adv-x="305" 
d="M108 793h-107v107h107v-107zM303 793h-107v107h107v-107zM202 0h-100v725h100v-725z" />
    <glyph glyph-name="uni0408" unicode="&#x408;" horiz-adv-x="411" 
d="M322 179q0 -94 -56 -140t-155 -46q-30 0 -68 6l-14 90q36 -9 83 -9q110 0 110 107v538h100v-546z" />
    <glyph glyph-name="uni0409" unicode="&#x409;" horiz-adv-x="1056" 
d="M1012 227q0 -109 -75 -168t-203 -59h-181v633h-203l-25 -202q-28 -232 -88 -325.5t-195 -121.5l-15 93q95 26 136.5 101.5t64.5 265.5l34 281h391v-283h99q122 0 191 -56.5t69 -158.5zM910 224q0 130 -164 130h-93v-266h86q171 0 171 136z" />
    <glyph glyph-name="uni040A" unicode="&#x40a;" horiz-adv-x="1071" 
d="M926 224q0 130 -164 130h-93v-266h86q82 0 126.5 34t44.5 102zM1027 227q0 -110 -74.5 -168.5t-202.5 -58.5h-181v333h-373v-333h-100v725h100v-300h373v300h100v-283h98q122 0 191 -56.5t69 -158.5z" />
    <glyph glyph-name="uni040B" unicode="&#x40b;" horiz-adv-x="849" 
d="M622 633h-247v-198q81 13 152 13q247 0 247 -228v-220h-100v216q0 140 -151 140q-72 0 -148 -14v-342h-100v633h-235v92h567z" />
    <glyph glyph-name="uni040C" unicode="&#x40c;" horiz-adv-x="673" 
d="M512 912l-147 -133h-64l95 159zM658 16l-111 -23l-351 374v-367h-100v725h100v-326l315 326h128l-334 -341z" />
    <glyph glyph-name="uni040D" unicode="&#x40d;" horiz-adv-x="776" 
d="M427 779h-64l-147 133l116 26zM197 0h-101v725h99v-568l383 568h102v-725h-99v567z" />
    <glyph glyph-name="uni040E" unicode="&#x40e;" horiz-adv-x="693" 
d="M522 902q-24 -122 -155 -122q-129 0 -152 122l64 14q17 -61 90 -61q69 0 88 61zM678 725l-315 -594q-42 -79 -84.5 -111.5t-102.5 -32.5q-37 0 -71 12l-13 92q45 -13 78 -13q32 0 55.5 17t46.5 60l43 78l-271 483l104 16l220 -403l202 396h108z" />
    <glyph glyph-name="uni040F" unicode="&#x40f;" horiz-adv-x="768" 
d="M432 -158l-96 -15v173h-240v725h100v-633h377v633h100v-725h-241v-158z" />
    <glyph glyph-name="uni0410" unicode="&#x410;" horiz-adv-x="760" 
d="M37 0l295 728h100l291 -714l-99 -21l-88 223h-311l-84 -216h-104zM380 610l-121 -305h242z" />
    <glyph glyph-name="uni0411" unicode="&#x411;" horiz-adv-x="597" 
d="M549 222q0 -109 -73 -165.5t-199 -56.5h-181v725h388l15 -92h-303v-202h98q120 0 187.5 -54.5t67.5 -154.5zM448 219q0 124 -159 124h-93v-255h86q166 0 166 131z" />
    <glyph glyph-name="uni0412" unicode="&#x412;" horiz-adv-x="603" 
d="M553 212q0 -106 -72.5 -159t-205.5 -53h-179v725h181q120 0 181.5 -51t61.5 -138q0 -105 -109 -150q142 -40 142 -174zM422 533q0 106 -147 106h-81v-218h74q75 0 114.5 29t39.5 83zM454 210q0 62 -45 95.5t-130 33.5h-85v-254h89q82 0 126.5 31.5t44.5 93.5z" />
    <glyph glyph-name="uni0413" unicode="&#x413;" horiz-adv-x="531" 
d="M96 725h385l15 -95h-300v-630h-100v725z" />
    <glyph glyph-name="uni0414" unicode="&#x414;" horiz-adv-x="803" 
d="M125 -167h-95v261q107 94 160.5 195t72.5 254l23 182h397v-631h85v-252l-95 -15v173h-548v-167zM372 635l-13 -105q-20 -158 -68 -258t-138 -183h429v546h-210z" />
    <glyph glyph-name="uni0415" unicode="&#x415;" horiz-adv-x="561" 
d="M511 0h-415v725h405v-92h-305v-208h237l15 -92h-252v-241h315v-92z" />
    <glyph glyph-name="uni0416" unicode="&#x416;" horiz-adv-x="1014" 
d="M162 732l299 -340l-3 333h100l-3 -334l294 334h124l-309 -340l323 -369l-107 -23l-325 381l3 -374h-100l3 373l-315 -373h-124l331 381l-299 327z" />
    <glyph glyph-name="uni0417" unicode="&#x417;" horiz-adv-x="597" 
d="M535 204q0 -97 -74 -156.5t-193 -59.5q-111 0 -214 53l17 94q100 -56 198 -56q77 0 121 35.5t44 92.5q0 127 -188 127h-80l-14 90h100q75 0 120.5 31t45.5 85q0 48 -36.5 76.5t-107.5 28.5q-94 0 -192 -54l-13 91q97 54 214 54q109 0 173.5 -52.5t64.5 -135.5
q0 -121 -138 -164v-1q152 -39 152 -179z" />
    <glyph glyph-name="uni0418" unicode="&#x418;" horiz-adv-x="776" 
d="M197 0h-101v725h99v-568l383 568h102v-725h-99v567z" />
    <glyph glyph-name="uni0419" unicode="&#x419;" horiz-adv-x="776" 
d="M541 902q-24 -122 -155 -122q-129 0 -152 122l64 14q17 -61 90 -61q69 0 88 61zM197 0h-101v725h99v-568l383 568h102v-725h-99v567z" />
    <glyph glyph-name="uni041A" unicode="&#x41a;" horiz-adv-x="673" 
d="M658 16l-111 -23l-351 374v-367h-100v725h100v-326l315 326h128l-334 -341z" />
    <glyph glyph-name="uni041B" unicode="&#x41b;" horiz-adv-x="759" 
d="M664 725v-725h-101v633h-213l-25 -202q-28 -232 -88 -325.5t-195 -121.5l-15 93q95 26 136.5 101.5t64.5 265.5l34 281h402z" />
    <glyph glyph-name="uni041C" unicode="&#x41c;" horiz-adv-x="992" 
d="M915 0h-96l-47 583l-238 -586h-80l-238 586l-46 -583h-94l60 725h124l237 -593l237 593h122z" />
    <glyph glyph-name="uni041D" unicode="&#x41d;" horiz-adv-x="776" 
d="M680 0h-100v333h-384v-333h-100v725h100v-300h384v300h100v-725z" />
    <glyph glyph-name="uni041E" unicode="&#x41e;" horiz-adv-x="823" 
d="M758 363q0 -168 -95 -272.5t-253 -104.5q-157 0 -251 103t-94 272q0 170 94.5 273.5t252.5 103.5t252 -103t94 -272zM655 362q0 131 -66 207.5t-178 76.5t-177.5 -76.5t-65.5 -207.5q0 -130 65.5 -207t177.5 -77q113 0 178.5 77t65.5 207z" />
    <glyph glyph-name="uni041F" unicode="&#x41f;" horiz-adv-x="768" 
d="M673 0h-100v633h-377v-633h-100v725h577v-725z" />
    <glyph glyph-name="uni0420" unicode="&#x420;" horiz-adv-x="593" 
d="M549 515q0 -108 -73 -165t-199 -57h-81v-293h-100v725h198q120 0 187.5 -54.5t67.5 -155.5zM448 512q0 124 -159 124h-93v-254h86q166 0 166 130z" />
    <glyph glyph-name="uni0421" unicode="&#x421;" horiz-adv-x="699" 
d="M641 57q-100 -71 -229 -71q-157 0 -252 103.5t-95 271.5q0 169 96 273t254 104q122 0 214 -60l-15 -102q-96 70 -200 70q-115 0 -180.5 -76.5t-65.5 -207.5q0 -130 66 -206.5t180 -76.5q107 0 212 72z" />
    <glyph glyph-name="uni0422" unicode="&#x422;" horiz-adv-x="661" 
d="M627 633h-246v-633h-101v633h-240v92h573z" />
    <glyph glyph-name="uni0423" unicode="&#x423;" horiz-adv-x="693" 
d="M678 725l-315 -594q-42 -79 -84.5 -111.5t-102.5 -32.5q-37 0 -71 12l-13 92q45 -13 78 -13q32 0 55.5 17t46.5 60l43 78l-271 483l104 16l220 -403l202 396h108z" />
    <glyph glyph-name="uni0424" unicode="&#x424;" horiz-adv-x="960" 
d="M530 -15h-100v80q-177 7 -276 88t-99 210t99.5 211.5t275.5 88.5v76h100v-76q177 -6 276 -88t99 -212q0 -128 -100 -209.5t-275 -88.5v-80zM804 364q0 93 -71.5 150.5t-203.5 61.5v-424q131 4 203 62t72 150zM156 364q0 -92 71 -150t204 -62v424q-132 -4 -203.5 -63
t-71.5 -149z" />
    <glyph glyph-name="uni0425" unicode="&#x425;" horiz-adv-x="702" 
d="M665 14l-102 -21l-214 314l-205 -307h-111l259 377l-230 334l101 21l188 -280l181 273h112l-236 -345z" />
    <glyph glyph-name="uni0426" unicode="&#x426;" horiz-adv-x="789" 
d="M196 92h372v633h101v-631h84v-252l-94 -15v173h-563v725h100v-633z" />
    <glyph glyph-name="uni0427" unicode="&#x427;" horiz-adv-x="665" 
d="M70 725h100v-231q0 -140 152 -140q70 0 148 13v358h100v-725h-100v274q-81 -13 -152 -13q-248 0 -248 228v236z" />
    <glyph glyph-name="uni0428" unicode="&#x428;" horiz-adv-x="1055" 
d="M195 89h283v636h99v-636h283v636h99v-725h-863v725h99v-636z" />
    <glyph glyph-name="uni0429" unicode="&#x429;" horiz-adv-x="1075" 
d="M195 89h281v636h99v-636h281v636h99v-631h85v-252l-95 -15v173h-849v725h99v-636z" />
    <glyph glyph-name="uni042A" unicode="&#x42a;" horiz-adv-x="751" 
d="M707 227q0 -109 -75 -168t-202 -59h-181v633h-220l15 92h305v-283h98q122 0 191 -56.5t69 -158.5zM606 224q0 130 -164 130h-93v-266h86q82 0 126.5 34t44.5 102z" />
    <glyph glyph-name="uni042B" unicode="&#x42b;" horiz-adv-x="851" 
d="M749 0h-100v725h100v-725zM549 227q0 -109 -75 -168t-203 -59h-175v725h100v-283h93q122 0 191 -56.5t69 -158.5zM448 224q0 64 -42.5 97t-122.5 33h-87v-266h81q82 0 126.5 34t44.5 102z" />
    <glyph glyph-name="uni042C" unicode="&#x42c;" horiz-adv-x="598" 
d="M554 227q0 -109 -75 -168t-202 -59h-181v725h100v-283h98q122 0 191 -56.5t69 -158.5zM453 224q0 130 -164 130h-93v-266h86q82 0 126.5 34t44.5 102z" />
    <glyph glyph-name="uni042D" unicode="&#x42d;" horiz-adv-x="699" 
d="M85 577l-15 97q104 64 225 64q158 0 248.5 -103t90.5 -272q0 -168 -94.5 -272.5t-254.5 -104.5q-127 0 -227 71l15 95q112 -75 212 -75q110 0 174 67t72 183l-370 -2l-14 92l383 -2q-13 108 -75.5 170.5t-162.5 62.5q-109 0 -207 -71z" />
    <glyph glyph-name="uni042E" unicode="&#x42e;" horiz-adv-x="1037" 
d="M970 363q0 -169 -87.5 -273t-232.5 -104q-138 0 -223.5 93t-93.5 249h-137v-328h-100v725h100v-305h139q15 145 100 231.5t217 86.5q145 0 231.5 -103t86.5 -272zM867 362q0 131 -57.5 207.5t-158.5 76.5q-103 0 -160 -76t-57 -208q0 -131 57.5 -207.5t159.5 -76.5
t159 76t57 208z" />
    <glyph glyph-name="uni042F" unicode="&#x42f;" horiz-adv-x="630" 
d="M181 515q0 -63 42.5 -94.5t115.5 -31.5h95v247h-99q-74 0 -114 -32.5t-40 -88.5zM24 15l217 299q-160 37 -160 198q0 99 69 156t189 57h196v-725h-101v305h-86l-225 -312z" />
    <glyph glyph-name="uni0430" unicode="&#x430;" horiz-adv-x="587" 
d="M404 146v126q-98 -9 -156.5 -30t-77.5 -44.5t-19 -54.5q0 -33 22.5 -52.5t62.5 -19.5q90 0 168 75zM503 0h-79l-12 72q-87 -83 -196 -83q-74 0 -118.5 40.5t-44.5 107.5q0 97 84 144t267 66v23q0 91 -107 91q-84 0 -192 -46l-13 85q114 45 213 45q100 0 149 -41.5
t49 -129.5v-374z" />
    <glyph glyph-name="uni0431" unicode="&#x431;" horiz-adv-x="636" 
d="M365 686q-105 -17 -152.5 -70t-59.5 -177q67 93 192 93q107 0 171.5 -73t64.5 -189q0 -127 -74 -204t-185 -77q-102 0 -169 63q-89 86 -89 285q0 216 65.5 316t221.5 126l174 29l14 -92zM482 265q0 82 -40.5 133.5t-109.5 51.5q-77 0 -123.5 -54t-46.5 -136
q0 -86 43.5 -137.5t115.5 -51.5q73 0 117 55t44 139z" />
    <glyph glyph-name="uni0432" unicode="&#x432;" horiz-adv-x="589" 
d="M534 157q0 -79 -58.5 -118t-162.5 -39h-226v534h231q97 0 146.5 -36.5t49.5 -98.5q0 -83 -91 -117q111 -29 111 -125zM418 388q0 65 -106 65h-131v-136h131q106 0 106 71zM437 159q0 81 -120 81h-136v-159h131q125 0 125 78z" />
    <glyph glyph-name="uni0433" unicode="&#x433;" horiz-adv-x="475" 
d="M87 0v534h345l12 -87h-258v-447h-99z" />
    <glyph glyph-name="uni0434" unicode="&#x434;" horiz-adv-x="662" 
d="M29 -167v250q76 63 114 128t51 170l18 153h341v-451h75v-244l-93 -15v176h-413v-167h-93zM297 452l-10 -78q-13 -107 -47 -171t-97 -122h313v371h-159z" />
    <glyph glyph-name="uni0435" unicode="&#x435;" horiz-adv-x="587" 
d="M531 61q-93 -72 -220 -72q-115 0 -185.5 70t-70.5 210q0 126 68.5 201t174.5 75q115 0 174.5 -75t59.5 -192v-21h-378q3 -93 45.5 -138.5t118.5 -45.5q100 0 199 76zM297 468q-52 0 -89 -35.5t-49 -101.5h273q-17 137 -135 137z" />
    <glyph glyph-name="uni0436" unicode="&#x436;" horiz-adv-x="848" 
d="M140 0h-118l251 279l-230 246l106 17l228 -254l-2 246h98l-2 -247l219 247h118l-233 -254l251 -271l-106 -17l-249 279l2 -271h-98l2 272z" />
    <glyph glyph-name="uni0437" unicode="&#x437;" horiz-adv-x="546" 
d="M474 397q0 -44 -27.5 -77t-75.5 -49q57 -16 85.5 -46.5t28.5 -81.5q0 -69 -59.5 -112t-166.5 -43q-109 0 -208 47l14 84q98 -49 192 -49q128 0 128 79q0 82 -143 82h-84l-14 80h104q65 0 97 21t32 56q0 34 -30 54t-90 20q-82 0 -180 -48l-14 83q94 47 200 47
q104 0 157.5 -40.5t53.5 -106.5z" />
    <glyph glyph-name="uni0438" unicode="&#x438;" horiz-adv-x="642" 
d="M87 0v534h96v-395l272 395h100v-534h-96v395l-274 -395h-98z" />
    <glyph glyph-name="uni0439" unicode="&#x439;" horiz-adv-x="642" 
d="M484 744q-26 -130 -165 -130q-136 0 -161 130l67 14q19 -65 97 -65q74 0 94 65zM87 0v534h96v-395l272 395h100v-534h-96v395l-274 -395h-98z" />
    <glyph glyph-name="uni043A" unicode="&#x43a;" horiz-adv-x="564" 
d="M435 -8l-249 271v-263h-99v534h99v-241l220 241h122l-241 -253l259 -272z" />
    <glyph glyph-name="uni043B" unicode="&#x43b;" horiz-adv-x="635" 
d="M23 77q71 17 101.5 69t47.5 181l25 207h350v-534h-98v451h-167l-16 -134q-20 -167 -70 -238.5t-159 -90.5z" />
    <glyph glyph-name="uni043C" unicode="&#x43c;" horiz-adv-x="850" 
d="M781 0h-97l-30 421l-188 -423h-86l-187 423l-30 -421h-93l44 534h128l185 -415l184 415h125z" />
    <glyph glyph-name="uni043D" unicode="&#x43d;" horiz-adv-x="634" 
d="M547 0h-98v234h-263v-234h-99v534h99v-218h263v218h98v-534z" />
    <glyph glyph-name="uni043E" unicode="&#x43e;" horiz-adv-x="621" 
d="M566 266q0 -128 -72 -202.5t-185 -74.5t-183.5 74t-70.5 203t71 204t183 75q114 0 185.5 -75t71.5 -204zM466 266q0 86 -42 141.5t-115 55.5q-74 0 -114 -54.5t-40 -142.5q0 -85 41 -140t113 -55q75 0 116 53.5t41 141.5z" />
    <glyph glyph-name="uni043F" unicode="&#x43f;" horiz-adv-x="630" 
d="M543 0h-99v451h-258v-451h-99v534h456v-534z" />
    <glyph glyph-name="uni0440" unicode="&#x440;" horiz-adv-x="633" 
d="M478 278q0 86 -37 133t-98 47q-83 0 -157 -94v-259q61 -29 136 -29q70 0 113 52.5t43 149.5zM578 282q0 -139 -72 -214t-180 -75q-80 0 -140 24v-211l-99 -14v742h78l13 -77q79 88 180 88q95 0 157.5 -67.5t62.5 -195.5z" />
    <glyph glyph-name="uni0441" unicode="&#x441;" horiz-adv-x="552" 
d="M501 44q-76 -55 -189 -55q-114 0 -185.5 73.5t-71.5 203.5q0 132 74.5 205.5t189.5 73.5q104 0 177 -49l-15 -96q-78 59 -164 59q-74 0 -118 -50t-44 -141q0 -95 45.5 -144t120.5 -49q93 0 166 60z" />
    <glyph glyph-name="uni0442" unicode="&#x442;" horiz-adv-x="540" 
d="M220 0v448h-188v86h469l13 -86h-195v-448h-99z" />
    <glyph glyph-name="uni0443" unicode="&#x443;" horiz-adv-x="570" 
d="M538 534l-229 -591q-31 -84 -74.5 -115.5t-108.5 -31.5q-17 0 -42 5l-15 89q34 -8 53 -8q36 0 59.5 18.5t40.5 60.5l15 37l-204 528l100 16l153 -425l149 417h103z" />
    <glyph glyph-name="uni0444" unicode="&#x444;" horiz-adv-x="849" 
d="M800 268q0 -119 -86 -192.5t-241 -81.5v-188l-96 -14v201q-157 8 -242 81t-85 192t86 192.5t241 81.5v253l96 15v-268q156 -8 241.5 -80.5t85.5 -191.5zM149 266q0 -86 59 -135t170 -56v383q-113 -7 -171 -56t-58 -136zM700 266q0 86 -59 135t-169 57v-383
q113 7 170.5 56t57.5 135z" />
    <glyph glyph-name="uni0445" unicode="&#x445;" horiz-adv-x="557" 
d="M518 7l-97 -15l-144 215l-134 -207h-104l186 273l-174 253l97 16l131 -199l125 191h103l-175 -258z" />
    <glyph glyph-name="uni0446" unicode="&#x446;" horiz-adv-x="648" 
d="M87 0v534h99v-451h254v451h98v-451h75v-242l-93 -15v174h-433z" />
    <glyph glyph-name="uni0447" unicode="&#x447;" horiz-adv-x="580" 
d="M64 534h98v-166q0 -108 120 -108q53 0 113 12v262h98v-534h-98v186q-65 -14 -124 -14q-207 0 -207 194v168z" />
    <glyph glyph-name="uni0448" unicode="&#x448;" horiz-adv-x="946" 
d="M424 534h98v-451h238v451h99v-534h-772v534h99v-451h238v451z" />
    <glyph glyph-name="uni0449" unicode="&#x449;" horiz-adv-x="964" 
d="M422 534h98v-451h236v451h98v-451h75v-242l-93 -15v174h-749v534h99v-451h236v451z" />
    <glyph glyph-name="uni044A" unicode="&#x44a;" horiz-adv-x="647" 
d="M605 179q0 -84 -61 -131.5t-163 -47.5h-189v451h-173l13 83h259v-182h99q105 0 160 -45t55 -128zM509 178q0 92 -123 92h-95v-188h92q61 0 93.5 25.5t32.5 70.5z" />
    <glyph glyph-name="uni044B" unicode="&#x44b;" horiz-adv-x="777" 
d="M494 179q0 -84 -61 -131.5t-163 -47.5h-183v534h99v-182h93q105 0 160 -45t55 -128zM690 0h-98v534h98v-534zM398 178q0 92 -123 92h-89v-188h86q61 0 93.5 25.5t32.5 70.5z" />
    <glyph glyph-name="uni044C" unicode="&#x44c;" horiz-adv-x="542" 
d="M500 179q0 -84 -61 -131.5t-163 -47.5h-189v534h99v-182h99q105 0 160 -45t55 -128zM404 178q0 92 -123 92h-95v-188h92q61 0 93.5 25.5t32.5 70.5z" />
    <glyph glyph-name="uni044D" unicode="&#x44d;" horiz-adv-x="554" 
d="M74 402l-14 88q78 55 186 55q115 0 183.5 -74t68.5 -203q0 -132 -75 -205.5t-190 -73.5q-103 0 -180 51l14 93q77 -59 167 -59q67 0 112.5 40.5t53.5 116.5l-255 -1l-14 83l268 -1q-10 72 -52 110t-107 38q-85 0 -166 -58z" />
    <glyph glyph-name="uni044E" unicode="&#x44e;" horiz-adv-x="839" 
d="M784 266q0 -129 -68 -203t-178 -74q-101 0 -166.5 63.5t-75.5 176.5h-110v-229h-99v534h99v-222h112q10 110 75 171.5t165 61.5q110 0 178 -74.5t68 -204.5zM684 266q0 87 -38 141.5t-108 54.5t-106.5 -53.5t-36.5 -142.5q0 -86 37 -140.5t106 -54.5q72 0 109 53.5
t37 141.5z" />
    <glyph glyph-name="uni044F" unicode="&#x44f;" horiz-adv-x="602" 
d="M181 361q0 -43 30 -67t89 -24h117v181h-116q-58 0 -89 -24t-31 -66zM144 -7l-104 22l163 186q-58 17 -90 57.5t-32 99.5q0 81 59 128.5t163 47.5h212v-534h-98v190h-107z" />
    <glyph glyph-name="uni0450" unicode="&#x450;" horiz-adv-x="587" 
d="M346 613h-67l-156 142l121 27zM531 61q-93 -72 -220 -72q-115 0 -185.5 70t-70.5 210q0 126 68.5 201t174.5 75q115 0 174.5 -75t59.5 -192v-21h-378q3 -93 45.5 -138.5t118.5 -45.5q100 0 199 76zM297 468q-52 0 -89 -35.5t-49 -101.5h273q-17 137 -135 137z" />
    <glyph glyph-name="uni0451" unicode="&#x451;" horiz-adv-x="587" 
d="M257 618h-112v112h112v-112zM464 618h-112v112h112v-112zM531 61q-93 -72 -220 -72q-115 0 -185.5 70t-70.5 210q0 126 68.5 201t174.5 75q115 0 174.5 -75t59.5 -192v-21h-378q3 -93 45.5 -138.5t118.5 -45.5q100 0 199 76zM297 468q-52 0 -89 -35.5t-49 -101.5h273
q-17 137 -135 137z" />
    <glyph glyph-name="uni0452" unicode="&#x452;" horiz-adv-x="609" 
d="M389 607h-196v-162q67 14 123 14q229 0 229 -235q0 -94 -34 -195.5t-109 -236.5l-94 15q75 140 107.5 234.5t32.5 172.5q0 80 -35 118t-114 38q-55 0 -106 -11v-359h-99v607h-115l-14 80h129v106l99 15v-121h196v-80z" />
    <glyph glyph-name="uni0453" unicode="&#x453;" horiz-adv-x="475" 
d="M430 755l-156 -142h-67l103 169zM87 0v534h345l12 -87h-258v-447h-99z" />
    <glyph glyph-name="uni0454" unicode="&#x454;" horiz-adv-x="554" 
d="M422 230l-269 1q8 -78 53 -117.5t118 -39.5q91 0 163 59l14 -89q-75 -55 -189 -55q-116 0 -186.5 73.5t-70.5 203.5q0 132 73.5 205.5t190.5 73.5q104 0 177 -49l-15 -95q-78 59 -164 59q-67 0 -110 -38t-53 -110l255 1z" />
    <glyph glyph-name="uni0455" unicode="&#x455;" horiz-adv-x="522" 
d="M471 149q0 -75 -56.5 -117.5t-160.5 -42.5q-109 0 -201 50l14 93q92 -61 195 -61q55 0 85.5 18.5t30.5 52.5q0 36 -28 54.5t-106 36.5q-100 25 -140.5 60.5t-40.5 104.5q0 65 52.5 106t141.5 41q100 0 180 -36l-15 -92q-85 45 -168 45q-48 0 -73 -16.5t-25 -45.5
q0 -27 25.5 -44.5t91.5 -33.5q107 -27 152.5 -63.5t45.5 -109.5z" />
    <glyph glyph-name="uni0456" unicode="&#x456;" horiz-adv-x="289" 
d="M208 705q0 -26 -18.5 -44t-44.5 -18t-45 18t-19 44t19 44.5t45 18.5t44.5 -18.5t18.5 -44.5zM194 0h-99v534h99v-534z" />
    <glyph glyph-name="uni0457" unicode="&#x457;" horiz-adv-x="289" 
d="M96 618h-112v112h112v-112zM303 618h-112v112h112v-112zM194 0h-99v534h99v-534z" />
    <glyph glyph-name="uni0458" unicode="&#x458;" horiz-adv-x="289" 
d="M208 705q0 -26 -18.5 -44t-44.5 -18t-45 18t-19 44t19 44.5t45 18.5t44.5 -18.5t18.5 -44.5zM194 -68q0 -69 -38.5 -102.5t-105.5 -33.5q-36 0 -47 4l-14 87q22 -5 48 -5q58 0 58 59v593h99v-602z" />
    <glyph glyph-name="uni0459" unicode="&#x459;" horiz-adv-x="893" 
d="M851 179q0 -84 -60.5 -131.5t-162.5 -47.5h-189v451h-157l-16 -134q-20 -167 -70 -238.5t-159 -90.5l-14 89q71 17 101.5 69t47.5 181l25 207h340v-182h100q105 0 159.5 -45t54.5 -128zM756 178q0 92 -123 92h-96v-188h93q60 0 93 25.5t33 70.5z" />
    <glyph glyph-name="uni045A" unicode="&#x45a;" horiz-adv-x="887" 
d="M750 178q0 92 -123 92h-86v-188h83q60 0 93 25.5t33 70.5zM845 179q0 -84 -60.5 -131.5t-162.5 -47.5h-179v237h-257v-237h-99v534h99v-214h257v214h98v-182h90q105 0 159.5 -45t54.5 -128z" />
    <glyph glyph-name="uni045B" unicode="&#x45b;" horiz-adv-x="617" 
d="M389 607h-196v-162q68 14 131 14q215 0 215 -195v-264h-99v262q0 55 -32.5 81.5t-100.5 26.5q-56 0 -114 -11v-359h-99v607h-115l-14 80h129v106l99 15v-121h196v-80z" />
    <glyph glyph-name="uni045C" unicode="&#x45c;" horiz-adv-x="564" 
d="M477 755l-156 -142h-67l103 169zM435 -8l-249 271v-263h-99v534h99v-241l220 241h122l-241 -253l259 -272z" />
    <glyph glyph-name="uni045D" unicode="&#x45d;" horiz-adv-x="642" 
d="M362 613h-67l-156 142l121 27zM87 0v534h96v-395l272 395h100v-534h-96v395l-274 -395h-98z" />
    <glyph glyph-name="uni045E" unicode="&#x45e;" horiz-adv-x="570" 
d="M449 744q-26 -130 -165 -130q-136 0 -161 130l67 14q19 -65 97 -65q74 0 94 65zM538 534l-229 -591q-31 -84 -74.5 -115.5t-108.5 -31.5q-17 0 -42 5l-15 89q34 -8 53 -8q36 0 59.5 18.5t40.5 60.5l15 37l-204 528l100 16l153 -425l149 417h103z" />
    <glyph glyph-name="uni045F" unicode="&#x45f;" horiz-adv-x="630" 
d="M362 -159l-95 -15l1 174h-181v534h99v-451h258v451h99v-534h-182z" />
    <glyph glyph-name="uni0462" unicode="&#x462;" horiz-adv-x="750" 
d="M702 214q0 -100 -69.5 -157t-191.5 -57h-193v545h-216l14 86h202v108h100v-108h238v-86h-238v-129h110q116 0 180 -55.5t64 -146.5zM601 210q0 53 -37 85t-111 32h-105v-239h98q76 0 115.5 32.5t39.5 89.5z" />
    <glyph glyph-name="uni0463" unicode="&#x463;" horiz-adv-x="647" 
d="M605 175q0 -83 -61.5 -129t-165.5 -46h-186v452h-173l13 82h160v259l97 15v-274h202v-82h-202v-108h98q105 0 161.5 -44t56.5 -125zM509 173q0 42 -31.5 65.5t-92.5 23.5h-96v-180h92q62 0 95 24t33 67z" />
    <glyph glyph-name="uni0472" unicode="&#x472;" horiz-adv-x="823" 
d="M758 363q0 -168 -95 -272.5t-253 -104.5q-157 0 -251 103t-94 272q0 170 94.5 273.5t252.5 103.5t252 -103t94 -272zM411 649q-103 0 -167.5 -64.5t-75.5 -175.5h487q-11 110 -76 175t-168 65zM411 76q104 0 169 65.5t75 178.5h-488q11 -113 75.5 -178.5t168.5 -65.5z
" />
    <glyph glyph-name="uni0473" unicode="&#x473;" horiz-adv-x="621" 
d="M565 266q0 -127 -71 -202.5t-184 -75.5q-114 0 -184.5 75t-70.5 203t70.5 203.5t184.5 75.5t184.5 -75.5t70.5 -203.5zM310 468q-65 0 -106.5 -41.5t-51.5 -117.5h315q-9 76 -50.5 117.5t-106.5 41.5zM310 65q65 0 106.5 41.5t50.5 119.5h-315q9 -78 51 -119.5t107 -41.5
z" />
    <glyph glyph-name="uni0474" unicode="&#x474;" horiz-adv-x="776" 
d="M756 731l13 -92q-63 -7 -97.5 -43t-72.5 -130l-186 -471h-92l-284 716l102 21l229 -601l140 363q48 131 100 180t148 57z" />
    <glyph glyph-name="uni0475" unicode="&#x475;" horiz-adv-x="588" 
d="M575 456q-50 -9 -77 -38.5t-50 -90.5l-122 -330h-96l-197 529l101 16l146 -424l81 242q29 87 73 130.5t125 53.5z" />
    <glyph glyph-name="uni0490" unicode="&#x490;" horiz-adv-x="539" 
d="M96 725h312v157l95 -15v-237h-307v-630h-100v725z" />
    <glyph glyph-name="uni0491" unicode="&#x491;" horiz-adv-x="487" 
d="M186 448v-448h-99v534h279v164l93 -14v-236h-273z" />
    <glyph glyph-name="uni0492" unicode="&#x492;" horiz-adv-x="550" 
d="M114 725h385l15 -95h-300v-232h177v-70h-177v-328h-100v328h-85l-12 70h97v327z" />
    <glyph glyph-name="uni0493" unicode="&#x493;" horiz-adv-x="496" 
d="M108 0v224h-77l-12 68h89v242h345l12 -87h-258v-155h153v-68h-153v-224h-99z" />
    <glyph glyph-name="uni0496" unicode="&#x496;" horiz-adv-x="1024" 
d="M162 732l299 -340l-3 333h100l-3 -334l294 334h124l-309 -340l254 -291h93v-252l-94 -15v173h-44l-318 374l3 -374h-100l3 373l-315 -373h-124l331 381l-299 327z" />
    <glyph glyph-name="uni0497" unicode="&#x497;" horiz-adv-x="860" 
d="M575 280l183 -197h89v-242l-93 -15v174h-41l-242 271l2 -271h-98l2 272l-237 -272h-118l251 279l-230 246l106 17l228 -254l-2 246h98l-2 -247l219 247h118z" />
    <glyph glyph-name="uni0498" unicode="&#x498;" horiz-adv-x="597" 
d="M535 204q0 -82 -55 -138.5t-146 -71.5l2 -152l-97 -15l2 162q-96 4 -187 52l17 94q100 -56 198 -56q77 0 121 35.5t44 92.5q0 127 -188 127h-80l-14 90h100q75 0 120.5 31t45.5 85q0 48 -36.5 76.5t-107.5 28.5q-94 0 -192 -54l-13 91q97 54 214 54q109 0 173.5 -52.5
t64.5 -135.5q0 -121 -138 -164v-1q152 -39 152 -179z" />
    <glyph glyph-name="uni0499" unicode="&#x499;" horiz-adv-x="546" 
d="M474 397q0 -44 -27.5 -77t-75.5 -49q57 -16 85.5 -46.5t28.5 -81.5q0 -62 -48 -103.5t-135 -49.5l3 -149l-95 -15l2 164q-85 9 -161 45l14 84q98 -49 192 -49q128 0 128 79q0 82 -143 82h-84l-14 80h104q65 0 97 21t32 56q0 34 -30 54t-90 20q-82 0 -180 -48l-14 83
q94 47 200 47q104 0 157.5 -40.5t53.5 -106.5z" />
    <glyph glyph-name="uni049A" unicode="&#x49a;" horiz-adv-x="684" 
d="M586 -173v173h-45l-345 367v-367h-100v725h100v-326l315 326h128l-334 -341l277 -290h99v-252z" />
    <glyph glyph-name="uni049B" unicode="&#x49b;" horiz-adv-x="575" 
d="M186 0h-99v534h99v-241l220 241h119l-238 -253l188 -198h88v-242l-93 -15v174h-41l-243 263v-263z" />
    <glyph glyph-name="uni049C" unicode="&#x49c;" horiz-adv-x="705" 
d="M345 599v-173l202 299h117l-240 -341l254 -368l-102 -23l-231 342v-172h-70v173h-79v-336h-100v725h100v-300h79v174h70z" />
    <glyph glyph-name="uni049D" unicode="&#x49d;" horiz-adv-x="630" 
d="M321 455v-136l150 215h106l-178 -249l204 -276l-104 -17l-178 249v-138h-67v135h-69v-238h-98v534h98v-213h69v134h67z" />
    <glyph glyph-name="uni04A0" unicode="&#x4a0;" horiz-adv-x="825" 
d="M811 16l-111 -23l-351 374v-367h-100v633h-220l15 92h305v-326l315 326h128l-334 -341z" />
    <glyph glyph-name="uni04A1" unicode="&#x4a1;" horiz-adv-x="668" 
d="M540 -8l-249 271v-263h-99v451h-173l13 83h259v-241l220 241h122l-241 -253l259 -272z" />
    <glyph glyph-name="uni04A2" unicode="&#x4a2;" horiz-adv-x="800" 
d="M670 -173v173h-90v333h-384v-333h-100v725h100v-300h384v300h100v-631h84v-252z" />
    <glyph glyph-name="uni04A3" unicode="&#x4a3;" horiz-adv-x="656" 
d="M529 -174v174h-80v234h-263v-234h-99v534h99v-218h263v218h98v-451h75v-242z" />
    <glyph glyph-name="uni04A4" unicode="&#x4a4;" horiz-adv-x="989" 
d="M660 0h-101v333h-363v-333h-100v725h100v-300h363v300h380l15 -95h-294v-630z" />
    <glyph glyph-name="uni04A5" unicode="&#x4a5;" horiz-adv-x="820" 
d="M537 0h-98v237h-253v-237h-99v534h99v-214h253v214h336l13 -86h-251v-448z" />
    <glyph glyph-name="uni04AA" unicode="&#x4aa;" horiz-adv-x="699" 
d="M641 57q-86 -61 -202 -70l2 -145l-97 -15l2 165q-130 21 -205.5 120.5t-75.5 248.5q0 169 96 273t254 104q122 0 214 -60l-15 -102q-96 70 -200 70q-115 0 -180.5 -76.5t-65.5 -207.5q0 -130 66 -206.5t180 -76.5q107 0 212 72z" />
    <glyph glyph-name="uni04AB" unicode="&#x4ab;" horiz-adv-x="552" 
d="M501 44q-62 -46 -149 -53l3 -150l-95 -15l2 167q-94 15 -150.5 86.5t-56.5 186.5q0 132 74.5 205.5t189.5 73.5q104 0 177 -49l-15 -96q-78 59 -164 59q-74 0 -118 -50t-44 -141q0 -95 45.5 -144t120.5 -49q93 0 166 60z" />
    <glyph glyph-name="uni04AE" unicode="&#x4ae;" horiz-adv-x="702" 
d="M673 725l-274 -438v-287h-100v287l-267 424l103 21l215 -351l209 344h114z" />
    <glyph glyph-name="uni04AF" unicode="&#x4af;" horiz-adv-x="571" 
d="M538 534l-204 -534v-194l-98 -14v208l-203 526l101 16l153 -425l149 417h102z" />
    <glyph glyph-name="uni04B0" unicode="&#x4b0;" horiz-adv-x="702" 
d="M673 725l-275 -440v-58h155l11 -70h-166v-157h-98v157h-162v70h162v58l-268 426l103 21l215 -351l209 344h114z" />
    <glyph glyph-name="uni04B1" unicode="&#x4b1;" horiz-adv-x="571" 
d="M538 534l-204 -534v-27h125l11 -68h-136v-99l-98 -14v113h-128v68h128v27l-203 526l101 16l153 -425l149 417h102z" />
    <glyph glyph-name="uni04B2" unicode="&#x4b2;" horiz-adv-x="713" 
d="M532 725h112l-236 -345l200 -286h89v-252l-94 -15v173h-45l-209 307l-205 -307h-111l259 377l-230 334l101 21l188 -280z" />
    <glyph glyph-name="uni04B3" unicode="&#x4b3;" horiz-adv-x="568" 
d="M404 534h103l-175 -258l133 -193h85v-242l-93 -15v174h-41l-139 207l-134 -207h-104l186 273l-174 253l97 16l131 -199z" />
    <glyph glyph-name="uni04B6" unicode="&#x4b6;" horiz-adv-x="690" 
d="M70 725h100v-231q0 -140 152 -140q70 0 148 13v358h100v-631h84v-252l-94 -15v173h-90v274q-81 -13 -152 -13q-248 0 -248 228v236z" />
    <glyph glyph-name="uni04B7" unicode="&#x4b7;" horiz-adv-x="602" 
d="M64 534h98v-166q0 -108 120 -108q53 0 113 12v262h98v-451h75v-242l-93 -15v174h-80v186q-65 -14 -124 -14q-207 0 -207 194v168z" />
    <glyph glyph-name="uni04B8" unicode="&#x4b8;" horiz-adv-x="665" 
d="M355 101h-70v161h-1q-215 13 -214 227v236h100v-231q0 -124 115 -138v177h70v-179q53 3 115 13v358h100v-725h-100v274q-70 -11 -115 -13v-160z" />
    <glyph glyph-name="uni04B9" unicode="&#x4b9;" horiz-adv-x="601" 
d="M254 52v120h-1q-190 8 -189 194v168h98v-166q0 -95 92 -107v134h67v-135q45 1 95 12v262h98v-534h-98v186q-51 -11 -95 -14v-120h-67z" />
    <glyph glyph-name="uni04BA" unicode="&#x4ba;" horiz-adv-x="665" 
d="M595 0h-100v231q0 140 -152 140q-73 0 -147 -14v-357h-100v725h100v-275q86 14 152 14q247 0 247 -229v-235z" />
    <glyph glyph-name="uni04BB" unicode="&#x4bb;" horiz-adv-x="621" 
d="M537 0h-99v364q0 93 -88 93q-77 0 -164 -87v-370h-99v793l99 15v-345q96 82 189 82q78 0 120 -41.5t42 -115.5v-388z" />
    <glyph glyph-name="uni04C0" unicode="&#x4c0;" horiz-adv-x="305" 
d="M202 0h-100v725h100v-725z" />
    <glyph glyph-name="uni04C1" unicode="&#x4c1;" horiz-adv-x="1014" 
d="M663 912q-24 -122 -155 -122q-129 0 -152 122l64 14q17 -61 90 -61q69 0 88 61zM162 732l299 -340l-3 333h100l-3 -334l294 334h124l-309 -340l323 -369l-107 -23l-325 381l3 -374h-100l3 373l-315 -373h-124l331 381l-299 327z" />
    <glyph glyph-name="uni04C2" unicode="&#x4c2;" horiz-adv-x="848" 
d="M588 744q-26 -130 -165 -130q-136 0 -161 130l67 14q19 -65 97 -65q74 0 94 65zM140 0h-118l251 279l-230 246l106 17l228 -254l-2 246h98l-2 -247l219 247h118l-233 -254l251 -271l-106 -17l-249 279l2 -271h-98l2 272z" />
    <glyph glyph-name="uni04CF" unicode="&#x4cf;" horiz-adv-x="289" 
d="M194 0h-99v793l99 15v-808z" />
    <glyph glyph-name="uni04D0" unicode="&#x4d0;" horiz-adv-x="760" 
d="M534 923q-24 -122 -155 -122q-129 0 -152 122l64 14q17 -61 90 -61q69 0 88 61zM37 0l295 728h100l291 -714l-99 -21l-88 223h-311l-84 -216h-104zM380 610l-121 -305h242z" />
    <glyph glyph-name="uni04D1" unicode="&#x4d1;" horiz-adv-x="587" 
d="M458 744q-26 -130 -165 -130q-136 0 -161 130l67 14q19 -65 97 -65q74 0 94 65zM404 146v126q-98 -9 -156.5 -30t-77.5 -44.5t-19 -54.5q0 -33 22.5 -52.5t62.5 -19.5q90 0 168 75zM503 0h-79l-12 72q-87 -83 -196 -83q-74 0 -118.5 40.5t-44.5 107.5q0 97 84 144t267 66
v23q0 91 -107 91q-84 0 -192 -46l-13 85q114 45 213 45q100 0 149 -41.5t49 -129.5v-374z" />
    <glyph glyph-name="uni04D2" unicode="&#x4d2;" horiz-adv-x="760" 
d="M336 804h-107v107h107v-107zM531 804h-107v107h107v-107zM37 0l295 728h100l291 -714l-99 -21l-88 223h-311l-84 -216h-104zM380 610l-121 -305h242z" />
    <glyph glyph-name="uni04D3" unicode="&#x4d3;" horiz-adv-x="587" 
d="M246 618h-112v112h112v-112zM453 618h-112v112h112v-112zM404 146v126q-98 -9 -156.5 -30t-77.5 -44.5t-19 -54.5q0 -33 22.5 -52.5t62.5 -19.5q90 0 168 75zM503 0h-79l-12 72q-87 -83 -196 -83q-74 0 -118.5 40.5t-44.5 107.5q0 97 84 144t267 66v23q0 91 -107 91
q-84 0 -192 -46l-13 85q114 45 213 45q100 0 149 -41.5t49 -129.5v-374z" />
    <glyph glyph-name="uni04D4" unicode="&#x4d4;" horiz-adv-x="973" 
d="M302 305h206v334zM7 0l449 725h457v-92h-307v-208h239l14 -92h-253v-241h318v-92h-416v216h-260l-132 -216h-109z" />
    <glyph glyph-name="uni04D5" unicode="&#x4d5;" horiz-adv-x="928" 
d="M872 278v-21h-379q3 -92 46.5 -138t118.5 -46q100 0 199 76l14 -88q-93 -72 -220 -72q-131 0 -200 85q-100 -85 -218 -85q-81 0 -130.5 38.5t-49.5 110.5q0 93 81.5 141.5t260.5 66.5v24q0 49 -24 70t-74 21q-84 0 -192 -46l-13 85q114 45 206 45q72 0 111 -17.5
t60 -58.5q62 76 170 76q115 0 174 -75t59 -192zM772 331q-17 137 -134 137q-53 0 -91 -35t-48 -102h273zM415 142q-20 60 -20 127v2q-138 -15 -191 -48t-53 -80q0 -34 25.5 -53t69.5 -19q91 0 169 71z" />
    <glyph glyph-name="uni04D6" unicode="&#x4d6;" horiz-adv-x="561" 
d="M455 912q-24 -122 -155 -122q-129 0 -152 122l64 14q17 -61 90 -61q69 0 88 61zM511 0h-415v725h405v-92h-305v-208h237l15 -92h-252v-241h315v-92z" />
    <glyph glyph-name="uni04D7" unicode="&#x4d7;" horiz-adv-x="587" 
d="M468 744q-26 -130 -165 -130q-136 0 -161 130l67 14q19 -65 97 -65q74 0 94 65zM531 61q-93 -72 -220 -72q-115 0 -185.5 70t-70.5 210q0 126 68.5 201t174.5 75q115 0 174.5 -75t59.5 -192v-21h-378q3 -93 45.5 -138.5t118.5 -45.5q100 0 199 76zM297 468
q-52 0 -89 -35.5t-49 -101.5h273q-17 137 -135 137z" />
    <glyph glyph-name="uni04D8" unicode="&#x4d8;" horiz-adv-x="768" 
d="M361 646q-128 0 -259 -84l-15 99q68 39 131.5 58t143.5 19q155 0 248.5 -100t93.5 -275q0 -171 -91.5 -274t-231.5 -103q-138 0 -222 94t-84 269v73h523q-14 105 -76.5 164.5t-160.5 59.5zM383 76q88 0 149.5 66t68.5 191h-422q3 -257 204 -257z" />
    <glyph glyph-name="uni04D9" unicode="&#x4d9;" horiz-adv-x="587" 
d="M56 473q94 72 220 72q115 0 185.5 -70t70.5 -210q0 -126 -68.5 -201t-174.5 -75q-114 0 -174 75.5t-60 208.5v27h378q-7 79 -50.5 120t-113.5 41q-99 0 -198 -76zM290 73q53 0 93 37.5t49 118.5h-277q3 -84 37 -120t98 -36z" />
    <glyph glyph-name="uni04DC" unicode="&#x4dc;" horiz-adv-x="1014" 
d="M465 793h-107v107h107v-107zM660 793h-107v107h107v-107zM162 732l299 -340l-3 333h100l-3 -334l294 334h124l-309 -340l323 -369l-107 -23l-325 381l3 -374h-100l3 373l-315 -373h-124l331 381l-299 327z" />
    <glyph glyph-name="uni04DD" unicode="&#x4dd;" horiz-adv-x="848" 
d="M377 618h-112v112h112v-112zM584 618h-112v112h112v-112zM140 0h-118l251 279l-230 246l106 17l228 -254l-2 246h98l-2 -247l219 247h118l-233 -254l251 -271l-106 -17l-249 279l2 -271h-98l2 272z" />
    <glyph glyph-name="uni04DE" unicode="&#x4de;" horiz-adv-x="597" 
d="M257 804h-107v107h107v-107zM452 804h-107v107h107v-107zM535 204q0 -97 -74 -156.5t-193 -59.5q-111 0 -214 53l17 94q100 -56 198 -56q77 0 121 35.5t44 92.5q0 127 -188 127h-80l-14 90h100q75 0 120.5 31t45.5 85q0 48 -36.5 76.5t-107.5 28.5q-94 0 -192 -54l-13 91
q97 54 214 54q109 0 173.5 -52.5t64.5 -135.5q0 -121 -138 -164v-1q152 -39 152 -179z" />
    <glyph glyph-name="uni04DF" unicode="&#x4df;" horiz-adv-x="546" 
d="M224 618h-112v112h112v-112zM431 618h-112v112h112v-112zM474 397q0 -44 -27.5 -77t-75.5 -49q57 -16 85.5 -46.5t28.5 -81.5q0 -69 -59.5 -112t-166.5 -43q-109 0 -208 47l14 84q98 -49 192 -49q128 0 128 79q0 82 -143 82h-84l-14 80h104q65 0 97 21t32 56q0 34 -30 54
t-90 20q-82 0 -180 -48l-14 83q94 47 200 47q104 0 157.5 -40.5t53.5 -106.5z" />
    <glyph glyph-name="uni04E2" unicode="&#x4e2;" horiz-adv-x="776" 
d="M532 803h-290v77h290v-77zM197 0h-101v725h99v-568l383 568h102v-725h-99v567z" />
    <glyph glyph-name="uni04E3" unicode="&#x4e3;" horiz-adv-x="642" 
d="M475 639h-309v80h309v-80zM87 0v534h96v-395l272 395h100v-534h-96v395l-274 -395h-98z" />
    <glyph glyph-name="uni04E4" unicode="&#x4e4;" horiz-adv-x="776" 
d="M343 783h-107v107h107v-107zM538 783h-107v107h107v-107zM197 0h-101v725h99v-568l383 568h102v-725h-99v567z" />
    <glyph glyph-name="uni04E5" unicode="&#x4e5;" horiz-adv-x="642" 
d="M273 618h-112v112h112v-112zM480 618h-112v112h112v-112zM87 0v534h96v-395l272 395h100v-534h-96v395l-274 -395h-98z" />
    <glyph glyph-name="uni04E6" unicode="&#x4e6;" horiz-adv-x="823" 
d="M367 804h-107v107h107v-107zM562 804h-107v107h107v-107zM758 363q0 -168 -95 -272.5t-253 -104.5q-157 0 -251 103t-94 272q0 170 94.5 273.5t252.5 103.5t252 -103t94 -272zM655 362q0 131 -66 207.5t-178 76.5t-177.5 -76.5t-65.5 -207.5q0 -130 65.5 -207t177.5 -77
q113 0 178.5 77t65.5 207z" />
    <glyph glyph-name="uni04E7" unicode="&#x4e7;" horiz-adv-x="621" 
d="M262 618h-112v112h112v-112zM469 618h-112v112h112v-112zM566 266q0 -128 -72 -202.5t-185 -74.5t-183.5 74t-70.5 203t71 204t183 75q114 0 185.5 -75t71.5 -204zM466 266q0 86 -42 141.5t-115 55.5q-74 0 -114 -54.5t-40 -142.5q0 -85 41 -140t113 -55q75 0 116 53.5
t41 141.5z" />
    <glyph glyph-name="uni04E8" unicode="&#x4e8;" horiz-adv-x="823" 
d="M758 363q0 -168 -95 -272.5t-253 -104.5q-157 0 -251 103t-94 272q0 170 94.5 273.5t252.5 103.5t252 -103t94 -272zM411 649q-103 0 -167.5 -64.5t-75.5 -175.5h487q-11 110 -76 175t-168 65zM411 76q104 0 169 65.5t75 178.5h-488q11 -113 75.5 -178.5t168.5 -65.5z
" />
    <glyph glyph-name="uni04E9" unicode="&#x4e9;" horiz-adv-x="621" 
d="M565 266q0 -127 -71 -202.5t-184 -75.5q-114 0 -184.5 75t-70.5 203t70.5 203.5t184.5 75.5t184.5 -75.5t70.5 -203.5zM310 468q-65 0 -106.5 -41.5t-51.5 -117.5h315q-9 76 -50.5 117.5t-106.5 41.5zM310 65q65 0 106.5 41.5t50.5 119.5h-315q9 -78 51 -119.5t107 -41.5
z" />
    <glyph glyph-name="uni04EE" unicode="&#x4ee;" horiz-adv-x="693" 
d="M513 803h-290v77h290v-77zM678 725l-315 -594q-42 -79 -84.5 -111.5t-102.5 -32.5q-37 0 -71 12l-13 92q45 -13 78 -13q32 0 55.5 17t46.5 60l43 78l-271 483l104 16l220 -403l202 396h108z" />
    <glyph glyph-name="uni04EF" unicode="&#x4ef;" horiz-adv-x="570" 
d="M440 639h-309v80h309v-80zM538 534l-229 -591q-31 -84 -74.5 -115.5t-108.5 -31.5q-17 0 -42 5l-15 89q34 -8 53 -8q36 0 59.5 18.5t40.5 60.5l15 37l-204 528l100 16l153 -425l149 417h103z" />
    <glyph glyph-name="uni04F0" unicode="&#x4f0;" horiz-adv-x="693" 
d="M324 783h-107v107h107v-107zM519 783h-107v107h107v-107zM678 725l-315 -594q-42 -79 -84.5 -111.5t-102.5 -32.5q-37 0 -71 12l-13 92q45 -13 78 -13q32 0 55.5 17t46.5 60l43 78l-271 483l104 16l220 -403l202 396h108z" />
    <glyph glyph-name="uni04F1" unicode="&#x4f1;" horiz-adv-x="570" 
d="M238 618h-112v112h112v-112zM445 618h-112v112h112v-112zM538 534l-229 -591q-31 -84 -74.5 -115.5t-108.5 -31.5q-17 0 -42 5l-15 89q34 -8 53 -8q36 0 59.5 18.5t40.5 60.5l15 37l-204 528l100 16l153 -425l149 417h103z" />
    <glyph glyph-name="uni04F2" unicode="&#x4f2;" horiz-adv-x="693" 
d="M438 914l-141 -131h-57l93 154zM610 914l-141 -131h-57l93 154zM678 725l-315 -594q-42 -79 -84.5 -111.5t-102.5 -32.5q-37 0 -71 12l-13 92q45 -13 78 -13q32 0 55.5 17t46.5 60l43 78l-271 483l104 16l220 -403l202 396h108z" />
    <glyph glyph-name="uni04F3" unicode="&#x4f3;" horiz-adv-x="570" 
d="M360 758l-151 -141h-59l100 165zM544 758l-152 -141h-59l101 165zM538 534l-229 -591q-31 -84 -74.5 -115.5t-108.5 -31.5q-17 0 -42 5l-15 89q34 -8 53 -8q36 0 59.5 18.5t40.5 60.5l15 37l-204 528l100 16l153 -425l149 417h103z" />
    <glyph glyph-name="uni04F4" unicode="&#x4f4;" horiz-adv-x="665" 
d="M277 783h-107v107h107v-107zM472 783h-107v107h107v-107zM70 725h100v-231q0 -140 152 -140q70 0 148 13v358h100v-725h-100v274q-81 -13 -152 -13q-248 0 -248 228v236z" />
    <glyph glyph-name="uni04F5" unicode="&#x4f5;" horiz-adv-x="580" 
d="M235 618h-112v112h112v-112zM442 618h-112v112h112v-112zM64 534h98v-166q0 -108 120 -108q53 0 113 12v262h98v-534h-98v186q-65 -14 -124 -14q-207 0 -207 194v168z" />
    <glyph glyph-name="uni04F8" unicode="&#x4f8;" horiz-adv-x="851" 
d="M378 783h-107v107h107v-107zM573 783h-107v107h107v-107zM749 0h-100v725h100v-725zM549 227q0 -109 -75 -168t-203 -59h-175v725h100v-283h93q122 0 191 -56.5t69 -158.5zM448 224q0 64 -42.5 97t-122.5 33h-87v-266h81q82 0 126.5 34t44.5 102z" />
    <glyph glyph-name="uni04F9" unicode="&#x4f9;" horiz-adv-x="777" 
d="M340 618h-112v112h112v-112zM547 618h-112v112h112v-112zM494 179q0 -84 -61 -131.5t-163 -47.5h-183v534h99v-182h93q105 0 160 -45t55 -128zM690 0h-98v534h98v-534zM398 178q0 92 -123 92h-89v-188h86q61 0 93.5 25.5t32.5 70.5z" />
    <glyph glyph-name="baht" unicode="&#xe3f;" horiz-adv-x="598" 
d="M65 -131l-83 17l114 202v622h189q92 0 152 -35l52 90l83 -19l-75 -130q22 -36 22 -85q0 -112 -112 -152q139 -40 139 -171q0 -104 -71 -156t-202 -52h-133zM283 627h-91v-215h85q69 0 107 29.5t38 82.5q0 103 -139 103zM278 332h-86v-249h89q81 0 125 31t44 92
t-44.5 93.5t-127.5 32.5z" />
    <glyph glyph-name="Wgrave" unicode="&#x1e80;" horiz-adv-x="1119" 
d="M601 789h-64l-147 133l116 26zM1076 725l-227 -728h-84l-206 588l-205 -588h-83l-224 714l101 21l170 -574l193 567h100l194 -567l167 567h104z" />
    <glyph glyph-name="wgrave" unicode="&#x1e81;" horiz-adv-x="850" 
d="M468 613h-67l-156 142l121 27zM813 534l-179 -536h-84l-126 405l-125 -405h-82l-180 528l97 16l125 -406l125 398h83l126 -398l121 398h99z" />
    <glyph glyph-name="Wacute" unicode="&#x1e82;" horiz-adv-x="1119" 
d="M732 922l-147 -133h-64l95 159zM1076 725l-227 -728h-84l-206 588l-205 -588h-83l-224 714l101 21l170 -574l193 567h100l194 -567l167 567h104z" />
    <glyph glyph-name="wacute" unicode="&#x1e83;" horiz-adv-x="850" 
d="M608 755l-156 -142h-67l103 169zM813 534l-179 -536h-84l-126 405l-125 -405h-82l-180 528l97 16l125 -406l125 398h83l126 -398l121 398h99z" />
    <glyph glyph-name="Wdieresis" unicode="&#x1e84;" horiz-adv-x="1119" 
d="M517 793h-107v107h107v-107zM712 793h-107v107h107v-107zM1076 725l-227 -728h-84l-206 588l-205 -588h-83l-224 714l101 21l170 -574l193 567h100l194 -567l167 567h104z" />
    <glyph glyph-name="wdieresis" unicode="&#x1e85;" horiz-adv-x="850" 
d="M379 618h-112v112h112v-112zM586 618h-112v112h112v-112zM813 534l-179 -536h-84l-126 405l-125 -405h-82l-180 528l97 16l125 -406l125 398h83l126 -398l121 398h99z" />
    <glyph glyph-name="Ygrave" unicode="&#x1ef2;" horiz-adv-x="702" 
d="M391 779h-64l-147 133l116 26zM673 725l-274 -438v-287h-100v287l-267 424l103 21l215 -351l209 344h114z" />
    <glyph glyph-name="ygrave" unicode="&#x1ef3;" horiz-adv-x="570" 
d="M327 613h-67l-156 142l121 27zM538 534l-229 -591q-31 -84 -74.5 -115.5t-108.5 -31.5q-17 0 -42 5l-15 89q34 -8 53 -8q36 0 59.5 18.5t40.5 60.5l15 37l-204 528l100 16l153 -425l149 417h103z" />
    <glyph glyph-name="enspace" unicode="&#x2002;" horiz-adv-x="520" 
 />
    <glyph glyph-name="emspace" unicode="&#x2003;" horiz-adv-x="1040" 
 />
    <glyph glyph-name="threeperemspace" unicode="&#x2004;" horiz-adv-x="346" 
 />
    <glyph glyph-name="fourperemspace" unicode="&#x2005;" horiz-adv-x="260" 
 />
    <glyph glyph-name="figurespace" unicode="&#x2007;" horiz-adv-x="600" 
 />
    <glyph glyph-name="thinspace" unicode="&#x2009;" horiz-adv-x="138" 
 />
    <glyph glyph-name="hairspace" unicode="&#x200a;" horiz-adv-x="78" 
 />
    <glyph glyph-name="endash" unicode="&#x2013;" horiz-adv-x="537" 
d="M469 272h-401v92h401v-92z" />
    <glyph glyph-name="emdash" unicode="&#x2014;" horiz-adv-x="1067" 
d="M999 273h-931v90h931v-90z" />
    <glyph glyph-name="quoteleft" unicode="&#x2018;" horiz-adv-x="271" 
d="M206 768l-35 -247h-115l94 261z" />
    <glyph glyph-name="quoteright" unicode="&#x2019;" horiz-adv-x="271" 
d="M215 773l-95 -261l-55 14l35 247h115z" />
    <glyph glyph-name="quotesinglbase" unicode="&#x201a;" horiz-adv-x="271" 
d="M206 132l-94 -260l-55 13l35 247h114z" />
    <glyph glyph-name="quotedblleft" unicode="&#x201c;" horiz-adv-x="480" 
d="M415 768l-35 -247h-115l94 261zM206 768l-35 -247h-115l94 261z" />
    <glyph glyph-name="quotedblright" unicode="&#x201d;" horiz-adv-x="480" 
d="M424 773l-95 -261l-55 14l35 247h115zM215 773l-95 -261l-55 14l35 247h115z" />
    <glyph glyph-name="quotedblbase" unicode="&#x201e;" horiz-adv-x="479" 
d="M416 132l-94 -260l-55 13l35 247h114zM207 132l-94 -260l-55 13l35 247h114z" />
    <glyph glyph-name="dagger" unicode="&#x2020;" horiz-adv-x="589" 
d="M338 683l-25 -150h-38l-23 150v90h86v-90zM249 471l-154 -23h-37v84h37l154 -25v-36zM531 448h-37l-153 23v36l153 25h37v-84zM335 18l-24 -146h-33l-24 146v296l21 132h38l22 -132v-296z" />
    <glyph glyph-name="daggerdbl" unicode="&#x2021;" horiz-adv-x="611" 
d="M349 683l-25 -150h-37l-24 150v90h86v-90zM260 471l-153 -23h-39v84h39l153 -25v-36zM542 448h-38l-153 23v36l153 25h38v-84zM345 256l-21 -132h-37l-22 132v58l22 132h37l21 -132v-58zM260 61l-153 -23h-39v84h39l153 -24v-37zM542 38h-38l-153 23v37l153 24h38v-84z
M349 -204h-86v90l24 151h37l25 -151v-90z" />
    <glyph glyph-name="bullet" unicode="&#x2022;" horiz-adv-x="467" 
d="M377 362l-21 -130l-122 -19l-122 19l-21 130l21 131l122 18l122 -18z" />
    <glyph glyph-name="ellipsis" unicode="&#x2026;" horiz-adv-x="846" 
d="M201 0h-111v132h111v-132zM479 0h-112v132h112v-132zM757 0h-111v132h111v-132z" />
    <glyph glyph-name="guilsinglleft" unicode="&#x2039;" horiz-adv-x="382" 
d="M323 534l-169 -266l163 -256l-80 -18l-191 274l188 266h89z" />
    <glyph glyph-name="guilsinglright" unicode="&#x203a;" horiz-adv-x="382" 
d="M336 266l-188 -266h-90l170 266l-163 256l79 18z" />
    <glyph glyph-name="fraction" unicode="&#x2044;" horiz-adv-x="300" 
d="M-33 -8l-68 19l223 354l212 353l68 -19l-224 -355z" />
    <glyph glyph-name="zero.sup" unicode="&#x2070;" 
d="M363 664q0 -105 -42.5 -160t-121.5 -55q-78 0 -119.5 55t-41.5 160q0 106 42.5 161t121.5 55q78 0 119.5 -55t41.5 -161zM281 664q0 152 -80 152q-81 0 -81 -152q0 -150 81 -150q80 0 80 150z" />
    <glyph glyph-name="four.sup" unicode="&#x2074;" 
d="M377 544h-67v-89h-70v89h-217v56l181 272h106v-270h67v-58zM241 603v104l2 110h-8l-39 -69l-57 -86l-38 -56l2 -5l64 2h74z" />
    <glyph glyph-name="five.sup" unicode="&#x2075;" 
d="M358 593q0 -65 -49.5 -103.5t-127.5 -38.5q-71 0 -137 28l13 69q59 -28 122 -28q41 0 68.5 18t27.5 51q0 31 -22.5 46.5t-61.5 15.5q-34 0 -74 -17l-56 14l20 221h252l12 -71h-201l-9 -96q49 13 81 13q61 0 101.5 -31.5t40.5 -90.5z" />
    <glyph glyph-name="six.sup" unicode="&#x2076;" 
d="M298 811q-82 -18 -126.5 -48.5t-60.5 -81.5l1 -4q56 43 125 43q57 0 91.5 -35.5t34.5 -94.5q0 -63 -44.5 -102t-114.5 -39q-77 0 -122.5 45.5t-45.5 131.5q0 202 250 258zM113 621q0 -53 25.5 -81.5t66.5 -28.5q37 0 59 20t22 55q0 34 -19.5 53t-55.5 19q-48 0 -98 -33
v-4z" />
    <glyph glyph-name="seven.sup" unicode="&#x2077;" 
d="M358 803l-193 -356l-79 13l183 337h-224l-11 72h324v-66z" />
    <glyph glyph-name="eight.sup" unicode="&#x2078;" 
d="M35 564q0 72 83 112q-68 34 -68 94q0 48 42 79t108 31q64 0 106.5 -29.5t42.5 -74.5q0 -60 -71 -99q87 -39 87 -112q0 -49 -46 -82.5t-121 -33.5q-76 0 -119.5 33.5t-43.5 81.5zM126 770q0 -23 20 -38.5t78 -35.5q48 34 48 70q0 27 -19.5 43.5t-53.5 16.5t-53.5 -16
t-19.5 -40zM284 568q0 30 -24.5 48t-86.5 39q-60 -38 -60 -83q0 -31 24 -49.5t63 -18.5q36 0 60 18.5t24 45.5z" />
    <glyph glyph-name="nine.sup" unicode="&#x2079;" 
d="M102 519q159 31 188 126l-1 3q-57 -42 -126 -42q-57 0 -91 35.5t-34 95.5q0 65 44.5 104t115.5 39q76 0 122 -45.5t46 -131.5q0 -200 -251 -257zM288 710q0 52 -25.5 80t-66.5 28q-37 0 -58.5 -20t-21.5 -56q0 -75 74 -75q45 0 98 32v11z" />
    <glyph glyph-name="zero.inf" unicode="&#x2080;" 
d="M363 36q0 -105 -42.5 -160t-121.5 -55q-78 0 -119.5 55t-41.5 160q0 106 42.5 161t121.5 55q78 0 119.5 -55t41.5 -161zM281 36q0 152 -80 152q-81 0 -81 -152q0 -150 81 -150q80 0 80 150z" />
    <glyph glyph-name="one.inf" unicode="&#x2081;" 
d="M366 -168h-301v67h112v270l-109 -39l-10 64l138 55h59v-350h99z" />
    <glyph glyph-name="two.inf" unicode="&#x2082;" 
d="M365 -168h-324v67l166 139q35 29 47.5 46t12.5 39q0 26 -20 40.5t-52 14.5q-60 0 -133 -43l-11 72q70 43 150 43q71 0 112 -34t41 -85q0 -37 -20.5 -66t-67.5 -67l-122 -95h208z" />
    <glyph glyph-name="three.inf" unicode="&#x2083;" 
d="M358 -57q0 -55 -48.5 -87.5t-126.5 -32.5q-84 0 -145 34l11 67q68 -33 137 -33q40 0 64 16t24 44q0 32 -28 45.5t-93 13.5h-34l-11 67h48q110 0 110 56q0 50 -76 50q-71 0 -134 -37l-11 67q72 37 146 37q77 0 117.5 -28t40.5 -77q0 -72 -95 -101q52 -13 78 -37t26 -64z
" />
    <glyph glyph-name="four.inf" unicode="&#x2084;" 
d="M377 -85h-67v-89h-70v89h-217v56l181 272h106v-270h67v-58zM241 -26v104l2 110h-8l-39 -69l-57 -86l-38 -56l2 -5l64 2h74z" />
    <glyph glyph-name="five.inf" unicode="&#x2085;" 
d="M358 -35q0 -65 -49.5 -103.5t-127.5 -38.5q-71 0 -137 28l13 69q59 -28 122 -28q41 0 68.5 18t27.5 51q0 31 -22.5 46.5t-61.5 15.5q-34 0 -74 -17l-56 14l20 221h252l12 -71h-201l-9 -96q49 13 81 13q61 0 101.5 -31.5t40.5 -90.5z" />
    <glyph glyph-name="six.inf" unicode="&#x2086;" 
d="M298 182q-82 -18 -126.5 -48.5t-60.5 -81.5l1 -4q56 43 125 43q57 0 91.5 -35.5t34.5 -94.5q0 -63 -44.5 -102t-114.5 -39q-77 0 -122.5 45.5t-45.5 131.5q0 202 250 258zM113 -8q0 -53 25.5 -81.5t66.5 -28.5q37 0 59 20t22 55q0 34 -19.5 53t-55.5 19q-48 0 -98 -33v-4
z" />
    <glyph glyph-name="seven.inf" unicode="&#x2087;" 
d="M358 175l-193 -356l-79 13l183 337h-224l-11 72h324v-66z" />
    <glyph glyph-name="eight.inf" unicode="&#x2088;" 
d="M35 -64q0 72 83 112q-68 34 -68 94q0 48 42 79t108 31q64 0 106.5 -29.5t42.5 -74.5q0 -60 -71 -99q87 -39 87 -112q0 -49 -46 -82.5t-121 -33.5q-76 0 -119.5 33.5t-43.5 81.5zM126 142q0 -23 20 -38.5t78 -35.5q48 34 48 70q0 27 -19.5 43.5t-53.5 16.5t-53.5 -16
t-19.5 -40zM284 -60q0 30 -24.5 48t-86.5 39q-60 -38 -60 -83q0 -31 24 -49.5t63 -18.5q36 0 60 18.5t24 45.5z" />
    <glyph glyph-name="nine.inf" unicode="&#x2089;" 
d="M102 -109q159 31 188 126l-1 3q-57 -42 -126 -42q-57 0 -91 35.5t-34 95.5q0 65 44.5 104t115.5 39q76 0 122 -45.5t46 -131.5q0 -200 -251 -257zM288 82q0 52 -25.5 80t-66.5 28q-37 0 -58.5 -20t-21.5 -56q0 -75 74 -75q45 0 98 32v11z" />
    <glyph glyph-name="colonmonetary" unicode="&#x20a1;" horiz-adv-x="598" 
d="M263 -126l-71 17l22 132q-80 38 -125 122.5t-45 207.5q0 159 76.5 255t212.5 106l14 77l70 -14l-11 -66q40 -6 79 -22l18 102l70 -14l-116 -676q33 13 81 45l14 -91q-53 -34 -111 -49l-22 -132l-72 17l18 105q-7 -1 -20 -1q-28 0 -61 5zM143 349q0 -168 92 -235l89 514
q-88 -11 -134.5 -86t-46.5 -193zM352 80q24 0 35 2l90 514q-43 25 -90 31l-94 -540q25 -7 59 -7z" />
    <glyph glyph-name="naira" unicode="&#x20a6;" horiz-adv-x="812" 
d="M194 645l1 -186h111zM429 400l61 -101h127l-1 101h-187zM342 400h-146l1 -101h206zM619 85l-2 156h-92zM691 0h-108l-145 241h-241l3 -241h-78v230h-98l-12 69h110v101h-109v69h109v241h120l151 -251h222l-2 251h78v-241h95l11 -69h-106v-101h105v-69h-105v-230z" />
    <glyph glyph-name="rupee" unicode="&#x20a8;" horiz-adv-x="1187" 
d="M534 -7l-213 284h-130v-277h-98v710h229q120 0 188.5 -58.5t68.5 -157.5q0 -71 -42.5 -122t-114.5 -75l213 -282zM191 360h120q81 0 125.5 33.5t44.5 97.5t-42 98.5t-121 34.5h-127v-264zM1124 146q0 -74 -60.5 -115.5t-170.5 -41.5q-58 0 -120.5 15t-103.5 36l14 82
q103 -55 215 -55q137 0 137 70q0 33 -33 49t-121 27q-107 12 -155 45t-48 101t56.5 105t154.5 37q106 0 202 -39l-16 -83q-102 46 -189 46q-119 0 -119 -62q0 -27 28 -41t102 -24q57 -7 94.5 -16.5t69.5 -26t47.5 -43.5t15.5 -66z" />
    <glyph glyph-name="won" unicode="&#x20a9;" horiz-adv-x="1098" 
d="M550 642l-53 -173h105zM695 411l29 -101h126l27 101h-182zM221 411l28 -101h125l30 101h-183zM479 411l-31 -101h202l-31 101h-140zM264 252l45 -163l48 163h-93zM741 252l49 -165l44 165h-93zM1048 710l-71 -241h107l12 -69h-140l-26 -90h160v-69h-181l-71 -241h-95
l-76 252h-237l-77 -252h-95l-71 241h-173l-12 69h165l-27 90h-133v69h113l-67 229l85 19l67 -248h216l72 241h114l71 -241h215l65 241h90z" />
    <glyph glyph-name="sheqel" unicode="&#x20aa;" horiz-adv-x="598" 
d="M391 190h-62v191q0 24 -17 39t-49 15h-114v-435h-87v512h194q69 0 102 -29t33 -80v-213zM536 0h-157q-72 0 -105 26t-44 95l-36 210h65l33 -192q7 -36 22.5 -48.5t50.5 -12.5h84v437l87 -14v-501z" />
    <glyph glyph-name="Euro" unicode="&#x20ac;" horiz-adv-x="655" 
d="M33 407v74h107q28 111 101 176.5t182 65.5t185 -54l-16 -92q-81 62 -169 62q-70 0 -119 -41.5t-70 -116.5h252l12 -74h-277q-2 -17 -2 -52q0 -32 1 -47h273v-75h-259q21 -76 70 -118.5t121 -42.5q92 0 180 66l15 -89q-91 -63 -199 -63q-111 0 -184 66t-99 181h-98l-11 75
h99q-2 30 -2 46q0 17 2 53h-95z" />
    <glyph glyph-name="peso" unicode="&#x20b1;" horiz-adv-x="659" 
d="M629 449h-80q-13 -92 -85 -146t-181 -56l-81 -1l-1 -246h-94v449h-80l-12 68h92v193h192q105 0 172.5 -53.5t78.5 -139.5h79v-68zM200 628v-116h258q-9 51 -51 83.5t-108 32.5h-99zM293 331q68 0 112 33t53 89h-258v-122h93z" />
    <glyph glyph-name="hryvnia" unicode="&#x20b4;" horiz-adv-x="626" 
d="M600 437l-12 -66l-180 21l-92 -85l262 -31v-68l-324 39q-41 -40 -54.5 -63t-13.5 -47q0 -68 108 -68q88 0 201 70l14 -82q-117 -69 -221 -69q-96 0 -145.5 38t-49.5 107q0 58 59 126l-126 16l12 66l175 -21l91 84l-255 31v69l317 -39h1q45 45 60.5 66.5t14.5 45.5
q0 27 -25 45t-75 18q-83 0 -204 -64l-14 82q121 63 224 63q86 0 136 -36t50 -104q0 -61 -63 -128z" />
    <glyph glyph-name="numero" unicode="&#x2116;" horiz-adv-x="1173" 
d="M608 0h-90l-335 578v-578h-87v725h103l321 -557v557h88v-725zM703 360q0 95 54.5 156t139.5 61t140 -61t55 -156q0 -94 -55 -155t-140 -61q-87 0 -140.5 60.5t-53.5 155.5zM784 360q0 -62 31.5 -103t81.5 -41t82 41t32 103q0 63 -32 104t-82 41q-52 0 -82.5 -41
t-30.5 -104zM1080 0h-365v70h365v-70z" />
    <glyph glyph-name="published" unicode="&#x2117;" horiz-adv-x="881" 
d="M818 363q0 -167 -105.5 -272t-272.5 -105q-168 0 -272.5 103.5t-104.5 271.5t105 272.5t273 104.5t272.5 -103.5t104.5 -271.5zM771 362q0 159 -93 248.5t-237 89.5q-146 0 -238 -89.5t-92 -248.5q0 -158 92.5 -247.5t237.5 -89.5q146 0 238 89.5t92 247.5zM599 443
q0 -64 -43.5 -98.5t-117.5 -34.5h-44v-152h-71v413h122q71 0 112.5 -34t41.5 -94zM527 441q0 32 -22 49.5t-63 17.5h-48v-135h46q87 0 87 68z" />
    <glyph glyph-name="servicemark" unicode="&#x2120;" horiz-adv-x="940" 
d="M864 386h-67l-21 276l-117 -277h-53l-117 277l-23 -276h-64l31 387h79l122 -291l121 291h77zM194 381q-67 0 -115 28l8 64q61 -36 108 -36q29 0 48 13t19 36q0 24 -15 38.5t-53 30.5q-63 27 -87 51t-24 68q0 46 35.5 75t91.5 29q59 0 98 -23l-12 -63q-47 30 -88 30
q-29 0 -45.5 -12t-16.5 -30q0 -22 14.5 -35.5t53.5 -29.5q63 -27 86.5 -52.5t23.5 -72.5q0 -50 -36 -79.5t-94 -29.5z" />
    <glyph glyph-name="trademark" unicode="&#x2122;" horiz-adv-x="940" 
d="M368 713h-131v-327h-67v327h-126v60h314zM871 386h-67l-21 276l-117 -277h-53l-117 277l-22 -276h-65l31 387h80l121 -291l121 291h77z" />
    <glyph glyph-name="Omega" unicode="&#x2126;" horiz-adv-x="808" 
d="M87 90h144l-18 18q-145 124 -145 304q0 140 91 233t245 93t245 -92.5t91 -233.5q0 -176 -147 -304l-20 -18h148v-90h-255l-12 85l60 57q123 112 122 265q-1 106 -61.5 172.5t-170.5 66.5q-111 0 -172 -66.5t-61 -172.5q0 -155 123 -265l60 -57l-12 -85h-255v90z" />
    <glyph glyph-name="onethird" unicode="&#x2153;" horiz-adv-x="900" 
d="M277 -8l-68 19l223 354l212 353l68 -19l-224 -355zM358 327h-283v63h105v250l-102 -36l-9 62l130 51h56v-327h93zM843 104q0 -52 -45.5 -82t-119.5 -30q-80 0 -137 31l11 65q64 -31 129 -31q37 0 59 14.5t22 40.5q0 29 -26 41t-86 12h-33l-10 65h46q101 0 101 51
q0 46 -69 46q-68 0 -127 -35l-10 65q68 35 138 35q72 0 110 -26.5t38 -72.5q0 -68 -88 -95q97 -23 97 -94z" />
    <glyph glyph-name="twothirds" unicode="&#x2154;" horiz-adv-x="900" 
d="M277 -8l-68 19l223 354l212 353l68 -19l-224 -355zM358 327h-305v63l156 130q32 27 43.5 42.5t11.5 35.5q0 25 -18.5 38t-47.5 13q-56 0 -124 -41l-11 70q67 40 141 40q67 0 105.5 -31.5t38.5 -79.5q0 -35 -19 -62t-64 -63l-112 -87h192zM843 104q0 -52 -45.5 -82
t-119.5 -30q-80 0 -137 31l11 65q64 -31 129 -31q37 0 59 14.5t22 40.5q0 29 -26 41t-86 12h-33l-10 65h46q101 0 101 51q0 46 -69 46q-68 0 -127 -35l-10 65q68 35 138 35q72 0 110 -26.5t38 -72.5q0 -68 -88 -95q97 -23 97 -94z" />
    <glyph glyph-name="onefifth" unicode="&#x2155;" horiz-adv-x="900" 
d="M282 -8l-68 19l223 354l212 353l68 -19l-224 -355zM358 327h-283v63h105v250l-102 -36l-9 62l130 51h56v-327h93zM842 125q0 -61 -46.5 -97t-119.5 -36q-70 0 -129 26l12 66q55 -26 115 -26q38 0 63 16t25 47q0 57 -77 57q-33 0 -69 -16l-53 13l18 208h238l12 -68h-189
l-7 -88q42 13 74 13q57 0 95 -30t38 -85z" />
    <glyph glyph-name="twofifths" unicode="&#x2156;" horiz-adv-x="900" 
d="M282 -8l-68 19l223 354l212 353l68 -19l-224 -355zM358 327h-305v63l156 130q32 27 43.5 42.5t11.5 35.5q0 25 -18.5 38t-47.5 13q-56 0 -124 -41l-11 70q67 40 141 40q67 0 105.5 -31.5t38.5 -79.5q0 -35 -19 -62t-64 -63l-112 -87h192zM842 125q0 -61 -46.5 -97
t-119.5 -36q-70 0 -129 26l12 66q55 -26 115 -26q38 0 63 16t25 47q0 57 -77 57q-33 0 -69 -16l-53 13l18 208h238l12 -68h-189l-7 -88q42 13 74 13q57 0 95 -30t38 -85z" />
    <glyph glyph-name="threefifths" unicode="&#x2157;" horiz-adv-x="900" 
d="M266 -8l-68 19l223 354l212 353l68 -19l-224 -355zM352 431q0 -53 -45 -83t-120 -30q-78 0 -137 32l11 65q66 -32 129 -32q37 0 59 15t22 40q0 30 -25.5 42t-86.5 12h-33l-10 65h46q101 0 101 51q0 45 -69 45q-70 0 -127 -34l-10 65q66 34 138 34t110 -26.5t38 -72.5
q0 -67 -88 -94q97 -25 97 -94zM842 125q0 -61 -46.5 -97t-119.5 -36q-70 0 -129 26l12 66q55 -26 115 -26q38 0 63 16t25 47q0 57 -77 57q-33 0 -69 -16l-53 13l18 208h238l12 -68h-189l-7 -88q42 13 74 13q57 0 95 -30t38 -85z" />
    <glyph glyph-name="fourfifths" unicode="&#x2158;" horiz-adv-x="900" 
d="M277 -8l-68 19l223 354l212 353l68 -19l-224 -355zM370 404h-63v-83h-67v83h-203v54l168 255h102v-253h63v-56zM241 461v94l2 105h-7l-37 -64l-51 -79l-36 -54l2 -4l60 2h67zM842 125q0 -61 -46.5 -97t-119.5 -36q-70 0 -129 26l12 66q55 -26 115 -26q38 0 63 16t25 47
q0 57 -77 57q-33 0 -69 -16l-53 13l18 208h238l12 -68h-189l-7 -88q42 13 74 13q57 0 95 -30t38 -85z" />
    <glyph glyph-name="onesixth" unicode="&#x2159;" horiz-adv-x="900" 
d="M277 -8l-68 19l223 354l212 353l68 -19l-224 -355zM358 327h-283v63h105v250l-102 -36l-9 62l130 51h56v-327h93zM775 327q-77 -17 -118 -44.5t-56 -73.5l1 -4q52 39 116 39q53 0 85.5 -33t32.5 -89q0 -59 -42 -96t-108 -37q-72 0 -115 42.5t-43 123.5q0 189 235 242z
M603 150q0 -49 23 -75t61 -26q34 0 54 18t20 51q0 66 -68 66q-47 0 -90 -29v-5z" />
    <glyph glyph-name="fivesixths" unicode="&#x215a;" horiz-adv-x="900" 
d="M271 -8l-68 19l223 354l212 353l68 -19l-224 -355zM351 452q0 -61 -46.5 -97.5t-119.5 -36.5q-67 0 -129 26l12 66q59 -26 115 -26q38 0 63 16.5t25 47.5q0 57 -77 57q-28 0 -69 -16l-53 13l18 208h238l12 -68h-189l-7 -88q39 12 74 12q57 0 95 -29.5t38 -84.5zM775 327
q-77 -17 -118 -44.5t-56 -73.5l1 -4q52 39 116 39q53 0 85.5 -33t32.5 -89q0 -59 -42 -96t-108 -37q-72 0 -115 42.5t-43 123.5q0 189 235 242zM603 150q0 -49 23 -75t61 -26q34 0 54 18t20 51q0 66 -68 66q-47 0 -90 -29v-5z" />
    <glyph glyph-name="oneeighth" unicode="&#x215b;" horiz-adv-x="900" 
d="M277 -8l-68 19l223 354l212 353l68 -19l-224 -355zM358 327h-283v63h105v250l-102 -36l-9 62l130 51h56v-327h93zM539 98q0 66 77 104q-64 31 -64 88q0 45 39.5 74.5t102.5 29.5q60 0 100 -28t40 -70q0 -56 -65 -93q80 -37 80 -104q0 -46 -43 -78t-114 -32
q-72 0 -112.5 32t-40.5 77zM626 290q0 -22 18.5 -35.5t72.5 -32.5q43 31 43 64q0 25 -18 40.5t-50 15.5q-31 0 -48.5 -15t-17.5 -37zM771 101q0 28 -22.5 44.5t-79.5 36.5q-55 -35 -55 -77q0 -28 22 -45t58 -17q34 0 55.5 17t21.5 41z" />
    <glyph glyph-name="threeeighths" unicode="&#x215c;" horiz-adv-x="900" 
d="M266 -8l-68 19l223 354l212 353l68 -19l-224 -355zM352 431q0 -53 -45 -83t-120 -30q-78 0 -137 32l11 65q66 -32 129 -32q37 0 59 15t22 40q0 30 -25.5 42t-86.5 12h-33l-10 65h46q101 0 101 51q0 45 -69 45q-70 0 -127 -34l-10 65q66 34 138 34t110 -26.5t38 -72.5
q0 -67 -88 -94q97 -25 97 -94zM539 98q0 66 77 104q-64 31 -64 88q0 45 39.5 74.5t102.5 29.5q60 0 100 -28t40 -70q0 -56 -65 -93q80 -37 80 -104q0 -46 -43 -78t-114 -32q-72 0 -112.5 32t-40.5 77zM626 290q0 -22 18.5 -35.5t72.5 -32.5q43 31 43 64q0 25 -18 40.5
t-50 15.5q-31 0 -48.5 -15t-17.5 -37zM771 101q0 28 -22.5 44.5t-79.5 36.5q-55 -35 -55 -77q0 -28 22 -45t58 -17q34 0 55.5 17t21.5 41z" />
    <glyph glyph-name="fiveeighths" unicode="&#x215d;" horiz-adv-x="900" 
d="M266 -8l-68 19l223 354l212 353l68 -19l-224 -355zM351 452q0 -61 -46.5 -97.5t-119.5 -36.5q-67 0 -129 26l12 66q59 -26 115 -26q38 0 63 16.5t25 47.5q0 57 -77 57q-28 0 -69 -16l-53 13l18 208h238l12 -68h-189l-7 -88q39 12 74 12q57 0 95 -29.5t38 -84.5zM539 98
q0 66 77 104q-64 31 -64 88q0 45 39.5 74.5t102.5 29.5q60 0 100 -28t40 -70q0 -56 -65 -93q80 -37 80 -104q0 -46 -43 -78t-114 -32q-72 0 -112.5 32t-40.5 77zM626 290q0 -22 18.5 -35.5t72.5 -32.5q43 31 43 64q0 25 -18 40.5t-50 15.5q-31 0 -48.5 -15t-17.5 -37z
M771 101q0 28 -22.5 44.5t-79.5 36.5q-55 -35 -55 -77q0 -28 22 -45t58 -17q34 0 55.5 17t21.5 41z" />
    <glyph glyph-name="seveneighths" unicode="&#x215e;" horiz-adv-x="900" 
d="M244 -8l-68 19l223 354l212 353l68 -19l-224 -355zM363 646l-182 -332l-75 12l171 315h-208l-11 69h305v-64zM539 98q0 66 77 104q-64 31 -64 88q0 45 39.5 74.5t102.5 29.5q60 0 100 -28t40 -70q0 -56 -65 -93q80 -37 80 -104q0 -46 -43 -78t-114 -32q-72 0 -112.5 32
t-40.5 77zM626 290q0 -22 18.5 -35.5t72.5 -32.5q43 31 43 64q0 25 -18 40.5t-50 15.5q-31 0 -48.5 -15t-17.5 -37zM771 101q0 28 -22.5 44.5t-79.5 36.5q-55 -35 -55 -77q0 -28 22 -45t58 -17q34 0 55.5 17t21.5 41z" />
    <glyph glyph-name="Delta" unicode="&#x2206;" horiz-adv-x="765" 
 />
    <glyph glyph-name="minus" unicode="&#x2212;" horiz-adv-x="632" 
d="M569 313h-506v83h506v-83z" />
    <glyph glyph-name="f_f" unicode="&#xfb00;" horiz-adv-x="727" 
d="M704 710q-28 5 -52 5q-78 0 -78 -70v-111h112l12 -83h-124v-451h-96v451h-84v83h84v121q0 147 169 147q15 0 43 -2zM345 710q-27 5 -52 5q-78 0 -78 -70v-111h112l12 -83h-124v-451h-96v451h-84v83h84v121q0 147 169 147q15 0 43 -2z" />
    <glyph glyph-name="fi" unicode="&#xfb01;" horiz-adv-x="648" 
d="M567 705q0 -26 -18.5 -44t-44.5 -18t-45 18t-19 44t19 44.5t45 18.5t44.5 -18.5t18.5 -44.5zM345 710q-27 5 -52 5q-78 0 -78 -70v-111h112l12 -83h-124v-451h-96v451h-84v83h84v121q0 147 169 147q15 0 43 -2zM553 0h-99v534h99v-534z" />
    <glyph glyph-name="fl" unicode="&#xfb02;" horiz-adv-x="648" 
d="M553 0h-99v793l99 15v-808zM345 710q-27 5 -52 5q-78 0 -78 -70v-111h112l12 -83h-124v-451h-96v451h-84v83h84v121q0 147 169 147q15 0 43 -2z" />
    <glyph glyph-name="f_f_i" unicode="&#xfb03;" horiz-adv-x="1008" 
d="M927 705q0 -26 -18.5 -44t-44.5 -18t-45 18t-19 44t19 44.5t45 18.5t44.5 -18.5t18.5 -44.5zM704 710q-28 5 -52 5q-78 0 -78 -70v-111h112l12 -83h-124v-451h-96v451h-84v83h84v121q0 147 169 147q15 0 43 -2zM345 710q-27 5 -52 5q-78 0 -78 -70v-111h112l12 -83h-124
v-451h-96v451h-84v83h84v121q0 147 169 147q15 0 43 -2zM913 0h-99v534h99v-534z" />
    <glyph glyph-name="f_f_l" unicode="&#xfb04;" horiz-adv-x="1008" 
d="M913 0h-99v793l99 15v-808zM704 710q-28 5 -52 5q-78 0 -78 -70v-111h112l12 -83h-124v-451h-96v451h-84v83h84v121q0 147 169 147q15 0 43 -2zM345 710q-27 5 -52 5q-78 0 -78 -70v-111h112l12 -83h-124v-451h-96v451h-84v83h84v121q0 147 169 147q15 0 43 -2z" />
    <glyph glyph-name="M.alt" horiz-adv-x="970" 
d="M875 0h-93v570l-259 -573h-80l-259 573v-570h-88v725h123l267 -593l267 593h122v-725z" />
    <glyph glyph-name="Q.alt" horiz-adv-x="828" 
d="M772 83l-20 -98l-113 85q-92 -84 -230 -84q-157 0 -251 103t-94 272q0 170 94.5 273.5t252.5 103.5t252 -103t94 -272q0 -131 -61 -226zM655 362q0 130 -66 207t-179 77q-112 0 -177.5 -76.5t-65.5 -207.5q0 -130 65.5 -207t177.5 -77q93 0 153 49l-176 125l122 26
l109 -84q37 69 37 168z" />
    <glyph glyph-name="U.alt" horiz-adv-x="765" 
d="M589 0l-14 81q-119 -89 -239 -89q-118 0 -182.5 58.5t-64.5 179.5v495h100v-481q0 -162 153 -162q112 0 227 95v548h100v-725h-80z" />
    <glyph glyph-name="W.alt" horiz-adv-x="1120" 
d="M1082 725l-271 -728h-89l-163 411l-159 -411h-89l-272 714l102 22l216 -600l153 399l-71 179l102 22l227 -600l206 592h108z" />
    <glyph glyph-name="g.alt" horiz-adv-x="628" 
d="M442 174v264q-55 19 -115 19q-82 0 -127 -49.5t-45 -146.5q0 -82 37.5 -128.5t96.5 -46.5q79 0 153 88zM541 10q0 -100 -61 -157t-185 -57q-108 0 -207 42l15 92q92 -50 199 -50q140 0 140 123v69q-75 -73 -167 -73q-95 0 -157.5 66.5t-62.5 191.5q0 138 74.5 211
t197.5 73q99 0 214 -34v-497z" />
    <glyph glyph-name="a.sc" horiz-adv-x="633" 
d="M130 0h-101l234 574h110l231 -562l-99 -22l-60 154h-260zM316 479l-97 -248h193z" />
    <glyph glyph-name="b.sc" horiz-adv-x="566" 
d="M507 167q0 -83 -59 -125t-163 -42h-195v568h194q97 0 147 -39.5t50 -105.5q0 -87 -87 -123q113 -32 113 -133zM388 415q0 70 -108 70h-95v-148h92q111 0 111 78zM413 167q0 90 -125 90h-103v-175h102q126 0 126 85z" />
    <glyph glyph-name="c.sc" horiz-adv-x="568" 
d="M518 39q-78 -50 -179 -50q-130 0 -206 80.5t-76 212.5q0 133 77 215t205 82q99 0 170 -44l-16 -94q-70 52 -150 52q-85 0 -134.5 -55.5t-49.5 -154.5q0 -97 51 -153t135 -56q82 0 160 53z" />
    <glyph glyph-name="d.sc" horiz-adv-x="645" 
d="M589 284q0 -125 -86 -204.5t-238 -79.5h-175v568h176q153 0 238 -78.5t85 -205.5zM487 283q0 92 -58.5 144t-156.5 52h-83v-391h81q102 0 159.5 51t57.5 144z" />
    <glyph glyph-name="e.sc" horiz-adv-x="519" 
d="M462 0h-372v568h364v-89h-265v-140h212l15 -87h-227v-164h273v-88z" />
    <glyph glyph-name="f.sc" horiz-adv-x="487" 
d="M444 479h-255v-149h202l15 -87h-217v-243h-99v568h354v-89z" />
    <glyph glyph-name="g.sc" horiz-adv-x="623" 
d="M559 46q-93 -57 -210 -57q-138 0 -215 80t-77 213q0 134 78 215.5t212 81.5q106 0 182 -47l-14 -95q-81 56 -167 56q-91 0 -140 -56.5t-49 -153.5q0 -98 50 -154.5t144 -56.5q64 0 112 25v131h-130l-14 86h238v-268z" />
    <glyph glyph-name="h.sc" horiz-adv-x="657" 
d="M567 0h-99v250h-279v-250h-99v568h99v-227h279v227h99v-568z" />
    <glyph glyph-name="i.sc" horiz-adv-x="288" 
d="M194 0h-100v568h100v-568z" />
    <glyph glyph-name="j.sc" horiz-adv-x="370" 
d="M283 151q0 -79 -46.5 -118t-127.5 -39q-41 0 -65 6l-12 86q37 -7 63 -7q48 0 68.5 18t20.5 60v411h99v-417z" />
    <glyph glyph-name="k.sc" horiz-adv-x="570" 
d="M557 14l-105 -23l-263 285v-276h-99v568h99v-256l233 256h122l-255 -268z" />
    <glyph glyph-name="l.sc" horiz-adv-x="472" 
d="M428 0h-338v568h99v-479h225z" />
    <glyph glyph-name="m.sc" horiz-adv-x="868" 
d="M788 0h-99l-37 460l-173 -462h-99l-173 462l-36 -460h-91l47 568h140l168 -457l169 457h137z" />
    <glyph glyph-name="m.sc_alt" horiz-adv-x="813" 
d="M723 0h-92v434l-178 -436h-100l-176 436v-434h-87v568h135l184 -453l181 453h133v-568z" />
    <glyph glyph-name="n.sc" horiz-adv-x="658" 
d="M568 0h-87l-301 421v-421h-90v568h100l288 -404v404h90v-568z" />
    <glyph glyph-name="o.sc" horiz-adv-x="677" 
d="M620 284q0 -133 -81.5 -214t-199.5 -81q-119 0 -200.5 80.5t-81.5 213.5q0 134 82 215t200 81q119 0 200 -80t81 -215zM518 283q0 90 -49.5 150.5t-129.5 60.5q-84 0 -132.5 -59t-48.5 -151q0 -89 50 -150t131 -61q82 0 130.5 59.5t48.5 150.5z" />
    <glyph glyph-name="p.sc" horiz-adv-x="526" 
d="M491 390q0 -87 -61 -134t-164 -47h-77v-209h-99v568h187q99 0 156.5 -48t57.5 -130zM392 388q0 45 -32 70t-93 25h-78v-190h76q127 0 127 95z" />
    <glyph glyph-name="q.sc" horiz-adv-x="679" 
d="M620 288q0 -190 -177 -270l169 -54l-14 -85l-328 113q-213 75 -213 290q0 134 82 215.5t200 81.5q119 0 200 -79t81 -212zM518 282q0 90 -49.5 151t-129.5 61q-83 0 -132 -60t-49 -152q0 -90 50 -151.5t131 -61.5q82 0 130.5 60.5t48.5 152.5z" />
    <glyph glyph-name="q.sc_alt" horiz-adv-x="691" 
d="M632 77l-18 -88l-91 67q-76 -67 -184 -67q-119 0 -200.5 80.5t-81.5 213.5q0 134 82 215t200 81q119 0 200 -80t81 -215q0 -96 -44 -167zM339 494q-84 0 -132.5 -59t-48.5 -151q0 -89 50 -150t131 -61q63 0 109 38l-132 95l106 22l74 -53q22 49 22 108q0 90 -49.5 150.5
t-129.5 60.5z" />
    <glyph glyph-name="r.sc" horiz-adv-x="563" 
d="M533 16l-108 -22l-166 222h-71v-216h-98v568h180q104 0 162.5 -46t58.5 -130q0 -61 -33.5 -102t-92.5 -59zM392 391q0 91 -123 91h-81v-187h81q59 0 91 25.5t32 70.5z" />
    <glyph glyph-name="s.sc" horiz-adv-x="513" 
d="M461 159q0 -74 -59.5 -120.5t-155.5 -46.5q-100 0 -200 43l14 89q96 -50 191 -50q54 0 86 22t32 56q0 33 -25 52.5t-93 42.5q-102 37 -143.5 72t-41.5 99q0 69 55 113.5t141 44.5q93 0 170 -34l-15 -92q-81 43 -157 43q-47 0 -74 -18.5t-27 -47.5q0 -32 25.5 -50
t98.5 -44q101 -36 139.5 -72.5t38.5 -101.5z" />
    <glyph glyph-name="t.sc" horiz-adv-x="547" 
d="M523 479h-200v-479h-100v479h-191v89h478z" />
    <glyph glyph-name="u.sc" horiz-adv-x="651" 
d="M565 225q0 -113 -64.5 -174.5t-177.5 -61.5q-111 0 -174 60.5t-63 170.5v348h99v-343q0 -71 35 -111t104 -40t105 38.5t36 110.5v345h100v-343z" />
    <glyph glyph-name="u.sc_alt" horiz-adv-x="648" 
d="M558 0h-81l-12 66q-100 -73 -186 -73q-195 0 -195 188v387h99v-373q0 -116 112 -116q76 0 162 72v417h101v-568z" />
    <glyph glyph-name="v.sc" horiz-adv-x="615" 
d="M585 568l-233 -577h-92l-230 565l101 22l177 -462l172 452h105z" />
    <glyph glyph-name="w.sc" horiz-adv-x="898" 
d="M863 568l-178 -571h-93l-142 449l-146 -449h-93l-174 558l101 22l125 -441l137 432h106l135 -432l123 432h99z" />
    <glyph glyph-name="w.sc_alt" horiz-adv-x="898" 
d="M868 568l-214 -568h-93l-112 310l-114 -310h-94l-211 555l102 18l163 -452l111 309l-45 126l102 17l150 -453l152 448h103z" />
    <glyph glyph-name="x.sc" horiz-adv-x="576" 
d="M137 0h-109l203 293l-183 263l103 22l139 -214l135 204h110l-188 -271l200 -285l-102 -22l-158 236z" />
    <glyph glyph-name="y.sc" horiz-adv-x="576" 
d="M553 568l-218 -347v-221h-100v220l-213 336l102 22l163 -270l155 260h111z" />
    <glyph glyph-name="z.sc" horiz-adv-x="562" 
d="M512 0h-466v71l342 414h-305l-14 83h437v-71l-342 -415h336z" />
    <glyph glyph-name="uni0414.alt" horiz-adv-x="828" 
d="M23 94h71l266 634h107l266 -634h72v-252l-95 -15v173h-593v-167h-94v261zM412 603l-217 -513h433z" />
    <glyph glyph-name="uni041B.alt" horiz-adv-x="754" 
d="M37 0l294 730h95l291 -716l-102 -21l-238 603l-233 -596h-107z" />
    <glyph glyph-name="uni041B.bgr" horiz-adv-x="754" 
d="M37 0l294 730h95l291 -716l-102 -21l-238 603l-233 -596h-107z" />
    <glyph glyph-name="uni041C.alt" horiz-adv-x="970" 
d="M875 0h-93v570l-259 -573h-80l-259 573v-570h-88v725h123l267 -593l267 593h122v-725z" />
    <glyph glyph-name="uni0424.bgr" horiz-adv-x="934" 
d="M517 -104h-100v102q-163 10 -259 109t-96 254t96 254.5t259 110.5v102h100v-101q162 -10 258 -109t96 -255q0 -154 -96.5 -254t-257.5 -110v-103zM166 362q0 -121 67 -193.5t185 -81.5v550q-118 -10 -185 -82t-67 -193zM768 362q0 121 -67 193t-185 82v-550
q118 9 185 81.5t67 193.5z" />
    <glyph glyph-name="uni0432.bgr" horiz-adv-x="644" 
d="M74 251v298q0 114 68 183.5t180 69.5q104 0 168 -57.5t64 -149.5q0 -138 -149 -195q182 -54 182 -205q0 -90 -67.5 -148t-183.5 -58q-124 0 -193 71.5t-69 190.5zM172 552v-118h88q89 0 142.5 43.5t53.5 114.5q0 57 -36.5 92.5t-97.5 35.5q-68 0 -109 -46.5t-41 -121.5z
M256 353h-84v-100q0 -84 45 -133t123 -49q69 0 108 35.5t39 91.5q0 72 -59.5 113.5t-171.5 41.5z" />
    <glyph glyph-name="uni0433.bgr" horiz-adv-x="522" 
d="M51 140q0 72 44.5 107t155.5 67q64 20 88.5 39.5t24.5 47.5q0 61 -96 61q-85 0 -168 -46l-15 85q90 44 186 44q92 0 140 -38t48 -102q0 -67 -41 -103t-143 -66q-76 -23 -102.5 -41.5t-26.5 -50.5q0 -34 30.5 -53.5t84.5 -19.5q99 0 194 61l14 -85q-100 -58 -214 -58
q-99 0 -151.5 40t-52.5 111z" />
    <glyph glyph-name="uni0434.alt" horiz-adv-x="674" 
d="M560 -174v174h-446v-167h-93v250h67l192 453h114l192 -453h67v-242zM335 431l-146 -348h291z" />
    <glyph glyph-name="uni0434.bgr" horiz-adv-x="628" 
d="M442 174v264q-55 19 -115 19q-82 0 -127 -49.5t-45 -146.5q0 -82 37.5 -128.5t96.5 -46.5q79 0 153 88zM541 10q0 -100 -61 -157t-185 -57q-108 0 -207 42l15 92q92 -50 199 -50q140 0 140 123v69q-75 -73 -167 -73q-95 0 -157.5 66.5t-62.5 191.5q0 138 74.5 211
t197.5 73q99 0 214 -34v-497z" />
    <glyph glyph-name="uni0436.bgr" horiz-adv-x="848" 
d="M140 0h-118l251 279l-230 246l106 17l228 -254l-2 505l98 15l-2 -521l219 247h118l-233 -254l251 -271l-106 -17l-249 279l2 -271h-98l2 272z" />
    <glyph glyph-name="uni0438.bgr" horiz-adv-x="621" 
d="M534 0h-78l-13 77q-101 -88 -197 -88q-79 0 -120.5 41.5t-41.5 115.5v388h99v-364q0 -93 88 -93q77 0 164 87v370h99v-534z" />
    <glyph glyph-name="uni0439.bgr" horiz-adv-x="621" 
d="M472 744q-26 -130 -165 -130q-136 0 -161 130l67 14q19 -65 97 -65q74 0 94 65zM534 0h-78l-13 77q-101 -88 -197 -88q-79 0 -120.5 41.5t-41.5 115.5v388h99v-364q0 -93 88 -93q77 0 164 87v370h99v-534z" />
    <glyph glyph-name="uni043A.bgr" horiz-adv-x="565" 
d="M545 9l-107 -17l-252 288v-280h-99v793l99 15v-498l220 224h119l-238 -236z" />
    <glyph glyph-name="uni043B.alt" horiz-adv-x="604" 
d="M32 0l221 539h98l219 -531l-101 -16l-169 424l-163 -416h-105z" />
    <glyph glyph-name="uni043B.bgr" horiz-adv-x="604" 
d="M32 0l221 539h98l219 -531l-101 -16l-169 424l-163 -416h-105z" />
    <glyph glyph-name="uni043F.bgr" horiz-adv-x="621" 
d="M537 0h-99v364q0 93 -88 93q-77 0 -164 -87v-370h-99v534h78l13 -77q103 88 197 88q78 0 120 -41.5t42 -115.5v-388z" />
    <glyph glyph-name="uni0442.bgr" horiz-adv-x="958" 
d="M874 0h-99v364q0 93 -85 93q-73 0 -160 -87v-370h-99v364q0 93 -85 93q-73 0 -160 -87v-370h-99v534h78l13 -77q103 88 194 88q115 0 147 -88q99 88 197 88q79 0 118.5 -41t39.5 -116v-388z" />
    <glyph glyph-name="uni0446.bgr" horiz-adv-x="643" 
d="M516 -174v174h-60l-13 77q-101 -88 -197 -88q-79 0 -120.5 41.5t-41.5 115.5v388h99v-364q0 -93 88 -93q77 0 164 87v370h99v-451h75v-242z" />
    <glyph glyph-name="uni0448.bgr" horiz-adv-x="958" 
d="M84 534h99v-364q0 -93 85 -93q72 0 161 87v370h98v-364q0 -93 85 -93q74 0 161 87v370h98v-534h-78l-13 77q-103 -88 -194 -88q-113 0 -147 88q-99 -88 -197 -88q-79 0 -118.5 41t-39.5 116v388z" />
    <glyph glyph-name="uni0449.bgr" horiz-adv-x="980" 
d="M84 534h99v-364q0 -93 85 -93q72 0 161 87v370h98v-364q0 -93 85 -93q74 0 161 87v370h98v-451h75v-242l-93 -15v174h-60l-13 77q-103 -88 -194 -88q-113 0 -147 88q-99 -88 -197 -88q-79 0 -118.5 41t-39.5 116v388z" />
    <glyph glyph-name="uni044E.bgr" horiz-adv-x="839" 
d="M784 266q0 -129 -68 -203t-178 -74q-101 0 -166.5 63.5t-75.5 176.5h-110v-229h-99v793l99 15v-496h112q10 110 75 171.5t165 61.5q110 0 178 -74.5t68 -204.5zM684 266q0 87 -38 141.5t-108 54.5t-106.5 -53.5t-36.5 -142.5q0 -86 37 -140.5t106 -54.5q72 0 109 53.5
t37 141.5z" />
    <glyph glyph-name="aacute.sc" horiz-adv-x="633" 
d="M497 789l-156 -142h-67l103 169zM130 0h-101l234 574h110l231 -562l-99 -22l-60 154h-260zM316 479l-97 -248h193z" />
    <glyph glyph-name="abreve.sc" horiz-adv-x="633" 
d="M479 778q-26 -130 -165 -130q-136 0 -161 130l67 14q19 -65 97 -65q74 0 94 65zM130 0h-101l234 574h110l231 -562l-99 -22l-60 154h-260zM316 479l-97 -248h193z" />
    <glyph glyph-name="acircumflex.sc" horiz-adv-x="633" 
d="M478 646h-62l-101 80l-100 -80h-62l116 158h93zM130 0h-101l234 574h110l231 -562l-99 -22l-60 154h-260zM316 479l-97 -248h193z" />
    <glyph glyph-name="adieresis.sc" horiz-adv-x="633" 
d="M268 652h-112v112h112v-112zM475 652h-112v112h112v-112zM130 0h-101l234 574h110l231 -562l-99 -22l-60 154h-260zM316 479l-97 -248h193z" />
    <glyph glyph-name="agrave.sc" horiz-adv-x="633" 
d="M357 647h-67l-156 142l121 27zM130 0h-101l234 574h110l231 -562l-99 -22l-60 154h-260zM316 479l-97 -248h193z" />
    <glyph glyph-name="amacron.sc" horiz-adv-x="633" 
d="M470 673h-309v80h309v-80zM130 0h-101l234 574h110l231 -562l-99 -22l-60 154h-260zM316 479l-97 -248h193z" />
    <glyph glyph-name="aogonek.sc" horiz-adv-x="633" 
d="M130 0h-101l234 574h110l231 -562l-28 -7l-24 -31q-37 -49 -37 -76q0 -35 44 -35q19 0 49 5v-59q-43 -16 -81 -16q-43 0 -67.5 20.5t-24.5 60.5q0 52 66 126l-56 144h-260zM316 479l-97 -248h193z" />
    <glyph glyph-name="aring.sc" horiz-adv-x="633" 
d="M438 619q0 -59 -46 -92l212 -515l-99 -22l-60 154h-260l-55 -144h-101l214 528q-45 32 -45 91q0 50 34 83.5t86 33.5t86 -33.5t34 -83.5zM384 619q0 29 -19 48.5t-47 19.5q-29 0 -48 -19.5t-19 -48.5t19 -47.5t48 -18.5q28 0 47 18.5t19 47.5zM316 479l-97 -248h193z" />
    <glyph glyph-name="aringacute.sc" horiz-adv-x="633" 
d="M498 912l-156 -142h-67l103 169zM438 619q0 -59 -46 -92l212 -515l-99 -22l-60 154h-260l-55 -144h-101l214 528q-45 32 -45 91q0 50 34 83.5t86 33.5t86 -33.5t34 -83.5zM384 619q0 29 -19 48.5t-47 19.5q-29 0 -48 -19.5t-19 -48.5t19 -47.5t48 -18.5q28 0 47 18.5
t19 47.5zM316 479l-97 -248h193z" />
    <glyph glyph-name="atilde.sc" horiz-adv-x="633" 
d="M498 777q-15 -127 -94 -127q-31 0 -83 26q-54 28 -76 28q-13 0 -22 -12.5t-16 -44.5l-64 13q15 127 94 127q31 0 83 -26q56 -28 76 -28q26 0 38 58zM130 0h-101l234 574h110l231 -562l-99 -22l-60 154h-260zM316 479l-97 -248h193z" />
    <glyph glyph-name="cacute.sc" horiz-adv-x="568" 
d="M502 789l-156 -142h-67l103 169zM518 39q-78 -50 -179 -50q-130 0 -206 80.5t-76 212.5q0 133 77 215t205 82q99 0 170 -44l-16 -94q-70 52 -150 52q-85 0 -134.5 -55.5t-49.5 -154.5q0 -97 51 -153t135 -56q82 0 160 53z" />
    <glyph glyph-name="ccaron.sc" horiz-adv-x="568" 
d="M158 805h62l101 -80l100 80h63l-117 -158h-93zM518 39q-78 -50 -179 -50q-130 0 -206 80.5t-76 212.5q0 133 77 215t205 82q99 0 170 -44l-16 -94q-70 52 -150 52q-85 0 -134.5 -55.5t-49.5 -154.5q0 -97 51 -153t135 -56q82 0 160 53z" />
    <glyph glyph-name="ccedilla.sc" horiz-adv-x="568" 
d="M518 39q-78 -50 -179 -50q-130 0 -206 80.5t-76 212.5q0 133 77 215t205 82q99 0 170 -44l-16 -94q-70 52 -150 52q-85 0 -134.5 -55.5t-49.5 -154.5q0 -97 51 -153t135 -56q82 0 160 53zM388 -99l-143 -122h-67l91 149z" />
    <glyph glyph-name="cdotaccent.sc" horiz-adv-x="568" 
d="M377 651h-113v113h113v-113zM518 39q-78 -50 -179 -50q-130 0 -206 80.5t-76 212.5q0 133 77 215t205 82q99 0 170 -44l-16 -94q-70 52 -150 52q-85 0 -134.5 -55.5t-49.5 -154.5q0 -97 51 -153t135 -56q82 0 160 53z" />
    <glyph glyph-name="dcaron.sc" horiz-adv-x="645" 
d="M156 805h62l101 -80l100 80h63l-117 -158h-93zM589 284q0 -125 -86 -204.5t-238 -79.5h-175v568h176q153 0 238 -78.5t85 -205.5zM487 283q0 92 -58.5 144t-156.5 52h-83v-391h81q102 0 159.5 51t57.5 144z" />
    <glyph glyph-name="dcroat.sc" horiz-adv-x="660" 
d="M32 248l-16 86h88v234h176q153 0 238 -78.5t85 -205.5q0 -125 -86 -204.5t-237 -79.5h-176v248h-72zM501 283q0 92 -58 144t-157 52h-82v-145h140v-86h-140v-160h80q102 0 159.5 51t57.5 144z" />
    <glyph glyph-name="eacute.sc" horiz-adv-x="519" 
d="M455 789l-156 -142h-67l103 169zM462 0h-372v568h364v-89h-265v-140h212l15 -87h-227v-164h273v-88z" />
    <glyph glyph-name="ebreve.sc" horiz-adv-x="519" 
d="M437 778q-26 -130 -165 -130q-136 0 -161 130l67 14q19 -65 97 -65q74 0 94 65zM462 0h-372v568h364v-89h-265v-140h212l15 -87h-227v-164h273v-88z" />
    <glyph glyph-name="ecaron.sc" horiz-adv-x="519" 
d="M111 805h62l101 -80l100 80h63l-117 -158h-93zM462 0h-372v568h364v-89h-265v-140h212l15 -87h-227v-164h273v-88z" />
    <glyph glyph-name="ecircumflex.sc" horiz-adv-x="519" 
d="M436 647h-62l-101 80l-100 -80h-62l116 158h93zM462 0h-372v568h364v-89h-265v-140h212l15 -87h-227v-164h273v-88z" />
    <glyph glyph-name="edieresis.sc" horiz-adv-x="519" 
d="M226 652h-112v112h112v-112zM433 652h-112v112h112v-112zM462 0h-372v568h364v-89h-265v-140h212l15 -87h-227v-164h273v-88z" />
    <glyph glyph-name="edotaccent.sc" horiz-adv-x="519" 
d="M330 651h-113v113h113v-113zM462 0h-372v568h364v-89h-265v-140h212l15 -87h-227v-164h273v-88z" />
    <glyph glyph-name="egrave.sc" horiz-adv-x="519" 
d="M315 647h-67l-156 142l121 27zM462 0h-372v568h364v-89h-265v-140h212l15 -87h-227v-164h273v-88z" />
    <glyph glyph-name="emacron.sc" horiz-adv-x="519" 
d="M428 673h-309v80h309v-80zM462 0h-372v568h364v-89h-265v-140h212l15 -87h-227v-164h273v-88z" />
    <glyph glyph-name="eogonek.sc" horiz-adv-x="519" 
d="M462 0h-34l-19 -26q-37 -49 -37 -76q0 -35 44 -35q19 0 49 5v-59q-43 -16 -81 -16q-43 0 -67.5 20.5t-24.5 60.5q0 52 65 126h-267v568h364v-89h-265v-140h212l15 -87h-227v-164h273v-88z" />
    <glyph glyph-name="gbreve.alt" horiz-adv-x="628" 
d="M484 744q-26 -130 -165 -130q-136 0 -161 130l67 14q19 -65 97 -65q74 0 94 65zM442 174v264q-55 19 -115 19q-82 0 -127 -49.5t-45 -146.5q0 -82 37.5 -128.5t96.5 -46.5q79 0 153 88zM541 10q0 -100 -61 -157t-185 -57q-108 0 -207 42l15 92q92 -50 199 -50
q140 0 140 123v69q-75 -73 -167 -73q-95 0 -157.5 66.5t-62.5 191.5q0 138 74.5 211t197.5 73q99 0 214 -34v-497z" />
    <glyph glyph-name="gbreve.sc" horiz-adv-x="623" 
d="M500 778q-26 -130 -165 -130q-136 0 -161 130l67 14q19 -65 97 -65q74 0 94 65zM559 46q-93 -57 -210 -57q-138 0 -215 80t-77 213q0 134 78 215.5t212 81.5q106 0 182 -47l-14 -95q-81 56 -167 56q-91 0 -140 -56.5t-49 -153.5q0 -98 50 -154.5t144 -56.5q64 0 112 25
v131h-130l-14 86h238v-268z" />
    <glyph glyph-name="gcommaaccent.alt" horiz-adv-x="628" 
d="M377 637l-86 -29q-49 49 -49 100q0 60 83 139l61 -15q-55 -69 -55 -112q0 -40 46 -83zM442 174v264q-55 19 -115 19q-82 0 -127 -49.5t-45 -146.5q0 -82 37.5 -128.5t96.5 -46.5q79 0 153 88zM541 10q0 -100 -61 -157t-185 -57q-108 0 -207 42l15 92q92 -50 199 -50
q140 0 140 123v69q-75 -73 -167 -73q-95 0 -157.5 66.5t-62.5 191.5q0 138 74.5 211t197.5 73q99 0 214 -34v-497z" />
    <glyph glyph-name="gcommaaccent.sc" horiz-adv-x="623" 
d="M559 46q-93 -57 -210 -57q-138 0 -215 80t-77 213q0 134 78 215.5t212 81.5q106 0 182 -47l-14 -95q-81 56 -167 56q-91 0 -140 -56.5t-49 -153.5q0 -98 50 -154.5t144 -56.5q64 0 112 25v131h-130l-14 86h238v-268zM267 -101l86 29q48 -48 48 -99q0 -60 -83 -140l-61 16
q56 69 56 112q0 39 -46 82z" />
    <glyph glyph-name="gdotaccent.alt" horiz-adv-x="628" 
d="M377 617h-113v113h113v-113zM442 174v264q-55 19 -115 19q-82 0 -127 -49.5t-45 -146.5q0 -82 37.5 -128.5t96.5 -46.5q79 0 153 88zM541 10q0 -100 -61 -157t-185 -57q-108 0 -207 42l15 92q92 -50 199 -50q140 0 140 123v69q-75 -73 -167 -73q-95 0 -157.5 66.5
t-62.5 191.5q0 138 74.5 211t197.5 73q99 0 214 -34v-497z" />
    <glyph glyph-name="gdotaccent.sc" horiz-adv-x="623" 
d="M393 651h-113v113h113v-113zM559 46q-93 -57 -210 -57q-138 0 -215 80t-77 213q0 134 78 215.5t212 81.5q106 0 182 -47l-14 -95q-81 56 -167 56q-91 0 -140 -56.5t-49 -153.5q0 -98 50 -154.5t144 -56.5q64 0 112 25v131h-130l-14 86h238v-268z" />
    <glyph glyph-name="hbar.sc" horiz-adv-x="686" 
d="M204 328h278v90h-278v-90zM582 0h-100v240h-278v-240h-100v416h-73l-15 82h88v70h100v-70h278v70h100v-70h81v-82h-81v-416z" />
    <glyph glyph-name="iacute.sc" horiz-adv-x="288" 
d="M326 789l-156 -142h-67l103 169zM194 0h-100v568h100v-568z" />
    <glyph glyph-name="ibreve.sc" horiz-adv-x="288" 
d="M308 778q-26 -130 -165 -130q-136 0 -161 130l67 14q19 -65 97 -65q74 0 94 65zM194 0h-100v568h100v-568z" />
    <glyph glyph-name="icircumflex.sc" horiz-adv-x="288" 
d="M306 647h-62l-101 80l-100 -80h-62l116 158h93zM194 0h-100v568h100v-568z" />
    <glyph glyph-name="idieresis.sc" horiz-adv-x="288" 
d="M96 652h-112v112h112v-112zM303 652h-112v112h112v-112zM194 0h-100v568h100v-568z" />
    <glyph glyph-name="idotaccent.sc" horiz-adv-x="288" 
d="M201 651h-113v113h113v-113zM194 0h-100v568h100v-568z" />
    <glyph glyph-name="dotlessi.sc" horiz-adv-x="288" 
d="M194 0h-100v568h100v-568z" />
    <glyph glyph-name="igrave.sc" horiz-adv-x="288" 
d="M185 647h-67l-156 142l121 27zM194 0h-100v568h100v-568z" />
    <glyph glyph-name="imacron.sc" horiz-adv-x="288" 
d="M299 673h-309v80h309v-80zM194 0h-100v568h100v-568z" />
    <glyph glyph-name="iogonek.sc" horiz-adv-x="288" 
d="M194 0h-13l-19 -26q-37 -49 -37 -76q0 -35 44 -35q19 0 49 5v-59q-43 -16 -81 -16q-43 0 -67.5 20.5t-24.5 60.5q0 52 65 126h-16v568h100v-568z" />
    <glyph glyph-name="kcommaaccent.sc" horiz-adv-x="570" 
d="M557 14l-105 -23l-263 285v-276h-99v568h99v-256l233 256h122l-255 -268zM223 -101l86 29q48 -48 48 -99q0 -60 -83 -140l-61 16q56 69 56 112q0 39 -46 82z" />
    <glyph glyph-name="lacute.sc" horiz-adv-x="472" 
d="M338 789l-156 -142h-67l103 169zM428 0h-338v568h99v-479h225z" />
    <glyph glyph-name="lcaron.sc" horiz-adv-x="472" 
d="M351 575q23 -43 23 -80q0 -72 -77 -137l-50 11q40 57 40 104q0 34 -28 88zM428 0h-338v568h99v-479h225z" />
    <glyph glyph-name="lcommaaccent.sc" horiz-adv-x="472" 
d="M428 0h-338v568h99v-479h225zM186 -101l86 29q48 -48 48 -99q0 -60 -83 -140l-61 16q56 69 56 112q0 39 -46 82z" />
    <glyph glyph-name="ldot.sc" horiz-adv-x="472" 
d="M428 0h-338v568h99v-479h225zM420 256h-100v106h100v-106z" />
    <glyph glyph-name="lslash.sc" horiz-adv-x="487" 
d="M332 326l-128 -68v-169h224l15 -89h-339v204l-72 -40l-16 89l88 46v269h100v-216l128 70v-96z" />
    <glyph glyph-name="nacute.sc" horiz-adv-x="658" 
d="M511 788l-156 -142h-67l103 169zM568 0h-87l-301 421v-421h-90v568h100l288 -404v404h90v-568z" />
    <glyph glyph-name="ncaron.sc" horiz-adv-x="658" 
d="M167 804h62l101 -80l100 80h63l-117 -158h-93zM568 0h-87l-301 421v-421h-90v568h100l288 -404v404h90v-568z" />
    <glyph glyph-name="ncommaaccent.sc" horiz-adv-x="658" 
d="M568 0h-87l-301 421v-421h-90v568h100l288 -404v404h90v-568zM260 -101l86 29q48 -48 48 -99q0 -60 -83 -140l-61 16q56 69 56 112q0 39 -46 82z" />
    <glyph glyph-name="ntilde.sc" horiz-adv-x="658" 
d="M512 776q-15 -127 -94 -127q-31 0 -83 26q-54 28 -76 28q-13 0 -22 -12.5t-16 -44.5l-64 13q15 127 94 127q31 0 83 -26q56 -28 76 -28q26 0 38 58zM568 0h-87l-301 421v-421h-90v568h100l288 -404v404h90v-568z" />
    <glyph glyph-name="oacute.sc" horiz-adv-x="677" 
d="M520 789l-156 -142h-67l103 169zM620 284q0 -133 -81.5 -214t-199.5 -81q-119 0 -200.5 80.5t-81.5 213.5q0 134 82 215t200 81q119 0 200 -80t81 -215zM518 283q0 90 -49.5 150.5t-129.5 60.5q-84 0 -132.5 -59t-48.5 -151q0 -89 50 -150t131 -61q82 0 130.5 59.5
t48.5 150.5z" />
    <glyph glyph-name="obreve.sc" horiz-adv-x="677" 
d="M502 778q-26 -130 -165 -130q-136 0 -161 130l67 14q19 -65 97 -65q74 0 94 65zM620 284q0 -133 -81.5 -214t-199.5 -81q-119 0 -200.5 80.5t-81.5 213.5q0 134 82 215t200 81q119 0 200 -80t81 -215zM518 283q0 90 -49.5 150.5t-129.5 60.5q-84 0 -132.5 -59t-48.5 -151
q0 -89 50 -150t131 -61q82 0 130.5 59.5t48.5 150.5z" />
    <glyph glyph-name="ocircumflex.sc" horiz-adv-x="677" 
d="M501 647h-62l-101 80l-100 -80h-62l116 158h93zM620 284q0 -133 -81.5 -214t-199.5 -81q-119 0 -200.5 80.5t-81.5 213.5q0 134 82 215t200 81q119 0 200 -80t81 -215zM518 283q0 90 -49.5 150.5t-129.5 60.5q-84 0 -132.5 -59t-48.5 -151q0 -89 50 -150t131 -61
q82 0 130.5 59.5t48.5 150.5z" />
    <glyph glyph-name="odieresis.sc" horiz-adv-x="677" 
d="M291 652h-112v112h112v-112zM498 652h-112v112h112v-112zM620 284q0 -133 -81.5 -214t-199.5 -81q-119 0 -200.5 80.5t-81.5 213.5q0 134 82 215t200 81q119 0 200 -80t81 -215zM518 283q0 90 -49.5 150.5t-129.5 60.5q-84 0 -132.5 -59t-48.5 -151q0 -89 50 -150
t131 -61q82 0 130.5 59.5t48.5 150.5z" />
    <glyph glyph-name="ograve.sc" horiz-adv-x="677" 
d="M379 647h-67l-156 142l121 27zM620 284q0 -133 -81.5 -214t-199.5 -81q-119 0 -200.5 80.5t-81.5 213.5q0 134 82 215t200 81q119 0 200 -80t81 -215zM518 283q0 90 -49.5 150.5t-129.5 60.5q-84 0 -132.5 -59t-48.5 -151q0 -89 50 -150t131 -61q82 0 130.5 59.5
t48.5 150.5z" />
    <glyph glyph-name="ohungarumlaut.sc" horiz-adv-x="677" 
d="M412 792l-151 -141h-59l100 165zM596 792l-152 -141h-59l101 165zM620 284q0 -133 -81.5 -214t-199.5 -81q-119 0 -200.5 80.5t-81.5 213.5q0 134 82 215t200 81q119 0 200 -80t81 -215zM518 283q0 90 -49.5 150.5t-129.5 60.5q-84 0 -132.5 -59t-48.5 -151
q0 -89 50 -150t131 -61q82 0 130.5 59.5t48.5 150.5z" />
    <glyph glyph-name="omacron.sc" horiz-adv-x="677" 
d="M493 673h-309v80h309v-80zM620 284q0 -133 -81.5 -214t-199.5 -81q-119 0 -200.5 80.5t-81.5 213.5q0 134 82 215t200 81q119 0 200 -80t81 -215zM518 283q0 90 -49.5 150.5t-129.5 60.5q-84 0 -132.5 -59t-48.5 -151q0 -89 50 -150t131 -61q82 0 130.5 59.5t48.5 150.5z
" />
    <glyph glyph-name="oslash.sc" horiz-adv-x="677" 
d="M158 284q0 -75 26 -123l261 301q-45 32 -106 32q-84 0 -132.5 -59t-48.5 -151zM518 283q0 72 -27 123l-260 -300q44 -33 108 -33q82 0 130.5 59.5t48.5 150.5zM633 567l-77 -88q64 -78 64 -195q0 -133 -81.5 -214t-199.5 -81q-94 0 -164 50l-50 -57l-82 18l77 89
q-63 79 -63 194q0 134 82 215t200 81q93 0 163 -50l50 56z" />
    <glyph glyph-name="oslashacute.sc" horiz-adv-x="677" 
d="M519 789l-156 -142h-67l103 169zM158 284q0 -75 26 -123l261 301q-45 32 -106 32q-84 0 -132.5 -59t-48.5 -151zM518 283q0 72 -27 123l-260 -300q44 -33 108 -33q82 0 130.5 59.5t48.5 150.5zM633 567l-77 -88q64 -78 64 -195q0 -133 -81.5 -214t-199.5 -81
q-94 0 -164 50l-50 -57l-82 18l77 89q-63 79 -63 194q0 134 82 215t200 81q93 0 163 -50l50 56z" />
    <glyph glyph-name="otilde.sc" horiz-adv-x="677" 
d="M520 777q-15 -127 -94 -127q-31 0 -83 26q-54 28 -76 28q-13 0 -22 -12.5t-16 -44.5l-64 13q15 127 94 127q31 0 83 -26q56 -28 76 -28q26 0 38 58zM620 284q0 -133 -81.5 -214t-199.5 -81q-119 0 -200.5 80.5t-81.5 213.5q0 134 82 215t200 81q119 0 200 -80t81 -215z
M518 283q0 90 -49.5 150.5t-129.5 60.5q-84 0 -132.5 -59t-48.5 -151q0 -89 50 -150t131 -61q82 0 130.5 59.5t48.5 150.5z" />
    <glyph glyph-name="racute.sc" horiz-adv-x="563" 
d="M455 789l-156 -142h-67l103 169zM533 16l-108 -22l-166 222h-71v-216h-98v568h180q104 0 162.5 -46t58.5 -130q0 -61 -33.5 -102t-92.5 -59zM392 391q0 91 -123 91h-81v-187h81q59 0 91 25.5t32 70.5z" />
    <glyph glyph-name="rcaron.sc" horiz-adv-x="563" 
d="M111 805h62l101 -80l100 80h63l-117 -158h-93zM533 16l-108 -22l-166 222h-71v-216h-98v568h180q104 0 162.5 -46t58.5 -130q0 -61 -33.5 -102t-92.5 -59zM392 391q0 91 -123 91h-81v-187h81q59 0 91 25.5t32 70.5z" />
    <glyph glyph-name="rcommaaccent.sc" horiz-adv-x="563" 
d="M533 16l-108 -22l-166 222h-71v-216h-98v568h180q104 0 162.5 -46t58.5 -130q0 -61 -33.5 -102t-92.5 -59zM392 391q0 91 -123 91h-81v-187h81q59 0 91 25.5t32 70.5zM217 -101l86 29q48 -48 48 -99q0 -60 -83 -140l-61 16q56 69 56 112q0 39 -46 82z" />
    <glyph glyph-name="sacute.sc" horiz-adv-x="513" 
d="M443 789l-156 -142h-67l103 169zM461 159q0 -74 -59.5 -120.5t-155.5 -46.5q-100 0 -200 43l14 89q96 -50 191 -50q54 0 86 22t32 56q0 33 -25 52.5t-93 42.5q-102 37 -143.5 72t-41.5 99q0 69 55 113.5t141 44.5q93 0 170 -34l-15 -92q-81 43 -157 43q-47 0 -74 -18.5
t-27 -47.5q0 -32 25.5 -50t98.5 -44q101 -36 139.5 -72.5t38.5 -101.5z" />
    <glyph glyph-name="scaron.sc" horiz-adv-x="513" 
d="M98 805h62l101 -80l100 80h63l-117 -158h-93zM461 159q0 -74 -59.5 -120.5t-155.5 -46.5q-100 0 -200 43l14 89q96 -50 191 -50q54 0 86 22t32 56q0 33 -25 52.5t-93 42.5q-102 37 -143.5 72t-41.5 99q0 69 55 113.5t141 44.5q93 0 170 -34l-15 -92q-81 43 -157 43
q-47 0 -74 -18.5t-27 -47.5q0 -32 25.5 -50t98.5 -44q101 -36 139.5 -72.5t38.5 -101.5z" />
    <glyph glyph-name="scedilla.sc" horiz-adv-x="513" 
d="M461 159q0 -74 -59.5 -120.5t-155.5 -46.5q-100 0 -200 43l14 89q96 -50 191 -50q54 0 86 22t32 56q0 33 -25 52.5t-93 42.5q-102 37 -143.5 72t-41.5 99q0 69 55 113.5t141 44.5q93 0 170 -34l-15 -92q-81 43 -157 43q-47 0 -74 -18.5t-27 -47.5q0 -32 25.5 -50
t98.5 -44q101 -36 139.5 -72.5t38.5 -101.5zM329 -99l-143 -122h-67l91 149z" />
    <glyph glyph-name="scommaaccent.sc" horiz-adv-x="513" 
d="M461 159q0 -74 -59.5 -120.5t-155.5 -46.5q-100 0 -200 43l14 89q96 -50 191 -50q54 0 86 22t32 56q0 33 -25 52.5t-93 42.5q-102 37 -143.5 72t-41.5 99q0 69 55 113.5t141 44.5q93 0 170 -34l-15 -92q-81 43 -157 43q-47 0 -74 -18.5t-27 -47.5q0 -32 25.5 -50
t98.5 -44q101 -36 139.5 -72.5t38.5 -101.5zM192 -101l86 29q48 -48 48 -99q0 -60 -83 -140l-61 16q56 69 56 112q0 39 -46 82z" />
    <glyph glyph-name="tcaron.sc" horiz-adv-x="547" 
d="M115 805h62l101 -80l100 80h63l-117 -158h-93zM523 479h-200v-479h-100v479h-191v89h478z" />
    <glyph glyph-name="tcommaaccent.sc" horiz-adv-x="547" 
d="M523 479h-200v-479h-100v479h-191v89h478zM208 -101l86 29q48 -48 48 -99q0 -60 -83 -140l-61 16q56 69 56 112q0 39 -46 82z" />
    <glyph glyph-name="uacute.sc" horiz-adv-x="651" 
d="M507 788l-156 -142h-67l103 169zM565 225q0 -113 -64.5 -174.5t-177.5 -61.5q-111 0 -174 60.5t-63 170.5v348h99v-343q0 -71 35 -111t104 -40t105 38.5t36 110.5v345h100v-343z" />
    <glyph glyph-name="Uacute.alt" horiz-adv-x="765" 
d="M552 912l-147 -133h-64l95 159zM589 0l-14 81q-119 -89 -239 -89q-118 0 -182.5 58.5t-64.5 179.5v495h100v-481q0 -162 153 -162q112 0 227 95v548h100v-725h-80z" />
    <glyph glyph-name="uacute.sc_alt" horiz-adv-x="648" 
d="M504 788l-156 -142h-67l103 169zM558 0h-81l-12 66q-100 -73 -186 -73q-195 0 -195 188v387h99v-373q0 -116 112 -116q76 0 162 72v417h101v-568z" />
    <glyph glyph-name="ubreve.sc" horiz-adv-x="651" 
d="M489 772q-26 -130 -165 -130q-136 0 -161 130l67 14q19 -65 97 -65q74 0 94 65zM565 225q0 -113 -64.5 -174.5t-177.5 -61.5q-111 0 -174 60.5t-63 170.5v348h99v-343q0 -71 35 -111t104 -40t105 38.5t36 110.5v345h100v-343z" />
    <glyph glyph-name="Ubreve.alt" horiz-adv-x="765" 
d="M535 897q-24 -122 -155 -122q-129 0 -152 122l64 14q17 -61 90 -61q69 0 88 61zM589 0l-14 81q-119 -89 -239 -89q-118 0 -182.5 58.5t-64.5 179.5v495h100v-481q0 -162 153 -162q112 0 227 95v548h100v-725h-80z" />
    <glyph glyph-name="ubreve.sc_alt" horiz-adv-x="648" 
d="M486 772q-26 -130 -165 -130q-136 0 -161 130l67 14q19 -65 97 -65q74 0 94 65zM558 0h-81l-12 66q-100 -73 -186 -73q-195 0 -195 188v387h99v-373q0 -116 112 -116q76 0 162 72v417h101v-568z" />
    <glyph glyph-name="ucircumflex.sc" horiz-adv-x="651" 
d="M488 646h-62l-101 80l-100 -80h-62l116 158h93zM565 225q0 -113 -64.5 -174.5t-177.5 -61.5q-111 0 -174 60.5t-63 170.5v348h99v-343q0 -71 35 -111t104 -40t105 38.5t36 110.5v345h100v-343z" />
    <glyph glyph-name="Ucircumflex.alt" horiz-adv-x="765" 
d="M534 779h-60l-93 74l-94 -74h-59l108 148h90zM589 0l-14 81q-119 -89 -239 -89q-118 0 -182.5 58.5t-64.5 179.5v495h100v-481q0 -162 153 -162q112 0 227 95v548h100v-725h-80z" />
    <glyph glyph-name="ucircumflex.sc_alt" horiz-adv-x="648" 
d="M485 646h-62l-101 80l-100 -80h-62l116 158h93zM558 0h-81l-12 66q-100 -73 -186 -73q-195 0 -195 188v387h99v-373q0 -116 112 -116q76 0 162 72v417h101v-568z" />
    <glyph glyph-name="udieresis.sc" horiz-adv-x="651" 
d="M278 651h-112v112h112v-112zM485 651h-112v112h112v-112zM565 225q0 -113 -64.5 -174.5t-177.5 -61.5q-111 0 -174 60.5t-63 170.5v348h99v-343q0 -71 35 -111t104 -40t105 38.5t36 110.5v345h100v-343z" />
    <glyph glyph-name="Udieresis.alt" horiz-adv-x="765" 
d="M337 783h-107v107h107v-107zM532 783h-107v107h107v-107zM589 0l-14 81q-119 -89 -239 -89q-118 0 -182.5 58.5t-64.5 179.5v495h100v-481q0 -162 153 -162q112 0 227 95v548h100v-725h-80z" />
    <glyph glyph-name="udieresis.sc_alt" horiz-adv-x="648" 
d="M275 651h-112v112h112v-112zM482 651h-112v112h112v-112zM558 0h-81l-12 66q-100 -73 -186 -73q-195 0 -195 188v387h99v-373q0 -116 112 -116q76 0 162 72v417h101v-568z" />
    <glyph glyph-name="ugrave.sc" horiz-adv-x="651" 
d="M367 646h-67l-156 142l121 27zM565 225q0 -113 -64.5 -174.5t-177.5 -61.5q-111 0 -174 60.5t-63 170.5v348h99v-343q0 -71 35 -111t104 -40t105 38.5t36 110.5v345h100v-343z" />
    <glyph glyph-name="Ugrave.alt" horiz-adv-x="765" 
d="M421 779h-64l-147 133l116 26zM589 0l-14 81q-119 -89 -239 -89q-118 0 -182.5 58.5t-64.5 179.5v495h100v-481q0 -162 153 -162q112 0 227 95v548h100v-725h-80z" />
    <glyph glyph-name="ugrave.sc_alt" horiz-adv-x="648" 
d="M364 646h-67l-156 142l121 27zM558 0h-81l-12 66q-100 -73 -186 -73q-195 0 -195 188v387h99v-373q0 -116 112 -116q76 0 162 72v417h101v-568z" />
    <glyph glyph-name="uhungarumlaut.sc" horiz-adv-x="651" 
d="M400 791l-151 -141h-59l100 165zM584 791l-152 -141h-59l101 165zM565 225q0 -113 -64.5 -174.5t-177.5 -61.5q-111 0 -174 60.5t-63 170.5v348h99v-343q0 -71 35 -111t104 -40t105 38.5t36 110.5v345h100v-343z" />
    <glyph glyph-name="Uhungarumlaut.alt" horiz-adv-x="765" 
d="M450 914l-141 -131h-57l93 154zM622 914l-141 -131h-57l93 154zM589 0l-14 81q-119 -89 -239 -89q-118 0 -182.5 58.5t-64.5 179.5v495h100v-481q0 -162 153 -162q112 0 227 95v548h100v-725h-80z" />
    <glyph glyph-name="uhungarumlaut.sc_alt" horiz-adv-x="648" 
d="M397 791l-151 -141h-59l100 165zM581 791l-152 -141h-59l101 165zM558 0h-81l-12 66q-100 -73 -186 -73q-195 0 -195 188v387h99v-373q0 -116 112 -116q76 0 162 72v417h101v-568z" />
    <glyph glyph-name="umacron.sc" horiz-adv-x="651" 
d="M480 672h-309v80h309v-80zM565 225q0 -113 -64.5 -174.5t-177.5 -61.5q-111 0 -174 60.5t-63 170.5v348h99v-343q0 -71 35 -111t104 -40t105 38.5t36 110.5v345h100v-343z" />
    <glyph glyph-name="Umacron.alt" horiz-adv-x="765" 
d="M526 803h-290v77h290v-77zM589 0l-14 81q-119 -89 -239 -89q-118 0 -182.5 58.5t-64.5 179.5v495h100v-481q0 -162 153 -162q112 0 227 95v548h100v-725h-80z" />
    <glyph glyph-name="umacron.sc_alt" horiz-adv-x="648" 
d="M477 672h-309v80h309v-80zM558 0h-81l-12 66q-100 -73 -186 -73q-195 0 -195 188v387h99v-373q0 -116 112 -116q76 0 162 72v417h101v-568z" />
    <glyph glyph-name="uogonek.sc" horiz-adv-x="651" 
d="M565 225q0 -101 -51.5 -161t-144.5 -72l-13 -18q-37 -49 -37 -76q0 -35 44 -35q19 0 49 5v-59q-43 -16 -81 -16q-43 0 -67.5 20.5t-24.5 60.5q0 48 57 116q-99 8 -154.5 67.5t-55.5 162.5v348h99v-343q0 -71 35 -111t104 -40t105 38.5t36 110.5v345h100v-343z" />
    <glyph glyph-name="Uogonek.alt" horiz-adv-x="765" 
d="M510 -119q0 49 66 123l10 11l-11 66q-119 -89 -239 -89q-118 0 -182.5 58.5t-64.5 179.5v495h100v-481q0 -162 153 -162q112 0 227 95v548h100v-725h-29l-18 -24q-35 -46 -35 -71q0 -33 42 -33q12 0 46 6v-58q-43 -15 -78 -15q-40 0 -63.5 19t-23.5 57z" />
    <glyph glyph-name="uogonek.sc_alt" horiz-adv-x="648" 
d="M558 0h-13l-19 -26q-37 -49 -37 -76q0 -35 44 -35q19 0 49 5v-59q-43 -16 -81 -16q-43 0 -67.5 20.5t-24.5 60.5q0 52 67 128l-11 64q-100 -73 -186 -73q-195 0 -195 188v387h99v-373q0 -116 112 -116q76 0 162 72v417h101v-568z" />
    <glyph glyph-name="uring.sc" horiz-adv-x="651" 
d="M445 746q0 -49 -33.5 -81t-85.5 -32t-86 32t-34 81q0 50 34 83.5t86 33.5q51 0 85 -33.5t34 -83.5zM392 746q0 29 -19 48.5t-47 19.5q-29 0 -48 -19.5t-19 -48.5t19 -47.5t48 -18.5q28 0 47 19t19 47zM565 225q0 -113 -64.5 -174.5t-177.5 -61.5q-111 0 -174 60.5
t-63 170.5v348h99v-343q0 -71 35 -111t104 -40t105 38.5t36 110.5v345h100v-343z" />
    <glyph glyph-name="Uring.alt" horiz-adv-x="765" 
d="M494 874q0 -48 -32 -78t-81 -30t-81 30t-32 78q0 47 32 78t81 31t81 -31t32 -78zM443 874q0 26 -17.5 44t-44.5 18t-44.5 -18t-17.5 -44q0 -27 17.5 -44.5t44.5 -17.5t44.5 17.5t17.5 44.5zM589 0l-14 81q-119 -89 -239 -89q-118 0 -182.5 58.5t-64.5 179.5v495h100v-481
q0 -162 153 -162q112 0 227 95v548h100v-725h-80z" />
    <glyph glyph-name="uring.sc_alt" horiz-adv-x="648" 
d="M442 746q0 -49 -33.5 -81t-85.5 -32t-86 32t-34 81q0 50 34 83.5t86 33.5q51 0 85 -33.5t34 -83.5zM389 746q0 29 -19 48.5t-47 19.5q-29 0 -48 -19.5t-19 -48.5t19 -47.5t48 -18.5t47.5 19t18.5 47zM558 0h-81l-12 66q-100 -73 -186 -73q-195 0 -195 188v387h99v-373
q0 -116 112 -116q76 0 162 72v417h101v-568z" />
    <glyph glyph-name="wacute.sc" horiz-adv-x="898" 
d="M632 789l-156 -142h-67l103 169zM863 568l-178 -571h-93l-142 449l-146 -449h-93l-174 558l101 22l125 -441l137 432h106l135 -432l123 432h99z" />
    <glyph glyph-name="Wacute.alt" horiz-adv-x="1120" 
d="M730 922l-147 -133h-64l95 159zM1082 725l-271 -728h-89l-163 411l-159 -411h-89l-272 714l102 22l216 -600l153 399l-71 179l102 22l227 -600l206 592h108z" />
    <glyph glyph-name="wacute.sc_alt" horiz-adv-x="898" 
d="M630 789l-156 -142h-67l103 169zM868 568l-214 -568h-93l-112 310l-114 -310h-94l-211 555l102 18l163 -452l111 309l-45 126l102 17l150 -453l152 448h103z" />
    <glyph glyph-name="wcircumflex.sc" horiz-adv-x="898" 
d="M613 646h-62l-101 80l-100 -80h-62l116 158h93zM863 568l-178 -571h-93l-142 449l-146 -449h-93l-174 558l101 22l125 -441l137 432h106l135 -432l123 432h99z" />
    <glyph glyph-name="Wcircumflex.alt" horiz-adv-x="1120" 
d="M712 789h-60l-93 74l-94 -74h-59l108 148h90zM1082 725l-271 -728h-89l-163 411l-159 -411h-89l-272 714l102 22l216 -600l153 399l-71 179l102 22l227 -600l206 592h108z" />
    <glyph glyph-name="wcircumflex.sc_alt" horiz-adv-x="898" 
d="M611 647h-62l-101 80l-100 -80h-62l116 158h93zM868 568l-214 -568h-93l-112 310l-114 -310h-94l-211 555l102 18l163 -452l111 309l-45 126l102 17l150 -453l152 448h103z" />
    <glyph glyph-name="wdieresis.sc" horiz-adv-x="898" 
d="M403 652h-112v112h112v-112zM610 652h-112v112h112v-112zM863 568l-178 -571h-93l-142 449l-146 -449h-93l-174 558l101 22l125 -441l137 432h106l135 -432l123 432h99z" />
    <glyph glyph-name="Wdieresis.alt" horiz-adv-x="1120" 
d="M515 793h-107v107h107v-107zM710 793h-107v107h107v-107zM1082 725l-271 -728h-89l-163 411l-159 -411h-89l-272 714l102 22l216 -600l153 399l-71 179l102 22l227 -600l206 592h108z" />
    <glyph glyph-name="wdieresis.sc_alt" horiz-adv-x="898" 
d="M401 652h-112v112h112v-112zM608 652h-112v112h112v-112zM868 568l-214 -568h-93l-112 310l-114 -310h-94l-211 555l102 18l163 -452l111 309l-45 126l102 17l150 -453l152 448h103z" />
    <glyph glyph-name="wgrave.sc" horiz-adv-x="898" 
d="M492 647h-67l-156 142l121 27zM863 568l-178 -571h-93l-142 449l-146 -449h-93l-174 558l101 22l125 -441l137 432h106l135 -432l123 432h99z" />
    <glyph glyph-name="Wgrave.alt" horiz-adv-x="1120" 
d="M599 789h-64l-147 133l116 26zM1082 725l-271 -728h-89l-163 411l-159 -411h-89l-272 714l102 22l216 -600l153 399l-71 179l102 22l227 -600l206 592h108z" />
    <glyph glyph-name="wgrave.sc_alt" horiz-adv-x="898" 
d="M490 647h-67l-156 142l121 27zM868 568l-214 -568h-93l-112 310l-114 -310h-94l-211 555l102 18l163 -452l111 309l-45 126l102 17l150 -453l152 448h103z" />
    <glyph glyph-name="yacute.sc" horiz-adv-x="576" 
d="M469 788l-156 -142h-67l103 169zM553 568l-218 -347v-221h-100v220l-213 336l102 22l163 -270l155 260h111z" />
    <glyph glyph-name="ycircumflex.sc" horiz-adv-x="576" 
d="M449 646h-62l-101 80l-100 -80h-62l116 158h93zM553 568l-218 -347v-221h-100v220l-213 336l102 22l163 -270l155 260h111z" />
    <glyph glyph-name="ydieresis.sc" horiz-adv-x="576" 
d="M239 651h-112v112h112v-112zM446 651h-112v112h112v-112zM553 568l-218 -347v-221h-100v220l-213 336l102 22l163 -270l155 260h111z" />
    <glyph glyph-name="ygrave.sc" horiz-adv-x="576" 
d="M328 646h-67l-156 142l121 27zM553 568l-218 -347v-221h-100v220l-213 336l102 22l163 -270l155 260h111z" />
    <glyph glyph-name="zacute.sc" horiz-adv-x="562" 
d="M467 789l-156 -142h-67l103 169zM512 0h-466v71l342 414h-305l-14 83h437v-71l-342 -415h336z" />
    <glyph glyph-name="zcaron.sc" horiz-adv-x="562" 
d="M123 805h62l101 -80l100 80h63l-117 -158h-93zM512 0h-466v71l342 414h-305l-14 83h437v-71l-342 -415h336z" />
    <glyph glyph-name="zdotaccent.sc" horiz-adv-x="562" 
d="M342 651h-113v113h113v-113zM512 0h-466v71l342 414h-305l-14 83h437v-71l-342 -415h336z" />
    <glyph glyph-name="ae.sc" horiz-adv-x="861" 
d="M265 231h166v269zM374 568h422v-89h-265v-140h212l15 -87h-227v-164h273v-88h-373v144h-219l-89 -144h-103z" />
    <glyph glyph-name="aeacute.sc" horiz-adv-x="861" 
d="M685 789l-156 -142h-67l103 169zM265 231h166v269zM374 568h422v-89h-265v-140h212l15 -87h-227v-164h273v-88h-373v144h-219l-89 -144h-103z" />
    <glyph glyph-name="oe.sc" horiz-adv-x="841" 
d="M784 0h-405q-154 0 -238.5 78.5t-84.5 204.5q0 125 85.5 205t237.5 80h397v-89h-265v-140h213l14 -87h-227v-164h273v-88zM413 479h-39q-102 0 -159.5 -51t-57.5 -144q0 -92 58.5 -144t156.5 -52h41v391z" />
    <glyph glyph-name="eth.sc" horiz-adv-x="660" 
d="M32 248l-16 86h88v234h176q153 0 238 -78.5t85 -205.5q0 -125 -86 -204.5t-237 -79.5h-176v248h-72zM501 283q0 92 -58 144t-157 52h-82v-145h140v-86h-140v-160h80q102 0 159.5 51t57.5 144z" />
    <glyph glyph-name="thorn.sc" horiz-adv-x="535" 
d="M491 294q0 -86 -61 -133.5t-164 -47.5h-77v-113h-99v568h99v-96h88q99 0 156.5 -48t57.5 -130zM392 292q0 45 -32 70t-93 25h-78v-190h76q127 0 127 95z" />
    <glyph glyph-name="uni0409.alt" horiz-adv-x="1012" 
d="M37 0l288 730h96l115 -288h173q122 0 191 -56.5t69 -158.5q0 -109 -75 -168t-203 -59h-90l-229 593l-228 -593h-107zM703 354h-132l107 -266h18q171 0 171 136q0 130 -164 130z" />
    <glyph glyph-name="uni0431.srb" horiz-adv-x="623" 
d="M493 808l15 -90l-225 -33q-70 -9 -70 -44q0 -17 25 -35.5t104 -57.5q118 -59 173 -127.5t55 -167.5q0 -116 -75 -190t-189 -74t-181.5 69t-67.5 178q0 173 178 263q-62 33 -90 66t-28 76q0 109 151 133zM470 250q0 71 -35 121.5t-113 89.5q-77 -34 -121 -93t-44 -131
q0 -73 41.5 -119.5t110.5 -46.5t115 50.5t46 128.5z" />
    <glyph glyph-name="uni0459.alt" horiz-adv-x="821" 
d="M455 0l-160 414l-158 -414h-105l216 539h98l75 -187h143q105 0 160 -45t55 -128q0 -84 -61 -131.5t-163 -47.5h-100zM560 270h-106l76 -188h27q61 0 93.5 25.5t32.5 70.5q0 92 -123 92z" />
    <glyph glyph-name="three.alt" horiz-adv-x="570" 
d="M514 206q0 -100 -71.5 -160t-190.5 -60q-123 0 -210 56l16 94q96 -63 200 -63q73 0 115 35t42 97q0 127 -201 127h-39l-12 72l213 218h-310l-14 88h446v-76l-222 -226q238 -18 238 -202z" />
    <glyph glyph-name="four.alt" horiz-adv-x="652" 
d="M620 160h-119v-160h-88v160h-370v71l346 484l91 -20l-330 -455h263v181l88 19v-200h119v-80z" />
    <glyph glyph-name="zero.osf" horiz-adv-x="642" 
d="M587 283q0 -132 -75 -213t-193 -81q-115 0 -189.5 81t-74.5 213q0 133 74.5 215t190.5 82q117 0 192 -82t75 -215zM488 283q0 91 -45 152.5t-123 61.5t-122 -61t-44 -153q0 -89 44.5 -150.5t121.5 -61.5q80 0 124 60t44 152z" />
    <glyph glyph-name="one.osf" horiz-adv-x="381" 
d="M275 0h-99v473l-136 -47l-11 79l160 72h86v-577z" />
    <glyph glyph-name="two.osf" horiz-adv-x="574" 
d="M519 0h-467v82l256 188q50 36 74 66.5t24 64.5q0 43 -30 67.5t-84 24.5q-94 0 -209 -70l-16 87q113 67 229 67q97 0 154 -45.5t57 -121.5q0 -60 -35.5 -104.5t-120.5 -102.5l-172 -117h327z" />
    <glyph glyph-name="three.osf" horiz-adv-x="566" 
d="M507 41q0 -109 -99 -179t-254 -70q-67 0 -103 7l-18 93q63 -12 125 -12q113 0 182.5 46t69.5 118q0 54 -40.5 82t-116.5 28q-39 0 -75 -3l-25 -3v82l40 5q104 12 153 52.5t49 101.5q0 48 -33.5 76t-91.5 28q-103 0 -214 -78l-14 88q108 76 232 76q106 0 162.5 -50.5
t56.5 -130.5q0 -68 -42.5 -117t-106.5 -74q163 -26 163 -166z" />
    <glyph glyph-name="three.osf_alt" horiz-adv-x="572" 
d="M266 234h14q118 0 175.5 -51t57.5 -139q0 -111 -101.5 -181.5t-259.5 -70.5q-60 0 -101 6l-18 94q55 -12 123 -12q115 0 187.5 46t72.5 117q0 55 -40.5 83t-115.5 28q-36 0 -68 -2l-26 -2l-13 79l234 249h-331l-13 90h470v-75z" />
    <glyph glyph-name="four.osf" horiz-adv-x="668" 
d="M635 1h-126v-195l-92 -14v209h-373v72l345 504h120v-494h126v-82zM417 83v389l-269 -389h269z" />
    <glyph glyph-name="five.osf" horiz-adv-x="581" 
d="M531 76q0 -123 -103.5 -203t-261.5 -80q-64 0 -103 6l-17 92q54 -12 123 -12q116 0 189 54.5t73 133.5q0 61 -38.5 90.5t-102.5 29.5q-61 0 -131 -28l-82 13l15 396h399l14 -90h-331l-9 -234q68 28 141 28q96 0 160.5 -52t64.5 -144z" />
    <glyph glyph-name="six.osf" horiz-adv-x="645" 
d="M483 702q-263 -68 -312 -273q97 54 192 54q103 0 165.5 -61.5t62.5 -171.5t-76 -185.5t-187 -75.5q-120 0 -192 84t-72 239q0 192 107.5 310.5t297.5 166.5zM347 400q-92 0 -188 -61v-22q0 -116 44 -181t126 -65q73 0 118 48.5t45 126.5q0 74 -37 114t-108 40z" />
    <glyph glyph-name="seven.osf" horiz-adv-x="575" 
d="M519 491l-307 -699l-94 22l295 664h-364l-14 90h484v-77z" />
    <glyph glyph-name="eight.osf" horiz-adv-x="654" 
d="M59 197q0 126 156 208q-62 31 -93.5 73.5t-31.5 108.5q0 83 67.5 141.5t173.5 58.5q109 0 172.5 -56t63.5 -139q0 -110 -130 -187q82 -38 120 -84.5t38 -123.5q0 -87 -74.5 -149t-194.5 -62q-128 0 -197.5 60.5t-69.5 150.5zM185 588q0 -51 36 -81.5t137 -68.5
q53 29 83.5 69t30.5 83q0 52 -36.5 83.5t-104.5 31.5q-69 0 -107.5 -34.5t-38.5 -82.5zM157 197q0 -59 46.5 -94.5t124.5 -35.5q75 0 122 37.5t47 93.5q0 59 -41.5 95t-157.5 78q-67 -29 -104 -74.5t-37 -99.5z" />
    <glyph glyph-name="nine.osf" horiz-adv-x="645" 
d="M163 -123q140 34 214 98t97 160q-102 -50 -191 -50q-104 0 -166 61t-62 171q0 111 75.5 186.5t186.5 75.5q120 0 192.5 -84.5t72.5 -238.5q0 -368 -407 -467zM301 167q92 0 185 56q1 9 1 27q0 116 -46 181.5t-126 65.5q-71 0 -116.5 -49t-45.5 -126q0 -75 37.5 -115
t110.5 -40z" />
    <glyph glyph-name="comma.alt" horiz-adv-x="271" 
d="M86 132h104q9 -38 9 -64q0 -116 -113 -222l-55 26q66 95 66 183q0 36 -11 77z" />
    <glyph glyph-name="semicolon.alt" horiz-adv-x="281" 
d="M197 402h-112v132h112v-132zM87 132h103q9 -31 9 -64q0 -117 -112 -222l-55 26q66 97 66 183q0 29 -11 77z" />
    <glyph glyph-name="ampersand.sc" horiz-adv-x="600" 
d="M240 64q75 0 128 56l-148 143q-88 -40 -88 -109q0 -41 30 -65.5t78 -24.5zM598 14l-98 -22l-80 77q-79 -81 -188 -81q-93 0 -145 41t-52 115q0 107 132 170q-31 33 -44 61t-13 64q0 60 44 100t121 40q80 0 152 -36l-14 -88q-72 44 -134 44q-36 0 -55 -17t-19 -44
q0 -22 12 -42t41 -48l156 -154q26 60 36 139l81 -18q-14 -98 -60 -177z" />
    <glyph glyph-name="quotedblleft.alt" horiz-adv-x="479" 
d="M391 521h-103q-11 38 -11 72q0 109 89 194l55 -26q-42 -72 -42 -155q0 -44 12 -85zM182 521h-103q-10 34 -10 72q0 109 89 194l55 -26q-42 -69 -42 -155q0 -48 11 -85z" />
    <glyph glyph-name="quotedblright.alt" horiz-adv-x="479" 
d="M296 773h103q11 -38 11 -72q0 -109 -89 -194l-55 26q42 69 42 155q0 44 -12 85zM88 773h103q10 -34 10 -72q0 -111 -89 -194l-55 26q42 69 42 155q0 48 -11 85z" />
    <glyph glyph-name="quoteleft.alt" horiz-adv-x="270" 
d="M182 521h-103q-10 34 -10 72q0 109 89 194l55 -26q-42 -69 -42 -155q0 -48 11 -85z" />
    <glyph glyph-name="quoteright.alt" horiz-adv-x="270" 
d="M88 773h103q10 -34 10 -72q0 -111 -89 -194l-55 26q42 69 42 155q0 48 -11 85z" />
    <glyph glyph-name="quotedblbase.alt" horiz-adv-x="479" 
d="M288 132h103q11 -36 11 -71q0 -109 -89 -195l-55 27q42 67 42 154q0 45 -12 85zM80 132h103q10 -33 10 -71q0 -109 -89 -195l-55 27q42 67 42 154q0 48 -11 85z" />
    <glyph glyph-name="quotesinglbase.alt" horiz-adv-x="270" 
d="M80 132h103q10 -33 10 -71q0 -109 -89 -195l-55 27q42 67 42 154q0 48 -11 85z" />
    <glyph glyph-name="guillemotleft.sc" horiz-adv-x="620" 
d="M331 555l-177 -277l171 -266l-80 -18l-199 284l196 277h89zM568 555l-177 -277l170 -266l-79 -18l-200 284l196 277h90z" />
    <glyph glyph-name="guillemotright.sc" horiz-adv-x="620" 
d="M338 277l-196 -277h-90l177 277l-170 266l79 17zM574 277l-196 -277h-89l177 277l-171 266l80 17z" />
    <glyph glyph-name="guilsinglleft.sc" horiz-adv-x="382" 
d="M331 555l-177 -277l171 -266l-80 -18l-199 284l196 277h89z" />
    <glyph glyph-name="guilsinglright.sc" horiz-adv-x="382" 
d="M337 277l-196 -277h-90l177 277l-170 266l79 17z" />
    <glyph glyph-name="slash.sc" horiz-adv-x="479" 
d="M483 602l-412 -684l-82 18l413 684z" />
    <glyph glyph-name="backslash.sc" horiz-adv-x="479" 
d="M491 -64l-82 -18l-413 684l81 18z" />
    <glyph glyph-name="slash.osf" horiz-adv-x="490" 
d="M527 652l-491 -762l-76 19l491 762z" />
    <glyph glyph-name="parenleft.sc" horiz-adv-x="358" 
d="M332 -58l-89 -19q-96 76 -141.5 154.5t-45.5 179.5q0 213 230 340l12 -83q-143 -91 -143 -259q0 -85 42 -157.5t135 -155.5z" />
    <glyph glyph-name="parenright.sc" horiz-adv-x="358" 
d="M26 574l90 19q95 -76 140.5 -154.5t45.5 -179.5q0 -213 -229 -340l-13 83q143 91 143 259q0 85 -42 157.5t-135 155.5z" />
    <glyph glyph-name="bracketleft.sc" horiz-adv-x="369" 
d="M326 -85h-247v653h243v-71h-154v-511h149z" />
    <glyph glyph-name="bracketright.sc" horiz-adv-x="369" 
d="M289 -85h-242v71h154v511h-150l-9 71h247v-653z" />
    <glyph glyph-name="braceleft.sc" horiz-adv-x="424" 
d="M383 -85h-109q-127 0 -127 107q0 19 6 56t6 57q0 76 -87 76h-27l-10 60h37q87 0 87 77q0 19 -6 56t-6 55q0 109 127 109h104v-71h-83q-31 0 -44.5 -9t-13.5 -32q0 -16 6 -53.5t6 -55.5q0 -47 -23 -71t-68 -34v-2q45 -10 68 -33.5t23 -70.5q0 -18 -6 -55t-6 -53
q0 -24 13.5 -33t44.5 -9h78z" />
    <glyph glyph-name="braceright.sc" horiz-adv-x="424" 
d="M41 568h109q127 0 127 -108q0 -19 -6 -55.5t-6 -56.5q0 -76 87 -76h27l10 -60h-37q-87 0 -87 -78q0 -19 6 -56t6 -55q0 -108 -127 -108h-104v71h83q31 0 44.5 9t13.5 32q0 15 -6 53t-6 56q0 47 23 71t68 34v2q-45 9 -68 33t-23 71q0 18 6 54.5t6 53.5q0 24 -13 33t-44 9
h-79z" />
    <glyph glyph-name="registered.alt" horiz-adv-x="881" 
d="M818 363q0 -167 -105.5 -272t-272.5 -105q-168 0 -272.5 103.5t-104.5 271.5t105 272.5t273 104.5t272.5 -103.5t104.5 -271.5zM771 362q0 159 -93 248.5t-237 89.5q-146 0 -238 -89.5t-92 -248.5q0 -158 92.5 -247.5t237.5 -89.5q146 0 238 89.5t92 247.5zM550 157
l-124 164h-46v-158h-71v414h125q70 0 111.5 -34.5t41.5 -93.5q0 -84 -85 -116l125 -158zM380 514v-133h49q40 0 62.5 17t22.5 49q0 31 -21.5 49t-61.5 18h-51z" />
    <glyph glyph-name="servicemark.alt" horiz-adv-x="940" 
d="M852 386h-64v291l-124 -293h-62l-123 293v-291h-63v387h89l129 -305l129 305h89v-387zM194 381q-67 0 -115 28l8 64q61 -36 108 -36q29 0 48 13t19 36q0 24 -15 38.5t-53 30.5q-63 27 -87 51t-24 68q0 46 35.5 75t91.5 29q59 0 98 -23l-12 -63q-47 30 -88 30
q-29 0 -45.5 -12t-16.5 -30q0 -22 14.5 -35.5t53.5 -29.5q63 -27 86.5 -52.5t23.5 -72.5q0 -50 -36 -79.5t-94 -29.5z" />
    <glyph glyph-name="trademark.alt" horiz-adv-x="940" 
d="M368 713h-131v-327h-67v327h-126v60h314zM866 386h-63v291l-125 -293h-62l-123 293v-291h-62v387h89l129 -305l127 305h90v-387z" />
    <glyph glyph-name="dollar.osf" horiz-adv-x="541" 
d="M154 428q0 -31 21.5 -50t76.5 -34l26 159h-1q-62 -1 -93 -22t-30 -53zM408 159q0 34 -23.5 55t-81.5 36l-29 -176h1q62 0 98 23t35 62zM243 -124l-66 15l18 114q-90 14 -149 44l14 83q68 -40 148 -53l31 187q-87 23 -129 58.5t-42 94.5q0 71 59.5 115t156.5 44h4l15 91
l67 -14l-13 -82q56 -8 111 -31l-14 -83q-52 26 -110 38l-28 -169q95 -26 136.5 -63t41.5 -97q0 -80 -61.5 -124.5t-168.5 -44.5h-1z" />
    <glyph glyph-name="sterling.osf" horiz-adv-x="569" 
d="M68 239v81h105l40 98q34 88 85 124.5t135 36.5q49 0 87 -9l-14 -87q-50 9 -80 9q-48 0 -76.5 -25.5t-50.5 -78.5l-29 -68h160l12 -81h-205l-65 -157h329l12 -82h-447v53l75 186h-73z" />
    <glyph glyph-name="Euro.osf" horiz-adv-x="618" 
d="M450 239h-232q10 -78 54 -122.5t118 -44.5q86 0 164 53l14 -86q-80 -50 -184 -50q-113 0 -184 67t-82 183h-83v81h83q10 119 82 189t184 70q102 0 173 -44l-14 -92q-72 52 -156 52q-72 0 -117 -46.5t-53 -128.5h221z" />
    <glyph glyph-name="yen.osf" horiz-adv-x="609" 
d="M512 157h-164v-157h-96v157h-159v81h141l-213 317l100 17l180 -282l179 278h109l-223 -330h134z" />
    <glyph glyph-name="cent.osf" horiz-adv-x="569" 
d="M154 275q0 -141 100 -178l58 368q-74 -2 -116 -51t-42 -139zM507 58q-76 -57 -189 -57h-9l-18 -116l-72 16l19 110q-83 23 -130.5 90.5t-47.5 170.5q0 130 73 202.5t188 72.5h4l19 116l72 -15l-18 -108q59 -11 105 -42l-14 -92q-54 41 -106 52l-61 -373h7q49 0 87 12.5
t79 45.5z" />
    <glyph glyph-name="florin.osf" horiz-adv-x="459" 
d="M362 320v-83h-123l-72 -430l-100 -15l73 445h-80l14 83h80l17 102q14 83 57.5 120t128.5 37q28 0 52 -2v-89q-48 4 -52 4q-41 0 -62 -20.5t-28 -66.5l-14 -85h109z" />
    <glyph glyph-name="R_p" horiz-adv-x="1187" 
d="M533 -7l-212 284h-130v-277h-98v710h229q120 0 188.5 -58.5t68.5 -157.5q0 -71 -42.5 -122t-114.5 -75l213 -282zM191 360h120q81 0 125.5 33.5t44.5 97.5t-42 98.5t-121 34.5h-127v-264zM1031 255q0 77 -34.5 120.5t-89.5 43.5q-81 0 -148 -87v-233q57 -27 128 -27
q64 0 104 48t40 135zM1124 259q0 -128 -67 -196.5t-168 -68.5q-74 0 -130 21v-194l-93 -12v682h72l13 -71q75 81 169 81q89 0 146.5 -62t57.5 -180z" />
    <glyph glyph-name="numbersign.osf" horiz-adv-x="672" 
d="M274 363l-32 -159h156l32 159h-156zM356 0l27 136h-152l-29 -142l-74 19l24 123h-107v71h121l31 154h-119l-13 71h146l28 136h78l-27 -136h152l28 140l74 -19l-25 -121h108v-71h-122l-30 -154h119l13 -71h-146l-27 -136h-78z" />
    <glyph glyph-name="paragraph.osf" horiz-adv-x="624" 
d="M533 -194l-90 -14v698h-83v-157l-39 -223q-126 5 -197 63.5t-71 167.5q0 107 72.5 167t198.5 60h209v-762z" />
    <glyph glyph-name="percent.osf" horiz-adv-x="873" 
d="M366 419q0 -72 -45.5 -114.5t-115.5 -42.5q-69 0 -114 42.5t-45 114.5q0 73 45 116.5t114 43.5q70 0 115.5 -43.5t45.5 -116.5zM662 558l-189 -278l-188 -288l-74 19l206 307l172 259zM287 420q0 42 -21 69.5t-61 27.5t-60 -27.5t-20 -70.5q0 -41 21 -68t60 -27
q41 0 61 27t20 69zM828 147q0 -73 -45 -115t-115 -42q-69 0 -114.5 42.5t-45.5 114.5q0 73 45.5 116.5t114.5 43.5q70 0 115 -43.5t45 -116.5zM749 148q0 42 -21 69.5t-61 27.5q-41 0 -60.5 -27t-19.5 -71q0 -41 20.5 -68t61.5 -27q40 0 60 27t20 69z" />
    <glyph glyph-name="plus.osf" horiz-adv-x="674" 
d="M606 242h-226v-223h-86v223h-226v83h226v222h86v-222h226v-83z" />
    <glyph glyph-name="minus.osf" horiz-adv-x="674" 
d="M606 239h-538v86h538v-86z" />
    <glyph glyph-name="divide.osf" horiz-adv-x="674" 
d="M392 427h-110v119h110v-119zM606 241h-538v82h538v-82zM392 18h-110v119h110v-119z" />
    <glyph glyph-name="equal.osf" horiz-adv-x="698" 
d="M610 357h-520v88h520v-88zM610 123h-520v88h520v-88z" />
    <glyph glyph-name="multiply.osf" horiz-adv-x="674" 
d="M527 41l-191 185l-191 -185l-57 57l192 183l-193 183l60 60l191 -185l191 185l57 -58l-193 -183l193 -182z" />
    <glyph glyph-name="less.osf" horiz-adv-x="674" 
d="M590 1l-519 245v74l519 244v-95l-414 -186l414 -186v-96z" />
    <glyph glyph-name="greater.osf" horiz-adv-x="674" 
d="M603 248l-519 -244v95l414 184l-414 187v96l519 -244v-74z" />
    <glyph glyph-name="zero.tab" horiz-adv-x="600" 
d="M544 355q0 -177 -64.5 -271.5t-179.5 -94.5t-179.5 94.5t-64.5 271.5t64.5 271t179.5 94t179.5 -94t64.5 -271zM300 640q-74 0 -114 -73t-40 -212t40 -212t114 -73q72 0 112 73t40 212t-40 212t-112 73z" />
    <glyph glyph-name="one.tab" horiz-adv-x="600" 
d="M551 0h-461v82h189v533l-182 -76l-13 85l216 93h70v-635h167z" />
    <glyph glyph-name="two.tab" horiz-adv-x="600" 
d="M543 0h-485v76l282 270q54 50 75.5 87.5t21.5 80.5q0 58 -37 89t-103 31q-98 0 -209 -85l-14 90q43 37 104 60.5t124 23.5q108 0 171.5 -56.5t63.5 -145.5q0 -61 -30 -112t-103 -121l-215 -203h341z" />
    <glyph glyph-name="three.tab" horiz-adv-x="600" 
d="M537 195q0 -92 -74 -150t-191 -58q-128 0 -224 58l16 89q106 -58 204 -58q80 0 125 32.5t45 93.5q0 127 -212 127h-49l-15 87h74q94 0 141.5 31t47.5 86q0 48 -36.5 76.5t-103.5 28.5q-110 0 -210 -72l-15 88q99 71 227 71q117 0 176.5 -53.5t59.5 -127.5
q0 -65 -37.5 -107.5t-102.5 -61.5q73 -18 113.5 -64t40.5 -116z" />
    <glyph glyph-name="four.tab" horiz-adv-x="600" 
d="M572 161h-109v-161h-87v161h-337v69l310 480h114v-471h109v-78zM376 239v362h-1l-66 -102l-170 -260h237z" />
    <glyph glyph-name="five.tab" horiz-adv-x="600" 
d="M534 227q0 -99 -75.5 -167t-197.5 -68q-123 0 -205 53l15 92q81 -60 193 -60q77 0 125.5 41.5t48.5 106.5q0 63 -40 95.5t-115 32.5t-132 -24l-59 15l28 366h379l13 -84h-310l-17 -202q54 14 106 14q118 0 180.5 -56.5t62.5 -154.5z" />
    <glyph glyph-name="six.tab" horiz-adv-x="600" 
d="M446 635q-252 -63 -292 -253q76 54 178 54q101 0 160 -58.5t59 -158.5q0 -101 -68 -164.5t-174 -63.5q-116 0 -185 78t-69 221q0 174 100.5 282.5t275.5 151.5zM146 282q0 -89 43.5 -151t121.5 -62q66 0 107 39.5t41 106.5q0 65 -37.5 101.5t-106.5 36.5q-94 0 -169 -63
v-8z" />
    <glyph glyph-name="seven.tab" horiz-adv-x="600" 
d="M540 635l-300 -647l-94 22l286 614h-373l-13 86h494v-75z" />
    <glyph glyph-name="eight.tab" horiz-adv-x="600" 
d="M546 185q0 -83 -67 -138t-180 -55q-115 0 -182.5 56t-67.5 137q0 112 135 195q-107 59 -107 165q0 79 61.5 129.5t159.5 50.5q96 0 158.5 -50.5t62.5 -128.5q0 -99 -112 -171q139 -66 139 -190zM170 545q0 -46 32.5 -74t126.5 -65q96 56 96 138q0 46 -34 74t-93 28
t-93.5 -28t-34.5 -73zM451 187q0 54 -38 85t-152 74q-118 -63 -118 -155q0 -55 44 -88t112 -33q67 0 109.5 32.5t42.5 84.5z" />
    <glyph glyph-name="nine.tab" horiz-adv-x="600" 
d="M148 79q115 24 193.5 85t102.5 160q-76 -53 -177 -53t-159.5 58.5t-58.5 161.5q0 105 67.5 169.5t174.5 64.5q114 0 184 -79.5t70 -221.5q0 -175 -103.5 -286t-278.5 -148zM454 432q0 89 -44 151t-121 62q-66 0 -107 -40t-41 -109q0 -66 37.5 -104t105.5 -38q97 0 170 62
v16z" />
    <glyph glyph-name="period.tab" horiz-adv-x="300" 
d="M203 0h-105v126h105v-126z" />
    <glyph glyph-name="comma.tab" horiz-adv-x="300" 
d="M222 126l-98 -279l-57 12l48 267h107z" />
    <glyph glyph-name="comma.tab_alt" horiz-adv-x="300" 
d="M107 126h99q9 -32 9 -63q0 -113 -110 -216l-51 27q64 93 64 177q0 29 -11 75z" />
    <glyph glyph-name="colon.tab" horiz-adv-x="300" 
d="M203 375h-105v126h105v-126zM203 0h-105v126h105v-126z" />
    <glyph glyph-name="semicolon.tab" horiz-adv-x="300" 
d="M203 375h-105v126h105v-126zM217 126l-99 -279l-56 12l48 267h107z" />
    <glyph glyph-name="semicolon.tab_alt" horiz-adv-x="300" 
d="M205 375h-105v126h105v-126zM103 126h99q9 -38 9 -63q0 -113 -110 -216l-51 27q63 92 63 177q0 33 -10 75z" />
    <glyph glyph-name="twodotleader.tab" horiz-adv-x="600" 
d="M206 0h-105v124h105v-124zM499 0h-105v124h105v-124z" />
    <glyph glyph-name="periodcentered.tab" horiz-adv-x="300" 
d="M203 235h-106v126h106v-126z" />
    <glyph glyph-name="slash.tab" horiz-adv-x="600" 
d="M569 716l-516 -850l-85 19l515 849z" />
    <glyph glyph-name="bar.tab" horiz-adv-x="300" 
d="M191 -127l-83 -12v972l83 14v-974z" />
    <glyph glyph-name="underscore.tab" horiz-adv-x="600" 
d="M597 -109h-594v74h594v-74z" />
    <glyph glyph-name="dollar.tab" horiz-adv-x="600" 
d="M162 534q0 -39 24.5 -64.5t93.5 -48.5l36 215q-9 1 -26 1h-2q-57 0 -91.5 -28.5t-34.5 -74.5zM448 189q0 40 -26 70t-97 55l-39 -240h15q68 0 107.5 31.5t39.5 83.5zM256 -128l-68 16l19 113q-78 11 -149 44l14 90q86 -46 152 -56l42 254q-97 32 -143.5 77t-46.5 116
q0 88 61 138t159 50q19 0 28 -1l14 80l68 -16l-12 -71q56 -9 112 -32l-15 -89q-62 32 -114 43l-37 -226q105 -35 150.5 -84.5t45.5 -123.5q0 -90 -66 -144t-181 -54h-13z" />
    <glyph glyph-name="sterling.tab" horiz-adv-x="600" 
d="M57 309v81h107l49 146q29 89 70 127q61 60 161 60q54 0 97 -18l-13 -85q-34 18 -86 18q-54 0 -87.5 -30t-56.5 -98l-41 -120h192l13 -81h-232l-76 -226h377l14 -83h-488v72l79 237h-79z" />
    <glyph glyph-name="Euro.tab" horiz-adv-x="600" 
d="M36 407v73h95q24 110 89.5 177t169.5 67q95 0 167 -50l-15 -87q-74 57 -150 57q-65 0 -107.5 -44.5t-61.5 -119.5h237l11 -73h-260q-2 -34 -2 -52q0 -17 2 -47h255v-74h-244q19 -78 63 -122.5t112 -44.5q45 0 80 14t77 45l15 -83q-83 -57 -179 -57q-108 0 -173.5 67.5
t-87.5 180.5h-85l-12 74h87q-1 15 -1 45q0 36 2 54h-84z" />
    <glyph glyph-name="yen.tab" horiz-adv-x="600" 
d="M506 84h-164v-84h-90v84h-157l-10 73h167v79h-164v74h148l-209 386l91 21l182 -352l178 345h99l-219 -400h141l11 -74h-168v-79h164v-73z" />
    <glyph glyph-name="cent.tab" horiz-adv-x="600" 
d="M179 355q0 -130 92 -164l54 340q-67 -2 -106.5 -47t-39.5 -129zM424 704l-17 -101q54 -9 98 -38l-13 -89q-48 37 -100 49l-55 -345h6q47 0 81.5 11t72.5 42l12 -82q-71 -52 -178 -52h-7l-17 -110l-69 16l17 104q-77 21 -121.5 84t-44.5 160q0 122 68 189.5t176 67.5h4
l18 109z" />
    <glyph glyph-name="florin.tab" horiz-adv-x="600" 
d="M98 398l13 78h129l12 70q27 172 195 172q52 0 102 -12v-86q-51 15 -95 15q-52 0 -76.5 -24.5t-34.5 -79.5l-9 -55h182v-78h-195l-66 -398h-93l65 398h-129z" />
    <glyph glyph-name="numbersign.tab" horiz-adv-x="600" 
d="M242 449l-31 -188h146l31 188h-146zM505 701l-28 -171h102v-81h-116l-31 -188h111l14 -81h-138l-30 -182h-75l30 182h-146l-31 -187l-73 16l28 171h-101v81h114l31 188h-110l-14 81h138l30 182h76l-30 -182h146l31 187z" />
    <glyph glyph-name="paragraph.tab" horiz-adv-x="600" 
d="M500 0h-85v639h-78v-152l-36 -210q-120 5 -187 60t-67 160q0 101 68 157t188 56h197v-710z" />
    <glyph glyph-name="section.tab" horiz-adv-x="600" 
d="M505 273l-77 14q25 44 25 72q0 30 -22 45t-87 28l-60 11q-86 18 -126.5 46.5t-40.5 90.5q0 59 50 98.5t127 39.5q99 0 178 -32l-14 -86q-78 43 -167 43q-40 0 -62.5 -16.5t-22.5 -42.5q0 -24 20 -38t66 -23l99 -21q79 -17 113 -46t34 -79q0 -54 -33 -104zM95 437l77 -14
q-25 -41 -25 -72q0 -30 22 -45t86 -28l60 -11q86 -18 127 -47t41 -90q0 -59 -50 -98.5t-127 -39.5q-101 0 -178 32l14 85q79 -42 166 -42q41 0 63.5 16.5t22.5 41.5t-20.5 39t-66.5 23l-98 21q-79 17 -113 46t-34 79q0 52 33 104z" />
    <glyph glyph-name="degree.tab" horiz-adv-x="600" 
d="M300 343q-84 0 -139 52.5t-55 133.5t55 134.5t139 53.5t139 -53.5t55 -134.5q0 -82 -54.5 -134t-139.5 -52zM300 649q-52 0 -86.5 -34.5t-34.5 -85.5q0 -52 34.5 -85t86.5 -33t86.5 33t34.5 85q0 51 -34.5 85.5t-86.5 34.5z" />
    <glyph glyph-name="quotedbl.tab" horiz-adv-x="600" 
d="M255 710l-26 -261l-57 12l-25 249h108zM452 710l-27 -261l-55 12l-27 249h109z" />
    <glyph glyph-name="quotesingle.tab" horiz-adv-x="300" 
d="M204 710l-26 -261l-56 12l-26 249h108z" />
    <glyph glyph-name="plus.tab" horiz-adv-x="600" 
d="M553 315h-212v-208h-83v208h-211v79h211v209h83v-209h212v-79z" />
    <glyph glyph-name="minus.tab" horiz-adv-x="600" 
d="M553 313h-506v83h506v-83z" />
    <glyph glyph-name="divide.tab" horiz-adv-x="600" 
d="M352 490h-105v113h105v-113zM553 315h-506v79h506v-79zM352 107h-105v113h105v-113z" />
    <glyph glyph-name="equal.tab" horiz-adv-x="600" 
d="M544 430h-487v85h487v-85zM544 195h-487v85h487v-85z" />
    </font>
</defs>
</svg>
