<?xml version="1.0" standalone="no"?>
<!DOCTYPE svg PUBLIC "-//W3C//DTD SVG 1.1//EN" "http://www.w3.org/Graphics/SVG/1.1/DTD/svg11.dtd" >
<svg>
<metadata>
Created by FontForge 20090622 at Tue Feb 14 17:19:02 2017
 By deploy user
Copyright (C) 2010, 2014 Hoefler &#38; Co. http://www.typography.com
</metadata>
<defs>
<font id="WhitneySSm-Semibold" horiz-adv-x="400" >
  <font-face 
    font-family="Whitney SSm Semibold"
    font-weight="375"
    font-stretch="normal"
    units-per-em="1000"
    panose-1="0 0 0 0 0 0 0 0 0 0"
    ascent="800"
    descent="-200"
    x-height="540"
    cap-height="725"
    bbox="-108 -309 1422 1064"
    underline-thickness="50"
    underline-position="-50"
    unicode-range="U+0020-U+FB04"
  />
<missing-glyph horiz-adv-x="520" 
d="M0 -200v1000h520v-1000h-520zM74 750l186 -390l186 390h-372zM468 676l-179 -376l179 -376v752zM52 -76l179 376l-179 376v-752zM260 240l-186 -390h372z" />
    <glyph glyph-name=".notdef" horiz-adv-x="520" 
d="M0 -200v1000h520v-1000h-520zM74 750l186 -390l186 390h-372zM468 676l-179 -376l179 -376v752zM52 -76l179 376l-179 376v-752zM260 240l-186 -390h372z" />
    <glyph glyph-name=".null" horiz-adv-x="0" 
 />
    <glyph glyph-name="nonmarkingreturn" horiz-adv-x="333" 
 />
    <glyph glyph-name="space" unicode=" " horiz-adv-x="253" 
 />
    <glyph glyph-name="exclam" unicode="!" horiz-adv-x="317" 
d="M235 725l-37 -476l-78 -17l-37 493h152zM227 0h-137v151h137v-151z" />
    <glyph glyph-name="quotedbl" unicode="&#x22;" horiz-adv-x="507" 
d="M213 710l-36 -264l-77 17l-34 247h147zM441 710l-36 -264l-77 17l-34 247h147z" />
    <glyph glyph-name="numbersign" unicode="#" horiz-adv-x="739" 
d="M297 441l-29 -172h173l29 172h-173zM599 699l-26 -155h117v-104h-134l-28 -170h125l17 -105h-160l-27 -167h-87l27 167h-172l-28 -173l-85 18l26 155h-116v105h133l29 170h-125l-17 104h159l28 168h87l-28 -168h172l29 174z" />
    <glyph glyph-name="dollar" unicode="$" horiz-adv-x="598" 
d="M176 532q0 -34 22.5 -55.5t81.5 -41.5l29 182h-15q-59 0 -88.5 -22.5t-29.5 -62.5zM433 192q0 37 -22.5 61t-84.5 46l-33 -205h3q137 0 137 98zM408 776l-12 -70q67 -12 121 -37l-17 -108q-66 36 -124 47l-31 -193q106 -34 153.5 -82t47.5 -130q0 -100 -68.5 -154
t-189.5 -54h-8l-19 -123l-73 16l18 113q-89 13 -161 49l16 107q86 -47 165 -58l36 220q-106 34 -152 77t-46 123q0 93 65 144t178 51h14l13 79z" />
    <glyph glyph-name="percent" unicode="%" horiz-adv-x="992" 
d="M412 510q0 -97 -51.5 -153.5t-129.5 -56.5t-129 56.5t-51 152.5q0 97 51 153t129 56t129.5 -55.5t51.5 -152.5zM300 -7l-83 19l240 352l234 353l84 -19l-241 -353zM315 510q0 60 -21.5 96t-62.5 36q-42 0 -63 -36t-21 -97q0 -59 21.5 -95t62.5 -36q42 0 63 36t21 96z
M941 201q0 -97 -51.5 -153t-129.5 -56t-129 56t-51 152q0 98 51 154t129 56t129.5 -56t51.5 -153zM844 201q0 59 -21.5 95t-62.5 36q-42 0 -63 -35.5t-21 -96.5q0 -59 21.5 -95.5t62.5 -36.5q42 0 63 36t21 97z" />
    <glyph glyph-name="ampersand" unicode="&#x26;" horiz-adv-x="748" 
d="M298 91q86 0 149 64l-177 177q-102 -53 -102 -134q0 -47 35.5 -77t94.5 -30zM748 17l-137 -23l-92 89q-94 -96 -232 -96q-115 0 -181 52.5t-66 146.5q0 140 161 217q-37 40 -52.5 75t-15.5 82q0 75 57 126.5t155 51.5q104 0 194 -44l-20 -122q-95 55 -166 55
q-44 0 -67 -19.5t-23 -52.5q0 -26 14.5 -49.5t48.5 -56.5l187 -191q30 69 45 169l109 -24q-21 -132 -76 -226z" />
    <glyph glyph-name="quotesingle" unicode="'" horiz-adv-x="281" 
d="M214 710l-35 -264l-79 17l-34 247h148z" />
    <glyph glyph-name="parenleft" unicode="(" horiz-adv-x="472" 
d="M440 -80l-113 -25q-128 103 -192 209t-64 245q0 296 317 464l17 -103q-98 -71 -144.5 -158t-46.5 -203q0 -118 53.5 -219t172.5 -210z" />
    <glyph glyph-name="parenright" unicode=")" horiz-adv-x="472" 
d="M32 784l113 25q128 -103 192 -209t64 -245q0 -297 -317 -465l-17 103q98 71 144.5 158.5t46.5 203.5q0 118 -53.5 219t-172.5 210z" />
    <glyph glyph-name="asterisk" unicode="*" horiz-adv-x="495" 
d="M447 626l-128 -67l64 -126l-32 -20l-103 94l-105 -94l-31 20l63 126l-127 67l12 35l143 -16l24 134h40l24 -134l144 16z" />
    <glyph glyph-name="plus" unicode="+" horiz-adv-x="636" 
d="M573 305h-202v-198h-105v198h-202v100h202v198h105v-198h202v-100z" />
    <glyph glyph-name="comma" unicode="," horiz-adv-x="288" 
d="M240 160l-131 -317l-75 18l56 299h150z" />
    <glyph glyph-name="hyphen" unicode="-" horiz-adv-x="424" 
d="M362 259h-300v126h300v-126z" />
    <glyph glyph-name="period" unicode="." horiz-adv-x="288" 
d="M216 0h-144v160h144v-160z" />
    <glyph glyph-name="slash" unicode="/" horiz-adv-x="631" 
d="M607 759l-533 -901l-113 24l533 901z" />
    <glyph glyph-name="zero" unicode="0" horiz-adv-x="695" 
d="M641 355q0 -174 -79.5 -271.5t-213.5 -97.5t-214 97.5t-80 271.5t80 271t214 97t213.5 -97t79.5 -271zM508 355q0 127 -41.5 194.5t-118.5 67.5t-119 -68t-42 -194t42 -194t119 -68t118.5 67.5t41.5 194.5z" />
    <glyph glyph-name="one" unicode="1" horiz-adv-x="424" 
d="M327 0h-133v581l-153 -55l-14 104l183 81h117v-711z" />
    <glyph glyph-name="two" unicode="2" horiz-adv-x="603" 
d="M551 0h-500v97l267 261q47 46 67.5 79t20.5 71q0 48 -31 73.5t-88 25.5q-98 0 -200 -78l-18 118q103 75 232 75q110 0 173.5 -54t63.5 -148q0 -65 -31 -117t-103 -120l-186 -173h316z" />
    <glyph glyph-name="three" unicode="3" horiz-adv-x="588" 
d="M537 196q0 -97 -74.5 -153.5t-196.5 -56.5q-127 0 -226 56l20 113q97 -58 202 -58q67 0 104.5 26.5t37.5 76.5q0 114 -178 114h-47l-17 107h65q163 0 163 102q0 42 -32 66t-94 24q-104 0 -194 -64l-18 109q97 65 226 65q119 0 182 -52.5t63 -133.5q0 -122 -134 -166
q148 -41 148 -175z" />
    <glyph glyph-name="four" unicode="4" horiz-adv-x="666" 
d="M636 152h-113v-152h-123v152h-361v88l333 471h151v-462h113v-97zM400 249v327l-237 -327h237z" />
    <glyph glyph-name="five" unicode="5" horiz-adv-x="601" 
d="M553 230q0 -115 -79 -179.5t-205 -64.5q-120 0 -221 52l19 116q98 -56 203 -56q69 0 112 32.5t43 92.5q0 54 -36.5 84.5t-103.5 30.5q-63 0 -119 -21l-88 19l26 374h410l17 -112h-323l-13 -168q60 15 113 15q112 0 178.5 -57.5t66.5 -157.5z" />
    <glyph glyph-name="six" unicode="6" horiz-adv-x="634" 
d="M483 614q-253 -58 -298 -226q84 54 184 54t161 -57t61 -159q0 -106 -75 -173t-188 -67q-124 0 -199 78.5t-75 222.5q0 179 110.5 287.5t301.5 149.5zM330 340q-82 0 -154 -53v-1q1 -93 43 -145t111 -51q60 0 97 34.5t37 94.5q0 121 -134 121z" />
    <glyph glyph-name="seven" unicode="7" horiz-adv-x="595" 
d="M544 607l-288 -614l-128 24l275 579h-345l-17 114h503v-103z" />
    <glyph glyph-name="eight" unicode="8" horiz-adv-x="642" 
d="M50 183q0 117 141 188q-114 61 -114 167q0 84 69.5 134.5t178.5 50.5q112 0 177 -50t65 -131q0 -100 -118 -168q72 -33 107.5 -77t35.5 -111q0 -85 -74.5 -142.5t-196.5 -57.5q-127 0 -199 56.5t-72 140.5zM199 540q0 -41 33.5 -68.5t117.5 -57.5q95 52 95 122
q0 42 -34 68t-90 26q-55 0 -88.5 -25.5t-33.5 -64.5zM175 193q0 -48 41.5 -79t106.5 -31q62 0 102.5 30t40.5 74q0 49 -37.5 78t-141.5 65q-112 -55 -112 -137z" />
    <glyph glyph-name="nine" unicode="9" horiz-adv-x="634" 
d="M142 96q254 49 305 215q-85 -53 -180 -53q-103 0 -163.5 58t-60.5 163q0 109 74 176.5t189 67.5q124 0 199.5 -78t75.5 -222q0 -180 -114 -290t-309 -147zM304 360q82 0 154 51v5q0 97 -42 150.5t-111 53.5q-62 0 -98.5 -35.5t-36.5 -97.5q0 -127 134 -127z" />
    <glyph glyph-name="colon" unicode=":" horiz-adv-x="298" 
d="M221 382h-144v158h144v-158zM221 0h-144v159h144v-159z" />
    <glyph glyph-name="semicolon" unicode=";" horiz-adv-x="298" 
d="M229 382h-144v158h144v-158zM236 159l-131 -316l-75 18l56 298h150z" />
    <glyph glyph-name="less" unicode="&#x3c;" horiz-adv-x="636" 
d="M557 77l-490 233v90l490 233v-112l-365 -165l365 -166v-113z" />
    <glyph glyph-name="equal" unicode="=" horiz-adv-x="658" 
d="M574 425h-489v104h489v-104zM574 181h-489v104h489v-104z" />
    <glyph glyph-name="greater" unicode="&#x3e;" horiz-adv-x="636" 
d="M570 310l-491 -233v112l365 165l-365 166v113l491 -233v-90z" />
    <glyph glyph-name="question" unicode="?" horiz-adv-x="570" 
d="M519 544q0 -84 -53.5 -135.5t-164.5 -90.5l-7 -73l-79 -17l-13 167l36 13q82 29 115.5 57t33.5 71q0 40 -31 63t-83 23q-100 0 -211 -82l-18 123q111 75 242 75q108 0 170.5 -52t62.5 -142zM320 0h-139v154h139v-154z" />
    <glyph glyph-name="at" unicode="@" horiz-adv-x="987" 
d="M711 49q-61 0 -102 26t-53 74q-48 -53 -86.5 -76.5t-81.5 -23.5q-54 0 -89.5 36.5t-35.5 103.5q0 139 83 230.5t193 91.5q85 0 172 -33l-44 -240q-7 -52 -7 -61q0 -31 19 -49t56 -18q63 0 103 62.5t40 171.5q0 158 -93 241.5t-245 83.5q-86 0 -165.5 -35t-138 -95.5
t-93 -146.5t-34.5 -182q0 -165 92.5 -246.5t249.5 -81.5q137 0 252 55l7 -40q-115 -54 -264 -54q-181 0 -284.5 95t-103.5 271q0 134 64.5 249t177 183t245.5 68q174 0 278 -98t104 -266q0 -132 -59.5 -214t-156.5 -82zM428 141q45 0 127 92l35 182q-27 8 -61 8
q-59 0 -106.5 -62t-47.5 -151q0 -69 53 -69z" />
    <glyph glyph-name="A" unicode="A" horiz-adv-x="771" 
d="M29 0l287 728h145l281 -710l-137 -25l-74 193h-296l-68 -186h-138zM383 580l-107 -282h214z" />
    <glyph glyph-name="B" unicode="B" horiz-adv-x="630" 
d="M582 211q0 -105 -74.5 -158t-209.5 -53h-211v725h214q124 0 187 -50t63 -138q0 -107 -110 -152q141 -41 141 -174zM424 525q0 94 -129 94h-77v-193h71q65 0 100 26t35 73zM451 215q0 55 -39.5 84t-114.5 29h-79v-223h82q72 0 111.5 28t39.5 82z" />
    <glyph glyph-name="C" unicode="C" horiz-adv-x="688" 
d="M638 50q-100 -63 -225 -63q-163 0 -259.5 102t-96.5 272q0 169 98.5 272.5t262.5 103.5q121 0 208 -53l-19 -130q-90 65 -185 65q-105 0 -165.5 -69t-60.5 -188q0 -118 61.5 -187t166.5 -69q97 0 195 64z" />
    <glyph glyph-name="D" unicode="D" horiz-adv-x="781" 
d="M723 363q0 -165 -105.5 -264t-294.5 -99h-236v725h236q193 0 296.5 -98.5t103.5 -263.5zM583 362q0 123 -70 186t-191 63h-99v-498h98q125 0 193.5 62t68.5 187z" />
    <glyph glyph-name="E" unicode="E" horiz-adv-x="578" 
d="M532 0h-445v725h434v-117h-299v-175h231l19 -115h-250v-202h310v-116z" />
    <glyph glyph-name="F" unicode="F" horiz-adv-x="545" 
d="M505 606h-282v-187h217l20 -118h-237v-301h-136v725h418v-119z" />
    <glyph glyph-name="G" unicode="G" horiz-adv-x="766" 
d="M691 60q-117 -74 -264 -74q-176 0 -273 102t-97 273q0 170 99 273.5t268 103.5q132 0 231 -58l-20 -127q-99 68 -210 68t-170 -69.5t-59 -189.5t61 -190t175 -70q73 0 133 30v163h-157l-17 110h300v-345z" />
    <glyph glyph-name="H" unicode="H" horiz-adv-x="783" 
d="M696 0h-137v315h-335v-315h-137v725h137v-288h335v288h137v-725z" />
    <glyph glyph-name="I" unicode="I" horiz-adv-x="322" 
d="M230 0h-138v725h138v-725z" />
    <glyph glyph-name="J" unicode="J" horiz-adv-x="440" 
d="M359 198q0 -105 -61.5 -155t-167.5 -50q-50 0 -83 7l-20 119q42 -10 86 -10q109 0 109 107v509h137v-527z" />
    <glyph glyph-name="K" unicode="K" horiz-adv-x="696" 
d="M686 19l-150 -26l-312 360v-353h-137v725h137v-319l283 319h165l-311 -340z" />
    <glyph glyph-name="L" unicode="L" horiz-adv-x="531" 
d="M500 0h-413v725h137v-603h257z" />
    <glyph glyph-name="M" unicode="M" horiz-adv-x="994" 
d="M927 0h-135l-42 538l-199 -540h-122l-199 540l-41 -538h-123l59 725h173l201 -550l201 550h170z" />
    <glyph glyph-name="N" unicode="N" horiz-adv-x="782" 
d="M695 0h-113l-368 503v-503h-127v725h129l352 -479v479h127v-725z" />
    <glyph glyph-name="O" unicode="O" horiz-adv-x="822" 
d="M766 363q0 -168 -97.5 -272.5t-258.5 -104.5q-160 0 -256.5 103.5t-96.5 271.5q0 169 97 273t258 104t257.5 -103t96.5 -272zM627 362q0 120 -58 191t-158 71t-157.5 -70.5t-57.5 -191.5q0 -120 58 -190.5t157 -70.5q100 0 158 70.5t58 190.5z" />
    <glyph glyph-name="P" unicode="P" horiz-adv-x="616" 
d="M579 503q0 -114 -77.5 -174t-209.5 -60h-69v-269h-136v725h218q129 0 201.5 -57.5t72.5 -164.5zM444 500q0 114 -147 114h-74v-235h69q152 0 152 121z" />
    <glyph glyph-name="Q" unicode="Q" horiz-adv-x="823" 
d="M766 368q0 -124 -57 -211t-156 -125l202 -64l-26 -118l-416 146q-256 90 -256 365q0 169 97 273t258 104t257.5 -101t96.5 -269zM627 362q0 119 -58.5 190.5t-157.5 71.5q-100 0 -157.5 -71.5t-57.5 -190.5q0 -120 58 -193t157 -73q100 0 158 73t58 193z" />
    <glyph glyph-name="R" unicode="R" horiz-adv-x="655" 
d="M637 19l-144 -26l-204 286h-66v-279h-136v725h230q126 0 197 -56.5t71 -160.5q0 -153 -157 -203zM449 500q0 55 -36.5 84.5t-105.5 29.5h-85v-230h77q71 0 110.5 30t39.5 86z" />
    <glyph glyph-name="S" unicode="S" horiz-adv-x="590" 
d="M541 206q0 -102 -70 -158t-183 -56q-126 0 -233 50l20 126q112 -65 216 -65q53 0 85.5 23.5t32.5 65.5q0 41 -27.5 65t-111.5 57q-115 46 -160 91t-45 126q0 93 67.5 147.5t174.5 54.5q111 0 195 -45l-20 -123q-89 56 -176 56q-54 0 -81.5 -21.5t-27.5 -56.5t26.5 -58
t105.5 -54q119 -47 165.5 -95t46.5 -130z" />
    <glyph glyph-name="T" unicode="T" horiz-adv-x="669" 
d="M642 605h-238v-605h-137v605h-231v120h586z" />
    <glyph glyph-name="U" unicode="U" horiz-adv-x="764" 
d="M685 283q0 -141 -82.5 -218.5t-222.5 -77.5t-221 76.5t-81 216.5v445h137v-438q0 -85 42 -133t124 -48t124.5 46.5t42.5 132.5v440h137v-442z" />
    <glyph glyph-name="V" unicode="V" horiz-adv-x="760" 
d="M730 725l-284 -730h-138l-279 712l144 25l210 -558l203 551h144z" />
    <glyph glyph-name="W" unicode="W" horiz-adv-x="1114" 
d="M1078 725l-219 -727h-129l-175 532l-175 -532h-127l-215 708l144 26l147 -522l165 515h138l165 -515l143 515h138z" />
    <glyph glyph-name="X" unicode="X" horiz-adv-x="719" 
d="M689 18l-144 -25l-191 290l-182 -283h-145l250 373l-225 333l142 26l168 -261l161 254h146l-230 -343z" />
    <glyph glyph-name="Y" unicode="Y" horiz-adv-x="722" 
d="M702 725l-274 -447v-278h-137v277l-266 431l143 24l196 -328l189 321h149z" />
    <glyph glyph-name="Z" unicode="Z" horiz-adv-x="670" 
d="M626 0h-576v100l400 512h-365l-17 113h548v-101l-400 -511h392z" />
    <glyph glyph-name="bracketleft" unicode="[" horiz-adv-x="491" 
d="M439 -116h-339v889h331v-89h-206v-712h200z" />
    <glyph glyph-name="backslash" unicode="\" horiz-adv-x="631" 
d="M670 -119l-113 -24l-533 901l112 24z" />
    <glyph glyph-name="bracketright" unicode="]" horiz-adv-x="491" 
d="M51 773h340v-889h-332v88h207v712h-200z" />
    <glyph glyph-name="asciicircum" unicode="^" horiz-adv-x="540" 
d="M448 613h-83l-95 73l-95 -73h-83l117 161h122z" />
    <glyph glyph-name="underscore" unicode="_" horiz-adv-x="541" 
d="M539 -116h-537v78h537v-78z" />
    <glyph glyph-name="grave" unicode="`" horiz-adv-x="540" 
d="M386 613h-87l-163 139l160 30z" />
    <glyph glyph-name="a" unicode="a" horiz-adv-x="596" 
d="M390 149v121q-120 -13 -167 -43.5t-47 -74.5q0 -29 20 -46.5t54 -17.5q73 0 140 61zM520 0h-110l-12 70q-85 -81 -190 -81q-74 0 -118 40t-44 110q0 96 82.5 144t261.5 65v17q0 81 -100 81q-85 0 -190 -43l-16 104q112 44 222 44t162 -42.5t52 -137.5v-371z" />
    <glyph glyph-name="b" unicode="b" horiz-adv-x="636" 
d="M586 285q0 -145 -75 -218.5t-205 -73.5q-113 0 -228 36v759l131 21v-330q75 73 162 73q95 0 155 -68t60 -199zM455 278q0 76 -31.5 117t-83.5 41q-64 0 -131 -72v-249q42 -14 95 -14q151 0 151 177z" />
    <glyph glyph-name="c" unicode="c" horiz-adv-x="548" 
d="M502 41q-80 -52 -188 -52q-119 0 -192.5 74.5t-73.5 204.5q0 135 77 209t197 74q99 0 174 -46l-18 -118q-75 51 -150 51q-67 0 -107.5 -43.5t-40.5 -123.5q0 -82 42 -125.5t110 -43.5q81 0 152 52z" />
    <glyph glyph-name="d" unicode="d" horiz-adv-x="640" 
d="M431 182v235q-54 24 -115 24t-98 -45.5t-37 -132.5q0 -77 31.5 -117.5t83.5 -40.5q71 0 135 77zM562 0h-111l-12 75q-77 -86 -175 -86q-95 0 -155 68t-60 198q0 143 71 217t178 74q72 0 133 -21v263l131 21v-809z" />
    <glyph glyph-name="e" unicode="e" horiz-adv-x="595" 
d="M545 56q-96 -67 -224 -67q-124 0 -198.5 70.5t-74.5 210.5q0 129 71.5 205.5t183.5 76.5q120 0 181.5 -77t61.5 -198q0 -24 -1 -32h-367q10 -154 156 -154q96 0 195 68zM300 460q-47 0 -79 -33.5t-40 -97.5h237q-16 131 -118 131z" />
    <glyph glyph-name="f" unicode="f" horiz-adv-x="385" 
d="M373 690q-35 5 -57 5q-76 0 -76 -68v-87h110l16 -107h-126v-433h-129v433h-83v107h83v100q0 162 190 162q22 0 54 -4z" />
    <glyph glyph-name="g" unicode="g" horiz-adv-x="613" 
d="M386 364q0 44 -29 73t-76 29t-74.5 -30t-27.5 -76q0 -44 28 -72t74 -28q48 0 76.5 29.5t28.5 74.5zM577 -25q0 -83 -83 -131t-209 -48q-119 0 -193 35t-74 100q0 72 108 129q-32 23 -32 58q0 46 69 84q-50 23 -78.5 64.5t-28.5 94.5q0 86 64.5 138t159.5 52q94 0 157 -49
l139 46l18 -106l-103 -7q16 -35 16 -71q0 -85 -64.5 -135.5t-158.5 -50.5q-24 0 -47 3q-24 -16 -24 -29t20 -19.5t89 -16.5l66 -7q93 -13 141 -44t48 -90zM283 15q-63 8 -85 13q-65 -40 -65 -83q0 -32 41.5 -51t119.5 -19q74 0 117.5 20.5t43.5 52.5q0 23 -22.5 36.5
t-76.5 21.5z" />
    <glyph glyph-name="h" unicode="h" horiz-adv-x="630" 
d="M554 0h-131v355q0 81 -76 81q-65 0 -138 -70v-366h-131v788l131 21v-338q93 81 183 81q78 0 120 -43t42 -120v-389z" />
    <glyph glyph-name="i" unicode="i" horiz-adv-x="301" 
d="M229 708q0 -33 -22.5 -54.5t-55.5 -21.5t-56.5 21.5t-23.5 54.5t23.5 54.5t56.5 21.5t55.5 -21.5t22.5 -54.5zM216 0h-131v540h131v-540z" />
    <glyph glyph-name="j" unicode="j" horiz-adv-x="301" 
d="M229 708q0 -33 -22.5 -54.5t-55.5 -21.5t-56.5 21.5t-23.5 54.5t23.5 54.5t56.5 21.5t55.5 -21.5t22.5 -54.5zM216 -44q0 -82 -44.5 -121t-123.5 -39q-35 0 -53 4l-17 108q22 -5 45 -5q62 0 62 63v574h131v-584z" />
    <glyph glyph-name="k" unicode="k" horiz-adv-x="581" 
d="M566 12l-139 -20l-218 278v-270h-131v788l131 21v-493l193 224h151l-217 -243z" />
    <glyph glyph-name="l" unicode="l" horiz-adv-x="301" 
d="M216 0h-131v788l131 21v-809z" />
    <glyph glyph-name="m" unicode="m" horiz-adv-x="961" 
d="M886 0h-131v355q0 81 -74 81q-61 0 -133 -70v-366h-131v355q0 81 -74 81q-61 0 -134 -70v-366h-131v540h110l13 -76q97 88 188 88q113 0 146 -88q95 88 191 88q79 0 119.5 -43t40.5 -120v-389z" />
    <glyph glyph-name="n" unicode="n" horiz-adv-x="630" 
d="M554 0h-131v355q0 81 -76 81q-65 0 -138 -70v-366h-131v540h110l13 -76q99 88 191 88q78 0 120 -43t42 -120v-389z" />
    <glyph glyph-name="o" unicode="o" horiz-adv-x="625" 
d="M577 270q0 -129 -74.5 -205t-191.5 -76q-116 0 -189.5 75.5t-73.5 205.5t73.5 206t189.5 76q117 0 191.5 -76t74.5 -206zM448 270q0 77 -36.5 126t-100.5 49t-99 -48t-35 -127q0 -77 35.5 -125.5t98.5 -48.5q66 0 101.5 47.5t35.5 126.5z" />
    <glyph glyph-name="p" unicode="p" horiz-adv-x="640" 
d="M459 278q0 77 -31.5 117.5t-84.5 40.5q-69 0 -134 -78v-235q52 -23 115 -23q61 0 98 45.5t37 132.5zM591 285q0 -143 -71 -217t-178 -74q-72 0 -133 21v-204l-131 -19v748h110l13 -74q80 86 175 86q94 0 154.5 -68t60.5 -199z" />
    <glyph glyph-name="q" unicode="q" horiz-adv-x="636" 
d="M557 -189l-131 -19v269q-74 -72 -162 -72q-95 0 -155 68t-60 198q0 145 75.5 218.5t204.5 73.5q118 0 228 -36v-700zM426 177v247q-44 16 -95 16q-150 0 -150 -177q0 -78 31 -118t83 -40q66 0 131 72z" />
    <glyph glyph-name="r" unicode="r" horiz-adv-x="435" 
d="M411 422q-64 -4 -117.5 -34.5t-84.5 -76.5v-311h-131v540h110l18 -108q70 113 184 120z" />
    <glyph glyph-name="s" unicode="s" horiz-adv-x="536" 
d="M490 158q0 -80 -58 -124.5t-167 -44.5q-115 0 -217 52l17 110q100 -63 205 -63q47 0 73 15.5t26 42.5q0 30 -24.5 45t-95.5 32q-105 26 -148 62t-43 108q0 70 55 114t150 44q107 0 194 -38l-18 -109q-91 48 -177 48q-83 0 -83 -50q0 -23 23 -38t86 -30q112 -28 157 -65
t45 -111z" />
    <glyph glyph-name="t" unicode="t" horiz-adv-x="414" 
d="M374 0q-38 -9 -87 -9q-87 0 -133.5 36.5t-46.5 123.5v282h-81v107h81v172l129 20v-192h117l17 -107h-134v-260q0 -68 75 -68q30 0 47 4z" />
    <glyph glyph-name="u" unicode="u" horiz-adv-x="630" 
d="M551 0h-110l-13 76q-96 -87 -190 -87q-79 0 -121 42.5t-42 119.5v389h131v-354q0 -81 77 -81q65 0 137 70v365h131v-540z" />
    <glyph glyph-name="v" unicode="v" horiz-adv-x="576" 
d="M552 540l-200 -543h-129l-197 533l137 18l130 -388l127 380h132z" />
    <glyph glyph-name="w" unicode="w" horiz-adv-x="856" 
d="M827 540l-172 -542h-119l-109 364l-108 -364h-118l-171 533l132 17l106 -370l107 362h115l108 -362l103 362h126z" />
    <glyph glyph-name="x" unicode="x" horiz-adv-x="572" 
d="M540 9l-133 -17l-126 198l-118 -190h-131l180 271l-170 259l134 18l114 -183l109 175h130l-170 -257z" />
    <glyph glyph-name="y" unicode="y" horiz-adv-x="586" 
d="M562 540l-220 -577q-34 -93 -83 -130t-126 -37q-29 0 -53 6l-18 111q32 -9 60 -9q69 0 99 69l11 25l-206 532l136 18l136 -388l131 380h133z" />
    <glyph glyph-name="z" unicode="z" horiz-adv-x="545" 
d="M503 0h-461v100l291 336h-262l-16 104h435v-100l-292 -335h288z" />
    <glyph glyph-name="braceleft" unicode="{" horiz-adv-x="580" 
d="M527 -116h-154q-86 0 -129.5 38t-43.5 108q0 26 7.5 76t7.5 76q0 103 -120 103h-36l-15 87h52q119 0 119 103q0 26 -7.5 76t-7.5 75q0 71 43.5 109t129.5 38h147v-89h-114q-79 0 -79 -67q0 -22 8 -70.5t8 -74.5q0 -63 -32 -96t-93 -47v-2q61 -13 93 -46t32 -97
q0 -24 -8 -73.5t-8 -71.5q0 -67 79 -67h106z" />
    <glyph glyph-name="bar" unicode="|" horiz-adv-x="336" 
d="M224 -190l-113 -18v999l113 18v-999z" />
    <glyph glyph-name="braceright" unicode="}" horiz-adv-x="580" 
d="M52 773h153q86 0 130 -38.5t44 -108.5q0 -26 -8 -76t-8 -75q0 -104 120 -104h37l14 -87h-51q-120 0 -120 -102q0 -26 8 -76t8 -76q0 -71 -43.5 -108.5t-130.5 -37.5h-147v88h114q79 0 79 67q0 22 -8 70.5t-8 74.5q0 63 32 96t94 47v2q-62 13 -94 46t-32 97q0 25 8 74
t8 71q0 67 -78 67h-107z" />
    <glyph glyph-name="asciitilde" unicode="~" horiz-adv-x="487" 
d="M430 386q-19 -140 -103 -140q-32 0 -83 24q-54 26 -76 26q-14 0 -23 -11.5t-15 -42.5l-73 15q19 141 103 141q31 0 82 -24q57 -26 78 -26q24 0 37 54z" />
    <glyph glyph-name="uni00A0" unicode="&#xa0;" horiz-adv-x="138" 
 />
    <glyph glyph-name="exclamdown" unicode="&#xa1;" horiz-adv-x="317" 
d="M227 573h-137v152h137v-152zM235 0h-152l36 476l78 17z" />
    <glyph glyph-name="cent" unicode="&#xa2;" horiz-adv-x="544" 
d="M170 354q0 -114 86 -146l49 304q-64 -3 -99.5 -43.5t-35.5 -114.5zM491 145q-77 -49 -181 -49v-1l-17 -106l-75 17l16 98q-84 21 -133 85.5t-49 163.5q0 122 73.5 191t188.5 69h3l18 106l75 -16l-17 -97q49 -9 94 -35l-16 -106q-51 33 -98 42l-50 -309h1q84 0 153 47z
" />
    <glyph glyph-name="sterling" unicode="&#xa3;" horiz-adv-x="605" 
d="M56 404h106l45 134q32 98 89 141.5t154 43.5q54 0 102 -12l-16 -113q-36 11 -83 11q-50 0 -79.5 -25t-49.5 -84l-33 -96h168l17 -106h-220l-64 -189h347l18 -109h-501v88l70 210h-70v106z" />
    <glyph glyph-name="yen" unicode="&#xa5;" horiz-adv-x="692" 
d="M101 235v76h156l-232 383l136 23l187 -328l181 321h140l-243 -399h151l12 -76h-183v-74h178v-76h-178v-85h-128v85h-170l-13 76h183v74h-177z" />
    <glyph glyph-name="section" unicode="&#xa7;" horiz-adv-x="609" 
d="M561 380q0 -54 -35 -102l-95 16q20 35 20 59t-20.5 37.5t-77.5 26.5l-72 15q-86 19 -127 50t-41 92q0 65 52.5 104.5t134.5 39.5q98 0 179 -30l-16 -96q-79 38 -159 38q-35 0 -54.5 -13.5t-19.5 -33.5t17.5 -31.5t60.5 -20.5l97 -22q85 -20 120.5 -48.5t35.5 -80.5z
M48 330q0 52 35 102l96 -16q-21 -33 -21 -59q0 -25 20 -38t78 -26l73 -16q86 -19 126.5 -49.5t40.5 -91.5q0 -65 -52 -104.5t-135 -39.5q-100 0 -179 30l16 96q81 -38 160 -38q35 0 54.5 13.5t19.5 33.5t-18 31.5t-61 20.5l-97 22q-84 19 -120 48t-36 81z" />
    <glyph glyph-name="dieresis" unicode="&#xa8;" horiz-adv-x="540" 
d="M226 616h-129v127h129v-127zM444 616h-129v127h129v-127z" />
    <glyph glyph-name="copyright" unicode="&#xa9;" horiz-adv-x="887" 
d="M823 363q0 -167 -106 -272t-274 -105q-169 0 -274 104t-105 271q0 168 105.5 272.5t274.5 104.5t274 -103.5t105 -271.5zM776 362q0 159 -93.5 248.5t-238.5 89.5q-148 0 -240.5 -89.5t-92.5 -248.5q0 -158 93.5 -248t239.5 -90t239 90t93 248zM597 190q-63 -38 -138 -38
q-96 0 -154 58.5t-58 154.5q0 95 59 154.5t153 59.5q70 0 131 -32l-13 -86q-56 38 -115 38q-55 0 -87.5 -36.5t-32.5 -96.5q0 -61 33.5 -97.5t89.5 -36.5t120 39z" />
    <glyph glyph-name="ordfeminine" unicode="&#xaa;" horiz-adv-x="437" 
d="M275 468v70q-128 -16 -128 -68q0 -37 42 -37q45 0 86 35zM362 373h-75l-7 41q-54 -47 -118 -47q-46 0 -73.5 25t-27.5 68q0 58 51 88.5t163 40.5v9q0 48 -63 48q-51 0 -117 -28l-11 69q69 28 142 28q136 0 136 -112v-230zM372 233h-307v69h296z" />
    <glyph glyph-name="guillemotleft" unicode="&#xab;" horiz-adv-x="645" 
d="M590 540l-152 -269l146 -258l-95 -20l-195 278l191 269h105zM336 540l-153 -269l147 -258l-95 -20l-196 278l192 269h105z" />
    <glyph glyph-name="registered" unicode="&#xae;" horiz-adv-x="668" 
d="M599 526q0 -115 -74.5 -187t-190.5 -72q-119 0 -192.5 71.5t-73.5 187.5t74.5 188.5t191.5 72.5q118 0 191.5 -72t73.5 -189zM562 526q0 108 -64.5 169.5t-163.5 61.5t-164 -61.5t-65 -169.5q0 -106 65 -167.5t164 -61.5t163.5 61.5t64.5 167.5zM469 400l-66 -12l-81 114
h-24v-110h-63v287h100q52 0 81 -22.5t29 -63.5q0 -60 -59 -80zM382 588q0 41 -51 41h-34v-82h32q53 0 53 41z" />
    <glyph glyph-name="macron" unicode="&#xaf;" horiz-adv-x="540" 
d="M434 632h-328v97h328v-97z" />
    <glyph glyph-name="degree" unicode="&#xb0;" horiz-adv-x="486" 
d="M430 535q0 -78 -52.5 -128.5t-134.5 -50.5t-135 50.5t-53 128.5t53 129.5t135 51.5q81 0 134 -51.5t53 -129.5zM347 535q0 45 -29.5 75t-74.5 30t-74.5 -30t-29.5 -75t29.5 -73.5t74.5 -28.5q46 0 75 28.5t29 73.5z" />
    <glyph glyph-name="plusminus" unicode="&#xb1;" horiz-adv-x="601" 
d="M511 383h-159v-157h-103v157h-159v95h159v158h103v-158h159v-95zM544 81h-487v96h487v-96z" />
    <glyph glyph-name="two.sup" unicode="&#xb2;" 
d="M369 458h-332v78l161 136q30 25 41.5 40t11.5 35q0 22 -17.5 34t-45.5 12q-56 0 -129 -43l-13 88q77 43 157 43q72 0 113.5 -34.5t41.5 -86.5q0 -39 -21 -68.5t-69 -68.5l-105 -81h190z" />
    <glyph glyph-name="three.sup" unicode="&#xb3;" 
d="M364 571q0 -57 -50 -89.5t-130 -32.5q-88 0 -152 33l14 80q67 -32 136 -32q36 0 57.5 14t21.5 37q0 28 -25.5 39.5t-84.5 11.5h-36l-13 75h52q99 0 99 49q0 43 -68 43q-70 0 -132 -36l-14 80q76 38 153 38q79 0 121 -29t42 -80q0 -72 -93 -100q102 -25 102 -101z" />
    <glyph glyph-name="acute" unicode="&#xb4;" horiz-adv-x="540" 
d="M403 752l-163 -139h-86l90 169z" />
    <glyph glyph-name="mu" unicode="&#xb5;" horiz-adv-x="663" 
d="M78 -208v748h131v-359q0 -76 77 -76q65 0 137 70v365h131v-400q0 -40 41 -40q19 0 36 7l-15 -104q-30 -9 -67 -9q-96 0 -118 78q-79 -79 -164 -79q-47 0 -78 25q17 -61 17 -161v-46z" />
    <glyph glyph-name="paragraph" unicode="&#xb6;" horiz-adv-x="603" 
d="M513 0h-91v638h-76v-160l-38 -220q-124 4 -194.5 62t-70.5 166q0 106 71.5 165t196.5 59h202v-710z" />
    <glyph glyph-name="periodcentered" unicode="&#xb7;" horiz-adv-x="287" 
d="M215 241h-143v160h143v-160z" />
    <glyph glyph-name="cedilla" unicode="&#xb8;" horiz-adv-x="540" 
d="M378 -96l-151 -119h-87l80 150z" />
    <glyph glyph-name="one.sup" unicode="&#xb9;" 
d="M369 458h-311v80h108v245l-104 -37l-12 79l141 54h74v-341h90z" />
    <glyph glyph-name="ordmasculine" unicode="&#xba;" horiz-adv-x="440" 
d="M389 540q0 -80 -47 -126.5t-123 -46.5q-74 0 -121 46.5t-47 126.5t47 127.5t121 47.5q75 0 122.5 -47.5t47.5 -127.5zM299 540q0 46 -20.5 74t-59.5 28q-38 0 -58 -28t-20 -74q0 -45 20.5 -73t57.5 -28q39 0 59.5 28t20.5 73zM382 233h-319v69h307z" />
    <glyph glyph-name="guillemotright" unicode="&#xbb;" horiz-adv-x="645" 
d="M351 270l-191 -270h-106l153 270l-146 257l94 21zM605 270l-191 -270h-106l154 270l-147 257l95 21z" />
    <glyph glyph-name="onequarter" unicode="&#xbc;" horiz-adv-x="900" 
d="M361 324h-292v76h102v229l-97 -35l-12 74l132 52h71v-320h84zM289 -12l-70 19l229 357l217 354l70 -19l-229 -356zM856 76h-58v-80h-88v80h-194v62l162 254h120v-250h58v-66zM715 141v81l4 104h-7l-36 -68l-43 -66l-35 -50l3 -4l55 3h59z" />
    <glyph glyph-name="onehalf" unicode="&#xbd;" horiz-adv-x="900" 
d="M361 324h-292v76h102v229l-97 -35l-12 74l132 52h71v-320h84zM273 -12l-70 19l229 357l217 354l70 -19l-229 -356zM857 0h-313v74l152 128q28 23 38.5 37t10.5 32q0 20 -16 31.5t-42 11.5q-55 0 -121 -40l-13 83q71 40 147 40q68 0 107 -32t39 -81q0 -37 -20 -65t-65 -64
l-96 -75h177z" />
    <glyph glyph-name="threequarters" unicode="&#xbe;" horiz-adv-x="900" 
d="M278 -12l-70 19l229 357l217 354l70 -19l-229 -356zM357 430q0 -53 -46.5 -83.5t-122.5 -30.5q-84 0 -143 31l13 76q63 -30 128 -30q34 0 54 12.5t20 34.5q0 25 -23.5 36t-79.5 11h-34l-12 71h48q93 0 93 45q0 40 -64 40t-123 -33l-13 76q72 35 144 35q73 0 113 -27.5
t40 -74.5q0 -68 -87 -94q95 -24 95 -95zM856 76h-58v-80h-88v80h-194v62l162 254h120v-250h58v-66zM715 141v81l4 104h-7l-36 -68l-43 -66l-35 -50l3 -4l55 3h59z" />
    <glyph glyph-name="questiondown" unicode="&#xbf;" horiz-adv-x="570" 
d="M250 725h139v-154h-139v154zM51 181q0 84 53.5 135.5t164.5 90.5l7 73l79 17l13 -167l-36 -13q-82 -29 -115.5 -57t-33.5 -71q0 -40 31 -63t83 -23q100 0 211 82l18 -123q-111 -75 -242 -75q-108 0 -170.5 52t-62.5 142z" />
    <glyph glyph-name="Agrave" unicode="&#xc0;" horiz-adv-x="771" 
d="M438 795h-82l-154 131l153 28zM29 0l287 728h145l281 -710l-137 -25l-74 193h-296l-68 -186h-138zM383 580l-107 -282h214z" />
    <glyph glyph-name="Aacute" unicode="&#xc1;" horiz-adv-x="771" 
d="M570 926l-153 -131h-82l84 159zM29 0l287 728h145l281 -710l-137 -25l-74 193h-296l-68 -186h-138zM383 580l-107 -282h214z" />
    <glyph glyph-name="Acircumflex" unicode="&#xc2;" horiz-adv-x="771" 
d="M554 795h-79l-89 69l-88 -69h-79l109 152h117zM29 0l287 728h145l281 -710l-137 -25l-74 193h-296l-68 -186h-138zM383 580l-107 -282h214z" />
    <glyph glyph-name="Atilde" unicode="&#xc3;" horiz-adv-x="771" 
d="M566 929q-17 -132 -96 -132q-28 0 -79 23q-52 24 -71 24q-25 0 -35 -50l-69 14q17 132 96 132q31 0 78 -22q50 -24 71 -24q13 0 21 11t15 39zM29 0l287 728h145l281 -710l-137 -25l-74 193h-296l-68 -186h-138zM383 580l-107 -282h214z" />
    <glyph glyph-name="Adieresis" unicode="&#xc4;" horiz-adv-x="771" 
d="M345 798h-122v121h122v-121zM550 798h-122v121h122v-121zM29 0l287 728h145l281 -710l-137 -25l-74 193h-296l-68 -186h-138zM383 580l-107 -282h214z" />
    <glyph glyph-name="Aring" unicode="&#xc5;" horiz-adv-x="771" 
d="M513 765q0 -49 -35 -79l264 -668l-136 -25l-74 193h-298l-69 -186h-136l268 682q-38 30 -38 83q0 48 35 79.5t92 31.5t92 -31.5t35 -79.5zM445 765q0 26 -16.5 44t-42.5 18t-43 -18t-17 -44t17 -43.5t43 -17.5t42.5 17.5t16.5 43.5zM383 580l-107 -282h214z" />
    <glyph glyph-name="AE" unicode="&#xc6;" horiz-adv-x="990" 
d="M319 298h183v329zM7 0l417 725h509v-117h-301v-175h233l18 -115h-251v-202h312v-116h-442v186h-245l-107 -186h-143z" />
    <glyph glyph-name="Ccedilla" unicode="&#xc7;" horiz-adv-x="688" 
d="M638 50q-100 -63 -225 -63q-163 0 -259.5 102t-96.5 272q0 169 98.5 272.5t262.5 103.5q121 0 208 -53l-19 -130q-90 65 -185 65q-105 0 -165.5 -69t-60.5 -188q0 -118 61.5 -187t166.5 -69q97 0 195 64zM487 -96l-143 -113h-82l75 142z" />
    <glyph glyph-name="Egrave" unicode="&#xc8;" horiz-adv-x="578" 
d="M359 784h-82l-154 131l153 28zM532 0h-445v725h434v-117h-299v-175h231l19 -115h-250v-202h310v-116z" />
    <glyph glyph-name="Eacute" unicode="&#xc9;" horiz-adv-x="578" 
d="M491 915l-153 -131h-82l84 159zM532 0h-445v725h434v-117h-299v-175h231l19 -115h-250v-202h310v-116z" />
    <glyph glyph-name="Ecircumflex" unicode="&#xca;" horiz-adv-x="578" 
d="M475 784h-79l-89 69l-88 -69h-79l109 152h117zM532 0h-445v725h434v-117h-299v-175h231l19 -115h-250v-202h310v-116z" />
    <glyph glyph-name="Edieresis" unicode="&#xcb;" horiz-adv-x="578" 
d="M266 787h-122v121h122v-121zM471 787h-122v121h122v-121zM532 0h-445v725h434v-117h-299v-175h231l19 -115h-250v-202h310v-116z" />
    <glyph glyph-name="Igrave" unicode="&#xcc;" horiz-adv-x="322" 
d="M212 784h-82l-154 131l153 28zM230 0h-138v725h138v-725z" />
    <glyph glyph-name="Iacute" unicode="&#xcd;" horiz-adv-x="322" 
d="M344 915l-153 -131h-82l84 159zM230 0h-138v725h138v-725z" />
    <glyph glyph-name="Icircumflex" unicode="&#xce;" horiz-adv-x="322" 
d="M328 784h-79l-89 69l-88 -69h-79l109 152h117zM230 0h-138v725h138v-725z" />
    <glyph glyph-name="Idieresis" unicode="&#xcf;" horiz-adv-x="322" 
d="M119 787h-122v121h122v-121zM324 787h-122v121h122v-121zM230 0h-138v725h138v-725z" />
    <glyph glyph-name="Eth" unicode="&#xd0;" horiz-adv-x="805" 
d="M747 363q0 -165 -105.5 -264t-294.5 -99h-236v317h-77l-20 118h97v290h236q193 0 296.5 -98.5t103.5 -263.5zM608 362q0 123 -70.5 186t-191.5 63h-100v-178h160v-115h-160v-205h99q126 0 194.5 62t68.5 187z" />
    <glyph glyph-name="Ntilde" unicode="&#xd1;" horiz-adv-x="782" 
d="M570 911q-17 -132 -96 -132q-28 0 -79 23q-52 24 -71 24q-25 0 -35 -50l-69 14q17 132 96 132q31 0 78 -22q50 -24 71 -24q13 0 21 11t15 39zM695 0h-113l-368 503v-503h-127v725h129l352 -479v479h127v-725z" />
    <glyph glyph-name="Ograve" unicode="&#xd2;" horiz-adv-x="822" 
d="M463 795h-82l-154 131l153 28zM766 363q0 -168 -97.5 -272.5t-258.5 -104.5q-160 0 -256.5 103.5t-96.5 271.5q0 169 97 273t258 104t257.5 -103t96.5 -272zM627 362q0 120 -58 191t-158 71t-157.5 -70.5t-57.5 -191.5q0 -120 58 -190.5t157 -70.5q100 0 158 70.5
t58 190.5z" />
    <glyph glyph-name="Oacute" unicode="&#xd3;" horiz-adv-x="822" 
d="M594 926l-153 -131h-82l84 159zM766 363q0 -168 -97.5 -272.5t-258.5 -104.5q-160 0 -256.5 103.5t-96.5 271.5q0 169 97 273t258 104t257.5 -103t96.5 -272zM627 362q0 120 -58 191t-158 71t-157.5 -70.5t-57.5 -191.5q0 -120 58 -190.5t157 -70.5q100 0 158 70.5
t58 190.5z" />
    <glyph glyph-name="Ocircumflex" unicode="&#xd4;" horiz-adv-x="822" 
d="M578 795h-79l-89 69l-88 -69h-79l109 152h117zM766 363q0 -168 -97.5 -272.5t-258.5 -104.5q-160 0 -256.5 103.5t-96.5 271.5q0 169 97 273t258 104t257.5 -103t96.5 -272zM627 362q0 120 -58 191t-158 71t-157.5 -70.5t-57.5 -191.5q0 -120 58 -190.5t157 -70.5
q100 0 158 70.5t58 190.5z" />
    <glyph glyph-name="Otilde" unicode="&#xd5;" horiz-adv-x="822" 
d="M590 929q-17 -132 -96 -132q-28 0 -79 23q-52 24 -71 24q-25 0 -35 -50l-69 14q17 132 96 132q31 0 78 -22q50 -24 71 -24q13 0 21 11t15 39zM766 363q0 -168 -97.5 -272.5t-258.5 -104.5q-160 0 -256.5 103.5t-96.5 271.5q0 169 97 273t258 104t257.5 -103t96.5 -272z
M627 362q0 120 -58 191t-158 71t-157.5 -70.5t-57.5 -191.5q0 -120 58 -190.5t157 -70.5q100 0 158 70.5t58 190.5z" />
    <glyph glyph-name="Odieresis" unicode="&#xd6;" horiz-adv-x="822" 
d="M370 798h-122v121h122v-121zM575 798h-122v121h122v-121zM766 363q0 -168 -97.5 -272.5t-258.5 -104.5q-160 0 -256.5 103.5t-96.5 271.5q0 169 97 273t258 104t257.5 -103t96.5 -272zM627 362q0 120 -58 191t-158 71t-157.5 -70.5t-57.5 -191.5q0 -120 58 -190.5
t157 -70.5q100 0 158 70.5t58 190.5z" />
    <glyph glyph-name="multiply" unicode="&#xd7;" horiz-adv-x="636" 
d="M486 124l-169 161l-168 -161l-71 70l170 160l-170 160l73 72l168 -162l169 162l70 -71l-170 -159l171 -160z" />
    <glyph glyph-name="Oslash" unicode="&#xd8;" horiz-adv-x="822" 
d="M766 362q0 -168 -97.5 -272t-257.5 -104q-125 0 -213 65l-50 -60l-100 21l86 102q-77 101 -77 248q0 169 97 272.5t257 103.5q125 0 213 -65l51 61l99 -21l-86 -102q78 -100 78 -249zM411 628q-101 0 -159 -72t-58 -194q0 -87 31 -152l320 371q-56 47 -134 47zM629 362
q0 88 -32 152l-321 -371q56 -47 135 -47q101 0 159.5 72.5t58.5 193.5z" />
    <glyph glyph-name="Ugrave" unicode="&#xd9;" horiz-adv-x="764" 
d="M433 777h-82l-154 131l153 28zM685 283q0 -141 -82.5 -218.5t-222.5 -77.5t-221 76.5t-81 216.5v445h137v-438q0 -85 42 -133t124 -48t124.5 46.5t42.5 132.5v440h137v-442z" />
    <glyph glyph-name="Uacute" unicode="&#xda;" horiz-adv-x="764" 
d="M565 908l-153 -131h-82l84 159zM685 283q0 -141 -82.5 -218.5t-222.5 -77.5t-221 76.5t-81 216.5v445h137v-438q0 -85 42 -133t124 -48t124.5 46.5t42.5 132.5v440h137v-442z" />
    <glyph glyph-name="Ucircumflex" unicode="&#xdb;" horiz-adv-x="764" 
d="M548 777h-79l-89 69l-88 -69h-79l109 152h117zM685 283q0 -141 -82.5 -218.5t-222.5 -77.5t-221 76.5t-81 216.5v445h137v-438q0 -85 42 -133t124 -48t124.5 46.5t42.5 132.5v440h137v-442z" />
    <glyph glyph-name="Udieresis" unicode="&#xdc;" horiz-adv-x="764" 
d="M340 780h-122v121h122v-121zM545 780h-122v121h122v-121zM685 283q0 -141 -82.5 -218.5t-222.5 -77.5t-221 76.5t-81 216.5v445h137v-438q0 -85 42 -133t124 -48t124.5 46.5t42.5 132.5v440h137v-442z" />
    <glyph glyph-name="Yacute" unicode="&#xdd;" horiz-adv-x="722" 
d="M548 908l-153 -131h-82l84 159zM702 725l-274 -447v-278h-137v277l-266 431l143 24l196 -328l189 321h149z" />
    <glyph glyph-name="Thorn" unicode="&#xde;" horiz-adv-x="622" 
d="M579 377q0 -114 -77.5 -174t-210.5 -60h-68v-143h-136v725h136v-126h82q129 0 201.5 -57.5t72.5 -164.5zM444 374q0 115 -147 115h-74v-236h69q152 0 152 121z" />
    <glyph glyph-name="germandbls" unicode="&#xdf;" horiz-adv-x="725" 
d="M685 169q0 -85 -54.5 -132t-149.5 -47q-92 0 -171 42l18 108q78 -47 148 -47q39 0 62 19t23 54q0 42 -45.5 77.5t-172.5 64.5l-14 93q88 113 88 203q0 45 -23 69.5t-63 24.5q-43 0 -66.5 -27t-23.5 -74v-597h-131v433h-82v107h82v45q0 105 58.5 161t161.5 56t159 -50
t56 -139q0 -61 -27 -112.5t-78 -108.5q125 -33 185 -86t60 -137z" />
    <glyph glyph-name="agrave" unicode="&#xe0;" horiz-adv-x="596" 
d="M353 613h-87l-163 139l160 30zM390 149v121q-120 -13 -167 -43.5t-47 -74.5q0 -29 20 -46.5t54 -17.5q73 0 140 61zM520 0h-110l-12 70q-85 -81 -190 -81q-74 0 -118 40t-44 110q0 96 82.5 144t261.5 65v17q0 81 -100 81q-85 0 -190 -43l-16 104q112 44 222 44t162 -42.5
t52 -137.5v-371z" />
    <glyph glyph-name="aacute" unicode="&#xe1;" horiz-adv-x="596" 
d="M494 752l-163 -139h-86l90 169zM390 149v121q-120 -13 -167 -43.5t-47 -74.5q0 -29 20 -46.5t54 -17.5q73 0 140 61zM520 0h-110l-12 70q-85 -81 -190 -81q-74 0 -118 40t-44 110q0 96 82.5 144t261.5 65v17q0 81 -100 81q-85 0 -190 -43l-16 104q112 44 222 44
t162 -42.5t52 -137.5v-371z" />
    <glyph glyph-name="acircumflex" unicode="&#xe2;" horiz-adv-x="596" 
d="M477 613h-83l-95 73l-95 -73h-83l117 161h122zM390 149v121q-120 -13 -167 -43.5t-47 -74.5q0 -29 20 -46.5t54 -17.5q73 0 140 61zM520 0h-110l-12 70q-85 -81 -190 -81q-74 0 -118 40t-44 110q0 96 82.5 144t261.5 65v17q0 81 -100 81q-85 0 -190 -43l-16 104
q112 44 222 44t162 -42.5t52 -137.5v-371z" />
    <glyph glyph-name="atilde" unicode="&#xe3;" horiz-adv-x="596" 
d="M489 755q-17 -140 -101 -140q-33 0 -84 24q-57 26 -76 26q-14 0 -22.5 -11.5t-15.5 -42.5l-73 15q19 141 102 141q31 0 84 -24q57 -27 76 -27q25 0 38 54zM390 149v121q-120 -13 -167 -43.5t-47 -74.5q0 -29 20 -46.5t54 -17.5q73 0 140 61zM520 0h-110l-12 70
q-85 -81 -190 -81q-74 0 -118 40t-44 110q0 96 82.5 144t261.5 65v17q0 81 -100 81q-85 0 -190 -43l-16 104q112 44 222 44t162 -42.5t52 -137.5v-371z" />
    <glyph glyph-name="adieresis" unicode="&#xe4;" horiz-adv-x="596" 
d="M255 616h-129v127h129v-127zM473 616h-129v127h129v-127zM390 149v121q-120 -13 -167 -43.5t-47 -74.5q0 -29 20 -46.5t54 -17.5q73 0 140 61zM520 0h-110l-12 70q-85 -81 -190 -81q-74 0 -118 40t-44 110q0 96 82.5 144t261.5 65v17q0 81 -100 81q-85 0 -190 -43
l-16 104q112 44 222 44t162 -42.5t52 -137.5v-371z" />
    <glyph glyph-name="aring" unicode="&#xe5;" horiz-adv-x="596" 
d="M433 727q0 -51 -36.5 -84t-97.5 -33t-97.5 33t-36.5 84t37 85t97 34t97 -34t37 -85zM363 727q0 28 -18 47.5t-46 19.5q-27 0 -45.5 -19.5t-18.5 -47.5t18 -46.5t46 -18.5t46 18.5t18 46.5zM390 149v121q-120 -13 -167 -43.5t-47 -74.5q0 -29 20 -46.5t54 -17.5
q73 0 140 61zM520 0h-110l-12 70q-85 -81 -190 -81q-74 0 -118 40t-44 110q0 96 82.5 144t261.5 65v17q0 81 -100 81q-85 0 -190 -43l-16 104q112 44 222 44t162 -42.5t52 -137.5v-371z" />
    <glyph glyph-name="ae" unicode="&#xe6;" horiz-adv-x="929" 
d="M880 277q0 -4 -0.5 -17t-0.5 -15h-367q5 -78 46 -116t110 -38q96 0 196 68l15 -103q-96 -67 -224 -67q-138 0 -212 84q-99 -84 -215 -84q-82 0 -132 38.5t-50 111.5q0 94 81 143t256 65v18q0 43 -22.5 62t-70.5 19q-85 0 -190 -43l-16 104q112 44 214 44q71 0 111 -17
t63 -57q65 75 169 75q117 0 178 -77t61 -198zM752 329q-14 131 -117 131q-47 0 -79 -33.5t-41 -97.5h237zM401 148q-19 60 -19 119v2q-115 -14 -160.5 -44t-45.5 -72q0 -31 22 -48t60 -17q72 0 143 60z" />
    <glyph glyph-name="ccedilla" unicode="&#xe7;" horiz-adv-x="548" 
d="M502 41q-80 -52 -188 -52q-119 0 -192.5 74.5t-73.5 204.5q0 135 77 209t197 74q99 0 174 -46l-18 -118q-75 51 -150 51q-67 0 -107.5 -43.5t-40.5 -123.5q0 -82 42 -125.5t110 -43.5q81 0 152 52zM402 -96l-151 -119h-87l80 150z" />
    <glyph glyph-name="egrave" unicode="&#xe8;" horiz-adv-x="595" 
d="M362 613h-87l-163 139l160 30zM545 56q-96 -67 -224 -67q-124 0 -198.5 70.5t-74.5 210.5q0 129 71.5 205.5t183.5 76.5q120 0 181.5 -77t61.5 -198q0 -24 -1 -32h-367q10 -154 156 -154q96 0 195 68zM300 460q-47 0 -79 -33.5t-40 -97.5h237q-16 131 -118 131z" />
    <glyph glyph-name="eacute" unicode="&#xe9;" horiz-adv-x="595" 
d="M502 752l-163 -139h-86l90 169zM545 56q-96 -67 -224 -67q-124 0 -198.5 70.5t-74.5 210.5q0 129 71.5 205.5t183.5 76.5q120 0 181.5 -77t61.5 -198q0 -24 -1 -32h-367q10 -154 156 -154q96 0 195 68zM300 460q-47 0 -79 -33.5t-40 -97.5h237q-16 131 -118 131z" />
    <glyph glyph-name="ecircumflex" unicode="&#xea;" horiz-adv-x="595" 
d="M486 613h-83l-95 73l-95 -73h-83l117 161h122zM545 56q-96 -67 -224 -67q-124 0 -198.5 70.5t-74.5 210.5q0 129 71.5 205.5t183.5 76.5q120 0 181.5 -77t61.5 -198q0 -24 -1 -32h-367q10 -154 156 -154q96 0 195 68zM300 460q-47 0 -79 -33.5t-40 -97.5h237
q-16 131 -118 131z" />
    <glyph glyph-name="edieresis" unicode="&#xeb;" horiz-adv-x="595" 
d="M264 616h-129v127h129v-127zM482 616h-129v127h129v-127zM545 56q-96 -67 -224 -67q-124 0 -198.5 70.5t-74.5 210.5q0 129 71.5 205.5t183.5 76.5q120 0 181.5 -77t61.5 -198q0 -24 -1 -32h-367q10 -154 156 -154q96 0 195 68zM300 460q-47 0 -79 -33.5t-40 -97.5h237
q-16 131 -118 131z" />
    <glyph glyph-name="igrave" unicode="&#xec;" horiz-adv-x="301" 
d="M204 613h-87l-163 139l160 30zM216 0h-131v540h131v-540z" />
    <glyph glyph-name="iacute" unicode="&#xed;" horiz-adv-x="301" 
d="M344 752l-163 -139h-86l90 169zM216 0h-131v540h131v-540z" />
    <glyph glyph-name="icircumflex" unicode="&#xee;" horiz-adv-x="301" 
d="M328 613h-83l-95 73l-95 -73h-83l117 161h122zM216 0h-131v540h131v-540z" />
    <glyph glyph-name="idieresis" unicode="&#xef;" horiz-adv-x="301" 
d="M106 616h-129v127h129v-127zM324 616h-129v127h129v-127zM216 0h-131v540h131v-540z" />
    <glyph glyph-name="eth" unicode="&#xf0;" horiz-adv-x="639" 
d="M312 566h-95l68 95q-44 22 -119 43l17 104q95 -22 166 -58l41 59l92 -18l-62 -85q166 -124 166 -365q0 -186 -100 -284q-69 -69 -181 -69q-113 0 -185 69t-72 187q0 115 66.5 189.5t166.5 74.5q95 0 169 -56q-21 101 -99 165zM314 93q67 0 106.5 62.5t39.5 171.5v18
q-71 59 -150 59q-60 0 -96.5 -43t-36.5 -115q0 -70 37 -111.5t100 -41.5z" />
    <glyph glyph-name="ntilde" unicode="&#xf1;" horiz-adv-x="630" 
d="M507 755q-17 -140 -101 -140q-33 0 -84 24q-57 26 -76 26q-14 0 -22.5 -11.5t-15.5 -42.5l-73 15q19 141 102 141q31 0 84 -24q57 -27 76 -27q25 0 38 54zM554 0h-131v355q0 81 -76 81q-65 0 -138 -70v-366h-131v540h110l13 -76q99 88 191 88q78 0 120 -43t42 -120v-389z
" />
    <glyph glyph-name="ograve" unicode="&#xf2;" horiz-adv-x="625" 
d="M366 613h-87l-163 139l160 30zM577 270q0 -129 -74.5 -205t-191.5 -76q-116 0 -189.5 75.5t-73.5 205.5t73.5 206t189.5 76q117 0 191.5 -76t74.5 -206zM448 270q0 77 -36.5 126t-100.5 49t-99 -48t-35 -127q0 -77 35.5 -125.5t98.5 -48.5q66 0 101.5 47.5t35.5 126.5z
" />
    <glyph glyph-name="oacute" unicode="&#xf3;" horiz-adv-x="625" 
d="M507 752l-163 -139h-86l90 169zM577 270q0 -129 -74.5 -205t-191.5 -76q-116 0 -189.5 75.5t-73.5 205.5t73.5 206t189.5 76q117 0 191.5 -76t74.5 -206zM448 270q0 77 -36.5 126t-100.5 49t-99 -48t-35 -127q0 -77 35.5 -125.5t98.5 -48.5q66 0 101.5 47.5t35.5 126.5z
" />
    <glyph glyph-name="ocircumflex" unicode="&#xf4;" horiz-adv-x="625" 
d="M490 613h-83l-95 73l-95 -73h-83l117 161h122zM577 270q0 -129 -74.5 -205t-191.5 -76q-116 0 -189.5 75.5t-73.5 205.5t73.5 206t189.5 76q117 0 191.5 -76t74.5 -206zM448 270q0 77 -36.5 126t-100.5 49t-99 -48t-35 -127q0 -77 35.5 -125.5t98.5 -48.5
q66 0 101.5 47.5t35.5 126.5z" />
    <glyph glyph-name="otilde" unicode="&#xf5;" horiz-adv-x="625" 
d="M502 755q-17 -140 -101 -140q-33 0 -84 24q-57 26 -76 26q-14 0 -22.5 -11.5t-15.5 -42.5l-73 15q19 141 102 141q31 0 84 -24q57 -27 76 -27q25 0 38 54zM577 270q0 -129 -74.5 -205t-191.5 -76q-116 0 -189.5 75.5t-73.5 205.5t73.5 206t189.5 76q117 0 191.5 -76
t74.5 -206zM448 270q0 77 -36.5 126t-100.5 49t-99 -48t-35 -127q0 -77 35.5 -125.5t98.5 -48.5q66 0 101.5 47.5t35.5 126.5z" />
    <glyph glyph-name="odieresis" unicode="&#xf6;" horiz-adv-x="625" 
d="M268 616h-129v127h129v-127zM486 616h-129v127h129v-127zM577 270q0 -129 -74.5 -205t-191.5 -76q-116 0 -189.5 75.5t-73.5 205.5t73.5 206t189.5 76q117 0 191.5 -76t74.5 -206zM448 270q0 77 -36.5 126t-100.5 49t-99 -48t-35 -127q0 -77 35.5 -125.5t98.5 -48.5
q66 0 101.5 47.5t35.5 126.5z" />
    <glyph glyph-name="divide" unicode="&#xf7;" horiz-adv-x="636" 
d="M379 493h-122v124h122v-124zM573 306h-509v98h509v-98zM379 93h-122v124h122v-124z" />
    <glyph glyph-name="oslash" unicode="&#xf8;" horiz-adv-x="625" 
d="M311 449q-66 0 -102 -49t-36 -130q0 -54 16 -93l205 243q-35 29 -83 29zM452 270q0 50 -17 92l-204 -244q33 -27 80 -27q67 0 104 49t37 130zM577 270q0 -129 -74.5 -205t-190.5 -76q-86 0 -151 43l-38 -47l-88 19l68 82q-55 72 -55 184q0 129 74 205.5t189 76.5
q88 0 153 -45l40 49l88 -19l-71 -84q56 -75 56 -183z" />
    <glyph glyph-name="ugrave" unicode="&#xf9;" horiz-adv-x="630" 
d="M367 613h-87l-163 139l160 30zM551 0h-110l-13 76q-96 -87 -190 -87q-79 0 -121 42.5t-42 119.5v389h131v-354q0 -81 77 -81q65 0 137 70v365h131v-540z" />
    <glyph glyph-name="uacute" unicode="&#xfa;" horiz-adv-x="630" 
d="M508 752l-163 -139h-86l90 169zM551 0h-110l-13 76q-96 -87 -190 -87q-79 0 -121 42.5t-42 119.5v389h131v-354q0 -81 77 -81q65 0 137 70v365h131v-540z" />
    <glyph glyph-name="ucircumflex" unicode="&#xfb;" horiz-adv-x="630" 
d="M491 613h-83l-95 73l-95 -73h-83l117 161h122zM551 0h-110l-13 76q-96 -87 -190 -87q-79 0 -121 42.5t-42 119.5v389h131v-354q0 -81 77 -81q65 0 137 70v365h131v-540z" />
    <glyph glyph-name="udieresis" unicode="&#xfc;" horiz-adv-x="630" 
d="M269 616h-129v127h129v-127zM487 616h-129v127h129v-127zM551 0h-110l-13 76q-96 -87 -190 -87q-79 0 -121 42.5t-42 119.5v389h131v-354q0 -81 77 -81q65 0 137 70v365h131v-540z" />
    <glyph glyph-name="yacute" unicode="&#xfd;" horiz-adv-x="586" 
d="M494 752l-163 -139h-86l90 169zM562 540l-220 -577q-34 -93 -83 -130t-126 -37q-29 0 -53 6l-18 111q32 -9 60 -9q69 0 99 69l11 25l-206 532l136 18l136 -388l131 380h133z" />
    <glyph glyph-name="thorn" unicode="&#xfe;" horiz-adv-x="640" 
d="M459 278q0 77 -31.5 117.5t-84.5 40.5q-69 0 -134 -78v-235q52 -23 112 -23q63 0 100.5 45t37.5 133zM591 285q0 -143 -71 -217t-178 -74q-72 0 -133 21v-204l-131 -19v996l131 21v-335q76 78 167 78q94 0 154.5 -68t60.5 -199z" />
    <glyph glyph-name="ydieresis" unicode="&#xff;" horiz-adv-x="586" 
d="M255 616h-129v127h129v-127zM473 616h-129v127h129v-127zM562 540l-220 -577q-34 -93 -83 -130t-126 -37q-29 0 -53 6l-18 111q32 -9 60 -9q69 0 99 69l11 25l-206 532l136 18l136 -388l131 380h133z" />
    <glyph glyph-name="Amacron" unicode="&#x100;" horiz-adv-x="771" 
d="M541 813h-309v92h309v-92zM29 0l287 728h145l281 -710l-137 -25l-74 193h-296l-68 -186h-138zM383 580l-107 -282h214z" />
    <glyph glyph-name="amacron" unicode="&#x101;" horiz-adv-x="596" 
d="M463 632h-328v97h328v-97zM390 149v121q-120 -13 -167 -43.5t-47 -74.5q0 -29 20 -46.5t54 -17.5q73 0 140 61zM520 0h-110l-12 70q-85 -81 -190 -81q-74 0 -118 40t-44 110q0 96 82.5 144t261.5 65v17q0 81 -100 81q-85 0 -190 -43l-16 104q112 44 222 44t162 -42.5
t52 -137.5v-371z" />
    <glyph glyph-name="Abreve" unicode="&#x102;" horiz-adv-x="771" 
d="M549 927q-23 -132 -163 -132q-138 0 -162 132l76 14q20 -60 87 -60q65 0 86 60zM29 0l287 728h145l281 -710l-137 -25l-74 193h-296l-68 -186h-138zM383 580l-107 -282h214z" />
    <glyph glyph-name="abreve" unicode="&#x103;" horiz-adv-x="596" 
d="M472 752q-24 -139 -174 -139q-147 0 -171 139l80 15q21 -64 93 -64q70 0 92 64zM390 149v121q-120 -13 -167 -43.5t-47 -74.5q0 -29 20 -46.5t54 -17.5q73 0 140 61zM520 0h-110l-12 70q-85 -81 -190 -81q-74 0 -118 40t-44 110q0 96 82.5 144t261.5 65v17q0 81 -100 81
q-85 0 -190 -43l-16 104q112 44 222 44t162 -42.5t52 -137.5v-371z" />
    <glyph glyph-name="Aogonek" unicode="&#x104;" horiz-adv-x="771" 
d="M29 0l287 728h145l281 -710l-32 -6l-26 -37q-31 -43 -31 -67q0 -32 40 -32q18 0 46 7v-67q-47 -19 -92 -19q-43 0 -68 20.5t-25 59.5q0 47 58 118l-7 -2l-74 193h-296l-68 -186h-138zM383 580l-107 -282h214z" />
    <glyph glyph-name="aogonek" unicode="&#x105;" horiz-adv-x="596" 
d="M520 0h-22l-18 -26q-33 -48 -33 -72q0 -34 43 -34q24 0 49 7v-71q-53 -20 -98 -20q-46 0 -72 21.5t-26 63.5q0 52 67 131l-12 70q-85 -81 -190 -81q-74 0 -118 40t-44 110q0 96 82.5 144t261.5 65v17q0 81 -100 81q-85 0 -190 -43l-16 104q112 44 222 44t162 -42.5
t52 -137.5v-371zM390 149v121q-120 -13 -167 -43.5t-47 -74.5q0 -29 20 -46.5t54 -17.5q73 0 140 61z" />
    <glyph glyph-name="Cacute" unicode="&#x106;" horiz-adv-x="688" 
d="M585 926l-153 -131h-82l84 159zM638 50q-100 -63 -225 -63q-163 0 -259.5 102t-96.5 272q0 169 98.5 272.5t262.5 103.5q121 0 208 -53l-19 -130q-90 65 -185 65q-105 0 -165.5 -69t-60.5 -188q0 -118 61.5 -187t166.5 -69q97 0 195 64z" />
    <glyph glyph-name="cacute" unicode="&#x107;" horiz-adv-x="548" 
d="M508 752l-163 -139h-86l90 169zM502 41q-80 -52 -188 -52q-119 0 -192.5 74.5t-73.5 204.5q0 135 77 209t197 74q99 0 174 -46l-18 -118q-75 51 -150 51q-67 0 -107.5 -43.5t-40.5 -123.5q0 -82 42 -125.5t110 -43.5q81 0 152 52z" />
    <glyph glyph-name="Cdotaccent" unicode="&#x10a;" horiz-adv-x="688" 
d="M465 798h-125v121h125v-121zM638 50q-100 -63 -225 -63q-163 0 -259.5 102t-96.5 272q0 169 98.5 272.5t262.5 103.5q121 0 208 -53l-19 -130q-90 65 -185 65q-105 0 -165.5 -69t-60.5 -188q0 -118 61.5 -187t166.5 -69q97 0 195 64z" />
    <glyph glyph-name="cdotaccent" unicode="&#x10b;" horiz-adv-x="548" 
d="M380 616h-132v127h132v-127zM502 41q-80 -52 -188 -52q-119 0 -192.5 74.5t-73.5 204.5q0 135 77 209t197 74q99 0 174 -46l-18 -118q-75 51 -150 51q-67 0 -107.5 -43.5t-40.5 -123.5q0 -82 42 -125.5t110 -43.5q81 0 152 52z" />
    <glyph glyph-name="Ccaron" unicode="&#x10c;" horiz-adv-x="688" 
d="M234 947h79l89 -69l89 69h78l-109 -152h-116zM638 50q-100 -63 -225 -63q-163 0 -259.5 102t-96.5 272q0 169 98.5 272.5t262.5 103.5q121 0 208 -53l-19 -130q-90 65 -185 65q-105 0 -165.5 -69t-60.5 -188q0 -118 61.5 -187t166.5 -69q97 0 195 64z" />
    <glyph glyph-name="ccaron" unicode="&#x10d;" horiz-adv-x="548" 
d="M135 774h83l95 -74l95 74h83l-117 -161h-122zM502 41q-80 -52 -188 -52q-119 0 -192.5 74.5t-73.5 204.5q0 135 77 209t197 74q99 0 174 -46l-18 -118q-75 51 -150 51q-67 0 -107.5 -43.5t-40.5 -123.5q0 -82 42 -125.5t110 -43.5q81 0 152 52z" />
    <glyph glyph-name="Dcaron" unicode="&#x10e;" horiz-adv-x="781" 
d="M208 936h79l89 -69l89 69h78l-109 -152h-116zM723 363q0 -165 -105.5 -264t-294.5 -99h-236v725h236q193 0 296.5 -98.5t103.5 -263.5zM583 362q0 123 -70 186t-191 63h-99v-498h98q125 0 193.5 62t68.5 187z" />
    <glyph glyph-name="dcaron" unicode="&#x10f;" horiz-adv-x="640" 
d="M735 809q20 -45 20 -81q0 -75 -78 -145l-64 14q36 57 36 108q0 34 -26 88zM431 182v235q-54 24 -115 24t-98 -45.5t-37 -132.5q0 -77 31.5 -117.5t83.5 -40.5q71 0 135 77zM562 0h-111l-12 75q-77 -86 -175 -86q-95 0 -155 68t-60 198q0 143 71 217t178 74q72 0 133 -21
v263l131 21v-809z" />
    <glyph glyph-name="Dcroat" unicode="&#x110;" horiz-adv-x="805" 
d="M747 363q0 -165 -105.5 -264t-294.5 -99h-236v317h-77l-20 118h97v290h236q193 0 296.5 -98.5t103.5 -263.5zM608 362q0 123 -70.5 186t-191.5 63h-100v-178h160v-115h-160v-205h99q126 0 194.5 62t68.5 187z" />
    <glyph glyph-name="dcroat" unicode="&#x111;" horiz-adv-x="640" 
d="M431 182v235q-54 24 -115 24t-98 -45.5t-37 -132.5q0 -77 31.5 -117.5t83.5 -40.5q71 0 135 77zM562 0h-111l-12 75q-77 -86 -175 -86q-95 0 -155 68t-60 198q0 143 71 217t178 74q72 0 133 -21v98h-141l-15 91h156v74l131 21v-95h79v-91h-79v-623z" />
    <glyph glyph-name="Emacron" unicode="&#x112;" horiz-adv-x="578" 
d="M462 802h-309v92h309v-92zM532 0h-445v725h434v-117h-299v-175h231l19 -115h-250v-202h310v-116z" />
    <glyph glyph-name="emacron" unicode="&#x113;" horiz-adv-x="595" 
d="M472 632h-328v97h328v-97zM545 56q-96 -67 -224 -67q-124 0 -198.5 70.5t-74.5 210.5q0 129 71.5 205.5t183.5 76.5q120 0 181.5 -77t61.5 -198q0 -24 -1 -32h-367q10 -154 156 -154q96 0 195 68zM300 460q-47 0 -79 -33.5t-40 -97.5h237q-16 131 -118 131z" />
    <glyph glyph-name="Ebreve" unicode="&#x114;" horiz-adv-x="578" 
d="M470 916q-23 -132 -163 -132q-138 0 -162 132l76 14q19 -60 87 -60q65 0 86 60zM532 0h-445v725h434v-117h-299v-175h231l19 -115h-250v-202h310v-116z" />
    <glyph glyph-name="ebreve" unicode="&#x115;" horiz-adv-x="595" 
d="M481 752q-24 -139 -174 -139q-147 0 -171 139l80 15q21 -64 93 -64q70 0 92 64zM545 56q-96 -67 -224 -67q-124 0 -198.5 70.5t-74.5 210.5q0 129 71.5 205.5t183.5 76.5q120 0 181.5 -77t61.5 -198q0 -24 -1 -32h-367q10 -154 156 -154q96 0 195 68zM300 460
q-47 0 -79 -33.5t-40 -97.5h237q-16 131 -118 131z" />
    <glyph glyph-name="Edotaccent" unicode="&#x116;" horiz-adv-x="578" 
d="M370 787h-125v121h125v-121zM532 0h-445v725h434v-117h-299v-175h231l19 -115h-250v-202h310v-116z" />
    <glyph glyph-name="edotaccent" unicode="&#x117;" horiz-adv-x="595" 
d="M374 616h-132v127h132v-127zM545 56q-96 -67 -224 -67q-124 0 -198.5 70.5t-74.5 210.5q0 129 71.5 205.5t183.5 76.5q120 0 181.5 -77t61.5 -198q0 -24 -1 -32h-367q10 -154 156 -154q96 0 195 68zM300 460q-47 0 -79 -33.5t-40 -97.5h237q-16 131 -118 131z" />
    <glyph glyph-name="Eogonek" unicode="&#x118;" horiz-adv-x="578" 
d="M532 0h-35l-17 -25q-31 -43 -31 -67q0 -32 40 -32q18 0 46 7v-67q-47 -19 -92 -19q-43 0 -68 20.5t-25 59.5q0 48 63 123h-326v725h434v-117h-299v-175h231l19 -115h-250v-202h310v-116z" />
    <glyph glyph-name="eogonek" unicode="&#x119;" horiz-adv-x="595" 
d="M303 552q120 0 181.5 -77t61.5 -198q0 -28 -1 -32h-367q9 -154 156 -154q96 0 195 68l15 -92l-69 -87q-39 -49 -39 -78q0 -34 43 -34q25 0 49 7v-71q-53 -20 -97 -20q-47 0 -73 21.5t-26 63.5q0 49 64 128h-1q-34 -8 -74 -8q-124 0 -198.5 70.5t-74.5 210.5
q0 129 71.5 205.5t183.5 76.5zM300 460q-46 0 -78 -33.5t-41 -97.5h237q-16 131 -118 131z" />
    <glyph glyph-name="Ecaron" unicode="&#x11a;" horiz-adv-x="578" 
d="M140 936h79l89 -69l89 69h78l-109 -152h-116zM532 0h-445v725h434v-117h-299v-175h231l19 -115h-250v-202h310v-116z" />
    <glyph glyph-name="ecaron" unicode="&#x11b;" horiz-adv-x="595" 
d="M130 774h83l95 -74l95 74h83l-117 -161h-122zM545 56q-96 -67 -224 -67q-124 0 -198.5 70.5t-74.5 210.5q0 129 71.5 205.5t183.5 76.5q120 0 181.5 -77t61.5 -198q0 -24 -1 -32h-367q10 -154 156 -154q96 0 195 68zM300 460q-47 0 -79 -33.5t-40 -97.5h237
q-16 131 -118 131z" />
    <glyph glyph-name="Gbreve" unicode="&#x11e;" horiz-adv-x="766" 
d="M572 927q-23 -132 -163 -132q-138 0 -162 132l76 14q19 -60 87 -60q65 0 86 60zM691 60q-117 -74 -264 -74q-176 0 -273 102t-97 273q0 170 99 273.5t268 103.5q132 0 231 -58l-20 -127q-99 68 -210 68t-170 -69.5t-59 -189.5t61 -190t175 -70q73 0 133 30v163h-157
l-17 110h300v-345z" />
    <glyph glyph-name="gbreve" unicode="&#x11f;" horiz-adv-x="613" 
d="M460 752q-24 -139 -174 -139q-147 0 -171 139l80 15q21 -64 93 -64q70 0 92 64zM386 364q0 44 -29 73t-76 29t-74.5 -30t-27.5 -76q0 -44 28 -72t74 -28q48 0 76.5 29.5t28.5 74.5zM577 -25q0 -83 -83 -131t-209 -48q-119 0 -193 35t-74 100q0 72 108 129q-32 23 -32 58
q0 46 69 84q-50 23 -78.5 64.5t-28.5 94.5q0 86 64.5 138t159.5 52q94 0 157 -49l139 46l18 -106l-103 -7q16 -35 16 -71q0 -85 -64.5 -135.5t-158.5 -50.5q-24 0 -47 3q-24 -16 -24 -29t20 -19.5t89 -16.5l66 -7q93 -13 141 -44t48 -90zM283 15q-63 8 -85 13
q-65 -40 -65 -83q0 -32 41.5 -51t119.5 -19q74 0 117.5 20.5t43.5 52.5q0 23 -22.5 36.5t-76.5 21.5z" />
    <glyph glyph-name="Gdotaccent" unicode="&#x120;" horiz-adv-x="766" 
d="M472 798h-125v121h125v-121zM691 60q-117 -74 -264 -74q-176 0 -273 102t-97 273q0 170 99 273.5t268 103.5q132 0 231 -58l-20 -127q-99 68 -210 68t-170 -69.5t-59 -189.5t61 -190t175 -70q73 0 133 30v163h-157l-17 110h300v-345z" />
    <glyph glyph-name="gdotaccent" unicode="&#x121;" horiz-adv-x="613" 
d="M353 616h-132v127h132v-127zM386 364q0 44 -29 73t-76 29t-74.5 -30t-27.5 -76q0 -44 28 -72t74 -28q48 0 76.5 29.5t28.5 74.5zM577 -25q0 -83 -83 -131t-209 -48q-119 0 -193 35t-74 100q0 72 108 129q-32 23 -32 58q0 46 69 84q-50 23 -78.5 64.5t-28.5 94.5
q0 86 64.5 138t159.5 52q94 0 157 -49l139 46l18 -106l-103 -7q16 -35 16 -71q0 -85 -64.5 -135.5t-158.5 -50.5q-24 0 -47 3q-24 -16 -24 -29t20 -19.5t89 -16.5l66 -7q93 -13 141 -44t48 -90zM283 15q-63 8 -85 13q-65 -40 -65 -83q0 -32 41.5 -51t119.5 -19
q74 0 117.5 20.5t43.5 52.5q0 23 -22.5 36.5t-76.5 21.5z" />
    <glyph glyph-name="Gcommaaccent" unicode="&#x122;" horiz-adv-x="766" 
d="M691 60q-117 -74 -264 -74q-176 0 -273 102t-97 273q0 170 99 273.5t268 103.5q132 0 231 -58l-20 -127q-99 68 -210 68t-170 -69.5t-59 -189.5t61 -190t175 -70q73 0 133 30v163h-157l-17 110h300v-345zM333 -93l104 26q47 -45 47 -93q0 -62 -86 -133l-78 17
q54 64 54 105q0 37 -41 78z" />
    <glyph glyph-name="gcommaaccent" unicode="&#x123;" horiz-adv-x="613" 
d="M360 634l-109 -28q-50 47 -50 99q0 66 91 142l81 -18q-57 -68 -57 -112q0 -40 44 -83zM386 364q0 44 -29 73t-76 29t-74.5 -30t-27.5 -76q0 -44 28 -72t74 -28q48 0 76.5 29.5t28.5 74.5zM577 -25q0 -83 -83 -131t-209 -48q-119 0 -193 35t-74 100q0 72 108 129
q-32 23 -32 58q0 46 69 84q-50 23 -78.5 64.5t-28.5 94.5q0 86 64.5 138t159.5 52q94 0 157 -49l139 46l18 -106l-103 -7q16 -35 16 -71q0 -85 -64.5 -135.5t-158.5 -50.5q-24 0 -47 3q-24 -16 -24 -29t20 -19.5t89 -16.5l66 -7q93 -13 141 -44t48 -90zM283 15q-63 8 -85 13
q-65 -40 -65 -83q0 -32 41.5 -51t119.5 -19q74 0 117.5 20.5t43.5 52.5q0 23 -22.5 36.5t-76.5 21.5z" />
    <glyph glyph-name="Hbar" unicode="&#x126;" horiz-adv-x="831" 
d="M247 428h337v109h-337v-109zM720 0h-137v309h-335v-309h-137v534h-82l-16 94h98v97h136v-97h337v97h136v-97h91v-94h-91v-534z" />
    <glyph glyph-name="hbar" unicode="&#x127;" horiz-adv-x="630" 
d="M361 623h-152v-152q93 81 183 81q78 0 120 -43t42 -120v-389h-131v355q0 81 -76 81q-65 0 -138 -70v-366h-131v623h-69l-15 91h84v74l131 21v-95h152v-91z" />
    <glyph glyph-name="Imacron" unicode="&#x12a;" horiz-adv-x="322" 
d="M315 802h-309v92h309v-92zM230 0h-138v725h138v-725z" />
    <glyph glyph-name="imacron" unicode="&#x12b;" horiz-adv-x="301" 
d="M314 632h-328v97h328v-97zM216 0h-131v540h131v-540z" />
    <glyph glyph-name="Ibreve" unicode="&#x12c;" horiz-adv-x="322" 
d="M323 916q-23 -132 -163 -132q-138 0 -162 132l76 14q19 -60 87 -60q65 0 86 60zM230 0h-138v725h138v-725z" />
    <glyph glyph-name="ibreve" unicode="&#x12d;" horiz-adv-x="301" 
d="M323 752q-24 -139 -174 -139q-147 0 -171 139l80 15q21 -64 93 -64q70 0 92 64zM216 0h-131v540h131v-540z" />
    <glyph glyph-name="Iogonek" unicode="&#x12e;" horiz-adv-x="322" 
d="M230 0h-25l-17 -25q-31 -43 -31 -67q0 -32 40 -32q18 0 46 7v-67q-47 -19 -92 -19q-43 0 -68 20.5t-25 59.5q0 48 63 123h-29v725h138v-725z" />
    <glyph glyph-name="iogonek" unicode="&#x12f;" horiz-adv-x="301" 
d="M229 708q0 -33 -22.5 -54.5t-55.5 -21.5t-56.5 21.5t-23.5 54.5t23.5 54.5t56.5 21.5t55.5 -21.5t22.5 -54.5zM216 0h-19l-18 -26q-33 -48 -33 -72q0 -34 43 -34q24 0 49 7v-71q-53 -20 -98 -20q-46 0 -72 21.5t-26 63.5q0 50 66 131h-23v540h131v-540z" />
    <glyph glyph-name="Idotaccent" unicode="&#x130;" horiz-adv-x="322" 
d="M223 787h-125v121h125v-121zM230 0h-138v725h138v-725z" />
    <glyph glyph-name="dotlessi" unicode="&#x131;" horiz-adv-x="301" 
d="M216 0h-131v540h131v-540z" />
    <glyph glyph-name="Kcommaaccent" unicode="&#x136;" horiz-adv-x="696" 
d="M686 19l-150 -26l-312 360v-353h-137v725h137v-319l283 319h165l-311 -340zM280 -79l104 26q47 -45 47 -93q0 -62 -86 -133l-78 17q54 64 54 105q0 37 -41 78z" />
    <glyph glyph-name="kcommaaccent" unicode="&#x137;" horiz-adv-x="581" 
d="M566 12l-139 -20l-218 278v-270h-131v788l131 21v-493l193 224h151l-217 -243zM223 -92l110 27q50 -47 50 -99q0 -66 -92 -142l-81 18q58 68 58 113q0 39 -45 83z" />
    <glyph glyph-name="Lacute" unicode="&#x139;" horiz-adv-x="531" 
d="M362 915l-153 -131h-82l84 159zM500 0h-413v725h137v-603h257z" />
    <glyph glyph-name="lacute" unicode="&#x13a;" horiz-adv-x="301" 
d="M351 995l-163 -139h-86l90 169zM216 0h-131v788l131 21v-809z" />
    <glyph glyph-name="Lcommaaccent" unicode="&#x13b;" horiz-adv-x="531" 
d="M500 0h-413v725h137v-603h257zM214 -89l104 26q47 -45 47 -93q0 -62 -86 -133l-78 17q54 64 54 105q0 37 -41 78z" />
    <glyph glyph-name="lcommaaccent" unicode="&#x13c;" horiz-adv-x="301" 
d="M216 0h-131v788l131 21v-809zM69 -92l110 27q50 -47 50 -99q0 -66 -92 -142l-81 18q58 68 58 113q0 39 -45 83z" />
    <glyph glyph-name="Lcaron" unicode="&#x13d;" horiz-adv-x="531" 
d="M410 734q19 -43 19 -75q0 -71 -74 -137l-61 13q34 55 34 102q0 34 -24 82zM500 0h-413v725h137v-603h257z" />
    <glyph glyph-name="lcaron" unicode="&#x13e;" horiz-adv-x="301" 
d="M216 0h-131v788l131 21v-809zM390 809q20 -45 20 -81q0 -75 -78 -145l-64 14q36 57 36 108q0 34 -26 88z" />
    <glyph glyph-name="Ldot" unicode="&#x13f;" horiz-adv-x="531" 
d="M500 0h-413v725h137v-603h257zM478 316h-120v120h120v-120z" />
    <glyph glyph-name="ldot" unicode="&#x140;" horiz-adv-x="373" 
d="M216 0h-131v788l131 21v-809zM386 330h-106v139h106v-139z" />
    <glyph glyph-name="Lslash" unicode="&#x141;" horiz-adv-x="556" 
d="M406 413l-159 -83v-208h259l19 -122h-414v257l-78 -42l-19 112l97 51v347h136v-274l159 85v-123z" />
    <glyph glyph-name="lslash" unicode="&#x142;" horiz-adv-x="354" 
d="M242 0h-129v291l-81 -43l-20 119l101 52v369l129 21v-322l91 48v-129l-91 -48v-358z" />
    <glyph glyph-name="Nacute" unicode="&#x143;" horiz-adv-x="782" 
d="M574 908l-153 -131h-82l84 159zM695 0h-113l-368 503v-503h-127v725h129l352 -479v479h127v-725z" />
    <glyph glyph-name="nacute" unicode="&#x144;" horiz-adv-x="630" 
d="M512 752l-163 -139h-86l90 169zM554 0h-131v355q0 81 -76 81q-65 0 -138 -70v-366h-131v540h110l13 -76q99 88 191 88q78 0 120 -43t42 -120v-389z" />
    <glyph glyph-name="Ncommaaccent" unicode="&#x145;" horiz-adv-x="782" 
d="M695 0h-113l-368 503v-503h-127v725h129l352 -479v479h127v-725zM314 -79l104 26q47 -45 47 -93q0 -62 -86 -133l-78 17q54 64 54 105q0 37 -41 78z" />
    <glyph glyph-name="ncommaaccent" unicode="&#x146;" horiz-adv-x="630" 
d="M554 0h-131v355q0 81 -76 81q-65 0 -138 -70v-366h-131v540h110l13 -76q99 88 191 88q78 0 120 -43t42 -120v-389zM236 -92l110 27q50 -47 50 -99q0 -66 -92 -142l-81 18q58 68 58 113q0 39 -45 83z" />
    <glyph glyph-name="Ncaron" unicode="&#x147;" horiz-adv-x="782" 
d="M223 929h79l89 -69l89 69h78l-109 -152h-116zM695 0h-113l-368 503v-503h-127v725h129l352 -479v479h127v-725z" />
    <glyph glyph-name="ncaron" unicode="&#x148;" horiz-adv-x="630" 
d="M139 774h83l95 -74l95 74h83l-117 -161h-122zM554 0h-131v355q0 81 -76 81q-65 0 -138 -70v-366h-131v540h110l13 -76q99 88 191 88q78 0 120 -43t42 -120v-389z" />
    <glyph glyph-name="Omacron" unicode="&#x14c;" horiz-adv-x="822" 
d="M566 813h-309v92h309v-92zM766 363q0 -168 -97.5 -272.5t-258.5 -104.5q-160 0 -256.5 103.5t-96.5 271.5q0 169 97 273t258 104t257.5 -103t96.5 -272zM627 362q0 120 -58 191t-158 71t-157.5 -70.5t-57.5 -191.5q0 -120 58 -190.5t157 -70.5q100 0 158 70.5t58 190.5z
" />
    <glyph glyph-name="omacron" unicode="&#x14d;" horiz-adv-x="625" 
d="M476 632h-328v97h328v-97zM577 270q0 -129 -74.5 -205t-191.5 -76q-116 0 -189.5 75.5t-73.5 205.5t73.5 206t189.5 76q117 0 191.5 -76t74.5 -206zM448 270q0 77 -36.5 126t-100.5 49t-99 -48t-35 -127q0 -77 35.5 -125.5t98.5 -48.5q66 0 101.5 47.5t35.5 126.5z" />
    <glyph glyph-name="Obreve" unicode="&#x14e;" horiz-adv-x="822" 
d="M574 927q-23 -132 -163 -132q-138 0 -162 132l76 14q19 -60 87 -60q65 0 86 60zM766 363q0 -168 -97.5 -272.5t-258.5 -104.5q-160 0 -256.5 103.5t-96.5 271.5q0 169 97 273t258 104t257.5 -103t96.5 -272zM627 362q0 120 -58 191t-158 71t-157.5 -70.5t-57.5 -191.5
q0 -120 58 -190.5t157 -70.5q100 0 158 70.5t58 190.5z" />
    <glyph glyph-name="obreve" unicode="&#x14f;" horiz-adv-x="625" 
d="M485 752q-24 -139 -174 -139q-147 0 -171 139l80 15q21 -64 93 -64q70 0 92 64zM577 270q0 -129 -74.5 -205t-191.5 -76q-116 0 -189.5 75.5t-73.5 205.5t73.5 206t189.5 76q117 0 191.5 -76t74.5 -206zM448 270q0 77 -36.5 126t-100.5 49t-99 -48t-35 -127
q0 -77 35.5 -125.5t98.5 -48.5q66 0 101.5 47.5t35.5 126.5z" />
    <glyph glyph-name="Ohungarumlaut" unicode="&#x150;" horiz-adv-x="822" 
d="M488 927l-145 -129h-76l84 156zM668 927l-145 -129h-76l84 156zM766 363q0 -168 -97.5 -272.5t-258.5 -104.5q-160 0 -256.5 103.5t-96.5 271.5q0 169 97 273t258 104t257.5 -103t96.5 -272zM627 362q0 120 -58 191t-158 71t-157.5 -70.5t-57.5 -191.5q0 -120 58 -190.5
t157 -70.5q100 0 158 70.5t58 190.5z" />
    <glyph glyph-name="ohungarumlaut" unicode="&#x151;" horiz-adv-x="625" 
d="M394 753l-154 -137h-80l91 166zM586 753l-154 -137h-80l90 166zM577 270q0 -129 -74.5 -205t-191.5 -76q-116 0 -189.5 75.5t-73.5 205.5t73.5 206t189.5 76q117 0 191.5 -76t74.5 -206zM448 270q0 77 -36.5 126t-100.5 49t-99 -48t-35 -127q0 -77 35.5 -125.5
t98.5 -48.5q66 0 101.5 47.5t35.5 126.5z" />
    <glyph glyph-name="OE" unicode="&#x152;" horiz-adv-x="986" 
d="M940 0h-483q-192 0 -295.5 98.5t-103.5 262.5q0 165 105.5 264.5t294.5 99.5h471v-117h-298v-175h231l18 -115h-249v-202h309v-116zM497 113v498h-38q-125 0 -193.5 -62t-68.5 -187q0 -122 70.5 -185.5t191.5 -63.5h38z" />
    <glyph glyph-name="oe" unicode="&#x153;" horiz-adv-x="995" 
d="M946 277q0 -4 -0.5 -17t-0.5 -15h-367q10 -154 156 -154q96 0 196 68l15 -103q-96 -67 -222 -67q-147 0 -212 101q-70 -101 -203 -101q-114 0 -187 76t-73 205t73.5 205.5t188.5 76.5q138 0 203 -102q67 102 194 102q117 0 178 -77t61 -198zM817 329q-14 131 -116 131
q-47 0 -79 -33.5t-41 -97.5h236zM448 270q0 77 -36 125.5t-101 48.5q-64 0 -99 -47.5t-35 -126.5q0 -77 35.5 -125.5t98.5 -48.5q66 0 101.5 47.5t35.5 126.5z" />
    <glyph glyph-name="Racute" unicode="&#x154;" horiz-adv-x="655" 
d="M504 915l-153 -131h-82l84 159zM637 19l-144 -26l-204 286h-66v-279h-136v725h230q126 0 197 -56.5t71 -160.5q0 -153 -157 -203zM449 500q0 55 -36.5 84.5t-105.5 29.5h-85v-230h77q71 0 110.5 30t39.5 86z" />
    <glyph glyph-name="racute" unicode="&#x155;" horiz-adv-x="435" 
d="M419 752l-163 -139h-86l90 169zM411 422q-64 -4 -117.5 -34.5t-84.5 -76.5v-311h-131v540h110l18 -108q70 113 184 120z" />
    <glyph glyph-name="Rcommaaccent" unicode="&#x156;" horiz-adv-x="655" 
d="M637 19l-144 -26l-204 286h-66v-279h-136v725h230q126 0 197 -56.5t71 -160.5q0 -153 -157 -203zM449 500q0 55 -36.5 84.5t-105.5 29.5h-85v-230h77q71 0 110.5 30t39.5 86zM254 -79l104 26q47 -45 47 -93q0 -62 -86 -133l-78 17q54 64 54 105q0 37 -41 78z" />
    <glyph glyph-name="rcommaaccent" unicode="&#x157;" horiz-adv-x="435" 
d="M411 422q-64 -4 -117.5 -34.5t-84.5 -76.5v-311h-131v540h110l18 -108q70 113 184 120zM78 -92l110 27q50 -47 50 -99q0 -66 -92 -142l-81 18q58 68 58 113q0 39 -45 83z" />
    <glyph glyph-name="Rcaron" unicode="&#x158;" horiz-adv-x="655" 
d="M153 936h79l89 -69l89 69h78l-109 -152h-116zM637 19l-144 -26l-204 286h-66v-279h-136v725h230q126 0 197 -56.5t71 -160.5q0 -153 -157 -203zM449 500q0 55 -36.5 84.5t-105.5 29.5h-85v-230h77q71 0 110.5 30t39.5 86z" />
    <glyph glyph-name="rcaron" unicode="&#x159;" horiz-adv-x="435" 
d="M46 774h83l95 -74l95 74h83l-117 -161h-122zM411 422q-64 -4 -117.5 -34.5t-84.5 -76.5v-311h-131v540h110l18 -108q70 113 184 120z" />
    <glyph glyph-name="Sacute" unicode="&#x15a;" horiz-adv-x="590" 
d="M488 926l-153 -131h-82l84 159zM541 206q0 -102 -70 -158t-183 -56q-126 0 -233 50l20 126q112 -65 216 -65q53 0 85.5 23.5t32.5 65.5q0 41 -27.5 65t-111.5 57q-115 46 -160 91t-45 126q0 93 67.5 147.5t174.5 54.5q111 0 195 -45l-20 -123q-89 56 -176 56
q-54 0 -81.5 -21.5t-27.5 -56.5t26.5 -58t105.5 -54q119 -47 165.5 -95t46.5 -130z" />
    <glyph glyph-name="sacute" unicode="&#x15b;" horiz-adv-x="536" 
d="M472 752l-163 -139h-86l90 169zM490 158q0 -80 -58 -124.5t-167 -44.5q-115 0 -217 52l17 110q100 -63 205 -63q47 0 73 15.5t26 42.5q0 30 -24.5 45t-95.5 32q-105 26 -148 62t-43 108q0 70 55 114t150 44q107 0 194 -38l-18 -109q-91 48 -177 48q-83 0 -83 -50
q0 -23 23 -38t86 -30q112 -28 157 -65t45 -111z" />
    <glyph glyph-name="Scedilla" unicode="&#x15e;" horiz-adv-x="590" 
d="M541 206q0 -102 -70 -158t-183 -56q-126 0 -233 50l20 126q112 -65 216 -65q53 0 85.5 23.5t32.5 65.5q0 41 -27.5 65t-111.5 57q-115 46 -160 91t-45 126q0 93 67.5 147.5t174.5 54.5q111 0 195 -45l-20 -123q-89 56 -176 56q-54 0 -81.5 -21.5t-27.5 -56.5t26.5 -58
t105.5 -54q119 -47 165.5 -95t46.5 -130zM390 -96l-143 -113h-82l75 142z" />
    <glyph glyph-name="scedilla" unicode="&#x15f;" horiz-adv-x="536" 
d="M490 158q0 -80 -58 -124.5t-167 -44.5q-115 0 -217 52l17 110q100 -63 205 -63q47 0 73 15.5t26 42.5q0 30 -24.5 45t-95.5 32q-105 26 -148 62t-43 108q0 70 55 114t150 44q107 0 194 -38l-18 -109q-91 48 -177 48q-83 0 -83 -50q0 -23 23 -38t86 -30q112 -28 157 -65
t45 -111zM366 -96l-151 -119h-87l80 150z" />
    <glyph glyph-name="Scaron" unicode="&#x160;" horiz-adv-x="590" 
d="M138 947h79l89 -69l89 69h78l-109 -152h-116zM541 206q0 -102 -70 -158t-183 -56q-126 0 -233 50l20 126q112 -65 216 -65q53 0 85.5 23.5t32.5 65.5q0 41 -27.5 65t-111.5 57q-115 46 -160 91t-45 126q0 93 67.5 147.5t174.5 54.5q111 0 195 -45l-20 -123
q-89 56 -176 56q-54 0 -81.5 -21.5t-27.5 -56.5t26.5 -58t105.5 -54q119 -47 165.5 -95t46.5 -130z" />
    <glyph glyph-name="scaron" unicode="&#x161;" horiz-adv-x="536" 
d="M99 774h83l95 -74l95 74h83l-117 -161h-122zM490 158q0 -80 -58 -124.5t-167 -44.5q-115 0 -217 52l17 110q100 -63 205 -63q47 0 73 15.5t26 42.5q0 30 -24.5 45t-95.5 32q-105 26 -148 62t-43 108q0 70 55 114t150 44q107 0 194 -38l-18 -109q-91 48 -177 48
q-83 0 -83 -50q0 -23 23 -38t86 -30q112 -28 157 -65t45 -111z" />
    <glyph glyph-name="Tcommaaccent" unicode="&#x162;" horiz-adv-x="669" 
d="M642 605h-238v-605h-137v605h-231v120h586zM261 -89l104 26q47 -45 47 -93q0 -62 -86 -133l-78 17q54 64 54 105q0 37 -41 78z" />
    <glyph glyph-name="tcommaaccent" unicode="&#x163;" horiz-adv-x="414" 
d="M374 0q-38 -9 -87 -9q-87 0 -133.5 36.5t-46.5 123.5v282h-81v107h81v172l129 20v-192h117l17 -107h-134v-260q0 -68 75 -68q30 0 47 4zM150 -92l110 27q50 -47 50 -99q0 -66 -92 -142l-81 18q58 68 58 113q0 39 -45 83z" />
    <glyph glyph-name="Tcaron" unicode="&#x164;" horiz-adv-x="669" 
d="M170 936h79l89 -69l89 69h78l-109 -152h-116zM642 605h-238v-605h-137v605h-231v120h586z" />
    <glyph glyph-name="tcaron" unicode="&#x165;" horiz-adv-x="414" 
d="M419 826q20 -45 20 -81q0 -75 -78 -145l-64 14q36 57 36 108q0 34 -26 88zM374 0q-38 -9 -87 -9q-87 0 -133.5 36.5t-46.5 123.5v282h-81v107h81v172l129 20v-192h117l17 -107h-134v-260q0 -68 75 -68q30 0 47 4z" />
    <glyph glyph-name="Umacron" unicode="&#x16a;" horiz-adv-x="764" 
d="M536 795h-309v92h309v-92zM685 283q0 -141 -82.5 -218.5t-222.5 -77.5t-221 76.5t-81 216.5v445h137v-438q0 -85 42 -133t124 -48t124.5 46.5t42.5 132.5v440h137v-442z" />
    <glyph glyph-name="umacron" unicode="&#x16b;" horiz-adv-x="630" 
d="M477 632h-328v97h328v-97zM551 0h-110l-13 76q-96 -87 -190 -87q-79 0 -121 42.5t-42 119.5v389h131v-354q0 -81 77 -81q65 0 137 70v365h131v-540z" />
    <glyph glyph-name="Ubreve" unicode="&#x16c;" horiz-adv-x="764" 
d="M544 903q-23 -132 -163 -132q-138 0 -162 132l76 14q20 -60 87 -60q65 0 86 60zM685 283q0 -141 -82.5 -218.5t-222.5 -77.5t-221 76.5t-81 216.5v445h137v-438q0 -85 42 -133t124 -48t124.5 46.5t42.5 132.5v440h137v-442z" />
    <glyph glyph-name="ubreve" unicode="&#x16d;" horiz-adv-x="630" 
d="M486 752q-24 -139 -174 -139q-147 0 -171 139l80 15q21 -64 93 -64q70 0 92 64zM551 0h-110l-13 76q-96 -87 -190 -87q-79 0 -121 42.5t-42 119.5v389h131v-354q0 -81 77 -81q65 0 137 70v365h131v-540z" />
    <glyph glyph-name="Uring" unicode="&#x16e;" horiz-adv-x="764" 
d="M508 875q0 -48 -34.5 -79t-91.5 -31q-58 0 -92.5 31t-34.5 79t35 79.5t92 31.5t91.5 -31.5t34.5 -79.5zM441 875q0 26 -16.5 44t-42.5 18t-43 -18t-17 -44t17 -43.5t43 -17.5t42.5 17.5t16.5 43.5zM685 283q0 -141 -82.5 -218.5t-222.5 -77.5t-221 76.5t-81 216.5v445
h137v-438q0 -85 42 -133t124 -48t124.5 46.5t42.5 132.5v440h137v-442z" />
    <glyph glyph-name="uring" unicode="&#x16f;" horiz-adv-x="630" 
d="M447 724q0 -51 -36.5 -84t-97.5 -33t-97.5 33t-36.5 84t37 85t97 34t97 -34t37 -85zM377 724q0 28 -18 47.5t-46 19.5q-27 0 -45.5 -19.5t-18.5 -47.5t18 -46.5t46 -18.5t46 18.5t18 46.5zM551 0h-110l-13 76q-96 -87 -190 -87q-79 0 -121 42.5t-42 119.5v389h131v-354
q0 -81 77 -81q65 0 137 70v365h131v-540z" />
    <glyph glyph-name="Uhungarumlaut" unicode="&#x170;" horiz-adv-x="764" 
d="M459 909l-145 -129h-76l84 156zM639 909l-145 -129h-76l84 156zM685 283q0 -141 -82.5 -218.5t-222.5 -77.5t-221 76.5t-81 216.5v445h137v-438q0 -85 42 -133t124 -48t124.5 46.5t42.5 132.5v440h137v-442z" />
    <glyph glyph-name="uhungarumlaut" unicode="&#x171;" horiz-adv-x="630" 
d="M395 753l-154 -137h-80l91 166zM587 753l-154 -137h-80l90 166zM551 0h-110l-13 76q-96 -87 -190 -87q-79 0 -121 42.5t-42 119.5v389h131v-354q0 -81 77 -81q65 0 137 70v365h131v-540z" />
    <glyph glyph-name="Uogonek" unicode="&#x172;" horiz-adv-x="764" 
d="M685 283q0 -129 -69 -205t-188 -88l-10 -15q-31 -43 -31 -67q0 -32 40 -32q18 0 46 7v-67q-47 -19 -92 -19q-43 0 -68 20.5t-25 59.5q0 45 54 112q-123 10 -193.5 85.5t-70.5 205.5v445h137v-438q0 -85 42 -133t124 -48t124.5 46.5t42.5 132.5v440h137v-442z" />
    <glyph glyph-name="uogonek" unicode="&#x173;" horiz-adv-x="630" 
d="M551 0h-22l-18 -26q-33 -48 -33 -72q0 -34 43 -34q24 0 49 7v-71q-53 -20 -98 -20q-46 0 -72 21.5t-26 63.5q0 52 67 131l-13 76q-96 -87 -190 -87q-79 0 -121 42.5t-42 119.5v389h131v-354q0 -81 77 -81q65 0 137 70v365h131v-540z" />
    <glyph glyph-name="Wcircumflex" unicode="&#x174;" horiz-adv-x="1114" 
d="M730 784h-79l-89 69l-88 -69h-79l109 152h117zM1078 725l-219 -727h-129l-175 532l-175 -532h-127l-215 708l144 26l147 -522l165 515h138l165 -515l143 515h138z" />
    <glyph glyph-name="wcircumflex" unicode="&#x175;" horiz-adv-x="856" 
d="M610 613h-83l-95 73l-95 -73h-83l117 161h122zM827 540l-172 -542h-119l-109 364l-108 -364h-118l-171 533l132 17l106 -370l107 362h115l108 -362l103 362h126z" />
    <glyph glyph-name="Ycircumflex" unicode="&#x176;" horiz-adv-x="722" 
d="M532 777h-79l-89 69l-88 -69h-79l109 152h117zM702 725l-274 -447v-278h-137v277l-266 431l143 24l196 -328l189 321h149z" />
    <glyph glyph-name="ycircumflex" unicode="&#x177;" horiz-adv-x="586" 
d="M477 613h-83l-95 73l-95 -73h-83l117 161h122zM562 540l-220 -577q-34 -93 -83 -130t-126 -37q-29 0 -53 6l-18 111q32 -9 60 -9q69 0 99 69l11 25l-206 532l136 18l136 -388l131 380h133z" />
    <glyph glyph-name="Ydieresis" unicode="&#x178;" horiz-adv-x="722" 
d="M323 780h-122v121h122v-121zM528 780h-122v121h122v-121zM702 725l-274 -447v-278h-137v277l-266 431l143 24l196 -328l189 321h149z" />
    <glyph glyph-name="Zacute" unicode="&#x179;" horiz-adv-x="670" 
d="M522 915l-153 -131h-82l84 159zM626 0h-576v100l400 512h-365l-17 113h548v-101l-400 -511h392z" />
    <glyph glyph-name="zacute" unicode="&#x17a;" horiz-adv-x="545" 
d="M468 752l-163 -139h-86l90 169zM503 0h-461v100l291 336h-262l-16 104h435v-100l-292 -335h288z" />
    <glyph glyph-name="Zdotaccent" unicode="&#x17b;" horiz-adv-x="670" 
d="M401 787h-125v121h125v-121zM626 0h-576v100l400 512h-365l-17 113h548v-101l-400 -511h392z" />
    <glyph glyph-name="zdotaccent" unicode="&#x17c;" horiz-adv-x="545" 
d="M339 616h-132v127h132v-127zM503 0h-461v100l291 336h-262l-16 104h435v-100l-292 -335h288z" />
    <glyph glyph-name="Zcaron" unicode="&#x17d;" horiz-adv-x="670" 
d="M171 936h79l89 -69l89 69h78l-109 -152h-116zM626 0h-576v100l400 512h-365l-17 113h548v-101l-400 -511h392z" />
    <glyph glyph-name="zcaron" unicode="&#x17e;" horiz-adv-x="545" 
d="M95 774h83l95 -74l95 74h83l-117 -161h-122zM503 0h-461v100l291 336h-262l-16 104h435v-100l-292 -335h288z" />
    <glyph glyph-name="uni018F" unicode="&#x18f;" horiz-adv-x="769" 
d="M350 619q-124 0 -257 -78l-17 122q135 75 280 75q162 0 259 -99.5t97 -275.5q0 -172 -93.5 -274.5t-239.5 -102.5t-229 97.5t-83 268.5q0 60 2 74h501q-14 90 -72 141.5t-148 51.5zM384 98q78 0 131 59t58 166h-367q3 -225 178 -225z" />
    <glyph glyph-name="florin" unicode="&#x192;" horiz-adv-x="457" 
d="M381 478v-104h-120l-63 -374h-129l62 374h-78l16 104h79l13 78q14 87 60.5 124.5t135.5 37.5q41 0 66 -3v-106q-26 4 -51 4q-37 0 -56.5 -18t-27.5 -59l-10 -58h103z" />
    <glyph glyph-name="Aringacute" unicode="&#x1fa;" horiz-adv-x="771" 
d="M569 1036l-153 -131h-82l84 159zM513 765q0 -49 -35 -79l264 -668l-136 -25l-74 193h-298l-69 -186h-136l268 682q-38 30 -38 83q0 48 35 79.5t92 31.5t92 -31.5t35 -79.5zM445 765q0 26 -16.5 44t-42.5 18t-43 -18t-17 -44t17 -43.5t43 -17.5t42.5 17.5t16.5 43.5z
M383 580l-107 -282h214z" />
    <glyph glyph-name="aringacute" unicode="&#x1fb;" horiz-adv-x="596" 
d="M498 1028l-163 -139h-86l90 169zM434 727q0 -51 -36.5 -84t-97.5 -33t-97.5 33t-36.5 84t37 85t97 34t97 -34t37 -85zM364 727q0 28 -18 47.5t-46 19.5q-27 0 -45.5 -19.5t-18.5 -47.5t18 -46.5t46 -18.5t46 18.5t18 46.5zM390 149v121q-120 -13 -167 -43.5t-47 -74.5
q0 -29 20 -46.5t54 -17.5q73 0 140 61zM520 0h-110l-12 70q-85 -81 -190 -81q-74 0 -118 40t-44 110q0 96 82.5 144t261.5 65v17q0 81 -100 81q-85 0 -190 -43l-16 104q112 44 222 44t162 -42.5t52 -137.5v-371z" />
    <glyph glyph-name="AEacute" unicode="&#x1fc;" horiz-adv-x="990" 
d="M754 915l-153 -131h-82l84 159zM319 298h183v329zM7 0l417 725h509v-117h-301v-175h233l18 -115h-251v-202h312v-116h-442v186h-245l-107 -186h-143z" />
    <glyph glyph-name="aeacute" unicode="&#x1fd;" horiz-adv-x="929" 
d="M662 752l-163 -139h-86l90 169zM880 277q0 -4 -0.5 -17t-0.5 -15h-367q5 -78 46 -116t110 -38q96 0 196 68l15 -103q-96 -67 -224 -67q-138 0 -212 84q-99 -84 -215 -84q-82 0 -132 38.5t-50 111.5q0 94 81 143t256 65v18q0 43 -22.5 62t-70.5 19q-85 0 -190 -43l-16 104
q112 44 214 44q71 0 111 -17t63 -57q65 75 169 75q117 0 178 -77t61 -198zM752 329q-14 131 -117 131q-47 0 -79 -33.5t-41 -97.5h237zM401 148q-19 60 -19 119v2q-115 -14 -160.5 -44t-45.5 -72q0 -31 22 -48t60 -17q72 0 143 60z" />
    <glyph glyph-name="Oslashacute" unicode="&#x1fe;" horiz-adv-x="822" 
d="M594 926l-153 -131h-82l84 159zM766 362q0 -168 -97.5 -272t-257.5 -104q-125 0 -213 65l-50 -60l-100 21l86 102q-77 101 -77 248q0 169 97 272.5t257 103.5q125 0 213 -65l51 61l99 -21l-86 -102q78 -100 78 -249zM411 628q-101 0 -159 -72t-58 -194q0 -87 31 -152
l320 371q-56 47 -134 47zM629 362q0 88 -32 152l-321 -371q56 -47 135 -47q101 0 159.5 72.5t58.5 193.5z" />
    <glyph glyph-name="oslashacute" unicode="&#x1ff;" horiz-adv-x="625" 
d="M507 752l-163 -139h-86l90 169zM311 449q-66 0 -102 -49t-36 -130q0 -54 16 -93l205 243q-35 29 -83 29zM452 270q0 50 -17 92l-204 -244q33 -27 80 -27q67 0 104 49t37 130zM577 270q0 -129 -74.5 -205t-190.5 -76q-86 0 -151 43l-38 -47l-88 19l68 82q-55 72 -55 184
q0 129 74 205.5t189 76.5q88 0 153 -45l40 49l88 -19l-71 -84q56 -75 56 -183z" />
    <glyph glyph-name="Scommaaccent" unicode="&#x218;" horiz-adv-x="590" 
d="M541 206q0 -102 -70 -158t-183 -56q-126 0 -233 50l20 126q112 -65 216 -65q53 0 85.5 23.5t32.5 65.5q0 41 -27.5 65t-111.5 57q-115 46 -160 91t-45 126q0 93 67.5 147.5t174.5 54.5q111 0 195 -45l-20 -123q-89 56 -176 56q-54 0 -81.5 -21.5t-27.5 -56.5t26.5 -58
t105.5 -54q119 -47 165.5 -95t46.5 -130zM229 -93l104 26q47 -45 47 -93q0 -62 -86 -133l-78 17q54 64 54 105q0 37 -41 78z" />
    <glyph glyph-name="scommaaccent" unicode="&#x219;" horiz-adv-x="536" 
d="M490 158q0 -80 -58 -124.5t-167 -44.5q-115 0 -217 52l17 110q100 -63 205 -63q47 0 73 15.5t26 42.5q0 30 -24.5 45t-95.5 32q-105 26 -148 62t-43 108q0 70 55 114t150 44q107 0 194 -38l-18 -109q-91 48 -177 48q-83 0 -83 -50q0 -23 23 -38t86 -30q112 -28 157 -65
t45 -111zM196 -92l110 27q50 -47 50 -99q0 -66 -92 -142l-81 18q58 68 58 113q0 39 -45 83z" />
    <glyph glyph-name="schwa" unicode="&#x259;" horiz-adv-x="595" 
d="M50 485q98 67 224 67q123 0 198 -70.5t75 -211.5q0 -129 -71.5 -205t-183.5 -76q-120 0 -181.5 76.5t-61.5 198.5q0 23 1 31h366q-4 79 -45 117t-110 38q-93 0 -196 -68zM294 81q47 0 79 33.5t41 97.5h-237q14 -131 117 -131z" />
    <glyph glyph-name="circumflex" unicode="&#x2c6;" horiz-adv-x="540" 
d="M448 613h-83l-95 73l-95 -73h-83l117 161h122z" />
    <glyph glyph-name="caron" unicode="&#x2c7;" horiz-adv-x="540" 
d="M92 774h83l95 -74l95 74h83l-117 -161h-122z" />
    <glyph glyph-name="breve" unicode="&#x2d8;" horiz-adv-x="540" 
d="M443 752q-24 -139 -174 -139q-147 0 -171 139l80 15q21 -64 93 -64q70 0 92 64z" />
    <glyph glyph-name="dotaccent" unicode="&#x2d9;" horiz-adv-x="540" 
d="M336 616h-132v127h132v-127z" />
    <glyph glyph-name="ring" unicode="&#x2da;" horiz-adv-x="540" 
d="M404 727q0 -51 -36.5 -84t-97.5 -33t-97.5 33t-36.5 84t37 85t97 34t97 -34t37 -85zM334 727q0 28 -18 47.5t-46 19.5q-27 0 -45.5 -19.5t-18.5 -47.5t18 -46.5t46 -18.5t46 18.5t18 46.5z" />
    <glyph glyph-name="ogonek" unicode="&#x2db;" horiz-adv-x="540" 
d="M277 44l64 -24l-32 -46q-33 -48 -33 -72q0 -34 43 -34q24 0 49 7v-71q-53 -20 -98 -20q-46 0 -72 21.5t-26 63.5q0 52 70 135z" />
    <glyph glyph-name="tilde" unicode="&#x2dc;" horiz-adv-x="540" 
d="M455 755q-17 -140 -101 -140q-33 0 -84 24q-57 26 -76 26q-14 0 -22.5 -11.5t-15.5 -42.5l-73 15q19 141 102 141q31 0 84 -24q57 -27 76 -27q25 0 38 54z" />
    <glyph glyph-name="hungarumlaut" unicode="&#x2dd;" horiz-adv-x="540" 
d="M290 753l-154 -137h-80l91 166zM482 753l-154 -137h-80l90 166z" />
    <glyph glyph-name="commaaccent" unicode="&#x326;" horiz-adv-x="540" 
d="M183 -92l110 27q50 -47 50 -99q0 -66 -92 -142l-81 18q58 68 58 113q0 39 -45 83z" />
    <glyph glyph-name="uni0400" unicode="&#x400;" horiz-adv-x="578" 
d="M359 784h-82l-154 131l153 28zM532 0h-445v725h434v-117h-299v-175h231l19 -115h-250v-202h310v-116z" />
    <glyph glyph-name="uni0401" unicode="&#x401;" horiz-adv-x="578" 
d="M266 787h-122v121h122v-121zM471 787h-122v121h122v-121zM532 0h-445v725h434v-117h-299v-175h231l19 -115h-250v-202h310v-116z" />
    <glyph glyph-name="uni0402" unicode="&#x402;" horiz-adv-x="852" 
d="M637 605h-238v-169q77 12 134 12q129 0 201 -58.5t72 -168.5q0 -103 -69 -164.5t-184 -62.5q-32 0 -67 8l11 108q25 -5 43 -5q60 0 96 31.5t36 80.5q0 114 -153 114q-56 0 -120 -13v-318h-137v605h-225v120h580z" />
    <glyph glyph-name="uni0403" unicode="&#x403;" horiz-adv-x="544" 
d="M466 915l-153 -131h-82l84 159zM87 725h406l20 -124h-289v-601h-137v725z" />
    <glyph glyph-name="uni0404" unicode="&#x404;" horiz-adv-x="700" 
d="M648 53q-104 -66 -232 -66q-167 0 -263 101t-96 273q0 171 97.5 273.5t265.5 102.5q122 0 216 -56l-19 -125q-99 65 -194 65q-96 0 -154.5 -51.5t-72.5 -144.5l338 2l17 -115l-357 2q11 -101 70.5 -155.5t157.5 -54.5q102 0 207 67z" />
    <glyph glyph-name="uni0405" unicode="&#x405;" horiz-adv-x="590" 
d="M541 206q0 -102 -70 -158t-183 -56q-126 0 -233 50l20 126q112 -65 216 -65q53 0 85.5 23.5t32.5 65.5q0 41 -27.5 65t-111.5 57q-115 46 -160 91t-45 126q0 93 67.5 147.5t174.5 54.5q111 0 195 -45l-20 -123q-89 56 -176 56q-54 0 -81.5 -21.5t-27.5 -56.5t26.5 -58
t105.5 -54q119 -47 165.5 -95t46.5 -130z" />
    <glyph glyph-name="uni0406" unicode="&#x406;" horiz-adv-x="322" 
d="M230 0h-138v725h138v-725z" />
    <glyph glyph-name="uni0407" unicode="&#x407;" horiz-adv-x="322" 
d="M119 787h-122v121h122v-121zM324 787h-122v121h122v-121zM230 0h-138v725h138v-725z" />
    <glyph glyph-name="uni0408" unicode="&#x408;" horiz-adv-x="440" 
d="M359 198q0 -105 -61.5 -155t-167.5 -50q-50 0 -83 7l-20 119q42 -10 86 -10q109 0 109 107v509h137v-527z" />
    <glyph glyph-name="uni0409" unicode="&#x409;" horiz-adv-x="1081" 
d="M1044 237q0 -115 -78.5 -176t-213.5 -61h-204v605h-178l-26 -202q-28 -219 -91 -307t-209 -111l-19 120q90 21 128.5 87t58.5 231l38 302h435v-262h84q129 0 202 -58.5t73 -167.5zM909 234q0 119 -151 119h-73v-243h69q74 0 114.5 31t40.5 93z" />
    <glyph glyph-name="uni040A" unicode="&#x40a;" horiz-adv-x="1082" 
d="M910 234q0 119 -152 119h-73v-243h69q74 0 115 31t41 93zM1045 237q0 -115 -78.5 -176t-213.5 -61h-204v315h-325v-315h-137v725h137v-288h325v288h137v-262h84q129 0 202 -58.5t73 -167.5z" />
    <glyph glyph-name="uni040B" unicode="&#x40b;" horiz-adv-x="866" 
d="M637 605h-238v-171q78 13 144 13q127 0 191 -55.5t64 -173.5v-218h-137v208q0 118 -133 118q-58 0 -129 -12v-314h-137v605h-225v120h580z" />
    <glyph glyph-name="uni040C" unicode="&#x40c;" horiz-adv-x="696" 
d="M540 908l-153 -131h-82l84 159zM686 19l-150 -26l-312 360v-353h-137v725h137v-319l283 319h165l-311 -340z" />
    <glyph glyph-name="uni040D" unicode="&#x40d;" horiz-adv-x="785" 
d="M443 777h-82l-154 131l153 28zM218 0h-131v725h134v-503l339 503h138v-725h-134v513z" />
    <glyph glyph-name="uni040E" unicode="&#x40e;" horiz-adv-x="718" 
d="M543 909q-23 -132 -163 -132q-138 0 -162 132l76 14q20 -60 87 -60q65 0 86 60zM705 725l-302 -586q-42 -83 -90 -117.5t-118 -34.5q-45 0 -85 12l-18 119q52 -13 82 -13q38 0 63.5 18.5t46.5 63.5l19 41l-265 482l146 22l197 -377l180 370h144z" />
    <glyph glyph-name="uni040F" unicode="&#x40f;" horiz-adv-x="776" 
d="M454 -155l-131 -17v172h-236v725h137v-606h328v606h138v-725h-236v-155z" />
    <glyph glyph-name="uni0410" unicode="&#x410;" horiz-adv-x="771" 
d="M29 0l287 728h145l281 -710l-137 -25l-74 193h-296l-68 -186h-138zM383 580l-107 -282h214z" />
    <glyph glyph-name="uni0411" unicode="&#x411;" horiz-adv-x="623" 
d="M579 225q0 -110 -75 -167.5t-209 -57.5h-208v725h423l19 -119h-308v-167h87q131 0 201 -56t70 -158zM445 222q0 108 -144 108h-80v-222h75q149 0 149 114z" />
    <glyph glyph-name="uni0412" unicode="&#x412;" horiz-adv-x="630" 
d="M582 211q0 -105 -74.5 -158t-209.5 -53h-211v725h214q124 0 187 -50t63 -138q0 -107 -110 -152q141 -41 141 -174zM424 525q0 94 -129 94h-77v-193h71q65 0 100 26t35 73zM451 215q0 55 -39.5 84t-114.5 29h-79v-223h82q72 0 111.5 28t39.5 82z" />
    <glyph glyph-name="uni0413" unicode="&#x413;" horiz-adv-x="544" 
d="M87 725h406l20 -124h-289v-601h-137v725z" />
    <glyph glyph-name="uni0414" unicode="&#x414;" horiz-adv-x="822" 
d="M156 -165h-130v279q105 98 155.5 195t69.5 245l21 171h434v-602h85v-278l-130 -17v172h-505v-165zM388 609l-12 -92q-18 -141 -60 -231t-123 -169h376v492h-181z" />
    <glyph glyph-name="uni0415" unicode="&#x415;" horiz-adv-x="578" 
d="M532 0h-445v725h434v-117h-299v-175h231l19 -115h-250v-202h310v-116z" />
    <glyph glyph-name="uni0416" unicode="&#x416;" horiz-adv-x="1040" 
d="M190 732l266 -332l-4 325h137l-3 -328l263 328h160l-285 -340l296 -366l-146 -26l-288 369l3 -362h-137l4 364l-278 -364h-160l300 379l-274 327z" />
    <glyph glyph-name="uni0417" unicode="&#x417;" horiz-adv-x="616" 
d="M560 203q0 -98 -77 -156.5t-202 -58.5q-122 0 -232 54l20 118q109 -56 209 -56q69 0 108 29.5t39 78.5q0 107 -178 107h-80l-17 112h102q75 0 116.5 26.5t41.5 73.5q0 42 -33.5 66t-97.5 24q-94 0 -198 -58l-18 116q105 58 233 58q115 0 183 -52t68 -138
q0 -121 -139 -167h1q152 -42 151 -177z" />
    <glyph glyph-name="uni0418" unicode="&#x418;" horiz-adv-x="785" 
d="M218 0h-131v725h134v-503l339 503h138v-725h-134v513z" />
    <glyph glyph-name="uni0419" unicode="&#x419;" horiz-adv-x="785" 
d="M555 909q-23 -132 -163 -132q-138 0 -162 132l76 14q20 -60 87 -60q65 0 86 60zM218 0h-131v725h134v-503l339 503h138v-725h-134v513z" />
    <glyph glyph-name="uni041A" unicode="&#x41a;" horiz-adv-x="696" 
d="M686 19l-150 -26l-312 360v-353h-137v725h137v-319l283 319h165l-311 -340z" />
    <glyph glyph-name="uni041B" unicode="&#x41b;" horiz-adv-x="779" 
d="M693 725v-725h-137v605h-186l-26 -202q-28 -219 -91 -307t-209 -111l-19 120q90 21 128.5 87t58.5 231l38 302h443z" />
    <glyph glyph-name="uni041C" unicode="&#x41c;" horiz-adv-x="994" 
d="M927 0h-135l-42 538l-199 -540h-122l-199 540l-41 -538h-123l59 725h173l201 -550l201 550h170z" />
    <glyph glyph-name="uni041D" unicode="&#x41d;" horiz-adv-x="783" 
d="M696 0h-137v315h-335v-315h-137v725h137v-288h335v288h137v-725z" />
    <glyph glyph-name="uni041E" unicode="&#x41e;" horiz-adv-x="822" 
d="M766 363q0 -168 -97.5 -272.5t-258.5 -104.5q-160 0 -256.5 103.5t-96.5 271.5q0 169 97 273t258 104t257.5 -103t96.5 -272zM627 362q0 120 -58 191t-158 71t-157.5 -70.5t-57.5 -191.5q0 -120 58 -190.5t157 -70.5q100 0 158 70.5t58 190.5z" />
    <glyph glyph-name="uni041F" unicode="&#x41f;" horiz-adv-x="776" 
d="M690 0h-138v605h-328v-605h-137v725h603v-725z" />
    <glyph glyph-name="uni0420" unicode="&#x420;" horiz-adv-x="616" 
d="M579 503q0 -114 -77.5 -174t-209.5 -60h-69v-269h-136v725h218q129 0 201.5 -57.5t72.5 -164.5zM444 500q0 114 -147 114h-74v-235h69q152 0 152 121z" />
    <glyph glyph-name="uni0421" unicode="&#x421;" horiz-adv-x="688" 
d="M638 50q-100 -63 -225 -63q-163 0 -259.5 102t-96.5 272q0 169 98.5 272.5t262.5 103.5q121 0 208 -53l-19 -130q-90 65 -185 65q-105 0 -165.5 -69t-60.5 -188q0 -118 61.5 -187t166.5 -69q97 0 195 64z" />
    <glyph glyph-name="uni0422" unicode="&#x422;" horiz-adv-x="669" 
d="M642 605h-238v-605h-137v605h-231v120h586z" />
    <glyph glyph-name="uni0423" unicode="&#x423;" horiz-adv-x="718" 
d="M705 725l-302 -586q-42 -83 -90 -117.5t-118 -34.5q-45 0 -85 12l-18 119q52 -13 82 -13q38 0 63.5 18.5t46.5 63.5l19 41l-265 482l146 22l197 -377l180 370h144z" />
    <glyph glyph-name="uni0424" unicode="&#x424;" horiz-adv-x="973" 
d="M555 -13h-137v79q-176 7 -273 87.5t-97 209.5q0 127 97 208.5t273 89.5v77h137v-77q176 -8 273.5 -88.5t97.5 -209.5q0 -128 -98.5 -209t-272.5 -88v-79zM792 364q0 83 -61.5 134t-178.5 56v-381q116 5 178 56.5t62 134.5zM182 364q0 -84 61 -135t178 -56v381
q-116 -5 -177.5 -56.5t-61.5 -133.5z" />
    <glyph glyph-name="uni0425" unicode="&#x425;" horiz-adv-x="719" 
d="M689 18l-144 -25l-191 290l-182 -283h-145l250 373l-225 333l142 26l168 -261l161 254h146l-230 -343z" />
    <glyph glyph-name="uni0426" unicode="&#x426;" horiz-adv-x="802" 
d="M224 119h325v606h137v-602h86v-278l-130 -17v172h-555v725h137v-606z" />
    <glyph glyph-name="uni0427" unicode="&#x427;" horiz-adv-x="688" 
d="M65 725h137v-242q0 -118 133 -118q65 0 129 12v348h137v-725h-137v256q-82 -12 -145 -12q-126 0 -190 55.5t-64 173.5v252z" />
    <glyph glyph-name="uni0428" unicode="&#x428;" horiz-adv-x="1074" 
d="M223 118h246v607h136v-607h245v607h137v-725h-900v725h136v-607z" />
    <glyph glyph-name="uni0429" unicode="&#x429;" horiz-adv-x="1100" 
d="M223 118h244v607h136v-607h244v607h137v-602h85v-278l-129 -17v172h-853v725h136v-607z" />
    <glyph glyph-name="uni042A" unicode="&#x42a;" horiz-adv-x="766" 
d="M729 237q0 -115 -78 -176t-213 -61h-204v605h-211l20 120h327v-262h85q128 0 201 -58.5t73 -167.5zM594 234q0 119 -151 119h-73v-243h69q74 0 114.5 31t40.5 93z" />
    <glyph glyph-name="uni042B" unicode="&#x42b;" horiz-adv-x="896" 
d="M804 0h-137v725h137v-725zM577 236q0 -115 -77.5 -175.5t-212.5 -60.5h-200v725h136v-262h79q129 0 202 -59t73 -168zM442 234q0 119 -151 119h-68v-243h64q155 0 155 124z" />
    <glyph glyph-name="uni042C" unicode="&#x42c;" horiz-adv-x="619" 
d="M582 237q0 -115 -78 -176t-213 -61h-204v725h136v-262h85q128 0 201 -58.5t73 -167.5zM447 234q0 119 -151 119h-73v-243h69q74 0 114.5 31t40.5 93z" />
    <glyph glyph-name="uni042D" unicode="&#x42d;" horiz-adv-x="700" 
d="M82 557l-19 121q105 59 229 59q163 0 257 -101t94 -272q0 -170 -97.5 -273.5t-263.5 -103.5q-127 0 -230 65l19 122q104 -70 207 -70q98 0 156.5 55t69.5 155l-339 -2l-18 115l355 -2q-14 93 -71 144.5t-148 51.5q-105 0 -201 -64z" />
    <glyph glyph-name="uni042E" unicode="&#x42e;" horiz-adv-x="1063" 
d="M1004 363q0 -168 -90.5 -272.5t-241.5 -104.5q-138 0 -225.5 88.5t-101.5 236.5h-121v-311h-137v725h137v-292h124q19 140 105.5 222.5t220.5 82.5q150 0 240 -103t90 -272zM866 362q0 122 -51 192t-142 70t-142 -70t-51 -192q0 -121 51 -191t142 -70t142 70t51 191z" />
    <glyph glyph-name="uni042F" unicode="&#x42f;" horiz-adv-x="655" 
d="M206 502q0 -59 39 -88.5t107 -29.5h81v230h-83q-69 0 -106.5 -29.5t-37.5 -82.5zM19 19l201 281q-149 46 -149 200q0 104 75.5 164.5t205.5 60.5h217v-725h-137v279h-78l-197 -286z" />
    <glyph glyph-name="uni0430" unicode="&#x430;" horiz-adv-x="596" 
d="M390 149v121q-120 -13 -167 -43.5t-47 -74.5q0 -29 20 -46.5t54 -17.5q73 0 140 61zM520 0h-110l-12 70q-85 -81 -190 -81q-74 0 -118 40t-44 110q0 96 82.5 144t261.5 65v17q0 81 -100 81q-85 0 -190 -43l-16 104q112 44 222 44t162 -42.5t52 -137.5v-371z" />
    <glyph glyph-name="uni0431" unicode="&#x431;" horiz-adv-x="640" 
d="M368 659q-101 -16 -148.5 -64t-59.5 -155q67 92 195 92q107 0 172 -71.5t65 -189.5q0 -128 -75.5 -205t-193.5 -77q-107 0 -174 65q-92 87 -92 289q0 211 67.5 309.5t229.5 125.5l179 31l18 -119zM463 265q0 73 -35 118t-97 45q-67 0 -106.5 -48t-39.5 -120
q0 -75 37.5 -120.5t100.5 -45.5q64 0 102 48.5t38 122.5z" />
    <glyph glyph-name="uni0432" unicode="&#x432;" horiz-adv-x="602" 
d="M555 156q0 -77 -60 -116.5t-170 -39.5h-247v540h253q99 0 151.5 -36t52.5 -103q0 -81 -90 -117q110 -31 110 -128zM414 385q0 61 -96 61h-118v-125h117q97 0 97 64zM429 164q0 73 -107 73h-122v-143h118q111 0 111 70z" />
    <glyph glyph-name="uni0433" unicode="&#x433;" horiz-adv-x="481" 
d="M78 0v540h360l16 -112h-245v-428h-131z" />
    <glyph glyph-name="uni0434" unicode="&#x434;" horiz-adv-x="683" 
d="M24 -164v262q74 64 111 128t51 169l19 145h373v-432h76v-265l-122 -16v173h-386v-164h-122zM312 439l-9 -71q-13 -93 -43 -151.5t-86 -113.5h277v336h-139z" />
    <glyph glyph-name="uni0435" unicode="&#x435;" horiz-adv-x="595" 
d="M545 56q-96 -67 -224 -67q-124 0 -198.5 70.5t-74.5 210.5q0 129 71.5 205.5t183.5 76.5q120 0 181.5 -77t61.5 -198q0 -24 -1 -32h-367q10 -154 156 -154q96 0 195 68zM300 460q-47 0 -79 -33.5t-40 -97.5h237q-16 131 -118 131z" />
    <glyph glyph-name="uni0436" unicode="&#x436;" horiz-adv-x="871" 
d="M166 0h-148l226 280l-210 248l138 20l201 -253l-3 245h131l-3 -244l193 244h148l-213 -255l227 -273l-138 -20l-217 276l3 -268h-131l3 270z" />
    <glyph glyph-name="uni0437" unicode="&#x437;" horiz-adv-x="559" 
d="M495 403q0 -91 -102 -126q113 -34 113 -130q0 -72 -62.5 -115.5t-177.5 -43.5q-117 0 -219 48l16 106q107 -49 200 -49q113 0 113 66q0 68 -123 68h-93l-18 95h113q111 0 111 64q0 61 -107 61q-82 0 -184 -44l-17 104q99 44 213 44q112 0 168 -40.5t56 -107.5z" />
    <glyph glyph-name="uni0438" unicode="&#x438;" horiz-adv-x="653" 
d="M78 0v540h127v-349l238 349h132v-540h-127v357l-244 -357h-126z" />
    <glyph glyph-name="uni0439" unicode="&#x439;" horiz-adv-x="653" 
d="M499 752q-24 -139 -174 -139q-147 0 -171 139l80 15q21 -64 93 -64q70 0 92 64zM78 0v540h127v-349l238 349h132v-540h-127v357l-244 -357h-126z" />
    <glyph glyph-name="uni043A" unicode="&#x43a;" horiz-adv-x="582" 
d="M425 -8l-216 265v-257h-131v540h131v-236l194 236h152l-219 -255l231 -273z" />
    <glyph glyph-name="uni043B" unicode="&#x43b;" horiz-adv-x="655" 
d="M20 97q71 16 100 63t45 165l27 215h385v-540h-131v435h-142l-15 -126q-20 -165 -75.5 -235t-176.5 -86z" />
    <glyph glyph-name="uni043C" unicode="&#x43c;" horiz-adv-x="864" 
d="M803 0h-127l-27 410l-161 -412h-121l-162 412l-27 -410h-116l42 540h174l155 -385l155 385h173z" />
    <glyph glyph-name="uni043D" unicode="&#x43d;" horiz-adv-x="644" 
d="M566 0h-131v224h-226v-224h-131v540h131v-209h226v209h131v-540z" />
    <glyph glyph-name="uni043E" unicode="&#x43e;" horiz-adv-x="625" 
d="M577 270q0 -129 -74.5 -205t-191.5 -76q-116 0 -189.5 75.5t-73.5 205.5t73.5 206t189.5 76q117 0 191.5 -76t74.5 -206zM448 270q0 77 -36.5 126t-100.5 49t-99 -48t-35 -127q0 -77 35.5 -125.5t98.5 -48.5q66 0 101.5 47.5t35.5 126.5z" />
    <glyph glyph-name="uni043F" unicode="&#x43f;" horiz-adv-x="639" 
d="M561 0h-131v433h-221v-433h-131v540h483v-540z" />
    <glyph glyph-name="uni0440" unicode="&#x440;" horiz-adv-x="640" 
d="M459 278q0 77 -31.5 117.5t-84.5 40.5q-69 0 -134 -78v-235q52 -23 115 -23q61 0 98 45.5t37 132.5zM591 285q0 -143 -71 -217t-178 -74q-72 0 -133 21v-204l-131 -19v748h110l13 -74q80 86 175 86q94 0 154.5 -68t60.5 -199z" />
    <glyph glyph-name="uni0441" unicode="&#x441;" horiz-adv-x="548" 
d="M502 41q-80 -52 -188 -52q-119 0 -192.5 74.5t-73.5 204.5q0 135 77 209t197 74q99 0 174 -46l-18 -118q-75 51 -150 51q-67 0 -107.5 -43.5t-40.5 -123.5q0 -82 42 -125.5t110 -43.5q81 0 152 52z" />
    <glyph glyph-name="uni0442" unicode="&#x442;" horiz-adv-x="552" 
d="M211 0v431h-180v109h482l17 -109h-189v-431h-130z" />
    <glyph glyph-name="uni0443" unicode="&#x443;" horiz-adv-x="586" 
d="M562 540l-220 -577q-34 -93 -83 -130t-126 -37q-29 0 -53 6l-18 111q32 -9 60 -9q69 0 99 69l11 25l-206 532l136 18l136 -388l131 380h133z" />
    <glyph glyph-name="uni0444" unicode="&#x444;" horiz-adv-x="866" 
d="M823 271q0 -120 -85 -193.5t-240 -83.5v-183l-130 -19v202q-157 9 -240.5 82.5t-83.5 193.5q0 119 84.5 192.5t239.5 83.5v242l130 21v-263q157 -10 241 -83t84 -192zM172 270q0 -76 51 -120t148 -51v342q-98 -7 -148.5 -51t-50.5 -120zM694 270q0 75 -51.5 118.5
t-146.5 51.5v-341q97 7 147.5 50.5t50.5 120.5z" />
    <glyph glyph-name="uni0445" unicode="&#x445;" horiz-adv-x="572" 
d="M540 9l-133 -17l-126 198l-118 -190h-131l180 271l-170 259l134 18l114 -183l109 175h130l-170 -257z" />
    <glyph glyph-name="uni0446" unicode="&#x446;" horiz-adv-x="662" 
d="M78 0v540h131v-432h217v432h131v-432h75v-263l-122 -17v172h-432z" />
    <glyph glyph-name="uni0447" unicode="&#x447;" horiz-adv-x="597" 
d="M57 540h131v-170q0 -93 109 -93q48 0 91 8v255h131v-540h-131v173q-60 -12 -117 -12q-214 0 -214 200v179z" />
    <glyph glyph-name="uni0448" unicode="&#x448;" horiz-adv-x="957" 
d="M414 540h130v-432h205v432h130v-540h-801v540h132v-432h204v432z" />
    <glyph glyph-name="uni0449" unicode="&#x449;" horiz-adv-x="981" 
d="M412 540h131v-432h202v432h131v-432h75v-263l-122 -17v172h-751v540h132v-432h202v432z" />
    <glyph glyph-name="uni044A" unicode="&#x44a;" horiz-adv-x="661" 
d="M625 188q0 -89 -64.5 -138.5t-175.5 -49.5h-205v433h-165l17 107h279v-171h87q111 0 169 -47t58 -134zM500 186q0 87 -113 87h-76v-176h74q56 0 85.5 23.5t29.5 65.5z" />
    <glyph glyph-name="uni044B" unicode="&#x44b;" horiz-adv-x="814" 
d="M518 188q0 -89 -64 -138.5t-176 -49.5h-200v540h131v-171h82q111 0 169 -47t58 -134zM735 0h-131v540h131v-540zM394 186q0 87 -114 87h-71v-176h69q56 0 86 23.5t30 65.5z" />
    <glyph glyph-name="uni044C" unicode="&#x44c;" horiz-adv-x="559" 
d="M523 188q0 -89 -64.5 -138.5t-175.5 -49.5h-205v540h131v-171h87q111 0 169 -47t58 -134zM398 186q0 87 -113 87h-76v-176h74q56 0 85.5 23.5t29.5 65.5z" />
    <glyph glyph-name="uni044D" unicode="&#x44d;" horiz-adv-x="560" 
d="M71 395l-17 106q83 51 190 51q122 0 195 -75t73 -207q0 -134 -79 -207.5t-204 -73.5q-100 0 -180 46l18 111q74 -51 163 -51q65 0 106 33t50 97l-247 -1l-15 98l261 -2q-10 61 -50 93t-102 32q-83 0 -162 -50z" />
    <glyph glyph-name="uni044E" unicode="&#x44e;" horiz-adv-x="861" 
d="M813 270q0 -130 -71.5 -205.5t-185.5 -75.5q-101 0 -168.5 61.5t-80.5 169.5h-98v-220h-131v540h131v-212h100q15 105 82 164.5t166 59.5q114 0 185 -76t71 -206zM684 270q0 78 -32.5 126t-94.5 48t-93.5 -47.5t-31.5 -126.5q0 -78 32 -126t93 -48q62 0 94.5 47.5
t32.5 126.5z" />
    <glyph glyph-name="uni044F" unicode="&#x44f;" horiz-adv-x="616" 
d="M202 359q0 -85 112 -85h94v168h-93q-54 0 -83.5 -22t-29.5 -61zM166 -8l-135 25l156 182q-53 21 -82.5 61.5t-29.5 96.5q0 85 62.5 134t176.5 49h224v-540h-131v178h-90z" />
    <glyph glyph-name="uni0450" unicode="&#x450;" horiz-adv-x="595" 
d="M362 613h-87l-163 139l160 30zM545 56q-96 -67 -224 -67q-124 0 -198.5 70.5t-74.5 210.5q0 129 71.5 205.5t183.5 76.5q120 0 181.5 -77t61.5 -198q0 -24 -1 -32h-367q10 -154 156 -154q96 0 195 68zM300 460q-47 0 -79 -33.5t-40 -97.5h237q-16 131 -118 131z" />
    <glyph glyph-name="uni0451" unicode="&#x451;" horiz-adv-x="595" 
d="M264 616h-129v127h129v-127zM482 616h-129v127h129v-127zM545 56q-96 -67 -224 -67q-124 0 -198.5 70.5t-74.5 210.5q0 129 71.5 205.5t183.5 76.5q120 0 181.5 -77t61.5 -198q0 -24 -1 -32h-367q10 -154 156 -154q96 0 195 68zM300 460q-47 0 -79 -33.5t-40 -97.5h237
q-16 131 -118 131z" />
    <glyph glyph-name="uni0452" unicode="&#x452;" horiz-adv-x="619" 
d="M397 595h-183v-140q63 12 115 12q120 0 177 -59.5t57 -180.5q0 -182 -136 -435l-125 20q131 255 131 405q0 70 -31.5 102.5t-101.5 32.5q-46 0 -86 -9v-343h-131v595h-100l-17 99h117v94l131 21v-115h183v-99z" />
    <glyph glyph-name="uni0453" unicode="&#x453;" horiz-adv-x="481" 
d="M445 752l-163 -139h-86l90 169zM78 0v540h360l16 -112h-245v-428h-131z" />
    <glyph glyph-name="uni0454" unicode="&#x454;" horiz-adv-x="560" 
d="M435 225l-262 1q9 -65 52 -98t109 -33q88 0 161 52l16 -108q-77 -50 -192 -50q-123 0 -197 74.5t-74 205.5q0 135 77.5 209t202.5 74q101 0 179 -45l-18 -112q-77 51 -158 51q-65 0 -106 -31.5t-51 -93.5l246 1z" />
    <glyph glyph-name="uni0455" unicode="&#x455;" horiz-adv-x="536" 
d="M490 158q0 -80 -58 -124.5t-167 -44.5q-115 0 -217 52l17 110q100 -63 205 -63q47 0 73 15.5t26 42.5q0 30 -24.5 45t-95.5 32q-105 26 -148 62t-43 108q0 70 55 114t150 44q107 0 194 -38l-18 -109q-91 48 -177 48q-83 0 -83 -50q0 -23 23 -38t86 -30q112 -28 157 -65
t45 -111z" />
    <glyph glyph-name="uni0456" unicode="&#x456;" horiz-adv-x="301" 
d="M229 708q0 -33 -22.5 -54.5t-55.5 -21.5t-56.5 21.5t-23.5 54.5t23.5 54.5t56.5 21.5t55.5 -21.5t22.5 -54.5zM216 0h-131v540h131v-540z" />
    <glyph glyph-name="uni0457" unicode="&#x457;" horiz-adv-x="301" 
d="M106 616h-129v127h129v-127zM324 616h-129v127h129v-127zM216 0h-131v540h131v-540z" />
    <glyph glyph-name="uni0458" unicode="&#x458;" horiz-adv-x="301" 
d="M229 708q0 -33 -22.5 -54.5t-55.5 -21.5t-56.5 21.5t-23.5 54.5t23.5 54.5t56.5 21.5t55.5 -21.5t22.5 -54.5zM216 -44q0 -82 -44.5 -121t-123.5 -39q-35 0 -53 4l-17 108q22 -5 45 -5q62 0 62 63v574h131v-584z" />
    <glyph glyph-name="uni0459" unicode="&#x459;" horiz-adv-x="919" 
d="M883 188q0 -89 -64 -138.5t-176 -49.5h-205v435h-134l-15 -126q-20 -165 -75.5 -235t-176.5 -86l-17 109q71 16 100 63t45 165l27 215h377v-171h87q111 0 169 -47t58 -134zM758 186q0 87 -113 87h-76v-176h74q56 0 85.5 23.5t29.5 65.5z" />
    <glyph glyph-name="uni045A" unicode="&#x45a;" horiz-adv-x="901" 
d="M741 186q0 87 -114 87h-68v-176h66q56 0 86 23.5t30 65.5zM865 188q0 -89 -64 -138.5t-176 -49.5h-196v226h-220v-226h-131v540h131v-206h220v206h130v-171h80q110 0 168 -47t58 -134z" />
    <glyph glyph-name="uni045B" unicode="&#x45b;" horiz-adv-x="626" 
d="M397 595h-183v-140q63 12 123 12q111 0 165 -49t54 -151v-267h-131v259q0 49 -28.5 71t-90.5 22q-47 0 -92 -9v-343h-131v595h-100l-17 99h117v94l131 21v-115h183v-99z" />
    <glyph glyph-name="uni045C" unicode="&#x45c;" horiz-adv-x="582" 
d="M500 752l-163 -139h-86l90 169zM425 -8l-216 265v-257h-131v540h131v-236l194 236h152l-219 -255l231 -273z" />
    <glyph glyph-name="uni045D" unicode="&#x45d;" horiz-adv-x="653" 
d="M380 613h-87l-163 139l160 30zM78 0v540h127v-349l238 349h132v-540h-127v357l-244 -357h-126z" />
    <glyph glyph-name="uni045E" unicode="&#x45e;" horiz-adv-x="586" 
d="M472 752q-24 -139 -174 -139q-147 0 -171 139l80 15q21 -64 93 -64q70 0 92 64zM562 540l-220 -577q-34 -93 -83 -130t-126 -37q-29 0 -53 6l-18 111q32 -9 60 -9q69 0 99 69l11 25l-206 532l136 18l136 -388l131 380h133z" />
    <glyph glyph-name="uni045F" unicode="&#x45f;" horiz-adv-x="639" 
d="M381 -155l-124 -17l1 172h-180v540h131v-432h221v432h131v-540h-180v-155z" />
    <glyph glyph-name="uni0462" unicode="&#x462;" horiz-adv-x="767" 
d="M726 215q0 -101 -72.5 -158t-200.5 -57h-219v532h-208l16 104h192v102h135v-102h230v-104h-230v-112h97q126 0 193 -55t67 -150zM592 213q0 46 -33 73t-99 27h-91v-205h87q66 0 101 28.5t35 76.5z" />
    <glyph glyph-name="uni0463" unicode="&#x463;" horiz-adv-x="661" 
d="M625 179q0 -85 -64 -132t-174 -47h-207v441h-165l16 99h149v248l130 21v-269h195v-98h-195v-92h88q110 0 168.5 -44t58.5 -127zM501 177q0 37 -28.5 57.5t-82.5 20.5h-81v-159h78q55 0 84.5 21t29.5 60z" />
    <glyph glyph-name="uni0472" unicode="&#x472;" horiz-adv-x="822" 
d="M766 363q0 -168 -97.5 -272.5t-258.5 -104.5q-160 0 -256.5 103.5t-96.5 271.5q0 169 97 273t258 104t257.5 -103t96.5 -272zM411 626q-91 0 -148 -55t-70 -151h436q-13 96 -70 151t-148 55zM411 98q92 0 149.5 56t69.5 154h-437q12 -98 69.5 -154t148.5 -56z" />
    <glyph glyph-name="uni0473" unicode="&#x473;" horiz-adv-x="625" 
d="M576 270q0 -128 -73.5 -205t-190.5 -77q-118 0 -191 76.5t-73 205.5q0 128 73.5 205t190.5 77q118 0 191 -76.5t73 -205.5zM312 454q-58 0 -95.5 -35.5t-46.5 -102.5h284q-10 67 -47 102.5t-95 35.5zM312 85q58 0 95 35.5t47 102.5h-284q10 -67 47 -102.5t95 -35.5z" />
    <glyph glyph-name="uni0474" unicode="&#x474;" horiz-adv-x="784" 
d="M760 733l18 -122q-61 -10 -94.5 -46t-69.5 -127l-172 -443h-137l-276 712l144 25l206 -558l115 301q47 138 103.5 194.5t162.5 63.5z" />
    <glyph glyph-name="uni0475" unicode="&#x475;" horiz-adv-x="603" 
d="M594 435q-52 -9 -79.5 -38.5t-50.5 -92.5l-109 -307h-134l-195 533l138 18l129 -388l65 193q30 98 77.5 144t140.5 54z" />
    <glyph glyph-name="uni0490" unicode="&#x490;" horiz-adv-x="553" 
d="M87 725h305v150l130 -17v-257h-298v-601h-137v725z" />
    <glyph glyph-name="uni0491" unicode="&#x491;" horiz-adv-x="498" 
d="M209 428v-428h-131v540h272v162l123 -17v-257h-264z" />
    <glyph glyph-name="uni0492" unicode="&#x492;" horiz-adv-x="568" 
d="M111 725h406l20 -124h-289v-215h164v-71h-164v-315h-137v315h-82l-13 71h95v339z" />
    <glyph glyph-name="uni0493" unicode="&#x493;" horiz-adv-x="506" 
d="M103 0v213h-76l-12 71h88v256h360l16 -112h-245v-144h144v-71h-144v-213h-131z" />
    <glyph glyph-name="uni0496" unicode="&#x496;" horiz-adv-x="1056" 
d="M190 732l266 -332l-4 325h137l-3 -328l263 328h160l-285 -340l211 -262h109v-278l-130 -17v172h-46l-282 362l3 -362h-137l4 364l-278 -364h-160l300 379l-274 327z" />
    <glyph glyph-name="uni0497" unicode="&#x497;" horiz-adv-x="886" 
d="M626 285l146 -177h102v-263l-122 -17v172h-43l-211 268l3 -268h-131l3 270l-207 -270h-148l226 280l-210 248l138 20l201 -253l-3 245h131l-3 -244l193 244h148z" />
    <glyph glyph-name="uni0498" unicode="&#x498;" horiz-adv-x="616" 
d="M560 203q0 -82 -55 -137t-149 -71l4 -150l-131 -17l3 162q-95 9 -183 52l20 118q109 -56 209 -56q69 0 108 29.5t39 78.5q0 107 -178 107h-80l-17 112h102q75 0 116.5 26.5t41.5 73.5q0 42 -33.5 66t-97.5 24q-94 0 -198 -58l-18 116q105 58 233 58q115 0 183 -52
t68 -138q0 -121 -139 -167h1q152 -42 151 -177z" />
    <glyph glyph-name="uni0499" unicode="&#x499;" horiz-adv-x="559" 
d="M495 403q0 -91 -102 -126q113 -34 113 -130q0 -62 -47.5 -104t-135.5 -52l4 -146l-125 -17l4 163q-86 9 -159 45l16 106q107 -49 200 -49q113 0 113 66q0 68 -123 68h-93l-18 95h113q111 0 111 64q0 61 -107 61q-82 0 -184 -44l-17 104q99 44 213 44q112 0 168 -40.5
t56 -107.5z" />
    <glyph glyph-name="uni049A" unicode="&#x49a;" horiz-adv-x="713" 
d="M578 -172v172h-48l-306 353v-353h-137v725h137v-319l283 319h165l-311 -340l231 -262h116v-278z" />
    <glyph glyph-name="uni049B" unicode="&#x49b;" horiz-adv-x="597" 
d="M209 0h-131v540h131v-236l194 236h151l-218 -255l149 -177h101v-263l-122 -17v172h-45l-210 257v-257z" />
    <glyph glyph-name="uni049C" unicode="&#x49c;" horiz-adv-x="739" 
d="M370 607v-168l181 286h158l-230 -341l242 -365l-146 -26l-205 324v-169h-70v169h-76v-317h-137v725h137v-288h76v170h70z" />
    <glyph glyph-name="uni049D" unicode="&#x49d;" horiz-adv-x="654" 
d="M340 465v-134l132 209h141l-169 -253l188 -275l-137 -20l-155 241v-136h-69v130h-63v-227h-130v540h130v-206h63v131h69z" />
    <glyph glyph-name="uni04A0" unicode="&#x4a0;" horiz-adv-x="843" 
d="M833 19l-150 -26l-312 360v-353h-137v605h-211l20 120h328v-319l283 319h165l-311 -340z" />
    <glyph glyph-name="uni04A1" unicode="&#x4a1;" horiz-adv-x="685" 
d="M527 -8l-216 265v-257h-131v433h-165l17 107h279v-236l194 236h152l-219 -255l231 -273z" />
    <glyph glyph-name="uni04A2" unicode="&#x4a2;" horiz-adv-x="812" 
d="M652 -172v172h-93v315h-335v-315h-137v725h137v-288h335v288h137v-602h86v-278z" />
    <glyph glyph-name="uni04A3" unicode="&#x4a3;" horiz-adv-x="670" 
d="M518 -172v172h-83v224h-226v-224h-131v540h131v-209h226v209h131v-432h75v-263z" />
    <glyph glyph-name="uni04A4" unicode="&#x4a4;" horiz-adv-x="995" 
d="M680 0h-137v315h-319v-315h-137v725h137v-288h319v288h401l19 -124h-283v-601z" />
    <glyph glyph-name="uni04A5" unicode="&#x4a5;" horiz-adv-x="825" 
d="M558 0h-131v226h-218v-226h-131v540h131v-206h218v206h354l16 -112h-239v-428z" />
    <glyph glyph-name="uni04AA" unicode="&#x4aa;" horiz-adv-x="688" 
d="M638 50q-84 -53 -187 -61l4 -144l-131 -17l3 168q-126 25 -198 122t-72 243q0 169 98.5 272.5t262.5 103.5q121 0 208 -53l-19 -130q-90 65 -185 65q-105 0 -165.5 -69t-60.5 -188q0 -118 61.5 -187t166.5 -69q97 0 195 64z" />
    <glyph glyph-name="uni04AB" unicode="&#x4ab;" horiz-adv-x="548" 
d="M502 41q-62 -40 -142 -49l4 -147l-124 -17l4 169q-90 20 -143 90.5t-53 180.5q0 135 77 209t197 74q99 0 174 -46l-18 -118q-75 51 -150 51q-67 0 -107.5 -43.5t-40.5 -123.5q0 -82 42 -125.5t110 -43.5q81 0 152 52z" />
    <glyph glyph-name="uni04AE" unicode="&#x4ae;" horiz-adv-x="722" 
d="M702 725l-274 -447v-278h-137v277l-266 431l143 24l196 -328l189 321h149z" />
    <glyph glyph-name="uni04AF" unicode="&#x4af;" horiz-adv-x="587" 
d="M563 540l-205 -540v-189l-131 -19v208l-201 530l138 18l135 -389l132 381h132z" />
    <glyph glyph-name="uni04B0" unicode="&#x4b0;" horiz-adv-x="722" 
d="M702 725l-275 -448v-53h148l12 -69h-160v-155h-135v155h-154v69h154v51l-267 433l143 24l196 -328l189 321h149z" />
    <glyph glyph-name="uni04B1" unicode="&#x4b1;" horiz-adv-x="587" 
d="M563 540l-205 -540v-13h125l12 -71h-137v-105l-131 -19v124h-129v71h129v13l-201 530l138 18l135 -389l132 381h132z" />
    <glyph glyph-name="uni04B2" unicode="&#x4b2;" horiz-adv-x="734" 
d="M523 725h146l-230 -343l177 -259h103v-278l-130 -17v172h-48l-187 284l-182 -284h-145l250 373l-225 333l142 26l168 -261z" />
    <glyph glyph-name="uni04B3" unicode="&#x4b3;" horiz-adv-x="587" 
d="M399 540h130l-170 -257l116 -175h96v-263l-123 -17v172h-45l-122 190l-118 -190h-131l180 271l-170 259l134 18l114 -183z" />
    <glyph glyph-name="uni04B6" unicode="&#x4b6;" horiz-adv-x="717" 
d="M65 725h137v-242q0 -118 133 -118q65 0 129 12v348h137v-602h86v-278l-130 -17v172h-93v256q-82 -12 -145 -12q-126 0 -190 55.5t-64 173.5v252z" />
    <glyph glyph-name="uni04B7" unicode="&#x4b7;" horiz-adv-x="624" 
d="M57 540h131v-170q0 -93 109 -93q48 0 91 8v255h131v-432h75v-263l-122 -17v172h-84v173q-60 -12 -117 -12q-214 0 -214 200v179z" />
    <glyph glyph-name="uni04B8" unicode="&#x4b8;" horiz-adv-x="694" 
d="M371 90h-70v154h-1q-116 3 -176 59t-59 170v252h137v-242q0 -104 100 -116v176h68v-178q44 1 100 12v348h137v-725h-137v256q-59 -9 -99 -11v-155z" />
    <glyph glyph-name="uni04B9" unicode="&#x4b9;" horiz-adv-x="626" 
d="M267 47v114h-1q-105 1 -157.5 50t-51.5 150v179h131v-170q0 -81 80 -91v132h68v-134q42 0 81 8v255h131v-540h-131v173q-45 -10 -81 -11v-115h-69z" />
    <glyph glyph-name="uni04BA" unicode="&#x4ba;" horiz-adv-x="688" 
d="M623 0h-137v241q0 63 -33.5 91t-100.5 28q-58 0 -128 -12v-348h-137v725h137v-257q78 13 144 13q127 0 191 -55.5t64 -173.5v-252z" />
    <glyph glyph-name="uni04BB" unicode="&#x4bb;" horiz-adv-x="630" 
d="M554 0h-131v355q0 81 -76 81q-65 0 -138 -70v-366h-131v788l131 21v-338q93 81 183 81q78 0 120 -43t42 -120v-389z" />
    <glyph glyph-name="uni04C0" unicode="&#x4c0;" horiz-adv-x="322" 
d="M230 0h-138v725h138v-725z" />
    <glyph glyph-name="uni04C1" unicode="&#x4c1;" horiz-adv-x="1040" 
d="M685 916q-23 -132 -163 -132q-138 0 -162 132l76 14q20 -60 87 -60q65 0 86 60zM190 732l266 -332l-4 325h137l-3 -328l263 328h160l-285 -340l296 -366l-146 -26l-288 369l3 -362h-137l4 364l-278 -364h-160l300 379l-274 327z" />
    <glyph glyph-name="uni04C2" unicode="&#x4c2;" horiz-adv-x="871" 
d="M609 752q-24 -139 -174 -139q-147 0 -171 139l80 15q21 -64 93 -64q70 0 92 64zM166 0h-148l226 280l-210 248l138 20l201 -253l-3 245h131l-3 -244l193 244h148l-213 -255l227 -273l-138 -20l-217 276l3 -268h-131l3 270z" />
    <glyph glyph-name="uni04CF" unicode="&#x4cf;" horiz-adv-x="301" 
d="M216 0h-131v788l131 21v-809z" />
    <glyph glyph-name="uni04D0" unicode="&#x4d0;" horiz-adv-x="771" 
d="M549 927q-23 -132 -163 -132q-138 0 -162 132l76 14q20 -60 87 -60q65 0 86 60zM29 0l287 728h145l281 -710l-137 -25l-74 193h-296l-68 -186h-138zM383 580l-107 -282h214z" />
    <glyph glyph-name="uni04D1" unicode="&#x4d1;" horiz-adv-x="596" 
d="M472 752q-24 -139 -174 -139q-147 0 -171 139l80 15q21 -64 93 -64q70 0 92 64zM390 149v121q-120 -13 -167 -43.5t-47 -74.5q0 -29 20 -46.5t54 -17.5q73 0 140 61zM520 0h-110l-12 70q-85 -81 -190 -81q-74 0 -118 40t-44 110q0 96 82.5 144t261.5 65v17q0 81 -100 81
q-85 0 -190 -43l-16 104q112 44 222 44t162 -42.5t52 -137.5v-371z" />
    <glyph glyph-name="uni04D2" unicode="&#x4d2;" horiz-adv-x="771" 
d="M345 798h-122v121h122v-121zM550 798h-122v121h122v-121zM29 0l287 728h145l281 -710l-137 -25l-74 193h-296l-68 -186h-138zM383 580l-107 -282h214z" />
    <glyph glyph-name="uni04D3" unicode="&#x4d3;" horiz-adv-x="596" 
d="M255 616h-129v127h129v-127zM473 616h-129v127h129v-127zM390 149v121q-120 -13 -167 -43.5t-47 -74.5q0 -29 20 -46.5t54 -17.5q73 0 140 61zM520 0h-110l-12 70q-85 -81 -190 -81q-74 0 -118 40t-44 110q0 96 82.5 144t261.5 65v17q0 81 -100 81q-85 0 -190 -43
l-16 104q112 44 222 44t162 -42.5t52 -137.5v-371z" />
    <glyph glyph-name="uni04D4" unicode="&#x4d4;" horiz-adv-x="990" 
d="M319 298h183v329zM7 0l417 725h509v-117h-301v-175h233l18 -115h-251v-202h312v-116h-442v186h-245l-107 -186h-143z" />
    <glyph glyph-name="uni04D5" unicode="&#x4d5;" horiz-adv-x="929" 
d="M880 277q0 -4 -0.5 -17t-0.5 -15h-367q5 -78 46 -116t110 -38q96 0 195 68l16 -103q-96 -67 -224 -67q-138 0 -212 84q-99 -84 -215 -84q-82 0 -132 38.5t-50 111.5q0 94 81 143t256 65v18q0 43 -22.5 62t-70.5 19q-85 0 -190 -43l-16 104q112 44 214 44q71 0 111 -17
t63 -57q65 75 169 75q117 0 178 -77t61 -198zM752 329q-14 131 -117 131q-47 0 -79 -33.5t-41 -97.5h237zM401 148q-19 60 -19 119v2q-115 -14 -160.5 -44t-45.5 -72q0 -31 22 -48t60 -17q72 0 143 60z" />
    <glyph glyph-name="uni04D6" unicode="&#x4d6;" horiz-adv-x="578" 
d="M470 916q-23 -132 -163 -132q-138 0 -162 132l76 14q19 -60 87 -60q65 0 86 60zM532 0h-445v725h434v-117h-299v-175h231l19 -115h-250v-202h310v-116z" />
    <glyph glyph-name="uni04D7" unicode="&#x4d7;" horiz-adv-x="595" 
d="M481 752q-24 -139 -174 -139q-147 0 -171 139l80 15q21 -64 93 -64q70 0 92 64zM545 56q-96 -67 -224 -67q-124 0 -198.5 70.5t-74.5 210.5q0 129 71.5 205.5t183.5 76.5q120 0 181.5 -77t61.5 -198q0 -24 -1 -32h-367q10 -154 156 -154q96 0 195 68zM300 460
q-47 0 -79 -33.5t-40 -97.5h237q-16 131 -118 131z" />
    <glyph glyph-name="uni04D8" unicode="&#x4d8;" horiz-adv-x="769" 
d="M350 619q-124 0 -257 -78l-17 122q135 75 280 75q162 0 259 -99.5t97 -275.5q0 -172 -93.5 -274.5t-239.5 -102.5t-229 97.5t-83 268.5q0 60 2 74h501q-14 90 -72 141.5t-148 51.5zM384 98q78 0 131 59t58 166h-367q3 -225 178 -225z" />
    <glyph glyph-name="uni04D9" unicode="&#x4d9;" horiz-adv-x="595" 
d="M50 485q98 67 224 67q123 0 198 -70.5t75 -211.5q0 -129 -71.5 -205t-183.5 -76q-120 0 -181.5 77t-61.5 209q0 33 1 36h365q-8 70 -48.5 104.5t-105.5 34.5q-93 0 -196 -68zM294 85q47 0 81 35.5t40 109.5h-238q6 -145 117 -145z" />
    <glyph glyph-name="uni04DC" unicode="&#x4dc;" horiz-adv-x="1040" 
d="M481 787h-122v121h122v-121zM686 787h-122v121h122v-121zM190 732l266 -332l-4 325h137l-3 -328l263 328h160l-285 -340l296 -366l-146 -26l-288 369l3 -362h-137l4 364l-278 -364h-160l300 379l-274 327z" />
    <glyph glyph-name="uni04DD" unicode="&#x4dd;" horiz-adv-x="871" 
d="M392 616h-129v127h129v-127zM610 616h-129v127h129v-127zM166 0h-148l226 280l-210 248l138 20l201 -253l-3 245h131l-3 -244l193 244h148l-213 -255l227 -273l-138 -20l-217 276l3 -268h-131l3 270z" />
    <glyph glyph-name="uni04DE" unicode="&#x4de;" horiz-adv-x="616" 
d="M267 798h-122v121h122v-121zM472 798h-122v121h122v-121zM560 203q0 -98 -77 -156.5t-202 -58.5q-122 0 -232 54l20 118q109 -56 209 -56q69 0 108 29.5t39 78.5q0 107 -178 107h-80l-17 112h102q75 0 116.5 26.5t41.5 73.5q0 42 -33.5 66t-97.5 24q-94 0 -198 -58
l-18 116q105 58 233 58q115 0 183 -52t68 -138q0 -121 -139 -167h1q152 -42 151 -177z" />
    <glyph glyph-name="uni04DF" unicode="&#x4df;" horiz-adv-x="559" 
d="M235 616h-129v127h129v-127zM453 616h-129v127h129v-127zM495 403q0 -91 -102 -126q113 -34 113 -130q0 -72 -62.5 -115.5t-177.5 -43.5q-117 0 -219 48l16 106q107 -49 200 -49q113 0 113 66q0 68 -123 68h-93l-18 95h113q111 0 111 64q0 61 -107 61q-82 0 -184 -44
l-17 104q99 44 213 44q112 0 168 -40.5t56 -107.5z" />
    <glyph glyph-name="uni04E2" unicode="&#x4e2;" horiz-adv-x="785" 
d="M547 795h-309v92h309v-92zM218 0h-131v725h134v-503l339 503h138v-725h-134v513z" />
    <glyph glyph-name="uni04E3" unicode="&#x4e3;" horiz-adv-x="653" 
d="M490 632h-328v97h328v-97zM78 0v540h127v-349l238 349h132v-540h-127v357l-244 -357h-126z" />
    <glyph glyph-name="uni04E4" unicode="&#x4e4;" horiz-adv-x="785" 
d="M351 780h-122v121h122v-121zM556 780h-122v121h122v-121zM218 0h-131v725h134v-503l339 503h138v-725h-134v513z" />
    <glyph glyph-name="uni04E5" unicode="&#x4e5;" horiz-adv-x="653" 
d="M282 616h-129v127h129v-127zM500 616h-129v127h129v-127zM78 0v540h127v-349l238 349h132v-540h-127v357l-244 -357h-126z" />
    <glyph glyph-name="uni04E6" unicode="&#x4e6;" horiz-adv-x="822" 
d="M370 798h-122v121h122v-121zM575 798h-122v121h122v-121zM766 363q0 -168 -97.5 -272.5t-258.5 -104.5q-160 0 -256.5 103.5t-96.5 271.5q0 169 97 273t258 104t257.5 -103t96.5 -272zM627 362q0 120 -58 191t-158 71t-157.5 -70.5t-57.5 -191.5q0 -120 58 -190.5
t157 -70.5q100 0 158 70.5t58 190.5z" />
    <glyph glyph-name="uni04E7" unicode="&#x4e7;" horiz-adv-x="625" 
d="M268 616h-129v127h129v-127zM486 616h-129v127h129v-127zM577 270q0 -129 -74.5 -205t-191.5 -76q-116 0 -189.5 75.5t-73.5 205.5t73.5 206t189.5 76q117 0 191.5 -76t74.5 -206zM448 270q0 77 -36.5 126t-100.5 49t-99 -48t-35 -127q0 -77 35.5 -125.5t98.5 -48.5
q66 0 101.5 47.5t35.5 126.5z" />
    <glyph glyph-name="uni04E8" unicode="&#x4e8;" horiz-adv-x="822" 
d="M766 363q0 -168 -97.5 -272.5t-258.5 -104.5q-160 0 -256.5 103.5t-96.5 271.5q0 169 97 273t258 104t257.5 -103t96.5 -272zM411 626q-91 0 -148 -55t-70 -151h436q-13 96 -70 151t-148 55zM411 98q92 0 149.5 56t69.5 154h-437q12 -98 69.5 -154t148.5 -56z" />
    <glyph glyph-name="uni04E9" unicode="&#x4e9;" horiz-adv-x="625" 
d="M576 270q0 -128 -73.5 -205t-190.5 -77q-118 0 -191 76.5t-73 205.5q0 128 73.5 205t190.5 77q118 0 191 -76.5t73 -205.5zM312 454q-58 0 -95.5 -35.5t-46.5 -102.5h284q-10 67 -47 102.5t-95 35.5zM312 85q58 0 95 35.5t47 102.5h-284q10 -67 47 -102.5t95 -35.5z" />
    <glyph glyph-name="uni04EE" unicode="&#x4ee;" horiz-adv-x="718" 
d="M535 795h-309v92h309v-92zM705 725l-302 -586q-42 -83 -90 -117.5t-118 -34.5q-45 0 -85 12l-18 119q52 -13 82 -13q38 0 63.5 18.5t46.5 63.5l19 41l-265 482l146 22l197 -377l180 370h144z" />
    <glyph glyph-name="uni04EF" unicode="&#x4ef;" horiz-adv-x="586" 
d="M463 632h-328v97h328v-97zM562 540l-220 -577q-34 -93 -83 -130t-126 -37q-29 0 -53 6l-18 111q32 -9 60 -9q69 0 99 69l11 25l-206 532l136 18l136 -388l131 380h133z" />
    <glyph glyph-name="uni04F0" unicode="&#x4f0;" horiz-adv-x="718" 
d="M339 780h-122v121h122v-121zM544 780h-122v121h122v-121zM705 725l-302 -586q-42 -83 -90 -117.5t-118 -34.5q-45 0 -85 12l-18 119q52 -13 82 -13q38 0 63.5 18.5t46.5 63.5l19 41l-265 482l146 22l197 -377l180 370h144z" />
    <glyph glyph-name="uni04F1" unicode="&#x4f1;" horiz-adv-x="586" 
d="M255 616h-129v127h129v-127zM473 616h-129v127h129v-127zM562 540l-220 -577q-34 -93 -83 -130t-126 -37q-29 0 -53 6l-18 111q32 -9 60 -9q69 0 99 69l11 25l-206 532l136 18l136 -388l131 380h133z" />
    <glyph glyph-name="uni04F2" unicode="&#x4f2;" horiz-adv-x="718" 
d="M458 909l-145 -129h-76l84 156zM638 909l-145 -129h-76l84 156zM705 725l-302 -586q-42 -83 -90 -117.5t-118 -34.5q-45 0 -85 12l-18 119q52 -13 82 -13q38 0 63.5 18.5t46.5 63.5l19 41l-265 482l146 22l197 -377l180 370h144z" />
    <glyph glyph-name="uni04F3" unicode="&#x4f3;" horiz-adv-x="586" 
d="M381 753l-154 -137h-80l91 166zM573 753l-154 -137h-80l90 166zM562 540l-220 -577q-34 -93 -83 -130t-126 -37q-29 0 -53 6l-18 111q32 -9 60 -9q69 0 99 69l11 25l-206 532l136 18l136 -388l131 380h133z" />
    <glyph glyph-name="uni04F4" unicode="&#x4f4;" horiz-adv-x="688" 
d="M291 780h-122v121h122v-121zM496 780h-122v121h122v-121zM65 725h137v-242q0 -118 133 -118q65 0 129 12v348h137v-725h-137v256q-82 -12 -145 -12q-126 0 -190 55.5t-64 173.5v252z" />
    <glyph glyph-name="uni04F5" unicode="&#x4f5;" horiz-adv-x="597" 
d="M248 616h-129v127h129v-127zM466 616h-129v127h129v-127zM57 540h131v-170q0 -93 109 -93q48 0 91 8v255h131v-540h-131v173q-60 -12 -117 -12q-214 0 -214 200v179z" />
    <glyph glyph-name="uni04F8" unicode="&#x4f8;" horiz-adv-x="896" 
d="M403 780h-122v121h122v-121zM608 780h-122v121h122v-121zM804 0h-137v725h137v-725zM577 236q0 -115 -77.5 -175.5t-212.5 -60.5h-200v725h136v-262h79q129 0 202 -59t73 -168zM442 234q0 119 -151 119h-68v-243h64q155 0 155 124z" />
    <glyph glyph-name="uni04F9" unicode="&#x4f9;" horiz-adv-x="814" 
d="M362 616h-129v127h129v-127zM580 616h-129v127h129v-127zM518 188q0 -89 -64 -138.5t-176 -49.5h-200v540h131v-171h82q111 0 169 -47t58 -134zM735 0h-131v540h131v-540zM394 186q0 87 -114 87h-71v-176h69q56 0 86 23.5t30 65.5z" />
    <glyph glyph-name="baht" unicode="&#xe3f;" horiz-adv-x="603" 
d="M64 -132l-82 18l105 182v644h205q93 0 154 -32l50 86l82 -19l-71 -121q27 -40 27 -93q0 -57 -30.5 -96.5t-83.5 -58.5q138 -42 138 -171q0 -103 -73 -155t-205 -52h-140zM288 611h-79v-197h74q61 0 95 27t34 75q0 95 -124 95zM282 327h-73v-226h76q147 0 147 111
q0 56 -38.5 85.5t-111.5 29.5z" />
    <glyph glyph-name="Wgrave" unicode="&#x1e80;" horiz-adv-x="1114" 
d="M614 784h-82l-154 131l153 28zM1078 725l-219 -727h-129l-175 532l-175 -532h-127l-215 708l144 26l147 -522l165 515h138l165 -515l143 515h138z" />
    <glyph glyph-name="wgrave" unicode="&#x1e81;" horiz-adv-x="856" 
d="M486 613h-87l-163 139l160 30zM827 540l-172 -542h-119l-109 364l-108 -364h-118l-171 533l132 17l106 -370l107 362h115l108 -362l103 362h126z" />
    <glyph glyph-name="Wacute" unicode="&#x1e82;" horiz-adv-x="1114" 
d="M746 915l-153 -131h-82l84 159zM1078 725l-219 -727h-129l-175 532l-175 -532h-127l-215 708l144 26l147 -522l165 515h138l165 -515l143 515h138z" />
    <glyph glyph-name="wacute" unicode="&#x1e83;" horiz-adv-x="856" 
d="M627 752l-163 -139h-86l90 169zM827 540l-172 -542h-119l-109 364l-108 -364h-118l-171 533l132 17l106 -370l107 362h115l108 -362l103 362h126z" />
    <glyph glyph-name="Wdieresis" unicode="&#x1e84;" horiz-adv-x="1114" 
d="M521 787h-122v121h122v-121zM726 787h-122v121h122v-121zM1078 725l-219 -727h-129l-175 532l-175 -532h-127l-215 708l144 26l147 -522l165 515h138l165 -515l143 515h138z" />
    <glyph glyph-name="wdieresis" unicode="&#x1e85;" horiz-adv-x="856" 
d="M388 616h-129v127h129v-127zM606 616h-129v127h129v-127zM827 540l-172 -542h-119l-109 364l-108 -364h-118l-171 533l132 17l106 -370l107 362h115l108 -362l103 362h126z" />
    <glyph glyph-name="Ygrave" unicode="&#x1ef2;" horiz-adv-x="722" 
d="M416 777h-82l-154 131l153 28zM702 725l-274 -447v-278h-137v277l-266 431l143 24l196 -328l189 321h149z" />
    <glyph glyph-name="ygrave" unicode="&#x1ef3;" horiz-adv-x="586" 
d="M353 613h-87l-163 139l160 30zM562 540l-220 -577q-34 -93 -83 -130t-126 -37q-29 0 -53 6l-18 111q32 -9 60 -9q69 0 99 69l11 25l-206 532l136 18l136 -388l131 380h133z" />
    <glyph glyph-name="enspace" unicode="&#x2002;" horiz-adv-x="520" 
 />
    <glyph glyph-name="emspace" unicode="&#x2003;" horiz-adv-x="1040" 
 />
    <glyph glyph-name="threeperemspace" unicode="&#x2004;" horiz-adv-x="346" 
 />
    <glyph glyph-name="fourperemspace" unicode="&#x2005;" horiz-adv-x="260" 
 />
    <glyph glyph-name="figurespace" unicode="&#x2007;" horiz-adv-x="600" 
 />
    <glyph glyph-name="thinspace" unicode="&#x2009;" horiz-adv-x="138" 
 />
    <glyph glyph-name="hairspace" unicode="&#x200a;" horiz-adv-x="78" 
 />
    <glyph glyph-name="endash" unicode="&#x2013;" horiz-adv-x="540" 
d="M478 260h-416v122h416v-122z" />
    <glyph glyph-name="emdash" unicode="&#x2014;" horiz-adv-x="1072" 
d="M1011 261h-949v120h949v-120z" />
    <glyph glyph-name="quoteleft" unicode="&#x2018;" horiz-adv-x="288" 
d="M227 764l-31 -283h-150l104 301z" />
    <glyph glyph-name="quoteright" unicode="&#x2019;" horiz-adv-x="288" 
d="M242 773l-104 -302l-77 18l31 284h150z" />
    <glyph glyph-name="quotesinglbase" unicode="&#x201a;" horiz-adv-x="288" 
d="M234 160l-104 -302l-77 18l31 284h150z" />
    <glyph glyph-name="quotedblleft" unicode="&#x201c;" horiz-adv-x="519" 
d="M458 764l-31 -283h-149l104 301zM226 764l-31 -283h-149l104 301z" />
    <glyph glyph-name="quotedblright" unicode="&#x201d;" horiz-adv-x="519" 
d="M473 773l-105 -302l-75 18l31 284h149zM240 773l-104 -302l-75 18l31 284h148z" />
    <glyph glyph-name="quotedblbase" unicode="&#x201e;" horiz-adv-x="519" 
d="M465 160l-104 -302l-75 18l31 284h148zM233 160l-104 -302l-75 18l31 284h148z" />
    <glyph glyph-name="dagger" unicode="&#x2020;" horiz-adv-x="599" 
d="M358 684l-39 -151h-39l-38 151v89h116v-89zM253 470l-157 -36h-42v110h42l157 -37v-37zM544 434h-42l-156 36v37l156 37h42v-110zM350 16l-33 -144h-35l-33 144v296l31 134h39l31 -134v-296z" />
    <glyph glyph-name="daggerdbl" unicode="&#x2021;" horiz-adv-x="621" 
d="M368 684l-38 -151h-39l-39 151v89h116v-89zM264 470l-156 -34h-43v107h43l156 -36v-37zM555 436h-42l-156 34v37l156 36h42v-107zM364 258l-34 -134h-39l-35 134v54l35 134h39l34 -134v-54zM264 62l-156 -35h-43v107h43l156 -35v-37zM555 27h-42l-156 35v37l156 35h42
v-107zM368 -204h-116v89l39 152h39l38 -152v-89z" />
    <glyph glyph-name="bullet" unicode="&#x2022;" horiz-adv-x="499" 
d="M411 362l-23 -146l-138 -21l-138 21l-24 146l24 146l138 21l138 -21z" />
    <glyph glyph-name="ellipsis" unicode="&#x2026;" horiz-adv-x="880" 
d="M222 0h-142v159h142v-159zM511 0h-143v159h143v-159zM801 0h-143v159h143v-159z" />
    <glyph glyph-name="guilsinglleft" unicode="&#x2039;" horiz-adv-x="390" 
d="M336 540l-153 -269l147 -258l-95 -20l-196 278l192 269h105z" />
    <glyph glyph-name="guilsinglright" unicode="&#x203a;" horiz-adv-x="390" 
d="M351 270l-192 -270h-106l153 270l-146 257l95 21z" />
    <glyph glyph-name="fraction" unicode="&#x2044;" horiz-adv-x="300" 
d="M-38 -12l-70 19l229 357l217 354l70 -19l-229 -356z" />
    <glyph glyph-name="zero.sup" unicode="&#x2070;" 
d="M367 664q0 -107 -43.5 -162.5t-124.5 -55.5q-82 0 -124.5 55.5t-42.5 163.5q0 107 43 162.5t125 55.5q81 0 124 -55.5t43 -163.5zM266 664q0 76 -16.5 109t-49.5 33q-67 0 -67 -142q0 -140 67 -140q66 0 66 140z" />
    <glyph glyph-name="four.sup" unicode="&#x2074;" 
d="M380 538h-62v-85h-92v85h-208v66l173 271h127v-267h62v-70zM231 607v87l4 112h-8l-38 -73l-47 -70l-37 -54l3 -5l59 3h64z" />
    <glyph glyph-name="five.sup" unicode="&#x2075;" 
d="M364 594q0 -68 -51 -106.5t-133 -38.5q-77 0 -145 28l16 80q62 -27 124 -27q38 0 62 16t24 44q0 26 -19.5 40t-53.5 14t-68 -16l-67 16l19 228h264l14 -84h-203l-7 -86q37 14 85 14q60 0 99.5 -32t39.5 -90z" />
    <glyph glyph-name="six.sup" unicode="&#x2076;" 
d="M304 801q-151 -26 -183 -113l1 -5q54 38 121 38q57 0 92 -35t35 -94q0 -67 -46.5 -106.5t-119.5 -39.5q-79 0 -126.5 46t-47.5 133q0 104 67.5 170.5t192.5 90.5zM124 619q0 -49 22.5 -74.5t58.5 -25.5q33 0 52 17.5t19 49.5q0 64 -68 64q-38 0 -84 -27v-4z" />
    <glyph glyph-name="seven.sup" unicode="&#x2077;" 
d="M366 788l-192 -344l-99 16l183 323h-217l-13 89h338v-84z" />
    <glyph glyph-name="eight.sup" unicode="&#x2078;" 
d="M29 564q0 70 81 110q-68 33 -68 94q0 51 44 83t114 32q67 0 111 -30t44 -76q0 -61 -71 -100q86 -37 86 -110q0 -52 -46.5 -86.5t-125.5 -34.5q-80 0 -124.5 33.5t-44.5 84.5zM134 766q0 -21 19 -36t72 -33q38 31 38 65q0 25 -17.5 40t-47.5 15t-47 -14.5t-17 -36.5z
M273 570q0 26 -22.5 44.5t-76.5 36.5q-50 -36 -50 -77q0 -27 21 -43.5t55 -16.5q32 0 52.5 16t20.5 40z" />
    <glyph glyph-name="nine.sup" unicode="&#x2079;" 
d="M94 528q151 23 185 109l-2 4q-53 -36 -121 -36q-57 0 -92 35t-35 95q0 69 46.5 108.5t120.5 39.5q79 0 126.5 -45.5t47.5 -133.5q0 -104 -68.5 -170.5t-193.5 -90.5zM275 711q0 48 -22.5 73.5t-58.5 25.5q-33 0 -52 -18t-19 -51q0 -67 68 -67q42 0 84 26v11z" />
    <glyph glyph-name="zero.inf" unicode="&#x2080;" 
d="M367 38q0 -107 -43.5 -162.5t-124.5 -55.5q-82 0 -124.5 55.5t-42.5 163.5q0 107 43 162.5t125 55.5q81 0 124 -55.5t43 -163.5zM266 38q0 76 -16.5 109t-49.5 33q-67 0 -67 -142q0 -140 67 -140q66 0 66 140z" />
    <glyph glyph-name="one.inf" unicode="&#x2081;" 
d="M369 -168h-311v80h108v245l-104 -37l-12 79l141 54h74v-341h90z" />
    <glyph glyph-name="two.inf" unicode="&#x2082;" 
d="M369 -168h-332v78l161 136q30 25 41.5 40t11.5 35q0 22 -17.5 34t-45.5 12q-56 0 -129 -43l-13 88q77 43 157 43q72 0 113.5 -34.5t41.5 -86.5q0 -39 -21 -68.5t-69 -68.5l-105 -81h190z" />
    <glyph glyph-name="three.inf" unicode="&#x2083;" 
d="M364 -55q0 -57 -50 -89.5t-130 -32.5q-88 0 -152 33l14 80q67 -32 136 -32q36 0 57.5 14t21.5 37q0 28 -25.5 39.5t-84.5 11.5h-36l-13 75h52q99 0 99 49q0 43 -68 43q-70 0 -132 -36l-14 80q76 38 153 38q79 0 121 -29t42 -80q0 -72 -93 -100q102 -25 102 -101z" />
    <glyph glyph-name="four.inf" unicode="&#x2084;" 
d="M380 -87h-62v-85h-92v85h-208v66l173 271h127v-267h62v-70zM231 -18v87l4 112h-8l-38 -73l-47 -70l-37 -54l3 -5l59 3h64z" />
    <glyph glyph-name="five.inf" unicode="&#x2085;" 
d="M364 -31q0 -68 -51 -106.5t-133 -38.5q-77 0 -145 28l16 80q62 -27 124 -27q38 0 62 16t24 44q0 26 -19.5 40t-53.5 14t-68 -16l-67 16l19 228h264l14 -84h-203l-7 -86q37 14 85 14q60 0 99.5 -32t39.5 -90z" />
    <glyph glyph-name="six.inf" unicode="&#x2086;" 
d="M304 176q-151 -26 -183 -113l1 -5q54 38 121 38q57 0 92 -35t35 -94q0 -67 -46.5 -106.5t-119.5 -39.5q-79 0 -126.5 46t-47.5 133q0 104 67.5 170.5t192.5 90.5zM124 -6q0 -49 22.5 -74.5t58.5 -25.5q33 0 52 17.5t19 49.5q0 64 -68 64q-38 0 -84 -27v-4z" />
    <glyph glyph-name="seven.inf" unicode="&#x2087;" 
d="M366 163l-192 -344l-99 16l183 323h-217l-13 89h338v-84z" />
    <glyph glyph-name="eight.inf" unicode="&#x2088;" 
d="M29 -61q0 69 81 110q-68 33 -68 94q0 51 44 83t114 32q67 0 111 -30t44 -76q0 -61 -71 -100q86 -37 86 -110q0 -52 -46.5 -86.5t-125.5 -34.5q-80 0 -124.5 33.5t-44.5 84.5zM134 141q0 -21 19 -36t72 -33q38 31 38 65q0 25 -17.5 40t-47.5 15t-47 -14.5t-17 -36.5z
M273 -55q0 26 -22.5 44.5t-76.5 36.5q-50 -36 -50 -77q0 -27 21 -43.5t55 -16.5q32 0 52.5 16t20.5 40z" />
    <glyph glyph-name="nine.inf" unicode="&#x2089;" 
d="M94 -98q151 23 185 109l-2 4q-53 -36 -121 -36q-57 0 -92 35t-35 95q0 69 46.5 108.5t120.5 39.5q79 0 126.5 -45.5t47.5 -133.5q0 -104 -68.5 -170.5t-193.5 -90.5zM275 85q0 48 -22.5 73.5t-58.5 25.5q-33 0 -52 -18t-19 -51q0 -67 68 -67q42 0 84 26v11z" />
    <glyph glyph-name="colonmonetary" unicode="&#x20a1;" horiz-adv-x="601" 
d="M271 -126l-78 17l23 133q-82 38 -127 122t-45 207q0 156 77 252t213 109l13 78l77 -15l-11 -64q46 -7 73 -17l17 96l77 -15l-113 -657q33 12 80 40l18 -110q-56 -32 -117 -46l-22 -130l-77 17l17 104h-10q-31 0 -64 5zM369 102q20 0 30 1l82 478q-46 22 -89 26l-86 -498
q27 -7 63 -7zM165 345q0 -149 83 -209l81 470q-81 -12 -122.5 -82t-41.5 -179z" />
    <glyph glyph-name="naira" unicode="&#x20a6;" horiz-adv-x="846" 
d="M231 584l3 -305h181zM616 152l-4 273h-161zM722 0h-138l-131 216h-218l3 -216h-113v226h-102l-12 74h114v105h-111v73h111v234h153l135 -224h198l-3 224h114v-234h99l12 -73h-111v-105h109v-74h-109v-226z" />
    <glyph glyph-name="rupee" unicode="&#x20a8;" horiz-adv-x="1191" 
d="M509 -7l-194 268h-101v-261h-132v712h237q129 0 201 -59t72 -163q0 -70 -39.5 -120t-109.5 -78l204 -274zM212 363h98q72 0 112.5 31t40.5 89q0 59 -38.5 90t-110.5 31h-102v-241zM1131 154q0 -78 -60.5 -120.5t-171.5 -42.5q-130 0 -230 52l16 99q107 -58 217 -58
q115 0 115 56q0 27 -28 40.5t-108 24.5q-108 16 -156 49t-48 102q0 71 57.5 111t158.5 40q109 0 206 -39l-17 -100q-101 47 -191 47q-100 0 -100 -49q0 -23 25 -35.5t97 -23.5q114 -17 166 -49.5t52 -103.5z" />
    <glyph glyph-name="won" unicode="&#x20a9;" horiz-adv-x="1111" 
d="M555 601l-87 -308h172zM715 426l79 -298l73 298h-152zM253 426l75 -297l79 297h-154zM1065 712l-66 -234h94l12 -73h-127l-27 -98h149v-73h-170l-65 -234h-144l-64 230h-207l-64 -230h-142l-67 234h-159l-12 73h151l-28 98h-117v73h97l-61 217l132 25l58 -232h185l60 224
h157l59 -224h184l55 224h127z" />
    <glyph glyph-name="sheqel" unicode="&#x20aa;" horiz-adv-x="601" 
d="M395 195h-62l-6 173q-2 45 -58 45h-119v-413h-95v516h234q54 0 80 -23t26 -63v-235zM546 0h-196q-56 0 -82 20.5t-35 71.5l-38 236h67l30 -175q5 -29 18.5 -39.5t42.5 -10.5h98v417l95 -16v-504z" />
    <glyph glyph-name="Euro" unicode="&#x20ac;" horiz-adv-x="667" 
d="M33 404v77h103q29 111 106.5 176t192.5 65q110 0 187 -48l-19 -113q-79 52 -162 52q-63 0 -107 -35t-65 -97h237l13 -77h-265q-1 -16 -1 -49q0 -29 1 -42h259v-77h-245q40 -138 180 -138q86 0 168 54l18 -110q-92 -55 -200 -55q-122 0 -199 65.5t-102 183.5h-93l-12 77
h94q-1 13 -1 41q0 16 2 50h-90z" />
    <glyph glyph-name="peso" unicode="&#x20b1;" horiz-adv-x="699" 
d="M670 439h-82q-13 -98 -88 -152.5t-192 -56.5l-69 -1v-229h-131v439h-79l-12 72h91v201h213q115 0 186 -53.5t82 -147.5h81v-72zM236 614v-107h231q-9 48 -48 77.5t-101 29.5h-82zM313 329q64 0 104.5 30.5t49.5 83.5h-231v-114h77z" />
    <glyph glyph-name="hryvnia" unicode="&#x20b4;" horiz-adv-x="638" 
d="M612 440l-12 -71l-170 18l-83 -75l243 -26v-74l-311 34q-36 -35 -48.5 -55.5t-12.5 -40.5q0 -60 96 -60q82 0 197 63l17 -102q-118 -63 -233 -63q-103 0 -156 40t-53 111q0 59 53 122l-114 13l13 71l168 -18l83 76l-241 26v73l308 -34h1q37 36 50.5 54.5t12.5 40.5
q0 56 -89 56q-80 0 -195 -55l-18 103q120 55 227 55q99 0 153 -39t54 -110q0 -61 -54 -121z" />
    <glyph glyph-name="numero" unicode="&#x2116;" horiz-adv-x="1191" 
d="M720 362q0 95 56.5 155.5t144.5 60.5q89 0 145 -60.5t56 -155.5q0 -96 -56 -156.5t-145 -60.5q-90 0 -145.5 60.5t-55.5 156.5zM635 0h-122l-303 510v-510h-123v725h138l287 -486v486h123v-725zM823 362q0 -57 27 -93.5t71 -36.5t71 36.5t27 93.5t-27 92.5t-71 35.5
q-45 0 -71.5 -35.5t-26.5 -92.5zM1108 0h-373v79h373v-79z" />
    <glyph glyph-name="published" unicode="&#x2117;" horiz-adv-x="887" 
d="M823 363q0 -167 -106 -272t-274 -105q-169 0 -274 104t-105 271q0 168 105.5 272.5t274.5 104.5t274 -103.5t105 -271.5zM776 362q0 159 -93.5 248.5t-238.5 89.5q-148 0 -240.5 -89.5t-92.5 -248.5q0 -158 93.5 -248t239.5 -90t239 90t93 248zM616 438q0 -66 -45.5 -102
t-123.5 -36h-40v-142h-93v413h140q75 0 118.5 -35t43.5 -98zM526 436q0 30 -20.5 46.5t-58.5 16.5h-41v-128h39q38 0 59.5 16.5t21.5 48.5z" />
    <glyph glyph-name="servicemark" unicode="&#x2120;" horiz-adv-x="951" 
d="M887 386h-86l-20 261l-100 -262h-73l-100 262l-20 -261h-78l31 387h105l104 -273l104 273h101zM203 381q-65 0 -123 29l11 75q67 -37 115 -37q25 0 40.5 11t15.5 30q0 20 -14 32t-50 27q-64 27 -88.5 51.5t-24.5 69.5q0 50 37 79.5t95 29.5q62 0 105 -25l-12 -74
q-53 32 -95 32q-25 0 -39 -10t-14 -25q0 -18 13 -29.5t49 -26.5q65 -27 90.5 -53t25.5 -72q0 -54 -37.5 -84t-99.5 -30z" />
    <glyph glyph-name="trademark" unicode="&#x2122;" horiz-adv-x="951" 
d="M380 702h-130v-316h-85v316h-124v71h328zM892 386h-86l-19 261l-101 -262h-72l-101 262l-20 -261h-78l32 387h104l104 -273l104 273h101z" />
    <glyph glyph-name="Omega" unicode="&#x2126;" horiz-adv-x="814" 
d="M79 112l131 -2q-150 131 -149 302q0 139 94 232.5t253 93.5q158 0 251 -92.5t93 -233.5q0 -172 -153 -302h1l135 2v-112h-273l-12 104l51 49q115 113 114 252q0 96 -55 157.5t-153 61.5q-100 0 -154.5 -61t-54.5 -158q0 -141 115 -252l51 -49l-13 -104h-272v112z" />
    <glyph glyph-name="onethird" unicode="&#x2153;" horiz-adv-x="900" 
d="M361 324h-292v76h102v229l-97 -35l-12 74l132 52h71v-320h84zM273 -12l-70 19l229 357l217 354l70 -19l-229 -356zM852 106q0 -53 -46.5 -83.5t-122.5 -30.5q-84 0 -143 31l13 76q63 -30 128 -30q34 0 54 12.5t20 34.5q0 26 -23.5 36.5t-79.5 10.5h-34l-12 71h48
q93 0 93 45q0 40 -64 40q-66 0 -123 -33l-13 76q72 35 144 35q74 0 113.5 -27.5t39.5 -74.5q0 -68 -87 -93q95 -24 95 -96z" />
    <glyph glyph-name="twothirds" unicode="&#x2154;" horiz-adv-x="900" 
d="M362 324h-313v74l152 128q28 23 38.5 37t10.5 32q0 20 -16 31.5t-42 11.5q-52 0 -121 -40l-13 82q70 41 147 41q68 0 107 -32t39 -81q0 -37 -20 -65t-65 -64l-96 -75h177zM273 -12l-70 19l229 357l217 354l70 -19l-229 -356zM852 106q0 -53 -46.5 -83.5t-122.5 -30.5
q-84 0 -143 31l13 76q63 -30 128 -30q34 0 54 12.5t20 34.5q0 26 -23.5 36.5t-79.5 10.5h-34l-12 71h48q93 0 93 45q0 40 -64 40q-66 0 -123 -33l-13 76q72 35 144 35q74 0 113.5 -27.5t39.5 -74.5q0 -68 -87 -93q95 -24 95 -96z" />
    <glyph glyph-name="onefifth" unicode="&#x2155;" horiz-adv-x="900" 
d="M361 324h-292v76h102v229l-97 -35l-12 74l132 52h71v-320h84zM278 -12l-70 19l229 357l217 354l70 -19l-229 -356zM852 128q0 -64 -48 -100t-125 -36q-74 0 -136 26l15 76q61 -26 116 -26q36 0 58 15t22 41q0 51 -68 51q-29 0 -63 -15l-64 15l18 213h248l14 -79h-190
l-7 -79q39 13 79 13q56 0 93.5 -30.5t37.5 -84.5z" />
    <glyph glyph-name="twofifths" unicode="&#x2156;" horiz-adv-x="900" 
d="M362 324h-313v74l152 128q28 23 38.5 37t10.5 32q0 20 -16 31.5t-42 11.5q-52 0 -121 -40l-13 82q70 41 147 41q68 0 107 -32t39 -81q0 -37 -20 -65t-65 -64l-96 -75h177zM278 -12l-70 19l229 357l217 354l70 -19l-229 -356zM852 128q0 -64 -48 -100t-125 -36
q-74 0 -136 26l15 76q61 -26 116 -26q36 0 58 15t22 41q0 51 -68 51q-29 0 -63 -15l-64 15l18 213h248l14 -79h-190l-7 -79q39 13 79 13q56 0 93.5 -30.5t37.5 -84.5z" />
    <glyph glyph-name="threefifths" unicode="&#x2157;" horiz-adv-x="900" 
d="M262 -12l-70 19l229 357l217 354l70 -19l-229 -356zM357 430q0 -53 -46.5 -83.5t-122.5 -30.5q-84 0 -143 31l13 76q63 -30 128 -30q34 0 54 12.5t20 34.5q0 25 -23.5 36t-79.5 11h-34l-12 71h48q93 0 93 45q0 40 -64 40t-123 -33l-13 76q72 35 144 35q73 0 113 -27.5
t40 -74.5q0 -68 -87 -94q95 -24 95 -95zM852 128q0 -64 -48 -100t-125 -36q-74 0 -136 26l15 76q61 -26 116 -26q36 0 58 15t22 41q0 51 -68 51q-29 0 -63 -15l-64 15l18 213h248l14 -79h-190l-7 -79q39 13 79 13q56 0 93.5 -30.5t37.5 -84.5z" />
    <glyph glyph-name="fourfifths" unicode="&#x2158;" horiz-adv-x="900" 
d="M273 -12l-70 19l229 357l217 354l70 -19l-229 -356zM372 399h-58v-79h-88v79h-194v63l162 253h120v-250h58v-66zM231 465v80l4 105h-7l-36 -68l-43 -66l-35 -50l3 -4l55 3h59zM852 128q0 -64 -48 -100t-125 -36q-74 0 -136 26l15 76q61 -26 116 -26q36 0 58 15t22 41
q0 51 -68 51q-29 0 -63 -15l-64 15l18 213h248l14 -79h-190l-7 -79q39 13 79 13q56 0 93.5 -30.5t37.5 -84.5z" />
    <glyph glyph-name="onesixth" unicode="&#x2159;" horiz-adv-x="900" 
d="M361 324h-292v76h102v229l-97 -35l-12 74l132 52h71v-320h84zM273 -12l-70 19l229 357l217 354l70 -19l-229 -356zM784 322q-141 -24 -170 -105l1 -4q53 34 112 34q54 0 87 -32.5t33 -88.5q0 -62 -43.5 -99.5t-112.5 -37.5q-75 0 -119.5 43t-44.5 125q0 97 63.5 159.5
t180.5 85.5zM617 152q0 -46 20.5 -70t54.5 -24q30 0 48 16.5t18 46.5q0 59 -63 59q-39 0 -78 -23v-5z" />
    <glyph glyph-name="fivesixths" unicode="&#x215a;" horiz-adv-x="900" 
d="M267 -12l-70 19l229 357l217 354l70 -19l-229 -356zM357 452q0 -64 -48 -100.5t-125 -36.5q-72 0 -136 27l15 75q63 -25 116 -25q35 0 57.5 15t22.5 41q0 50 -68 50q-29 0 -63 -15l-64 15l18 214h248l14 -79h-190l-7 -80q35 14 79 14q56 0 93.5 -30.5t37.5 -84.5z
M784 322q-141 -24 -170 -105l1 -4q53 34 112 34q54 0 87 -32.5t33 -88.5q0 -62 -43.5 -99.5t-112.5 -37.5q-75 0 -119.5 43t-44.5 125q0 97 63.5 159.5t180.5 85.5zM617 152q0 -46 20.5 -70t54.5 -24q30 0 48 16.5t18 46.5q0 59 -63 59q-39 0 -78 -23v-5z" />
    <glyph glyph-name="oneeighth" unicode="&#x215b;" horiz-adv-x="900" 
d="M361 324h-292v76h102v229l-97 -35l-12 74l132 52h71v-320h84zM273 -12l-70 19l229 357l217 354l70 -19l-229 -356zM538 100q0 66 75 103q-63 29 -63 88q0 48 40.5 78t106.5 30q64 0 105.5 -28t41.5 -71q0 -59 -67 -94q80 -35 80 -103q0 -49 -43.5 -81.5t-117.5 -32.5
q-75 0 -116.5 32t-41.5 79zM637 289q0 -20 17.5 -33.5t66.5 -30.5q36 31 36 61q0 23 -16.5 37t-44.5 14t-43.5 -13.5t-15.5 -34.5zM766 106q0 25 -21 41.5t-71 33.5q-47 -35 -47 -71q0 -26 20 -41t51 -15q30 0 49 14.5t19 37.5z" />
    <glyph glyph-name="threeeighths" unicode="&#x215c;" horiz-adv-x="900" 
d="M262 -12l-70 19l229 357l217 354l70 -19l-229 -356zM357 430q0 -53 -46.5 -83.5t-122.5 -30.5q-84 0 -143 31l13 76q63 -30 128 -30q34 0 54 12.5t20 34.5q0 25 -23.5 36t-79.5 11h-34l-12 71h48q93 0 93 45q0 40 -64 40t-123 -33l-13 76q72 35 144 35q73 0 113 -27.5
t40 -74.5q0 -68 -87 -94q95 -24 95 -95zM538 100q0 66 75 103q-63 29 -63 88q0 48 40.5 78t106.5 30q64 0 105.5 -28t41.5 -71q0 -59 -67 -94q80 -35 80 -103q0 -49 -43.5 -81.5t-117.5 -32.5q-75 0 -116.5 32t-41.5 79zM637 289q0 -20 17.5 -33.5t66.5 -30.5q36 31 36 61
q0 23 -16.5 37t-44.5 14t-43.5 -13.5t-15.5 -34.5zM766 106q0 25 -21 41.5t-71 33.5q-47 -35 -47 -71q0 -26 20 -41t51 -15q30 0 49 14.5t19 37.5z" />
    <glyph glyph-name="fiveeighths" unicode="&#x215d;" horiz-adv-x="900" 
d="M262 -12l-70 19l229 357l217 354l70 -19l-229 -356zM357 452q0 -64 -48 -100.5t-125 -36.5q-72 0 -136 27l15 75q63 -25 116 -25q35 0 57.5 15t22.5 41q0 50 -68 50q-29 0 -63 -15l-64 15l18 214h248l14 -79h-190l-7 -80q35 14 79 14q56 0 93.5 -30.5t37.5 -84.5z
M538 100q0 66 75 103q-63 29 -63 88q0 48 40.5 78t106.5 30q64 0 105.5 -28t41.5 -71q0 -59 -67 -94q80 -35 80 -103q0 -49 -43.5 -81.5t-117.5 -32.5q-75 0 -116.5 32t-41.5 79zM637 289q0 -20 17.5 -33.5t66.5 -30.5q36 31 36 61q0 23 -16.5 37t-44.5 14t-43.5 -13.5
t-15.5 -34.5zM766 106q0 25 -21 41.5t-71 33.5q-47 -35 -47 -71q0 -26 20 -41t51 -15q30 0 49 14.5t19 37.5z" />
    <glyph glyph-name="seveneighths" unicode="&#x215e;" horiz-adv-x="900" 
d="M240 -12l-70 19l229 357l217 354l70 -19l-229 -356zM370 633l-180 -322l-94 16l172 301h-203l-12 84h317v-79zM538 100q0 66 75 103q-63 29 -63 88q0 48 40.5 78t106.5 30q64 0 105.5 -28t41.5 -71q0 -59 -67 -94q80 -35 80 -103q0 -49 -43.5 -81.5t-117.5 -32.5
q-75 0 -116.5 32t-41.5 79zM637 289q0 -20 17.5 -33.5t66.5 -30.5q36 31 36 61q0 23 -16.5 37t-44.5 14t-43.5 -13.5t-15.5 -34.5zM766 106q0 25 -21 41.5t-71 33.5q-47 -35 -47 -71q0 -26 20 -41t51 -15q30 0 49 14.5t19 37.5z" />
    <glyph glyph-name="Delta" unicode="&#x2206;" horiz-adv-x="775" 
 />
    <glyph glyph-name="minus" unicode="&#x2212;" horiz-adv-x="636" 
d="M573 302h-509v106h509v-106z" />
    <glyph glyph-name="f_f" unicode="&#xfb00;" horiz-adv-x="768" 
d="M756 690q-35 5 -57 5q-76 0 -76 -68v-87h110l16 -107h-126v-433h-129v433h-83v107h83v100q0 162 190 162q22 0 54 -4zM373 690q-35 5 -57 5q-76 0 -76 -68v-87h110l16 -107h-126v-433h-129v433h-83v107h83v100q0 162 190 162q22 0 54 -4z" />
    <glyph glyph-name="fi" unicode="&#xfb01;" horiz-adv-x="678" 
d="M606 708q0 -33 -22.5 -54.5t-55.5 -21.5t-56.5 21.5t-23.5 54.5t23.5 54.5t56.5 21.5t55.5 -21.5t22.5 -54.5zM373 690q-35 5 -57 5q-76 0 -76 -68v-87h110l16 -107h-126v-433h-129v433h-83v107h83v100q0 162 190 162q22 0 54 -4zM593 0h-131v540h131v-540z" />
    <glyph glyph-name="fl" unicode="&#xfb02;" horiz-adv-x="678" 
d="M593 0h-131v788l131 21v-809zM373 690q-35 5 -57 5q-76 0 -76 -68v-87h110l16 -107h-126v-433h-129v433h-83v107h83v100q0 162 190 162q22 0 54 -4z" />
    <glyph glyph-name="f_f_i" unicode="&#xfb03;" horiz-adv-x="1061" 
d="M989 708q0 -33 -22.5 -54.5t-55.5 -21.5t-56.5 21.5t-23.5 54.5t23.5 54.5t56.5 21.5t55.5 -21.5t22.5 -54.5zM756 690q-35 5 -57 5q-76 0 -76 -68v-87h110l16 -107h-126v-433h-129v433h-83v107h83v100q0 162 190 162q22 0 54 -4zM373 690q-35 5 -57 5q-76 0 -76 -68v-87
h110l16 -107h-126v-433h-129v433h-83v107h83v100q0 162 190 162q22 0 54 -4zM976 0h-131v540h131v-540z" />
    <glyph glyph-name="f_f_l" unicode="&#xfb04;" horiz-adv-x="1061" 
d="M976 0h-131v788l131 21v-809zM756 690q-35 5 -57 5q-76 0 -76 -68v-87h110l16 -107h-126v-433h-129v433h-83v107h83v100q0 162 190 162q22 0 54 -4zM373 690q-35 5 -57 5q-76 0 -76 -68v-87h110l16 -107h-126v-433h-129v433h-83v107h83v100q0 162 190 162q22 0 54 -4z
" />
    <glyph glyph-name="M.alt" horiz-adv-x="978" 
d="M891 0h-129v528l-221 -531h-115l-221 531v-528h-118v725h177l227 -548l227 548h173v-725z" />
    <glyph glyph-name="Q.alt" horiz-adv-x="831" 
d="M786 113l-26 -128l-115 88q-96 -85 -236 -85q-160 0 -256.5 102.5t-96.5 270.5q0 169 97.5 273t258.5 104q162 0 257.5 -103t95.5 -269q0 -114 -50 -205zM628 364q0 119 -58.5 189.5t-158.5 70.5q-101 0 -158.5 -70.5t-57.5 -191.5t58.5 -191.5t158.5 -70.5q81 0 135 46
l-172 124l148 32l85 -64q20 55 20 126z" />
    <glyph glyph-name="U.alt" horiz-adv-x="772" 
d="M572 0l-12 75q-120 -83 -235 -83t-179 58t-64 178v497h137v-477q0 -136 133 -136q96 0 196 78v535h137v-725h-113z" />
    <glyph glyph-name="W.alt" horiz-adv-x="1124" 
d="M1093 725l-261 -728h-132l-140 368l-141 -368h-129l-259 710l143 26l193 -555l132 347l-66 183l143 25l194 -555l182 547h141z" />
    <glyph glyph-name="g.alt" horiz-adv-x="636" 
d="M427 187v237q-45 16 -95 16q-72 0 -111.5 -43t-39.5 -129q0 -74 31.5 -113.5t82.5 -39.5q67 0 132 72zM557 20q0 -107 -65 -165.5t-195 -58.5q-110 0 -213 41l19 109q91 -47 190 -47q134 0 134 115v59q-77 -71 -163 -71q-94 0 -154.5 67t-60.5 193q0 140 75.5 212.5
t204.5 72.5q118 0 228 -36v-491z" />
    <glyph glyph-name="a.sc" horiz-adv-x="644" 
d="M151 0h-128l224 579h155l219 -563l-127 -25l-51 139h-245zM320 472l-86 -238h172z" />
    <glyph glyph-name="b.sc" horiz-adv-x="581" 
d="M531 167q0 -84 -63 -125.5t-174 -41.5h-213v574h217q100 0 153.5 -38.5t53.5 -109.5q0 -86 -86 -124q112 -33 112 -135zM386 412q0 66 -97 66h-84v-138h81q100 0 100 72zM406 172q0 81 -112 81h-89v-158h89q112 0 112 77z" />
    <glyph glyph-name="c.sc" horiz-adv-x="564" 
d="M519 35q-79 -46 -177 -46q-135 0 -213.5 80t-78.5 217q0 136 79.5 217.5t212.5 81.5q97 0 168 -41l-19 -116q-68 47 -139 47q-78 0 -123.5 -49.5t-45.5 -139.5q0 -89 47 -138.5t123 -49.5t150 46z" />
    <glyph glyph-name="d.sc" horiz-adv-x="648" 
d="M599 288q0 -128 -86 -208t-237 -80h-195v574h194q155 0 239.5 -78t84.5 -208zM466 286q0 86 -50.5 133.5t-138.5 47.5h-67v-360h66q89 0 139.5 46.5t50.5 132.5z" />
    <glyph glyph-name="e.sc" horiz-adv-x="526" 
d="M474 0h-393v574h385v-105h-257v-122h201l17 -103h-218v-139h265v-105z" />
    <glyph glyph-name="f.sc" horiz-adv-x="497" 
d="M457 468h-248v-131h192l17 -106h-209v-231h-128v574h376v-106z" />
    <glyph glyph-name="g.sc" horiz-adv-x="626" 
d="M566 47q-99 -58 -220 -58q-140 0 -218 81t-78 216q0 136 81.5 217.5t217.5 81.5q105 0 185 -44l-19 -115q-81 50 -161 50q-84 0 -129 -50.5t-45 -140.5q0 -91 45 -142t130 -51q51 0 94 19v115h-116l-16 98h249v-277z" />
    <glyph glyph-name="h.sc" horiz-adv-x="661" 
d="M580 0h-129v240h-241v-240h-129v574h129v-220h241v220h129v-574z" />
    <glyph glyph-name="i.sc" horiz-adv-x="299" 
d="M214 0h-129v574h129v-574z" />
    <glyph glyph-name="j.sc" horiz-adv-x="390" 
d="M313 171q0 -88 -51 -132.5t-138 -44.5q-56 0 -80 7l-16 108q31 -7 68 -7q45 0 65 18t20 61v393h132v-403z" />
    <glyph glyph-name="k.sc" horiz-adv-x="588" 
d="M577 17l-136 -26l-231 283v-274h-129v574h129v-256l207 256h150l-231 -268z" />
    <glyph glyph-name="l.sc" horiz-adv-x="481" 
d="M443 0h-362v574h131v-461h213z" />
    <glyph glyph-name="m.sc" horiz-adv-x="877" 
d="M806 0h-128l-32 444l-151 -446h-128l-151 446l-31 -444h-114l44 574h180l144 -421l145 421h178z" />
    <glyph glyph-name="m.sc_alt" horiz-adv-x="826" 
d="M745 0h-120v403l-156 -405h-124l-154 405v-403h-110v574h171l164 -425l162 425h167v-574z" />
    <glyph glyph-name="n.sc" horiz-adv-x="662" 
d="M581 0h-111l-272 383v-383h-117v574h125l258 -363v363h117v-574z" />
    <glyph glyph-name="o.sc" horiz-adv-x="673" 
d="M623 288q0 -134 -82.5 -216.5t-204.5 -82.5t-204 81.5t-82 215.5q0 135 82.5 217t204.5 82t204 -81.5t82 -215.5zM492 286q0 83 -42.5 138t-112.5 55q-73 0 -115 -53.5t-42 -138.5q0 -82 43 -137.5t114 -55.5q72 0 113.5 54t41.5 138z" />
    <glyph glyph-name="p.sc" horiz-adv-x="545" 
d="M513 387q0 -92 -64.5 -143t-176.5 -51h-62v-193h-129v574h201q108 0 169.5 -49.5t61.5 -137.5zM389 383q0 43 -29.5 66.5t-86.5 23.5h-64v-180h63q117 0 117 90z" />
    <glyph glyph-name="q.sc" horiz-adv-x="676" 
d="M623 294q0 -180 -159 -259l157 -49l-20 -109l-319 109q-116 40 -174 111t-58 189q0 134 83 216.5t205 82.5q121 0 203 -79.5t82 -211.5zM492 286q0 83 -42.5 138t-112.5 55q-73 0 -115 -54.5t-42 -138.5q0 -83 43 -138.5t114 -55.5q72 0 113.5 54.5t41.5 139.5z" />
    <glyph glyph-name="q.sc_alt" horiz-adv-x="690" 
d="M643 95l-21 -106l-96 69q-78 -69 -190 -69q-122 0 -204 81.5t-82 215.5q0 135 82.5 217t204.5 82t204 -81.5t82 -215.5q0 -87 -36 -154zM337 479q-73 0 -115 -54t-42 -138q0 -83 43 -138.5t114 -55.5q56 0 95 33l-130 93l127 26l54 -38q11 38 11 79q0 83 -43 138t-114 55
z" />
    <glyph glyph-name="r.sc" horiz-adv-x="580" 
d="M556 18l-138 -25l-148 205h-62v-198h-127v574h204q111 0 171.5 -48.5t60.5 -134.5q0 -60 -31.5 -101.5t-86.5 -61.5zM390 387q0 84 -112 84h-70v-174h69q55 0 84 23t29 67z" />
    <glyph glyph-name="s.sc" horiz-adv-x="528" 
d="M483 166q0 -78 -61.5 -126t-163.5 -48q-109 0 -216 45l19 109q108 -53 200 -53q48 0 75 18t27 47q0 27 -21.5 43t-81.5 35q-109 35 -153.5 71.5t-44.5 107.5q0 74 58.5 120.5t151.5 46.5q99 0 181 -35l-19 -109q-87 42 -165 42q-42 0 -65 -15.5t-23 -39.5q0 -27 22 -42
t86 -36q110 -36 152 -73t42 -108z" />
    <glyph glyph-name="t.sc" horiz-adv-x="557" 
d="M536 462h-192v-462h-131v462h-181v112h488z" />
    <glyph glyph-name="u.sc" horiz-adv-x="652" 
d="M575 227q0 -115 -66.5 -176.5t-184.5 -61.5q-117 0 -182 61t-65 174v350h128v-348q0 -129 120 -129q121 0 121 127v350h129v-347z" />
    <glyph glyph-name="u.sc_alt" horiz-adv-x="651" 
d="M570 0h-108l-11 61q-89 -69 -182 -69q-193 0 -193 196v386h129v-371q0 -52 24 -77t74 -25q66 0 137 57v416h130v-574z" />
    <glyph glyph-name="v.sc" horiz-adv-x="628" 
d="M604 574l-224 -581h-137l-219 565l134 25l158 -442l154 433h134z" />
    <glyph glyph-name="w.sc" horiz-adv-x="913" 
d="M884 574l-168 -576h-135l-124 423l-127 -423h-134l-165 559l133 26l109 -424l121 415h139l118 -415l105 415h128z" />
    <glyph glyph-name="w.sc_alt" horiz-adv-x="906" 
d="M882 574l-207 -575h-125l-97 278l-103 -278h-123l-203 559l133 22l147 -424l97 270l-45 132l132 22l132 -425l132 419h130z" />
    <glyph glyph-name="x.sc" horiz-adv-x="593" 
d="M161 0h-140l196 293l-177 265l134 25l125 -201l120 192h141l-185 -275l193 -283l-134 -25l-141 220z" />
    <glyph glyph-name="y.sc" horiz-adv-x="593" 
d="M577 574l-217 -357v-217h-133v214l-211 346l134 23l147 -251l140 242h140z" />
    <glyph glyph-name="z.sc" horiz-adv-x="567" 
d="M522 0h-479v88l319 385h-282l-16 101h452v-88l-319 -386h310z" />
    <glyph glyph-name="uni0414.alt" horiz-adv-x="844" 
d="M22 123h71l251 605h156l251 -605h72v-278l-130 -17v172h-541v-165h-130v288zM419 576l-192 -463h383z" />
    <glyph glyph-name="uni041B.alt" horiz-adv-x="766" 
d="M29 0l286 729h141l280 -711l-143 -25l-213 560l-207 -553h-144z" />
    <glyph glyph-name="uni041B.bgr" horiz-adv-x="766" 
d="M29 0l286 729h141l280 -711l-143 -25l-213 560l-207 -553h-144z" />
    <glyph glyph-name="uni041C.alt" horiz-adv-x="978" 
d="M891 0h-129v528l-221 -531h-115l-221 531v-528h-118v725h177l227 -548l227 548h173v-725z" />
    <glyph glyph-name="uni0424.bgr" horiz-adv-x="967" 
d="M552 -103h-137v102q-164 11 -262 109.5t-98 252.5q0 155 98 254t262 111v99h137v-99q164 -12 261.5 -110.5t97.5 -252.5t-98 -253t-261 -111v-102zM193 362q0 -108 60 -174.5t165 -77.5v504q-105 -10 -165 -76.5t-60 -175.5zM773 362q0 109 -59.5 175.5t-164.5 76.5v-504
q105 11 164.5 77.5t59.5 174.5z" />
    <glyph glyph-name="uni0432.bgr" horiz-adv-x="656" 
d="M68 253v287q0 121 71 191.5t191 70.5q112 0 178.5 -58t66.5 -153q0 -139 -146 -193q83 -23 130 -73.5t47 -126.5q0 -92 -70.5 -150.5t-191.5 -58.5q-131 0 -203.5 71t-72.5 193zM198 545v-103h72q82 0 130 39t48 102q0 51 -31 82.5t-85 31.5q-62 0 -98 -41t-36 -111z
M269 343h-71v-88q0 -74 40.5 -117.5t110.5 -43.5q60 0 94.5 31t34.5 79q0 65 -54 102t-155 37z" />
    <glyph glyph-name="uni0433.bgr" horiz-adv-x="536" 
d="M46 148q0 71 45 108.5t153 69.5q65 19 88.5 35.5t23.5 40.5q0 50 -82 50q-84 0 -177 -49l-18 103q99 45 200 45q97 0 148 -40.5t51 -108.5q0 -69 -41.5 -106.5t-143.5 -67.5q-74 -21 -99 -37t-25 -43q0 -28 26 -44t73 -16q102 0 202 64l18 -103q-109 -60 -228 -60
q-104 0 -159 42t-55 117z" />
    <glyph glyph-name="uni0434.alt" horiz-adv-x="700" 
d="M560 -172v172h-420v-164h-122v272h69l184 435h158l183 -435h70v-263zM348 417l-131 -313h261z" />
    <glyph glyph-name="uni0434.bgr" horiz-adv-x="636" 
d="M427 187v237q-45 16 -95 16q-72 0 -111.5 -43t-39.5 -129q0 -74 31.5 -113.5t82.5 -39.5q67 0 132 72zM557 20q0 -107 -65 -165.5t-195 -58.5q-110 0 -213 41l19 109q91 -47 190 -47q134 0 134 115v59q-77 -71 -163 -71q-94 0 -154.5 67t-60.5 193q0 140 75.5 212.5
t204.5 72.5q118 0 228 -36v-491z" />
    <glyph glyph-name="uni0436.bgr" horiz-adv-x="871" 
d="M166 0h-148l226 280l-210 248l138 20l201 -253l-3 493l131 21l-3 -513l193 244h148l-213 -255l227 -273l-138 -20l-217 276l3 -268h-131l3 270z" />
    <glyph glyph-name="uni0438.bgr" horiz-adv-x="630" 
d="M551 0h-110l-13 76q-96 -87 -190 -87q-79 0 -121 42.5t-42 119.5v389h131v-354q0 -81 77 -81q65 0 137 70v365h131v-540z" />
    <glyph glyph-name="uni0439.bgr" horiz-adv-x="630" 
d="M486 752q-24 -139 -174 -139q-147 0 -171 139l80 15q21 -64 93 -64q70 0 92 64zM551 0h-110l-13 76q-96 -87 -190 -87q-79 0 -121 42.5t-42 119.5v389h131v-354q0 -81 77 -81q65 0 137 70v365h131v-540z" />
    <glyph glyph-name="uni043A.bgr" horiz-adv-x="581" 
d="M566 12l-139 -20l-218 278v-270h-131v788l131 21v-493l193 224h151l-217 -243z" />
    <glyph glyph-name="uni043B.alt" horiz-adv-x="615" 
d="M24 0l218 544h131l216 -534l-139 -18l-148 389l-144 -381h-134z" />
    <glyph glyph-name="uni043B.bgr" horiz-adv-x="615" 
d="M24 0l218 544h131l216 -534l-139 -18l-148 389l-144 -381h-134z" />
    <glyph glyph-name="uni043F.bgr" horiz-adv-x="630" 
d="M554 0h-131v355q0 81 -76 81q-65 0 -138 -70v-366h-131v540h110l13 -76q99 88 191 88q78 0 120 -43t42 -120v-389z" />
    <glyph glyph-name="uni0442.bgr" horiz-adv-x="961" 
d="M886 0h-131v355q0 81 -74 81q-61 0 -133 -70v-366h-131v355q0 81 -74 81q-61 0 -134 -70v-366h-131v540h110l13 -76q97 88 188 88q113 0 146 -88q95 88 191 88q79 0 119.5 -43t40.5 -120v-389z" />
    <glyph glyph-name="uni0446.bgr" horiz-adv-x="656" 
d="M504 -172v172h-63l-13 76q-96 -87 -190 -87q-79 0 -121 42.5t-42 119.5v389h131v-354q0 -81 77 -81q65 0 137 70v365h131v-432h76v-263z" />
    <glyph glyph-name="uni0448.bgr" horiz-adv-x="961" 
d="M75 540h131v-354q0 -81 74 -81q60 0 134 69v366h131v-354q0 -81 73 -81q60 0 134 69v366h131v-540h-110l-13 76q-96 -87 -188 -87q-111 0 -146 87q-96 -87 -190 -87q-80 0 -120.5 42.5t-40.5 119.5v389z" />
    <glyph glyph-name="uni0449.bgr" horiz-adv-x="988" 
d="M75 540h131v-354q0 -81 74 -81q60 0 134 69v366h131v-354q0 -81 73 -81q60 0 134 69v366h131v-432h75v-263l-122 -17v172h-63l-13 76q-96 -87 -188 -87q-111 0 -146 87q-96 -87 -190 -87q-80 0 -120.5 42.5t-40.5 119.5v389z" />
    <glyph glyph-name="uni044E.bgr" horiz-adv-x="861" 
d="M813 270q0 -130 -71.5 -205.5t-185.5 -75.5q-101 0 -168.5 61.5t-80.5 169.5h-98v-220h-131v788l131 21v-481h100q15 105 82 164.5t166 59.5q114 0 185 -76t71 -206zM684 270q0 78 -32.5 126t-94.5 48t-93.5 -47.5t-31.5 -126.5q0 -78 32 -126t93 -48q62 0 94.5 47.5
t32.5 126.5z" />
    <glyph glyph-name="aacute.sc" horiz-adv-x="644" 
d="M517 786l-163 -139h-86l90 169zM151 0h-128l224 579h155l219 -563l-127 -25l-51 139h-245zM320 472l-86 -238h172z" />
    <glyph glyph-name="abreve.sc" horiz-adv-x="644" 
d="M496 786q-24 -139 -174 -139q-147 0 -171 139l80 15q21 -64 93 -64q70 0 92 64zM151 0h-128l224 579h155l219 -563l-127 -25l-51 139h-245zM320 472l-86 -238h172z" />
    <glyph glyph-name="acircumflex.sc" horiz-adv-x="644" 
d="M500 647h-83l-95 73l-95 -73h-83l117 161h122zM151 0h-128l224 579h155l219 -563l-127 -25l-51 139h-245zM320 472l-86 -238h172z" />
    <glyph glyph-name="adieresis.sc" horiz-adv-x="644" 
d="M279 650h-129v127h129v-127zM497 650h-129v127h129v-127zM151 0h-128l224 579h155l219 -563l-127 -25l-51 139h-245zM320 472l-86 -238h172z" />
    <glyph glyph-name="agrave.sc" horiz-adv-x="644" 
d="M377 647h-87l-163 139l160 30zM151 0h-128l224 579h155l219 -563l-127 -25l-51 139h-245zM320 472l-86 -238h172z" />
    <glyph glyph-name="amacron.sc" horiz-adv-x="644" 
d="M487 666h-328v97h328v-97zM151 0h-128l224 579h155l219 -563l-127 -25l-51 139h-245zM320 472l-86 -238h172z" />
    <glyph glyph-name="aogonek.sc" horiz-adv-x="644" 
d="M151 0h-128l224 579h155l219 -563l-29 -6l-25 -36q-33 -48 -33 -72q0 -34 43 -34q24 0 49 7v-71q-53 -20 -98 -20q-46 0 -72 21.5t-26 63.5q0 51 62 126l-49 135h-245zM320 472l-86 -238h172z" />
    <glyph glyph-name="aring.sc" horiz-adv-x="644" 
d="M457 625q0 -53 -39 -86l203 -523l-127 -25l-51 139h-245l-47 -130h-128l207 537q-42 33 -42 88q0 51 37.5 84.5t97.5 33.5t97 -33.5t37 -84.5zM387 625q0 28 -18 47t-46 19t-46 -19t-18 -47t18 -46.5t46 -18.5t46 18.5t18 46.5zM320 472l-86 -238h172z" />
    <glyph glyph-name="aringacute.sc" horiz-adv-x="644" 
d="M517 918l-163 -139h-86l90 169zM457 625q0 -53 -39 -86l203 -523l-127 -25l-51 139h-245l-47 -130h-128l207 537q-42 33 -42 88q0 51 37.5 84.5t97.5 33.5t97 -33.5t37 -84.5zM387 625q0 28 -18 47t-46 19t-46 -19t-18 -47t18 -46.5t46 -18.5t46 18.5t18 46.5zM320 472
l-86 -238h172z" />
    <glyph glyph-name="atilde.sc" horiz-adv-x="644" 
d="M513 789q-17 -140 -101 -140q-33 0 -84 24q-57 26 -76 26q-14 0 -22.5 -11.5t-15.5 -42.5l-73 15q19 141 102 141q31 0 84 -24q57 -27 76 -27q25 0 38 54zM151 0h-128l224 579h155l219 -563l-127 -25l-51 139h-245zM320 472l-86 -238h172z" />
    <glyph glyph-name="cacute.sc" horiz-adv-x="564" 
d="M515 786l-163 -139h-86l90 169zM519 35q-79 -46 -177 -46q-135 0 -213.5 80t-78.5 217q0 136 79.5 217.5t212.5 81.5q97 0 168 -41l-19 -116q-68 47 -139 47q-78 0 -123.5 -49.5t-45.5 -139.5q0 -89 47 -138.5t123 -49.5t150 46z" />
    <glyph glyph-name="ccaron.sc" horiz-adv-x="564" 
d="M142 808h83l95 -74l95 74h83l-117 -161h-122zM519 35q-79 -46 -177 -46q-135 0 -213.5 80t-78.5 217q0 136 79.5 217.5t212.5 81.5q97 0 168 -41l-19 -116q-68 47 -139 47q-78 0 -123.5 -49.5t-45.5 -139.5q0 -89 47 -138.5t123 -49.5t150 46z" />
    <glyph glyph-name="ccedilla.sc" horiz-adv-x="564" 
d="M519 35q-79 -46 -177 -46q-135 0 -213.5 80t-78.5 217q0 136 79.5 217.5t212.5 81.5q97 0 168 -41l-19 -116q-68 47 -139 47q-78 0 -123.5 -49.5t-45.5 -139.5q0 -89 47 -138.5t123 -49.5t150 46zM409 -96l-151 -119h-87l80 150z" />
    <glyph glyph-name="cdotaccent.sc" horiz-adv-x="564" 
d="M386 650h-132v127h132v-127zM519 35q-79 -46 -177 -46q-135 0 -213.5 80t-78.5 217q0 136 79.5 217.5t212.5 81.5q97 0 168 -41l-19 -116q-68 47 -139 47q-78 0 -123.5 -49.5t-45.5 -139.5q0 -89 47 -138.5t123 -49.5t150 46z" />
    <glyph glyph-name="dcaron.sc" horiz-adv-x="648" 
d="M140 808h83l95 -74l95 74h83l-117 -161h-122zM599 288q0 -128 -86 -208t-237 -80h-195v574h194q155 0 239.5 -78t84.5 -208zM466 286q0 86 -50.5 133.5t-138.5 47.5h-67v-360h66q89 0 139.5 46.5t50.5 132.5z" />
    <glyph glyph-name="dcroat.sc" horiz-adv-x="671" 
d="M32 238l-20 109h91v227h194q155 0 239.5 -78t84.5 -208q0 -128 -86 -208t-236 -80h-196v238h-71zM489 286q0 86 -50.5 133.5t-137.5 47.5h-70v-122h123v-105h-123v-133h68q89 0 139.5 46.5t50.5 132.5z" />
    <glyph glyph-name="eacute.sc" horiz-adv-x="526" 
d="M470 786l-163 -139h-86l90 169zM474 0h-393v574h385v-105h-257v-122h201l17 -103h-218v-139h265v-105z" />
    <glyph glyph-name="ebreve.sc" horiz-adv-x="526" 
d="M448 786q-24 -139 -174 -139q-147 0 -171 139l80 15q21 -64 93 -64q70 0 92 64zM474 0h-393v574h385v-105h-257v-122h201l17 -103h-218v-139h265v-105z" />
    <glyph glyph-name="ecaron.sc" horiz-adv-x="526" 
d="M97 808h83l95 -74l95 74h83l-117 -161h-122zM474 0h-393v574h385v-105h-257v-122h201l17 -103h-218v-139h265v-105z" />
    <glyph glyph-name="ecircumflex.sc" horiz-adv-x="526" 
d="M453 647h-83l-95 73l-95 -73h-83l117 161h122zM474 0h-393v574h385v-105h-257v-122h201l17 -103h-218v-139h265v-105z" />
    <glyph glyph-name="edieresis.sc" horiz-adv-x="526" 
d="M231 650h-129v127h129v-127zM449 650h-129v127h129v-127zM474 0h-393v574h385v-105h-257v-122h201l17 -103h-218v-139h265v-105z" />
    <glyph glyph-name="edotaccent.sc" horiz-adv-x="526" 
d="M341 650h-132v127h132v-127zM474 0h-393v574h385v-105h-257v-122h201l17 -103h-218v-139h265v-105z" />
    <glyph glyph-name="egrave.sc" horiz-adv-x="526" 
d="M329 647h-87l-163 139l160 30zM474 0h-393v574h385v-105h-257v-122h201l17 -103h-218v-139h265v-105z" />
    <glyph glyph-name="emacron.sc" horiz-adv-x="526" 
d="M439 666h-328v97h328v-97zM474 0h-393v574h385v-105h-257v-122h201l17 -103h-218v-139h265v-105z" />
    <glyph glyph-name="eogonek.sc" horiz-adv-x="526" 
d="M474 0h-38l-18 -26q-33 -48 -33 -72q0 -34 43 -34q24 0 49 7v-71q-53 -20 -98 -20q-46 0 -72 21.5t-26 63.5q0 50 66 131h-266v574h385v-105h-257v-122h201l17 -103h-218v-139h265v-105z" />
    <glyph glyph-name="gbreve.alt" horiz-adv-x="636" 
d="M498 752q-24 -139 -174 -139q-147 0 -171 139l80 15q21 -64 93 -64q70 0 92 64zM427 187v237q-45 16 -95 16q-72 0 -111.5 -43t-39.5 -129q0 -74 31.5 -113.5t82.5 -39.5q67 0 132 72zM557 20q0 -107 -65 -165.5t-195 -58.5q-110 0 -213 41l19 109q91 -47 190 -47
q134 0 134 115v59q-77 -71 -163 -71q-94 0 -154.5 67t-60.5 193q0 140 75.5 212.5t204.5 72.5q118 0 228 -36v-491z" />
    <glyph glyph-name="gbreve.sc" horiz-adv-x="626" 
d="M508 786q-24 -139 -174 -139q-147 0 -171 139l80 15q21 -64 93 -64q70 0 92 64zM566 47q-99 -58 -220 -58q-140 0 -218 81t-78 216q0 136 81.5 217.5t217.5 81.5q105 0 185 -44l-19 -115q-81 50 -161 50q-84 0 -129 -50.5t-45 -140.5q0 -91 45 -142t130 -51q51 0 94 19
v115h-116l-16 98h249v-277z" />
    <glyph glyph-name="gcommaaccent.alt" horiz-adv-x="636" 
d="M398 634l-109 -28q-50 47 -50 99q0 66 91 142l81 -18q-57 -68 -57 -112q0 -40 44 -83zM427 187v237q-45 16 -95 16q-72 0 -111.5 -43t-39.5 -129q0 -74 31.5 -113.5t82.5 -39.5q67 0 132 72zM557 20q0 -107 -65 -165.5t-195 -58.5q-110 0 -213 41l19 109q91 -47 190 -47
q134 0 134 115v59q-77 -71 -163 -71q-94 0 -154.5 67t-60.5 193q0 140 75.5 212.5t204.5 72.5q118 0 228 -36v-491z" />
    <glyph glyph-name="gcommaaccent.sc" horiz-adv-x="626" 
d="M566 47q-99 -58 -220 -58q-140 0 -218 81t-78 216q0 136 81.5 217.5t217.5 81.5q105 0 185 -44l-19 -115q-81 50 -161 50q-84 0 -129 -50.5t-45 -140.5q0 -91 45 -142t130 -51q51 0 94 19v115h-116l-16 98h249v-277zM254 -92l110 27q50 -47 50 -99q0 -66 -92 -142l-81 18
q58 68 58 113q0 39 -45 83z" />
    <glyph glyph-name="gdotaccent.alt" horiz-adv-x="636" 
d="M391 616h-132v127h132v-127zM427 187v237q-45 16 -95 16q-72 0 -111.5 -43t-39.5 -129q0 -74 31.5 -113.5t82.5 -39.5q67 0 132 72zM557 20q0 -107 -65 -165.5t-195 -58.5q-110 0 -213 41l19 109q91 -47 190 -47q134 0 134 115v59q-77 -71 -163 -71q-94 0 -154.5 67
t-60.5 193q0 140 75.5 212.5t204.5 72.5q118 0 228 -36v-491z" />
    <glyph glyph-name="gdotaccent.sc" horiz-adv-x="626" 
d="M401 650h-132v127h132v-127zM566 47q-99 -58 -220 -58q-140 0 -218 81t-78 216q0 136 81.5 217.5t217.5 81.5q105 0 185 -44l-19 -115q-81 50 -161 50q-84 0 -129 -50.5t-45 -140.5q0 -91 45 -142t130 -51q51 0 94 19v115h-116l-16 98h249v-277z" />
    <glyph glyph-name="hbar.sc" horiz-adv-x="693" 
d="M225 337h243v82h-243v-82zM597 0h-130v230h-241v-230h-129v412h-69l-17 99h86v63h128v-63h243v63h129v-63h78v-99h-78v-412z" />
    <glyph glyph-name="iacute.sc" horiz-adv-x="299" 
d="M344 786l-163 -139h-86l90 169zM214 0h-129v574h129v-574z" />
    <glyph glyph-name="ibreve.sc" horiz-adv-x="299" 
d="M322 786q-24 -139 -174 -139q-147 0 -171 139l80 15q21 -64 93 -64q70 0 92 64zM214 0h-129v574h129v-574z" />
    <glyph glyph-name="icircumflex.sc" horiz-adv-x="299" 
d="M327 647h-83l-95 73l-95 -73h-83l117 161h122zM214 0h-129v574h129v-574z" />
    <glyph glyph-name="idieresis.sc" horiz-adv-x="299" 
d="M105 650h-129v127h129v-127zM323 650h-129v127h129v-127zM214 0h-129v574h129v-574z" />
    <glyph glyph-name="idotaccent.sc" horiz-adv-x="299" 
d="M215 650h-132v127h132v-127zM214 0h-129v574h129v-574z" />
    <glyph glyph-name="dotlessi.sc" horiz-adv-x="299" 
d="M214 0h-129v574h129v-574z" />
    <glyph glyph-name="igrave.sc" horiz-adv-x="299" 
d="M203 647h-87l-163 139l160 30zM214 0h-129v574h129v-574z" />
    <glyph glyph-name="imacron.sc" horiz-adv-x="299" 
d="M313 666h-328v97h328v-97zM214 0h-129v574h129v-574z" />
    <glyph glyph-name="iogonek.sc" horiz-adv-x="299" 
d="M214 0h-19l-18 -26q-33 -48 -33 -72q0 -34 43 -34q24 0 49 7v-71q-53 -20 -98 -20q-46 0 -72 21.5t-26 63.5q0 50 66 131h-21v574h129v-574z" />
    <glyph glyph-name="kcommaaccent.sc" horiz-adv-x="588" 
d="M577 17l-136 -26l-231 283v-274h-129v574h129v-256l207 256h150l-231 -268zM222 -92l110 27q50 -47 50 -99q0 -66 -92 -142l-81 18q58 68 58 113q0 39 -45 83z" />
    <glyph glyph-name="lacute.sc" horiz-adv-x="481" 
d="M363 786l-163 -139h-86l90 169zM443 0h-362v574h131v-461h213z" />
    <glyph glyph-name="lcaron.sc" horiz-adv-x="490" 
d="M389 584q20 -45 20 -81q0 -75 -78 -145l-64 14q36 57 36 108q0 34 -26 88zM443 0h-362v574h131v-461h213z" />
    <glyph glyph-name="lcommaaccent.sc" horiz-adv-x="481" 
d="M443 0h-362v574h131v-461h213zM176 -95l110 27q50 -47 50 -99q0 -66 -92 -142l-81 18q58 68 58 113q0 39 -45 83z" />
    <glyph glyph-name="ldot.sc" horiz-adv-x="483" 
d="M443 0h-362v574h131v-461h213zM441 258h-115v121h115v-121z" />
    <glyph glyph-name="lslash.sc" horiz-adv-x="504" 
d="M361 328l-127 -65v-150h214l17 -113h-362v193l-73 -39l-18 107l91 47v266h131v-198l127 68v-116z" />
    <glyph glyph-name="nacute.sc" horiz-adv-x="662" 
d="M526 786l-163 -139h-86l90 169zM581 0h-111l-272 383v-383h-117v574h125l258 -363v363h117v-574z" />
    <glyph glyph-name="ncaron.sc" horiz-adv-x="662" 
d="M153 808h83l95 -74l95 74h83l-117 -161h-122zM581 0h-111l-272 383v-383h-117v574h125l258 -363v363h117v-574z" />
    <glyph glyph-name="ncommaaccent.sc" horiz-adv-x="662" 
d="M581 0h-111l-272 383v-383h-117v574h125l258 -363v363h117v-574zM250 -92l110 27q50 -47 50 -99q0 -66 -92 -142l-81 18q58 68 58 113q0 39 -45 83z" />
    <glyph glyph-name="ntilde.sc" horiz-adv-x="662" 
d="M521 789q-17 -140 -101 -140q-33 0 -84 24q-57 26 -76 26q-14 0 -22.5 -11.5t-15.5 -42.5l-73 15q19 141 102 141q31 0 84 -24q57 -27 76 -27q25 0 38 54zM581 0h-111l-272 383v-383h-117v574h125l258 -363v363h117v-574z" />
    <glyph glyph-name="oacute.sc" horiz-adv-x="673" 
d="M531 786l-163 -139h-86l90 169zM623 288q0 -134 -82.5 -216.5t-204.5 -82.5t-204 81.5t-82 215.5q0 135 82.5 217t204.5 82t204 -81.5t82 -215.5zM492 286q0 83 -42.5 138t-112.5 55q-73 0 -115 -53.5t-42 -138.5q0 -82 43 -137.5t114 -55.5q72 0 113.5 54t41.5 138z" />
    <glyph glyph-name="obreve.sc" horiz-adv-x="673" 
d="M510 786q-24 -139 -174 -139q-147 0 -171 139l80 15q21 -64 93 -64q70 0 92 64zM623 288q0 -134 -82.5 -216.5t-204.5 -82.5t-204 81.5t-82 215.5q0 135 82.5 217t204.5 82t204 -81.5t82 -215.5zM492 286q0 83 -42.5 138t-112.5 55q-73 0 -115 -53.5t-42 -138.5
q0 -82 43 -137.5t114 -55.5q72 0 113.5 54t41.5 138z" />
    <glyph glyph-name="ocircumflex.sc" horiz-adv-x="673" 
d="M514 647h-83l-95 73l-95 -73h-83l117 161h122zM623 288q0 -134 -82.5 -216.5t-204.5 -82.5t-204 81.5t-82 215.5q0 135 82.5 217t204.5 82t204 -81.5t82 -215.5zM492 286q0 83 -42.5 138t-112.5 55q-73 0 -115 -53.5t-42 -138.5q0 -82 43 -137.5t114 -55.5q72 0 113.5 54
t41.5 138z" />
    <glyph glyph-name="odieresis.sc" horiz-adv-x="673" 
d="M292 650h-129v127h129v-127zM510 650h-129v127h129v-127zM623 288q0 -134 -82.5 -216.5t-204.5 -82.5t-204 81.5t-82 215.5q0 135 82.5 217t204.5 82t204 -81.5t82 -215.5zM492 286q0 83 -42.5 138t-112.5 55q-73 0 -115 -53.5t-42 -138.5q0 -82 43 -137.5t114 -55.5
q72 0 113.5 54t41.5 138z" />
    <glyph glyph-name="ograve.sc" horiz-adv-x="673" 
d="M391 647h-87l-163 139l160 30zM623 288q0 -134 -82.5 -216.5t-204.5 -82.5t-204 81.5t-82 215.5q0 135 82.5 217t204.5 82t204 -81.5t82 -215.5zM492 286q0 83 -42.5 138t-112.5 55q-73 0 -115 -53.5t-42 -138.5q0 -82 43 -137.5t114 -55.5q72 0 113.5 54t41.5 138z" />
    <glyph glyph-name="ohungarumlaut.sc" horiz-adv-x="673" 
d="M418 787l-154 -137h-80l91 166zM610 787l-154 -137h-80l90 166zM623 288q0 -134 -82.5 -216.5t-204.5 -82.5t-204 81.5t-82 215.5q0 135 82.5 217t204.5 82t204 -81.5t82 -215.5zM492 286q0 83 -42.5 138t-112.5 55q-73 0 -115 -53.5t-42 -138.5q0 -82 43 -137.5
t114 -55.5q72 0 113.5 54t41.5 138z" />
    <glyph glyph-name="omacron.sc" horiz-adv-x="673" 
d="M501 666h-328v97h328v-97zM623 288q0 -134 -82.5 -216.5t-204.5 -82.5t-204 81.5t-82 215.5q0 135 82.5 217t204.5 82t204 -81.5t82 -215.5zM492 286q0 83 -42.5 138t-112.5 55q-73 0 -115 -53.5t-42 -138.5q0 -82 43 -137.5t114 -55.5q72 0 113.5 54t41.5 138z" />
    <glyph glyph-name="oslash.sc" horiz-adv-x="673" 
d="M179 287q0 -59 17 -100l232 266q-37 28 -91 28q-74 0 -116 -54t-42 -140zM494 286q0 57 -17 100l-233 -265q38 -29 93 -29q73 0 115 55t42 139zM643 568l-79 -92q59 -78 59 -188q0 -134 -82.5 -216.5t-204.5 -82.5q-91 0 -164 48l-46 -53l-97 22l79 92q-58 79 -58 188
q0 135 82.5 217t204.5 82q92 0 163 -48l47 53z" />
    <glyph glyph-name="oslashacute.sc" horiz-adv-x="673" 
d="M531 786l-163 -139h-86l90 169zM179 287q0 -59 17 -100l232 266q-37 28 -91 28q-74 0 -116 -54t-42 -140zM494 286q0 57 -17 100l-233 -265q38 -29 93 -29q73 0 115 55t42 139zM643 568l-79 -92q59 -78 59 -188q0 -134 -82.5 -216.5t-204.5 -82.5q-91 0 -164 48l-46 -53
l-97 22l79 92q-58 79 -58 188q0 135 82.5 217t204.5 82q92 0 163 -48l47 53z" />
    <glyph glyph-name="otilde.sc" horiz-adv-x="673" 
d="M527 789q-17 -140 -101 -140q-33 0 -84 24q-57 26 -76 26q-14 0 -22.5 -11.5t-15.5 -42.5l-73 15q19 141 102 141q31 0 84 -24q57 -27 76 -27q25 0 38 54zM623 288q0 -134 -82.5 -216.5t-204.5 -82.5t-204 81.5t-82 215.5q0 135 82.5 217t204.5 82t204 -81.5t82 -215.5z
M492 286q0 83 -42.5 138t-112.5 55q-73 0 -115 -53.5t-42 -138.5q0 -82 43 -137.5t114 -55.5q72 0 113.5 54t41.5 138z" />
    <glyph glyph-name="racute.sc" horiz-adv-x="580" 
d="M478 786l-163 -139h-86l90 169zM556 18l-138 -25l-148 205h-62v-198h-127v574h204q111 0 171.5 -48.5t60.5 -134.5q0 -60 -31.5 -101.5t-86.5 -61.5zM390 387q0 84 -112 84h-70v-174h69q55 0 84 23t29 67z" />
    <glyph glyph-name="rcaron.sc" horiz-adv-x="580" 
d="M105 808h83l95 -74l95 74h83l-117 -161h-122zM556 18l-138 -25l-148 205h-62v-198h-127v574h204q111 0 171.5 -48.5t60.5 -134.5q0 -60 -31.5 -101.5t-86.5 -61.5zM390 387q0 84 -112 84h-70v-174h69q55 0 84 23t29 67z" />
    <glyph glyph-name="rcommaaccent.sc" horiz-adv-x="580" 
d="M556 18l-138 -25l-148 205h-62v-198h-127v574h204q111 0 171.5 -48.5t60.5 -134.5q0 -60 -31.5 -101.5t-86.5 -61.5zM390 387q0 84 -112 84h-70v-174h69q55 0 84 23t29 67zM212 -92l110 27q50 -47 50 -99q0 -66 -92 -142l-81 18q58 68 58 113q0 39 -45 83z" />
    <glyph glyph-name="sacute.sc" horiz-adv-x="528" 
d="M467 786l-163 -139h-86l90 169zM483 166q0 -78 -61.5 -126t-163.5 -48q-109 0 -216 45l19 109q108 -53 200 -53q48 0 75 18t27 47q0 27 -21.5 43t-81.5 35q-109 35 -153.5 71.5t-44.5 107.5q0 74 58.5 120.5t151.5 46.5q99 0 181 -35l-19 -109q-87 42 -165 42
q-42 0 -65 -15.5t-23 -39.5q0 -27 22 -42t86 -36q110 -36 152 -73t42 -108z" />
    <glyph glyph-name="scaron.sc" horiz-adv-x="528" 
d="M95 808h83l95 -74l95 74h83l-117 -161h-122zM483 166q0 -78 -61.5 -126t-163.5 -48q-109 0 -216 45l19 109q108 -53 200 -53q48 0 75 18t27 47q0 27 -21.5 43t-81.5 35q-109 35 -153.5 71.5t-44.5 107.5q0 74 58.5 120.5t151.5 46.5q99 0 181 -35l-19 -109
q-87 42 -165 42q-42 0 -65 -15.5t-23 -39.5q0 -27 22 -42t86 -36q110 -36 152 -73t42 -108z" />
    <glyph glyph-name="scedilla.sc" horiz-adv-x="528" 
d="M483 166q0 -78 -61.5 -126t-163.5 -48q-109 0 -216 45l19 109q108 -53 200 -53q48 0 75 18t27 47q0 27 -21.5 43t-81.5 35q-109 35 -153.5 71.5t-44.5 107.5q0 74 58.5 120.5t151.5 46.5q99 0 181 -35l-19 -109q-87 42 -165 42q-42 0 -65 -15.5t-23 -39.5q0 -27 22 -42
t86 -36q110 -36 152 -73t42 -108zM361 -96l-151 -119h-87l80 150z" />
    <glyph glyph-name="scommaaccent.sc" horiz-adv-x="528" 
d="M483 166q0 -78 -61.5 -126t-163.5 -48q-109 0 -216 45l19 109q108 -53 200 -53q48 0 75 18t27 47q0 27 -21.5 43t-81.5 35q-109 35 -153.5 71.5t-44.5 107.5q0 74 58.5 120.5t151.5 46.5q99 0 181 -35l-19 -109q-87 42 -165 42q-42 0 -65 -15.5t-23 -39.5q0 -27 22 -42
t86 -36q110 -36 152 -73t42 -108zM192 -92l110 27q50 -47 50 -99q0 -66 -92 -142l-81 18q58 68 58 113q0 39 -45 83z" />
    <glyph glyph-name="tcaron.sc" horiz-adv-x="557" 
d="M105 808h83l95 -74l95 74h83l-117 -161h-122zM536 462h-192v-462h-131v462h-181v112h488z" />
    <glyph glyph-name="tcommaaccent.sc" horiz-adv-x="557" 
d="M536 462h-192v-462h-131v462h-181v112h488zM202 -95l110 27q50 -47 50 -99q0 -66 -92 -142l-81 18q58 68 58 113q0 39 -45 83z" />
    <glyph glyph-name="uacute.sc" horiz-adv-x="652" 
d="M521 786l-163 -139h-86l90 169zM575 227q0 -115 -66.5 -176.5t-184.5 -61.5q-117 0 -182 61t-65 174v350h128v-348q0 -129 120 -129q121 0 121 127v350h129v-347z" />
    <glyph glyph-name="Uacute.alt" horiz-adv-x="772" 
d="M568 908l-153 -131h-82l84 159zM572 0l-12 75q-120 -83 -235 -83t-179 58t-64 178v497h137v-477q0 -136 133 -136q96 0 196 78v535h137v-725h-113z" />
    <glyph glyph-name="uacute.sc_alt" horiz-adv-x="651" 
d="M519 786l-163 -139h-86l90 169zM570 0h-108l-11 61q-89 -69 -182 -69q-193 0 -193 196v386h129v-371q0 -52 24 -77t74 -25q66 0 137 57v416h130v-574z" />
    <glyph glyph-name="ubreve.sc" horiz-adv-x="652" 
d="M499 782q-24 -139 -174 -139q-147 0 -171 139l80 15q21 -64 93 -64q70 0 92 64zM575 227q0 -115 -66.5 -176.5t-184.5 -61.5q-117 0 -182 61t-65 174v350h128v-348q0 -129 120 -129q121 0 121 127v350h129v-347z" />
    <glyph glyph-name="Ubreve.alt" horiz-adv-x="772" 
d="M547 903q-23 -132 -163 -132q-138 0 -162 132l76 14q20 -60 87 -60q65 0 86 60zM572 0l-12 75q-120 -83 -235 -83t-179 58t-64 178v497h137v-477q0 -136 133 -136q96 0 196 78v535h137v-725h-113z" />
    <glyph glyph-name="ubreve.sc_alt" horiz-adv-x="651" 
d="M497 782q-24 -139 -174 -139q-147 0 -171 139l80 15q21 -64 93 -64q70 0 92 64zM570 0h-108l-11 61q-89 -69 -182 -69q-193 0 -193 196v386h129v-371q0 -52 24 -77t74 -25q66 0 137 57v416h130v-574z" />
    <glyph glyph-name="ucircumflex.sc" horiz-adv-x="652" 
d="M504 647h-83l-95 73l-95 -73h-83l117 161h122zM575 227q0 -115 -66.5 -176.5t-184.5 -61.5q-117 0 -182 61t-65 174v350h128v-348q0 -129 120 -129q121 0 121 127v350h129v-347z" />
    <glyph glyph-name="Ucircumflex.alt" horiz-adv-x="772" 
d="M552 777h-79l-89 69l-88 -69h-79l109 152h117zM572 0l-12 75q-120 -83 -235 -83t-179 58t-64 178v497h137v-477q0 -136 133 -136q96 0 196 78v535h137v-725h-113z" />
    <glyph glyph-name="ucircumflex.sc_alt" horiz-adv-x="651" 
d="M502 647h-83l-95 73l-95 -73h-83l117 161h122zM570 0h-108l-11 61q-89 -69 -182 -69q-193 0 -193 196v386h129v-371q0 -52 24 -77t74 -25q66 0 137 57v416h130v-574z" />
    <glyph glyph-name="udieresis.sc" horiz-adv-x="652" 
d="M282 650h-129v127h129v-127zM500 650h-129v127h129v-127zM575 227q0 -115 -66.5 -176.5t-184.5 -61.5q-117 0 -182 61t-65 174v350h128v-348q0 -129 120 -129q121 0 121 127v350h129v-347z" />
    <glyph glyph-name="Udieresis.alt" horiz-adv-x="772" 
d="M343 780h-122v121h122v-121zM548 780h-122v121h122v-121zM572 0l-12 75q-120 -83 -235 -83t-179 58t-64 178v497h137v-477q0 -136 133 -136q96 0 196 78v535h137v-725h-113z" />
    <glyph glyph-name="udieresis.sc_alt" horiz-adv-x="651" 
d="M280 650h-129v127h129v-127zM498 650h-129v127h129v-127zM570 0h-108l-11 61q-89 -69 -182 -69q-193 0 -193 196v386h129v-371q0 -52 24 -77t74 -25q66 0 137 57v416h130v-574z" />
    <glyph glyph-name="ugrave.sc" horiz-adv-x="652" 
d="M380 647h-87l-163 139l160 30zM575 227q0 -115 -66.5 -176.5t-184.5 -61.5q-117 0 -182 61t-65 174v350h128v-348q0 -129 120 -129q121 0 121 127v350h129v-347z" />
    <glyph glyph-name="Ugrave.alt" horiz-adv-x="772" 
d="M436 777h-82l-154 131l153 28zM572 0l-12 75q-120 -83 -235 -83t-179 58t-64 178v497h137v-477q0 -136 133 -136q96 0 196 78v535h137v-725h-113z" />
    <glyph glyph-name="ugrave.sc_alt" horiz-adv-x="651" 
d="M378 647h-87l-163 139l160 30zM570 0h-108l-11 61q-89 -69 -182 -69q-193 0 -193 196v386h129v-371q0 -52 24 -77t74 -25q66 0 137 57v416h130v-574z" />
    <glyph glyph-name="uhungarumlaut.sc" horiz-adv-x="652" 
d="M408 787l-154 -137h-80l91 166zM600 787l-154 -137h-80l90 166zM575 227q0 -115 -66.5 -176.5t-184.5 -61.5q-117 0 -182 61t-65 174v350h128v-348q0 -129 120 -129q121 0 121 127v350h129v-347z" />
    <glyph glyph-name="Uhungarumlaut.alt" horiz-adv-x="772" 
d="M462 909l-145 -129h-76l84 156zM642 909l-145 -129h-76l84 156zM572 0l-12 75q-120 -83 -235 -83t-179 58t-64 178v497h137v-477q0 -136 133 -136q96 0 196 78v535h137v-725h-113z" />
    <glyph glyph-name="uhungarumlaut.sc_alt" horiz-adv-x="651" 
d="M406 787l-154 -137h-80l91 166zM598 787l-154 -137h-80l90 166zM570 0h-108l-11 61q-89 -69 -182 -69q-193 0 -193 196v386h129v-371q0 -52 24 -77t74 -25q66 0 137 57v416h130v-574z" />
    <glyph glyph-name="umacron.sc" horiz-adv-x="652" 
d="M490 666h-328v97h328v-97zM575 227q0 -115 -66.5 -176.5t-184.5 -61.5q-117 0 -182 61t-65 174v350h128v-348q0 -129 120 -129q121 0 121 127v350h129v-347z" />
    <glyph glyph-name="Umacron.alt" horiz-adv-x="772" 
d="M539 795h-309v92h309v-92zM572 0l-12 75q-120 -83 -235 -83t-179 58t-64 178v497h137v-477q0 -136 133 -136q96 0 196 78v535h137v-725h-113z" />
    <glyph glyph-name="umacron.sc_alt" horiz-adv-x="651" 
d="M488 666h-328v97h328v-97zM570 0h-108l-11 61q-89 -69 -182 -69q-193 0 -193 196v386h129v-371q0 -52 24 -77t74 -25q66 0 137 57v416h130v-574z" />
    <glyph glyph-name="uogonek.sc" horiz-adv-x="652" 
d="M575 227q0 -102 -52.5 -162t-146.5 -72l-13 -19q-33 -48 -33 -72q0 -34 43 -34q24 0 49 7v-71q-53 -20 -98 -20q-46 0 -72 21.5t-26 63.5q0 50 59 122q-99 10 -153.5 70t-54.5 163v350h128v-348q0 -129 120 -129q121 0 121 127v350h129v-347z" />
    <glyph glyph-name="Uogonek.alt" horiz-adv-x="772" 
d="M505 -123q0 48 66 126l-11 72q-120 -83 -235 -83t-179 58t-64 178v497h137v-477q0 -136 133 -136q96 0 196 78v535h137v-725h-33l-17 -25q-31 -43 -31 -67q0 -32 40 -32q18 0 46 7v-67q-47 -19 -92 -19q-43 0 -68 20.5t-25 59.5z" />
    <glyph glyph-name="uogonek.sc_alt" horiz-adv-x="651" 
d="M570 0h-21l-18 -26q-33 -48 -33 -72q0 -34 43 -34q24 0 49 7v-71q-53 -20 -98 -20q-46 0 -72 21.5t-26 63.5q0 52 67 132l-10 60q-89 -69 -182 -69q-193 0 -193 196v386h129v-371q0 -52 24 -77t74 -25q66 0 137 57v416h130v-574z" />
    <glyph glyph-name="uring.sc" horiz-adv-x="652" 
d="M460 751q0 -51 -36.5 -84t-97.5 -33t-97.5 33t-36.5 84t37 85t97 34t97 -34t37 -85zM390 751q0 28 -18 47.5t-46 19.5q-27 0 -45.5 -19.5t-18.5 -47.5t18 -46.5t46 -18.5t46 18.5t18 46.5zM575 227q0 -115 -66.5 -176.5t-184.5 -61.5q-117 0 -182 61t-65 174v350h128
v-348q0 -129 120 -129q121 0 121 127v350h129v-347z" />
    <glyph glyph-name="Uring.alt" horiz-adv-x="772" 
d="M511 875q0 -48 -34.5 -79t-91.5 -31q-58 0 -92.5 31t-34.5 79t35 79.5t92 31.5t91.5 -31.5t34.5 -79.5zM444 875q0 26 -16.5 44t-42.5 18t-43 -18t-17 -44t17 -43.5t43 -17.5t42.5 17.5t16.5 43.5zM572 0l-12 75q-120 -83 -235 -83t-179 58t-64 178v497h137v-477
q0 -136 133 -136q96 0 196 78v535h137v-725h-113z" />
    <glyph glyph-name="uring.sc_alt" horiz-adv-x="651" 
d="M458 751q0 -51 -36.5 -84t-97.5 -33t-97.5 33t-36.5 84t37 85t97 34t97 -34t37 -85zM388 751q0 28 -18 47.5t-46 19.5q-27 0 -45.5 -19.5t-18.5 -47.5t18 -46.5t46 -18.5t46 18.5t18 46.5zM570 0h-108l-11 61q-89 -69 -182 -69q-193 0 -193 196v386h129v-371
q0 -52 24 -77t74 -25q66 0 137 57v416h130v-574z" />
    <glyph glyph-name="wacute.sc" horiz-adv-x="913" 
d="M657 786l-163 -139h-86l90 169zM884 574l-168 -576h-135l-124 423l-127 -423h-134l-165 559l133 26l109 -424l121 415h139l118 -415l105 415h128z" />
    <glyph glyph-name="Wacute.alt" horiz-adv-x="1124" 
d="M744 915l-153 -131h-82l84 159zM1093 725l-261 -728h-132l-140 368l-141 -368h-129l-259 710l143 26l193 -555l132 347l-66 183l143 25l194 -555l182 547h141z" />
    <glyph glyph-name="wacute.sc_alt" horiz-adv-x="906" 
d="M647 786l-163 -139h-86l90 169zM882 574l-207 -575h-125l-97 278l-103 -278h-123l-203 559l133 22l147 -424l97 270l-45 132l132 22l132 -425l132 419h130z" />
    <glyph glyph-name="wcircumflex.sc" horiz-adv-x="913" 
d="M640 647h-83l-95 73l-95 -73h-83l117 161h122zM884 574l-168 -576h-135l-124 423l-127 -423h-134l-165 559l133 26l109 -424l121 415h139l118 -415l105 415h128z" />
    <glyph glyph-name="Wcircumflex.alt" horiz-adv-x="1124" 
d="M728 784h-79l-89 69l-88 -69h-79l109 152h117zM1093 725l-261 -728h-132l-140 368l-141 -368h-129l-259 710l143 26l193 -555l132 347l-66 183l143 25l194 -555l182 547h141z" />
    <glyph glyph-name="wcircumflex.sc_alt" horiz-adv-x="906" 
d="M630 647h-83l-95 73l-95 -73h-83l117 161h122zM882 574l-207 -575h-125l-97 278l-103 -278h-123l-203 559l133 22l147 -424l97 270l-45 132l132 22l132 -425l132 419h130z" />
    <glyph glyph-name="wdieresis.sc" horiz-adv-x="913" 
d="M418 650h-129v127h129v-127zM636 650h-129v127h129v-127zM884 574l-168 -576h-135l-124 423l-127 -423h-134l-165 559l133 26l109 -424l121 415h139l118 -415l105 415h128z" />
    <glyph glyph-name="Wdieresis.alt" horiz-adv-x="1124" 
d="M520 787h-122v121h122v-121zM725 787h-122v121h122v-121zM1093 725l-261 -728h-132l-140 368l-141 -368h-129l-259 710l143 26l193 -555l132 347l-66 183l143 25l194 -555l182 547h141z" />
    <glyph glyph-name="wdieresis.sc_alt" horiz-adv-x="906" 
d="M409 650h-129v127h129v-127zM627 650h-129v127h129v-127zM882 574l-207 -575h-125l-97 278l-103 -278h-123l-203 559l133 22l147 -424l97 270l-45 132l132 22l132 -425l132 419h130z" />
    <glyph glyph-name="wgrave.sc" horiz-adv-x="913" 
d="M516 647h-87l-163 139l160 30zM884 574l-168 -576h-135l-124 423l-127 -423h-134l-165 559l133 26l109 -424l121 415h139l118 -415l105 415h128z" />
    <glyph glyph-name="Wgrave.alt" horiz-adv-x="1124" 
d="M612 784h-82l-154 131l153 28zM1093 725l-261 -728h-132l-140 368l-141 -368h-129l-259 710l143 26l193 -555l132 347l-66 183l143 25l194 -555l182 547h141z" />
    <glyph glyph-name="wgrave.sc_alt" horiz-adv-x="906" 
d="M507 647h-87l-163 139l160 30zM882 574l-207 -575h-125l-97 278l-103 -278h-123l-203 559l133 22l147 -424l97 270l-45 132l132 22l132 -425l132 419h130z" />
    <glyph glyph-name="yacute.sc" horiz-adv-x="593" 
d="M492 786l-163 -139h-86l90 169zM577 574l-217 -357v-217h-133v214l-211 346l134 23l147 -251l140 242h140z" />
    <glyph glyph-name="ycircumflex.sc" horiz-adv-x="593" 
d="M475 647h-83l-95 73l-95 -73h-83l117 161h122zM577 574l-217 -357v-217h-133v214l-211 346l134 23l147 -251l140 242h140z" />
    <glyph glyph-name="ydieresis.sc" horiz-adv-x="593" 
d="M253 650h-129v127h129v-127zM471 650h-129v127h129v-127zM577 574l-217 -357v-217h-133v214l-211 346l134 23l147 -251l140 242h140z" />
    <glyph glyph-name="ygrave.sc" horiz-adv-x="593" 
d="M351 647h-87l-163 139l160 30zM577 574l-217 -357v-217h-133v214l-211 346l134 23l147 -251l140 242h140z" />
    <glyph glyph-name="zacute.sc" horiz-adv-x="567" 
d="M484 786l-163 -139h-86l90 169zM522 0h-479v88l319 385h-282l-16 101h452v-88l-319 -386h310z" />
    <glyph glyph-name="zcaron.sc" horiz-adv-x="567" 
d="M111 808h83l95 -74l95 74h83l-117 -161h-122zM522 0h-479v88l319 385h-282l-16 101h452v-88l-319 -386h310z" />
    <glyph glyph-name="zdotaccent.sc" horiz-adv-x="567" 
d="M355 650h-132v127h132v-127zM522 0h-479v88l319 385h-282l-16 101h452v-88l-319 -386h310z" />
    <glyph glyph-name="ae.sc" horiz-adv-x="870" 
d="M280 233h145v263zM347 574h463v-105h-257v-122h201l17 -103h-218v-139h265v-105h-393v130h-202l-73 -130h-136z" />
    <glyph glyph-name="aeacute.sc" horiz-adv-x="870" 
d="M693 786l-163 -139h-86l90 169zM280 233h145v263zM347 574h463v-105h-257v-122h201l17 -103h-218v-139h265v-105h-393v130h-202l-73 -130h-136z" />
    <glyph glyph-name="oe.sc" horiz-adv-x="853" 
d="M801 0h-428q-155 0 -239.5 78t-84.5 208q0 128 85.5 208t236.5 80h422v-105h-257v-122h201l17 -103h-218v-139h265v-105zM407 467h-36q-89 0 -139 -46.5t-50 -132.5t50.5 -133.5t137.5 -47.5h37v360z" />
    <glyph glyph-name="eth.sc" horiz-adv-x="671" 
d="M32 238l-20 109h91v227h194q155 0 239.5 -78t84.5 -208q0 -128 -86 -208t-236 -80h-196v238h-71zM489 286q0 86 -50.5 133.5t-137.5 47.5h-70v-122h123v-105h-123v-133h68q89 0 139.5 46.5t50.5 132.5z" />
    <glyph glyph-name="thorn.sc" horiz-adv-x="552" 
d="M513 297q0 -92 -64.5 -143t-176.5 -51h-62v-103h-129v574h129v-89h72q108 0 169.5 -49.5t61.5 -138.5zM389 294q0 42 -29.5 65.5t-86.5 23.5h-64v-180h63q117 0 117 91z" />
    <glyph glyph-name="uni0409.alt" horiz-adv-x="1036" 
d="M29 0l282 729h141l103 -266h162q133 0 207.5 -58.5t74.5 -167.5q0 -115 -80.5 -176t-218.5 -61h-117l-206 551l-204 -551h-144zM709 353h-111l94 -243h14q76 0 117 31t41 93q0 119 -155 119z" />
    <glyph glyph-name="uni0431.srb" horiz-adv-x="626" 
d="M504 809l18 -115l-234 -32q-55 -7 -55 -34q0 -13 21.5 -28t88.5 -47q124 -61 180.5 -128.5t56.5 -169.5q0 -118 -76.5 -192t-195.5 -74q-118 0 -188 69.5t-70 178.5q0 161 165 252q-106 59 -106 141q0 118 164 144zM452 252q0 63 -31.5 108.5t-100.5 79.5
q-68 -32 -105 -83.5t-37 -115.5q0 -65 36 -105.5t97 -40.5t101 44t40 113z" />
    <glyph glyph-name="uni0459.alt" horiz-adv-x="838" 
d="M439 0l-141 379l-140 -379h-134l214 544h131l69 -175h138q111 0 168.5 -47t57.5 -134q0 -89 -64 -138.5t-176 -49.5h-123zM565 273h-89l69 -176h17q56 0 86 23.5t30 65.5q0 87 -113 87z" />
    <glyph glyph-name="three.alt" horiz-adv-x="588" 
d="M536 211q0 -102 -73 -163.5t-195 -61.5q-129 0 -227 56l19 114q98 -59 201 -59q68 0 106 30t38 84q0 110 -185 110h-48l-14 86l201 192h-290l-18 111h469v-100l-211 -197q227 -25 227 -202z" />
    <glyph glyph-name="four.alt" horiz-adv-x="666" 
d="M636 152h-113v-152h-122v152h-362v92l335 472l119 -27l-318 -439h227v169l121 26v-195h113v-98z" />
    <glyph glyph-name="zero.osf" horiz-adv-x="651" 
d="M602 286q0 -134 -78 -216t-200 -82q-120 0 -197.5 81.5t-77.5 216.5t77.5 217.5t198.5 82.5t199 -82t78 -218zM470 286q0 86 -39 139t-106 53q-68 0 -106 -52t-38 -140q0 -85 38.5 -137.5t105.5 -52.5q68 0 106.5 52t38.5 138z" />
    <glyph glyph-name="one.osf" horiz-adv-x="403" 
d="M307 0h-132v446l-135 -48l-15 107l167 76h115v-581z" />
    <glyph glyph-name="two.osf" horiz-adv-x="588" 
d="M538 0h-488v100l250 186q45 33 65.5 58t20.5 54q0 35 -25.5 55t-72.5 20q-85 0 -204 -66l-19 112q116 64 241 64q101 0 160 -45.5t59 -123.5q0 -59 -33 -101t-112 -98l-157 -108h299z" />
    <glyph glyph-name="three.osf" horiz-adv-x="579" 
d="M525 42q0 -113 -102 -181.5t-260 -68.5q-67 0 -110 6l-20 120q65 -12 132 -12q103 0 165.5 39.5t62.5 101.5q0 95 -137 95q-42 0 -76 -3l-28 -3v107l46 5q181 22 181 134q0 42 -29 66t-82 24q-99 0 -210 -76l-18 113q112 76 245 76q108 0 167 -51t59 -134
q0 -68 -40.5 -115.5t-103.5 -74.5q158 -29 158 -168z" />
    <glyph glyph-name="three.osf_alt" horiz-adv-x="584" 
d="M299 242h10q109 -4 165.5 -54.5t56.5 -134.5q0 -120 -104 -190.5t-264 -70.5q-67 0 -110 6l-20 120q65 -12 132 -12q104 0 168.5 39.5t64.5 101.5q0 95 -137 95q-45 0 -70 -3l-29 -3l-15 97l220 225h-309l-17 116h487v-101z" />
    <glyph glyph-name="four.osf" horiz-adv-x="676" 
d="M647 0h-118v-188l-127 -20v208h-363v100l332 483h158v-481h118v-102zM403 102v342l-239 -342h239z" />
    <glyph glyph-name="five.osf" horiz-adv-x="595" 
d="M547 80q0 -128 -105 -208t-269 -80q-64 0 -112 8l-19 117q60 -11 128 -11q108 0 175 46.5t67 115.5q0 51 -33 76t-89 25q-53 0 -116 -24l-103 18l16 411h420l17 -116h-328l-7 -200q62 23 134 23q97 0 160.5 -53t63.5 -148z" />
    <glyph glyph-name="six.osf" horiz-adv-x="655" 
d="M499 675q-255 -59 -303 -234q93 49 184 49q102 0 164 -61t62 -172q0 -116 -78 -192t-196 -76q-126 0 -201 84.5t-75 242.5q0 194 115 314.5t309 159.5zM348 383q-81 0 -164 -51v-17q0 -105 39 -162t111 -57q64 0 103 42t39 111q0 134 -128 134z" />
    <glyph glyph-name="seven.osf" horiz-adv-x="590" 
d="M538 467l-301 -675l-128 31l285 630h-344l-18 121h506v-107z" />
    <glyph glyph-name="eight.osf" horiz-adv-x="660" 
d="M52 198q0 124 148 202q-119 63 -119 179q0 89 70.5 146t183.5 57q114 0 180.5 -55.5t66.5 -139.5q0 -108 -123 -182q77 -36 113 -82.5t36 -119.5q0 -92 -76 -155t-203 -63q-132 0 -204.5 61t-72.5 152zM208 582q0 -45 32 -74t119 -62q96 59 96 135q0 46 -32 74t-91 28
t-91.5 -29.5t-32.5 -71.5zM183 203q0 -52 40 -83.5t108 -31.5q64 0 104.5 32.5t40.5 81.5q0 53 -37 85.5t-141 70.5q-115 -60 -115 -155z" />
    <glyph glyph-name="nine.osf" horiz-adv-x="655" 
d="M157 -97q134 30 206.5 85t95.5 139q-92 -46 -184 -46q-103 0 -164.5 61t-61.5 173q0 117 78 193.5t195 76.5q127 0 202 -84.5t75 -242.5q0 -197 -112.5 -313.5t-312.5 -155.5zM309 187q81 0 162 47v25q0 104 -40 161.5t-111 57.5q-62 0 -101.5 -43t-39.5 -111
q0 -137 130 -137z" />
    <glyph glyph-name="comma.alt" horiz-adv-x="288" 
d="M79 160h136q12 -45 12 -78q0 -123 -127 -243l-73 33q66 102 66 194q0 44 -14 94z" />
    <glyph glyph-name="semicolon.alt" horiz-adv-x="298" 
d="M224 382h-144v158h144v-158zM79 159h136q12 -39 12 -77q0 -123 -126 -243l-74 33q66 102 66 194q0 45 -14 93z" />
    <glyph glyph-name="ampersand.sc" horiz-adv-x="605" 
d="M248 80q64 0 109 42l-133 135q-73 -35 -73 -95q0 -37 27.5 -59.5t69.5 -22.5zM609 18l-122 -25l-70 68q-78 -73 -185 -73q-93 0 -147 43t-54 118q0 110 132 171q-53 57 -53 120t46.5 103.5t128.5 40.5q85 0 159 -36l-18 -104q-72 42 -129 42q-33 0 -49.5 -14t-16.5 -38
q0 -20 11 -37.5t38 -44.5l134 -136q16 46 25 123l101 -22q-12 -93 -57 -172z" />
    <glyph glyph-name="quotedblleft.alt" horiz-adv-x="516" 
d="M437 481h-133q-13 40 -13 85q0 118 99 220l71 -32q-40 -82 -40 -166q0 -53 16 -107zM206 481h-133q-13 40 -13 85q0 119 100 220l71 -32q-40 -79 -40 -166q0 -56 15 -107z" />
    <glyph glyph-name="quotedblright.alt" horiz-adv-x="516" 
d="M310 773h133q13 -47 13 -86q0 -117 -100 -220l-71 33q40 79 40 165q0 55 -15 108zM79 773h133q13 -42 13 -86q0 -117 -100 -220l-71 33q40 79 40 165q0 55 -15 108z" />
    <glyph glyph-name="quoteleft.alt" horiz-adv-x="285" 
d="M209 481h-133q-13 40 -13 85q0 119 100 220l71 -32q-40 -79 -40 -166q0 -56 15 -107z" />
    <glyph glyph-name="quoteright.alt" horiz-adv-x="285" 
d="M79 773h133q13 -42 13 -86q0 -117 -100 -220l-71 33q40 79 40 165q0 55 -15 108z" />
    <glyph glyph-name="quotedblbase.alt" horiz-adv-x="518" 
d="M302 160h133q13 -42 13 -86q0 -117 -100 -220l-71 33q40 77 40 165q0 56 -15 108zM71 160h133q14 -45 14 -86q0 -116 -100 -220l-71 33q40 77 40 165q0 52 -16 108z" />
    <glyph glyph-name="quotesinglbase.alt" horiz-adv-x="288" 
d="M71 160h133q14 -45 14 -86q0 -116 -100 -220l-71 33q40 77 40 165q0 52 -16 108z" />
    <glyph glyph-name="guillemotleft.sc" horiz-adv-x="645" 
d="M342 564l-159 -281l152 -270l-94 -20l-202 290l198 281h105zM597 564l-159 -281l152 -270l-95 -20l-201 290l197 281h106z" />
    <glyph glyph-name="guillemotright.sc" horiz-adv-x="645" 
d="M352 282l-198 -282h-105l158 282l-151 269l94 21zM606 282l-197 -282h-106l159 282l-152 269l95 21z" />
    <glyph glyph-name="guilsinglleft.sc" horiz-adv-x="390" 
d="M342 564l-159 -281l152 -270l-94 -20l-202 290l198 281h105z" />
    <glyph glyph-name="guilsinglright.sc" horiz-adv-x="390" 
d="M351 282l-197 -282h-106l159 282l-152 269l94 21z" />
    <glyph glyph-name="slash.sc" horiz-adv-x="481" 
d="M488 610l-411 -701l-96 20l411 701z" />
    <glyph glyph-name="backslash.sc" horiz-adv-x="481" 
d="M500 -71l-96 -20l-411 701l96 20z" />
    <glyph glyph-name="slash.osf" horiz-adv-x="491" 
d="M534 658l-497 -768l-84 20l497 767z" />
    <glyph glyph-name="parenleft.sc" horiz-adv-x="373" 
d="M356 -57l-112 -25q-95 71 -143 153.5t-48 187.5q0 118 66 209t187 147l15 -100q-138 -91 -138 -257q0 -86 41.5 -160t131.5 -155z" />
    <glyph glyph-name="parenright.sc" horiz-adv-x="373" 
d="M17 582l112 25q95 -72 143 -154.5t48 -187.5q0 -118 -66.5 -208.5t-187.5 -147.5l-14 100q138 93 138 257q0 86 -41.5 160.5t-131.5 155.5z" />
    <glyph glyph-name="bracketleft.sc" horiz-adv-x="382" 
d="M344 -95h-267v669h261v-85h-144v-498h138z" />
    <glyph glyph-name="bracketright.sc" horiz-adv-x="382" 
d="M305 -95h-261v86h143v498h-137l-12 85h267v-669z" />
    <glyph glyph-name="braceleft.sc" horiz-adv-x="445" 
d="M408 -95h-130q-132 0 -132 109q0 20 6 58.5t6 57.5q0 72 -90 72h-26l-12 75h38q90 0 90 72q0 19 -6 58t-6 57q0 53 33 81.5t99 28.5h124v-85h-82q-58 0 -58 -43q0 -16 6 -50t6 -53q0 -45 -23 -69t-70 -34v-2q47 -9 70 -32.5t23 -68.5q0 -18 -6 -52t-6 -51q0 -23 13.5 -33
t44.5 -10h75z" />
    <glyph glyph-name="braceright.sc" horiz-adv-x="445" 
d="M37 574h129q66 0 99.5 -28.5t33.5 -80.5q0 -20 -6 -58t-6 -57q0 -72 90 -72h25l13 -76h-38q-90 0 -90 -72q0 -19 6 -58t6 -57q0 -53 -33.5 -81.5t-99.5 -28.5h-123v86h81q31 0 45 9.5t14 32.5q0 16 -6 50.5t-6 53.5q0 44 23 68t70 34v2q-47 10 -70 33t-23 68q0 18 6 52.5
t6 50.5q0 44 -59 44h-74z" />
    <glyph glyph-name="registered.alt" horiz-adv-x="887" 
d="M823 363q0 -167 -106 -272t-274 -105q-169 0 -274 104t-105 271q0 168 105.5 272.5t274.5 104.5t274 -103.5t105 -271.5zM776 362q0 159 -93.5 248.5t-238.5 89.5q-148 0 -240.5 -89.5t-92.5 -248.5q0 -158 93.5 -248t239.5 -90t239 90t93 248zM543 158l-114 152h-38
v-147h-91v413h138q76 0 119.5 -34.5t43.5 -96.5q0 -82 -80 -116l119 -153zM391 505v-127h41q79 0 79 63q0 64 -77 64h-43z" />
    <glyph glyph-name="servicemark.alt" horiz-adv-x="955" 
d="M877 386h-82v272l-111 -275h-73l-111 275v-272h-78v387h112l116 -283l114 283h113v-387zM203 381q-65 0 -123 29l11 75q67 -37 115 -37q25 0 40.5 11t15.5 30q0 20 -14 32t-50 27q-64 27 -88.5 51.5t-24.5 69.5q0 50 37 79.5t95 29.5q62 0 105 -25l-12 -74q-53 32 -95 32
q-25 0 -39 -10t-14 -25q0 -18 13 -29.5t49 -26.5q65 -27 90.5 -53t25.5 -72q0 -54 -37.5 -84t-99.5 -30z" />
    <glyph glyph-name="trademark.alt" horiz-adv-x="958" 
d="M380 702h-130v-316h-85v316h-124v71h328zM890 386h-81v272l-111 -275h-74l-110 275v-272h-78v387h112l116 -283l114 283h112v-387z" />
    <glyph glyph-name="dollar.osf" horiz-adv-x="547" 
d="M167 429q0 -27 20 -44t70 -29l22 137h-1q-56 0 -83.5 -17.5t-27.5 -46.5zM398 160q0 29 -21 47.5t-74 32.5l-26 -154h1q57 0 89 20t31 54zM248 -118l-70 15l17 106q-93 14 -156 46l17 96q75 -42 157 -54l27 164q-94 23 -137 60t-43 100q0 77 60 122t165 45h6l13 83
l71 -15l-12 -74q63 -9 117 -33l-17 -96q-60 29 -119 40l-24 -145q97 -24 141 -63.5t44 -104.5q0 -83 -62 -129.5t-174 -46.5h-2z" />
    <glyph glyph-name="sterling.osf" horiz-adv-x="577" 
d="M64 235v95h103l34 83q36 90 89.5 130.5t141.5 40.5q50 0 101 -11l-18 -108q-45 10 -78 10q-44 0 -69.5 -21.5t-44.5 -67.5l-24 -56h142l14 -95h-196l-55 -133h308l15 -102h-465v73l66 162h-64z" />
    <glyph glyph-name="Euro.osf" horiz-adv-x="623" 
d="M459 235h-218q11 -64 54 -101t108 -37q80 0 155 45l17 -107q-81 -46 -185 -46q-118 0 -190.5 65.5t-85.5 180.5h-79v96h78q13 117 88 185.5t189 68.5q103 0 174 -41l-17 -115q-69 47 -149 47q-65 0 -107 -38.5t-51 -106.5h204z" />
    <glyph glyph-name="yen.osf" horiz-adv-x="620" 
d="M533 150h-165v-150h-127v150h-159v93h140l-207 316l132 20l162 -264l160 259h137l-220 -331h133z" />
    <glyph glyph-name="cent.osf" horiz-adv-x="578" 
d="M180 279q0 -124 92 -157l52 327q-68 -3 -106 -46.5t-38 -123.5zM522 56q-82 -52 -193 -52v-1l-18 -113l-79 18l17 105q-90 21 -142 90.5t-52 174.5q0 130 78 203.5t200 73.5h4l19 114l79 -17l-18 -105q55 -10 101 -36l-17 -113q-52 35 -105 46l-54 -333h1q90 0 165 51z
" />
    <glyph glyph-name="florin.osf" horiz-adv-x="491" 
d="M397 328v-109h-128l-69 -405l-137 -22l70 427h-82l16 109h84l14 85q15 92 64.5 132t143.5 40q33 0 69 -4v-112q-35 5 -55 5q-40 0 -61 -19.5t-28 -63.5l-11 -63h110z" />
    <glyph glyph-name="R_p" horiz-adv-x="1198" 
d="M508 -7l-193 268h-101v-261h-132v712h237q129 0 201 -59t72 -163q0 -70 -39.5 -120t-109.5 -78l204 -274zM212 363h98q72 0 112.5 31t40.5 89q0 59 -38.5 90t-110.5 31h-102v-241zM1019 256q0 70 -29.5 107t-77.5 37q-67 0 -125 -71v-214q48 -22 107 -22q56 0 90.5 42
t34.5 121zM1142 264q0 -133 -66 -201.5t-166 -68.5q-67 0 -123 20v-189l-120 -17v690h99l12 -69q76 80 164 80t144 -63t56 -182z" />
    <glyph glyph-name="numbersign.osf" horiz-adv-x="668" 
d="M275 357l-29 -141h148l27 141h-146zM351 -1l23 123h-144l-23 -128l-81 19l21 109h-102v97h120l26 135h-112l-16 98h146l24 122h84l-23 -122h143l24 127l81 -19l-21 -108h102v-98h-121l-25 -135h112l17 -97h-148l-23 -123h-84z" />
    <glyph glyph-name="paragraph.osf" horiz-adv-x="637" 
d="M550 -189l-97 -15v700h-81v-169l-40 -234q-132 5 -206.5 66.5t-74.5 176.5q0 113 76 176t208 63h215v-764z" />
    <glyph glyph-name="percent.osf" horiz-adv-x="866" 
d="M363 419q0 -77 -45.5 -121t-115.5 -44t-115 44t-45 121t45 121.5t115 44.5t115.5 -44.5t45.5 -121.5zM665 564l-192 -282l-190 -289l-82 19l209 310l174 262zM273 420q0 42 -18 68.5t-53 26.5q-70 0 -70 -96q0 -42 18 -68t53 -26q70 0 70 95zM825 156q0 -77 -45.5 -121
t-115.5 -44t-115.5 44t-45.5 120q0 77 45.5 122t115.5 45t115.5 -44.5t45.5 -121.5zM735 157q0 43 -18 69t-53 26q-70 0 -70 -97q0 -42 18 -67.5t53 -25.5q70 0 70 95z" />
    <glyph glyph-name="plus.osf" horiz-adv-x="675" 
d="M607 234h-216v-212h-110v212h-216v106h216v211h110v-211h216v-106z" />
    <glyph glyph-name="minus.osf" horiz-adv-x="678" 
d="M610 230h-542v111h542v-111z" />
    <glyph glyph-name="divide.osf" horiz-adv-x="678" 
d="M404 433h-130v131h130v-131zM610 234h-542v104h542v-104zM404 8h-130v131h130v-131z" />
    <glyph glyph-name="equal.osf" horiz-adv-x="701" 
d="M612 357h-522v109h522v-109zM612 109h-522v109h522v-109z" />
    <glyph glyph-name="multiply.osf" horiz-adv-x="678" 
d="M518 39l-180 174l-180 -173l-75 74l183 171l-183 171l77 76l180 -173l180 173l75 -74l-183 -171l183 -171z" />
    <glyph glyph-name="less.osf" horiz-adv-x="678" 
d="M594 -7l-523 246v94l523 246v-119l-388 -174l388 -173v-120z" />
    <glyph glyph-name="greater.osf" horiz-adv-x="678" 
d="M607 241l-523 -246v119l388 172l-388 175v120l523 -246v-94z" />
    <glyph glyph-name="zero.tab" horiz-adv-x="600" 
d="M554 356q0 -178 -65.5 -272.5t-187.5 -94.5t-187.5 94.5t-65.5 272.5q0 177 65.5 272t187.5 95t187.5 -95t65.5 -272zM301 622q-129 0 -129 -266q0 -265 129 -265t129 265q0 266 -129 266z" />
    <glyph glyph-name="one.tab" horiz-adv-x="600" 
d="M561 0h-477v108h178v479l-170 -69l-17 108l219 94h92v-612h157z" />
    <glyph glyph-name="two.tab" horiz-adv-x="600" 
d="M553 0h-500v98l267 257q48 45 68 79t20 71q0 49 -32.5 76t-88.5 27q-92 0 -200 -79l-18 116q106 79 237 79q111 0 174 -57t63 -148q0 -63 -31 -113.5t-104 -121.5l-186 -174h313z" />
    <glyph glyph-name="three.tab" horiz-adv-x="600" 
d="M545 197q0 -94 -77.5 -151.5t-195.5 -57.5q-123 0 -230 56l19 112q111 -57 203 -57q70 0 110 29t40 81q0 109 -190 109h-53l-18 105h76q86 0 128 27t42 75q0 42 -33 66.5t-92 24.5q-100 0 -202 -67l-18 109q104 67 235 67q117 0 179.5 -51t62.5 -132q0 -64 -36.5 -106
t-100.5 -62q151 -40 151 -177z" />
    <glyph glyph-name="four.tab" horiz-adv-x="600" 
d="M577 153h-101v-153h-121v153h-324v85l292 475h153v-465h101v-95zM356 248v212l3 121h-2l-62 -109l-142 -224h203z" />
    <glyph glyph-name="five.tab" horiz-adv-x="600" 
d="M547 233q0 -107 -76.5 -174.5t-204.5 -67.5q-123 0 -214 51l18 112q89 -56 194 -56q69 0 111.5 36t42.5 92q0 55 -35 84t-100 29q-63 0 -118 -23l-80 20l28 376h396l18 -108h-308l-14 -170q52 13 100 13q116 0 179 -56.5t63 -157.5z" />
    <glyph glyph-name="six.tab" horiz-adv-x="600" 
d="M455 616q-236 -57 -277 -221q73 51 169 51q98 0 155 -58.5t57 -158.5q0 -109 -70 -174t-180 -65q-120 0 -191 78t-71 223q0 175 102 284t288 152zM169 285q0 -88 38 -142t104 -54q57 0 91 35.5t34 96.5q0 59 -31.5 91t-90.5 32q-79 0 -145 -51v-8z" />
    <glyph glyph-name="seven.tab" horiz-adv-x="600" 
d="M549 609l-290 -622l-129 25l276 585h-347l-17 115h507v-103z" />
    <glyph glyph-name="eight.tab" horiz-adv-x="600" 
d="M556 190q0 -87 -70 -143t-186 -56q-121 0 -190 55.5t-69 139.5q0 110 131 190q-107 60 -107 162q0 83 65 135t170 52q104 0 169 -50.5t65 -130.5q0 -96 -112 -167q134 -66 134 -187zM189 541q0 -41 30.5 -68.5t111.5 -59.5q78 53 78 124q0 43 -30 68.5t-80 25.5
q-51 0 -80.5 -25t-29.5 -65zM429 189q0 48 -36 80.5t-130 67.5q-96 -60 -96 -141q0 -51 37.5 -80t96.5 -29q56 0 92 28t36 74z" />
    <glyph glyph-name="nine.tab" horiz-adv-x="600" 
d="M141 99q104 21 178.5 73t100.5 137q-74 -48 -165 -48q-98 0 -155 59t-57 162q0 112 69.5 178t180.5 66q119 0 190 -78.5t71 -223.5q0 -176 -104.5 -287t-291.5 -149zM432 430q0 87 -38 141.5t-104 54.5q-56 0 -90 -36.5t-34 -99.5q0 -61 31.5 -94t89.5 -33q78 0 145 50
v17z" />
    <glyph glyph-name="period.tab" horiz-adv-x="300" 
d="M218 0h-136v151h136v-151z" />
    <glyph glyph-name="comma.tab" horiz-adv-x="300" 
d="M242 151l-113 -307l-75 16l47 291h141z" />
    <glyph glyph-name="comma.tab_alt" horiz-adv-x="300" 
d="M91 151h129q11 -39 11 -75q0 -118 -122 -233l-68 32q63 97 63 186q0 41 -13 90z" />
    <glyph glyph-name="colon.tab" horiz-adv-x="300" 
d="M218 357h-135v150h135v-150zM218 0h-135v150h135v-150z" />
    <glyph glyph-name="semicolon.tab" horiz-adv-x="300" 
d="M219 357h-135v150h135v-150zM233 150l-113 -306l-75 16l48 290h140z" />
    <glyph glyph-name="semicolon.tab_alt" horiz-adv-x="300" 
d="M220 357h-135v150h135v-150zM86 150h129q11 -39 11 -74q0 -118 -121 -233l-68 32q63 99 63 186q0 38 -14 89z" />
    <glyph glyph-name="twodotleader.tab" horiz-adv-x="600" 
d="M221 0h-134v148h134v-148zM515 0h-134v148h134v-148z" />
    <glyph glyph-name="periodcentered.tab" horiz-adv-x="300" 
d="M218 225h-136v152h136v-152z" />
    <glyph glyph-name="slash.tab" horiz-adv-x="600" 
d="M574 711l-499 -844l-107 22l499 845z" />
    <glyph glyph-name="bar.tab" horiz-adv-x="300" 
d="M202 -124l-105 -15v973l105 16v-974z" />
    <glyph glyph-name="underscore.tab" horiz-adv-x="600" 
d="M600 -109h-598v73h598v-73z" />
    <glyph glyph-name="dollar.tab" horiz-adv-x="600" 
d="M173 530q0 -35 22.5 -57.5t85.5 -42.5l30 189q-6 1 -20 1h-2q-54 0 -85 -24.5t-31 -65.5zM437 193q0 36 -24 62.5t-87 47.5l-34 -213h11q63 0 98.5 27.5t35.5 75.5zM261 -128l-73 16l18 113q-85 12 -161 49l17 107q96 -49 165 -61l36 224q-103 30 -151 76t-48 122
q0 92 63 144t172 52q15 0 23 -1l13 80l73 -17l-11 -71q65 -11 122 -36l-18 -108q-66 34 -125 48l-32 -196q110 -34 156.5 -82.5t46.5 -125.5q0 -100 -69.5 -155t-187.5 -55h-9z" />
    <glyph glyph-name="sterling.tab" horiz-adv-x="600" 
d="M54 298v105h106l45 135q28 87 70 126q62 59 169 59q59 0 107 -17l-17 -111q-38 16 -85 16q-49 0 -78.5 -25.5t-49.5 -82.5l-34 -100h171l16 -105h-222l-63 -191h348l18 -107h-500v86l70 212h-71z" />
    <glyph glyph-name="Euro.tab" horiz-adv-x="600" 
d="M32 405v76h91q24 111 92.5 176.5t178.5 65.5q94 0 167 -45l-18 -106q-39 27 -70.5 39t-73.5 12q-117 0 -155 -142h221l13 -76h-247q-2 -16 -2 -49q0 -29 1 -42h242v-76h-230q36 -149 166 -149q43 0 75.5 11.5t72.5 39.5l17 -100q-82 -51 -180 -51q-116 0 -184 66.5
t-89 182.5h-81l-12 76h85q-1 13 -1 40q0 34 2 51h-81z" />
    <glyph glyph-name="yen.tab" horiz-adv-x="600" 
d="M519 87h-159v-87h-124v87h-151l-11 76h162v75h-158v76h136l-199 382l132 24l155 -329l155 321h134l-212 -398h132l13 -76h-164v-75h159v-76z" />
    <glyph glyph-name="cent.tab" horiz-adv-x="600" 
d="M199 354q0 -116 85 -147l49 306q-63 -3 -98.5 -44t-35.5 -115zM438 703l-16 -97q45 -9 93 -35l-16 -106q-46 32 -98 42l-50 -310h1q85 0 154 48l14 -100q-79 -50 -181 -50h-1l-17 -106l-74 17l16 98q-84 20 -133.5 84.5t-49.5 164.5q0 122 73.5 191t188.5 69h4l17 106z
" />
    <glyph glyph-name="florin.tab" horiz-adv-x="600" 
d="M85 371l16 102h122l11 64q14 92 65.5 137t145.5 45q64 0 110 -12v-106q-54 13 -91 13q-48 0 -72.5 -22.5t-32.5 -70.5l-8 -48h169v-102h-186l-62 -371h-127l61 371h-121z" />
    <glyph glyph-name="numbersign.tab" horiz-adv-x="600" 
d="M246 443l-29 -174h137l29 174h-137zM513 701l-26 -154h96v-105h-113l-29 -172h106l16 -105h-139l-28 -167h-87l27 167h-135l-29 -173l-84 18l25 155h-96v105h114l28 172h-104l-18 105h139l28 167h88l-28 -167h136l29 173z" />
    <glyph glyph-name="paragraph.tab" horiz-adv-x="600" 
d="M512 0h-91v640h-76v-161l-37 -220q-125 4 -195 62t-70 167q0 106 71 165t196 59h202v-712z" />
    <glyph glyph-name="section.tab" horiz-adv-x="600" 
d="M522 280l-95 16q20 33 20 58t-20.5 38.5t-77.5 25.5l-72 16q-86 19 -127 50t-41 92q0 65 52.5 104.5t134.5 39.5q98 0 179 -30l-16 -96q-79 38 -159 38q-35 0 -54.5 -13.5t-19.5 -33.5t17.5 -31.5t60.5 -21.5l98 -21q84 -20 119.5 -48.5t35.5 -80.5q0 -54 -35 -102z
M79 432l96 -16q-21 -33 -21 -59q0 -25 20.5 -38t78.5 -26l72 -16q86 -19 126.5 -49.5t40.5 -91.5q0 -65 -52 -104.5t-135 -39.5q-100 0 -179 30l16 96q81 -38 160 -38q35 0 54.5 13.5t19.5 33.5t-18 31.5t-61 20.5l-97 22q-84 19 -119.5 48t-35.5 81q0 54 34 102z" />
    <glyph glyph-name="degree.tab" horiz-adv-x="600" 
d="M301 327q-89 0 -147 55.5t-58 140.5t58.5 141t146.5 56q89 0 146.5 -56t57.5 -141q0 -86 -57.5 -141t-146.5 -55zM301 643q-52 0 -86.5 -34.5t-34.5 -85.5q0 -53 34 -86t87 -33t87 33t34 86q0 51 -34.5 85.5t-86.5 34.5z" />
    <glyph glyph-name="quotedbl.tab" horiz-adv-x="600" 
d="M259 712l-35 -292l-77 17l-34 275h146zM488 712l-36 -292l-77 17l-35 275h148z" />
    <glyph glyph-name="quotesingle.tab" horiz-adv-x="300" 
d="M224 712l-35 -292l-79 17l-34 275h148z" />
    <glyph glyph-name="plus.tab" horiz-adv-x="600" 
d="M555 305h-202v-198h-105v198h-202v100h202v198h105v-198h202v-100z" />
    <glyph glyph-name="minus.tab" horiz-adv-x="600" 
d="M555 302h-509v106h509v-106z" />
    <glyph glyph-name="divide.tab" horiz-adv-x="600" 
d="M362 493h-123v124h123v-124zM555 306h-509v98h509v-98zM362 93h-123v124h123v-124z" />
    <glyph glyph-name="equal.tab" horiz-adv-x="600" 
d="M546 425h-490v104h490v-104zM546 181h-490v104h490v-104z" />
    <glyph glyph-name="multiply.tab" horiz-adv-x="600" 
d="M454 137l-154 149l-154 -149l-70 70l157 148l-157 147l70 71l154 -150l154 150l71 -71l-157 -147l157 -148z" />
    <glyph glyph-name="less.tab" horiz-adv-x="600" 
d="M540 77l-491 233v90l491 233v-112l-365 -165l365 -166v-113z" />
    <glyph glyph-name="greater.tab" horiz-adv-x="600" 
d="M552 310l-490 -233v112l365 165l-365 166v113l490 -233v-90z" />
    <glyph glyph-name="plusminus.tab" horiz-adv-x="600" 
d="M511 383h-159v-157h-103v157h-159v95h159v158h103v-158h159v-95zM544 81h-487v96h487v-96z" />
    <glyph glyph-name="space.tab" horiz-adv-x="300" 
 />
    <glyph glyph-name="NUL" horiz-adv-x="0" 
 />
    <glyph glyph-name="A.flat" horiz-adv-x="777" 
d="M383 580l-107 -282h214zM29 0l287 728h145l287 -728h-147l-70 186h-296l-69 -186h-137z" />
    </font>
</defs>
</svg>
