<?xml version="1.0" encoding="utf-8"?>
<!-- Generator: Adobe Illustrator 15.0.2, SVG Export Plug-In  -->
<!DOCTYPE svg PUBLIC "-//W3C//DTD SVG 1.1//EN" "http://www.w3.org/Graphics/SVG/1.1/DTD/svg11.dtd" [
	<!ENTITY ns_flows "http://ns.adobe.com/Flows/1.0/">
]>
<svg version="1.1"
	 xmlns="http://www.w3.org/2000/svg" xmlns:xlink="http://www.w3.org/1999/xlink" xmlns:a="http://ns.adobe.com/AdobeSVGViewerExtensions/3.0/"
	 x="0px" y="0px" width="1200px" height="750px" viewBox="0 -0.046875 1200 750" enable-background="new 0 -0.046875 1200 750"
	 xml:space="preserve">
<defs>
</defs>
<g>
	<defs>
		<rect id="SVGID_1_" width="1199.8496094" height="749.90625"/>
	</defs>
	<clipPath id="SVGID_2_">
		<use xlink:href="#SVGID_1_"  overflow="visible"/>
	</clipPath>
	<g clip-path="url(#SVGID_2_)">
		<image overflow="visible" width="1200" height="750" xlink:href="FC2652BF.jpg"  transform="matrix(0.999875 0 0 0.9998749 0 0)">
		</image>
	</g>
</g>
<polyline fill="none" stroke="#516689" stroke-miterlimit="10" points="899,161.453125 1029.5,161.453125 1029.5,291.453125 
	1094.5,291.453125 1094.5,356.953125 "/>
<polyline fill="none" stroke="#516689" stroke-miterlimit="10" points="314.5,95.953125 314.5,161.453125 184.5,161.453125 
	184.5,226.453125 250,226.453125 "/>
<polyline fill="none" stroke="#516689" stroke-miterlimit="10" points="184,681.453125 249.5,681.453125 249.5,616.453125 
	184.5,616.453125 184.5,551.453125 250,551.453125 315,551.453125 "/>
<polyline fill="none" stroke="#516689" stroke-miterlimit="10" points="899.5,486.953125 899.5,551.453125 964.5,551.453125 
	964.5,616.453125 1029.5,616.453125 1029.5,681.453125 1094.5,681.453125 1094.5,551.953125 "/>
<rect x="312.5" y="159.203125" fill="#FFFFFF" width="4" height="4"/>
<rect x="247.5" y="159.203125" fill="#FFFFFF" width="4" height="4"/>
<rect x="182.5" y="159.4692383" fill="#FFFFFF" width="4" height="4"/>
<rect x="182.5" y="224.453125" fill="#FFFFFF" width="4" height="4"/>
<rect x="247.5" y="224.453125" fill="#FFFFFF" width="4" height="4"/>
<rect x="313" y="549.453125" fill="#FFFFFF" width="4" height="4"/>
<rect x="897.5" y="549.453125" fill="#FFFFFF" width="4" height="4"/>
<rect x="962.5" y="549.453125" fill="#FFFFFF" width="4" height="4"/>
<rect x="962.5" y="614.453125" fill="#FFFFFF" width="4" height="4"/>
<rect x="1027.4169922" y="614.453125" fill="#FFFFFF" width="4" height="4"/>
<rect x="1027.4169922" y="679.453125" fill="#FFFFFF" width="4" height="4"/>
<rect x="1092.5" y="679.453125" fill="#FFFFFF" width="4" height="4"/>
<rect x="1092.5" y="614.453125" fill="#FFFFFF" width="4" height="4"/>
<rect x="1092.5" y="549.453125" fill="#FFFFFF" width="4" height="4"/>
<rect x="897.5" y="484.203125" fill="#FFFFFF" width="4" height="4"/>
<rect x="1092.5" y="354.953125" fill="#FFFFFF" width="4" height="4"/>
<rect x="1092.5" y="289.203125" fill="#FFFFFF" width="4" height="4"/>
<rect x="1027.5" y="289.203125" fill="#FFFFFF" width="4" height="4"/>
<rect x="1027.5" y="224.453125" fill="#FFFFFF" width="4" height="4"/>
<rect x="1027.5" y="159.453125" fill="#FFFFFF" width="4" height="4"/>
<rect x="962.25" y="159.453125" fill="#FFFFFF" width="4" height="4"/>
<rect x="897" y="159.453125" fill="#FFFFFF" width="4" height="4"/>
<rect x="247.5" y="549.453125" fill="#FFFFFF" width="4" height="4"/>
<rect x="182.625" y="549.453125" fill="#FFFFFF" width="4" height="4"/>
<rect x="182.625" y="614.453125" fill="#FFFFFF" width="4" height="4"/>
<rect x="312.5" y="93.203125" fill="#FFFFFF" width="4" height="4"/>
<rect x="247.5" y="614.453125" fill="#FFFFFF" width="4" height="4"/>
<rect x="247.5" y="679.453125" fill="#FFFFFF" width="4" height="4"/>
<rect x="182.5830078" y="679.453125" fill="#FFFFFF" width="4" height="4"/>
</svg>
