<svg id="Слой_1" xmlns="http://www.w3.org/2000/svg" xmlns:xlink="http://www.w3.org/1999/xlink" width="288" height="188" viewBox="0 0 288 188">
  <g id="menu-icon-4">
    <g id="page4">
      <path fill="#061239" d="M250.892 162.044c0 3.567-2.686 6.46-5.997 6.46h-85.617c-3.312 0-5.997-2.893-5.997-6.46V84.93c0-3.57 2.687-6.46 5.998-6.46h85.617c3.312 0 5.997 2.89 5.997 6.46v77.114z"/>
      <path fill="none" stroke="#394160" stroke-width="1.25" stroke-miterlimit="10" d="M250.892 162.044c0 3.567-2.686 6.46-5.997 6.46h-85.617c-3.312 0-5.997-2.893-5.997-6.46V84.93c0-3.57 2.687-6.46 5.998-6.46h85.617c3.312 0 5.997 2.89 5.997 6.46v77.114z" opacity=".5"/>
    </g>
    <g id="page3">
      <path fill="#061239" d="M258.433 157.287c0 3.603-2.685 6.524-5.997 6.524H166.82c-3.313 0-5.997-2.92-5.997-6.523V79.405c0-3.604 2.685-6.525 5.996-6.525h85.616c3.313 0 5.997 2.92 5.997 6.525v77.882z"/>
      <path fill="none" stroke="#394160" stroke-width="1.25" stroke-miterlimit="10" d="M258.433 156.456c0 3.567-2.685 6.46-5.997 6.46H166.82c-3.313 0-5.997-2.893-5.997-6.46V79.34c0-3.567 2.685-6.46 5.996-6.46h85.616c3.313 0 5.997 2.893 5.997 6.46v77.116z" opacity=".7"/>
    </g>
    <g id="page2">
      <path fill="#061239" d="M265.978 149.99c0 3.57-2.892 6.46-6.46 6.46h-92.235c-3.568 0-6.46-2.89-6.46-6.46V72.877c0-3.568 2.892-6.46 6.46-6.46h92.235c3.568 0 6.46 2.892 6.46 6.46v77.115z"/>
      <path fill="none" stroke="#394160" stroke-width="1.25" stroke-miterlimit="10" d="M265.978 149.99c0 3.57-2.892 6.46-6.46 6.46h-92.235c-3.568 0-6.46-2.89-6.46-6.46V72.877c0-3.568 2.892-6.46 6.46-6.46h92.235c3.568 0 6.46 2.892 6.46 6.46v77.115z"/>
      <path fill="none" stroke="#394160" stroke-width="1.25" stroke-miterlimit="10" d="M196.71 66.54v-9.055c0-1.017.92-1.842 2.052-1.842h29.276c1.132 0 2.05.825 2.05 1.842v9.056"/>
      <path fill="none" stroke="#394160" stroke-width="1.25" stroke-miterlimit="10" d="M200.86 66.49v-5.433c0-.61.69-1.104 1.54-1.104H224.4c.852 0 1.54.494 1.54 1.104v5.432M168.846 63.6h17.406v2.816h-17.406zM241.027 63.6h17.405v2.816h-17.405z"/>
    </g>
    <g id="lines2" fill="none" stroke="#394160" stroke-width="1.25" stroke-miterlimit="10">
      <path d="M189.296 105.772h48.81M193.755 113.313h39.892M195.773 120.854h35.856M189.296 128.396h48.81M192.678 135.938h42.047M189.296 143.48h48.81"/>
    </g>
    <g id="image3">
      <image overflow="visible" width="483" height="366" xlink:href="992C169B.png" transform="matrix(.24 0 0 .24 155.54 42.78)"/>
      <path fill="#055BFA" d="M235.263 93.583c0 .55-.45 1-1 1h-41.726c-.55 0-1-.45-1-1V79.777c0-.55.45-1 1-1h41.726c.55 0 1 .45 1 1v13.806z"/>
      <path fill="none" stroke="#488DF9" stroke-width="1.25" stroke-miterlimit="10" d="M235.263 93.583c0 .55-.45 1-1 1h-41.726c-.55 0-1-.45-1-1V79.777c0-.55.45-1 1-1h41.726c.55 0 1 .45 1 1v13.806z"/>
    </g>
    <g id="page1">
      <path fill="#061239" d="M176.293 163.673l-4.814 8.346-9.31 7.075-12.236 1.687-82.884-18.388V32.98l109.243-11.508z"/>
      <path fill="none" stroke="#394160" stroke-width="1.25" stroke-miterlimit="10" d="M154.56 180.408c12.185 0 21.632-10.156 21.632-22.342M22.503 158.066c0 12.185 9.878 22.342 22.064 22.342 12.185 0 22.063-10.157 22.063-22.342M220.067 35.035c0-12.185-9.877-22.75-22.063-22.75M110.533 34.347c0-12.185-9.878-22.064-22.064-22.064s-21.84 9.88-21.84 22.064M176.19 158.066l.498-123.718h-66.805M66.63 34.347v123.72M176.19 34.347h43.88M22.178 158.066h43.878M198.005 12.283H86.143M159.703 180.408H49.12"/>
    </g>
    <g id="image1">
      <image overflow="visible" width="408" height="444" xlink:href="992C169E.png" transform="matrix(.24 0 0 .24 53.1 30.93)"/>
      <path fill="#055BFA" d="M114.812 100.46c0 .552-.45 1-1 1H90.104c-.55 0-1-.448-1-1V67.93c0-.55.45-1 1-1h23.708c.55 0 1 .45 1 1v32.53z"/>
      <path fill="none" stroke="#488DF9" stroke-width="1.25" stroke-miterlimit="10" d="M114.812 100.46c0 .552-.45 1-1 1H90.104c-.55 0-1-.448-1-1V67.93c0-.55.45-1 1-1h23.708c.55 0 1 .45 1 1v32.53z"/>
    </g>
    <g id="lines" fill="none" stroke="#394160" stroke-width="1.25" stroke-miterlimit="10">
      <path d="M123.49 66.93h31.636M123.49 75.883h31.636M123.49 84.835h31.636M123.49 101.46h31.636M123.49 92.51h31.636M123.49 116.808h31.636M123.49 125.76h31.636M123.49 134.713h31.636M123.49 142.386h31.636M123.49 151.338h31.636"/>
    </g>
    <g id="image2">
      <image overflow="visible" width="408" height="444" xlink:href="992C169D.png" transform="matrix(.24 0 0 .24 53.1 80.81)"/>
      <path fill="#055BFA" d="M114.812 150.338c0 .55-.45 1-1 1H90.104c-.55 0-1-.45-1-1v-32.53c0-.55.45-1 1-1h23.708c.55 0 1 .45 1 1v32.53z"/>
      <path fill="none" stroke="#488DF9" stroke-width="1.25" stroke-miterlimit="10" d="M114.812 150.338c0 .55-.45 1-1 1H90.104c-.55 0-1-.45-1-1v-32.53c0-.55.45-1 1-1h23.708c.55 0 1 .45 1 1v32.53z"/>
    </g>
  </g>
</svg>
