<svg id="Слой_1" xmlns="http://www.w3.org/2000/svg" xmlns:xlink="http://www.w3.org/1999/xlink" width="317" height="219.667" viewBox="0 0 317 219.667">
  <g id="menu-icon-7">
    <path fill="none" stroke="#394160" stroke-width="1.25" stroke-miterlimit="10" d="M200.126 185.346c0 1.355-1.39 2.455-3.104 2.455h-93.095c-1.713 0-3.103-1.1-3.103-2.454V34.14c0-1.357 1.39-2.456 3.103-2.456h93.095c1.714 0 3.104 1.1 3.104 2.455v151.206z" opacity=".5" id="page3"/>
    <path fill="none" stroke="#394160" stroke-width="1.25" stroke-miterlimit="10" d="M222.575 185.346c0 1.355-1.39 2.455-3.103 2.455h-93.095c-1.713 0-3.103-1.1-3.103-2.454V34.14c0-1.357 1.39-2.456 3.103-2.456h93.095c1.714 0 3.103 1.1 3.103 2.455v151.206z" opacity=".5" id="page2"/>
    <g id="page1">
      <path fill="#061239" d="M211.35 198.93c0 1.6-1.388 2.896-3.103 2.896h-93.095c-1.713 0-3.103-1.297-3.103-2.896V20.554c0-1.6 1.39-2.896 3.102-2.896h93.095c1.715 0 3.104 1.297 3.104 2.896V198.93z"/>
      <path fill="none" stroke="#394160" stroke-width="1.25" stroke-miterlimit="10" d="M211.35 198.93c0 1.6-1.388 2.896-3.103 2.896h-93.095c-1.713 0-3.103-1.297-3.103-2.896V20.554c0-1.6 1.39-2.896 3.102-2.896h93.095c1.715 0 3.104 1.297 3.104 2.896V198.93z"/>
      <path fill="none" stroke="#394160" stroke-width="1.25" stroke-miterlimit="10" d="M200.693 170.67c0 1.2-1.09 2.176-2.438 2.176h-73.112c-1.346 0-2.437-.975-2.437-2.177V36.59c0-1.2 1.09-2.176 2.437-2.176h73.112c1.347 0 2.438.975 2.438 2.177v134.08z"/>
      <path fill="#055BFA" d="M188.353 150.526c0 .55-.45 1-1 1h-51.306c-.55 0-1-.45-1-1v-11.84c0-.55.45-1 1-1h51.306c.55 0 1 .45 1 1v11.84z"/>
      <path fill="none" stroke="#488DF9" stroke-width="1.25" stroke-miterlimit="10" d="M188.353 150.526c0 .55-.45 1-1 1h-51.306c-.55 0-1-.45-1-1v-11.84c0-.55.45-1 1-1h51.306c.55 0 1 .45 1 1v11.84z"/>
      <g id="text1">
        <path fill="none" stroke="#394160" stroke-width="1.25" stroke-miterlimit="10" d="M140.937 63.98h41.527M140.937 52.755h41.527M140.937 75.206h41.527M140.937 86.43h41.527M140.937 97.655h41.527M140.937 108.88h41.527" opacity=".6"/>
        <g opacity=".6">
          <defs>
            <path id="SVGID_1_" d="M140.937 119.48h41.526v1.25h-41.526z"/>
          </defs>
          <clipPath id="SVGID_2_">
            <use xlink:href="#SVGID_1_" overflow="visible"/>
          </clipPath>
          <path clip-path="url(#SVGID_2_)" fill="none" stroke="#394160" stroke-width="1.25" stroke-miterlimit="10" d="M140.937 120.105h41.527"/>
        </g>
        <circle fill="none" stroke="#394160" stroke-width="1.25" stroke-miterlimit="10" cx="161.7" cy="187.801" r="7.479"/>
        <path fill="none" stroke="#FFF" stroke-width="1.25" stroke-miterlimit="10" d="M147.174 144.8h29.053"/>
        <path fill="none" stroke="#394160" stroke-width="1.25" stroke-miterlimit="10" d="M149.5 25.698h24.4"/>
      </g>
    </g>
    <g id="right">
      <image overflow="visible" width="688" height="429" xlink:href="D361C266.png" transform="matrix(.24 0 0 .24 144.87 94.53)"/>
      <path fill="#061239" d="M273.906 159.713c0 .268-1.302.484-2.906.484h-87.224c-1.604 0-2.907-.217-2.907-.484v-29.82c0-.268 1.302-.484 2.906-.484H271c1.604 0 2.906.216 2.906.483v29.82z"/>
      <path fill="none" stroke="#394160" stroke-width="1.25" stroke-miterlimit="10" d="M273.906 159.713c0 .268-1.302.484-2.906.484h-87.224c-1.604 0-2.907-.217-2.907-.484v-29.82c0-.268 1.302-.484 2.906-.484H271c1.604 0 2.906.216 2.906.483v29.82z"/>
      <path fill="#061239" d="M298.376 142.752c0 11.41-9.25 20.66-20.66 20.66s-20.66-9.25-20.66-20.66 9.25-20.66 20.66-20.66 20.66 9.25 20.66 20.66"/>
      <g fill="none" stroke="#394160" stroke-width="1.25" stroke-miterlimit="10">
        <path d="M277.716 136.22c8.423 0 15.535 7.372 17.825 17.483 1.964-3.19 3.117-6.932 3.117-10.95 0-11.566-9.376-20.942-20.94-20.942s-20.942 9.377-20.942 20.942c0 4.02 1.153 7.762 3.116 10.95 2.29-10.11 9.403-17.483 17.826-17.483z"/>
        <path d="M277.716 163.693c7.545 0 14.14-4.005 17.825-9.99-2.29-10.11-9.4-17.484-17.824-17.484s-15.535 7.372-17.825 17.483c3.687 5.985 10.28 9.99 17.826 9.99z"/>
      </g>
      <path fill="#061239" d="M276.72 141.4c-5.5 0-10-4.5-10-10v-11.66c0-5.5 4.5-10 10-10h1.992c5.5 0 10 4.5 10 10v11.66c0 5.5-4.5 10-10 10h-1.99z"/>
      <path fill="none" stroke="#394160" stroke-width="1.25" stroke-miterlimit="10" d="M276.72 141.4c-5.5 0-10-4.5-10-10v-11.66c0-5.5 4.5-10 10-10h1.992c5.5 0 10 4.5 10 10v11.66c0 5.5-4.5 10-10 10h-1.99z"/>
      <path fill="#394160" d="M272.438 126.99c-.51 0-.925-.515-.925-1.145s.416-1.145.925-1.145.925.515.925 1.145-.417 1.145-.925 1.145M283.328 126.99c-.51 0-.925-.515-.925-1.145s.416-1.145.925-1.145.925.515.925 1.145-.416 1.145-.925 1.145"/>
      <path fill="#061239" d="M266.72 120.865s1.928-3.04 7.63-3.32c2.32-.114 5.048 2.447 7.502 2.916 3.574.682 6.563-.562 6.86-.107"/>
      <path fill="none" stroke="#394160" stroke-miterlimit="10" d="M266.72 120.865s1.928-3.04 7.63-3.32c2.32-.114 5.048 2.447 7.502 2.916 3.574.682 6.563-.562 6.86-.107M281.206 132.763c0 2.2-.942 2.86-3.49 2.86-2.547 0-3.49-.66-3.49-2.86M283.307 141.506c0 3.088-2.503 5.59-5.59 5.59s-5.592-2.502-5.592-5.59 2.503.02 5.59.02 5.592-3.108 5.592-.02z"/>
      <g id="text3">
        <path fill="none" stroke="#394160" stroke-width="1.25" stroke-miterlimit="10" d="M192.268 140.404h41.527M192.268 150.507h51.05" opacity=".6"/>
      </g>
    </g>
    <g id="left">
      <image overflow="visible" width="688" height="429" xlink:href="D361C26A.png" transform="matrix(.24 0 0 .24 20.46 27.41)"/>
      <path fill="#061239" d="M149.5 93.71c0 .268-1.302.485-2.907.485H59.37c-1.605 0-2.907-.217-2.907-.484V63.89c0-.266 1.302-.483 2.907-.483h87.223c1.605 0 2.907.217 2.907.484v29.82z"/>
      <path fill="none" stroke="#394160" stroke-width="1.25" stroke-miterlimit="10" d="M149.5 93.71c0 .268-1.302.485-2.907.485H59.37c-1.605 0-2.907-.217-2.907-.484V63.89c0-.266 1.302-.483 2.907-.483h87.223c1.605 0 2.907.217 2.907.484v29.82z"/>
      <path fill="#061239" d="M65.087 76.75c0 11.41-9.25 20.66-20.66 20.66s-20.66-9.25-20.66-20.66 9.25-20.66 20.66-20.66 20.66 9.25 20.66 20.66"/>
      <g fill="none" stroke="#394160" stroke-width="1.25" stroke-miterlimit="10">
        <path d="M44.427 70.217c8.423 0 15.535 7.373 17.825 17.484 1.963-3.188 3.116-6.93 3.116-10.95 0-11.565-9.376-20.94-20.94-20.94s-20.942 9.375-20.942 20.94c0 4.02 1.153 7.762 3.116 10.95 2.29-10.11 9.402-17.483 17.825-17.483z"/>
        <path d="M44.427 97.69c7.546 0 14.14-4.003 17.825-9.99-2.29-10.11-9.402-17.483-17.825-17.483S28.892 77.59 26.602 87.7c3.686 5.987 10.28 9.99 17.825 9.99z"/>
      </g>
      <path fill="#061239" d="M43.432 75.398c-5.5 0-10-4.5-10-10V53.74c0-5.5 4.5-10 10-10h1.99c5.5 0 10 4.5 10 10v11.658c0 5.5-4.5 10-10 10h-1.99z"/>
      <path fill="none" stroke="#394160" stroke-width="1.25" stroke-miterlimit="10" d="M43.432 75.398c-5.5 0-10-4.5-10-10V53.74c0-5.5 4.5-10 10-10h1.99c5.5 0 10 4.5 10 10v11.658c0 5.5-4.5 10-10 10h-1.99z"/>
      <path fill="#394160" d="M39.15 60.99c-.51 0-.926-.516-.926-1.146s.416-1.145.925-1.145c.508 0 .924.514.924 1.144s-.416 1.145-.925 1.145M50.04 60.99c-.51 0-.925-.516-.925-1.146s.416-1.145.925-1.145c.51 0 .925.514.925 1.144s-.417 1.145-.925 1.145"/>
      <path fill="#061239" d="M33.432 55.986s1.927-3.04 7.628-3.32c2.32-.115 5.05 2.447 7.503 2.915 3.574.682 6.564-.56 6.86-.107"/>
      <path fill="none" stroke="#394160" stroke-miterlimit="10" d="M33.432 55.986s1.927-3.04 7.628-3.32c2.32-.115 5.05 2.447 7.503 2.915 3.574.682 6.564-.56 6.86-.107M50.018 75.504c0 3.088-2.503 6.714-5.59 6.714-3.09 0-5.592-3.626-5.592-6.714s2.503.02 5.59.02c3.09 0 5.592-3.108 5.592-.02zM41.487 69.543h5.983"/>
      <g id="text2">
        <path fill="none" stroke="#394160" stroke-width="1.25" stroke-miterlimit="10" d="M76.842 84.505h51.05M76.842 74.402h41.527" opacity=".6"/>
      </g>
    </g>
  </g>
</svg>
