<svg id="Слой_1" xmlns="http://www.w3.org/2000/svg" xmlns:xlink="http://www.w3.org/1999/xlink" width="282.667" height="222.333" viewBox="0 0 282.667 222.333">
  <g id="menu-icon-8">
    <g id="page3">
      <path fill="#061239" d="M236.585 210.4c0 1.468-2.6 2.656-5.807 2.656H56.562c-3.207 0-5.807-1.188-5.807-2.655V46.9c0-1.467 2.6-2.655 5.807-2.655h174.216c3.207 0 5.807 1.188 5.807 2.655V210.4z"/>
      <path fill="none" stroke="#394160" stroke-width="1.25" stroke-miterlimit="10" d="M236.585 210.4c0 1.468-2.6 2.656-5.807 2.656H56.562c-3.207 0-5.807-1.188-5.807-2.655V46.9c0-1.467 2.6-2.655 5.807-2.655h174.216c3.207 0 5.807 1.188 5.807 2.655V210.4z" opacity=".3"/>
    </g>
    <g id="page2">
      <path fill="#061239" d="M243.188 202.366c0 1.507-2.785 2.728-6.22 2.728H50.37c-3.434 0-6.22-1.22-6.22-2.728V34.313c0-1.507 2.786-2.728 6.22-2.728h186.6c3.434 0 6.22 1.22 6.22 2.728v168.053z"/>
      <path fill="none" stroke="#394160" stroke-width="1.25" stroke-miterlimit="10" d="M243.188 202.366c0 1.507-2.785 2.728-6.22 2.728H50.37c-3.434 0-6.22-1.22-6.22-2.728V34.313c0-1.507 2.786-2.728 6.22-2.728h186.6c3.434 0 6.22 1.22 6.22 2.728v168.053z" opacity=".5"/>
    </g>
    <g id="page1">
      <path fill="#061239" d="M254.995 194.272c0 1.435-3.114 2.6-6.958 2.6H39.3c-3.842 0-6.957-1.165-6.957-2.6V34.182c0-1.434 3.115-2.598 6.958-2.598h208.737c3.844 0 6.958 1.164 6.958 2.6V194.27z"/>
      <g opacity=".7">
        <defs>
          <path id="SVGID_1_" d="M31.72 30.96h223.9v166.536H31.72z"/>
        </defs>
        <clipPath id="SVGID_2_">
          <use xlink:href="#SVGID_1_" overflow="visible"/>
        </clipPath>
        <path clip-path="url(#SVGID_2_)" fill="none" stroke="#394160" stroke-width="1.25" stroke-miterlimit="10" d="M254.995 194.272c0 1.435-3.114 2.6-6.958 2.6H39.3c-3.842 0-6.957-1.165-6.957-2.6V34.182c0-1.434 3.115-2.598 6.958-2.598h208.737c3.844 0 6.958 1.164 6.958 2.6V194.27z"/>
      </g>
      <path fill="#061239" d="M60.617 151.503l.227-141.705-10.75 9.264 1.52 155.292z"/>
      <path fill="#061239" d="M237.72 19.062l-10.75-9.264.227 141.705 9 22.845-4.296-10.85H143.98c.89-15.373 30.642-12.592 54.277-11.082 15.713 1.004 28.713-.913 28.713-.913V9.1s-30.765 3.568-56.04.812c-21.503-2.344-26.814 3.594-26.993 10.865-.01.395-.02.81-.028 1.224-.01-.413-.02-.828-.027-1.223-.18-7.27-5.49-13.21-26.992-10.865C91.61 12.668 60.846 9.1 60.846 9.1v142.403s13 1.917 28.713.913c23.635-1.51 53.387-4.29 54.276 11.082H55.914l-5.304 13.396s73.368.894 79.36.894c0-11.064 11.526-13.78 13.87-14.218.012.212.04.413.04.63 0 0 0-.224.004-.638.007 0 .016-.003.022-.005l.023.005.004.64c0-.22.027-.42.038-.632 2.345.438 13.87 3.153 13.87 14.218 5.993 0 79.36-.894 79.36-.894l-1.004-2.538 1.52-155.294zm-93.814 141.335c.01 1.414.02 2.468.023 3.1h-.047c.006-.632.013-1.685.023-3.1M143.906 160.396V22v138.396z"/>
      <path fill="none" stroke="#394160" stroke-width="1.25" stroke-miterlimit="10" d="M60.617 151.503l.227-141.705-10.75 9.264 1.52 155.292z"/>
      <path fill="none" stroke="#394160" stroke-width="1.25" stroke-miterlimit="10" d="M237.72 19.062l-10.75-9.264.227 141.705 9 22.845-4.296-10.85H143.98c.89-15.373 30.642-12.592 54.277-11.082 15.713 1.004 28.713-.913 28.713-.913V9.1s-30.765 3.568-56.04.812c-21.503-2.344-26.814 3.594-26.993 10.865-.01.395-.02.81-.028 1.224-.01-.413-.02-.828-.027-1.223-.18-7.27-5.49-13.21-26.992-10.865C91.61 12.668 60.846 9.1 60.846 9.1v142.403s13 1.917 28.713.913c23.635-1.51 53.387-4.29 54.276 11.082H55.914l-5.304 13.396s73.368.894 79.36.894c0-11.064 11.526-13.78 13.87-14.218.012.212.04.413.04.63 0 0 0-.224.004-.638.007 0 .016-.003.022-.005l.023.005.004.64c0-.22.027-.42.038-.632 2.345.438 13.87 3.153 13.87 14.218 5.993 0 79.36-.894 79.36-.894l-1.004-2.538 1.52-155.294zm-93.814 141.335c.01 1.414.02 2.468.023 3.1h-.047c.006-.632.013-1.685.023-3.1zM143.906 22v138.396"/>
    </g>
    <g id="text" fill="none" stroke="#394160" stroke-width="1.25" stroke-miterlimit="10">
      <path d="M98.022 30.357h31.312M152.452 30.357h66.226M98.022 39.218h31.312M98.022 48.08h31.312M187.365 39.218h31.313M187.365 48.08h31.313M187.365 56.94h31.313M187.365 64.535h31.313M187.365 73.396h31.313M71.982 56.94h57.35M71.982 65.8h57.35M71.982 74.66h57.35M71.982 83.522h57.35M71.982 92.383h57.35M71.982 101.244h57.35M71.982 110.104h57.35M71.982 118.965h57.35M71.982 127.826h57.35M71.982 136.687h57.35M184.522 83.522H153.21M184.522 92.383H153.21M184.522 101.244H153.21M184.522 110.104H153.21M218.678 127.826H153.21M218.678 136.687H153.21M184.522 118.965H153.21"/>
    </g>
    <path fill="#FFF" d="M83.5 27.507l6.708 17.868 1.642.557v1.084h-6.847V45.96l2.477-.67-1.586-4.313H78.77L77.32 45.29l2.81.613v1.113h-6.874v-1.113l1.976-.584 5.622-14.78c.186-.463.362-.923.53-1.377.166-.455.324-.94.472-1.462l1.503-.25.14.057zm-2.894 8.238l-1.364 3.84h6.15l-1.363-3.84-1.67-4.73h-.14l-1.614 4.73z" id="char"/>
    <g id="images">
      <image overflow="visible" width="404" height="443" xlink:href="34B539A7.png" transform="matrix(.24 0 0 .24 157.84 47.52)"/>
      <image overflow="visible" width="407" height="443" xlink:href="34B539A5.png" transform="matrix(.24 0 0 .24 117.33 3.22)"/>
      <path fill="#055BFA" d="M178.775 72.396c0 .55-.45 1-1 1H154.33c-.55 0-1-.45-1-1V40.22c0-.55.45-1 1-1h23.445c.55 0 1 .45 1 1v32.176zM193.112 116.7c0 .55.45 1 1 1h23.445c.55 0 1-.45 1-1V84.52c0-.55-.45-1-1-1h-23.445c-.55 0-1 .45-1 1V116.7z"/>
      <path fill="none" stroke="#488DF9" stroke-width="1.25" stroke-miterlimit="10" d="M178.775 72.396c0 .55-.45 1-1 1H154.33c-.55 0-1-.45-1-1V40.22c0-.55.45-1 1-1h23.445c.55 0 1 .45 1 1v32.176zM193.112 116.7c0 .55.45 1 1 1h23.445c.55 0 1-.45 1-1V84.52c0-.55-.45-1-1-1h-23.445c-.55 0-1 .45-1 1V116.7z"/>
    </g>
  </g>
</svg>
