<svg width="198" height="170" viewBox="0 0 198 170">
  <g id="menu-icon-6">
    <g id="page4">
      <path fill="#001953" d="M141.45 39.96c27.228 0 49.302 22.074 49.302 49.303 0 11.893-4.212 22.802-11.224 31.317l4.82 17.986-20.363-5.457c-6.757 3.48-14.413 5.456-22.536 5.456-27.23 0-49.304-22.074-49.304-49.304 0-27.227 22.075-49.302 49.303-49.302"/>
      <path fill="none" stroke="#143b88" stroke-width="1.25" stroke-miterlimit="10" d="M141.45 39.96c27.228 0 49.302 22.074 49.302 49.303 0 11.893-4.212 22.802-11.224 31.317l4.82 17.986-20.363-5.457c-6.757 3.48-14.413 5.456-22.536 5.456-27.23 0-49.304-22.074-49.304-49.304 0-27.227 22.075-49.302 49.303-49.302z"/>
      <g id="points">
        <path fill="#055BFA" d="M172.976 90.226c0 3.267-2.648 5.914-5.914 5.914-3.268 0-5.915-2.647-5.915-5.914 0-3.266 2.647-5.914 5.915-5.914 3.265 0 5.914 2.648 5.914 5.914"/>
        <circle fill="none" stroke="#488DF9" stroke-width="1.25" stroke-miterlimit="10" cx="167.061" cy="90.226" r="5.915"/>
        <path fill="#055BFA" d="M154.01 90.226c0 3.267-2.647 5.914-5.913 5.914-3.268 0-5.915-2.647-5.915-5.914 0-3.266 2.647-5.914 5.915-5.914 3.265 0 5.914 2.648 5.914 5.914"/>
        <circle fill="none" stroke="#488DF9" stroke-width="1.25" stroke-miterlimit="10" cx="148.096" cy="90.226" r="5.915"/>
        <path fill="#055BFA" d="M135.046 90.226c0 3.267-2.648 5.914-5.914 5.914-3.268 0-5.915-2.647-5.915-5.914 0-3.266 2.647-5.914 5.915-5.914 3.265 0 5.914 2.648 5.914 5.914"/>
        <circle fill="none" stroke="#488DF9" stroke-width="1.25" stroke-miterlimit="10" cx="129.131" cy="90.226" r="5.915"/>
      </g>
    </g>
    <g id="page3">
      <path fill="#001953" d="M106.508 75.742c0 27.23-22.074 49.303-49.303 49.303-27.23 0-49.304-22.074-49.304-49.303S29.976 26.44 57.206 26.44c27.23-.002 49.303 22.073 49.303 49.302"/>
      <circle fill="none" stroke="#143b88" stroke-width="1.25" stroke-miterlimit="10" cx="57.204" cy="75.742" r="49.303" opacity=".3"/>
    </g>
    <g id="page2">
      <path fill="#001953" d="M113.514 82.748c0 27.23-22.074 49.303-49.303 49.303-27.23 0-49.303-22.073-49.303-49.302S36.98 33.445 64.21 33.445s49.304 22.074 49.304 49.303"/>
      <circle fill="none" stroke="#143b88" stroke-width="1.25" stroke-miterlimit="10" cx="64.21" cy="82.748" r="49.303" opacity=".5"/>
    </g>
    <g id="page1">
      <path fill="#001953" d="M71.55 39.96c-27.23 0-49.303 22.074-49.303 49.303 0 11.893 4.212 22.802 11.224 31.317l-4.818 17.986 20.362-5.457c6.757 3.48 14.413 5.456 22.536 5.456 27.23 0 49.303-22.074 49.303-49.304 0-27.227-22.074-49.302-49.303-49.302"/>
      <path fill="none" stroke="#143b88" stroke-width="1.25" stroke-miterlimit="10" d="M71.55 39.96c-27.23 0-49.303 22.074-49.303 49.303 0 11.893 4.212 22.802 11.224 31.317l-4.818 17.986 20.362-5.457c6.757 3.48 14.413 5.456 22.536 5.456 27.23 0 49.303-22.074 49.303-49.304 0-27.227-22.074-49.302-49.303-49.302z"/>
      <g id="face">
        <circle fill="none" stroke="#143b88" stroke-width="1.25" stroke-miterlimit="10" cx="52.562" cy="83.915" r="4.504"/>
        <circle fill="none" stroke="#143b88" stroke-width="1.25" stroke-miterlimit="10" cx="93.041" cy="83.915" r="4.503"/>
        <path fill="none" stroke="#143b88" stroke-width="1.25" stroke-linecap="round" stroke-miterlimit="10" d="M84.18 101.818c-1.766 4.378-6.056 7.467-11.067 7.467-4.874 0-9.066-2.923-10.917-7.112"/>
      </g>
    </g>
  </g>
</svg>
