<?xml version="1.0" encoding="utf-8"?>
<!-- Generator: Adobe Illustrator 15.0.2, SVG Export Plug-In  -->
<!DOCTYPE svg PUBLIC "-//W3C//DTD SVG 1.1//EN" "http://www.w3.org/Graphics/SVG/1.1/DTD/svg11.dtd" [
	<!ENTITY ns_flows "http://ns.adobe.com/Flows/1.0/">
]>
<svg version="1.1"
	 xmlns="http://www.w3.org/2000/svg" xmlns:xlink="http://www.w3.org/1999/xlink" xmlns:a="http://ns.adobe.com/AdobeSVGViewerExtensions/3.0/"
	 x="0px" y="0px" width="459px" height="601px" viewBox="0 -0.5 459 601" enable-background="new 0 -0.5 459 601"
	 xml:space="preserve">
<defs>
</defs>
<path fill="#F5F6F7" d="M136,139H7c-3.85,0-7-3.15-7-7V7c0-3.85,3.15-7,7-7h129c3.85,0,7,3.15,7,7v125
	C143,135.85,139.85,139,136,139"/>
<path fill="#F5F6F7" d="M294,139H165c-3.85,0-7-3.15-7-7V7c0-3.85,3.15-7,7-7h129c3.85,0,7,3.15,7,7v125
	C301,135.85,297.85,139,294,139"/>
<path fill="#F5F6F7" d="M452,139H323c-3.85,0-7-3.15-7-7V7c0-3.85,3.15-7,7-7h129c3.85,0,7,3.15,7,7v125
	C459,135.85,455.85,139,452,139"/>
<path fill="#F5F6F7" d="M136,293H7c-3.85,0-7-3.15-7-7V161c0-3.85,3.15-7,7-7h129c3.85,0,7,3.15,7,7v125
	C143,289.85,139.85,293,136,293"/>
<path fill="#F5F6F7" d="M294,293H165c-3.85,0-7-3.15-7-7V161c0-3.85,3.15-7,7-7h129c3.85,0,7,3.15,7,7v125
	C301,289.85,297.85,293,294,293"/>
<path fill="#F5F6F7" d="M452,293H323c-3.85,0-7-3.15-7-7V161c0-3.85,3.15-7,7-7h129c3.85,0,7,3.15,7,7v125
	C459,289.85,455.85,293,452,293"/>
<path fill="#F5F6F7" d="M136,447H7c-3.85,0-7-3.15-7-7V315c0-3.85,3.15-7,7-7h129c3.85,0,7,3.15,7,7v125
	C143,443.85,139.85,447,136,447"/>
<path fill="#F5F6F7" d="M294,447H165c-3.85,0-7-3.15-7-7V315c0-3.85,3.15-7,7-7h129c3.85,0,7,3.15,7,7v125
	C301,443.85,297.85,447,294,447"/>
<path fill="#F5F6F7" d="M452,447H323c-3.85,0-7-3.15-7-7V315c0-3.85,3.15-7,7-7h129c3.85,0,7,3.15,7,7v125
	C459,443.85,455.85,447,452,447"/>
<path fill="#F5F6F7" d="M136,601H7c-3.85,0-7-3.15-7-7V469c0-3.85,3.15-7,7-7h129c3.85,0,7,3.15,7,7v125
	C143,597.85,139.85,601,136,601"/>
<path fill="#F5F6F7" d="M294,601H165c-3.85,0-7-3.15-7-7V469c0-3.85,3.15-7,7-7h129c3.85,0,7,3.15,7,7v125
	C301,597.85,297.85,601,294,601"/>
<path fill="#F5F6F7" d="M452,601H323c-3.85,0-7-3.15-7-7V469c0-3.85,3.15-7,7-7h129c3.85,0,7,3.15,7,7v125
	C459,597.85,455.85,601,452,601"/>
</svg>
