<svg xmlns="http://www.w3.org/2000/svg" viewBox="0 0 21.49 18.57"><defs><style>.cls-1,.cls-3{fill:#c5cad3;}.cls-2{fill:#fff;}.cls-3{stroke:#fff;stroke-linejoin:bevel;stroke-width:2px;}</style></defs><title>Ресурс 1</title><g id="Шар_2" data-name="Шар 2"><g id="Шар_1-2" data-name="Шар 1"><circle class="cls-1" cx="4.18" cy="7.78" r="2.31"/><path class="cls-1" d="M0,15.1a4.18,4.18,0,1,1,8.36,0"/><circle class="cls-1" cx="17.31" cy="7.78" r="2.31"/><path class="cls-1" d="M13.12,15.1a4.18,4.18,0,1,1,8.36,0"/><circle class="cls-1" cx="10.74" cy="5.98" r="4.98"/><path class="cls-2" d="M10.74,2a4,4,0,1,1-4,4,4,4,0,0,1,4-4m0-2a6,6,0,1,0,6,6,6,6,0,0,0-6-6Z"/><path class="cls-3" d="M3.54,18.57a7.2,7.2,0,0,1,14.4,0"/></g></g></svg>