<?xml version="1.0" encoding="utf-8"?>
<!-- Generator: Adobe Illustrator 19.0.1, SVG Export Plug-In . SVG Version: 6.00 Build 0)  -->
<svg version="1.1" id="Шар_1" xmlns="http://www.w3.org/2000/svg" xmlns:xlink="http://www.w3.org/1999/xlink" x="0px" y="0px"
	 viewBox="0 0 14.9 11.4" style="enable-background:new 0 0 14.9 11.4;" xml:space="preserve">
<style type="text/css">
	.st0{fill:#43b0af;}
</style>
<path class="st0" d="M0.2,6.3C0.1,6.2,0,6,0,5.9c0-0.1,0.1-0.3,0.2-0.4L1,4.7c0.2-0.2,0.6-0.2,0.8,0l0.1,0.1L5,8.1
	c0.1,0.1,0.3,0.1,0.4,0L13,0.2h0.1c0.2-0.2,0.6-0.2,0.8,0L14.7,1c0.2,0.2,0.2,0.6,0,0.8l-9.1,9.5c-0.1,0.1-0.2,0.2-0.4,0.2
	c-0.2,0-0.3-0.1-0.4-0.2L0.3,6.5L0.2,6.3z M0.2,6.3"/>
</svg>
