<?xml version="1.0" encoding="utf-8"?>
<!-- Generator: Adobe Illustrator 19.0.1, SVG Export Plug-In . SVG Version: 6.00 Build 0)  -->
<svg version="1.1" id="Шар_1" xmlns="http://www.w3.org/2000/svg" xmlns:xlink="http://www.w3.org/1999/xlink" x="0px" y="0px"
	 viewBox="0 0 24 24.4" style="enable-background:new 0 0 24 24.4;" xml:space="preserve">
<style type="text/css">
	.st0{fill:url(#SVGID_1_);}
	.st1{fill:url(#SVGID_2_);}
</style>
<g>
	<linearGradient id="SVGID_1_" gradientUnits="userSpaceOnUse" x1="12.7769" y1="25.2886" x2="12.7769" y2="4.2025">
		<stop  offset="0" style="stop-color:#FEB58C"/>
		<stop  offset="1" style="stop-color:#EB778F"/>
	</linearGradient>
	<path class="st0" d="M22.8,5.9c0-1.4-0.6-2.8-1.6-3.8c-1-1-2.4-1.6-3.8-1.6c-1.4,0-2.8,0.6-3.8,1.6c-0.8,0.8-1.4,1.9-1.5,3H8.9V2.8
		c0-1.3-1-2.3-2.3-2.3H3.5c-0.4,0-0.8,0.3-0.8,0.8S3.1,2,3.5,2h3.1C7,2,7.4,2.4,7.4,2.8v2.3H5.1c-0.2,0-0.4,0.1-0.6,0.2
		C4.4,5.5,4.3,5.7,4.3,5.9l1.2,13.5H17l0.7-8.2c1.3-0.1,2.6-0.6,3.5-1.6C22.2,8.7,22.8,7.3,22.8,5.9z M18,7.6l1.5,1.5
		c-0.5,0.3-1.1,0.5-1.7,0.6L18,7.6z M18.5,5.9l2.1-2.1c0.4,0.6,0.6,1.4,0.6,2.1S21,7.4,20.6,8L18.5,5.9z M19.5,2.7l-2.1,2.1
		l-2.1-2.1C15.9,2.2,16.6,2,17.4,2C18.2,2,18.9,2.2,19.5,2.7z M14.2,3.7l1.4,1.4h-1.9C13.7,4.6,13.9,4.2,14.2,3.7z M9.2,15.4
		c-0.4,0-0.8-0.3-0.8-0.8c0-0.4,0.3-0.8,0.8-0.8c0.4,0,0.8,0.3,0.8,0.8C10,15,9.6,15.4,9.2,15.4z M13.3,17.9c-0.4,0-0.8-0.3-0.8-0.8
		c0-0.4,0.3-0.8,0.8-0.8s0.8,0.3,0.8,0.8C14.1,17.6,13.7,17.9,13.3,17.9z M14.5,11.1c-1.3,0.7-2.4,0-2.9-0.2c-0.9-0.3-2-0.3-3,0.1
		c-0.5,0.2-1.3,0.6-2.3,0.3L5.9,6.6h10.6l-0.4,4C15.6,10.7,15,10.8,14.5,11.1z"/>
	<linearGradient id="SVGID_2_" gradientUnits="userSpaceOnUse" x1="11.2394" y1="25.2886" x2="11.2394" y2="4.2025">
		<stop  offset="0" style="stop-color:#FEB58C"/>
		<stop  offset="1" style="stop-color:#EB778F"/>
	</linearGradient>
	<path class="st1" d="M5.9,23.4c0,0.4,0.4,0.7,0.8,0.7h9.2c0.4,0,0.7-0.3,0.8-0.7l0.2-2.4H5.6L5.9,23.4z"/>
</g>
</svg>
