<?xml version="1.0" encoding="utf-8"?>
<!-- Generator: Adobe Illustrator 19.0.1, SVG Export Plug-In . SVG Version: 6.00 Build 0)  -->
<svg version="1.1" id="Шар_1" xmlns="http://www.w3.org/2000/svg" xmlns:xlink="http://www.w3.org/1999/xlink" x="0px" y="0px"
	 viewBox="0 0 24 24.4" style="enable-background:new 0 0 24 24.4;" xml:space="preserve">
<style type="text/css">
	.st0{fill:url(#SVGID_1_);}
	.st1{fill:url(#SVGID_2_);}
</style>
<g>
	<linearGradient id="SVGID_1_" gradientUnits="userSpaceOnUse" x1="12.7789" y1="25.1951" x2="12.7789" y2="4.109">
		<stop  offset="0" style="stop-color:#2D79E5"/>
		<stop  offset="1" style="stop-color:#2DAEE5"/>
	</linearGradient>
	<path class="st0" d="M22.8,5.8c0-1.4-0.6-2.8-1.6-3.8c-1-1-2.4-1.6-3.8-1.6S14.6,1,13.6,2c-0.8,0.8-1.4,1.9-1.5,3H8.9V2.7
		c0-1.3-1-2.3-2.3-2.3H3.5c-0.4,0-0.8,0.3-0.8,0.8s0.3,0.8,0.8,0.8h3.1c0.4,0,0.8,0.3,0.8,0.8V5H5.1C4.9,5,4.7,5.1,4.5,5.3
		C4.4,5.4,4.3,5.6,4.3,5.8l1.2,13.5H17l0.7-8.2c1.3-0.1,2.6-0.6,3.5-1.6C22.2,8.6,22.8,7.2,22.8,5.8z M18,7.5L19.5,9
		c-0.5,0.3-1.1,0.5-1.7,0.6L18,7.5z M18.5,5.8l2.1-2.1C21,4.3,21.2,5,21.2,5.8S21,7.3,20.6,7.9L18.5,5.8z M19.5,2.6l-2.1,2.1
		l-2.1-2.1c0.6-0.4,1.4-0.6,2.1-0.6C18.2,1.9,18.9,2.2,19.5,2.6z M14.2,3.7L15.5,5h-1.9C13.7,4.5,13.9,4.1,14.2,3.7z M9.2,15.3
		c-0.4,0-0.8-0.3-0.8-0.8s0.3-0.8,0.8-0.8c0.4,0,0.8,0.3,0.8,0.8S9.6,15.3,9.2,15.3z M13.3,17.8c-0.4,0-0.8-0.3-0.8-0.8
		c0-0.4,0.3-0.8,0.8-0.8c0.4,0,0.8,0.3,0.8,0.8C14.1,17.5,13.7,17.8,13.3,17.8z M14.5,11c-1.3,0.7-2.4,0-2.9-0.2
		c-0.9-0.3-2-0.3-3,0.1c-0.5,0.2-1.3,0.6-2.3,0.3L5.9,6.5h10.6l-0.4,4C15.6,10.6,15,10.7,14.5,11z"/>
	<linearGradient id="SVGID_2_" gradientUnits="userSpaceOnUse" x1="11.2414" y1="25.1951" x2="11.2414" y2="4.109">
		<stop  offset="0" style="stop-color:#2D79E5"/>
		<stop  offset="1" style="stop-color:#2DAEE5"/>
	</linearGradient>
	<path class="st1" d="M5.9,23.3c0,0.4,0.4,0.7,0.8,0.7h9.2c0.4,0,0.7-0.3,0.8-0.7l0.2-2.4H5.6L5.9,23.3z"/>
</g>
</svg>
