<?xml version="1.0" encoding="utf-8"?>
<!-- Generator: Adobe Illustrator 19.0.1, SVG Export Plug-In . SVG Version: 6.00 Build 0)  -->
<svg version="1.1" id="Шар_1" xmlns="http://www.w3.org/2000/svg" xmlns:xlink="http://www.w3.org/1999/xlink" x="0px" y="0px"
	 viewBox="0 0 23.8 18.3" style="enable-background:new 0 0 23.8 18.3;" xml:space="preserve">
<style type="text/css">
	.st0{fill:#C5CAD3;}
</style>
<g>
	<path class="st0" d="M15.7,9.8c-2.2-0.4-2-0.9-2-1.3V7.8c0.6-0.6,1.1-1.6,1.1-2.7V4.8V3.4c0-1.9-1.4-2.7-2.7-2.7
		c-1.3,0-2.7,0.7-2.7,2.7v1.4v0.4c0,1.1,0.4,2.1,1.1,2.7v0.7c0,0.4,0.2,0.9-2,1.3c-2,0.3-2.3,1.5-2.3,2.1H18
		C18,11.3,17.7,10.2,15.7,9.8"/>
	<path class="st0" d="M8,15.1c-0.1-0.2-0.5-0.3-1-0.4c-0.2,0-0.5-0.1-0.6-0.1c-0.1-0.1-0.2-0.3-0.3-0.6c-0.2-0.4-0.4-0.8-0.6-0.8h0
		c-0.3,0-0.4,0.4-0.6,0.8c-0.1,0.2-0.2,0.5-0.3,0.5c-0.1,0.1-0.4,0.1-0.6,0.1c-0.5,0.1-0.9,0.1-1,0.4c-0.1,0.2,0.2,0.5,0.6,0.9
		c0.2,0.2,0.4,0.4,0.4,0.5c0,0.1,0,0.4-0.1,0.6c-0.1,0.4-0.2,0.9,0,1c0,0,0.1,0.1,0.2,0.1c0.2,0,0.5-0.2,0.8-0.3
		c0.2-0.1,0.5-0.3,0.6-0.3c0.1,0,0.4,0.1,0.6,0.3c0.3,0.2,0.6,0.3,0.8,0.3c0.1,0,0.1,0,0.2-0.1c0.2-0.1,0.1-0.6,0-1
		C7,16.8,7,16.5,7,16.4c0-0.1,0.2-0.3,0.4-0.5C7.8,15.6,8.1,15.3,8,15.1"/>
	<path class="st0" d="M15.1,15.1c-0.1-0.2-0.5-0.3-1-0.4c-0.2,0-0.5-0.1-0.6-0.1c-0.1-0.1-0.2-0.3-0.3-0.6c-0.2-0.4-0.4-0.8-0.6-0.8
		h0c-0.3,0-0.4,0.4-0.6,0.8c-0.1,0.2-0.2,0.5-0.3,0.5c-0.1,0.1-0.4,0.1-0.6,0.1c-0.5,0.1-0.9,0.1-1,0.4c-0.1,0.2,0.2,0.5,0.6,0.9
		c0.2,0.2,0.4,0.4,0.4,0.5c0,0.1,0,0.4-0.1,0.6c-0.1,0.4-0.2,0.9,0,1c0,0,0.1,0.1,0.2,0.1c0.2,0,0.5-0.2,0.8-0.3
		c0.2-0.1,0.5-0.3,0.6-0.3c0.1,0,0.4,0.1,0.6,0.3c0.3,0.2,0.6,0.3,0.8,0.3c0.1,0,0.1,0,0.2-0.1c0.2-0.1,0.1-0.6,0-1
		c0-0.2-0.1-0.5-0.1-0.6c0-0.1,0.2-0.3,0.4-0.5C14.9,15.6,15.2,15.3,15.1,15.1"/>
	<path class="st0" d="M22.2,15.1c-0.1-0.2-0.5-0.3-1-0.4c-0.2,0-0.5-0.1-0.6-0.1c-0.1-0.1-0.2-0.3-0.3-0.6c-0.2-0.4-0.4-0.8-0.6-0.8
		h0c-0.3,0-0.4,0.4-0.6,0.8c-0.1,0.2-0.2,0.5-0.3,0.5c-0.1,0.1-0.4,0.1-0.6,0.1c-0.5,0.1-0.9,0.1-1,0.4c-0.1,0.2,0.2,0.5,0.6,0.9
		c0.2,0.2,0.4,0.4,0.4,0.5c0,0.1,0,0.4-0.1,0.6c-0.1,0.4-0.2,0.9,0,1c0,0,0.1,0.1,0.2,0.1c0.2,0,0.5-0.2,0.8-0.3
		c0.2-0.1,0.5-0.3,0.6-0.3c0.1,0,0.4,0.1,0.6,0.3c0.3,0.2,0.6,0.3,0.8,0.3c0.1,0,0.1,0,0.2-0.1c0.2-0.1,0.1-0.6,0-1
		c0-0.2-0.1-0.5-0.1-0.6c0-0.1,0.2-0.3,0.4-0.5C21.9,15.6,22.3,15.3,22.2,15.1"/>
</g>
</svg>
