<?xml version="1.0" encoding="utf-8"?>
<!-- Generator: Adobe Illustrator 19.0.1, SVG Export Plug-In . SVG Version: 6.00 Build 0)  -->
<svg version="1.1" id="Шар_1" xmlns="http://www.w3.org/2000/svg" xmlns:xlink="http://www.w3.org/1999/xlink" x="0px" y="0px"
	 viewBox="0 0 23.8 24.5" style="enable-background:new 0 0 23.8 24.5;" xml:space="preserve">
<style type="text/css">
	.st0{fill:#2D79E5;}
	.st1{fill:#FFFFFF;}
	.st2{fill:none;stroke:#FFFFFF;stroke-width:2;stroke-linecap:round;stroke-linejoin:bevel;stroke-miterlimit:10;}
</style>
<g>
	<path class="st0" d="M12.4,13.2c-2.8,0-5.2-2.3-5.2-5.2s2.3-5.2,5.2-5.2s5.2,2.3,5.2,5.2S15.2,13.2,12.4,13.2"/>
	<path class="st1" d="M12.4,3.9c2.3,0,4.1,1.8,4.1,4.1c0,2.3-1.8,4.1-4.1,4.1S8.3,10.3,8.3,8C8.3,5.7,10.1,3.9,12.4,3.9 M12.4,1.8
		C9,1.8,6.2,4.6,6.2,8s2.8,6.2,6.2,6.2s6.2-2.8,6.2-6.2S15.8,1.8,12.4,1.8"/>
	<path class="st0" d="M4.9,21.1c0-4.1,3.3-7.5,7.5-7.5c4.1,0,7.5,3.3,7.5,7.5"/>
	<path class="st2" d="M4.9,21.1c0-4.1,3.3-7.5,7.5-7.5c4.1,0,7.5,3.3,7.5,7.5"/>
</g>
</svg>
