<?xml version="1.0" encoding="utf-8"?>
<!-- Generator: Adobe Illustrator 19.0.1, SVG Export Plug-In . SVG Version: 6.00 Build 0)  -->
<svg version="1.1" id="Шар_1" xmlns="http://www.w3.org/2000/svg" xmlns:xlink="http://www.w3.org/1999/xlink" x="0px" y="0px"
	 viewBox="0 0 34.2 24.1" style="enable-background:new 0 0 34.2 24.1;" xml:space="preserve">
<style type="text/css">
	.st0{fill-rule:evenodd;clip-rule:evenodd;fill:#2D79E5;}
</style>
<g>
	<g>
		<path class="st0" d="M30,1.2H4.4c-1.8,0-3.2,1.4-3.2,3.1V20c0,1.7,1.4,3.1,3.2,3.1H30c1.8,0,3.2-1.4,3.2-3.1V4.3
			C33.2,2.6,31.8,1.2,30,1.2L30,1.2z M7.2,7.4c0-2.2,1.6-3.2,3-3.2c1.4,0,3,1,3,3.2V9c0,2.2-2.2,3.2-3,3.2c-0.8,0-3-1-3-3.2V7.4z
			 M16.2,18.2c0,1.5-0.5,2-2,2h-8c-1.5,0-2-0.5-2-2c0,0,0-1,0-1c0-1.1,0.5-2.6,2.3-3.8c0.7-0.5,1.7,0.3,2.7,1.2l0.3,0.3
			c0,0,0.3,0.3,0.7,0.3c0.4,0,0.7-0.3,0.7-0.3v0l0.3-0.3c1.1-0.9,1.9-1.7,2.7-1.2c1.9,1,2.3,2.7,2.3,3.8
			C16.2,17.2,16.2,18.1,16.2,18.2L16.2,18.2z M29.2,18.2h-9c-0.6,0-1-0.4-1-1c0-0.6,0.4-1,1-1h9c0.6,0,1,0.4,1,1
			C30.2,17.7,29.8,18.2,29.2,18.2L29.2,18.2z M29.2,13.2h-9c-0.6,0-1-0.4-1-1c0-0.6,0.4-1,1-1h9c0.6,0,1,0.4,1,1
			C30.2,12.7,29.8,13.2,29.2,13.2L29.2,13.2z M29.2,8.2h-9c-0.6,0-1-0.4-1-1s0.4-1,1-1h9c0.6,0,1,0.4,1,1S29.8,8.2,29.2,8.2
			L29.2,8.2z M29.2,8.2"/>
	</g>
</g>
</svg>
