<svg xmlns="http://www.w3.org/2000/svg" viewBox="0 0 13.39 13.39"><defs><style>.cls-1{fill:#c5cad3;}</style></defs><title>2</title><g id="Шар_2" data-name="Шар 2"><g id="Шар_1-2" data-name="Шар 1"><path class="cls-1" d="M13.39,10.56a.65.65,0,0,1-.2.57L11.3,13a1.06,1.06,0,0,1-.33.24,1.38,1.38,0,0,1-.4.13H10.3a6.54,6.54,0,0,1-.87-.09A6.62,6.62,0,0,1,8,12.84a12.39,12.39,0,0,1-2-1.08,14.76,14.76,0,0,1-2.35-2A15.55,15.55,0,0,1,2,7.9a13.33,13.33,0,0,1-1-1.65,8.88,8.88,0,0,1-.6-1.38A7.29,7.29,0,0,1,.06,3.81,3.51,3.51,0,0,1,0,3.11q0-.26,0-.28a1.38,1.38,0,0,1,.13-.4,1.06,1.06,0,0,1,.24-.33L2.27.2A.62.62,0,0,1,2.73,0a.53.53,0,0,1,.33.11,1,1,0,0,1,.24.26L4.81,3.25a.69.69,0,0,1,.07.5.88.88,0,0,1-.24.45l-.69.69a.24.24,0,0,0,0,.09.35.35,0,0,0,0,.11,2.56,2.56,0,0,0,.26.68,6.25,6.25,0,0,0,.52.83,9.21,9.21,0,0,0,1,1.13,9.39,9.39,0,0,0,1.13,1,6.55,6.55,0,0,0,.83.53,2.21,2.21,0,0,0,.51.21l.18,0,.09,0,.09,0,.81-.82a.87.87,0,0,1,.6-.23.74.74,0,0,1,.38.09h0L13,10.1a.71.71,0,0,1,.35.47Zm0,0"/></g></g></svg>