<?xml version="1.0" encoding="utf-8"?>
<!-- Generator: Adobe Illustrator 19.0.1, SVG Export Plug-In . SVG Version: 6.00 Build 0)  -->
<svg version="1.1" id="Шар_1" xmlns="http://www.w3.org/2000/svg" xmlns:xlink="http://www.w3.org/1999/xlink" x="0px" y="0px"
	 viewBox="0 0 24 16.8" style="enable-background:new 0 0 24 16.8;" xml:space="preserve">
<style type="text/css">
	.st0{fill:#87C1EE;}
</style>
<g>
	<path class="st0" d="M6.9,6.1c0,1.3-1,2.3-2.3,2.3s-2.3-1-2.3-2.3s1-2.3,2.3-2.3S6.9,4.8,6.9,6.1"/>
	<path class="st0" d="M22,6.1c0,1.3-1,2.3-2.3,2.3s-2.3-1-2.3-2.3s1-2.3,2.3-2.3S22,4.8,22,6.1"/>
	<path class="st0" d="M16.1,4.3c0,2.2-1.8,4-4,4s-4-1.8-4-4s1.8-4,4-4S16.1,2.1,16.1,4.3"/>
	<path class="st0" d="M4.9,16.9c0-4,3.2-7.2,7.2-7.2c4,0,7.2,3.2,7.2,7.2"/>
	<path class="st0" d="M7,10.1C6.3,9.6,5.5,9.3,4.6,9.3c-2.3,0-4.2,1.9-4.2,4.2h3.2C4.4,12,5.6,10.8,7,10.1"/>
	<path class="st0" d="M20.6,13.4h3.2c0-2.3-1.9-4.2-4.2-4.2c-0.9,0-1.8,0.3-2.5,0.8C18.7,10.8,19.8,12,20.6,13.4"/>
</g>
</svg>
