<svg xmlns="http://www.w3.org/2000/svg" viewBox="543 1403.419 58 86.946">
  <defs>
    <style>
      .cls-1, .cls-4 {
        fill: none;
      }

      .cls-1 {
        stroke: #eddfc7;
        stroke-width: 2px;
      }

      .cls-2 {
        fill: #eddfc7;
        opacity: 0.3;
      }

      .cls-3 {
        stroke: none;
      }
    </style>
  </defs>
  <g id="Icon" transform="translate(-157 -39)">
    <g id="Rectangle_22" data-name="Rectangle 22" class="cls-1" transform="translate(720 1470)">
      <path class="cls-3" d="M4,0H14a4,4,0,0,1,4,4V22a0,0,0,0,1,0,0H0a0,0,0,0,1,0,0V4A4,4,0,0,1,4,0Z"/>
      <path class="cls-4" d="M4,1H14a3,3,0,0,1,3,3V20a1,1,0,0,1-1,1H2a1,1,0,0,1-1-1V4A3,3,0,0,1,4,1Z"/>
    </g>
    <rect id="Rectangle_310" data-name="Rectangle 310" class="cls-2" width="48" height="16" transform="translate(705 1496)"/>
    <path id="Path_51" data-name="Path 51" class="cls-1" d="M742.8,1422.28s15.321,1.155,18.971-16.407" transform="translate(-5 52)"/>
    <path id="Path_52" data-name="Path 52" class="cls-1" d="M725.456,1422.3s-8.905,3.2-9.262,15.838" transform="translate(-5 52)"/>
    <g id="Rectangle_23" data-name="Rectangle 23" class="cls-1" transform="translate(700 1490)">
      <rect class="cls-3" width="58" height="8" rx="2"/>
      <rect class="cls-4" x="1" y="1" width="56" height="6" rx="1"/>
    </g>
    <g id="Rectangle_26" data-name="Rectangle 26" class="cls-1" transform="translate(704 1496)">
      <rect class="cls-3" width="50" height="17"/>
      <rect class="cls-4" x="1" y="1" width="48" height="15"/>
    </g>
    <g id="Ellipse_1" data-name="Ellipse 1" class="cls-1" transform="translate(720 1448)">
      <circle class="cls-3" cx="9" cy="9" r="9"/>
      <circle class="cls-4" cx="9" cy="9" r="8"/>
    </g>
    <g id="Rectangle_27" data-name="Rectangle 27" class="cls-1" transform="translate(715 1452)">
      <rect class="cls-3" width="6" height="10" rx="3"/>
      <rect class="cls-4" x="1" y="1" width="4" height="8" rx="2"/>
    </g>
    <g id="Rectangle_28" data-name="Rectangle 28" class="cls-1" transform="translate(737 1452)">
      <rect class="cls-3" width="6" height="10" rx="3"/>
      <rect class="cls-4" x="1" y="1" width="4" height="8" rx="2"/>
    </g>
    <path id="Path_53" data-name="Path 53" class="cls-1" d="M745,1400.447s-1.016-9.028-10.626-9.028-11.5,9.028-11.5,9.028" transform="translate(-5 52)"/>
    <path id="Path_54" data-name="Path 54" class="cls-1" d="M728.5,1460l1,13.867-6.207,2.174" transform="translate(-5 52)"/>
    <path id="Path_55" data-name="Path 55" class="cls-1" d="M739.355,1459.5l-.847,14.608,6.611,2.313" transform="translate(-5 52)"/>
    <circle id="Ellipse_36" data-name="Ellipse 36" class="cls-2" cx="8" cy="8" r="8" transform="translate(722 1449)"/>
    <path id="Path_219" data-name="Path 219" class="cls-1" d="M362,1453s3.923-.23,4.41.613.493,4.637.493,4.637" transform="translate(382.001 48)"/>
    <g id="Rectangle_24" data-name="Rectangle 24" class="cls-1" transform="translate(704 1513)">
      <rect class="cls-3" width="2" height="16"/>
      <rect class="cls-4" x="1" y="1" height="14"/>
    </g>
    <g id="Rectangle_25" data-name="Rectangle 25" class="cls-1" transform="translate(752 1513)">
      <rect class="cls-3" width="2" height="16"/>
      <rect class="cls-4" x="1" y="1" height="14"/>
    </g>
    <g id="Rectangle_350" data-name="Rectangle 350" class="cls-1" transform="translate(752 1496)">
      <rect class="cls-3" width="2" height="33"/>
      <rect class="cls-4" x="1" y="1" height="31"/>
    </g>
    <path id="Path_273" data-name="Path 273" class="cls-1" d="M705,1512.57v16.424"/>
    <path id="Path_274" data-name="Path 274" class="cls-1" d="M705,1512.57v16.424" transform="translate(48)"/>
  </g>
</svg>
