<svg xmlns="http://www.w3.org/2000/svg" viewBox="703 1805 79.456 77">
  <defs>
    <style>
      .cls-1, .cls-2, .cls-3 {
        fill: #eddfc7;
        opacity: 0.3;
      }

      .cls-2, .cls-4, .cls-5 {
        stroke: #eddfc7;
      }

      .cls-3 {
        stroke: #fff;
      }

      .cls-4, .cls-5, .cls-7 {
        fill: none;
      }

      .cls-4 {
        stroke-width: 2px;
      }

      .cls-6 {
        stroke: none;
      }
    </style>
  </defs>
  <g id="Icon" transform="translate(-1.309 -43)">
    <rect id="Rectangle_316" data-name="Rectangle 316" class="cls-1" width="24" height="26" transform="translate(715.309 1892)"/>
    <g id="Rectangle_317" data-name="Rectangle 317" class="cls-2" transform="translate(719.309 1918)">
      <rect class="cls-6" width="15" height="2"/>
      <rect class="cls-7" x="0.5" y="0.5" width="14" height="1"/>
    </g>
    <g id="Rectangle_314" data-name="Rectangle 314" class="cls-3" transform="translate(749.309 1849)">
      <rect class="cls-6" width="29" height="19"/>
      <rect class="cls-7" x="0.5" y="0.5" width="28" height="18"/>
    </g>
    <g id="Rectangle_37" data-name="Rectangle 37" class="cls-4" transform="translate(748 1848)">
      <rect class="cls-6" width="31" height="21" rx="2"/>
      <rect class="cls-7" x="1" y="1" width="29" height="19" rx="1"/>
    </g>
    <g id="Rectangle_38" data-name="Rectangle 38" class="cls-5" transform="translate(762 1868)">
      <rect class="cls-6" width="2" height="9"/>
      <rect class="cls-7" x="0.5" y="0.5" width="1" height="8"/>
    </g>
    <g id="Rectangle_40" data-name="Rectangle 40" class="cls-5" transform="translate(739 1874)">
      <rect class="cls-6" width="12" height="2" rx="1"/>
      <rect class="cls-7" x="0.5" y="0.5" width="11" height="1" rx="0.5"/>
    </g>
    <path id="Path_61" data-name="Path 61" class="cls-4" d="M711.819,1910.719h-4.9c-1,0-1.611-.362-1.611-1.611v-30.566a1.517,1.517,0,0,1,1.611-1.611c1.1,0,73.107-.3,74.233,0s1.611.862,1.611,1.611v30.566c0,1.111-.331,1.611-1.611,1.611H742.711"/>
    <path id="Path_62" data-name="Path 62" class="cls-4" d="M725.26,1879.187V1850.85c0-1.258-.437-1.517-1.517-1.517H702.658c-1.69,0-1.517.6-1.517,1.517v28.337" transform="translate(14 42)"/>
    <g id="Rectangle_41" data-name="Rectangle 41" class="cls-4" transform="translate(721 1882)">
      <rect class="cls-6" width="12" height="16" rx="3"/>
      <rect class="cls-7" x="1" y="1" width="10" height="14" rx="2"/>
    </g>
    <path id="Path_63" data-name="Path 63" class="cls-4" d="M3.638,1A2.386,2.386,0,0,1,6,3.5v2A2.5,2.5,0,0,1,3.5,8,2.386,2.386,0,0,1,1.138,5.5v-2A2.5,2.5,0,0,1,3.638,1Z" transform="translate(714 1916)"/>
    <path id="Path_64" data-name="Path 64" class="cls-4" d="M3.638,1A2.625,2.625,0,0,1,6.28,3.5v2A2.754,2.754,0,0,1,3.5,8,2.386,2.386,0,0,1,1.138,5.5v-2A2.5,2.5,0,0,1,3.638,1Z" transform="translate(733 1916)"/>
    <g id="Rectangle_42" data-name="Rectangle 42" class="cls-5" transform="translate(720 1919)">
      <rect class="cls-6" width="14" height="2"/>
      <rect class="cls-7" x="0.5" y="0.5" width="13" height="1"/>
    </g>
    <path id="Path_220" data-name="Path 220" class="cls-5" d="M362,1453h6" transform="translate(390.31 401)"/>
    <path id="Path_221" data-name="Path 221" class="cls-5" d="M362,1453h14" transform="translate(399.31 401)"/>
    <path id="Path_222" data-name="Path 222" class="cls-5" d="M362,1453h16" transform="translate(390.31 405)"/>
    <path id="Path_223" data-name="Path 223" class="cls-5" d="M362,1453h4" transform="translate(409.13 405)"/>
    <path id="Path_224" data-name="Path 224" class="cls-5" d="M362,1453h23" transform="translate(390.31 409)"/>
  </g>
</svg>
