<svg xmlns="http://www.w3.org/2000/svg" viewBox="0 0 32.45 56.58"><defs><style>.cls-1{fill:none;stroke:#202020;stroke-miterlimit:10;}</style></defs><title>Ресурс 4</title><g id="Шар_2" data-name="Шар 2"><g id="Шар_1-2" data-name="Шар 1"><path class="cls-1" d="M11.3,49.64c.21,0,.31-2.21,2.31-2.19,0,0,.8-2.93.93-4.12A9.28,9.28,0,0,0,13.77,40c.14-.21-1.09-1.45,2.94-7.49,4.46-6.34,5-7.17,5.1-8.16a21.4,21.4,0,0,1-4.46,4s2.83-3.19,6.22-7.08S30.65,13,29.68,12a13.53,13.53,0,0,1-4.53,4.42c4.89-5.3,6.72-9.62,6.79-12.26A4.09,4.09,0,0,0,30.51.5,92.27,92.27,0,0,0,17.9,8.76C11.8,13.5,6.44,19.33,6.7,23.59a5.74,5.74,0,0,0-2.4,0,17.39,17.39,0,0,0-2.86,5,15.4,15.4,0,0,0,.39,11.6,14.13,14.13,0,0,0,1.82,3.16c1.25,1.81,3.22,4,5.31,6.51a8.86,8.86,0,0,0,.75,1,5.15,5.15,0,0,1,.66,1.21,1.81,1.81,0,0,0,.41.95q.4,1.22.71,2.52s.6.64.7.52a11,11,0,0,0-.55-2.78,10.67,10.67,0,0,0-.39-1.82s-.14-1.79,0-1.82ZM10,48.07c-1.32-3.3-3.2-6.5-3.07-10a27.89,27.89,0,0,1,3-11.12,65.87,65.87,0,0,1,6.7-10.75,23.82,23.82,0,0,1,5.09-5c-2.2,3.91-7.58,10.44-10.35,16.66C8.4,34.26,8,40.37,10,48.07Zm0,0"/></g></g></svg>