<svg xmlns="http://www.w3.org/2000/svg" viewBox="-3253 -40.001 64.001 63.709">
  <defs>
    <style>
      .cls-1 {
        fill: #ea2b2b;
      }
    </style>
  </defs>
  <path id="Icon" class="cls-1" d="M57.366-7697.708,62.587-7703H5.414l5.219,5.293-1.488,1.416-7.145-7v-1.416l7.145-7,1.562,1.414L5.414-7705H62.587l-5.221-5.292,1.488-1.414,7.147,7v1.416l-7.147,7Zm-28.307-19.627L44.3-7760h2.409l15.237,42.664-1.883.672L55.3-7730H35.7l-4.762,13.336ZM36.418-7732H54.581L45.5-7757.426ZM6.057-7717.327,14.289-7741h2.423l8.232,23.672-1.889.656-2.2-6.328H10.146l-2.2,6.33ZM10.842-7725h9.317L15.5-7738.394Z" transform="translate(-3255 7720)"/>
</svg>
