<?xml version="1.0" encoding="utf-8"?>
<!-- Generator: Adobe Illustrator 15.0.2, SVG Export Plug-In . SVG Version: 6.00 Build 0)  -->
<!DOCTYPE svg PUBLIC "-//W3C//DTD SVG 1.1//EN" "http://www.w3.org/Graphics/SVG/1.1/DTD/svg11.dtd">
<svg version="1.1" id="Слой_1" xmlns="http://www.w3.org/2000/svg" xmlns:xlink="http://www.w3.org/1999/xlink" x="0px" y="0px"
	 width="1200px" height="750px" viewBox="0 0 1200 750" enable-background="new 0 0 1200 750" xml:space="preserve">
<g>
	<defs>
		<rect id="SVGID_1_" y="0.047" width="1199.85" height="749.906"/>
	</defs>
	<clipPath id="SVGID_2_">
		<use xlink:href="#SVGID_1_"  overflow="visible"/>
	</clipPath>
	<g transform="matrix(1 0 0 1 0 -2.059905e-009)" clip-path="url(#SVGID_2_)">
		<image overflow="visible" width="1200" height="750" xlink:href="F0E9AB5C.jpg"  transform="matrix(0.9999 0 0 0.9999 0 0.0469)">
		</image>
	</g>
</g>
<polyline fill="none" stroke="#516689" stroke-miterlimit="10" points="899,161.5 1029.5,161.5 1029.5,291.5 1094.5,291.5 
	1094.5,357 "/>
<polyline fill="none" stroke="#516689" stroke-miterlimit="10" points="314.5,96 314.5,161.5 184.5,161.5 184.5,226.5 250,226.5 "/>
<polyline fill="none" stroke="#516689" stroke-miterlimit="10" points="184,681.5 249.5,681.5 249.5,616.5 184.5,616.5 184.5,551.5 
	250,551.5 315,551.5 "/>
<polyline fill="none" stroke="#516689" stroke-miterlimit="10" points="899.5,487 899.5,551.5 964.5,551.5 964.5,616.5 
	1029.5,616.5 1029.5,681.5 1094.5,681.5 1094.5,552 "/>
<rect x="312.5" y="159.25" fill="#FFFFFF" width="4" height="4"/>
<rect x="247.5" y="159.25" fill="#FFFFFF" width="4" height="4"/>
<rect x="182.5" y="159.516" fill="#FFFFFF" width="4" height="4"/>
<rect x="182.5" y="224.5" fill="#FFFFFF" width="4" height="4"/>
<rect x="247.5" y="224.5" fill="#FFFFFF" width="4" height="4"/>
<rect x="313" y="549.5" fill="#FFFFFF" width="4" height="4"/>
<rect x="897.5" y="549.5" fill="#FFFFFF" width="4" height="4"/>
<rect x="962.5" y="549.5" fill="#FFFFFF" width="4" height="4"/>
<rect x="962.5" y="614.5" fill="#FFFFFF" width="4" height="4"/>
<rect x="1027.417" y="614.5" fill="#FFFFFF" width="4" height="4"/>
<rect x="1027.417" y="679.5" fill="#FFFFFF" width="4" height="4"/>
<rect x="1092.5" y="679.5" fill="#FFFFFF" width="4" height="4"/>
<rect x="1092.5" y="614.5" fill="#FFFFFF" width="4" height="4"/>
<rect x="1092.5" y="549.5" fill="#FFFFFF" width="4" height="4"/>
<rect x="897.5" y="484.25" fill="#FFFFFF" width="4" height="4"/>
<rect x="1092.5" y="355" fill="#FFFFFF" width="4" height="4"/>
<rect x="1092.5" y="289.25" fill="#FFFFFF" width="4" height="4"/>
<rect x="1027.5" y="289.25" fill="#FFFFFF" width="4" height="4"/>
<rect x="1027.5" y="224.5" fill="#FFFFFF" width="4" height="4"/>
<rect x="1027.5" y="159.5" fill="#FFFFFF" width="4" height="4"/>
<rect x="962.25" y="159.5" fill="#FFFFFF" width="4" height="4"/>
<rect x="897" y="159.5" fill="#FFFFFF" width="4" height="4"/>
<rect x="247.5" y="549.5" fill="#FFFFFF" width="4" height="4"/>
<rect x="182.625" y="549.5" fill="#FFFFFF" width="4" height="4"/>
<rect x="182.625" y="614.5" fill="#FFFFFF" width="4" height="4"/>
<rect x="312.5" y="93.25" fill="#FFFFFF" width="4" height="4"/>
<rect x="247.5" y="614.5" fill="#FFFFFF" width="4" height="4"/>
<rect x="247.5" y="679.5" fill="#FFFFFF" width="4" height="4"/>
<rect x="182.583" y="679.5" fill="#FFFFFF" width="4" height="4"/>
</svg>
