<?xml version="1.0" encoding="utf-8"?>
<!-- Generator: Adobe Illustrator 15.0.2, SVG Export Plug-In  -->
<!DOCTYPE svg PUBLIC "-//W3C//DTD SVG 1.1//EN" "http://www.w3.org/Graphics/SVG/1.1/DTD/svg11.dtd" [
	<!ENTITY ns_flows "http://ns.adobe.com/Flows/1.0/">
]>
<svg version="1.1"
	 xmlns="http://www.w3.org/2000/svg" xmlns:xlink="http://www.w3.org/1999/xlink" xmlns:a="http://ns.adobe.com/AdobeSVGViewerExtensions/3.0/"
	 x="0px" y="0px" width="1200px" height="750px" viewBox="11.406 -374.963 1200 750"
	 enable-background="new 11.406 -374.963 1200 750" xml:space="preserve">
<defs>
</defs>
<g>
	<g>
		<defs>
			<path id="SVGID_2_" d="M13.527,111.954v263.083h1197.878V142.743c-31.408-18.381-106.912-106.381-236.272-103.789
				c-149.676,3-175.931,118-336.707,118c-146.977,0-198.969-156.917-363.157-156.917C132.015,0.037,95.457,83.954,13.527,111.954"/>
		</defs>
		<clipPath id="SVGID_3_">
			<use xlink:href="#SVGID_2_"  overflow="visible"/>
		</clipPath>
		<defs>
			<filter id="Adobe_OpacityMaskFilter" filterUnits="userSpaceOnUse" x="13.527" y="0.037" width="1197.878" height="375">
				<feColorMatrix  type="matrix" values="1 0 0 0 0  0 1 0 0 0  0 0 1 0 0  0 0 0 1 0"/>
			</filter>
		</defs>
		<mask maskUnits="userSpaceOnUse" x="13.527" y="0.037" width="1197.878" height="375" id="SVGID_4_">
			<g filter="url(#Adobe_OpacityMaskFilter)">
				
					<linearGradient id="SVGID_5_" gradientUnits="userSpaceOnUse" x1="11.4058" y1="375.0361" x2="12.4058" y2="375.0361" gradientTransform="matrix(0 589.0012 589.0012 0 -220283.9531 -6932.1655)">
					<stop  offset="0" style="stop-color:#F0F0F0"/>
					<stop  offset="0" style="stop-color:#808080"/>
					<stop  offset="1" style="stop-color:#333333"/>
				</linearGradient>
				<rect x="13.527" y="0.036" clip-path="url(#SVGID_3_)" fill="url(#SVGID_5_)" width="1197.878" height="375"/>
			</g>
		</mask>
		
			<linearGradient id="SVGID_6_" gradientUnits="userSpaceOnUse" x1="11.4058" y1="375.0352" x2="12.4058" y2="375.0352" gradientTransform="matrix(0 589.0012 589.0012 0 -220283.9531 -6932.2031)">
			<stop  offset="0" style="stop-color:#0196FF"/>
			<stop  offset="0" style="stop-color:#0196FF"/>
			<stop  offset="1" style="stop-color:#0196FF"/>
		</linearGradient>
		
			<rect x="13.527" y="0.037" clip-path="url(#SVGID_3_)" mask="url(#SVGID_4_)" fill="url(#SVGID_6_)" width="1197.878" height="375"/>
	</g>
	<g>
		<defs>
			<path id="SVGID_1_" d="M279.364,155.622c-112.907,0-190.812-31.29-265.837-73.668v293.083h1197.878v-270.5
				c-13.985,10.209-95.722,66.417-200.278,66.417c-191,0-216.795-121.13-382.688-121.13
				C479.332,49.824,442.457,155.622,279.364,155.622"/>
		</defs>
		<clipPath id="SVGID_7_">
			<use xlink:href="#SVGID_1_"  overflow="visible"/>
		</clipPath>
		<defs>
			<filter id="Adobe_OpacityMaskFilter_1_" filterUnits="userSpaceOnUse" x="0" y="0" width="1224.931" height="424.861">
				<feColorMatrix  type="matrix" values="1 0 0 0 0  0 1 0 0 0  0 0 1 0 0  0 0 0 1 0"/>
			</filter>
		</defs>
		<mask maskUnits="userSpaceOnUse" x="0" y="0" width="1224.931" height="424.861" id="SVGID_8_">
			<g filter="url(#Adobe_OpacityMaskFilter_1_)">
				
					<linearGradient id="SVGID_9_" gradientUnits="userSpaceOnUse" x1="11.4058" y1="375.0322" x2="12.4058" y2="375.0322" gradientTransform="matrix(-15.2082 365.003 365.003 15.2082 -136093.6563 -9852.2842)">
					<stop  offset="0" style="stop-color:#FFFFFF"/>
					<stop  offset="0" style="stop-color:#FFFFFF"/>
					<stop  offset="1" style="stop-color:#808080"/>
				</linearGradient>
				<polygon clip-path="url(#SVGID_7_)" fill="url(#SVGID_9_)" points="1224.931,50.387 1209.329,424.86 0,374.473 15.603,-0.001 
									"/>
			</g>
		</mask>
		
			<linearGradient id="SVGID_10_" gradientUnits="userSpaceOnUse" x1="11.4058" y1="375.0313" x2="12.4058" y2="375.0313" gradientTransform="matrix(-15.2082 365.003 365.003 15.2082 -136093.6719 -9852.2949)">
			<stop  offset="0" style="stop-color:#0196FF"/>
			<stop  offset="0" style="stop-color:#0196FF"/>
			<stop  offset="1" style="stop-color:#0196FF"/>
		</linearGradient>
		<polygon clip-path="url(#SVGID_7_)" mask="url(#SVGID_8_)" fill="url(#SVGID_10_)" points="1224.931,50.388 1209.329,424.861 
			0,374.474 15.603,0 		"/>
	</g>
</g>
</svg>
