<?xml version="1.0" encoding="utf-8"?>
<!-- Generator: Adobe Illustrator 15.0.2, SVG Export Plug-In  -->
<!DOCTYPE svg PUBLIC "-//W3C//DTD SVG 1.1//EN" "http://www.w3.org/Graphics/SVG/1.1/DTD/svg11.dtd" [
	<!ENTITY ns_flows "http://ns.adobe.com/Flows/1.0/">
]>
<svg version="1.1"
	 xmlns="http://www.w3.org/2000/svg" xmlns:xlink="http://www.w3.org/1999/xlink" xmlns:a="http://ns.adobe.com/AdobeSVGViewerExtensions/3.0/"
	 x="0px" y="0px" width="1200px" height="750px" viewBox="15.598 -325.088 1200 750"
	 enable-background="new 15.598 -325.088 1200 750" xml:space="preserve">
<defs>
</defs>
<g>
	<g>
		<defs>
			<path id="SVGID_2_" d="M246.523,226.415c-102.501-3.586-108-39.586-230.926-69.586v268.083h1199.998l-0.064-239.083
				c0,0-63.569,48.041-180.004,48.041c-169.001,0-227.004-183.958-419.93-183.958C456.353,49.912,388.384,231.378,246.523,226.415"
				/>
		</defs>
		<clipPath id="SVGID_3_">
			<use xlink:href="#SVGID_2_"  overflow="visible"/>
		</clipPath>
		<defs>
			<filter id="Adobe_OpacityMaskFilter" filterUnits="userSpaceOnUse" x="0" y="0" width="1231.193" height="474.824">
				<feColorMatrix  type="matrix" values="1 0 0 0 0  0 1 0 0 0  0 0 1 0 0  0 0 0 1 0"/>
			</filter>
		</defs>
		<mask maskUnits="userSpaceOnUse" x="0" y="0" width="1231.193" height="474.824" id="SVGID_4_">
			<g filter="url(#Adobe_OpacityMaskFilter)">
				
					<linearGradient id="SVGID_5_" gradientUnits="userSpaceOnUse" x1="15.5977" y1="424.9063" x2="16.5977" y2="424.9063" gradientTransform="matrix(-17.5539 421.3022 421.3022 17.5539 -178115.2188 -14020.127)">
					<stop  offset="0" style="stop-color:#F0F0F0"/>
					<stop  offset="0" style="stop-color:#808080"/>
					<stop  offset="1" style="stop-color:#333333"/>
				</linearGradient>
				<polygon clip-path="url(#SVGID_3_)" fill="url(#SVGID_5_)" points="1231.193,50.562 1213.516,474.824 0,424.263 17.677,0 				
					"/>
			</g>
		</mask>
		
			<linearGradient id="SVGID_6_" gradientUnits="userSpaceOnUse" x1="15.5977" y1="424.9063" x2="16.5977" y2="424.9063" gradientTransform="matrix(-17.5539 421.3022 421.3022 17.5539 -178115.2188 -14020.127)">
			<stop  offset="0" style="stop-color:#0196FF"/>
			<stop  offset="0" style="stop-color:#0196FF"/>
			<stop  offset="1" style="stop-color:#0196FF"/>
		</linearGradient>
		<polygon clip-path="url(#SVGID_3_)" mask="url(#SVGID_4_)" fill="url(#SVGID_6_)" points="1231.193,50.562 1213.516,474.824 
			0,424.263 17.677,0 		"/>
	</g>
	<g>
		<defs>
			<path id="SVGID_1_" d="M15.598,203.8v221.112h1199.934V142.829c-49.369-25.127-82.008-43.13-172.008-43.13
				c-182.79,0-202.207,107.13-427.992,107.13c-188.198,0-209.133-118-360.127-118C136.293,88.829,72.575,178.76,15.598,203.8"/>
		</defs>
		<clipPath id="SVGID_7_">
			<use xlink:href="#SVGID_1_"  overflow="visible"/>
		</clipPath>
		<defs>
			<filter id="Adobe_OpacityMaskFilter_1_" filterUnits="userSpaceOnUse" x="15.598" y="88.829" width="1199.934" height="336.083">
				<feColorMatrix  type="matrix" values="1 0 0 0 0  0 1 0 0 0  0 0 1 0 0  0 0 0 1 0"/>
			</filter>
		</defs>
		<mask maskUnits="userSpaceOnUse" x="15.598" y="88.829" width="1199.934" height="336.083" id="SVGID_8_">
			<g filter="url(#Adobe_OpacityMaskFilter_1_)">
				
					<linearGradient id="SVGID_9_" gradientUnits="userSpaceOnUse" x1="15.5977" y1="424.9121" x2="16.5977" y2="424.9121" gradientTransform="matrix(0 527.8755 527.8755 0 -223685.1563 -8336.501)">
					<stop  offset="0" style="stop-color:#FFFFFF"/>
					<stop  offset="0.2897" style="stop-color:#FFFFFF"/>
					<stop  offset="1" style="stop-color:#808080"/>
				</linearGradient>
				<rect x="15.598" y="88.829" clip-path="url(#SVGID_7_)" fill="url(#SVGID_9_)" width="1199.934" height="336.083"/>
			</g>
		</mask>
		
			<linearGradient id="SVGID_10_" gradientUnits="userSpaceOnUse" x1="15.5977" y1="424.9121" x2="16.5977" y2="424.9121" gradientTransform="matrix(0 527.8755 527.8755 0 -223685.1563 -8336.501)">
			<stop  offset="0" style="stop-color:#0196FF"/>
			<stop  offset="0.2897" style="stop-color:#0196FF"/>
			<stop  offset="1" style="stop-color:#0196FF"/>
		</linearGradient>
		
			<rect x="15.598" y="88.829" clip-path="url(#SVGID_7_)" mask="url(#SVGID_8_)" fill="url(#SVGID_10_)" width="1199.934" height="336.083"/>
	</g>
</g>
</svg>
