<?xml version="1.0" encoding="utf-8"?>
<!-- Generator: Adobe Illustrator 15.0.2, SVG Export Plug-In  -->
<!DOCTYPE svg PUBLIC "-//W3C//DTD SVG 1.1//EN" "http://www.w3.org/Graphics/SVG/1.1/DTD/svg11.dtd" [
	<!ENTITY ns_flows "http://ns.adobe.com/Flows/1.0/">
]>
<svg version="1.1"
	 xmlns="http://www.w3.org/2000/svg" xmlns:xlink="http://www.w3.org/1999/xlink" xmlns:a="http://ns.adobe.com/AdobeSVGViewerExtensions/3.0/"
	 x="0px" y="0px" width="1200px" height="750px" viewBox="14.187 -359.005 1200 750"
	 enable-background="new 14.187 -359.005 1200 750" xml:space="preserve">
<defs>
</defs>
<g>
	<g>
		<defs>
			<path id="SVGID_2_" d="M252.265,192.498c-105.861,0-115.152-39.586-238.078-69.586v268.083h1199.998l-0.064-239.083
				c0,0-63.569,48.041-180.004,48.041c-169.001,0-227.004-150.041-419.93-150.041C454.942,49.912,394.212,192.498,252.265,192.498"
				/>
		</defs>
		<clipPath id="SVGID_3_">
			<use xlink:href="#SVGID_2_"  overflow="visible"/>
		</clipPath>
		<defs>
			<filter id="Adobe_OpacityMaskFilter" filterUnits="userSpaceOnUse" x="0" y="0" width="1228.372" height="440.907">
				<feColorMatrix  type="matrix" values="1 0 0 0 0  0 1 0 0 0  0 0 1 0 0  0 0 0 1 0"/>
			</filter>
		</defs>
		<mask maskUnits="userSpaceOnUse" x="0" y="0" width="1228.372" height="440.907" id="SVGID_4_">
			<g filter="url(#Adobe_OpacityMaskFilter)">
				
					<linearGradient id="SVGID_5_" gradientUnits="userSpaceOnUse" x1="14.187" y1="390.9912" x2="15.187" y2="390.9912" gradientTransform="matrix(-16.0874 386.1042 386.1042 16.0874 -150112.0781 -11754.5381)">
					<stop  offset="0" style="stop-color:#F0F0F0"/>
					<stop  offset="0" style="stop-color:#808080"/>
					<stop  offset="1" style="stop-color:#333333"/>
				</linearGradient>
				<polygon clip-path="url(#SVGID_3_)" fill="url(#SVGID_5_)" points="1228.372,50.503 1212.105,440.907 0,390.404 16.267,0 				
					"/>
			</g>
		</mask>
		
			<linearGradient id="SVGID_6_" gradientUnits="userSpaceOnUse" x1="14.187" y1="390.9912" x2="15.187" y2="390.9912" gradientTransform="matrix(-16.0874 386.1042 386.1042 16.0874 -150112.0781 -11754.5381)">
			<stop  offset="0" style="stop-color:#0196FF"/>
			<stop  offset="0" style="stop-color:#0196FF"/>
			<stop  offset="1" style="stop-color:#0196FF"/>
		</linearGradient>
		<polygon clip-path="url(#SVGID_3_)" mask="url(#SVGID_4_)" fill="url(#SVGID_6_)" points="1228.372,50.503 1212.105,440.907 
			0,390.404 16.267,0 		"/>
	</g>
	<g>
		<defs>
			<path id="SVGID_1_" d="M14.187,157.89v233.105h1199.934V107.912c-46.992-27.867-74.008-53-172.008-53
				c-182.79,0-202.207,118-427.992,118c-188.198,0-209.133-134-360.127-134C134.876,38.912,91.136,132.856,14.187,157.89"/>
		</defs>
		<clipPath id="SVGID_7_">
			<use xlink:href="#SVGID_1_"  overflow="visible"/>
		</clipPath>
		<defs>
			<filter id="Adobe_OpacityMaskFilter_1_" filterUnits="userSpaceOnUse" x="14.187" y="38.912" width="1199.934" height="352.083">
				<feColorMatrix  type="matrix" values="1 0 0 0 0  0 1 0 0 0  0 0 1 0 0  0 0 0 1 0"/>
			</filter>
		</defs>
		<mask maskUnits="userSpaceOnUse" x="14.187" y="38.912" width="1199.934" height="352.083" id="SVGID_8_">
			<g filter="url(#Adobe_OpacityMaskFilter_1_)">
				
					<linearGradient id="SVGID_9_" gradientUnits="userSpaceOnUse" x1="14.187" y1="390.9961" x2="15.187" y2="390.9961" gradientTransform="matrix(0 553.0063 553.0063 0 -215608.7188 -8007.7832)">
					<stop  offset="0" style="stop-color:#FFFFFF"/>
					<stop  offset="0.284" style="stop-color:#FFFFFF"/>
					<stop  offset="1" style="stop-color:#808080"/>
				</linearGradient>
				<rect x="14.187" y="38.912" clip-path="url(#SVGID_7_)" fill="url(#SVGID_9_)" width="1199.934" height="352.083"/>
			</g>
		</mask>
		
			<linearGradient id="SVGID_10_" gradientUnits="userSpaceOnUse" x1="14.187" y1="390.9951" x2="15.187" y2="390.9951" gradientTransform="matrix(0 553.0062 553.0062 0 -215608.7188 -8007.2461)">
			<stop  offset="0" style="stop-color:#0196FF"/>
			<stop  offset="0.284" style="stop-color:#0196FF"/>
			<stop  offset="1" style="stop-color:#0196FF"/>
		</linearGradient>
		
			<rect x="14.187" y="38.912" clip-path="url(#SVGID_7_)" mask="url(#SVGID_8_)" fill="url(#SVGID_10_)" width="1199.934" height="352.083"/>
	</g>
</g>
</svg>
