<?xml version="1.0" encoding="utf-8"?>
<!-- Generator: Adobe Illustrator 15.0.2, SVG Export Plug-In  -->
<!DOCTYPE svg PUBLIC "-//W3C//DTD SVG 1.1//EN" "http://www.w3.org/Graphics/SVG/1.1/DTD/svg11.dtd" [
	<!ENTITY ns_flows "http://ns.adobe.com/Flows/1.0/">
]>
<svg version="1.1"
	 xmlns="http://www.w3.org/2000/svg" xmlns:xlink="http://www.w3.org/1999/xlink" xmlns:a="http://ns.adobe.com/AdobeSVGViewerExtensions/3.0/"
	 x="0px" y="0px" width="1200px" height="750px" viewBox="14.547 -349.917 1200 750"
	 enable-background="new 14.547 -349.917 1200 750" xml:space="preserve">
<defs>
</defs>
<g>
	<g>
		<defs>
			<path id="SVGID_2_" d="M14.547,171.975v228.108h1199.934V110c-42.953-27.893-85.675-51.417-176.342-51.417
				C855.349,58.583,838.473,182,639.493,182C436.472,182,405.348,0,254.354,0C135.243,0,71.524,146.894,14.547,171.975"/>
		</defs>
		<clipPath id="SVGID_3_">
			<use xlink:href="#SVGID_2_"  overflow="visible"/>
		</clipPath>
		<defs>
			<filter id="Adobe_OpacityMaskFilter" filterUnits="userSpaceOnUse" x="14.547" y="0" width="1199.934" height="400.083">
				<feColorMatrix  type="matrix" values="1 0 0 0 0  0 1 0 0 0  0 0 1 0 0  0 0 0 1 0"/>
			</filter>
		</defs>
		<mask maskUnits="userSpaceOnUse" x="14.547" y="0" width="1199.934" height="400.083" id="SVGID_4_">
			<g filter="url(#Adobe_OpacityMaskFilter)">
				
					<linearGradient id="SVGID_5_" gradientUnits="userSpaceOnUse" x1="14.5474" y1="400.083" x2="15.5474" y2="400.083" gradientTransform="matrix(0 628.3984 628.3984 0 -250796.9688 -9369.9824)">
					<stop  offset="0" style="stop-color:#F0F0F0"/>
					<stop  offset="0" style="stop-color:#808080"/>
					<stop  offset="1" style="stop-color:#333333"/>
				</linearGradient>
				<rect x="14.547" clip-path="url(#SVGID_3_)" fill="url(#SVGID_5_)" width="1199.934" height="400.083"/>
			</g>
		</mask>
		
			<linearGradient id="SVGID_6_" gradientUnits="userSpaceOnUse" x1="14.5474" y1="400.083" x2="15.5474" y2="400.083" gradientTransform="matrix(0 628.3984 628.3984 0 -250796.9688 -9369.9824)">
			<stop  offset="0" style="stop-color:#0196FF"/>
			<stop  offset="0" style="stop-color:#0196FF"/>
			<stop  offset="1" style="stop-color:#0196FF"/>
		</linearGradient>
		<rect x="14.547" clip-path="url(#SVGID_3_)" mask="url(#SVGID_4_)" fill="url(#SVGID_6_)" width="1199.934" height="400.083"/>
	</g>
	<g>
		<defs>
			<path id="SVGID_1_" d="M252.625,201.586C146.764,201.586,137.473,162,14.547,132v268.083h1199.998L1214.481,161
				c0,0-63.569,48.041-180.004,48.041c-169.001,0-227.004-158.709-419.93-158.709C455.302,50.332,394.572,201.586,252.625,201.586"
				/>
		</defs>
		<clipPath id="SVGID_7_">
			<use xlink:href="#SVGID_1_"  overflow="visible"/>
		</clipPath>
		<defs>
			<filter id="Adobe_OpacityMaskFilter_1_" filterUnits="userSpaceOnUse" x="0" y="0.42" width="1229.092" height="449.575">
				<feColorMatrix  type="matrix" values="1 0 0 0 0  0 1 0 0 0  0 0 1 0 0  0 0 0 1 0"/>
			</filter>
		</defs>
		<mask maskUnits="userSpaceOnUse" x="0" y="0.42" width="1229.092" height="449.575" id="SVGID_8_">
			<g filter="url(#Adobe_OpacityMaskFilter_1_)">
				
					<linearGradient id="SVGID_9_" gradientUnits="userSpaceOnUse" x1="14.5474" y1="400.0791" x2="15.5474" y2="400.0791" gradientTransform="matrix(-16.4621 395.0971 395.0971 16.4621 -157206.875 -12321.1045)">
					<stop  offset="0" style="stop-color:#FFFFFF"/>
					<stop  offset="0" style="stop-color:#FFFFFF"/>
					<stop  offset="1" style="stop-color:#808080"/>
				</linearGradient>
				<polygon clip-path="url(#SVGID_7_)" fill="url(#SVGID_9_)" points="1229.092,50.938 1212.465,449.994 0,399.476 16.627,0.419 
									"/>
			</g>
		</mask>
		
			<linearGradient id="SVGID_10_" gradientUnits="userSpaceOnUse" x1="14.5474" y1="400.0771" x2="15.5474" y2="400.0771" gradientTransform="matrix(-16.4621 395.0971 395.0971 16.4621 -157206.875 -12321.123)">
			<stop  offset="0" style="stop-color:#0196FF"/>
			<stop  offset="0" style="stop-color:#0196FF"/>
			<stop  offset="1" style="stop-color:#0196FF"/>
		</linearGradient>
		<polygon clip-path="url(#SVGID_7_)" mask="url(#SVGID_8_)" fill="url(#SVGID_10_)" points="1229.092,50.938 1212.465,449.995 
			0,399.477 16.627,0.42 		"/>
	</g>
</g>
</svg>
