<?xml version="1.0" encoding="utf-8"?>
<!-- Generator: Adobe Illustrator 15.0.2, SVG Export Plug-In  -->
<!DOCTYPE svg PUBLIC "-//W3C//DTD SVG 1.1//EN" "http://www.w3.org/Graphics/SVG/1.1/DTD/svg11.dtd" [
	<!ENTITY ns_flows "http://ns.adobe.com/Flows/1.0/">
]>
<svg version="1.1"
	 xmlns="http://www.w3.org/2000/svg" xmlns:xlink="http://www.w3.org/1999/xlink" xmlns:a="http://ns.adobe.com/AdobeSVGViewerExtensions/3.0/"
	 x="0px" y="0px" width="1200px" height="750px" viewBox="16.197 -310.671 1200 750"
	 enable-background="new 16.197 -310.671 1200 750" xml:space="preserve">
<defs>
</defs>
<g>
	<g>
		<defs>
			<path id="SVGID_2_" d="M616.131,221.246c-188.198,0-209.133-118-360.127-118c-119.111,0-182.83,106.92-239.807,131.972v204.111
				h1199.934V114.116c-39.196-28.334-74.008-74.87-172.008-74.87C861.333,39.246,841.916,221.246,616.131,221.246"/>
		</defs>
		<clipPath id="SVGID_3_">
			<use xlink:href="#SVGID_2_"  overflow="visible"/>
		</clipPath>
		<defs>
			<filter id="Adobe_OpacityMaskFilter" filterUnits="userSpaceOnUse" x="16.197" y="39.246" width="1199.934" height="400.083">
				<feColorMatrix  type="matrix" values="1 0 0 0 0  0 1 0 0 0  0 0 1 0 0  0 0 0 1 0"/>
			</filter>
		</defs>
		<mask maskUnits="userSpaceOnUse" x="16.197" y="39.246" width="1199.934" height="400.083" id="SVGID_4_">
			<g filter="url(#Adobe_OpacityMaskFilter)">
				
					<linearGradient id="SVGID_5_" gradientUnits="userSpaceOnUse" x1="16.1973" y1="439.3291" x2="17.1973" y2="439.3291" gradientTransform="matrix(0 628.3984 628.3984 0 -275457.5 -10367.5322)">
					<stop  offset="0" style="stop-color:#F0F0F0"/>
					<stop  offset="0" style="stop-color:#808080"/>
					<stop  offset="1" style="stop-color:#333333"/>
				</linearGradient>
				<rect x="16.197" y="39.246" clip-path="url(#SVGID_3_)" fill="url(#SVGID_5_)" width="1199.934" height="400.083"/>
			</g>
		</mask>
		
			<linearGradient id="SVGID_6_" gradientUnits="userSpaceOnUse" x1="16.1973" y1="439.3291" x2="17.1973" y2="439.3291" gradientTransform="matrix(0 628.3984 628.3984 0 -275457.5 -10367.5322)">
			<stop  offset="0" style="stop-color:#0196FF"/>
			<stop  offset="0" style="stop-color:#0196FF"/>
			<stop  offset="1" style="stop-color:#0196FF"/>
		</linearGradient>
		
			<rect x="16.197" y="39.246" clip-path="url(#SVGID_3_)" mask="url(#SVGID_4_)" fill="url(#SVGID_6_)" width="1199.934" height="400.083"/>
	</g>
	<g>
		<defs>
			<path id="SVGID_1_" d="M254.275,240.832c-105.861,0-129.576-49.042-238.078-92.586v291.083h1199.998l-0.064-239.083
				c0,0-63.569,48.041-180.004,48.041c-169.001,0-227.004-198.375-419.93-198.375C456.952,49.912,396.222,240.832,254.275,240.832"
				/>
		</defs>
		<clipPath id="SVGID_7_">
			<use xlink:href="#SVGID_1_"  overflow="visible"/>
		</clipPath>
		<defs>
			<filter id="Adobe_OpacityMaskFilter_1_" filterUnits="userSpaceOnUse" x="0" y="0" width="1232.393" height="489.241">
				<feColorMatrix  type="matrix" values="1 0 0 0 0  0 1 0 0 0  0 0 1 0 0  0 0 0 1 0"/>
			</filter>
		</defs>
		<mask maskUnits="userSpaceOnUse" x="0" y="0" width="1232.393" height="489.241" id="SVGID_8_">
			<g filter="url(#Adobe_OpacityMaskFilter_1_)">
				
					<linearGradient id="SVGID_9_" gradientUnits="userSpaceOnUse" x1="16.1973" y1="439.3242" x2="17.1973" y2="439.3242" gradientTransform="matrix(-18.1775 436.2692 436.2692 18.1775 -190743.125 -15043.6074)">
					<stop  offset="0" style="stop-color:#FFFFFF"/>
					<stop  offset="0" style="stop-color:#FFFFFF"/>
					<stop  offset="1" style="stop-color:#808080"/>
				</linearGradient>
				<polygon clip-path="url(#SVGID_7_)" fill="url(#SVGID_9_)" points="1232.393,50.586 1214.115,489.24 0,438.653 18.277,-0.001 
									"/>
			</g>
		</mask>
		
			<linearGradient id="SVGID_10_" gradientUnits="userSpaceOnUse" x1="16.1973" y1="439.3242" x2="17.1973" y2="439.3242" gradientTransform="matrix(-18.1775 436.2692 436.2692 18.1775 -190743.1406 -15043.6104)">
			<stop  offset="0" style="stop-color:#0196FF"/>
			<stop  offset="0" style="stop-color:#0196FF"/>
			<stop  offset="1" style="stop-color:#0196FF"/>
		</linearGradient>
		<polygon clip-path="url(#SVGID_7_)" mask="url(#SVGID_8_)" fill="url(#SVGID_10_)" points="1232.393,50.587 1214.115,489.241 
			0,438.654 18.277,0 		"/>
	</g>
</g>
</svg>
