<?xml version="1.0" encoding="utf-8"?>
<!-- Generator: Adobe Illustrator 15.0.2, SVG Export Plug-In  -->
<!DOCTYPE svg PUBLIC "-//W3C//DTD SVG 1.1//EN" "http://www.w3.org/Graphics/SVG/1.1/DTD/svg11.dtd" [
	<!ENTITY ns_flows "http://ns.adobe.com/Flows/1.0/">
]>
<svg version="1.1"
	 xmlns="http://www.w3.org/2000/svg" xmlns:xlink="http://www.w3.org/1999/xlink" xmlns:a="http://ns.adobe.com/AdobeSVGViewerExtensions/3.0/"
	 x="0px" y="0px" width="1200px" height="750px" viewBox="13.003 -386 1200 750" enable-background="new 13.003 -386 1200 750"
	 xml:space="preserve">
<defs>
</defs>
<g>
	<g>
		<defs>
			<path id="SVGID_2_" d="M992.003,51.387C866.01,51.941,694.069,154.359,564.003,160c-156,6.766-210.332-96.08-327-101
				c-109.918-4.636-132.936,51.586-224,63.917L13.941,364h1199.062V109.917c-96.936-11.051-100.947-58.538-219.042-58.535
				C993.315,51.383,992.655,51.384,992.003,51.387"/>
		</defs>
		<clipPath id="SVGID_3_">
			<use xlink:href="#SVGID_2_"  overflow="visible"/>
		</clipPath>
		<defs>
			<filter id="Adobe_OpacityMaskFilter" filterUnits="userSpaceOnUse" x="0" y="1.467" width="1226.006" height="412.445">
				<feColorMatrix  type="matrix" values="1 0 0 0 0  0 1 0 0 0  0 0 1 0 0  0 0 0 1 0"/>
			</filter>
		</defs>
		<mask maskUnits="userSpaceOnUse" x="0" y="1.467" width="1226.006" height="412.445" id="SVGID_4_">
			<g filter="url(#Adobe_OpacityMaskFilter)">
				
					<linearGradient id="SVGID_5_" gradientUnits="userSpaceOnUse" x1="13.0029" y1="363.9951" x2="14.0029" y2="363.9951" gradientTransform="matrix(-15.3246 367.7964 367.7964 15.3246 -133055.1406 -10359.9375)">
					<stop  offset="0" style="stop-color:#FFFFFF"/>
					<stop  offset="0" style="stop-color:#595959"/>
					<stop  offset="1" style="stop-color:#424242"/>
				</linearGradient>
				<polygon clip-path="url(#SVGID_3_)" fill="url(#SVGID_5_)" points="1226.006,51.921 1210.923,413.912 0,363.458 15.083,1.467 
									"/>
			</g>
		</mask>
		
			<linearGradient id="SVGID_6_" gradientUnits="userSpaceOnUse" x1="13.0029" y1="363.9951" x2="14.0029" y2="363.9951" gradientTransform="matrix(-15.3246 367.7964 367.7964 15.3246 -133055.1406 -10359.9375)">
			<stop  offset="0" style="stop-color:#0196FF"/>
			<stop  offset="0" style="stop-color:#0196FF"/>
			<stop  offset="1" style="stop-color:#0196FF"/>
		</linearGradient>
		<polygon clip-path="url(#SVGID_3_)" mask="url(#SVGID_4_)" fill="url(#SVGID_6_)" points="1226.006,51.921 1210.923,413.912 
			0,363.458 15.083,1.467 		"/>
	</g>
	<g>
		<defs>
			<path id="SVGID_1_" d="M176.83,175.546c-77.795-6.629-52.827-7.629-163.827-52.629L13.941,364h1199.062V109.917
				c-84.371,3-110,72.583-217,68C881.25,173.002,781.585,0,613.94,0S322.003,187.917,176.83,175.546"/>
		</defs>
		<clipPath id="SVGID_7_">
			<use xlink:href="#SVGID_1_"  overflow="visible"/>
		</clipPath>
		<defs>
			<filter id="Adobe_OpacityMaskFilter_1_" filterUnits="userSpaceOnUse" x="13.003" y="1" width="1200" height="363">
				<feColorMatrix  type="matrix" values="1 0 0 0 0  0 1 0 0 0  0 0 1 0 0  0 0 0 1 0"/>
			</filter>
		</defs>
		<mask maskUnits="userSpaceOnUse" x="13.003" y="1" width="1200" height="363" id="SVGID_8_">
			<g filter="url(#Adobe_OpacityMaskFilter_1_)">
				
					<linearGradient id="SVGID_9_" gradientUnits="userSpaceOnUse" x1="13.0029" y1="364" x2="14.0029" y2="364" gradientTransform="matrix(0 570.1532 570.1532 0 -206922.4688 -7619.5811)">
					<stop  offset="0" style="stop-color:#F0F0F0"/>
					<stop  offset="0" style="stop-color:#FFFFFF"/>
					<stop  offset="1" style="stop-color:#949494"/>
				</linearGradient>
				<rect x="13.003" y="1" clip-path="url(#SVGID_7_)" fill="url(#SVGID_9_)" width="1200" height="363"/>
			</g>
		</mask>
		
			<linearGradient id="SVGID_10_" gradientUnits="userSpaceOnUse" x1="13.0029" y1="364" x2="14.0029" y2="364" gradientTransform="matrix(0 570.1532 570.1532 0 -206922.4688 -7619.5811)">
			<stop  offset="0" style="stop-color:#0196FF"/>
			<stop  offset="0" style="stop-color:#0196FF"/>
			<stop  offset="1" style="stop-color:#0196FF"/>
		</linearGradient>
		<rect x="13.003" y="1" clip-path="url(#SVGID_7_)" mask="url(#SVGID_8_)" fill="url(#SVGID_10_)" width="1200" height="363"/>
	</g>
</g>
</svg>
