<?xml version="1.0" encoding="utf-8"?>
<!-- Generator: Adobe Illustrator 15.0.2, SVG Export Plug-In  -->
<!DOCTYPE svg PUBLIC "-//W3C//DTD SVG 1.1//EN" "http://www.w3.org/Graphics/SVG/1.1/DTD/svg11.dtd" [
	<!ENTITY ns_flows "http://ns.adobe.com/Flows/1.0/">
]>
<svg version="1.1"
	 xmlns="http://www.w3.org/2000/svg" xmlns:xlink="http://www.w3.org/1999/xlink" xmlns:a="http://ns.adobe.com/AdobeSVGViewerExtensions/3.0/"
	 x="0px" y="0px" width="1200px" height="750px" viewBox="16.641 -300.005 1200 750"
	 enable-background="new 16.641 -300.005 1200 750" xml:space="preserve">
<defs>
</defs>
<g>
	<g>
		<defs>
			<path id="SVGID_2_" d="M254.719,251.498c-105.861,0-115.152-68.086-238.078-98.086v296.583h1199.998l-0.064-259.583
				c0,0-63.008,68.541-172.019,68.541c-168.999,0-224.031-209.041-416.957-209.041C461.567,49.912,396.666,251.498,254.719,251.498"
				/>
		</defs>
		<clipPath id="SVGID_3_">
			<use xlink:href="#SVGID_2_"  overflow="visible"/>
		</clipPath>
		<defs>
			<filter id="Adobe_OpacityMaskFilter" filterUnits="userSpaceOnUse" x="0" y="0" width="1233.28" height="499.907">
				<feColorMatrix  type="matrix" values="1 0 0 0 0  0 1 0 0 0  0 0 1 0 0  0 0 0 1 0"/>
			</filter>
		</defs>
		<mask maskUnits="userSpaceOnUse" x="0" y="0" width="1233.28" height="499.907" id="SVGID_4_">
			<g filter="url(#Adobe_OpacityMaskFilter)">
				
					<linearGradient id="SVGID_5_" gradientUnits="userSpaceOnUse" x1="16.6411" y1="449.9912" x2="17.6411" y2="449.9912" gradientTransform="matrix(-18.6588 447.8195 447.8195 18.6588 -200577.0625 -15841.5)">
					<stop  offset="0" style="stop-color:#F0F0F0"/>
					<stop  offset="0" style="stop-color:#808080"/>
					<stop  offset="1" style="stop-color:#333333"/>
				</linearGradient>
				<polygon clip-path="url(#SVGID_3_)" fill="url(#SVGID_5_)" points="1233.28,50.605 1214.559,499.907 0,449.302 18.721,0 				"/>
			</g>
		</mask>
		
			<linearGradient id="SVGID_6_" gradientUnits="userSpaceOnUse" x1="16.6411" y1="449.9912" x2="17.6411" y2="449.9912" gradientTransform="matrix(-18.6588 447.8195 447.8195 18.6588 -200577.0625 -15841.5)">
			<stop  offset="0" style="stop-color:#0196FF"/>
			<stop  offset="0" style="stop-color:#0196FF"/>
			<stop  offset="1" style="stop-color:#0196FF"/>
		</linearGradient>
		<polygon clip-path="url(#SVGID_3_)" mask="url(#SVGID_4_)" fill="url(#SVGID_6_)" points="1233.28,50.605 1214.559,499.907 
			0,449.302 18.721,0 		"/>
	</g>
	<g>
		<defs>
			<path id="SVGID_1_" d="M16.641,218.883v231.112h1199.934V149.32c-24.008-19.908-69.675-49.741-160.008-49.741
				c-182.79,0-214.207,132.333-439.992,132.333c-188.198,0-209.133-171.334-360.127-171.334
				C137.337,60.578,73.618,193.812,16.641,218.883"/>
		</defs>
		<clipPath id="SVGID_7_">
			<use xlink:href="#SVGID_1_"  overflow="visible"/>
		</clipPath>
		<defs>
			<filter id="Adobe_OpacityMaskFilter_1_" filterUnits="userSpaceOnUse" x="16.641" y="60.578" width="1199.934" height="389.417">
				<feColorMatrix  type="matrix" values="1 0 0 0 0  0 1 0 0 0  0 0 1 0 0  0 0 0 1 0"/>
			</filter>
		</defs>
		<mask maskUnits="userSpaceOnUse" x="16.641" y="60.578" width="1199.934" height="389.417" id="SVGID_8_">
			<g filter="url(#Adobe_OpacityMaskFilter_1_)">
				
					<linearGradient id="SVGID_9_" gradientUnits="userSpaceOnUse" x1="16.6411" y1="449.9951" x2="17.6411" y2="449.9951" gradientTransform="matrix(0 611.6445 611.6445 0 -274620.3438 -10340.1699)">
					<stop  offset="0" style="stop-color:#FFFFFF"/>
					<stop  offset="0.3281" style="stop-color:#FFFFFF"/>
					<stop  offset="1" style="stop-color:#808080"/>
				</linearGradient>
				<rect x="16.641" y="60.578" clip-path="url(#SVGID_7_)" fill="url(#SVGID_9_)" width="1199.934" height="389.417"/>
			</g>
		</mask>
		
			<linearGradient id="SVGID_10_" gradientUnits="userSpaceOnUse" x1="16.6411" y1="449.9951" x2="17.6411" y2="449.9951" gradientTransform="matrix(0 611.6445 611.6445 0 -274620.3438 -10340.1699)">
			<stop  offset="0" style="stop-color:#0196FF"/>
			<stop  offset="0.3281" style="stop-color:#0196FF"/>
			<stop  offset="1" style="stop-color:#0196FF"/>
		</linearGradient>
		
			<rect x="16.641" y="60.578" clip-path="url(#SVGID_7_)" mask="url(#SVGID_8_)" fill="url(#SVGID_10_)" width="1199.934" height="389.417"/>
	</g>
</g>
</svg>
