<?xml version="1.0" encoding="utf-8"?>
<!-- Generator: Adobe Illustrator 15.0.2, SVG Export Plug-In  -->
<!DOCTYPE svg PUBLIC "-//W3C//DTD SVG 1.1//EN" "http://www.w3.org/Graphics/SVG/1.1/DTD/svg11.dtd" [
	<!ENTITY ns_flows "http://ns.adobe.com/Flows/1.0/">
]>
<svg version="1.1"
	 xmlns="http://www.w3.org/2000/svg" xmlns:xlink="http://www.w3.org/1999/xlink" xmlns:a="http://ns.adobe.com/AdobeSVGViewerExtensions/3.0/"
	 x="0px" y="0px" width="1200px" height="750px" viewBox="13.979 -360.583 1200 750"
	 enable-background="new 13.979 -360.583 1200 750" xml:space="preserve">
<defs>
</defs>
<g>
	<g>
		<defs>
			<path id="SVGID_2_" d="M252.057,190.92c-105.861,0-115.152-39.586-238.078-69.586v268.083h1199.998l-0.064-239.083
				c0,0-63.569,48.041-180.004,48.041c-169.001,0-227.004-145.041-419.93-145.041C454.734,53.334,394.004,190.92,252.057,190.92"/>
		</defs>
		<clipPath id="SVGID_3_">
			<use xlink:href="#SVGID_2_"  overflow="visible"/>
		</clipPath>
		<defs>
			<filter id="Adobe_OpacityMaskFilter" filterUnits="userSpaceOnUse" x="0" y="3.422" width="1227.956" height="435.907">
				<feColorMatrix  type="matrix" values="1 0 0 0 0  0 1 0 0 0  0 0 1 0 0  0 0 0 1 0"/>
			</filter>
		</defs>
		<mask maskUnits="userSpaceOnUse" x="0" y="3.422" width="1227.956" height="435.907" id="SVGID_4_">
			<g filter="url(#Adobe_OpacityMaskFilter)">
				
					<linearGradient id="SVGID_5_" gradientUnits="userSpaceOnUse" x1="13.979" y1="389.4131" x2="14.979" y2="389.4131" gradientTransform="matrix(-15.8713 380.9176 380.9176 15.8713 -147489.9531 -11488.2012)">
					<stop  offset="0" style="stop-color:#F0F0F0"/>
					<stop  offset="0" style="stop-color:#808080"/>
					<stop  offset="1" style="stop-color:#333333"/>
				</linearGradient>
				<polygon clip-path="url(#SVGID_3_)" fill="url(#SVGID_5_)" points="1227.956,53.915 1211.897,439.328 0,388.834 16.059,3.421 
									"/>
			</g>
		</mask>
		
			<linearGradient id="SVGID_6_" gradientUnits="userSpaceOnUse" x1="13.979" y1="389.4121" x2="14.979" y2="389.4121" gradientTransform="matrix(-15.8713 380.9176 380.9176 15.8713 -147489.9531 -11488.2119)">
			<stop  offset="0" style="stop-color:#0196FF"/>
			<stop  offset="0" style="stop-color:#0196FF"/>
			<stop  offset="1" style="stop-color:#0196FF"/>
		</linearGradient>
		<polygon clip-path="url(#SVGID_3_)" mask="url(#SVGID_4_)" fill="url(#SVGID_6_)" points="1227.956,53.916 1211.897,439.329 
			0,388.835 16.059,3.422 		"/>
	</g>
	<g>
		<defs>
			<path id="SVGID_1_" d="M613.913,171.334c-188.198,0-209.133-108.666-360.127-108.666c-119.111,0-182.83,97.592-239.807,122.638
				v204.111h1199.934V77.334C1166.92,49.467,1139.905,0,1041.905,0C859.115,0,839.698,171.334,613.913,171.334"/>
		</defs>
		<clipPath id="SVGID_7_">
			<use xlink:href="#SVGID_1_"  overflow="visible"/>
		</clipPath>
		<defs>
			<filter id="Adobe_OpacityMaskFilter_1_" filterUnits="userSpaceOnUse" x="13.979" y="0" width="1199.934" height="389.417">
				<feColorMatrix  type="matrix" values="1 0 0 0 0  0 1 0 0 0  0 0 1 0 0  0 0 0 1 0"/>
			</filter>
		</defs>
		<mask maskUnits="userSpaceOnUse" x="13.979" y="0" width="1199.934" height="389.417" id="SVGID_8_">
			<g filter="url(#Adobe_OpacityMaskFilter_1_)">
				
					<linearGradient id="SVGID_9_" gradientUnits="userSpaceOnUse" x1="13.979" y1="389.417" x2="14.979" y2="389.417" gradientTransform="matrix(0 448.0045 448.0045 0 -173846.6406 -6324.4312)">
					<stop  offset="0" style="stop-color:#FFFFFF"/>
					<stop  offset="0.1061" style="stop-color:#FFFFFF"/>
					<stop  offset="1" style="stop-color:#808080"/>
				</linearGradient>
				<rect x="13.979" clip-path="url(#SVGID_7_)" fill="url(#SVGID_9_)" width="1199.934" height="389.417"/>
			</g>
		</mask>
		
			<linearGradient id="SVGID_10_" gradientUnits="userSpaceOnUse" x1="13.979" y1="389.417" x2="14.979" y2="389.417" gradientTransform="matrix(0 448.0045 448.0045 0 -173846.6406 -6324.4312)">
			<stop  offset="0" style="stop-color:#0196FF"/>
			<stop  offset="0.1061" style="stop-color:#0196FF"/>
			<stop  offset="1" style="stop-color:#0196FF"/>
		</linearGradient>
		<rect x="13.979" clip-path="url(#SVGID_7_)" mask="url(#SVGID_8_)" fill="url(#SVGID_10_)" width="1199.934" height="389.417"/>
	</g>
</g>
</svg>
