<svg width="886" height="887" viewBox="0 0 886 887">
  <g id="ind-circles">
    <g id="circle4" fill="none" stroke="#505F8D" stroke-width="1.5" stroke-miterlimit="10">
      <path d="M422.586 186.806c8.198-.787 16.51-1.19 24.914-1.19 142.214 0 257.5 115.287 257.5 257.5 0 142.215-115.286 257.5-257.5 257.5-42.917 0-83.38-10.497-118.963-29.067M257.39 616.797C215.533 571.007 190 510.043 190 443.117c0-109.728 68.632-203.426 165.31-240.507"/>
    </g>
    <g id="circle3">
      <path fill="none" stroke="#505F8D" stroke-width="1.5" stroke-miterlimit="10" d="M639.455 181.453C719.832 240.517 772 335.723 772 443.116c0 157.16-111.723 288.224-260.078 318.104M388.784 762.317C237.596 734.687 123 602.283 123 443.117c0-179.218 145.283-324.5 324.5-324.5 21.81 0 43.114 2.15 63.717 6.252" opacity=".2"/>
    </g>
    <g id="circle2" fill="none" stroke="#505F8D" stroke-width="1.5" stroke-miterlimit="10">
      <path d="M220.145 145.502c63.04-48.23 141.85-76.886 227.355-76.886 206.83 0 374.5 167.67 374.5 374.5 0 87.427-29.958 167.855-80.168 231.583M599.033 785.69c-46.33 20.524-97.6 31.926-151.533 31.926-206.83 0-374.5-167.67-374.5-374.5 0-60.453 14.324-117.562 39.763-168.114"/>
    </g>
    <path fill="none" stroke="#505F8D" stroke-width="1.5" stroke-miterlimit="10" d="M879.05 531.893C837.977 732.62 660.37 883.616 447.5 883.616c-243.28 0-440.5-197.22-440.5-440.5 0-243.282 197.22-440.5 440.5-440.5 195.817 0 361.793 127.77 419.102 304.49" id="circle1" opacity=".2"/>
  </g>
</svg>
