<svg id="ind_x5F_icon_x5F_3" xmlns="http://www.w3.org/2000/svg" width="172" height="208" viewBox="0 0 172 208">
  <g id="fadein-down-3">
    <path fill="#00133E" d="M14.233 169.95h-3.89c-4.653 0-8.426-3.77-8.426-8.425v-41.298c0-4.653 3.773-8.426 8.426-8.426h3.89"/>
    <path fill="none" stroke="#082765" stroke-width="1.5" stroke-linecap="round" stroke-linejoin="round" stroke-miterlimit="10" d="M14.233 169.95h-3.89c-4.653 0-8.426-3.77-8.426-8.425v-41.298c0-4.653 3.773-8.426 8.426-8.426h3.89"/>
    <path fill="#00133E" d="M151.92 126.722h3.89c4.654 0 8.427 3.77 8.427 8.426v41.298c0 4.653-3.772 8.426-8.426 8.426h-3.89"/>
    <path fill="none" stroke="#082765" stroke-width="1.5" stroke-linecap="round" stroke-linejoin="round" stroke-miterlimit="10" d="M151.92 126.722h3.89c4.654 0 8.427 3.77 8.427 8.426v41.298c0 4.653-3.772 8.426-8.426 8.426h-3.89"/>
  </g>
  <g id="fadein-down-2">
    <path fill="#00133E" d="M26.86 175.506H23.5c-5.544 0-10.037-4.493-10.037-10.036v-49.187c0-5.543 4.493-10.036 10.036-10.036h3.36"/>
    <path fill="none" stroke="#143C81" stroke-width="1.5" stroke-linecap="round" stroke-linejoin="round" stroke-miterlimit="10" d="M26.86 175.506H23.5c-5.544 0-10.037-4.493-10.037-10.036v-49.187c0-5.543 4.493-10.036 10.036-10.036h3.36"/>
    <path fill="#00133E" d="M139.294 121.167h3.36c5.543 0 10.036 4.493 10.036 10.036v49.188c0 5.543-4.493 10.036-10.036 10.036h-3.36"/>
    <path fill="none" stroke="#143C81" stroke-width="1.5" stroke-linecap="round" stroke-linejoin="round" stroke-miterlimit="10" d="M139.294 121.167h3.36c5.543 0 10.036 4.493 10.036 10.036v49.188c0 5.543-4.493 10.036-10.036 10.036h-3.36"/>
  </g>
  <g id="fadein-up-1">
    <path fill="#00133E" d="M89.262 94.044l-6.406-1.264c-3.777-.745-6.258-4.445-5.513-8.222l2.37-12.01c.744-3.778 4.444-6.26 8.22-5.514l6.407 1.264c3.777.745 6.258 4.445 5.513 8.222l-2.37 12.01c-.744 3.778-4.444 6.26-8.22 5.514"/>
    <path fill="none" stroke="#285FAF" stroke-width="1.5" stroke-linecap="round" stroke-linejoin="round" stroke-miterlimit="10" d="M89.262 94.044l-6.406-1.264c-3.777-.745-6.258-4.445-5.513-8.222l2.37-12.01c.744-3.778 4.444-6.26 8.22-5.514l6.407 1.264c3.777.745 6.258 4.445 5.513 8.222l-2.37 12.01c-.744 3.778-4.444 6.26-8.22 5.514z"/>
    <path fill="#00133E" d="M77.708 90.876V128.9l11.605 3.748 8.033-6.96V90.875z"/>
    <path fill="none" stroke="#285FAF" stroke-width="1.5" stroke-linecap="round" stroke-linejoin="round" stroke-miterlimit="10" d="M77.708 90.876V128.9l11.605 3.748 8.033-6.96V90.875z"/>
    <path fill="none" stroke="#285FAF" stroke-width="1.5" stroke-linecap="round" stroke-linejoin="round" stroke-miterlimit="10" d="M91.006 74.4l-3.973 16.476v19.11"/>
  </g>
  <g id="fadein-2">
    <g id="rotate-2">
      <path fill="#00133E" d="M115.676 65.184l8.913-35.63c2.158-8.63-2.416-17.42-10.35-20.826-3.848-.016-7.38 2.582-8.35 6.47l-13.47 53.84c-.974 3.893.928 7.856 4.34 9.647 8.596.722 16.76-4.877 18.916-13.5"/>
      <path fill="none" stroke="#285FAF" stroke-width="1.5" stroke-linecap="round" stroke-linejoin="round" stroke-miterlimit="10" d="M115.676 65.184l8.913-35.63c2.158-8.63-2.416-17.42-10.35-20.826-3.848-.016-7.38 2.582-8.35 6.47l-13.47 53.84c-.974 3.893.928 7.856 4.34 9.647 8.596.722 16.76-4.877 18.916-13.5z"/>
      <path fill="#00133E" d="M92.42 69.037l13.47-53.84c.973-3.886 4.504-6.484 8.35-6.468-.866-.373-1.76-.7-2.7-.934L95.38 3.754c-9.572-2.395-19.364 3.478-21.76 13.05l-8.912 35.63c-2.395 9.573 3.478 19.364 13.05 21.76l16.16 4.04c.948.24 1.897.372 2.844.452-3.413-1.79-5.315-5.754-4.34-9.65"/>
      <path fill="none" stroke="#285FAF" stroke-width="1.5" stroke-linecap="round" stroke-linejoin="round" stroke-miterlimit="10" d="M92.42 69.037l13.47-53.84c.973-3.886 4.504-6.484 8.35-6.468-.866-.373-1.76-.7-2.7-.934L95.38 3.754c-9.572-2.395-19.364 3.478-21.76 13.05l-8.912 35.63c-2.395 9.573 3.478 19.364 13.05 21.76l16.16 4.04c.948.24 1.897.372 2.844.452-3.413-1.79-5.315-5.754-4.34-9.65z"/>
      <path fill="none" stroke="#082765" stroke-width="1.5" stroke-linecap="round" stroke-linejoin="round" stroke-miterlimit="10" d="M74.302 15.153l8.537 2.368"/>
      <path fill="none" stroke="#082765" stroke-width="1.5" stroke-linecap="round" stroke-linejoin="round" stroke-miterlimit="10" d="M87.033 18.77l17.18 4.206 8.706 4.9"/>
      <path fill="none" stroke="#082765" stroke-width="1.5" stroke-linecap="round" stroke-linejoin="round" stroke-miterlimit="10" d="M72.16 25.864l8.536 2.368"/>
      <path fill="none" stroke="#082765" stroke-width="1.5" stroke-linecap="round" stroke-linejoin="round" stroke-miterlimit="10" d="M84.892 29.482l17.177 4.205 8.706 4.9"/>
      <path fill="none" stroke="#082765" stroke-width="1.5" stroke-linecap="round" stroke-linejoin="round" stroke-miterlimit="10" d="M70.017 36.575l8.537 2.368"/>
      <path fill="none" stroke="#082765" stroke-width="1.5" stroke-linecap="round" stroke-linejoin="round" stroke-miterlimit="10" d="M82.75 40.193l17.177 4.205 8.707 4.9"/>
      <path fill="none" stroke="#082765" stroke-width="1.5" stroke-linecap="round" stroke-linejoin="round" stroke-miterlimit="10" d="M67.875 47.286l8.537 2.368"/>
      <path fill="none" stroke="#082765" stroke-width="1.5" stroke-linecap="round" stroke-linejoin="round" stroke-miterlimit="10" d="M80.607 50.904l17.178 4.205 8.707 4.898"/>
      <path fill="#00133E" d="M91.486 3.427L88.814 8.56"/>
      <path fill="none" stroke="#285FAF" stroke-width="1.5" stroke-linecap="round" stroke-linejoin="round" stroke-miterlimit="10" d="M91.486 3.427L88.814 8.56"/>
      <path fill="#00133E" d="M95.77 4.498L93.1 9.63"/>
      <path fill="none" stroke="#285FAF" stroke-width="1.5" stroke-linecap="round" stroke-linejoin="round" stroke-miterlimit="10" d="M95.77 4.498L93.1 9.63"/>
      <path fill="#00133E" d="M100.056 5.57L97.384 10.7"/>
      <path fill="none" stroke="#285FAF" stroke-width="1.5" stroke-linecap="round" stroke-linejoin="round" stroke-miterlimit="10" d="M100.056 5.57L97.384 10.7"/>
      <path fill="#00133E" d="M104.34 6.64l-2.672 5.133"/>
      <path fill="none" stroke="#285FAF" stroke-width="1.5" stroke-linecap="round" stroke-linejoin="round" stroke-miterlimit="10" d="M104.34 6.64l-2.672 5.133"/>
      <path fill="none" stroke="#082765" stroke-width="1.5" stroke-linecap="round" stroke-linejoin="round" stroke-miterlimit="10" d="M73.214 70.787l-3.497-8.28.3-4.64"/>
      <path fill="none" stroke="#082765" stroke-width="1.5" stroke-linecap="round" stroke-linejoin="round" stroke-miterlimit="10" d="M78.57 72.93l-3.497-8.28.3-4.642"/>
      <path fill="none" stroke="#082765" stroke-width="1.5" stroke-linecap="round" stroke-linejoin="round" stroke-miterlimit="10" d="M83.926 74l-3.497-8.28.3-4.64"/>
      <path fill="none" stroke="#082765" stroke-width="1.5" stroke-linecap="round" stroke-linejoin="round" stroke-miterlimit="10" d="M88.21 75.07l-3.497-8.278.3-4.642"/>
    </g>
  </g>
  <g id="fadein-down-1">
    <path fill="#00133E" d="M35.9 109.986c-4.993 0-9.04-4.048-9.04-9.04s4.047-9.042 9.04-9.042h14.416v17.715"/>
    <path fill="none" stroke="#285FAF" stroke-width="1.5" stroke-linecap="round" stroke-linejoin="round" stroke-miterlimit="10" d="M35.9 109.986c-4.993 0-9.04-4.048-9.04-9.04s4.047-9.042 9.04-9.042h14.416v17.715"/>
    <path fill="#00133E" d="M130.253 187.37h-15.017v18.08h15.017c4.993 0 9.04-4.047 9.04-9.04 0-4.992-4.047-9.04-9.04-9.04"/>
    <path fill="none" stroke="#285FAF" stroke-width="1.5" stroke-linecap="round" stroke-linejoin="round" stroke-miterlimit="10" d="M130.253 187.37h-15.017v18.08h15.017c4.993 0 9.04-4.047 9.04-9.04 0-4.992-4.047-9.04-9.04-9.04z"/>
    <path fill="#00133E" d="M129.772 109.986h-93.87c-4.994 0-9.042-4.048-9.042-9.04v76.902c0 5.26 4.263 9.52 9.52 9.52h93.874c4.992 0 9.04 4.05 9.04 9.042v-76.904c0-5.257-4.263-9.52-9.522-9.52"/>
    <path fill="none" stroke="#285FAF" stroke-width="1.5" stroke-linecap="round" stroke-linejoin="round" stroke-miterlimit="10" d="M129.772 109.986h-93.87c-4.994 0-9.042-4.048-9.042-9.04v76.902c0 5.26 4.263 9.52 9.52 9.52h93.874c4.992 0 9.04 4.05 9.04 9.042v-76.904c0-5.257-4.263-9.52-9.522-9.52z"/>
  </g>
  <g id="fadein-1">
    <g id="rotate-1">
      <path fill="#005BFD" d="M78.538 134.95l18.077 11.315c1.78 1.115 1.78 3.71 0 4.824l-18.077 11.314c-1.895 1.187-4.356-.177-4.356-2.412v-22.63c0-2.235 2.46-3.597 4.356-2.41"/>
      <path fill="none" stroke="#1490E7" stroke-width="1.5" stroke-linecap="round" stroke-linejoin="round" stroke-miterlimit="10" d="M78.538 134.95l18.077 11.315c1.78 1.115 1.78 3.71 0 4.824l-18.077 11.314c-1.895 1.187-4.356-.177-4.356-2.412v-22.63c0-2.235 2.46-3.597 4.356-2.41z"/>
    </g>
    <g id="elements-1" fill="none" stroke="#082765" stroke-width="1.5" stroke-linecap="round" stroke-linejoin="round" stroke-miterlimit="10">
      <path d="M40.298 121.167c-1.68 0-3.044-1.363-3.044-3.044 0-1.682 1.363-3.044 3.044-3.044 1.68 0 3.044 1.36 3.044 3.043 0 1.68-1.363 3.044-3.044 3.044z"/>
      <path d="M57.69 121.167c-1.68 0-3.043-1.363-3.043-3.044 0-1.682 1.363-3.044 3.044-3.044 1.682 0 3.045 1.36 3.045 3.043 0 1.68-1.362 3.044-3.044 3.044z"/>
      <path d="M75.085 121.167c-1.68 0-3.044-1.363-3.044-3.044 0-1.682 1.364-3.044 3.045-3.044s3.044 1.36 3.044 3.043c0 1.68-1.364 3.044-3.045 3.044z"/>
      <path d="M92.48 121.167c-1.683 0-3.045-1.363-3.045-3.044 0-1.682 1.362-3.044 3.044-3.044 1.68 0 3.043 1.36 3.043 3.043 0 1.68-1.364 3.044-3.044 3.044z"/>
      <path d="M109.872 121.167c-1.682 0-3.045-1.363-3.045-3.044 0-1.682 1.363-3.044 3.045-3.044 1.68 0 3.044 1.36 3.044 3.043 0 1.68-1.363 3.044-3.044 3.044z"/>
      <path d="M127.265 121.167c-1.68 0-3.044-1.363-3.044-3.044 0-1.682 1.364-3.044 3.045-3.044 1.682 0 3.045 1.36 3.045 3.043 0 1.68-1.364 3.044-3.045 3.044z"/>
      <path d="M40.298 182.046c-1.68 0-3.044-1.363-3.044-3.044 0-1.682 1.363-3.044 3.044-3.044 1.68 0 3.044 1.362 3.044 3.044 0 1.68-1.363 3.044-3.044 3.044z"/>
      <path d="M57.69 182.046c-1.68 0-3.043-1.363-3.043-3.044 0-1.682 1.363-3.044 3.044-3.044 1.682 0 3.045 1.362 3.045 3.044 0 1.68-1.362 3.044-3.044 3.044z"/>
      <path d="M75.085 182.046c-1.68 0-3.044-1.363-3.044-3.044 0-1.682 1.364-3.044 3.045-3.044s3.044 1.362 3.044 3.044c0 1.68-1.364 3.044-3.045 3.044z"/>
      <path d="M92.48 182.046c-1.683 0-3.045-1.363-3.045-3.044 0-1.682 1.362-3.044 3.044-3.044 1.68 0 3.043 1.362 3.043 3.044 0 1.68-1.364 3.044-3.044 3.044z"/>
      <path d="M109.872 182.046c-1.682 0-3.045-1.363-3.045-3.044 0-1.682 1.363-3.044 3.045-3.044 1.68 0 3.044 1.362 3.044 3.044 0 1.68-1.363 3.044-3.044 3.044z"/>
      <path d="M127.265 182.046c-1.68 0-3.044-1.363-3.044-3.044 0-1.682 1.364-3.044 3.045-3.044 1.682 0 3.045 1.362 3.045 3.044 0 1.68-1.364 3.044-3.045 3.044z"/>
    </g>
  </g>
  <g id="fadein-right-1" fill="none" stroke="#082765" stroke-width="1.5" stroke-linecap="round" stroke-linejoin="round" stroke-miterlimit="10">
    <path d="M48.673 11.055L36.475 1.707"/>
    <path d="M43.895 22.466l-7.42-4.197"/>
    <path d="M40.98 32.983l-17.71-2.42"/>
    <path d="M40.185 41.36L26.79 43.154"/>
    <path d="M40.185 50.856l-8.06 5.608"/>
    <path d="M44.65 59.182l-2.73 4.494"/>
  </g>
  <g id="fadein-3" fill="none" stroke="#082765" stroke-width="1.5" stroke-linecap="round" stroke-linejoin="round" stroke-miterlimit="10">
    <g id="rotate-3">
      <circle cx="150.776" cy="73.781" r="4.784"/>
      <path d="M155.56 73.78v-14.2s2.767 5.082 5.606 5.007c2.84-.075 0 5.382 0 5.382"/>
    </g>
    <g id="rotate-4">
      <circle cx="148.863" cy="38.444" r="3.556"/>
      <path d="M152.29 37.496l-2.816-10.173s2.99 3.092 5.01 2.476c2.02-.618 1.066 3.854 1.066 3.854"/>
    </g>
  </g>
  <g id="rotate-5" fill="none" stroke="#082765" stroke-width="1.5" stroke-linecap="round" stroke-linejoin="round" stroke-miterlimit="10">
    <circle cx="161.769" cy="102.918" r="2.654"/>
    <path d="M164.28 103.775l2.546-7.457s.542 3.164 2.046 3.634c1.505.47-.964 2.826-.964 2.826"/>
  </g>
</svg>
