<svg id="ind_x5F_icon_x5F_7" xmlns="http://www.w3.org/2000/svg" width="151" height="191" viewBox="0 0 151 191">
  <g id="zoomin-circle-5" opacity=".7">
    <path fill="none" stroke="#0B285B" stroke-width="1.5" stroke-linecap="round" stroke-linejoin="round" stroke-miterlimit="10" d="M106.757 132.006c25.08 4.71 42.48 15.006 42.48 26.948 0 16.394-32.79 29.685-73.236 29.685-40.445 0-73.234-13.292-73.234-29.686 0-11.926 17.35-22.21 42.377-26.93"/>
  </g>
  <g id="zoomin-circle-4">
    <path fill="none" stroke="#0B285B" stroke-width="1.5" stroke-linecap="round" stroke-linejoin="round" stroke-miterlimit="10" d="M101.188 139.89c20.54 3.4 34.788 10.83 34.788 19.445 0 11.83-26.853 21.42-59.977 21.42s-59.977-9.59-59.977-21.42c0-8.605 14.21-16.025 34.705-19.43"/>
  </g>
  <g id="zoomin-circle-3">
    <path fill="none" stroke="#0E3179" stroke-width="1.5" stroke-linecap="round" stroke-linejoin="round" stroke-miterlimit="10" d="M95.936 145.163c16.257 2.52 27.532 8.034 27.532 14.427 0 8.777-21.252 15.893-47.467 15.893s-47.467-7.115-47.467-15.893c0-6.385 11.245-11.89 27.467-14.417"/>
  </g>
  <g id="zoomin-circle-2">
    <path fill="none" stroke="#1A3D82" stroke-width="1.5" stroke-linecap="round" stroke-linejoin="round" stroke-miterlimit="10" d="M90.106 149.17c11.504 1.692 19.483 5.392 19.483 9.682 0 5.89-15.04 10.664-33.59 10.664-18.552 0-33.59-4.775-33.59-10.664 0-4.285 7.958-7.98 19.436-9.674"/>
  </g>
  <g id="zoomin-circle-1">
    <path fill="none" stroke="#285FAF" stroke-width="1.5" stroke-linecap="round" stroke-linejoin="round" stroke-miterlimit="10" d="M83.195 153.51c7.32.792 12.504 2.756 12.504 5.055 0 2.997-8.82 5.427-19.7 5.427-10.88 0-19.7-2.43-19.7-5.427 0-2.3 5.184-4.264 12.506-5.055"/>
  </g>
  <g id="fadein-down-3">
    <path fill="#00133E" d="M130.7 16.837c-6.043-8.75-16.142-14.485-27.582-14.485-11.155 0-21.03 5.46-27.118 13.846C69.913 7.81 60.037 2.352 48.88 2.352c-11.092 0-20.926 5.393-27.022 13.7"/>
    <path fill="none" stroke="#082765" stroke-width="1.5" stroke-linecap="round" stroke-linejoin="round" stroke-miterlimit="10" d="M130.7 16.837c-6.043-8.75-16.142-14.485-27.582-14.485-11.155 0-21.03 5.46-27.118 13.846C69.913 7.81 60.037 2.352 48.88 2.352c-11.092 0-20.926 5.393-27.022 13.7"/>
  </g>
  <g id="fadein-down-2">
    <path fill="#00133E" d="M146.717 48.386c0-21.582-17.496-39.077-39.078-39.077-13.017 0-24.537 6.367-31.64 16.152C68.9 15.677 57.377 9.31 44.36 9.31c-21.58 0-39.077 17.494-39.077 39.076"/>
    <path fill="none" stroke="#143C81" stroke-width="1.5" stroke-linecap="round" stroke-linejoin="round" stroke-miterlimit="10" d="M146.717 48.386c0-21.582-17.496-39.077-39.078-39.077-13.017 0-24.537 6.367-31.64 16.152C68.9 15.677 57.377 9.31 44.36 9.31c-21.58 0-39.077 17.494-39.077 39.076"/>
  </g>
  <g id="fadein-down-1">
    <path fill="#00133E" d="M108.766 20.983c-13.48 0-25.41 6.596-32.766 16.73-7.354-10.133-19.287-16.73-32.766-16.73-22.35 0-40.47 18.12-40.47 40.47C2.767 115.818 76 157.726 76 157.726s5.473-3.132 13.426-8.794c21.14-15.05 59.81-47.975 59.81-87.48-.002-22.35-18.12-40.47-40.47-40.47"/>
    <path fill="none" stroke="#285FAF" stroke-width="1.5" stroke-linecap="round" stroke-linejoin="round" stroke-miterlimit="10" d="M108.766 20.983c-13.48 0-25.41 6.596-32.766 16.73-7.354-10.133-19.287-16.73-32.766-16.73-22.35 0-40.47 18.12-40.47 40.47C2.767 115.818 76 157.726 76 157.726s5.473-3.132 13.426-8.794c21.14-15.05 59.81-47.975 59.81-87.48-.002-22.35-18.12-40.47-40.47-40.47z"/>
  </g>
  <g id="zoomin-1">
    <path fill="#005BFD" d="M102.477 86.57c0 14.624-11.854 26.478-26.477 26.478-14.623 0-26.477-11.854-26.477-26.477 0-14.62 11.854-26.475 26.477-26.475 14.622 0 26.477 11.855 26.477 26.476"/>
    <circle fill="none" stroke="#1490E7" stroke-width="1.5" stroke-linecap="round" stroke-linejoin="round" stroke-miterlimit="10" cx="76" cy="86.571" r="26.477"/>
    <g id="draw-1">
      <path fill="none" stroke="#FFF" stroke-linecap="round" stroke-linejoin="round" stroke-miterlimit="10" d="M61.162 91.722h2.232l1.666-6.167 2.834 14.334 1.666-21 1.917 12.5h7.083l1.667-5.335 2.75 13.834 2.083-21 1.417 12.5h4.92"/>
    </g>
  </g>
</svg>
