<svg id="ind_icon_5" xmlns="http://www.w3.org/2000/svg" width="181" height="181" viewBox="0 0 181 181">
  <g id="fadein-down-1">
    <path fill="#00133E" d="M149.914 175.71H31.084c-3.85 0-7-3.15-7-7V13.91c0-3.85 3.15-7 7-7h118.83c3.85 0 7 3.15 7 7v154.8c0 3.85-3.15 7-7 7"/>
    <path fill="none" stroke="#143C81" stroke-width="1.5" stroke-linecap="round" stroke-linejoin="round" stroke-miterlimit="10" d="M149.914 175.71H31.084c-3.85 0-7-3.15-7-7V13.91c0-3.85 3.15-7 7-7h118.83c3.85 0 7 3.15 7 7v154.8c0 3.85-3.15 7-7 7z"/>
  </g>
  <g id="fadein-down-2">
    <path fill="#00133E" d="M6.098 150.723V31.896c0-3.85 3.15-7 7-7H167.9c3.852 0 7 3.15 7 7v118.827c0 3.852-3.148 7-7 7H13.098c-3.85 0-7-3.15-7-7"/>
    <path fill="none" stroke="#143C81" stroke-width="1.5" stroke-linecap="round" stroke-linejoin="round" stroke-miterlimit="10" d="M6.098 150.723V31.896c0-3.85 3.15-7 7-7H167.9c3.852 0 7 3.15 7 7v118.827c0 3.852-3.148 7-7 7H13.098c-3.85 0-7-3.15-7-7z"/>
  </g>
  <g id="fadein-down-3">
    <path fill="#00133E" d="M158.244 164.125H22.756c-3.13 0-5.67-2.54-5.67-5.67V22.968c0-3.13 2.54-5.67 5.67-5.67h135.488c3.13 0 5.668 2.54 5.668 5.67v135.487c0 3.13-2.537 5.67-5.668 5.67"/>
    <path fill="none" stroke="#143C81" stroke-width="1.5" stroke-linecap="round" stroke-linejoin="round" stroke-miterlimit="10" d="M158.244 164.125H22.756c-3.13 0-5.67-2.54-5.67-5.67V22.968c0-3.13 2.54-5.67 5.67-5.67h135.488c3.13 0 5.668 2.54 5.668 5.67v135.487c0 3.13-2.537 5.67-5.668 5.67z"/>
    <path fill="#00133E" d="M154.08 157.125H26.92c-1.566 0-2.835-1.27-2.835-2.834V27.133c0-1.565 1.27-2.835 2.835-2.835h127.16c1.564 0 2.834 1.27 2.834 2.835v127.16c0 1.563-1.27 2.833-2.834 2.833"/>
    <path fill="none" stroke="#285FAF" stroke-width="1.5" stroke-linecap="round" stroke-linejoin="round" stroke-miterlimit="10" d="M154.08 157.125H26.92c-1.566 0-2.835-1.27-2.835-2.834V27.133c0-1.565 1.27-2.835 2.835-2.835h127.16c1.564 0 2.834 1.27 2.834 2.835v127.16c0 1.563-1.27 2.833-2.834 2.833z"/>
  </g>
  <g id="circles" fill="none" stroke="#082765" stroke-width="1.5" stroke-linecap="round" stroke-linejoin="round" stroke-miterlimit="10">
    <circle cx="41.091" cy="40.731" r="6.825"/>
    <circle cx="74.03" cy="40.731" r="6.826"/>
    <circle cx="106.97" cy="40.731" r="6.825"/>
    <circle cx="139.909" cy="40.731" r="6.825"/>
    <circle cx="41.091" cy="139.953" r="6.825"/>
    <circle cx="74.03" cy="139.953" r="6.826"/>
    <circle cx="106.97" cy="139.953" r="6.825"/>
    <circle cx="139.909" cy="139.953" r="6.825"/>
    <circle cx="54.486" cy="90.708" r="6.825"/>
    <circle cx="126.514" cy="90.708" r="6.826"/>
  </g>
  <g id="branches" fill="none" stroke="#082765" stroke-width="1.5" stroke-linecap="round" stroke-linejoin="round" stroke-miterlimit="10">
    <path d="M95.96 63.38h38.487c3.018 0 5.46-2.444 5.46-5.46v-9.634"/>
    <path d="M41.09 48.286v9.635c0 3.017 2.445 5.46 5.46 5.46h38.49"/>
    <path d="M74.03 48.286v9.635c0 3.017 2.445 5.46 5.46 5.46h5.55c3.016 0 5.46 2.446 5.46 5.462v17.19"/>
    <path d="M106.97 48.286v9.635c0 3.017-2.446 5.46-5.46 5.46h-5.55c-3.017 0-5.46 2.446-5.46 5.462v21.866"/>
    <path d="M85.04 118.033H46.55c-3.015 0-5.46 2.443-5.46 5.46v9.634"/>
    <path d="M139.908 133.127v-9.635c0-3.014-2.445-5.46-5.46-5.46h-38.49"/>
    <path d="M106.97 133.127v-9.635c0-3.014-2.446-5.46-5.46-5.46h-5.55c-3.017 0-5.46-2.444-5.46-5.46v-17.19"/>
    <path d="M74.03 133.127v-9.635c0-3.014 2.445-5.46 5.46-5.46h5.55c3.016 0 5.46-2.444 5.46-5.46V90.708"/>
    <path d="M62.04 90.708h56.92"/>
  </g>
  <g id="zoomin-1">
    <path fill="#005BFD" d="M107.748 90.708c0 9.525-7.723 17.248-17.25 17.248-9.525 0-17.248-7.723-17.248-17.248 0-9.527 7.723-17.25 17.25-17.25 9.525 0 17.248 7.723 17.248 17.25"/>
    <circle fill="none" stroke="#1490E7" stroke-width="1.5" stroke-linecap="round" stroke-linejoin="round" stroke-miterlimit="10" cx="90.499" cy="90.708" r="17.249"/>
    <path fill="none" stroke="#FFF" stroke-width="1.5" stroke-linecap="round" stroke-linejoin="round" stroke-miterlimit="10" d="M86.77 84.868h7.46"/>
    <path fill="none" stroke="#FFF" stroke-width="1.5" stroke-linecap="round" stroke-linejoin="round" stroke-miterlimit="10" d="M86.77 96.545h7.46"/>
    <path fill="none" stroke="#FFF" stroke-width="1.5" stroke-linecap="round" stroke-linejoin="round" stroke-miterlimit="10" d="M84.502 90.708h11.994"/>
  </g>
  <g id="zoomin-2_1_" fill="#005BFD">
    <path d="M109.604 40.73c0 1.455-1.18 2.634-2.633 2.634-1.454 0-2.634-1.18-2.634-2.633s1.18-2.632 2.635-2.632c1.454 0 2.634 1.18 2.634 2.633"/>
    <path d="M142.543 40.73c0 1.455-1.18 2.634-2.633 2.634-1.455 0-2.635-1.18-2.635-2.633s1.18-2.632 2.635-2.632c1.453 0 2.633 1.18 2.633 2.633"/>
    <path d="M43.724 139.953c0 1.455-1.18 2.633-2.633 2.633-1.454 0-2.633-1.178-2.633-2.633 0-1.453 1.18-2.633 2.634-2.633 1.455 0 2.634 1.18 2.634 2.633"/>
    <path d="M76.664 139.953c0 1.455-1.18 2.633-2.634 2.633s-2.633-1.178-2.633-2.633c0-1.453 1.178-2.633 2.633-2.633s2.634 1.18 2.634 2.633"/>
  </g>
  <g id="zoomin-3" fill="#005BFD">
    <path d="M43.724 40.73c0 1.455-1.18 2.634-2.633 2.634-1.454 0-2.633-1.18-2.633-2.633s1.18-2.632 2.634-2.632c1.455 0 2.634 1.18 2.634 2.633"/>
    <path d="M76.664 40.73c0 1.455-1.18 2.634-2.634 2.634s-2.633-1.18-2.633-2.633S72.575 38.1 74.03 38.1s2.634 1.18 2.634 2.633"/>
    <path d="M109.604 139.953c0 1.455-1.18 2.633-2.633 2.633-1.454 0-2.634-1.178-2.634-2.633 0-1.453 1.18-2.633 2.635-2.633 1.454 0 2.634 1.18 2.634 2.633"/>
    <path d="M142.543 139.953c0 1.455-1.18 2.633-2.633 2.633-1.455 0-2.635-1.178-2.635-2.633 0-1.453 1.18-2.633 2.635-2.633 1.453 0 2.633 1.18 2.633 2.633"/>
    <g id="zoomin-2">
      <path d="M129.146 90.708c0 1.455-1.178 2.632-2.633 2.632s-2.633-1.178-2.633-2.632c0-1.455 1.178-2.633 2.633-2.633s2.633 1.177 2.633 2.633"/>
      <path d="M57.12 90.708c0 1.455-1.18 2.632-2.634 2.632-1.455 0-2.634-1.178-2.634-2.632 0-1.455 1.18-2.633 2.634-2.633s2.633 1.177 2.633 2.633"/>
    </g>
  </g>
  <g id="half_x5F_circles" fill="none" stroke="#1A3D82" stroke-width="1.5" stroke-linecap="round" stroke-linejoin="round" stroke-miterlimit="10">
    <path d="M136.904 16.874c0-2.902 2.352-5.254 5.254-5.254 2.9 0 5.254 2.352 5.254 5.254"/>
    <path d="M102.465 16.874c0-2.902 2.352-5.254 5.254-5.254s5.253 2.352 5.253 5.254"/>
    <path d="M68.026 16.874c0-2.902 2.353-5.254 5.254-5.254 2.902 0 5.255 2.352 5.255 5.254"/>
    <path d="M33.587 16.874c0-2.902 2.352-5.254 5.254-5.254 2.903 0 5.256 2.352 5.256 5.254"/>
    <path d="M136.904 164.125c0 2.902 2.352 5.254 5.254 5.254 2.9 0 5.254-2.353 5.254-5.255"/>
    <path d="M102.465 164.125c0 2.902 2.352 5.254 5.254 5.254s5.253-2.353 5.253-5.255"/>
    <path d="M68.026 164.125c0 2.902 2.353 5.254 5.254 5.254 2.902 0 5.255-2.353 5.255-5.255"/>
    <path d="M33.587 164.125c0 2.902 2.352 5.254 5.254 5.254 2.903 0 5.256-2.353 5.256-5.255"/>
    <path d="M163.914 43.884c2.9 0 5.254-2.353 5.254-5.254 0-2.903-2.354-5.255-5.254-5.255"/>
    <path d="M163.914 78.323c2.9 0 5.254-2.352 5.254-5.254 0-2.903-2.354-5.256-5.254-5.256"/>
    <path d="M163.914 112.76c2.9 0 5.254-2.352 5.254-5.254s-2.354-5.254-5.254-5.254"/>
    <path d="M163.914 147.2c2.9 0 5.254-2.353 5.254-5.255s-2.354-5.256-5.254-5.256"/>
    <path d="M17.086 43.884c-2.902 0-5.254-2.353-5.254-5.254 0-2.903 2.352-5.255 5.254-5.255"/>
    <path d="M17.086 78.323c-2.902 0-5.254-2.352-5.254-5.254 0-2.903 2.352-5.256 5.254-5.256"/>
    <path d="M17.086 112.76c-2.902 0-5.254-2.352-5.254-5.254s2.352-5.254 5.254-5.254"/>
    <path d="M17.086 147.2c-2.902 0-5.254-2.353-5.254-5.255s2.352-5.256 5.254-5.256"/>
  </g>
  <g id="lines" fill="none" stroke="#1A3D82" stroke-width="1.5" stroke-linecap="round" stroke-linejoin="round" stroke-miterlimit="10">
    <path d="M142.158 11.62V3.276"/>
    <path d="M107.72 11.62V1.35"/>
    <path d="M72.856 11.62V1.35"/>
    <path d="M38.84 11.62V3.276"/>
    <path d="M142.158 177.723v-8.344"/>
    <path d="M107.72 179.65v-10.27"/>
    <path d="M72.856 179.65v-10.27"/>
    <path d="M38.84 177.723v-8.344"/>
    <path d="M169.168 141.945h8.344"/>
    <path d="M169.168 107.506h10.27"/>
    <path d="M169.168 72.644h10.27"/>
    <path d="M169.168 38.63h8.344"/>
    <path d="M3.487 141.945h8.345"/>
    <path d="M1.56 107.506h10.272"/>
    <path d="M1.56 72.644h10.272"/>
    <path d="M3.487 38.63h8.345"/>
  </g>
</svg>
