<svg width="392.333" height="170" viewBox="0 0 392.333 170">
  <g id="menu-icon-3">
    <path fill="none" stroke="#143b88" stroke-width="1.25" stroke-miterlimit="10" d="M126.503 122.638c-.187 2.034-2.978 3.44-6.235 3.14l-90.323-8.3c-3.256-.3-5.744-2.192-5.557-4.227l4.627-50.336c.187-2.035 2.978-3.44 6.235-3.142l90.323 8.303c3.256.3 5.744 2.19 5.557 4.225l-4.627 50.338z" opacity=".3" id="page3"/>
    <g id="page2">
      <path fill="#00133e" d="M135.15 115.227c-.188 2.034-2.98 3.44-6.236 3.14l-90.323-8.3c-3.255-.3-5.743-2.192-5.556-4.227l4.627-50.337c.188-2.035 2.98-3.44 6.236-3.142l90.323 8.304c3.255.3 5.743 2.19 5.556 4.225l-4.627 50.337z"/>
      <path fill="none" stroke="#143b88" stroke-width="1.25" stroke-miterlimit="10" d="M135.15 115.227c-.188 2.034-2.98 3.44-6.236 3.14l-90.323-8.3c-3.255-.3-5.743-2.192-5.556-4.227l4.627-50.337c.188-2.035 2.98-3.44 6.236-3.142l90.323 8.304c3.255.3 5.743 2.19 5.556 4.225l-4.627 50.337z" opacity=".5"/>
    </g>
    <g id="page1">
      <path fill="#00133e" d="M143.795 109.05c-.187 2.035-2.978 3.44-6.235 3.142l-90.323-8.302c-3.256-.3-5.744-2.19-5.557-4.226l4.627-50.337c.187-2.035 2.978-3.44 6.235-3.142l90.323 8.303c3.256.3 5.744 2.19 5.557 4.225l-4.627 50.338z"/>
      <path fill="none" stroke="#143b88" stroke-width="1.25" stroke-miterlimit="10" d="M143.795 109.05c-.187 2.035-2.978 3.44-6.235 3.142l-90.323-8.302c-3.256-.3-5.744-2.19-5.557-4.226l4.627-50.337c.187-2.035 2.978-3.44 6.235-3.142l90.323 8.303c3.256.3 5.744 2.19 5.557 4.225l-4.627 50.338z" opacity=".7"/>
    </g>
    <g id="left">
      <g id="lines2">
        <path fill="none" stroke="#143b88" stroke-width="1.25" stroke-miterlimit="10" d="M91.18 69.83l39.888 3.668M90.387 78.44l29.85 2.744M89.596 87.05l39.89 3.667" opacity=".6"/>
      </g>
      <path fill="#FFF" d="M68.312 79.84l-2.42 5.56-2.434-.224 7.896-17.658 2.813.26 4.545 18.8-2.515-.23-1.42-5.913-6.465-.595zm6.173-1.288l-1.33-5.413c-.296-1.23-.468-2.335-.64-3.415l-.055-.005c-.368 1.03-.742 2.142-1.223 3.216l-2.27 5.11 5.518.506z" id="text"/>
    </g>
    <g id="right">
      <circle fill="none" stroke="#143b88" stroke-width="1.25" stroke-miterlimit="10" stroke-dasharray="4.095,4.095" cx="326.812" cy="81.603" r="26.078" id="circle0"/>
      <g id="circle">
        <path fill="#055BFA" d="M377.594 81.603c0 14.402-11.676 26.077-26.077 26.077-14.403 0-26.078-11.675-26.078-26.077 0-14.402 11.674-26.077 26.077-26.077 14.4 0 26.077 11.675 26.077 26.077"/>
        <circle fill="none" stroke="#488DF9" stroke-width="1.25" stroke-miterlimit="10" cx="351.516" cy="81.603" r="26.078"/>
        <path fill="none" stroke="#FFF" stroke-width="1.25" stroke-miterlimit="10" d="M341.576 81.95l6.76 6.363 13.12-13.42"/>
      </g>
    </g>
    <g id="note">
      <path fill="#00133e" d="M312.514 144V20.582c0-3.3-2.7-6-6-6H116.89c-3.3 0-6 2.7-6 6v123.11"/>
      <path fill="#00133e" d="M300.735 144V31.185c0-3.3-2.7-6-6-6H128.668c-3.3 0-6 2.7-6 6v112.53"/>
      <path fill="#00133e" d="M330.813 152.948c-.128 1.357-1.105 2.47-2.47 2.47H95.06c-1.364 0-2.34-1.112-2.47-2.47-.154-1.642-1.08-4.838-1.235-6.48-.128-1.356 1.106-2.47 2.47-2.47h235.754c1.363 0 2.597 1.113 2.47 2.47-.157 1.642-1.082 4.84-1.237 6.48"/>
      <path fill="#00133e" d="M233.175 143.896c0 3.353-2.144 6.07-4.787 6.07h-33.373c-2.644 0-4.787-2.718-4.787-6.07"/>
      <path fill="none" stroke="#143b88" stroke-width="1.25" stroke-miterlimit="10" d="M312.514 144V20.582c0-3.3-2.7-6-6-6H116.89c-3.3 0-6 2.7-6 6v123.11"/>
      <path fill="none" stroke="#143b88" stroke-width="1.25" stroke-miterlimit="10" d="M300.735 144V31.185c0-3.3-2.7-6-6-6H128.668c-3.3 0-6 2.7-6 6v112.53"/>
      <path fill="none" stroke="#143b88" stroke-width="1.25" stroke-miterlimit="10" d="M330.813 152.948c-.128 1.357-1.105 2.47-2.47 2.47H95.06c-1.364 0-2.34-1.112-2.47-2.47-.154-1.642-1.08-4.838-1.235-6.48-.128-1.356 1.106-2.47 2.47-2.47h235.754c1.363 0 2.597 1.113 2.47 2.47-.157 1.642-1.082 4.84-1.237 6.48z"/>
      <path fill="none" stroke="#143b88" stroke-width="1.25" stroke-miterlimit="10" d="M233.175 143.896c0 3.353-2.144 4.834-4.787 4.834h-33.373c-2.644 0-4.787-1.48-4.787-4.834"/>
    </g>
    <g id="lines" fill="none" stroke="#143b88" stroke-width="1.25" stroke-miterlimit="10">
      <path d="M166.66 46.145h90.427M179.902 58.974h65.558M155.28 71.326h112.843M179.902 83.678h65.558M165.422 96.03h92.558M155.28 120.733h112.843M179.902 108.38h65.558"/>
    </g>
  </g>
</svg>
