<svg width="249.328" height="191.667" viewBox="0 0 249.328 191.667">
  <g id="menu-icon-1">
    <path fill="#00133e" d="M203.784 144.39c0 1.65-1.35 3-3 3H17.93c-1.65 0-3-1.35-3-3V8.833c0-1.65 1.35-3 3-3h182.854c1.65 0 3 1.35 3 3v135.56z" id="pageh"/>
    <g id="page4">
      <path fill="#00133e" d="M242.948 105.14c0 1.648-1.35 3-3 3H57.094c-1.65 0-3-1.352-3-3V48.082c0-1.65 1.35-3 3-3h182.854c1.65 0 3 1.35 3 3v57.056z"/>
      <path fill="none" stroke="#143b88" stroke-width="1.25" stroke-miterlimit="10" d="M242.948 105.14c0 1.648-1.35 3-3 3H57.094c-1.65 0-3-1.352-3-3V48.082c0-1.65 1.35-3 3-3h182.854c1.65 0 3 1.35 3 3v57.056z"/>
    </g>
    <g id="page3">
      <path fill="#00133e" d="M229.894 118.294c0 1.65-1.35 3-3 3H44.04c-1.65 0-3-1.35-3-3V34.928c0-1.65 1.35-3 3-3h182.854c1.65 0 3 1.35 3 3v83.366z"/>
      <path fill="none" stroke="#143b88" stroke-width="1.25" stroke-miterlimit="10" d="M229.894 118.294c0 1.65-1.35 3-3 3H44.04c-1.65 0-3-1.35-3-3V34.928c0-1.65 1.35-3 3-3h182.854c1.65 0 3 1.35 3 3v83.366z"/>
    </g>
    <g id="page2">
      <path fill="#00133e" d="M216.84 129.166c0 1.65-1.352 3-3 3H30.984c-1.65 0-3-1.35-3-3V24.056c0-1.65 1.35-3 3-3H213.84c1.648 0 3 1.35 3 3v105.11z"/>
      <path fill="none" stroke="#143b88" stroke-width="1.25" stroke-miterlimit="10" d="M216.84 129.166c0 1.65-1.352 3-3 3H30.984c-1.65 0-3-1.35-3-3V24.056c0-1.65 1.35-3 3-3H213.84c1.648 0 3 1.35 3 3v105.11z"/>
    </g>
    <g id="page1">
      <path fill="#00133e" d="M203.784 144.39c0 1.65-1.35 3-3 3H17.93c-1.65 0-3-1.35-3-3V8.833c0-1.65 1.35-3 3-3h182.854c1.65 0 3 1.35 3 3v135.56z"/>
      <path fill="none" stroke="#143b88" stroke-width="1.25" stroke-miterlimit="10" d="M203.784 144.39c0 1.65-1.35 3-3 3H17.93c-1.65 0-3-1.35-3-3V8.833c0-1.65 1.35-3 3-3h182.854c1.65 0 3 1.35 3 3v135.56z"/>
    </g>
    <g id="image">
      <path fill="none" stroke="#488DF9" stroke-width="1.25" stroke-miterlimit="10" d="M62.25 98.66c0 .55.45 1 1 1h36.463c.55 0 1-.45 1-1V54.8c0-.55-.45-1-1-1H63.25c-.55 0-1 .45-1 1v43.86z"/>
      <path fill="#055BFA" d="M62.25 98.66c0 .55.45 1 1 1h36.463c.55 0 1-.45 1-1V54.8c0-.55-.45-1-1-1H63.25c-.55 0-1 .45-1 1v43.86z"/>
    </g>
    <g id="lines" fill="none" stroke="#143b88" stroke-width="1.25" stroke-miterlimit="10">
      <path d="M20.475 79.91H43.09M20.475 73.38h28.05M20.475 66.854H46.35M20.475 60.327H43.09M20.475 53.8h28.05M20.475 47.272H46.35M62.25 47.272h134.357M113.785 99.49h68.69M113.785 92.963h62.383M113.785 86.436h68.69M113.785 79.91h55.207M113.785 73.38h68.69M113.785 66.854h68.69M62.25 40.744h14.025M113.785 60.327h28.05M20.475 40.744h28.05M20.475 26.384h28.05M53.526 19.856V147.39M14.93 31.606h188.853M14.93 19.857h188.853"/>
    </g>
    <g id="mouse">
      <path fill="none" stroke="#143b88" stroke-width="1.25" stroke-miterlimit="10" d="M165.592 155.417c4.558 6.877 2.66 16.232-4.217 20.79l-7.38 4.89c-6.877 4.56-16.232 2.66-20.79-4.217l-24.862-37.516c-4.558-6.877-2.66-16.233 4.217-20.79l7.38-4.892c6.877-4.557 16.232-2.658 20.79 4.22l24.862 37.515z"/>
      <path fill="#00133e" d="M165.592 155.417c4.558 6.877 2.66 16.232-4.217 20.79l-7.38 4.89c-6.877 4.56-16.232 2.66-20.79-4.217l-24.862-37.516c-4.558-6.877-2.66-16.233 4.217-20.79l7.38-4.892c6.877-4.557 16.232-2.658 20.79 4.22l24.862 37.515z"/>
      <path fill="none" stroke="#143b88" stroke-width="1.25" stroke-miterlimit="10" d="M115.905 150.775l32.388-21.462M116.512 116.523l15.587 23.52"/>
    </g>
  </g>
</svg>
