<svg id="Слой_1" xmlns="http://www.w3.org/2000/svg" width="148" height="159" viewBox="0 0 148 159">
  <g id="page-3">
    <path fill="#00133E" d="M98.535,133.861H3.464c-1.258,0-2.288-1.029-2.288-2.289V32.044c0-1.259,1.03-2.289,2.288-2.289h95.071 c1.26,0,2.289,1.03,2.289,2.289v99.528C100.824,132.832,99.795,133.861,98.535,133.861"/>
    <path fill="none" stroke="#082765" stroke-width="1.5" stroke-linecap="round" stroke-linejoin="round" stroke-miterlimit="10" d="M98.535,133.861H3.464c-1.258,0-2.288-1.029-2.288-2.289V32.044c0-1.259,1.03-2.289,2.288-2.289h95.071 c1.26,0,2.289,1.03,2.289,2.289v99.528C100.824,132.832,99.795,133.861,98.535,133.861z"/>
    <path fill="#00133E" d="M144.535,133.861H49.464c-1.259,0-2.289-1.029-2.289-2.289V32.044c0-1.259,1.03-2.289,2.289-2.289h95.071 c1.26,0,2.289,1.03,2.289,2.289v99.528C146.824,132.832,145.795,133.861,144.535,133.861"/>
    <path fill="none" stroke="#082765" stroke-width="1.5" stroke-linecap="round" stroke-linejoin="round" stroke-miterlimit="10" d="M144.535,133.861H49.464c-1.259,0-2.289-1.029-2.289-2.289V32.044c0-1.259,1.03-2.289,2.289-2.289h95.071 c1.26,0,2.289,1.03,2.289,2.289v99.528C146.824,132.832,145.795,133.861,144.535,133.861z"/>
  </g>
  <g id="page-2">
    <path fill="#00133E" d="M108.535,145.256H13.464c-1.259,0-2.289-1.029-2.289-2.289V20.65c0-1.259,1.03-2.289,2.289-2.289h95.071 c1.26,0,2.289,1.03,2.289,2.289v122.316C110.824,144.227,109.795,145.256,108.535,145.256"/>
    <path fill="none" stroke="#143C81" stroke-width="1.5" stroke-linecap="round" stroke-linejoin="round" stroke-miterlimit="10" d="M108.535,145.256H13.464c-1.259,0-2.289-1.029-2.289-2.289V20.65c0-1.259,1.03-2.289,2.289-2.289h95.071 c1.26,0,2.289,1.03,2.289,2.289v122.316C110.824,144.227,109.795,145.256,108.535,145.256z"/>
    <path fill="#00133E" d="M134.535,145.256H39.464c-1.259,0-2.289-1.029-2.289-2.289V20.65c0-1.259,1.03-2.289,2.289-2.289h95.071 c1.26,0,2.289,1.03,2.289,2.289v122.316C136.824,144.227,135.795,145.256,134.535,145.256"/>
    <path fill="none" stroke="#143C81" stroke-width="1.5" stroke-linecap="round" stroke-linejoin="round" stroke-miterlimit="10" d="M134.535,145.256H39.464c-1.259,0-2.289-1.029-2.289-2.289V20.65c0-1.259,1.03-2.289,2.289-2.289h95.071 c1.26,0,2.289,1.03,2.289,2.289v122.316C136.824,144.227,135.795,145.256,134.535,145.256z"/>
  </g>
  <g id="page-1">
    <path fill="#00133E" d="M121.535,157.922H26.464c-1.259,0-2.289-1.029-2.289-2.289V7.984c0-1.259,1.03-2.289,2.289-2.289h95.071 c1.26,0,2.289,1.03,2.289,2.289v147.649C123.824,156.893,122.795,157.922,121.535,157.922"/>
    <path fill="none" stroke="#285FAF" stroke-width="1.5" stroke-linecap="round" stroke-linejoin="round" stroke-miterlimit="10" d="M121.535,157.922H26.464c-1.259,0-2.289-1.029-2.289-2.289V7.984c0-1.259,1.03-2.289,2.289-2.289h95.071 c1.26,0,2.289,1.03,2.289,2.289v147.649C123.824,156.893,122.795,157.922,121.535,157.922z"/>
    <path fill="#00133E" d="M101.41,9.695H46.589c-2.37,0-4.309-1.939-4.309-4.309c0-2.369,1.938-4.308,4.309-4.308h54.821 c2.371,0,4.311,1.939,4.311,4.308C105.721,7.756,103.781,9.695,101.41,9.695"/>
    <path fill="none" stroke="#285FAF" stroke-width="1.5" stroke-linecap="round" stroke-linejoin="round" stroke-miterlimit="10" d="M101.41,9.695H46.589c-2.37,0-4.309-1.939-4.309-4.309c0-2.369,1.938-4.308,4.309-4.308h54.821c2.371,0,4.311,1.939,4.311,4.308 C105.721,7.756,103.781,9.695,101.41,9.695z"/>
  </g>
  <g id="circle-1">
    <path fill="#005BFD" d="M63.152,43.862c0,8.161-6.617,14.777-14.778,14.777c-8.16,0-14.777-6.616-14.777-14.777 s6.617-14.777,14.777-14.777C56.535,29.085,63.152,35.701,63.152,43.862"/>
    <circle fill="none" stroke="#1490E7" stroke-width="1.5" stroke-linecap="round" stroke-linejoin="round" stroke-miterlimit="10" cx="48.375" cy="43.862" r="14.778"/>
    <path fill="#005BFD" d="M51.557,39.687c0,1.757-1.424,3.181-3.181,3.181c-1.758,0-3.183-1.424-3.183-3.181 c0-1.758,1.425-3.182,3.183-3.182C50.133,36.505,51.557,37.929,51.557,39.687"/>
    <circle fill="none" stroke="#FFF" stroke-width="1.5" stroke-linecap="round" stroke-linejoin="round" stroke-miterlimit="10" cx="48.375" cy="39.687" r="3.182"/>
    <path fill="#005BFD" d="M42.523,51.977V51.03c0-3.219,2.633-5.853,5.853-5.853c3.218,0,5.851,2.634,5.851,5.853v0.946"/>
    <path fill="none" stroke="#FFF" stroke-width="1.5" stroke-linecap="round" stroke-linejoin="round" stroke-miterlimit="10" d="M42.523,51.977V51.03c0-3.219,2.633-5.853,5.853-5.853c3.218,0,5.851,2.634,5.851,5.853v0.946"/>
  </g>
  <g id="circle-2">
    <path fill="#00133E" d="M63.152,83.861c0,8.162-6.617,14.777-14.778,14.777c-8.16,0-14.777-6.615-14.777-14.777 c0-8.16,6.617-14.777,14.777-14.777C56.535,69.084,63.152,75.702,63.152,83.861"/>
    <circle fill="none" stroke="#285FAF" stroke-width="1.5" stroke-linecap="round" stroke-linejoin="round" stroke-miterlimit="10" cx="48.375" cy="83.861" r="14.778"/>
    <path fill="#00133E" d="M51.557,79.686c0,1.757-1.424,3.181-3.181,3.181c-1.758,0-3.183-1.424-3.183-3.181 c0-1.758,1.425-3.182,3.183-3.182C50.133,76.504,51.557,77.928,51.557,79.686"/>
    <circle fill="none" stroke="#285FAF" stroke-width="1.5" stroke-linecap="round" stroke-linejoin="round" stroke-miterlimit="10" cx="48.375" cy="79.686" r="3.182"/>
    <path fill="#00133E" d="M42.523,91.977v-0.947c0-3.219,2.633-5.852,5.853-5.852c3.218,0,5.851,2.633,5.851,5.852v0.947"/>
    <path fill="none" stroke="#285FAF" stroke-width="1.5" stroke-linecap="round" stroke-linejoin="round" stroke-miterlimit="10" d="M42.523,91.977v-0.947c0-3.219,2.633-5.852,5.853-5.852c3.218,0,5.851,2.633,5.851,5.852v0.947"/>
  </g>
  <g id="lines-2" fill="none" stroke="#143C81" stroke-width="1.5" stroke-linecap="round" stroke-linejoin="round" stroke-miterlimit="10">
    <polyline points="103.012,73.862 105.523,73.862 108.568,73.862 111.227,73.862 113.209,73.862"/>
    <polyline points="83.85,73.862 86.58,73.862 89.625,73.862 92.814,73.862 96.318,73.862"/>
    <polyline points="73,73.862 74.691,73.862 78.025,73.862"/>
    <line x1="96.318" y1="83.861" x2="113.209" y2="83.861"/>
    <line x1="73" y1="83.861" x2="83.486" y2="83.861"/>
    <line x1="107.408" y1="93.861" x2="113.209" y2="93.861"/>
    <polyline points="73,93.861 78.848,93.861 82.617,93.861 87.328,93.861 92.258,93.861"/>
  </g>
  <g id="circle-3">
    <path fill="#00133E" d="M63.152,123.861c0,8.162-6.617,14.777-14.778,14.777c-8.16,0-14.777-6.615-14.777-14.777 c0-8.16,6.617-14.777,14.777-14.777C56.535,109.084,63.152,115.701,63.152,123.861"/>
    <circle fill="none" stroke="#285FAF" stroke-width="1.5" stroke-linecap="round" stroke-linejoin="round" stroke-miterlimit="10" cx="48.375" cy="123.861" r="14.778"/>
    <path fill="#00133E" d="M51.557,119.686c0,1.758-1.424,3.182-3.181,3.182c-1.758,0-3.183-1.424-3.183-3.182 c0-1.756,1.425-3.18,3.183-3.18C50.133,116.506,51.557,117.93,51.557,119.686"/>
    <circle fill="none" stroke="#285FAF" stroke-width="1.5" stroke-linecap="round" stroke-linejoin="round" stroke-miterlimit="10" cx="48.375" cy="119.686" r="3.182"/>
    <path fill="#00133E" d="M42.523,131.977v-0.947c0-3.219,2.633-5.852,5.853-5.852c3.218,0,5.851,2.633,5.851,5.852v0.947"/>
    <path fill="none" stroke="#285FAF" stroke-width="1.5" stroke-linecap="round" stroke-linejoin="round" stroke-miterlimit="10" d="M42.523,131.977v-0.947c0-3.219,2.633-5.852,5.853-5.852c3.218,0,5.851,2.633,5.851,5.852v0.947"/>
  </g>
  <g id="lines-3" fill="none" stroke="#143C81" stroke-width="1.5" stroke-linecap="round" stroke-linejoin="round" stroke-miterlimit="10">
    <polyline points="103.012,113.861 105.523,113.861 108.568,113.861 111.227,113.861 113.209,113.861"/>
    <polyline points="83.85,113.861 86.58,113.861 89.625,113.861 92.814,113.861 96.318,113.861"/>
    <polyline points="73,113.861 74.691,113.861 78.025,113.861"/>
    <line x1="96.318" y1="123.861" x2="113.209" y2="123.861"/>
    <line x1="73" y1="123.861" x2="83.486" y2="123.861"/>
    <line x1="107.408" y1="133.861" x2="113.209" y2="133.861"/>
    <polyline points="73,133.861 78.848,133.861 82.617,133.861 87.328,133.861 92.258,133.861"/>
  </g>
  <g id="lines-1" fill="none" stroke="#143C81" stroke-width="1.5" stroke-linecap="round" stroke-linejoin="round" stroke-miterlimit="10">
    <polyline points="103.012,33.862 105.523,33.862 108.568,33.862 111.227,33.862 113.209,33.862"/>
    <polyline points="83.85,33.862 86.58,33.862 89.625,33.862 92.814,33.862 96.318,33.862"/>
    <polyline points="73,33.862 74.691,33.862 78.025,33.862"/>
    <line x1="96.318" y1="43.862" x2="113.209" y2="43.862"/>
    <line x1="73" y1="43.862" x2="83.486" y2="43.862"/>
    <line x1="107.408" y1="53.862" x2="113.209" y2="53.862"/>
    <polyline points="73,53.862 78.848,53.862 82.617,53.862 87.328,53.862 92.258,53.862"/>
  </g>
</svg>
