<svg id="Слой_1" xmlns="http://www.w3.org/2000/svg" xmlns:xlink="http://www.w3.org/1999/xlink" width="357" height="179" viewBox="0 0 357 179">
  <g id="menu-icon-5">
    <g opacity=".7" id="star">
      <defs>
        <path id="SVGID_1_" d="M260.286 48.674h71.106v69.556h-71.106z"/>
      </defs>
      <clipPath id="SVGID_2_">
        <use xlink:href="#SVGID_1_" overflow="visible"/>
      </clipPath>
      <path clip-path="url(#SVGID_2_)" fill="none" stroke="#394160" stroke-width="1.25" stroke-miterlimit="10" d="M293.11 117.604h5.784c.77-1.646 2.237-5.374 3.43-8.577.213-.568.656-1.028 1.225-1.255l4.542-1.85c.522-.212 1.146-.195 1.67.035 3.265 1.37 7.12 2.94 8.868 3.53l4.036-3.975c-.64-1.714-2.288-5.34-3.743-8.393-.26-.56-.275-1.21-.033-1.783l1.865-4.446c.227-.538.67-.978 1.226-1.174 3.284-1.276 7.123-2.844 8.788-3.643v-5.537c-1.698-.753-5.487-2.208-8.758-3.367-.568-.197-1.046-.637-1.27-1.21l-1.88-4.44c-.23-.557-.23-1.18.014-1.737 1.405-3.15 2.957-6.875 3.58-8.624l-4.053-3.936c-1.73.62-5.486 2.238-8.656 3.69-.54.245-1.175.262-1.715.032l-4.543-1.827c-.556-.232-1-.67-1.208-1.21-1.294-3.22-2.897-6.976-3.71-8.61h-5.77c-.77 1.65-2.254 5.373-3.445 8.576-.196.573-.652 1.03-1.208 1.26l-4.526 1.844c-.538.213-1.145.213-1.684-.017-3.267-1.39-7.14-2.94-8.87-3.513l-4.05 3.94c.652 1.714 2.285 5.34 3.74 8.41.28.556.28 1.21.05 1.782l-1.878 4.445c-.246.54-.674.98-1.226 1.176-3.287 1.275-7.11 2.844-8.79 3.626v5.553c1.697.77 5.49 2.208 8.756 3.366.586.213 1.046.652 1.276 1.208l1.878 4.442c.226.538.213 1.16-.017 1.72-1.405 3.15-2.957 6.89-3.58 8.622l4.053 3.953c1.73-.637 5.49-2.256 8.657-3.69.54-.246 1.163-.263 1.72-.05l4.537 1.845c.556.23.98.657 1.213 1.21 1.288 3.22 2.89 6.96 3.705 8.594zM295.842 74c-5.362 0-9.725 4.25-9.725 9.46 0 5.228 4.362 9.46 9.725 9.46 5.357 0 9.72-4.25 9.72-9.46S301.2 74 295.842 74z"/>
    </g>
    <g id="zoom">
      <g opacity=".6">
        <defs>
          <path id="SVGID_3_" d="M30.19 45.19h69.79v69.79H30.19z"/>
        </defs>
        <clipPath id="SVGID_4_">
          <use xlink:href="#SVGID_3_" overflow="visible"/>
        </clipPath>
        <path clip-path="url(#SVGID_4_)" fill="none" stroke="#394160" stroke-width="1.5" stroke-miterlimit="10" d="M32.55 69.757c-5.705 17.97 4.237 37.16 22.206 42.864 17.97 5.705 37.16-4.237 42.864-22.206 5.705-17.97-4.237-37.16-22.206-42.864-17.97-5.704-37.16 4.238-42.865 22.207zM87.21 87.11c-3.88 12.218-16.93 18.98-29.15 15.1-12.217-3.88-18.978-16.93-15.1-29.148 3.88-12.22 16.93-18.98 29.148-15.1 12.22 3.878 18.98 16.928 15.1 29.147z"/>
      </g>
      <g opacity=".6">
        <defs>
          <path id="SVGID_5_" d="M89.647 107.284h34.136v37.596H89.647z"/>
        </defs>
        <clipPath id="SVGID_6_">
          <use xlink:href="#SVGID_5_" overflow="visible"/>
        </clipPath>
        <path clip-path="url(#SVGID_6_)" fill="none" stroke="#394160" stroke-width="1.5" stroke-miterlimit="10" d="M122.383 135.213c.976 1.15.836 2.873-.314 3.85l-5.205 4.418c-1.15.978-2.873.837-3.85-.312l-21.97-27.983c-.975-1.15-.835-2.873.315-3.85l3.12-2.65c1.15-.976 2.874-.835 3.85.314l24.053 26.213z"/>
      </g>
      <g opacity=".6">
        <defs>
          <path id="SVGID_7_" d="M85.534 102.096H95.8v10.517H85.534z"/>
        </defs>
        <clipPath id="SVGID_8_">
          <use xlink:href="#SVGID_7_" overflow="visible"/>
        </clipPath>
        <path transform="rotate(-40.34 90.67 107.36)" clip-path="url(#SVGID_8_)" fill="none" stroke="#394160" stroke-width="1.5" stroke-miterlimit="10" d="M88.277 103.87h4.778v6.967h-4.778z"/>
      </g>
    </g>
    <g id="page3">
      <path fill="#061239" d="M278.992 171.833c0 1.65-1.35 3-3 3H114.42c-1.65 0-3-1.35-3-3V159.85c0-1.65 1.35-3 3-3H275.99c1.65 0 3 1.35 3 3v11.983z"/>
      <path fill="none" stroke="#394160" stroke-width="1.25" stroke-miterlimit="10" d="M278.992 171.833c0 1.65-1.35 3-3 3H114.42c-1.65 0-3-1.35-3-3V159.85c0-1.65 1.35-3 3-3H275.99c1.65 0 3 1.35 3 3v11.983z" opacity=".5"/>
    </g>
    <g id="page2">
      <path fill="#061239" d="M286.502 163.636c0 1.65-1.35 3-3 3H106.91c-1.65 0-3-1.35-3-3v-11.984c0-1.65 1.35-3 3-3H283.5c1.65 0 3 1.35 3 3v11.984z"/>
      <path fill="none" stroke="#394160" stroke-width="1.25" stroke-miterlimit="10" d="M286.502 163.636c0 1.65-1.35 3-3 3H106.91c-1.65 0-3-1.35-3-3v-11.984c0-1.65 1.35-3 3-3H283.5c1.65 0 3 1.35 3 3v11.984z" opacity=".8"/>
    </g>
    <g id="page1">
      <path fill="#061239" d="M294.313 154.072c0 1.65-1.35 3-3 3H99.1c-1.65 0-3-1.35-3-3V11.696c0-1.65 1.35-3 3-3h192.213c1.65 0 3 1.35 3 3v142.376z"/>
      <path fill="none" stroke="#394160" stroke-width="1.25" stroke-miterlimit="10" d="M294.313 154.072c0 1.65-1.35 3-3 3H99.1c-1.65 0-3-1.35-3-3V11.696c0-1.65 1.35-3 3-3h192.213c1.65 0 3 1.35 3 3v142.376z"/>
    </g>
    <g id="arrows">
      <path fill="none" stroke="#394160" stroke-width="1.25" stroke-miterlimit="10" d="M128.186 60.126h134.04M195.687 54.096v12.06M195.506 96.424v9.9M250.383 60.126v46.652M140.93 60.582v5.575"/>
      <path fill="#394160" d="M200.373 66.158l-4.687 4.75-4.687-4.75zM200.192 106.234l-4.686 4.75-4.688-4.75zM255.07 106.234l-4.687 4.75-4.687-4.75zM145.617 66.158l-4.687 4.75-4.687-4.75z"/>
      <path fill="none" stroke="#394160" stroke-width="1.25" stroke-miterlimit="10" d="M140.93 101.57v5.576"/>
      <path fill="#394160" d="M145.617 106.234l-4.687 4.75-4.687-4.75z"/>
    </g>
    <g id="text1">
      <path fill="#394160" d="M213.437 53.096c0 .55-.45 1-1 1h-33.5c-.55 0-1-.45-1-1v-18.48c0-.55.45-1 1-1h33.5c.55 0 1 .45 1 1v18.48z"/>
      <path fill="none" stroke="#515B7A" stroke-width="1.25" stroke-miterlimit="10" d="M189.456 40.386h12.46M184.848 46.017h21.676"/>
      <path fill="#394160" d="M213.437 95.45c0 .55-.45 1-1 1h-33.5c-.55 0-1-.45-1-1V76.97c0-.55.45-1 1-1h33.5c.55 0 1 .45 1 1v18.48z"/>
      <path fill="none" stroke="#515B7A" stroke-width="1.25" stroke-miterlimit="10" d="M189.456 82.74h12.46M184.848 88.37h21.676"/>
      <defs>
        <path id="SVGID_9_" d="M141.936 80.956h107.52v92.64h-107.52z"/>
      </defs>
      <clipPath id="SVGID_10_">
        <use xlink:href="#SVGID_9_" overflow="visible"/>
      </clipPath>
      <g clip-path="url(#SVGID_10_)">
        <image overflow="visible" width="448" height="386" xlink:href="A87894E6.png" transform="matrix(.24 0 0 .24 141.94 80.96)"/>
      </g>
      <path fill="#055BFA" d="M213.437 136.437c0 .55-.45 1-1 1h-33.5c-.55 0-1-.45-1-1v-18.48c0-.55.45-1 1-1h33.5c.55 0 1 .45 1 1v18.48z"/>
      <path fill="none" stroke="#FFF" stroke-width="1.25" stroke-miterlimit="10" d="M189.456 123.727h12.46M184.848 129.358h21.676"/>
      <image overflow="visible" width="448" height="386" xlink:href="A87894EA.png" transform="matrix(.24 0 0 .24 196.59 80.96)"/>
      <path fill="#055BFA" d="M268.087 136.437c0 .55-.45 1-1 1h-33.5c-.552 0-1-.45-1-1v-18.48c0-.55.448-1 1-1h33.5c.55 0 1 .45 1 1v18.48z"/>
      <path fill="none" stroke="#488DF9" stroke-width="1.25" stroke-miterlimit="10" d="M213.437 136.437c0 .55-.45 1-1 1h-33.5c-.55 0-1-.45-1-1v-18.48c0-.55.45-1 1-1h33.5c.55 0 1 .45 1 1v18.48zM268.087 136.437c0 .55-.45 1-1 1h-33.5c-.552 0-1-.45-1-1v-18.48c0-.55.448-1 1-1h33.5c.55 0 1 .45 1 1v18.48z"/>
      <path fill="none" stroke="#FFF" stroke-width="1.25" stroke-miterlimit="10" d="M244.106 123.727h12.46M239.498 129.358h21.676"/>
      <path fill="#394160" d="M158.787 95.45c0 .55-.45 1-1 1h-33.5c-.55 0-1-.45-1-1V76.97c0-.55.45-1 1-1h33.5c.55 0 1 .45 1 1v18.48z"/>
      <path fill="none" stroke="#515B7A" stroke-width="1.25" stroke-miterlimit="10" d="M134.807 82.74h12.46M130.198 88.37h21.677"/>
      <path fill="#394160" d="M158.68 136.437c0 .55-.45 1-1 1h-33.5c-.55 0-1-.45-1-1v-18.48c0-.55.45-1 1-1h33.5c.55 0 1 .45 1 1v18.48z"/>
      <path fill="none" stroke="#515B7A" stroke-width="1.25" stroke-miterlimit="10" d="M134.7 123.727h12.46M130.092 129.358h21.676"/>
    </g>
  </g>
</svg>
