<svg width="244.333" height="227.333" viewBox="0 0 244.333 227.333">
  <g id="menu-icon-2">
    <g id="layer3">
      <path fill="#00133e" d="M124.062 220.798L42.785 173.19l81.277-47.84 80.916 47.84z"/>
      <path fill="none" stroke="#143b88" stroke-width="1.25" stroke-miterlimit="10" d="M124.062 220.798L42.785 173.19l81.277-47.84 80.916 47.84z" opacity=".3"/>
    </g>
    <g id="layer2">
      <path fill="#00133e" d="M124.1 204.527l-97.975-57.385 97.974-57.67 97.538 57.67z"/>
      <path fill="none" stroke="#143b88" stroke-width="1.25" stroke-miterlimit="10" d="M124.1 204.527l-97.975-57.385 97.974-57.67 97.538 57.67z" opacity=".5"/>
    </g>
    <g id="layer1">
      <path fill="#00133e" d="M124.126 185.62L13.95 121.086l110.176-64.854 109.688 64.854z"/>
      <path fill="none" stroke="#143b88" stroke-width="1.25" stroke-miterlimit="10" d="M124.126 185.62L13.95 121.086l110.176-64.854 109.688 64.854z" opacity=".7"/>
    </g>
    <g id="cube3">
      <path fill="#00133e" d="M139.815 102.103V64.72l30.836 17.62.095 38.142z"/>
      <path fill="#00133e" d="M170.65 82.34l31.628-17.618v36.51l-31.142 19.854M202.278 63.938L170.65 81.772l-31.268-17.834M139.382 63.938l31.362-15.412 31.99 15.412"/>
      <path fill="none" stroke="#143b88" stroke-width="1.25" stroke-miterlimit="10" d="M139.815 102.103V64.72l30.836 17.62.095 38.142z"/>
      <path fill="none" stroke="#143b88" stroke-width="1.25" stroke-miterlimit="10" d="M170.65 82.34l31.628-17.618v36.51l-31.142 19.854M139.382 63.938l31.362-15.412 31.99 15.412"/>
      <path fill="#00133e" d="M150.34 44.128V19.34l20.45 11.684.06 25.292z"/>
      <path fill="#00133e" d="M170.788 31.024L191.76 19.34v24.212l-20.65 13.164M191.76 18.82l-20.97 11.826-20.737-11.826M150.053 18.82L170.85 8.6l21.213 10.22"/>
      <path fill="none" stroke="#143b88" stroke-width="1.25" stroke-miterlimit="10" d="M150.34 44.128V19.34l20.45 11.684.06 25.292z"/>
      <path fill="none" stroke="#143b88" stroke-width="1.25" stroke-miterlimit="10" d="M170.788 31.024L191.76 19.34v24.212l-20.65 13.164M150.053 18.82L170.85 8.6l21.213 10.22"/>
    </g>
    <g id="cube2">
      <path fill="#00133e" d="M47.253 102.103V64.72L78.09 82.34l.093 38.142zM78.09 82.34l31.626-17.618v36.51l-31.142 19.854M109.716 63.938L78.09 81.772 46.82 63.938M46.82 63.938L78.18 48.526l31.99 15.412"/>
      <path fill="none" stroke="#143b88" stroke-width="1.25" stroke-miterlimit="10" d="M47.253 102.103V64.72L78.09 82.34l.093 38.142zM78.09 82.34l31.626-17.618v36.51l-31.142 19.854M46.82 63.938L78.18 48.526l31.99 15.412"/>
      <path fill="#00133e" d="M92.883 139.91v-37.382l30.836 17.62.092 38.14zM123.72 120.148l31.626-17.62v36.513l-31.143 19.853M57.778 44.128V19.34l20.45 11.684.06 25.292z"/>
      <path fill="#00133e" d="M78.226 31.024L99.198 19.34v24.212l-20.65 13.164M99.2 18.82L78.226 30.646 57.49 18.82M57.49 18.82L78.29 8.6 99.5 18.82"/>
      <path fill="none" stroke="#143b88" stroke-width="1.25" stroke-miterlimit="10" d="M57.778 44.128V19.34l20.45 11.684.06 25.292z"/>
      <path fill="none" stroke="#143b88" stroke-width="1.25" stroke-miterlimit="10" d="M78.226 31.024L99.198 19.34v24.212l-20.65 13.164M57.49 18.82L78.29 8.6 99.5 18.82"/>
    </g>
    <g id="cube1">
      <path fill="#00133e" d="M155.345 101.745l-31.627 17.834-31.27-17.835"/>
      <path fill="#00133e" d="M92.448 101.745l31.364-15.412 31.99 15.412"/>
      <path fill="none" stroke="#143b88" stroke-width="1.25" stroke-miterlimit="10" d="M92.883 139.91v-37.382l30.836 17.62.092 38.14zM123.72 120.148l31.626-17.62v36.513l-31.143 19.853M92.448 101.745l31.364-15.412 31.99 15.412"/>
      <path fill="#055BFA" d="M92.883 87.762v-37.38L123.72 68l.092 38.142zM123.72 68l31.626-17.62v36.513l-31.143 19.852M123.812 34.186L92.45 49.598l31.268 17.834 31.627-17.834h.458z" opacity=".8"/>
      <path fill="none" stroke="#488DF9" stroke-width="1.25" stroke-miterlimit="10" d="M92.883 87.762v-37.38L123.72 68l.092 38.142zM123.72 68l31.626-17.62v36.513l-31.143 19.852M92.448 49.597l31.364-15.41 31.99 15.41"/>
    </g>
  </g>
</svg>
