<?xml version="1.0" encoding="utf-8"?>
<!-- Generator: Adobe Illustrator 15.0.2, SVG Export Plug-In . SVG Version: 6.00 Build 0)  -->
<!DOCTYPE svg PUBLIC "-//W3C//DTD SVG 1.1//EN" "http://www.w3.org/Graphics/SVG/1.1/DTD/svg11.dtd">
<svg xmlns="http://www.w3.org/2000/svg" x="0px" y="0px" width="1200px" height="752px" viewBox="0 0 1200 752" enable-background="new 0 0 1200 752" xml:space="preserve">
	<g id="circles">
		<ellipse id="circle-13" opacity="0.25" fill="none" stroke="#063D80" stroke-width="1.5" stroke-miterlimit="10" cx="598" cy="580" rx="404" ry="128.5"/>
		
		<ellipse id="circle-12" opacity="0.3" fill="none" stroke="#063D80" stroke-width="1.5" stroke-miterlimit="10" cx="598" cy="580" rx="376" ry="119.594"/>
		
		<ellipse id="circle-11" opacity="0.35" fill="none" stroke="#063D80" stroke-width="1.5" stroke-miterlimit="10" cx="598" cy="580" rx="349" ry="111.006"/>
		
		<ellipse id="circle-10" opacity="0.5" fill="none" stroke="#063D80" stroke-width="1.5" stroke-miterlimit="10" cx="598" cy="580" rx="318" ry="101.146"/>
		
		<ellipse id="circle-9" fill="none" stroke="#063D80" stroke-width="1.5" stroke-miterlimit="10" cx="598" cy="580" rx="289" ry="91.922"/>
	
		<ellipse id="circle-8" fill="none" stroke="#063D80" stroke-width="1.5" stroke-miterlimit="10" cx="598" cy="580" rx="263" ry="83.652"/>
	
		<ellipse id="circle-7" fill="none" stroke="#063D80" stroke-width="1.5" stroke-miterlimit="10" cx="598" cy="580" rx="237" ry="75.382"/>
	
		<ellipse id="circle-6" fill="none" stroke="#063D80" stroke-width="1.5" stroke-miterlimit="10" cx="598" cy="580" rx="211" ry="67.113"/>
	
		<ellipse id="circle-5" fill="none" stroke="#063D80" stroke-width="1.5" stroke-miterlimit="10" cx="598" cy="580" rx="185.969" ry="59.151"/>
	
		<ellipse id="circle-4" fill="none" stroke="#063D80" stroke-width="1.5" stroke-miterlimit="10" cx="598" cy="580" rx="162" ry="51.527"/>
	
		<ellipse id="circle-3" display="none" fill="none" stroke="#063D80" stroke-width="1.5" stroke-miterlimit="10" cx="598" cy="580" rx="138.667" ry="44.106"/>
	
		<ellipse id="circle-2" display="none" fill="none" stroke="#063D80" stroke-width="1.5" stroke-miterlimit="10" cx="598" cy="580" rx="115.795" ry="36.831"/>
	
		<ellipse id="circle-1" display="none" fill="none" stroke="#063D80" stroke-width="1.5" stroke-miterlimit="10" cx="598" cy="580" rx="88.294" ry="28.208"/>
		
		<path id="circle-0" fill="#005BFE" d="M598,563.767c37.65,0,68.172,7.144,68.172,15.955c0,8.813-30.521,15.955-68.172,15.955c-37.651,0-68.172-7.143-68.172-15.955C529.828,570.91,560.349,563.767,598,563.767"/>
	</g>
	<g id="image">
		<g>
			<image overflow="visible" width="208" height="88" xlink:href="images/svg/C2A68269.png"  transform="matrix(1 0 0 1 494.0889 536.833)">
			</image>
		</g>
	</g>
</svg>
