<?xml version="1.0" encoding="utf-8"?>
<!-- Generator: Adobe Illustrator 15.0.2, SVG Export Plug-In  -->
<!DOCTYPE svg PUBLIC "-//W3C//DTD SVG 1.1//EN" "http://www.w3.org/Graphics/SVG/1.1/DTD/svg11.dtd" [
	<!ENTITY ns_flows "http://ns.adobe.com/Flows/1.0/">
]>
<svg version="1.1"
	 xmlns="http://www.w3.org/2000/svg" xmlns:xlink="http://www.w3.org/1999/xlink" xmlns:a="http://ns.adobe.com/AdobeSVGViewerExtensions/3.0/"
	 x="0px" y="0px" width="34px" height="34px" viewBox="-0.995 -1.245 34 34" enable-background="new -0.995 -1.245 34 34"
	 xml:space="preserve">
<defs>
</defs>
<path fill="#6476ae" d="M31.985,25.254c0.067,0.52-0.092,0.973-0.475,1.355l-4.506,4.475c-0.203,0.227-0.469,0.418-0.796,0.577
	c-0.327,0.157-0.649,0.259-0.966,0.305c-0.022,0-0.09,0.005-0.203,0.017S24.78,32,24.6,32c-0.429,0-1.124-0.074-2.083-0.221
	c-0.96-0.147-2.135-0.508-3.523-1.086c-1.389-0.575-2.964-1.439-4.726-2.592c-1.762-1.152-3.636-2.734-5.624-4.746
	c-1.581-1.56-2.89-3.051-3.929-4.475s-1.875-2.74-2.507-3.949c-0.633-1.209-1.107-2.305-1.423-3.288S0.254,9.813,0.141,9.101
	C0.028,8.389-0.017,7.83,0.006,7.423C0.028,7.017,0.04,6.791,0.04,6.745c0.045-0.316,0.146-0.638,0.305-0.966
	c0.158-0.327,0.35-0.593,0.576-0.796l4.505-4.509C5.742,0.158,6.104,0,6.51,0c0.294,0,0.553,0.084,0.779,0.254
	c0.226,0.169,0.418,0.378,0.576,0.627l3.625,6.881c0.203,0.362,0.26,0.758,0.169,1.187c-0.09,0.429-0.282,0.791-0.576,1.085
	l-1.66,1.66c-0.045,0.046-0.084,0.119-0.118,0.221c-0.034,0.102-0.051,0.186-0.051,0.254c0.09,0.475,0.293,1.017,0.61,1.627
	c0.271,0.543,0.689,1.204,1.253,1.983c0.565,0.779,1.367,1.678,2.406,2.695c1.016,1.039,1.919,1.848,2.71,2.424
	c0.79,0.576,1.45,1,1.981,1.271s0.938,0.435,1.22,0.492l0.423,0.084c0.045,0,0.119-0.017,0.221-0.052
	c0.102-0.032,0.175-0.072,0.221-0.117l1.93-1.967c0.407-0.361,0.881-0.543,1.424-0.543c0.383,0,0.688,0.068,0.914,0.205H24.6
	l6.538,3.863C31.612,24.43,31.894,24.803,31.985,25.254"/>
</svg>
