<?xml version="1.0" encoding="utf-8"?>
<!-- Generator: Adobe Illustrator 15.0.2, SVG Export Plug-In  -->
<!DOCTYPE svg PUBLIC "-//W3C//DTD SVG 1.1//EN" "http://www.w3.org/Graphics/SVG/1.1/DTD/svg11.dtd" [
	<!ENTITY ns_flows "http://ns.adobe.com/Flows/1.0/">
]>
<svg version="1.1"
	 xmlns="http://www.w3.org/2000/svg" xmlns:xlink="http://www.w3.org/1999/xlink" xmlns:a="http://ns.adobe.com/AdobeSVGViewerExtensions/3.0/"
	 x="0px" y="0px" width="197px" height="174px" viewBox="-0.75 -1.177 197 174" enable-background="new -0.75 -1.177 197 174"
	 xml:space="preserve">
<defs>
</defs>
<path fill="none" stroke="#082765" stroke-width="1.5" stroke-linecap="round" stroke-linejoin="round" stroke-miterlimit="10" d="
	M169.75,171.694h-144c-3.85,0-7-3.15-7-7V27.75c0-3.85,3.15-7,7-7h144c3.85,0,7,3.15,7,7v136.944
	C176.75,168.544,173.6,171.694,169.75,171.694z"/>
<path fill="#00133E" d="M179.75,161.694h-164c-3.85,0-7-3.15-7-7V17.75c0-3.85,3.15-7,7-7h164c3.85,0,7,3.15,7,7v136.944
	C186.75,158.544,183.6,161.694,179.75,161.694"/>
<path fill="none" stroke="#143C81" stroke-width="1.5" stroke-linecap="round" stroke-linejoin="round" stroke-miterlimit="10" d="
	M179.75,161.694h-164c-3.85,0-7-3.15-7-7V17.75c0-3.85,3.15-7,7-7h164c3.85,0,7,3.15,7,7v136.944
	C186.75,158.544,183.6,161.694,179.75,161.694z"/>
<path fill="#00133E" d="M187.75,151.694h-180c-3.85,0-7-3.15-7-7V7.75c0-3.85,3.15-7,7-7h180c3.85,0,7,3.15,7,7v136.944
	C194.75,148.544,191.6,151.694,187.75,151.694"/>
<path fill="none" stroke="#285FAF" stroke-width="1.5" stroke-linecap="round" stroke-linejoin="round" stroke-miterlimit="10" d="
	M187.75,151.694h-180c-3.85,0-7-3.15-7-7V7.75c0-3.85,3.15-7,7-7h180c3.85,0,7,3.15,7,7v136.944
	C194.75,148.544,191.6,151.694,187.75,151.694z"/>
<line fill="none" stroke="#285FAF" stroke-width="1.5" stroke-linecap="round" stroke-linejoin="round" stroke-miterlimit="10" x1="0.75" y1="17.756" x2="194.75" y2="17.756"/>
<circle fill="none" stroke="#143C81" stroke-width="1.5" stroke-linecap="round" stroke-linejoin="round" stroke-miterlimit="10" cx="12.083" cy="9.589" r="2.333"/>
<circle fill="none" stroke="#143C81" stroke-width="1.5" stroke-linecap="round" stroke-linejoin="round" stroke-miterlimit="10" cx="19.551" cy="9.589" r="2.333"/>
<circle fill="none" stroke="#143C81" stroke-width="1.5" stroke-linecap="round" stroke-linejoin="round" stroke-miterlimit="10" cx="27.018" cy="9.589" r="2.333"/>
<line fill="none" stroke="#285FAF" stroke-width="1.5" stroke-linecap="round" stroke-linejoin="round" stroke-miterlimit="10" x1="110.75" y1="17.756" x2="110.75" y2="151.693"/>
<line fill="none" stroke="#285FAF" stroke-width="1.5" stroke-linecap="round" stroke-linejoin="round" stroke-miterlimit="10" x1="7.417" y1="29.256" x2="17.217" y2="29.256"/>
<line fill="none" stroke="#285FAF" stroke-width="1.5" stroke-linecap="round" stroke-linejoin="round" stroke-miterlimit="10" x1="7.417" y1="39.256" x2="17.217" y2="39.256"/>
<line fill="none" stroke="#285FAF" stroke-width="1.5" stroke-linecap="round" stroke-linejoin="round" stroke-miterlimit="10" x1="7.417" y1="49.256" x2="17.217" y2="49.256"/>
<line fill="none" stroke="#285FAF" stroke-width="1.5" stroke-linecap="round" stroke-linejoin="round" stroke-miterlimit="10" x1="7.417" y1="59.256" x2="17.217" y2="59.256"/>
<line fill="none" stroke="#285FAF" stroke-width="1.5" stroke-linecap="round" stroke-linejoin="round" stroke-miterlimit="10" x1="7.417" y1="69.256" x2="17.217" y2="69.256"/>
<line fill="none" stroke="#285FAF" stroke-width="1.5" stroke-linecap="round" stroke-linejoin="round" stroke-miterlimit="10" x1="7.417" y1="79.256" x2="17.217" y2="79.256"/>
<line fill="none" stroke="#285FAF" stroke-width="1.5" stroke-linecap="round" stroke-linejoin="round" stroke-miterlimit="10" x1="7.417" y1="89.256" x2="17.217" y2="89.256"/>
<line fill="none" stroke="#285FAF" stroke-width="1.5" stroke-linecap="round" stroke-linejoin="round" stroke-miterlimit="10" x1="7.417" y1="99.256" x2="17.217" y2="99.256"/>
<line fill="none" stroke="#285FAF" stroke-width="1.5" stroke-linecap="round" stroke-linejoin="round" stroke-miterlimit="10" x1="7.417" y1="109.256" x2="17.217" y2="109.256"/>
<line fill="none" stroke="#285FAF" stroke-width="1.5" stroke-linecap="round" stroke-linejoin="round" stroke-miterlimit="10" x1="7.417" y1="119.256" x2="17.217" y2="119.256"/>
<line fill="none" stroke="#285FAF" stroke-width="1.5" stroke-linecap="round" stroke-linejoin="round" stroke-miterlimit="10" x1="7.417" y1="129.256" x2="17.217" y2="129.256"/>
<line fill="none" stroke="#285FAF" stroke-width="1.5" stroke-linecap="round" stroke-linejoin="round" stroke-miterlimit="10" x1="7.417" y1="139.256" x2="17.217" y2="139.256"/>
<polyline fill="none" stroke="#143C81" stroke-width="1.5" stroke-linecap="round" stroke-linejoin="round" stroke-miterlimit="10" points="
	159.416,103.589 163.974,103.589 171.486,103.589 178.242,103.589 185.533,103.589 190.75,103.589 "/>
<polyline fill="none" stroke="#143C81" stroke-width="1.5" stroke-linecap="round" stroke-linejoin="round" stroke-miterlimit="10" points="
	159.416,110.589 163.974,110.589 171.486,110.589 178.242,110.589 185.533,110.589 190.75,110.589 "/>
<polyline fill="none" stroke="#143C81" stroke-width="1.5" stroke-linecap="round" stroke-linejoin="round" stroke-miterlimit="10" points="
	159.416,117.589 163.974,117.589 171.486,117.589 178.242,117.589 185.533,117.589 190.75,117.589 "/>
<polyline fill="none" stroke="#143C81" stroke-width="1.5" stroke-linecap="round" stroke-linejoin="round" stroke-miterlimit="10" points="
	159.416,124.589 163.974,124.589 171.486,124.589 178.242,124.589 185.533,124.589 190.75,124.589 "/>
<polyline fill="none" stroke="#143C81" stroke-width="1.5" stroke-linecap="round" stroke-linejoin="round" stroke-miterlimit="10" points="
	159.416,131.589 163.974,131.589 171.486,131.589 178.242,131.589 185.533,131.589 190.75,131.589 "/>
<polyline fill="none" stroke="#143C81" stroke-width="1.5" stroke-linecap="round" stroke-linejoin="round" stroke-miterlimit="10" points="
	159.416,138.589 163.974,138.589 171.486,138.589 178.242,138.589 185.533,138.589 190.75,138.589 "/>
<line fill="none" stroke="#143C81" stroke-width="1.5" stroke-linecap="round" stroke-linejoin="round" stroke-miterlimit="10" x1="25.417" y1="29.256" x2="94.75" y2="29.256"/>
<polyline fill="none" stroke="#143C81" stroke-width="1.5" stroke-linecap="round" stroke-linejoin="round" stroke-miterlimit="10" points="
	77.167,39.256 81.5,39.256 86.75,39.256 91.333,39.256 94.75,39.256 "/>
<polyline fill="none" stroke="#143C81" stroke-width="1.5" stroke-linecap="round" stroke-linejoin="round" stroke-miterlimit="10" points="
	44.125,39.256 48.832,39.256 54.083,39.256 59.583,39.256 65.625,39.256 "/>
<polyline fill="none" stroke="#143C81" stroke-width="1.5" stroke-linecap="round" stroke-linejoin="round" stroke-miterlimit="10" points="
	25.417,39.256 28.333,39.256 34.083,39.256 "/>
<line fill="none" stroke="#143C81" stroke-width="1.5" stroke-linecap="round" stroke-linejoin="round" stroke-miterlimit="10" x1="65.625" y1="49.256" x2="94.75" y2="49.256"/>
<line fill="none" stroke="#143C81" stroke-width="1.5" stroke-linecap="round" stroke-linejoin="round" stroke-miterlimit="10" x1="25.417" y1="49.256" x2="43.5" y2="49.256"/>
<line fill="none" stroke="#143C81" stroke-width="1.5" stroke-linecap="round" stroke-linejoin="round" stroke-miterlimit="10" x1="84.75" y1="59.256" x2="94.75" y2="59.256"/>
<polyline fill="none" stroke="#143C81" stroke-width="1.5" stroke-linecap="round" stroke-linejoin="round" stroke-miterlimit="10" points="
	25.417,59.256 35.5,59.256 42,59.256 50.125,59.256 58.625,59.256 "/>
<polyline fill="none" stroke="#143C81" stroke-width="1.5" stroke-linecap="round" stroke-linejoin="round" stroke-miterlimit="10" points="
	44.125,69.256 56.375,69.256 68.75,69.256 78.125,69.256 86.75,69.256 "/>
<polyline fill="none" stroke="#143C81" stroke-width="1.5" stroke-linecap="round" stroke-linejoin="round" stroke-miterlimit="10" points="
	83.5,79.256 89.75,79.256 94.75,79.256 "/>
<polyline fill="none" stroke="#143C81" stroke-width="1.5" stroke-linecap="round" stroke-linejoin="round" stroke-miterlimit="10" points="
	36.5,79.256 45.168,79.256 56.333,79.256 64.418,79.256 "/>
<line fill="none" stroke="#143C81" stroke-width="1.5" stroke-linecap="round" stroke-linejoin="round" stroke-miterlimit="10" x1="91.333" y1="89.256" x2="94.75" y2="89.256"/>
<polyline fill="none" stroke="#143C81" stroke-width="1.5" stroke-linecap="round" stroke-linejoin="round" stroke-miterlimit="10" points="
	34.458,89.256 40.5,89.256 50.459,89.256 59.417,89.256 69.083,89.256 76,89.256 "/>
<line fill="none" stroke="#143C81" stroke-width="1.5" stroke-linecap="round" stroke-linejoin="round" stroke-miterlimit="10" x1="25.417" y1="89.256" x2="27.333" y2="89.256"/>
<polyline fill="none" stroke="#143C81" stroke-width="1.5" stroke-linecap="round" stroke-linejoin="round" stroke-miterlimit="10" points="
	83.917,99.256 88.667,99.256 91.667,99.256 94.75,99.256 "/>
<polyline fill="none" stroke="#143C81" stroke-width="1.5" stroke-linecap="round" stroke-linejoin="round" stroke-miterlimit="10" points="
	51.833,99.256 57.333,99.256 62.083,99.256 68.667,99.256 73.333,99.256 "/>
<polyline fill="none" stroke="#143C81" stroke-width="1.5" stroke-linecap="round" stroke-linejoin="round" stroke-miterlimit="10" points="
	25.417,99.256 29.333,99.256 32.583,99.256 37.417,99.256 41.583,99.256 "/>
<polyline fill="none" stroke="#143C81" stroke-width="1.5" stroke-linecap="round" stroke-linejoin="round" stroke-miterlimit="10" points="
	68.063,109.256 74.125,109.256 80,109.256 86.188,109.256 91.333,109.256 93.688,109.256 94.75,109.256 "/>
<polyline fill="none" stroke="#143C81" stroke-width="1.5" stroke-linecap="round" stroke-linejoin="round" stroke-miterlimit="10" points="
	38.875,109.256 44.188,109.256 49.938,109.256 54.25,109.256 "/>
<line fill="none" stroke="#143C81" stroke-width="1.5" stroke-linecap="round" stroke-linejoin="round" stroke-miterlimit="10" x1="25.417" y1="109.256" x2="29.938" y2="109.256"/>
<line fill="none" stroke="#143C81" stroke-width="1.5" stroke-linecap="round" stroke-linejoin="round" stroke-miterlimit="10" x1="91.917" y1="119.256" x2="94.75" y2="119.256"/>
<polyline fill="none" stroke="#143C81" stroke-width="1.5" stroke-linecap="round" stroke-linejoin="round" stroke-miterlimit="10" points="
	71.25,119.256 76,119.256 81.833,119.256 "/>
<polyline fill="none" stroke="#143C81" stroke-width="1.5" stroke-linecap="round" stroke-linejoin="round" stroke-miterlimit="10" points="
	50.083,119.256 54.25,119.256 58.333,119.256 61.917,119.256 "/>
<polyline fill="none" stroke="#143C81" stroke-width="1.5" stroke-linecap="round" stroke-linejoin="round" stroke-miterlimit="10" points="
	34.083,119.256 37.667,119.256 41.583,119.256 "/>
<line fill="none" stroke="#143C81" stroke-width="1.5" stroke-linecap="round" stroke-linejoin="round" stroke-miterlimit="10" x1="25.417" y1="119.256" x2="27.677" y2="119.256"/>
<polyline fill="none" stroke="#143C81" stroke-width="1.5" stroke-linecap="round" stroke-linejoin="round" stroke-miterlimit="10" points="
	58.083,129.256 75.582,129.256 85.583,129.256 91.333,129.256 94.75,129.256 "/>
<polyline fill="none" stroke="#143C81" stroke-width="1.5" stroke-linecap="round" stroke-linejoin="round" stroke-miterlimit="10" points="
	25.417,129.256 27.677,129.256 32,129.256 "/>
<line fill="none" stroke="#143C81" stroke-width="1.5" stroke-linecap="round" stroke-linejoin="round" stroke-miterlimit="10" x1="25.417" y1="139.256" x2="94.75" y2="139.256"/>
<rect x="159.417" y="33.089" fill="none" stroke="#143C81" stroke-width="1.5" stroke-linecap="round" stroke-linejoin="round" stroke-miterlimit="10" width="31.333" height="16.167"/>
<rect x="110.75" y="33.089" fill="none" stroke="#285FAF" stroke-width="1.5" stroke-linecap="round" stroke-linejoin="round" stroke-miterlimit="10" width="43.833" height="16.167"/>
<rect x="159.417" y="57.089" fill="none" stroke="#143C81" stroke-width="1.5" stroke-linecap="round" stroke-linejoin="round" stroke-miterlimit="10" width="31.333" height="16.167"/>
<rect x="110.75" y="57.089" fill="none" stroke="#285FAF" stroke-width="1.5" stroke-linecap="round" stroke-linejoin="round" stroke-miterlimit="10" width="43.833" height="16.167"/>
<rect x="159.417" y="81.089" fill="none" stroke="#143C81" stroke-width="1.5" stroke-linecap="round" stroke-linejoin="round" stroke-miterlimit="10" width="31.333" height="16.167"/>
<rect x="110.75" y="81.089" fill="none" stroke="#285FAF" stroke-width="1.5" stroke-linecap="round" stroke-linejoin="round" stroke-miterlimit="10" width="43.833" height="16.167"/>
<rect x="110.75" y="104.089" fill="none" stroke="#285FAF" stroke-width="1.5" stroke-linecap="round" stroke-linejoin="round" stroke-miterlimit="10" width="43.833" height="34.5"/>
<path fill="#005BFD" d="M121.25,80.341c0,5.799-4.701,10.5-10.5,10.5s-10.5-4.701-10.5-10.5s4.701-10.5,10.5-10.5
	S121.25,74.542,121.25,80.341"/>
<circle fill="none" stroke="#1490E7" stroke-width="1.5" stroke-linecap="round" stroke-linejoin="round" stroke-miterlimit="10" cx="110.75" cy="80.341" r="10.5"/>
<polyline fill="none" stroke="#FFFFFF" stroke-width="1.5" stroke-linecap="round" stroke-linejoin="round" stroke-miterlimit="10" points="
	109.375,77.653 112.125,80.278 109.375,83.028 "/>
</svg>
