<?xml version="1.0" encoding="utf-8"?>
<!-- Generator: Adobe Illustrator 15.0.2, SVG Export Plug-In  -->
<!DOCTYPE svg PUBLIC "-//W3C//DTD SVG 1.1//EN" "http://www.w3.org/Graphics/SVG/1.1/DTD/svg11.dtd" [
	<!ENTITY ns_flows "http://ns.adobe.com/Flows/1.0/">
]>
<svg version="1.1"
	 xmlns="http://www.w3.org/2000/svg" xmlns:xlink="http://www.w3.org/1999/xlink" xmlns:a="http://ns.adobe.com/AdobeSVGViewerExtensions/3.0/"
	 x="0px" y="0px" width="285px" height="193px" viewBox="-1.712 -1.626 285 193" enable-background="new -1.712 -1.626 285 193"
	 xml:space="preserve">
<defs>
</defs>
<path fill="#00133E" d="M277.054,123.626c-7.537,12.617-23.877,16.734-36.492,9.196c-12.617-7.539-16.734-23.878-9.197-36.494
	c7.539-12.617,23.877-16.734,36.494-9.196C280.476,94.671,284.593,111.009,277.054,123.626"/>
<circle fill="none" stroke="#082765" stroke-width="1.5" stroke-linecap="round" stroke-linejoin="round" stroke-miterlimit="10" cx="254.209" cy="109.977" r="26.612"/>
<path fill="#00133E" d="M267.054,123.626c-7.537,12.617-23.877,16.734-36.492,9.196c-12.617-7.539-16.734-23.878-9.197-36.494
	c7.539-12.617,23.877-16.734,36.494-9.196C270.476,94.671,274.593,111.009,267.054,123.626"/>
<circle fill="none" stroke="#143C81" stroke-width="1.5" stroke-linecap="round" stroke-linejoin="round" stroke-miterlimit="10" cx="244.209" cy="109.977" r="26.612"/>
<path fill="#00133E" d="M257.054,123.626c-7.537,12.617-23.877,16.734-36.492,9.196c-12.617-7.539-16.734-23.878-9.197-36.494
	c7.539-12.617,23.877-16.734,36.494-9.196C260.476,94.671,264.593,111.009,257.054,123.626"/>
<circle fill="none" stroke="#285FAF" stroke-width="1.5" stroke-linecap="round" stroke-linejoin="round" stroke-miterlimit="10" cx="234.209" cy="109.977" r="26.612"/>
<path fill="none" stroke="#143C81" stroke-width="1.5" stroke-linecap="round" stroke-linejoin="round" stroke-miterlimit="10" d="
	M237.251,114.124c-1.342,2.245-4.25,2.979-6.496,1.637s-2.979-4.25-1.637-6.496s9.061-5.93,9.061-5.93
	S238.593,111.878,237.251,114.124z"/>
<line fill="none" stroke="#143C81" stroke-width="1.5" stroke-linecap="round" stroke-linejoin="round" stroke-miterlimit="10" x1="245.354" y1="91.325" x2="242.917" y2="95.403"/>
<line fill="none" stroke="#143C81" stroke-width="1.5" stroke-linecap="round" stroke-linejoin="round" stroke-miterlimit="10" x1="228.901" y1="88.909" x2="230.062" y2="93.515"/>
<line fill="none" stroke="#143C81" stroke-width="1.5" stroke-linecap="round" stroke-linejoin="round" stroke-miterlimit="10" x1="215.558" y1="98.833" x2="219.636" y2="101.269"/>
<line fill="none" stroke="#143C81" stroke-width="1.5" stroke-linecap="round" stroke-linejoin="round" stroke-miterlimit="10" x1="213.142" y1="115.286" x2="217.747" y2="114.125"/>
<line fill="none" stroke="#143C81" stroke-width="1.5" stroke-linecap="round" stroke-linejoin="round" stroke-miterlimit="10" x1="223.065" y1="128.628" x2="225.501" y2="124.55"/>
<line fill="none" stroke="#143C81" stroke-width="1.5" stroke-linecap="round" stroke-linejoin="round" stroke-miterlimit="10" x1="239.519" y1="131.046" x2="238.358" y2="126.439"/>
<line fill="none" stroke="#143C81" stroke-width="1.5" stroke-linecap="round" stroke-linejoin="round" stroke-miterlimit="10" x1="252.86" y1="121.12" x2="248.784" y2="118.685"/>
<line fill="none" stroke="#143C81" stroke-width="1.5" stroke-linecap="round" stroke-linejoin="round" stroke-miterlimit="10" x1="255.278" y1="104.668" x2="250.673" y2="105.829"/>
<circle fill="none" stroke="#143C81" stroke-width="1.25" stroke-miterlimit="10" stroke-dasharray="4,4" cx="140.69" cy="73.304" r="60.695"/>
<path fill="none" stroke="#285FAF" stroke-width="1.5" stroke-linecap="round" stroke-linejoin="round" stroke-miterlimit="10" d="
	M232.464,178.077V60.291c0-3.3-2.701-6-6-6H45.61c-3.3,0-6,2.7-6,6v117.492"/>
<path fill="#00133E" d="M232.464,178.077V60.291c0-3.3-2.701-6-6-6H45.61c-3.3,0-6,2.7-6,6v117.492"/>
<path fill="none" stroke="#285FAF" stroke-width="1.5" stroke-linecap="round" stroke-linejoin="round" stroke-miterlimit="10" d="
	M232.464,178.077V60.291c0-3.3-2.701-6-6-6H45.61c-3.3,0-6,2.7-6,6v117.492"/>
<path fill="#00133E" d="M221.198,178.077V70.432c0-3.3-2.701-6-6-6H56.875c-3.3,0-6,2.7-6,6v107.375"/>
<path fill="none" stroke="#285FAF" stroke-width="1.5" stroke-linecap="round" stroke-linejoin="round" stroke-miterlimit="10" d="
	M221.198,178.077V70.432c0-3.3-2.701-6-6-6H56.875c-3.3,0-6,2.7-6,6v107.375"/>
<line fill="none" stroke="#143C81" stroke-width="1.5" stroke-linecap="round" stroke-linejoin="round" stroke-miterlimit="10" x1="95.37" y1="86.352" x2="204.821" y2="86.352"/>
<line fill="none" stroke="#143C81" stroke-width="1.5" stroke-linecap="round" stroke-linejoin="round" stroke-miterlimit="10" x1="95.37" y1="96.353" x2="166.728" y2="96.353"/>
<path fill="#061239" d="M249.966,186.638c-0.123,1.297-1.057,2.36-2.359,2.36H24.468c-1.304,0-2.238-1.063-2.361-2.36
	c-0.148-1.57-1.033-4.629-1.182-6.199c-0.122-1.297,1.058-2.361,2.362-2.361h225.5c1.305,0,2.484,1.064,2.361,2.361
	C250.999,182.009,250.114,185.067,249.966,186.638"/>
<path fill="#061239" d="M156.575,177.979L156.575,177.979c0,3.206-2.049,5.805-4.578,5.805h-31.921
	c-2.529,0-4.578-2.599-4.578-5.805"/>
<path fill="none" stroke="#285FAF" stroke-width="1.5" stroke-linecap="round" stroke-linejoin="round" stroke-miterlimit="10" d="
	M249.966,186.638c-0.123,1.297-1.057,2.36-2.359,2.36H24.468c-1.304,0-2.238-1.063-2.361-2.36c-0.148-1.57-1.033-4.629-1.182-6.199
	c-0.122-1.297,1.058-2.361,2.362-2.361h225.5c1.305,0,2.484,1.064,2.361,2.361C250.999,182.009,250.114,185.067,249.966,186.638z"/>
<path fill="none" stroke="#285FAF" stroke-width="1.5" stroke-linecap="round" stroke-linejoin="round" stroke-miterlimit="10" d="
	M156.575,177.979L156.575,177.979c0,3.206-2.049,4.624-4.578,4.624h-31.921c-2.529,0-4.578-1.418-4.578-4.624"/>
<path fill="#005BFD" d="M84.646,103.63H62.499c-1.031,0-1.875-0.844-1.875-1.875V80.542c0-1.031,0.844-1.875,1.875-1.875h22.147
	c1.031,0,1.875,0.844,1.875,1.875v21.213C86.521,102.786,85.676,103.63,84.646,103.63"/>
<path fill="none" stroke="#1490E7" stroke-width="1.5" stroke-linecap="round" stroke-linejoin="round" stroke-miterlimit="10" d="
	M84.646,103.63H62.499c-1.031,0-1.875-0.844-1.875-1.875V80.542c0-1.031,0.844-1.875,1.875-1.875h22.147
	c1.031,0,1.875,0.844,1.875,1.875v21.213C86.521,102.786,85.676,103.63,84.646,103.63z"/>
<line fill="none" stroke="#143C81" stroke-width="1.5" stroke-linecap="round" stroke-linejoin="round" stroke-miterlimit="10" x1="95.37" y1="116.353" x2="204.821" y2="116.353"/>
<line fill="none" stroke="#143C81" stroke-width="1.5" stroke-linecap="round" stroke-linejoin="round" stroke-miterlimit="10" x1="95.37" y1="126.353" x2="166.728" y2="126.353"/>
<path fill="none" stroke="#143C81" stroke-width="1.5" stroke-linecap="round" stroke-linejoin="round" stroke-miterlimit="10" d="
	M85.613,136.147H63c-1.031,0-1.875-0.844-1.875-1.875v-21.664c0-1.031,0.844-1.875,1.875-1.875h22.614
	c1.031,0,1.875,0.844,1.875,1.875v21.664C87.488,135.304,86.645,136.147,85.613,136.147z"/>
<line fill="none" stroke="#143C81" stroke-width="1.5" stroke-linecap="round" stroke-linejoin="round" stroke-miterlimit="10" x1="95.37" y1="146.353" x2="204.821" y2="146.353"/>
<line fill="none" stroke="#143C81" stroke-width="1.5" stroke-linecap="round" stroke-linejoin="round" stroke-miterlimit="10" x1="95.37" y1="156.353" x2="166.728" y2="156.353"/>
<path fill="none" stroke="#143C81" stroke-width="1.5" stroke-linecap="round" stroke-linejoin="round" stroke-miterlimit="10" d="
	M81.447,160.548h-15.75c-1.031,0-1.875-0.845-1.875-1.875v-15.048c0-1.032,0.844-1.875,1.875-1.875h15.75
	c1.031,0,1.875,0.843,1.875,1.875v15.048C83.322,159.703,82.478,160.548,81.447,160.548z"/>
<path fill="#00133E" d="M55.083,64.989c-20.502,6.508-31.846,28.405-25.338,48.907c6.509,20.503,28.406,31.846,48.908,25.338
	c20.502-6.509,31.846-28.405,25.337-48.908C97.482,69.824,75.585,58.48,55.083,64.989 M58.854,76.868
	c13.941-4.426,28.831,3.288,33.257,17.23c4.426,13.941-3.288,28.83-17.229,33.257c-13.942,4.426-28.832-3.288-33.258-17.229
	C37.199,96.185,44.912,81.294,58.854,76.868"/>
<path fill="none" stroke="#285FAF" stroke-width="1.5" stroke-linecap="round" stroke-linejoin="round" stroke-miterlimit="10" d="
	M55.083,64.989c-20.502,6.508-31.846,28.405-25.338,48.907c6.509,20.503,28.406,31.846,48.908,25.338
	c20.502-6.509,31.846-28.405,25.337-48.908C97.482,69.824,75.585,58.48,55.083,64.989z M58.854,76.868
	c13.941-4.426,28.831,3.288,33.257,17.23c4.426,13.941-3.288,28.83-17.229,33.257c-13.942,4.426-28.832-3.288-33.258-17.229
	C37.199,96.185,44.912,81.294,58.854,76.868z"/>
<path fill="none" stroke="#285FAF" stroke-width="1.5" stroke-linecap="round" stroke-linejoin="round" stroke-miterlimit="10" d="
	M1.491,165.011c-1.114,1.313-0.953,3.277,0.358,4.393l5.938,5.041c1.312,1.114,3.278,0.953,4.392-0.357l25.067-31.93
	c1.114-1.312,0.953-3.277-0.358-4.392l-3.561-3.024c-1.312-1.113-3.278-0.953-4.392,0.358L1.491,165.011z"/>
<rect x="34.953" y="129.251" transform="matrix(-0.7622 -0.6473 0.6473 -0.7622 -19.8397 259.1615)" fill="none" stroke="#285FAF" stroke-width="1.5" stroke-linecap="round" stroke-linejoin="round" stroke-miterlimit="10" width="5.452" height="7.948"/>
<path fill="#005BFD" d="M163.321,20.875c0,11.115-9.01,20.125-20.125,20.125c-11.115,0-20.125-9.01-20.125-20.125
	c0-11.115,9.01-20.125,20.125-20.125C154.312,0.75,163.321,9.76,163.321,20.875"/>
<circle fill="none" stroke="#1490E7" stroke-width="1.5" stroke-linecap="round" stroke-linejoin="round" stroke-miterlimit="10" cx="143.197" cy="20.875" r="20.125"/>
<path fill="#005BFD" d="M147.935,15.188c0,2.393-1.939,4.333-4.332,4.333c-2.394,0-4.333-1.94-4.333-4.333
	c0-2.393,1.94-4.333,4.333-4.333C145.995,10.854,147.935,12.795,147.935,15.188"/>
<circle fill="none" stroke="#FFFFFF" stroke-width="1.5" stroke-linecap="round" stroke-linejoin="round" stroke-miterlimit="10" cx="143.602" cy="15.188" r="4.333"/>
<path fill="#005BFD" d="M135.633,31.926v-1.29c0-4.383,3.586-7.969,7.97-7.969c4.383,0,7.969,3.586,7.969,7.969v1.29"/>
<path fill="none" stroke="#FFFFFF" stroke-width="1.5" stroke-linecap="round" stroke-linejoin="round" stroke-miterlimit="10" d="
	M135.633,31.926v-1.29c0-4.383,3.586-7.969,7.97-7.969c4.383,0,7.969,3.586,7.969,7.969v1.29"/>
<path fill="#00133E" d="M111.822,30.649c0,7.525-6.1,13.625-13.625,13.625s-13.625-6.1-13.625-13.625
	c0-7.525,6.1-13.625,13.625-13.625S111.822,23.125,111.822,30.649"/>
<circle fill="none" stroke="#285FAF" stroke-width="1.5" stroke-linecap="round" stroke-linejoin="round" stroke-miterlimit="10" cx="98.197" cy="30.649" r="13.625"/>
<path fill="#00133E" d="M101.405,26.799c0,1.62-1.313,2.934-2.933,2.934c-1.621,0-2.934-1.314-2.934-2.934s1.313-2.933,2.934-2.933
	C100.092,23.866,101.405,25.179,101.405,26.799"/>
<circle fill="none" stroke="#285FAF" stroke-width="1.5" stroke-linecap="round" stroke-linejoin="round" stroke-miterlimit="10" cx="98.471" cy="26.799" r="2.934"/>
<path fill="#00133E" d="M93.076,38.131v-0.873c0-2.968,2.428-5.396,5.396-5.396c2.967,0,5.395,2.428,5.395,5.396v0.873"/>
<path fill="none" stroke="#285FAF" stroke-width="1.5" stroke-linecap="round" stroke-linejoin="round" stroke-miterlimit="10" d="
	M93.076,38.131v-0.873c0-2.968,2.428-5.396,5.396-5.396c2.967,0,5.395,2.428,5.395,5.396v0.873"/>
<path fill="#00133E" d="M212.821,29.649c0,3.659-2.965,6.625-6.625,6.625c-3.658,0-6.625-2.966-6.625-6.625
	c0-3.659,2.967-6.625,6.625-6.625C209.856,23.024,212.821,25.991,212.821,29.649"/>
<circle fill="none" stroke="#082765" stroke-width="1.5" stroke-linecap="round" stroke-linejoin="round" stroke-miterlimit="10" cx="206.196" cy="29.649" r="6.625"/>
<path fill="#00133E" d="M207.821,29.649c0,5.316-4.309,9.625-9.625,9.625s-9.625-4.309-9.625-9.625c0-5.316,4.309-9.625,9.625-9.625
	S207.821,24.333,207.821,29.649"/>
<circle fill="none" stroke="#143C81" stroke-width="1.5" stroke-linecap="round" stroke-linejoin="round" stroke-miterlimit="10" cx="198.196" cy="29.649" r="9.625"/>
<path fill="#00133E" d="M201.821,30.649c0,7.525-6.1,13.625-13.625,13.625s-13.625-6.1-13.625-13.625
	c0-7.525,6.1-13.625,13.625-13.625S201.821,23.125,201.821,30.649"/>
<circle fill="none" stroke="#285FAF" stroke-width="1.5" stroke-linecap="round" stroke-linejoin="round" stroke-miterlimit="10" cx="188.196" cy="30.649" r="13.625"/>
<path fill="#00133E" d="M191.405,26.799c0,1.62-1.314,2.934-2.934,2.934c-1.621,0-2.934-1.314-2.934-2.934s1.313-2.933,2.934-2.933
	C190.091,23.866,191.405,25.179,191.405,26.799"/>
<circle fill="none" stroke="#285FAF" stroke-width="1.5" stroke-linecap="round" stroke-linejoin="round" stroke-miterlimit="10" cx="188.472" cy="26.799" r="2.934"/>
<path fill="#00133E" d="M183.075,38.131v-0.873c0-2.968,2.428-5.396,5.396-5.396c2.967,0,5.395,2.428,5.395,5.396v0.873"/>
<path fill="none" stroke="#285FAF" stroke-width="1.5" stroke-linecap="round" stroke-linejoin="round" stroke-miterlimit="10" d="
	M183.075,38.131v-0.873c0-2.968,2.428-5.396,5.396-5.396c2.967,0,5.395,2.428,5.395,5.396v0.873"/>
</svg>
