<?xml version="1.0" encoding="utf-8"?>
<!-- Generator: Adobe Illustrator 15.0.2, SVG Export Plug-In  -->
<!DOCTYPE svg PUBLIC "-//W3C//DTD SVG 1.1//EN" "http://www.w3.org/Graphics/SVG/1.1/DTD/svg11.dtd" [
	<!ENTITY ns_flows "http://ns.adobe.com/Flows/1.0/">
]>
<svg version="1.1"
	 xmlns="http://www.w3.org/2000/svg" xmlns:xlink="http://www.w3.org/1999/xlink" xmlns:a="http://ns.adobe.com/AdobeSVGViewerExtensions/3.0/"
	 x="0px" y="0px" width="206px" height="196px" viewBox="-1.716 -1.803 206 196" enable-background="new -1.716 -1.803 206 196"
	 xml:space="preserve">
<defs>
</defs>
<path fill="#00133E" d="M167.106,174.797H28.463c-3.85,0-7-3.15-7-7V74.798c0-3.851,3.15-7,7-7h138.644c3.85,0,7,3.149,7,7v92.999
	C174.106,171.646,170.956,174.797,167.106,174.797"/>
<path fill="none" stroke="#285FAF" stroke-width="1.5" stroke-linecap="round" stroke-linejoin="round" stroke-miterlimit="10" d="
	M167.106,174.797H28.463c-3.85,0-7-3.15-7-7V74.798c0-3.851,3.15-7,7-7h138.644c3.85,0,7,3.149,7,7v92.999
	C174.106,171.646,170.956,174.797,167.106,174.797z"/>
<path fill="#005BFD" d="M25.813,115.312c0,2.401-1.947,4.35-4.35,4.35c-2.401,0-4.349-1.948-4.349-4.35s1.947-4.349,4.349-4.349
	C23.865,110.963,25.813,112.91,25.813,115.312"/>
<circle fill="none" stroke="#1490E7" stroke-width="1.5" stroke-linecap="round" stroke-linejoin="round" stroke-miterlimit="10" cx="21.463" cy="115.312" r="4.349"/>
<path fill="#005BFD" d="M178.701,156.23c0,2.401-1.946,4.349-4.349,4.349s-4.35-1.947-4.35-4.349c0-2.402,1.947-4.349,4.35-4.349
	S178.701,153.828,178.701,156.23"/>
<circle fill="none" stroke="#1490E7" stroke-width="1.5" stroke-linecap="round" stroke-linejoin="round" stroke-miterlimit="10" cx="174.352" cy="156.23" r="4.349"/>
<circle fill="none" stroke="#143C81" stroke-width="1.5" stroke-linecap="round" stroke-linejoin="round" stroke-miterlimit="10" cx="71.054" cy="14.909" r="4.099"/>
<circle fill="none" stroke="#143C81" stroke-width="1.5" stroke-linecap="round" stroke-linejoin="round" stroke-miterlimit="10" cx="195.714" cy="72.956" r="3.381"/>
<circle fill="none" stroke="#143C81" stroke-width="1.5" stroke-linecap="round" stroke-linejoin="round" stroke-miterlimit="10" cx="37.923" cy="146.962" r="1.798"/>
<line fill="none" stroke="#082765" stroke-width="1.5" stroke-linecap="round" stroke-linejoin="round" stroke-miterlimit="10" x1="39.471" y1="82.093" x2="152.617" y2="82.093"/>
<polyline fill="none" stroke="#082765" stroke-width="1.5" stroke-linecap="round" stroke-linejoin="round" stroke-miterlimit="10" points="
	123.923,92.093 130.994,92.093 139.562,92.093 147.04,92.093 152.617,92.093 "/>
<polyline fill="none" stroke="#082765" stroke-width="1.5" stroke-linecap="round" stroke-linejoin="round" stroke-miterlimit="10" points="
	70.002,92.093 77.684,92.093 86.252,92.093 95.229,92.093 105.088,92.093 "/>
<polyline fill="none" stroke="#082765" stroke-width="1.5" stroke-linecap="round" stroke-linejoin="round" stroke-miterlimit="10" points="
	39.471,92.093 44.23,92.093 53.614,92.093 "/>
<line fill="none" stroke="#082765" stroke-width="1.5" stroke-linecap="round" stroke-linejoin="round" stroke-miterlimit="10" x1="105.088" y1="102.093" x2="152.617" y2="102.093"/>
<line fill="none" stroke="#082765" stroke-width="1.5" stroke-linecap="round" stroke-linejoin="round" stroke-miterlimit="10" x1="39.471" y1="102.093" x2="68.982" y2="102.093"/>
<line fill="none" stroke="#082765" stroke-width="1.5" stroke-linecap="round" stroke-linejoin="round" stroke-miterlimit="10" x1="136.299" y1="112.093" x2="152.617" y2="112.093"/>
<polyline fill="none" stroke="#082765" stroke-width="1.5" stroke-linecap="round" stroke-linejoin="round" stroke-miterlimit="10" points="
	39.471,112.093 55.926,112.093 66.533,112.093 79.793,112.093 93.664,112.093 "/>
<polyline fill="none" stroke="#082765" stroke-width="1.5" stroke-linecap="round" stroke-linejoin="round" stroke-miterlimit="10" points="
	70.002,122.093 89.992,122.093 110.188,122.093 125.486,122.093 139.563,122.093 "/>
<polyline fill="none" stroke="#082765" stroke-width="1.5" stroke-linecap="round" stroke-linejoin="round" stroke-miterlimit="10" points="
	134.258,132.093 144.458,132.093 152.618,132.093 "/>
<polyline fill="none" stroke="#082765" stroke-width="1.5" stroke-linecap="round" stroke-linejoin="round" stroke-miterlimit="10" points="
	57.558,132.093 71.703,132.093 89.925,132.093 103.117,132.093 "/>
<line fill="none" stroke="#082765" stroke-width="1.5" stroke-linecap="round" stroke-linejoin="round" stroke-miterlimit="10" x1="147.041" y1="142.093" x2="152.617" y2="142.093"/>
<polyline fill="none" stroke="#082765" stroke-width="1.5" stroke-linecap="round" stroke-linejoin="round" stroke-miterlimit="10" points="
	54.226,142.093 64.087,142.093 80.339,142.093 94.958,142.093 110.73,142.093 122.02,142.093 "/>
<line fill="none" stroke="#082765" stroke-width="1.5" stroke-linecap="round" stroke-linejoin="round" stroke-miterlimit="10" x1="39.471" y1="142.093" x2="42.598" y2="142.093"/>
<polyline fill="none" stroke="#082765" stroke-width="1.5" stroke-linecap="round" stroke-linejoin="round" stroke-miterlimit="10" points="
	134.939,152.093 142.69,152.093 147.587,152.093 152.617,152.093 "/>
<polyline fill="none" stroke="#082765" stroke-width="1.5" stroke-linecap="round" stroke-linejoin="round" stroke-miterlimit="10" points="
	82.58,152.093 91.556,152.093 99.309,152.093 110.053,152.093 117.666,152.093 "/>
<polyline fill="none" stroke="#082765" stroke-width="1.5" stroke-linecap="round" stroke-linejoin="round" stroke-miterlimit="10" points="
	39.471,152.093 45.862,152.093 51.166,152.093 59.054,152.093 65.854,152.093 "/>
<polyline fill="none" stroke="#082765" stroke-width="1.5" stroke-linecap="round" stroke-linejoin="round" stroke-miterlimit="10" points="
	109.067,162.093 118.96,162.093 128.547,162.093 138.645,162.093 147.041,162.093 150.884,162.093 152.618,162.093 "/>
<polyline fill="none" stroke="#082765" stroke-width="1.5" stroke-linecap="round" stroke-linejoin="round" stroke-miterlimit="10" points="
	61.435,162.093 70.105,162.093 79.487,162.093 86.524,162.093 "/>
<line fill="none" stroke="#082765" stroke-width="1.5" stroke-linecap="round" stroke-linejoin="round" stroke-miterlimit="10" x1="39.471" y1="162.093" x2="46.85" y2="162.093"/>
<path fill="#00133E" d="M117.855,191.01H77.714c-3.662,0-6.659-2.997-6.659-6.659V68.155c0-3.663,2.997-6.658,6.659-6.658h40.142
	c3.663,0,6.659,2.995,6.659,6.658v116.195C124.515,188.013,121.519,191.01,117.855,191.01"/>
<path fill="none" stroke="#082765" stroke-width="1.5" stroke-linecap="round" stroke-linejoin="round" stroke-miterlimit="10" d="
	M117.855,191.01H77.714c-3.662,0-6.659-2.997-6.659-6.659V68.155c0-3.663,2.997-6.658,6.659-6.658h40.142
	c3.663,0,6.659,2.995,6.659,6.658v116.195C124.515,188.013,121.519,191.01,117.855,191.01z"/>
<path fill="#00133E" d="M123.018,181.502H72.552c-3.663,0-6.659-2.997-6.659-6.659V58.647c0-3.663,2.996-6.659,6.659-6.659h50.466
	c3.663,0,6.659,2.996,6.659,6.659v116.195C129.677,178.505,126.681,181.502,123.018,181.502"/>
<path fill="none" stroke="#143C81" stroke-width="1.5" stroke-linecap="round" stroke-linejoin="round" stroke-miterlimit="10" d="
	M123.018,181.502H72.552c-3.663,0-6.659-2.997-6.659-6.659V58.647c0-3.663,2.996-6.659,6.659-6.659h50.466
	c3.663,0,6.659,2.996,6.659,6.659v116.195C129.677,178.505,126.681,181.502,123.018,181.502z"/>
<path fill="#00133E" d="M127.957,172.275H67.612c-3.662,0-6.659-2.997-6.659-6.659V49.422c0-3.663,2.997-6.659,6.659-6.659h60.345
	c3.663,0,6.659,2.996,6.659,6.659v116.194C134.616,169.278,131.62,172.275,127.957,172.275"/>
<path fill="none" stroke="#285FAF" stroke-width="1.5" stroke-linecap="round" stroke-linejoin="round" stroke-miterlimit="10" d="
	M127.957,172.275H67.612c-3.662,0-6.659-2.997-6.659-6.659V49.422c0-3.663,2.997-6.659,6.659-6.659h60.345
	c3.663,0,6.659,2.996,6.659,6.659v116.194C134.616,169.278,131.62,172.275,127.957,172.275z"/>
<line fill="none" stroke="#285FAF" stroke-width="1.5" stroke-linecap="round" stroke-linejoin="round" stroke-miterlimit="10" x1="60.953" y1="58.631" x2="134.616" y2="58.631"/>
<line fill="none" stroke="#285FAF" stroke-width="1.5" stroke-linecap="round" stroke-linejoin="round" stroke-miterlimit="10" x1="134.616" y1="151.108" x2="60.953" y2="151.108"/>
<circle fill="none" stroke="#143C81" stroke-width="1.5" stroke-linecap="round" stroke-linejoin="round" stroke-miterlimit="10" cx="97.785" cy="162.366" r="4.009"/>
<path fill="#41658C" d="M110.132,97.07c0,6.949-5.634,12.582-12.582,12.582S84.967,104.02,84.967,97.07s5.635-12.582,12.583-12.582
	S110.132,90.121,110.132,97.07"/>
<path fill="none" stroke="#1490E7" stroke-width="1.5" stroke-linecap="round" stroke-linejoin="round" stroke-miterlimit="10" d="
	M79.123,96.384c0-10.103,8.187-18.291,18.288-18.291c10.104,0,18.291,8.188,18.291,18.291"/>
<path fill="#005BFD" d="M81.731,98.994c0,1.442-1.169,2.61-2.611,2.61s-2.61-1.168-2.61-2.61s1.168-2.611,2.61-2.611
	S81.731,97.552,81.731,98.994"/>
<circle fill="none" stroke="#1490E7" stroke-width="1.5" stroke-linecap="round" stroke-linejoin="round" stroke-miterlimit="10" cx="79.121" cy="98.994" r="2.611"/>
<path fill="#005BFD" d="M110.132,97.07c0,6.949-5.634,12.582-12.582,12.582S84.967,104.02,84.967,97.07s5.635-12.582,12.583-12.582
	S110.132,90.121,110.132,97.07"/>
<circle fill="none" stroke="#1490E7" stroke-width="1.5" stroke-linecap="round" stroke-linejoin="round" stroke-miterlimit="10" cx="97.549" cy="97.07" r="12.583"/>
<path fill="#005BFD" d="M104.634,115.312H90.936c-9.201,0-16.661,7.459-16.661,16.661h47.021
	C121.295,122.771,113.838,115.312,104.634,115.312"/>
<path fill="none" stroke="#1490E7" stroke-width="1.5" stroke-linecap="round" stroke-linejoin="round" stroke-miterlimit="10" d="
	M104.634,115.312H90.936c-9.201,0-16.661,7.459-16.661,16.661h47.021C121.295,122.771,113.838,115.312,104.634,115.312z"/>
<path fill="#00133E" d="M40.613,0.75c-9.297,0-16.833,7.536-16.833,16.833c0,3.766,1.251,7.229,3.34,10.034l-0.854,7.65l6.45-2.821
	c2.355,1.254,5.042,1.971,7.896,1.971c9.297,0,16.833-7.537,16.833-16.834S49.91,0.75,40.613,0.75"/>
<path fill="none" stroke="#285FAF" stroke-width="1.5" stroke-linecap="round" stroke-linejoin="round" stroke-miterlimit="10" d="
	M40.613,0.75c-9.297,0-16.833,7.536-16.833,16.833c0,3.766,1.251,7.229,3.34,10.034l-0.854,7.65l6.45-2.821
	c2.355,1.254,5.042,1.971,7.896,1.971c9.297,0,16.833-7.537,16.833-16.834S49.91,0.75,40.613,0.75z"/>
<circle fill="none" stroke="#143C81" stroke-width="1.5" stroke-linecap="round" stroke-linejoin="round" stroke-miterlimit="10" cx="32.995" cy="18.017" r="2.208"/>
<circle fill="none" stroke="#143C81" stroke-width="1.5" stroke-linecap="round" stroke-linejoin="round" stroke-miterlimit="10" cx="40.367" cy="18.017" r="2.208"/>
<circle fill="none" stroke="#143C81" stroke-width="1.5" stroke-linecap="round" stroke-linejoin="round" stroke-miterlimit="10" cx="47.738" cy="18.017" r="2.208"/>
<path fill="#00133E" d="M166.735,53.539c9.297,0,16.832,7.535,16.832,16.833c0,3.766-1.251,7.229-3.34,10.033l0.854,7.651
	l-6.45-2.822c-2.356,1.254-5.042,1.972-7.896,1.972c-9.298,0-16.834-7.537-16.834-16.834
	C149.901,61.074,157.438,53.539,166.735,53.539"/>
<path fill="none" stroke="#285FAF" stroke-width="1.5" stroke-linecap="round" stroke-linejoin="round" stroke-miterlimit="10" d="
	M166.735,53.539c9.297,0,16.832,7.535,16.832,16.833c0,3.766-1.251,7.229-3.34,10.033l0.854,7.651l-6.45-2.822
	c-2.356,1.254-5.042,1.972-7.896,1.972c-9.298,0-16.834-7.537-16.834-16.834C149.901,61.074,157.438,53.539,166.735,53.539z"/>
<circle fill="none" stroke="#143C81" stroke-width="1.5" stroke-linecap="round" stroke-linejoin="round" stroke-miterlimit="10" cx="174.353" cy="70.805" r="2.208"/>
<circle fill="none" stroke="#143C81" stroke-width="1.5" stroke-linecap="round" stroke-linejoin="round" stroke-miterlimit="10" cx="166.981" cy="70.805" r="2.208"/>
<circle fill="none" stroke="#143C81" stroke-width="1.5" stroke-linecap="round" stroke-linejoin="round" stroke-miterlimit="10" cx="159.61" cy="70.805" r="2.208"/>
<polyline fill="none" stroke="#143C81" stroke-width="1.5" stroke-linecap="round" stroke-linejoin="round" stroke-miterlimit="10" points="
	74.979,15.088 96.044,15.088 96.044,31.052 "/>
<polyline fill="none" stroke="#143C81" stroke-width="1.5" stroke-linecap="round" stroke-linejoin="round" stroke-miterlimit="10" points="
	181.616,115.312 203.284,115.312 203.284,73.013 199.617,73.013 "/>
<polyline fill="none" stroke="#143C81" stroke-width="1.5" stroke-linecap="round" stroke-linejoin="round" stroke-miterlimit="10" points="
	54.953,125.13 45.784,125.13 45.784,146.963 39.617,146.963 "/>
<path fill="#00133E" d="M41.3,176.344c-3.294,10.953-14.838,17.17-25.798,13.876c-10.946-3.294-17.155-14.838-13.875-25.798
	c3.294-10.946,14.852-17.155,25.798-13.868C38.385,153.84,44.594,165.397,41.3,176.344"/>
<path fill="none" stroke="#285FAF" stroke-width="1.5" stroke-linecap="round" stroke-linejoin="round" stroke-miterlimit="10" d="
	M41.3,176.344c-3.294,10.953-14.838,17.17-25.798,13.876c-10.946-3.294-17.155-14.838-13.875-25.798
	c3.294-10.946,14.852-17.155,25.798-13.868C38.385,153.84,44.594,165.397,41.3,176.344z"/>
<path fill="#00133E" d="M25.799,164.185c0,2.393-1.94,4.333-4.333,4.333s-4.333-1.94-4.333-4.333c0-2.394,1.94-4.333,4.333-4.333
	S25.799,161.791,25.799,164.185"/>
<circle fill="none" stroke="#285FAF" stroke-width="1.5" stroke-linecap="round" stroke-linejoin="round" stroke-miterlimit="10" cx="21.466" cy="164.185" r="4.333"/>
<path fill="#00133E" d="M13.496,180.923v-1.29c0-4.383,3.586-7.969,7.97-7.969s7.97,3.586,7.97,7.969v1.29"/>
<path fill="none" stroke="#285FAF" stroke-width="1.5" stroke-linecap="round" stroke-linejoin="round" stroke-miterlimit="10" d="
	M13.496,180.923v-1.29c0-4.383,3.586-7.969,7.97-7.969s7.97,3.586,7.97,7.969v1.29"/>
</svg>
