<?xml version="1.0" encoding="utf-8"?>
<!-- Generator: Adobe Illustrator 15.0.2, SVG Export Plug-In  -->
<!DOCTYPE svg PUBLIC "-//W3C//DTD SVG 1.1//EN" "http://www.w3.org/Graphics/SVG/1.1/DTD/svg11.dtd" [
	<!ENTITY ns_flows "http://ns.adobe.com/Flows/1.0/">
]>
<svg version="1.1"
	 xmlns="http://www.w3.org/2000/svg" xmlns:xlink="http://www.w3.org/1999/xlink" xmlns:a="http://ns.adobe.com/AdobeSVGViewerExtensions/3.0/"
	 x="0px" y="0px" width="205px" height="167px" viewBox="-0.716 -0.329 205 167" enable-background="new -0.716 -0.329 205 167"
	 xml:space="preserve">
<defs>
</defs>
<path fill="none" stroke="#082765" stroke-width="1.5" stroke-linecap="round" stroke-linejoin="round" stroke-miterlimit="10" d="
	M198.429,104.706H69.304c-2.424,0-4.39-1.966-4.39-4.39V26.919c0-2.425,1.966-4.39,4.39-4.39h129.125
	c2.426,0,4.391,1.965,4.391,4.39v73.396C202.819,102.74,200.854,104.706,198.429,104.706z"/>
<path fill="#00133E" d="M192.153,107.918H52.244c-2.424,0-4.39-1.966-4.39-4.39V23.707c0-2.425,1.966-4.391,4.39-4.391h139.909
	c2.425,0,4.39,1.966,4.39,4.391v79.822C196.543,105.953,194.578,107.918,192.153,107.918"/>
<path fill="none" stroke="#143C81" stroke-width="1.5" stroke-linecap="round" stroke-linejoin="round" stroke-miterlimit="10" d="
	M192.153,107.918H52.244c-2.424,0-4.39-1.966-4.39-4.39V23.707c0-2.425,1.966-4.391,4.39-4.391h139.909
	c2.425,0,4.39,1.966,4.39,4.391v79.822C196.543,105.953,194.578,107.918,192.153,107.918z"/>
<path fill="none" stroke="#082765" stroke-width="1.5" stroke-linecap="round" stroke-linejoin="round" stroke-miterlimit="10" d="
	M5.14,104.706h129.125c2.424,0,4.39-1.966,4.39-4.39V26.919c0-2.425-1.966-4.39-4.39-4.39H5.14c-2.425,0-4.39,1.965-4.39,4.39
	v73.396C0.75,102.74,2.715,104.706,5.14,104.706z"/>
<path fill="#00133E" d="M11.416,107.918h139.909c2.424,0,4.39-1.966,4.39-4.39V23.707c0-2.425-1.966-4.391-4.39-4.391H11.416
	c-2.426,0-4.391,1.966-4.391,4.391v79.822C7.025,105.953,8.99,107.918,11.416,107.918"/>
<path fill="none" stroke="#143C81" stroke-width="1.5" stroke-linecap="round" stroke-linejoin="round" stroke-miterlimit="10" d="
	M11.416,107.918h139.909c2.424,0,4.39-1.966,4.39-4.39V23.707c0-2.425-1.966-4.391-4.39-4.391H11.416
	c-2.426,0-4.391,1.966-4.391,4.391v79.822C7.025,105.953,8.99,107.918,11.416,107.918z"/>
<rect x="15.681" y="11.093" fill="#00133E" width="172.729" height="102.927"/>
<rect x="15.681" y="11.093" fill="none" stroke="#285FAF" stroke-width="1.5" stroke-linecap="round" stroke-linejoin="round" stroke-miterlimit="10" width="172.729" height="102.927"/>
<line fill="none" stroke="#143C81" stroke-width="1.5" stroke-linecap="round" stroke-linejoin="round" stroke-miterlimit="10" x1="29.872" y1="23.633" x2="96.228" y2="23.633"/>
<line fill="none" stroke="#143C81" stroke-width="1.5" stroke-linecap="round" stroke-linejoin="round" stroke-miterlimit="10" x1="29.872" y1="32.919" x2="75.237" y2="32.919"/>
<line fill="none" stroke="#143C81" stroke-width="1.5" stroke-linecap="round" stroke-linejoin="round" stroke-miterlimit="10" x1="29.872" y1="42.205" x2="56.23" y2="42.205"/>
<line fill="none" stroke="#143C81" stroke-width="1.5" stroke-linecap="round" stroke-linejoin="round" stroke-miterlimit="10" x1="118.281" y1="77.167" x2="173.804" y2="77.167"/>
<line fill="none" stroke="#143C81" stroke-width="1.5" stroke-linecap="round" stroke-linejoin="round" stroke-miterlimit="10" x1="118.281" y1="86.453" x2="169.547" y2="86.453"/>
<line fill="none" stroke="#143C81" stroke-width="1.5" stroke-linecap="round" stroke-linejoin="round" stroke-miterlimit="10" x1="118.281" y1="95.738" x2="157.939" y2="95.738"/>
<line fill="none" stroke="#143C81" stroke-width="1.5" stroke-linecap="round" stroke-linejoin="round" stroke-miterlimit="10" x1="118.281" y1="58.595" x2="169.547" y2="58.595"/>
<line fill="none" stroke="#143C81" stroke-width="1.5" stroke-linecap="round" stroke-linejoin="round" stroke-miterlimit="10" x1="118.281" y1="67.881" x2="157.939" y2="67.881"/>
<path fill="none" stroke="#285FAF" stroke-width="1.5" stroke-linecap="round" stroke-linejoin="round" stroke-miterlimit="10" d="
	M190.407,11.093H13.683c-1.516,0-2.756-1.24-2.756-2.755V3.506c0-1.516,1.24-2.756,2.756-2.756h176.725
	c1.515,0,2.755,1.24,2.755,2.756v4.832C193.162,9.853,191.922,11.093,190.407,11.093z"/>
<path fill="none" stroke="#285FAF" stroke-width="1.5" stroke-linecap="round" stroke-linejoin="round" stroke-miterlimit="10" d="
	M190.407,124.845H13.683c-1.516,0-2.756-1.24-2.756-2.756v-4.832c0-1.516,1.24-2.756,2.756-2.756h176.725
	c1.515,0,2.755,1.24,2.755,2.756v4.832C193.162,123.605,191.922,124.845,190.407,124.845z"/>
<path fill="none" stroke="#285FAF" stroke-width="1.5" stroke-linecap="round" stroke-linejoin="round" stroke-miterlimit="10" d="
	M136.032,165.592H68.058c-1.516,0-2.756-1.239-2.756-2.755v-1.472c0-1.517,1.24-2.757,2.756-2.757h67.975
	c1.515,0,2.755,1.24,2.755,2.757v1.472C138.787,164.353,137.547,165.592,136.032,165.592z"/>
<line fill="none" stroke="#285FAF" stroke-width="1.5" stroke-linecap="round" stroke-linejoin="round" stroke-miterlimit="10" x1="29.872" y1="95.738" x2="102.998" y2="95.738"/>
<path fill="#005BFD" d="M44.769,95.738h-9.576v-38.12c0-1.272,1.041-2.312,2.312-2.312h4.951c1.272,0,2.313,1.04,2.313,2.312V95.738
	z"/>
<path fill="none" stroke="#1490E7" stroke-width="1.5" stroke-linecap="round" stroke-linejoin="round" stroke-miterlimit="10" d="
	M44.769,95.738h-9.576v-38.12c0-1.272,1.041-2.312,2.312-2.312h4.951c1.272,0,2.313,1.04,2.313,2.312V95.738z"/>
<path fill="#005BFD" d="M61.019,95.738h-9.576V67.437c0-1.272,1.041-2.312,2.313-2.312h4.95c1.272,0,2.313,1.04,2.313,2.312V95.738z
	"/>
<path fill="none" stroke="#1490E7" stroke-width="1.5" stroke-linecap="round" stroke-linejoin="round" stroke-miterlimit="10" d="
	M61.019,95.738h-9.576V67.437c0-1.272,1.041-2.312,2.313-2.312h4.95c1.272,0,2.313,1.04,2.313,2.312V95.738z"/>
<path fill="#005BFD" d="M77.269,95.738h-9.576V74.401c0-1.272,1.041-2.313,2.313-2.313h4.951c1.271,0,2.313,1.041,2.313,2.313
	V95.738z"/>
<path fill="none" stroke="#1490E7" stroke-width="1.5" stroke-linecap="round" stroke-linejoin="round" stroke-miterlimit="10" d="
	M77.269,95.738h-9.576V74.401c0-1.272,1.041-2.313,2.313-2.313h4.951c1.271,0,2.313,1.041,2.313,2.313V95.738z"/>
<path fill="#005BFD" d="M93.519,95.738h-9.575V61.342c0-1.272,1.041-2.312,2.312-2.312h4.951c1.271,0,2.313,1.04,2.313,2.312V95.738
	z"/>
<path fill="none" stroke="#1490E7" stroke-width="1.5" stroke-linecap="round" stroke-linejoin="round" stroke-miterlimit="10" d="
	M93.519,95.738h-9.575V61.342c0-1.272,1.041-2.312,2.312-2.312h4.951c1.271,0,2.313,1.04,2.313,2.312V95.738z"/>
<line fill="none" stroke="#285FAF" stroke-width="1.5" stroke-linecap="round" stroke-linejoin="round" stroke-miterlimit="10" x1="102.045" y1="125.007" x2="102.045" y2="158.612"/>
<path fill="none" stroke="#143C81" stroke-width="1.5" stroke-linecap="round" stroke-linejoin="round" stroke-miterlimit="10" d="
	M175.823,47.955H119.55c-0.697,0-1.269-0.571-1.269-1.268V24.316c0-0.698,0.571-1.268,1.269-1.268h56.273
	c0.698,0,1.268,0.57,1.268,1.268v22.371C177.091,47.384,176.521,47.955,175.823,47.955z"/>
</svg>
