<?xml version="1.0" encoding="utf-8"?>
<!-- Generator: Adobe Illustrator 15.0.2, SVG Export Plug-In  -->
<!DOCTYPE svg PUBLIC "-//W3C//DTD SVG 1.1//EN" "http://www.w3.org/Graphics/SVG/1.1/DTD/svg11.dtd" [
	<!ENTITY ns_flows "http://ns.adobe.com/Flows/1.0/">
]>
<svg version="1.1"
	 xmlns="http://www.w3.org/2000/svg" xmlns:xlink="http://www.w3.org/1999/xlink" xmlns:a="http://ns.adobe.com/AdobeSVGViewerExtensions/3.0/"
	 x="0px" y="0px" width="226px" height="198px" viewBox="-0.489 -1.337 226 198" enable-background="new -0.489 -1.337 226 198"
	 xml:space="preserve">
<defs>
</defs>
<path fill="#00133E" d="M143.021,168.694H35c-3.85,0-7-3.149-7-7V24.75c0-3.85,3.15-7,7-7h108.021c3.851,0,7,3.15,7,7v136.944
	C150.021,165.544,146.872,168.694,143.021,168.694"/>
<path fill="none" stroke="#082765" stroke-width="1.5" stroke-linecap="round" stroke-linejoin="round" stroke-miterlimit="10" d="
	M143.021,168.694H35c-3.85,0-7-3.149-7-7V24.75c0-3.85,3.15-7,7-7h108.021c3.851,0,7,3.15,7,7v136.944
	C150.021,165.544,146.872,168.694,143.021,168.694z"/>
<path fill="#00133E" d="M149.511,160.694h-121c-3.85,0-7-3.149-7-7V16.75c0-3.85,3.15-7,7-7h121c3.85,0,7,3.15,7,7v136.944
	C156.511,157.544,153.361,160.694,149.511,160.694"/>
<path fill="none" stroke="#143C81" stroke-width="1.5" stroke-linecap="round" stroke-linejoin="round" stroke-miterlimit="10" d="
	M149.511,160.694h-121c-3.85,0-7-3.149-7-7V16.75c0-3.85,3.15-7,7-7h121c3.85,0,7,3.15,7,7v136.944
	C156.511,157.544,153.361,160.694,149.511,160.694z"/>
<path fill="#00133E" d="M158.177,151.694H19.845c-3.85,0-7-3.149-7-7V7.75c0-3.85,3.15-7,7-7h138.333c3.851,0,7,3.15,7,7v136.944
	C165.177,148.544,162.028,151.694,158.177,151.694"/>
<path fill="none" stroke="#285FAF" stroke-width="1.5" stroke-linecap="round" stroke-linejoin="round" stroke-miterlimit="10" d="
	M158.177,151.694H19.845c-3.85,0-7-3.149-7-7V7.75c0-3.85,3.15-7,7-7h138.333c3.851,0,7,3.15,7,7v136.944
	C165.177,148.544,162.028,151.694,158.177,151.694z"/>
<line fill="none" stroke="#285FAF" stroke-width="1.5" stroke-linecap="round" stroke-linejoin="round" stroke-miterlimit="10" x1="13.011" y1="17.82" x2="165.178" y2="17.82"/>
<circle fill="none" stroke="#143C81" stroke-width="1.5" stroke-linecap="round" stroke-linejoin="round" stroke-miterlimit="10" cx="24.345" cy="9.653" r="2.333"/>
<circle fill="none" stroke="#143C81" stroke-width="1.5" stroke-linecap="round" stroke-linejoin="round" stroke-miterlimit="10" cx="31.812" cy="9.653" r="2.333"/>
<circle fill="none" stroke="#143C81" stroke-width="1.5" stroke-linecap="round" stroke-linejoin="round" stroke-miterlimit="10" cx="39.279" cy="9.653" r="2.333"/>
<line fill="none" stroke="#143C81" stroke-width="1.5" stroke-linecap="round" stroke-linejoin="round" stroke-miterlimit="10" x1="64.845" y1="33.746" x2="153.261" y2="33.746"/>
<polyline fill="none" stroke="#143C81" stroke-width="1.5" stroke-linecap="round" stroke-linejoin="round" stroke-miterlimit="10" points="
	130.838,43.746 136.365,43.746 143.06,43.746 148.904,43.746 153.261,43.746 "/>
<polyline fill="none" stroke="#143C81" stroke-width="1.5" stroke-linecap="round" stroke-linejoin="round" stroke-miterlimit="10" points="
	88.703,43.746 94.706,43.746 101.401,43.746 108.416,43.746 116.12,43.746 "/>
<polyline fill="none" stroke="#143C81" stroke-width="1.5" stroke-linecap="round" stroke-linejoin="round" stroke-miterlimit="10" points="
	64.845,43.746 68.563,43.746 75.896,43.746 "/>
<polyline fill="none" stroke="#143C81" stroke-width="1.5" stroke-linecap="round" stroke-linejoin="round" stroke-miterlimit="10" points="
	130.838,63.746 136.365,63.746 143.06,63.746 148.904,63.746 153.261,63.746 "/>
<polyline fill="none" stroke="#143C81" stroke-width="1.5" stroke-linecap="round" stroke-linejoin="round" stroke-miterlimit="10" points="
	88.703,63.746 94.706,63.746 101.401,63.746 108.416,63.746 116.12,63.746 "/>
<polyline fill="none" stroke="#143C81" stroke-width="1.5" stroke-linecap="round" stroke-linejoin="round" stroke-miterlimit="10" points="
	64.845,63.746 68.563,63.746 75.896,63.746 "/>
<line fill="none" stroke="#143C81" stroke-width="1.5" stroke-linecap="round" stroke-linejoin="round" stroke-miterlimit="10" x1="116.121" y1="53.746" x2="153.261" y2="53.746"/>
<line fill="none" stroke="#143C81" stroke-width="1.5" stroke-linecap="round" stroke-linejoin="round" stroke-miterlimit="10" x1="64.845" y1="53.746" x2="87.906" y2="53.746"/>
<rect x="22.011" y="31.29" fill="none" stroke="#082765" stroke-width="1.5" stroke-linecap="round" stroke-linejoin="round" stroke-miterlimit="10" width="31.333" height="34.075"/>
<line fill="none" stroke="#143C81" stroke-width="1.5" stroke-linecap="round" stroke-linejoin="round" stroke-miterlimit="10" x1="64.845" y1="81.746" x2="153.261" y2="81.746"/>
<polyline fill="none" stroke="#143C81" stroke-width="1.5" stroke-linecap="round" stroke-linejoin="round" stroke-miterlimit="10" points="
	130.838,91.746 136.365,91.746 143.06,91.746 148.904,91.746 153.261,91.746 "/>
<polyline fill="none" stroke="#143C81" stroke-width="1.5" stroke-linecap="round" stroke-linejoin="round" stroke-miterlimit="10" points="
	88.703,91.746 94.706,91.746 101.401,91.746 108.416,91.746 116.12,91.746 "/>
<polyline fill="none" stroke="#143C81" stroke-width="1.5" stroke-linecap="round" stroke-linejoin="round" stroke-miterlimit="10" points="
	64.845,91.746 68.563,91.746 75.896,91.746 "/>
<polyline fill="none" stroke="#143C81" stroke-width="1.5" stroke-linecap="round" stroke-linejoin="round" stroke-miterlimit="10" points="
	130.838,111.746 136.365,111.746 143.06,111.746 148.904,111.746 153.261,111.746 "/>
<polyline fill="none" stroke="#143C81" stroke-width="1.5" stroke-linecap="round" stroke-linejoin="round" stroke-miterlimit="10" points="
	88.703,111.746 94.706,111.746 101.401,111.746 108.416,111.746 116.12,111.746 "/>
<polyline fill="none" stroke="#143C81" stroke-width="1.5" stroke-linecap="round" stroke-linejoin="round" stroke-miterlimit="10" points="
	64.845,111.746 68.563,111.746 75.896,111.746 "/>
<line fill="none" stroke="#143C81" stroke-width="1.5" stroke-linecap="round" stroke-linejoin="round" stroke-miterlimit="10" x1="116.121" y1="101.746" x2="153.261" y2="101.746"/>
<line fill="none" stroke="#143C81" stroke-width="1.5" stroke-linecap="round" stroke-linejoin="round" stroke-miterlimit="10" x1="64.845" y1="101.746" x2="87.906" y2="101.746"/>
<rect x="22.011" y="79.29" fill="#005BFD" width="31.333" height="34.075"/>
<rect x="22.011" y="79.29" fill="none" stroke="#1490E7" stroke-width="1.5" stroke-linecap="round" stroke-linejoin="round" stroke-miterlimit="10" width="31.333" height="34.075"/>
<polyline fill="none" stroke="#143C81" stroke-width="1.5" stroke-linecap="round" stroke-linejoin="round" stroke-miterlimit="10" points="
	130.838,139.746 136.365,139.746 143.06,139.746 148.904,139.746 153.261,139.746 "/>
<polyline fill="none" stroke="#143C81" stroke-width="1.5" stroke-linecap="round" stroke-linejoin="round" stroke-miterlimit="10" points="
	88.703,139.746 94.706,139.746 101.401,139.746 108.416,139.746 116.12,139.746 "/>
<polyline fill="none" stroke="#143C81" stroke-width="1.5" stroke-linecap="round" stroke-linejoin="round" stroke-miterlimit="10" points="
	64.845,139.746 68.563,139.746 75.896,139.746 "/>
<polyline fill="none" stroke="#143C81" stroke-width="1.5" stroke-linecap="round" stroke-linejoin="round" stroke-miterlimit="10" points="
	130.838,147.746 136.365,147.746 143.06,147.746 148.904,147.746 153.261,147.746 "/>
<polyline fill="none" stroke="#143C81" stroke-width="1.5" stroke-linecap="round" stroke-linejoin="round" stroke-miterlimit="10" points="
	88.703,147.746 94.706,147.746 101.401,147.746 108.416,147.746 116.12,147.746 "/>
<polyline fill="none" stroke="#143C81" stroke-width="1.5" stroke-linecap="round" stroke-linejoin="round" stroke-miterlimit="10" points="
	64.845,147.746 68.563,147.746 75.896,147.746 "/>
<polyline fill="none" stroke="#143C81" stroke-width="1.5" stroke-linecap="round" stroke-linejoin="round" stroke-miterlimit="10" points="
	130.838,131.746 136.365,131.746 143.06,131.746 148.904,131.746 153.261,131.746 "/>
<polyline fill="none" stroke="#143C81" stroke-width="1.5" stroke-linecap="round" stroke-linejoin="round" stroke-miterlimit="10" points="
	88.703,131.746 94.706,131.746 101.401,131.746 108.416,131.746 116.12,131.746 "/>
<polyline fill="none" stroke="#143C81" stroke-width="1.5" stroke-linecap="round" stroke-linejoin="round" stroke-miterlimit="10" points="
	64.845,131.746 68.563,131.746 75.896,131.746 "/>
<polyline fill="none" stroke="#082765" stroke-width="1.5" stroke-linecap="round" stroke-linejoin="round" stroke-miterlimit="10" points="
	22.011,150.303 22.011,127.29 53.344,127.29 53.344,150.303 "/>
<circle fill="none" stroke="#143C81" stroke-width="1.5" stroke-linecap="round" stroke-linejoin="round" stroke-miterlimit="10" cx="193.511" cy="30.29" r="3.041"/>
<circle fill="none" stroke="#143C81" stroke-width="1.5" stroke-linecap="round" stroke-linejoin="round" stroke-miterlimit="10" cx="53.803" cy="188.262" r="3.042"/>
<rect x="181.984" y="2.929" fill="none" stroke="#082765" stroke-width="1.5" stroke-linecap="round" stroke-linejoin="round" stroke-miterlimit="10" width="42.521" height="16.584"/>
<rect x="163.656" y="112.649" fill="none" stroke="#082765" stroke-width="1.5" stroke-linecap="round" stroke-linejoin="round" stroke-miterlimit="10" width="11.211" height="12.193"/>
<path fill="#00133E" d="M186.966,189.46h-27.244c-3.662,0-6.658-2.997-6.658-6.659V97.853c0-3.662,2.996-6.659,6.658-6.659h27.244
	c3.663,0,6.659,2.997,6.659,6.659v84.949C193.625,186.463,190.629,189.46,186.966,189.46"/>
<path fill="none" stroke="#082765" stroke-width="1.5" stroke-linecap="round" stroke-linejoin="round" stroke-miterlimit="10" d="
	M186.966,189.46h-27.244c-3.662,0-6.658-2.997-6.658-6.659V97.853c0-3.662,2.996-6.659,6.658-6.659h27.244
	c3.663,0,6.659,2.997,6.659,6.659v84.949C193.625,186.463,190.629,189.46,186.966,189.46z"/>
<path fill="#00133E" d="M190.883,184.46h-35.077c-3.663,0-6.66-2.997-6.66-6.659V92.853c0-3.662,2.997-6.659,6.66-6.659h35.077
	c3.663,0,6.659,2.997,6.659,6.659v84.949C197.542,181.463,194.546,184.46,190.883,184.46"/>
<path fill="none" stroke="#143C81" stroke-width="1.5" stroke-linecap="round" stroke-linejoin="round" stroke-miterlimit="10" d="
	M190.883,184.46h-35.077c-3.663,0-6.66-2.997-6.66-6.659V92.853c0-3.662,2.997-6.659,6.66-6.659h35.077
	c3.663,0,6.659,2.997,6.659,6.659v84.949C197.542,181.463,194.546,184.46,190.883,184.46z"/>
<path fill="#00133E" d="M194.63,177.46h-42.572c-3.662,0-6.659-2.997-6.659-6.659V85.853c0-3.662,2.997-6.659,6.659-6.659h42.572
	c3.664,0,6.66,2.997,6.66,6.659v84.949C201.291,174.463,198.294,177.46,194.63,177.46"/>
<path fill="none" stroke="#285FAF" stroke-width="1.5" stroke-linecap="round" stroke-linejoin="round" stroke-miterlimit="10" d="
	M194.63,177.46h-42.572c-3.662,0-6.659-2.997-6.659-6.659V85.853c0-3.662,2.997-6.659,6.659-6.659h42.572
	c3.664,0,6.66,2.997,6.66,6.659v84.949C201.291,174.463,198.294,177.46,194.63,177.46z"/>
<line fill="none" stroke="#285FAF" stroke-width="1.5" stroke-linecap="round" stroke-linejoin="round" stroke-miterlimit="10" x1="145.399" y1="91.233" x2="201.291" y2="91.233"/>
<line fill="none" stroke="#285FAF" stroke-width="1.5" stroke-linecap="round" stroke-linejoin="round" stroke-miterlimit="10" x1="201.291" y1="161.401" x2="145.399" y2="161.401"/>
<circle fill="none" stroke="#143C81" stroke-width="1.5" stroke-linecap="round" stroke-linejoin="round" stroke-miterlimit="10" cx="173.345" cy="169.942" r="3.042"/>
<rect x="151.937" y="98.622" fill="none" stroke="#082765" stroke-width="1.5" stroke-linecap="round" stroke-linejoin="round" stroke-miterlimit="10" width="11.211" height="12.191"/>
<rect x="167.937" y="98.622" fill="none" stroke="#082765" stroke-width="1.5" stroke-linecap="round" stroke-linejoin="round" stroke-miterlimit="10" width="11.211" height="12.191"/>
<rect x="183.937" y="98.622" fill="none" stroke="#082765" stroke-width="1.5" stroke-linecap="round" stroke-linejoin="round" stroke-miterlimit="10" width="11.211" height="12.191"/>
<rect x="167.937" y="115.622" fill="#005BFD" width="11.211" height="12.191"/>
<rect x="167.937" y="115.622" fill="none" stroke="#1490E7" stroke-width="1.5" stroke-linecap="round" stroke-linejoin="round" stroke-miterlimit="10" width="11.211" height="12.191"/>
<rect x="151.937" y="115.622" fill="none" stroke="#082765" stroke-width="1.5" stroke-linecap="round" stroke-linejoin="round" stroke-miterlimit="10" width="11.211" height="12.191"/>
<rect x="183.937" y="115.622" fill="none" stroke="#082765" stroke-width="1.5" stroke-linecap="round" stroke-linejoin="round" stroke-miterlimit="10" width="11.211" height="12.191"/>
<line fill="none" stroke="#082765" stroke-width="1.5" stroke-linecap="round" stroke-linejoin="round" stroke-miterlimit="10" x1="151.937" y1="133.817" x2="195.148" y2="133.817"/>
<line fill="none" stroke="#082765" stroke-width="1.5" stroke-linecap="round" stroke-linejoin="round" stroke-miterlimit="10" x1="151.937" y1="140.817" x2="195.148" y2="140.817"/>
<line fill="none" stroke="#082765" stroke-width="1.5" stroke-linecap="round" stroke-linejoin="round" stroke-miterlimit="10" x1="151.937" y1="147.817" x2="195.148" y2="147.817"/>
<line fill="none" stroke="#082765" stroke-width="1.5" stroke-linecap="round" stroke-linejoin="round" stroke-miterlimit="10" x1="151.937" y1="154.817" x2="195.148" y2="154.817"/>
<polyline fill="none" stroke="#143C81" stroke-width="1.5" stroke-linecap="round" stroke-linejoin="round" stroke-miterlimit="10" points="
	177.345,71.313 177.345,49.845 193.511,49.845 193.511,33.746 "/>
<line fill="none" stroke="#082765" stroke-width="1.5" stroke-linecap="round" stroke-linejoin="round" stroke-miterlimit="10" x1="188.306" y1="8.22" x2="218.181" y2="8.22"/>
<line fill="none" stroke="#082765" stroke-width="1.5" stroke-linecap="round" stroke-linejoin="round" stroke-miterlimit="10" x1="188.306" y1="13.22" x2="218.181" y2="13.22"/>
<rect x="0.75" y="179.197" fill="none" stroke="#082765" stroke-width="1.5" stroke-linecap="round" stroke-linejoin="round" stroke-miterlimit="10" width="42.522" height="16.584"/>
<line fill="none" stroke="#082765" stroke-width="1.5" stroke-linecap="round" stroke-linejoin="round" stroke-miterlimit="10" x1="7.074" y1="183.489" x2="36.949" y2="183.489"/>
<line fill="none" stroke="#082765" stroke-width="1.5" stroke-linecap="round" stroke-linejoin="round" stroke-miterlimit="10" x1="7.074" y1="189.489" x2="36.949" y2="189.489"/>
<polyline fill="none" stroke="#143C81" stroke-width="1.5" stroke-linecap="round" stroke-linejoin="round" stroke-miterlimit="10" points="
	90.845,175.262 90.845,188.262 56.845,188.262 "/>
</svg>
