<?xml version="1.0" encoding="utf-8"?>
<!-- Generator: Adobe Illustrator 15.0.2, SVG Export Plug-In  -->
<!DOCTYPE svg PUBLIC "-//W3C//DTD SVG 1.1//EN" "http://www.w3.org/Graphics/SVG/1.1/DTD/svg11.dtd" [
	<!ENTITY ns_flows "http://ns.adobe.com/Flows/1.0/">
]>
<svg version="1.1"
	 xmlns="http://www.w3.org/2000/svg" xmlns:xlink="http://www.w3.org/1999/xlink" xmlns:a="http://ns.adobe.com/AdobeSVGViewerExtensions/3.0/"
	 x="0px" y="0px" width="205px" height="184px" viewBox="-0.017 -1.224 205 184" enable-background="new -0.017 -1.224 205 184"
	 xml:space="preserve">
<defs>
</defs>
<path fill="#00133E" d="M148.588,144.712H37.359c-3.85,0-7-3.149-7-7V33.708c0-3.85,3.15-7,7-7h111.229c3.85,0,7,3.15,7,7v104.004
	C155.588,141.563,152.438,144.712,148.588,144.712"/>
<path fill="none" stroke="#082765" stroke-width="1.5" stroke-linecap="round" stroke-linejoin="round" stroke-miterlimit="10" d="
	M148.588,144.712H37.359c-3.85,0-7-3.149-7-7V33.708c0-3.85,3.15-7,7-7h111.229c3.85,0,7,3.15,7,7v104.004
	C155.588,141.563,152.438,144.712,148.588,144.712z"/>
<path fill="#00133E" d="M156.651,150.712H29.296c-3.85,0-7-3.149-7-7V39.708c0-3.85,3.15-7,7-7h127.355c3.85,0,7,3.15,7,7v104.004
	C163.651,147.563,160.501,150.712,156.651,150.712"/>
<path fill="none" stroke="#143C81" stroke-width="1.5" stroke-linecap="round" stroke-linejoin="round" stroke-miterlimit="10" d="
	M156.651,150.712H29.296c-3.85,0-7-3.149-7-7V39.708c0-3.85,3.15-7,7-7h127.355c3.85,0,7,3.15,7,7v104.004
	C163.651,147.563,160.501,150.712,156.651,150.712z"/>
<path fill="#00133E" d="M162.295,156.712H23.652c-3.851,0-7-3.149-7-7V45.708c0-3.85,3.149-7,7-7h138.643c3.851,0,7,3.15,7,7
	v104.004C169.295,153.563,166.146,156.712,162.295,156.712"/>
<path fill="none" stroke="#285FAF" stroke-width="1.5" stroke-linecap="round" stroke-linejoin="round" stroke-miterlimit="10" d="
	M162.295,156.712H23.652c-3.851,0-7-3.149-7-7V45.708c0-3.85,3.149-7,7-7h138.643c3.851,0,7,3.15,7,7v104.004
	C169.295,153.563,166.146,156.712,162.295,156.712z"/>
<line fill="none" stroke="#285FAF" stroke-width="1.5" stroke-linecap="round" stroke-linejoin="round" stroke-miterlimit="10" x1="17.195" y1="54.975" x2="169.362" y2="54.975"/>
<circle fill="none" stroke="#143C81" stroke-width="1.5" stroke-linecap="round" stroke-linejoin="round" stroke-miterlimit="10" cx="28.529" cy="46.809" r="2.333"/>
<circle fill="none" stroke="#143C81" stroke-width="1.5" stroke-linecap="round" stroke-linejoin="round" stroke-miterlimit="10" cx="35.997" cy="46.809" r="2.333"/>
<circle fill="none" stroke="#143C81" stroke-width="1.5" stroke-linecap="round" stroke-linejoin="round" stroke-miterlimit="10" cx="43.463" cy="46.809" r="2.333"/>
<circle fill="none" stroke="#143C81" stroke-width="1.5" stroke-linecap="round" stroke-linejoin="round" stroke-miterlimit="10" cx="53.802" cy="173.547" r="3.042"/>
<circle fill="none" stroke="#143C81" stroke-width="1.5" stroke-linecap="round" stroke-linejoin="round" stroke-miterlimit="10" cx="142.41" cy="9.042" r="3.042"/>
<rect x="0.75" y="164.483" fill="none" stroke="#082765" stroke-width="1.5" stroke-linecap="round" stroke-linejoin="round" stroke-miterlimit="10" width="42.522" height="16.584"/>
<line fill="none" stroke="#082765" stroke-width="1.5" stroke-linecap="round" stroke-linejoin="round" stroke-miterlimit="10" x1="7.073" y1="175.775" x2="36.948" y2="175.775"/>
<line fill="none" stroke="#082765" stroke-width="1.5" stroke-linecap="round" stroke-linejoin="round" stroke-miterlimit="10" x1="7.073" y1="170.775" x2="36.948" y2="170.775"/>
<rect x="153.768" y="0.75" fill="none" stroke="#082765" stroke-width="1.5" stroke-linecap="round" stroke-linejoin="round" stroke-miterlimit="10" width="42.521" height="16.584"/>
<line fill="none" stroke="#082765" stroke-width="1.5" stroke-linecap="round" stroke-linejoin="round" stroke-miterlimit="10" x1="160.091" y1="12.042" x2="189.966" y2="12.042"/>
<line fill="none" stroke="#082765" stroke-width="1.5" stroke-linecap="round" stroke-linejoin="round" stroke-miterlimit="10" x1="160.091" y1="7.042" x2="189.966" y2="7.042"/>
<polyline fill="none" stroke="#143C81" stroke-width="1.5" stroke-linecap="round" stroke-linejoin="round" stroke-miterlimit="10" points="
	90.844,165.547 90.844,173.547 56.844,173.547 "/>
<circle fill="none" stroke="#285FAF" stroke-width="1.5" stroke-linecap="round" stroke-linejoin="round" stroke-miterlimit="10" cx="36.692" cy="72.474" r="9.677"/>
<line fill="none" stroke="#285FAF" stroke-width="1.5" stroke-linecap="round" stroke-linejoin="round" stroke-miterlimit="10" x1="34.67" y1="75.145" x2="38.773" y2="71.041"/>
<line fill="none" stroke="#285FAF" stroke-width="1.5" stroke-linecap="round" stroke-linejoin="round" stroke-miterlimit="10" x1="38.714" y1="75.145" x2="34.61" y2="71.041"/>
<circle fill="none" stroke="#285FAF" stroke-width="1.5" stroke-linecap="round" stroke-linejoin="round" stroke-miterlimit="10" cx="64.97" cy="72.474" r="9.677"/>
<line fill="none" stroke="#285FAF" stroke-width="1.5" stroke-linecap="round" stroke-linejoin="round" stroke-miterlimit="10" x1="62.948" y1="75.145" x2="67.053" y2="71.041"/>
<line fill="none" stroke="#285FAF" stroke-width="1.5" stroke-linecap="round" stroke-linejoin="round" stroke-miterlimit="10" x1="66.993" y1="75.145" x2="62.889" y2="71.041"/>
<circle fill="none" stroke="#285FAF" stroke-width="1.5" stroke-linecap="round" stroke-linejoin="round" stroke-miterlimit="10" cx="93.249" cy="72.474" r="9.677"/>
<line fill="none" stroke="#285FAF" stroke-width="1.5" stroke-linecap="round" stroke-linejoin="round" stroke-miterlimit="10" x1="91.228" y1="75.145" x2="95.331" y2="71.041"/>
<line fill="none" stroke="#285FAF" stroke-width="1.5" stroke-linecap="round" stroke-linejoin="round" stroke-miterlimit="10" x1="95.271" y1="75.145" x2="91.167" y2="71.041"/>
<circle fill="none" stroke="#285FAF" stroke-width="1.5" stroke-linecap="round" stroke-linejoin="round" stroke-miterlimit="10" cx="149.807" cy="72.474" r="9.677"/>
<line fill="none" stroke="#285FAF" stroke-width="1.5" stroke-linecap="round" stroke-linejoin="round" stroke-miterlimit="10" x1="147.784" y1="75.145" x2="151.889" y2="71.041"/>
<line fill="none" stroke="#285FAF" stroke-width="1.5" stroke-linecap="round" stroke-linejoin="round" stroke-miterlimit="10" x1="151.829" y1="75.145" x2="147.725" y2="71.041"/>
<circle fill="none" stroke="#285FAF" stroke-width="1.5" stroke-linecap="round" stroke-linejoin="round" stroke-miterlimit="10" cx="36.692" cy="102.474" r="9.677"/>
<line fill="none" stroke="#285FAF" stroke-width="1.5" stroke-linecap="round" stroke-linejoin="round" stroke-miterlimit="10" x1="34.67" y1="105.145" x2="38.773" y2="101.041"/>
<line fill="none" stroke="#285FAF" stroke-width="1.5" stroke-linecap="round" stroke-linejoin="round" stroke-miterlimit="10" x1="38.714" y1="105.145" x2="34.61" y2="101.041"/>
<circle fill="none" stroke="#285FAF" stroke-width="1.5" stroke-linecap="round" stroke-linejoin="round" stroke-miterlimit="10" cx="64.97" cy="102.474" r="9.677"/>
<line fill="none" stroke="#285FAF" stroke-width="1.5" stroke-linecap="round" stroke-linejoin="round" stroke-miterlimit="10" x1="62.948" y1="105.145" x2="67.053" y2="101.041"/>
<line fill="none" stroke="#285FAF" stroke-width="1.5" stroke-linecap="round" stroke-linejoin="round" stroke-miterlimit="10" x1="66.993" y1="105.145" x2="62.889" y2="101.041"/>
<path fill="#005BFD" d="M102.926,102.474c0,5.345-4.332,9.677-9.677,9.677c-5.344,0-9.677-4.332-9.677-9.677
	c0-5.344,4.333-9.677,9.677-9.677C98.594,92.797,102.926,97.13,102.926,102.474"/>
<circle fill="none" stroke="#1490E7" stroke-width="1.5" stroke-linecap="round" stroke-linejoin="round" stroke-miterlimit="10" cx="93.249" cy="102.474" r="9.677"/>
<polyline fill="none" stroke="#FFFFFF" stroke-width="1.5" stroke-linecap="round" stroke-linejoin="round" stroke-miterlimit="10" points="
	96.331,101.041 92.227,105.145 89.899,102.885 "/>
<path fill="#005BFD" d="M74.618,132.474c0,5.345-4.332,9.677-9.678,9.677c-5.344,0-9.677-4.332-9.677-9.677
	c0-5.344,4.333-9.677,9.677-9.677C70.286,122.797,74.618,127.13,74.618,132.474"/>
<circle fill="none" stroke="#1490E7" stroke-width="1.5" stroke-linecap="round" stroke-linejoin="round" stroke-miterlimit="10" cx="64.941" cy="132.474" r="9.677"/>
<polyline fill="none" stroke="#FFFFFF" stroke-width="1.5" stroke-linecap="round" stroke-linejoin="round" stroke-miterlimit="10" points="
	68.022,131.041 63.919,135.145 61.592,132.885 "/>
<path fill="#005BFD" d="M131.234,72.474c0,5.344-4.332,9.677-9.677,9.677c-5.344,0-9.677-4.333-9.677-9.677
	c0-5.344,4.333-9.677,9.677-9.677C126.902,62.797,131.234,67.13,131.234,72.474"/>
<circle fill="none" stroke="#1490E7" stroke-width="1.5" stroke-linecap="round" stroke-linejoin="round" stroke-miterlimit="10" cx="121.558" cy="72.474" r="9.677"/>
<polyline fill="none" stroke="#FFFFFF" stroke-width="1.5" stroke-linecap="round" stroke-linejoin="round" stroke-miterlimit="10" points="
	124.64,71.041 120.535,75.145 118.208,72.886 "/>
<circle fill="none" stroke="#285FAF" stroke-width="1.5" stroke-linecap="round" stroke-linejoin="round" stroke-miterlimit="10" cx="121.528" cy="102.474" r="9.677"/>
<line fill="none" stroke="#285FAF" stroke-width="1.5" stroke-linecap="round" stroke-linejoin="round" stroke-miterlimit="10" x1="119.506" y1="105.145" x2="123.609" y2="101.041"/>
<line fill="none" stroke="#285FAF" stroke-width="1.5" stroke-linecap="round" stroke-linejoin="round" stroke-miterlimit="10" x1="123.55" y1="105.145" x2="119.446" y2="101.041"/>
<circle fill="none" stroke="#285FAF" stroke-width="1.5" stroke-linecap="round" stroke-linejoin="round" stroke-miterlimit="10" cx="149.807" cy="102.474" r="9.677"/>
<line fill="none" stroke="#285FAF" stroke-width="1.5" stroke-linecap="round" stroke-linejoin="round" stroke-miterlimit="10" x1="147.784" y1="105.145" x2="151.889" y2="101.041"/>
<line fill="none" stroke="#285FAF" stroke-width="1.5" stroke-linecap="round" stroke-linejoin="round" stroke-miterlimit="10" x1="151.829" y1="105.145" x2="147.725" y2="101.041"/>
<circle fill="none" stroke="#285FAF" stroke-width="1.5" stroke-linecap="round" stroke-linejoin="round" stroke-miterlimit="10" cx="36.692" cy="132.474" r="9.677"/>
<line fill="none" stroke="#285FAF" stroke-width="1.5" stroke-linecap="round" stroke-linejoin="round" stroke-miterlimit="10" x1="34.67" y1="135.145" x2="38.773" y2="131.041"/>
<line fill="none" stroke="#285FAF" stroke-width="1.5" stroke-linecap="round" stroke-linejoin="round" stroke-miterlimit="10" x1="38.714" y1="135.145" x2="34.61" y2="131.041"/>
<circle fill="none" stroke="#285FAF" stroke-width="1.5" stroke-linecap="round" stroke-linejoin="round" stroke-miterlimit="10" cx="93.249" cy="132.474" r="9.677"/>
<line fill="none" stroke="#285FAF" stroke-width="1.5" stroke-linecap="round" stroke-linejoin="round" stroke-miterlimit="10" x1="91.228" y1="135.145" x2="95.331" y2="131.041"/>
<line fill="none" stroke="#285FAF" stroke-width="1.5" stroke-linecap="round" stroke-linejoin="round" stroke-miterlimit="10" x1="95.271" y1="135.145" x2="91.167" y2="131.041"/>
<circle fill="none" stroke="#285FAF" stroke-width="1.5" stroke-linecap="round" stroke-linejoin="round" stroke-miterlimit="10" cx="121.528" cy="132.474" r="9.677"/>
<line fill="none" stroke="#285FAF" stroke-width="1.5" stroke-linecap="round" stroke-linejoin="round" stroke-miterlimit="10" x1="119.506" y1="135.145" x2="123.609" y2="131.041"/>
<line fill="none" stroke="#285FAF" stroke-width="1.5" stroke-linecap="round" stroke-linejoin="round" stroke-miterlimit="10" x1="123.55" y1="135.145" x2="119.446" y2="131.041"/>
<circle fill="none" stroke="#285FAF" stroke-width="1.5" stroke-linecap="round" stroke-linejoin="round" stroke-miterlimit="10" cx="149.807" cy="132.474" r="9.677"/>
<line fill="none" stroke="#285FAF" stroke-width="1.5" stroke-linecap="round" stroke-linejoin="round" stroke-miterlimit="10" x1="147.784" y1="135.145" x2="151.889" y2="131.041"/>
<line fill="none" stroke="#285FAF" stroke-width="1.5" stroke-linecap="round" stroke-linejoin="round" stroke-miterlimit="10" x1="151.829" y1="135.145" x2="147.725" y2="131.041"/>
<path fill="#00133E" d="M139.367,104.241c0,0,5.494,52.991,5.494,53.243c0,4.164,11.058,7.54,24.695,7.54
	c13.642,0,24.698-3.376,24.698-7.54c0-0.252,5.496-53.479,5.496-53.479"/>
<path fill="none" stroke="#285FAF" stroke-width="1.5" stroke-linecap="round" stroke-linejoin="round" stroke-miterlimit="10" d="
	M139.367,104.241c0,0,5.494,52.991,5.494,53.243c0,4.164,11.058,7.54,24.695,7.54c13.642,0,24.698-3.376,24.698-7.54
	c0-0.252,5.496-53.479,5.496-53.479"/>
<line fill="none" stroke="#143C81" stroke-width="1.5" stroke-linecap="round" stroke-linejoin="round" stroke-miterlimit="10" x1="145.317" y1="112.526" x2="191.857" y2="131.596"/>
<line fill="none" stroke="#143C81" stroke-width="1.5" stroke-linecap="round" stroke-linejoin="round" stroke-miterlimit="10" x1="177.534" y1="112.526" x2="193.16" y2="119.008"/>
<line fill="none" stroke="#143C81" stroke-width="1.5" stroke-linecap="round" stroke-linejoin="round" stroke-miterlimit="10" x1="147.048" y1="126.375" x2="190.339" y2="144.034"/>
<line fill="none" stroke="#143C81" stroke-width="1.5" stroke-linecap="round" stroke-linejoin="round" stroke-miterlimit="10" x1="147.995" y1="138.804" x2="187.357" y2="155.147"/>
<line fill="none" stroke="#143C81" stroke-width="1.5" stroke-linecap="round" stroke-linejoin="round" stroke-miterlimit="10" x1="149.669" y1="150.938" x2="169.557" y2="159.713"/>
<line fill="none" stroke="#143C81" stroke-width="1.5" stroke-linecap="round" stroke-linejoin="round" stroke-miterlimit="10" x1="193.8" y1="112.526" x2="147.249" y2="131.596"/>
<line fill="none" stroke="#143C81" stroke-width="1.5" stroke-linecap="round" stroke-linejoin="round" stroke-miterlimit="10" x1="161.589" y1="112.526" x2="145.945" y2="119.008"/>
<line fill="none" stroke="#143C81" stroke-width="1.5" stroke-linecap="round" stroke-linejoin="round" stroke-miterlimit="10" x1="192.069" y1="126.375" x2="148.78" y2="144.034"/>
<line fill="none" stroke="#143C81" stroke-width="1.5" stroke-linecap="round" stroke-linejoin="round" stroke-miterlimit="10" x1="191.118" y1="138.804" x2="151.35" y2="155.524"/>
<line fill="none" stroke="#143C81" stroke-width="1.5" stroke-linecap="round" stroke-linejoin="round" stroke-miterlimit="10" x1="189.448" y1="150.938" x2="169.557" y2="159.713"/>
<path fill="#00133E" d="M202.708,100.202c0,4.162-14.961,7.538-33.412,7.538c-18.453,0-33.413-3.376-33.413-7.538
	c0-4.167,14.96-7.543,33.413-7.543C187.747,92.659,202.708,96.035,202.708,100.202"/>
<path fill="none" stroke="#285FAF" stroke-width="1.5" stroke-linecap="round" stroke-linejoin="round" stroke-miterlimit="10" d="
	M202.708,100.202c0,4.162-14.961,7.538-33.412,7.538c-18.453,0-33.413-3.376-33.413-7.538c0-4.167,14.96-7.543,33.413-7.543
	C187.747,92.659,202.708,96.035,202.708,100.202z"/>
<polyline fill="none" stroke="#143C81" stroke-width="1.5" stroke-linecap="round" stroke-linejoin="round" stroke-miterlimit="10" points="
	173.483,69.474 186.15,69.474 186.15,80.042 "/>
<circle fill="none" stroke="#143C81" stroke-width="1.5" stroke-linecap="round" stroke-linejoin="round" stroke-miterlimit="10" cx="186.149" cy="83.199" r="2.433"/>
<polyline fill="none" stroke="#143C81" stroke-width="1.5" stroke-linecap="round" stroke-linejoin="round" stroke-miterlimit="10" points="
	102.926,18.708 102.926,9.042 139.367,9.042 "/>
</svg>
