<?xml version="1.0" encoding="utf-8"?>
<!-- Generator: Adobe Illustrator 15.0.2, SVG Export Plug-In  -->
<!DOCTYPE svg PUBLIC "-//W3C//DTD SVG 1.1//EN" "http://www.w3.org/Graphics/SVG/1.1/DTD/svg11.dtd" [
	<!ENTITY ns_flows "http://ns.adobe.com/Flows/1.0/">
]>
<svg version="1.1"
	 xmlns="http://www.w3.org/2000/svg" xmlns:xlink="http://www.w3.org/1999/xlink" xmlns:a="http://ns.adobe.com/AdobeSVGViewerExtensions/3.0/"
	 x="0px" y="0px" width="25px" height="24px" viewBox="-1.375 -1.096 25 24" enable-background="new -1.375 -1.096 25 24"
	 xml:space="preserve">
<defs>
</defs>
<path fill="#005bfe" d="M5.834,8.758L0.95,13.45c-1.266,1.212-1.266,3.159,0,4.37l3.421,3.271C4.983,21.679,5.795,22,6.666,22
	s1.681-0.32,2.293-0.908l4.866-4.69c0.612-0.587,0.949-1.36,0.949-2.194c0-0.037,0-0.057-0.02-0.095c0.039,0,0.06,0.021,0.098,0.021
	c0.871,0,1.682-0.323,2.295-0.908l4.904-4.693c1.266-1.21,1.266-3.159,0-4.369L18.629,0.89C18.017,0.322,17.207,0,16.336,0
	s-1.662,0.322-2.274,0.908L9.156,5.581C8.543,6.167,8.208,6.942,8.208,7.775c0,0.038,0,0.057,0.02,0.095
	c-0.04,0-0.06-0.02-0.099-0.02C7.257,7.85,6.446,8.172,5.834,8.758 M10.402,6.773l4.905-4.692c0.276-0.265,0.651-0.416,1.048-0.416
	s0.771,0.151,1.047,0.416l3.422,3.273c0.574,0.549,0.574,1.437,0,1.986L15.9,12.031c-0.554,0.53-1.523,0.53-2.076,0l-1.088-1.04
	l0.989-0.946c0.336-0.321,0.336-0.87,0-1.191c-0.337-0.323-0.91-0.323-1.246,0l-0.989,0.945l-1.088-1.041
	c-0.276-0.264-0.435-0.624-0.435-1.002S10.126,7.038,10.402,6.773 M9.156,9.95l1.088,1.041l-0.989,0.946
	c-0.337,0.32-0.337,0.87,0,1.191c0.178,0.17,0.395,0.246,0.614,0.246c0.217,0,0.455-0.076,0.612-0.246l0.989-0.945l1.088,1.041
	c0.277,0.264,0.436,0.623,0.436,1.002c0,0.378-0.158,0.738-0.436,1.002l-4.905,4.691c-0.554,0.529-1.522,0.529-2.077,0l-3.401-3.291
	c-0.573-0.549-0.573-1.438,0-1.986L7.081,9.95c0.277-0.264,0.653-0.416,1.048-0.416C8.503,9.534,8.88,9.686,9.156,9.95"/>
</svg>
