<svg id="Слой_1" xmlns="http://www.w3.org/2000/svg" xmlns:xlink="http://www.w3.org/1999/xlink" width="275" height="460" viewBox="0 0 275 460">
  <g id="serv_x5F_img_x5F_5">
    <g id="page3">
      <path fill="#00133E" d="M255 413.635c0 1.86-1.507 3.365-3.365 3.365H24.365c-1.858 0-3.365-1.506-3.365-3.365V6.365C21 4.508 22.507 3 24.365 3h227.27C253.493 3 255 4.507 255 6.366v407.27z"/>
      <path fill="none" stroke="#082765" stroke-width="2" stroke-linecap="round" stroke-linejoin="round" stroke-miterlimit="10" d="M255 413.635c0 1.86-1.507 3.365-3.365 3.365H24.365c-1.858 0-3.365-1.506-3.365-3.365V6.365C21 4.508 22.507 3 24.365 3h227.27C253.493 3 255 4.507 255 6.366v407.27z"/>
    </g>
    <g id="page2">
      <path fill="#00133E" d="M265 433.635c0 1.86-1.507 3.365-3.365 3.365H14.365c-1.858 0-3.365-1.506-3.365-3.365V26.365C11 24.508 12.507 23 14.365 23h247.27c1.858 0 3.365 1.507 3.365 3.366v407.27z"/>
      <path fill="none" stroke="#143C81" stroke-width="2" stroke-linecap="round" stroke-linejoin="round" stroke-miterlimit="10" d="M265 433.635c0 1.86-1.507 3.365-3.365 3.365H14.365c-1.858 0-3.365-1.506-3.365-3.365V26.365C11 24.508 12.507 23 14.365 23h247.27c1.858 0 3.365 1.507 3.365 3.366v407.27z"/>
    </g>
    <g id="page1">
      <g id="bg">
        <path fill="#00133E" d="M269.635 457H5.365C3.508 457 2 455.494 2 453.635V46.365C2 44.507 3.507 43 5.366 43h264.27c1.857 0 3.364 1.507 3.364 3.365v407.27c0 1.86-1.507 3.365-3.365 3.365"/>
      </g>
      <g id="bg-border">
        <path fill="none" stroke="#285FAF" stroke-width="2" stroke-linecap="round" stroke-linejoin="round" stroke-miterlimit="10" d="M269.635 457H5.365C3.508 457 2 455.494 2 453.635V46.365C2 44.507 3.507 43 5.366 43h264.27c1.857 0 3.364 1.507 3.364 3.365v407.27c0 1.86-1.507 3.365-3.365 3.365z"/>
      </g>
      <g id="lines">
        <path fill="none" stroke="#082765" stroke-width="2" stroke-linecap="round" stroke-linejoin="round" stroke-miterlimit="10" d="M98 333h132"/>
        <path fill="none" stroke="#005BFD" stroke-miterlimit="10" d="M250.5 433.5c0 .553-.448 1-1 1h-225c-.552 0-1-.447-1-1v-32c0-.55.448-1 1-1h225c.552 0 1 .45 1 1v32z"/>
        <g opacity=".3">
          <g>
            <g>
              <defs>
                <path id="SVGID_1_" d="M24 259h55v48H24z"/>
              </defs>
              <clipPath id="SVGID_2_">
                <use xlink:href="#SVGID_1_" overflow="visible"/>
              </clipPath>
              <path clip-path="url(#SVGID_2_)" fill="none" stroke="#082765" stroke-width="1.5" stroke-linecap="round" stroke-linejoin="round" stroke-miterlimit="10" d="M38.937 196.663L4.294 300.928"/>
              <path clip-path="url(#SVGID_2_)" fill="none" stroke="#082765" stroke-width="1.5" stroke-linecap="round" stroke-linejoin="round" stroke-miterlimit="10" d="M42.578 200.155L7.935 304.42"/>
              <path clip-path="url(#SVGID_2_)" fill="none" stroke="#082765" stroke-width="1.5" stroke-linecap="round" stroke-linejoin="round" stroke-miterlimit="10" d="M46.22 203.646L11.576 307.912"/>
              <path clip-path="url(#SVGID_2_)" fill="none" stroke="#082765" stroke-width="1.5" stroke-linecap="round" stroke-linejoin="round" stroke-miterlimit="10" d="M49.86 207.138L15.22 311.404"/>
              <path clip-path="url(#SVGID_2_)" fill="none" stroke="#082765" stroke-width="1.5" stroke-linecap="round" stroke-linejoin="round" stroke-miterlimit="10" d="M53.503 210.63L18.86 314.896"/>
              <path clip-path="url(#SVGID_2_)" fill="none" stroke="#082765" stroke-width="1.5" stroke-linecap="round" stroke-linejoin="round" stroke-miterlimit="10" d="M57.146 214.123L22.5 318.387"/>
              <path clip-path="url(#SVGID_2_)" fill="none" stroke="#082765" stroke-width="1.5" stroke-linecap="round" stroke-linejoin="round" stroke-miterlimit="10" d="M60.786 217.615L26.144 321.88"/>
              <path clip-path="url(#SVGID_2_)" fill="none" stroke="#082765" stroke-width="1.5" stroke-linecap="round" stroke-linejoin="round" stroke-miterlimit="10" d="M64.43 221.107L29.784 325.37"/>
              <path clip-path="url(#SVGID_2_)" fill="none" stroke="#082765" stroke-width="1.5" stroke-linecap="round" stroke-linejoin="round" stroke-miterlimit="10" d="M68.07 224.6L33.426 328.862"/>
              <path clip-path="url(#SVGID_2_)" fill="none" stroke="#082765" stroke-width="1.5" stroke-linecap="round" stroke-linejoin="round" stroke-miterlimit="10" d="M71.712 228.09L37.068 332.355"/>
              <path clip-path="url(#SVGID_2_)" fill="none" stroke="#082765" stroke-width="1.5" stroke-linecap="round" stroke-linejoin="round" stroke-miterlimit="10" d="M75.354 231.582L40.71 335.848"/>
              <path clip-path="url(#SVGID_2_)" fill="none" stroke="#082765" stroke-width="1.5" stroke-linecap="round" stroke-linejoin="round" stroke-miterlimit="10" d="M78.995 235.074L44.35 339.34"/>
              <path clip-path="url(#SVGID_2_)" fill="none" stroke="#082765" stroke-width="1.5" stroke-linecap="round" stroke-linejoin="round" stroke-miterlimit="10" d="M82.637 238.566L47.993 342.832"/>
              <path clip-path="url(#SVGID_2_)" fill="none" stroke="#082765" stroke-width="1.5" stroke-linecap="round" stroke-linejoin="round" stroke-miterlimit="10" d="M86.278 242.06L51.636 346.323"/>
              <path clip-path="url(#SVGID_2_)" fill="none" stroke="#082765" stroke-width="1.5" stroke-linecap="round" stroke-linejoin="round" stroke-miterlimit="10" d="M89.92 245.55L55.276 349.817"/>
              <path clip-path="url(#SVGID_2_)" fill="none" stroke="#082765" stroke-width="1.5" stroke-linecap="round" stroke-linejoin="round" stroke-miterlimit="10" d="M93.562 249.043L58.92 353.307"/>
              <path clip-path="url(#SVGID_2_)" fill="none" stroke="#082765" stroke-width="1.5" stroke-linecap="round" stroke-linejoin="round" stroke-miterlimit="10" d="M97.203 252.535L62.56 356.8"/>
              <path clip-path="url(#SVGID_2_)" fill="none" stroke="#082765" stroke-width="1.5" stroke-linecap="round" stroke-linejoin="round" stroke-miterlimit="10" d="M100.845 256.027L66.2 360.29"/>
            </g>
          </g>
        </g>
        <path fill="none" stroke="#082765" stroke-width="2" stroke-linecap="round" stroke-linejoin="round" stroke-miterlimit="10" d="M98 303h41"/>
        <path fill="none" stroke="#082765" stroke-width="2" stroke-linecap="round" stroke-linejoin="round" stroke-miterlimit="10" d="M147 303h12"/>
        <path fill="none" stroke="#082765" stroke-width="2" stroke-linecap="round" stroke-linejoin="round" stroke-miterlimit="10" d="M166 303h18"/>
        <path fill="none" stroke="#082765" stroke-width="2" stroke-linecap="round" stroke-linejoin="round" stroke-miterlimit="10" d="M194 303h41"/>
        <path fill="none" stroke="#082765" stroke-width="2" stroke-linecap="round" stroke-linejoin="round" stroke-miterlimit="10" d="M165 283h65"/>
        <path fill="none" stroke="#082765" stroke-width="2" stroke-linecap="round" stroke-linejoin="round" stroke-miterlimit="10" d="M100 283h52"/>
        <path fill="none" stroke="#082765" stroke-width="2" stroke-linecap="round" stroke-linejoin="round" stroke-miterlimit="10" d="M237 263h15"/>
        <path fill="none" stroke="#082765" stroke-width="2" stroke-linecap="round" stroke-linejoin="round" stroke-miterlimit="10" d="M98 263h132"/>
        <path fill="none" stroke="#082765" stroke-width="2" stroke-linecap="round" stroke-linejoin="round" stroke-miterlimit="10" d="M79 377c0 .553-.448 1-1 1H25c-.552 0-1-.447-1-1v-47c0-.55.448-1 1-1h53c.552 0 1 .45 1 1v47z"/>
        <g opacity=".3">
          <g>
            <g>
              <defs>
                <path id="SVGID_3_" d="M24 329h55v48H24z"/>
              </defs>
              <clipPath id="SVGID_4_">
                <use xlink:href="#SVGID_3_" overflow="visible"/>
              </clipPath>
              <path clip-path="url(#SVGID_4_)" fill="none" stroke="#082765" stroke-width="1.5" stroke-linecap="round" stroke-linejoin="round" stroke-miterlimit="10" d="M38.937 266.662L4.294 370.928"/>
              <path clip-path="url(#SVGID_4_)" fill="none" stroke="#082765" stroke-width="1.5" stroke-linecap="round" stroke-linejoin="round" stroke-miterlimit="10" d="M42.578 270.154L7.935 374.42"/>
              <path clip-path="url(#SVGID_4_)" fill="none" stroke="#082765" stroke-width="1.5" stroke-linecap="round" stroke-linejoin="round" stroke-miterlimit="10" d="M46.22 273.646L11.576 377.912"/>
              <path clip-path="url(#SVGID_4_)" fill="none" stroke="#082765" stroke-width="1.5" stroke-linecap="round" stroke-linejoin="round" stroke-miterlimit="10" d="M49.86 277.14L15.22 381.403"/>
              <path clip-path="url(#SVGID_4_)" fill="none" stroke="#082765" stroke-width="1.5" stroke-linecap="round" stroke-linejoin="round" stroke-miterlimit="10" d="M53.503 280.63L18.86 384.897"/>
              <path clip-path="url(#SVGID_4_)" fill="none" stroke="#082765" stroke-width="1.5" stroke-linecap="round" stroke-linejoin="round" stroke-miterlimit="10" d="M57.146 284.123L22.5 388.387"/>
              <path clip-path="url(#SVGID_4_)" fill="none" stroke="#082765" stroke-width="1.5" stroke-linecap="round" stroke-linejoin="round" stroke-miterlimit="10" d="M60.786 287.615L26.144 391.88"/>
              <path clip-path="url(#SVGID_4_)" fill="none" stroke="#082765" stroke-width="1.5" stroke-linecap="round" stroke-linejoin="round" stroke-miterlimit="10" d="M64.43 291.107L29.784 395.37"/>
              <path clip-path="url(#SVGID_4_)" fill="none" stroke="#082765" stroke-width="1.5" stroke-linecap="round" stroke-linejoin="round" stroke-miterlimit="10" d="M68.07 294.598L33.426 398.863"/>
              <path clip-path="url(#SVGID_4_)" fill="none" stroke="#082765" stroke-width="1.5" stroke-linecap="round" stroke-linejoin="round" stroke-miterlimit="10" d="M71.712 298.09L37.068 402.355"/>
              <path clip-path="url(#SVGID_4_)" fill="none" stroke="#082765" stroke-width="1.5" stroke-linecap="round" stroke-linejoin="round" stroke-miterlimit="10" d="M75.354 301.582L40.71 405.848"/>
              <path clip-path="url(#SVGID_4_)" fill="none" stroke="#082765" stroke-width="1.5" stroke-linecap="round" stroke-linejoin="round" stroke-miterlimit="10" d="M78.995 305.074L44.35 409.34"/>
              <path clip-path="url(#SVGID_4_)" fill="none" stroke="#082765" stroke-width="1.5" stroke-linecap="round" stroke-linejoin="round" stroke-miterlimit="10" d="M82.637 308.566L47.993 412.832"/>
              <path clip-path="url(#SVGID_4_)" fill="none" stroke="#082765" stroke-width="1.5" stroke-linecap="round" stroke-linejoin="round" stroke-miterlimit="10" d="M86.278 312.06L51.636 416.323"/>
              <path clip-path="url(#SVGID_4_)" fill="none" stroke="#082765" stroke-width="1.5" stroke-linecap="round" stroke-linejoin="round" stroke-miterlimit="10" d="M89.92 315.55L55.276 419.817"/>
              <path clip-path="url(#SVGID_4_)" fill="none" stroke="#082765" stroke-width="1.5" stroke-linecap="round" stroke-linejoin="round" stroke-miterlimit="10" d="M93.562 319.043L58.92 423.307"/>
              <path clip-path="url(#SVGID_4_)" fill="none" stroke="#082765" stroke-width="1.5" stroke-linecap="round" stroke-linejoin="round" stroke-miterlimit="10" d="M97.203 322.535L62.56 426.8"/>
              <path clip-path="url(#SVGID_4_)" fill="none" stroke="#082765" stroke-width="1.5" stroke-linecap="round" stroke-linejoin="round" stroke-miterlimit="10" d="M100.845 326.027L66.2 430.29"/>
            </g>
          </g>
        </g>
        <path fill="none" stroke="#082765" stroke-width="2" stroke-linecap="round" stroke-linejoin="round" stroke-miterlimit="10" d="M98 373h41"/>
        <path fill="none" stroke="#082765" stroke-width="2" stroke-linecap="round" stroke-linejoin="round" stroke-miterlimit="10" d="M147 373h12"/>
        <path fill="none" stroke="#082765" stroke-width="2" stroke-linecap="round" stroke-linejoin="round" stroke-miterlimit="10" d="M166 373h18"/>
        <path fill="none" stroke="#082765" stroke-width="2" stroke-linecap="round" stroke-linejoin="round" stroke-miterlimit="10" d="M194 373h41"/>
        <path fill="none" stroke="#082765" stroke-width="2" stroke-linecap="round" stroke-linejoin="round" stroke-miterlimit="10" d="M165 353h65"/>
        <path fill="none" stroke="#082765" stroke-width="2" stroke-linecap="round" stroke-linejoin="round" stroke-miterlimit="10" d="M100 353h52"/>
        <path fill="none" stroke="#082765" stroke-width="2" stroke-linecap="round" stroke-linejoin="round" stroke-miterlimit="10" d="M237 333h15"/>
        <g opacity=".3">
          <g>
            <g>
              <defs>
                <path id="SVGID_5_" d="M24 119h55v48H24z"/>
              </defs>
              <clipPath id="SVGID_6_">
                <use xlink:href="#SVGID_5_" overflow="visible"/>
              </clipPath>
              <path clip-path="url(#SVGID_6_)" fill="none" stroke="#082765" stroke-width="1.5" stroke-linecap="round" stroke-linejoin="round" stroke-miterlimit="10" d="M38.937 56.663L4.294 160.927"/>
              <path clip-path="url(#SVGID_6_)" fill="none" stroke="#082765" stroke-width="1.5" stroke-linecap="round" stroke-linejoin="round" stroke-miterlimit="10" d="M42.578 60.155L7.935 164.42"/>
              <path clip-path="url(#SVGID_6_)" fill="none" stroke="#082765" stroke-width="1.5" stroke-linecap="round" stroke-linejoin="round" stroke-miterlimit="10" d="M46.22 63.646L11.576 167.912"/>
              <path clip-path="url(#SVGID_6_)" fill="none" stroke="#082765" stroke-width="1.5" stroke-linecap="round" stroke-linejoin="round" stroke-miterlimit="10" d="M49.86 67.14L15.22 171.403"/>
              <path clip-path="url(#SVGID_6_)" fill="none" stroke="#082765" stroke-width="1.5" stroke-linecap="round" stroke-linejoin="round" stroke-miterlimit="10" d="M53.503 70.63L18.86 174.896"/>
              <path clip-path="url(#SVGID_6_)" fill="none" stroke="#082765" stroke-width="1.5" stroke-linecap="round" stroke-linejoin="round" stroke-miterlimit="10" d="M57.146 74.123L22.5 178.388"/>
              <path clip-path="url(#SVGID_6_)" fill="none" stroke="#082765" stroke-width="1.5" stroke-linecap="round" stroke-linejoin="round" stroke-miterlimit="10" d="M60.786 77.615L26.144 181.88"/>
              <path clip-path="url(#SVGID_6_)" fill="none" stroke="#082765" stroke-width="1.5" stroke-linecap="round" stroke-linejoin="round" stroke-miterlimit="10" d="M64.43 81.106L29.784 185.372"/>
              <path clip-path="url(#SVGID_6_)" fill="none" stroke="#082765" stroke-width="1.5" stroke-linecap="round" stroke-linejoin="round" stroke-miterlimit="10" d="M68.07 84.6L33.426 188.863"/>
              <path clip-path="url(#SVGID_6_)" fill="none" stroke="#082765" stroke-width="1.5" stroke-linecap="round" stroke-linejoin="round" stroke-miterlimit="10" d="M71.712 88.09L37.068 192.355"/>
              <path clip-path="url(#SVGID_6_)" fill="none" stroke="#082765" stroke-width="1.5" stroke-linecap="round" stroke-linejoin="round" stroke-miterlimit="10" d="M75.354 91.583L40.71 195.847"/>
              <path clip-path="url(#SVGID_6_)" fill="none" stroke="#082765" stroke-width="1.5" stroke-linecap="round" stroke-linejoin="round" stroke-miterlimit="10" d="M78.995 95.075L44.35 199.34"/>
              <path clip-path="url(#SVGID_6_)" fill="none" stroke="#082765" stroke-width="1.5" stroke-linecap="round" stroke-linejoin="round" stroke-miterlimit="10" d="M82.637 98.566L47.993 202.832"/>
              <path clip-path="url(#SVGID_6_)" fill="none" stroke="#082765" stroke-width="1.5" stroke-linecap="round" stroke-linejoin="round" stroke-miterlimit="10" d="M86.278 102.06L51.636 206.323"/>
              <path clip-path="url(#SVGID_6_)" fill="none" stroke="#082765" stroke-width="1.5" stroke-linecap="round" stroke-linejoin="round" stroke-miterlimit="10" d="M89.92 105.55L55.276 209.816"/>
              <path clip-path="url(#SVGID_6_)" fill="none" stroke="#082765" stroke-width="1.5" stroke-linecap="round" stroke-linejoin="round" stroke-miterlimit="10" d="M93.562 109.042L58.92 213.308"/>
              <path clip-path="url(#SVGID_6_)" fill="none" stroke="#082765" stroke-width="1.5" stroke-linecap="round" stroke-linejoin="round" stroke-miterlimit="10" d="M97.203 112.535L62.56 216.8"/>
              <path clip-path="url(#SVGID_6_)" fill="none" stroke="#082765" stroke-width="1.5" stroke-linecap="round" stroke-linejoin="round" stroke-miterlimit="10" d="M100.845 116.026L66.2 220.292"/>
            </g>
          </g>
        </g>
        <path fill="none" stroke="#082765" stroke-width="2" stroke-linecap="round" stroke-linejoin="round" stroke-miterlimit="10" d="M98 163h41"/>
        <path fill="none" stroke="#082765" stroke-width="2" stroke-linecap="round" stroke-linejoin="round" stroke-miterlimit="10" d="M147 163h12"/>
        <path fill="none" stroke="#082765" stroke-width="2" stroke-linecap="round" stroke-linejoin="round" stroke-miterlimit="10" d="M166 163h18"/>
        <path fill="none" stroke="#082765" stroke-width="2" stroke-linecap="round" stroke-linejoin="round" stroke-miterlimit="10" d="M194 163h41"/>
        <path fill="none" stroke="#082765" stroke-width="2" stroke-linecap="round" stroke-linejoin="round" stroke-miterlimit="10" d="M165 143h65"/>
        <path fill="none" stroke="#082765" stroke-width="2" stroke-linecap="round" stroke-linejoin="round" stroke-miterlimit="10" d="M100 143h52"/>
        <path fill="none" stroke="#082765" stroke-width="2" stroke-linecap="round" stroke-linejoin="round" stroke-miterlimit="10" d="M237 123h15"/>
        <path fill="none" stroke="#082765" stroke-width="2" stroke-linecap="round" stroke-linejoin="round" stroke-miterlimit="10" d="M98 123h132"/>
        <path fill="none" stroke="#082765" stroke-width="2" stroke-linecap="round" stroke-linejoin="round" stroke-miterlimit="10" d="M79 237c0 .553-.448 1-1 1H25c-.552 0-1-.447-1-1v-47c0-.552.448-1 1-1h53c.552 0 1 .448 1 1v47z"/>
        <g opacity=".3">
          <g>
            <g>
              <defs>
                <path id="SVGID_7_" d="M24 189h55v48H24z"/>
              </defs>
              <clipPath id="SVGID_8_">
                <use xlink:href="#SVGID_7_" overflow="visible"/>
              </clipPath>
              <path clip-path="url(#SVGID_8_)" fill="none" stroke="#082765" stroke-width="1.5" stroke-linecap="round" stroke-linejoin="round" stroke-miterlimit="10" d="M38.937 126.663L4.294 230.927"/>
              <path clip-path="url(#SVGID_8_)" fill="none" stroke="#082765" stroke-width="1.5" stroke-linecap="round" stroke-linejoin="round" stroke-miterlimit="10" d="M42.578 130.155L7.935 234.42"/>
              <path clip-path="url(#SVGID_8_)" fill="none" stroke="#082765" stroke-width="1.5" stroke-linecap="round" stroke-linejoin="round" stroke-miterlimit="10" d="M46.22 133.646L11.576 237.912"/>
              <path clip-path="url(#SVGID_8_)" fill="none" stroke="#082765" stroke-width="1.5" stroke-linecap="round" stroke-linejoin="round" stroke-miterlimit="10" d="M49.86 137.138L15.22 241.404"/>
              <path clip-path="url(#SVGID_8_)" fill="none" stroke="#082765" stroke-width="1.5" stroke-linecap="round" stroke-linejoin="round" stroke-miterlimit="10" d="M53.503 140.63L18.86 244.896"/>
              <path clip-path="url(#SVGID_8_)" fill="none" stroke="#082765" stroke-width="1.5" stroke-linecap="round" stroke-linejoin="round" stroke-miterlimit="10" d="M57.146 144.123L22.5 248.387"/>
              <path clip-path="url(#SVGID_8_)" fill="none" stroke="#082765" stroke-width="1.5" stroke-linecap="round" stroke-linejoin="round" stroke-miterlimit="10" d="M60.786 147.615L26.144 251.88"/>
              <path clip-path="url(#SVGID_8_)" fill="none" stroke="#082765" stroke-width="1.5" stroke-linecap="round" stroke-linejoin="round" stroke-miterlimit="10" d="M64.43 151.107L29.784 255.37"/>
              <path clip-path="url(#SVGID_8_)" fill="none" stroke="#082765" stroke-width="1.5" stroke-linecap="round" stroke-linejoin="round" stroke-miterlimit="10" d="M68.07 154.6L33.426 258.862"/>
              <path clip-path="url(#SVGID_8_)" fill="none" stroke="#082765" stroke-width="1.5" stroke-linecap="round" stroke-linejoin="round" stroke-miterlimit="10" d="M71.712 158.09L37.068 262.355"/>
              <path clip-path="url(#SVGID_8_)" fill="none" stroke="#082765" stroke-width="1.5" stroke-linecap="round" stroke-linejoin="round" stroke-miterlimit="10" d="M75.354 161.583L40.71 265.848"/>
              <path clip-path="url(#SVGID_8_)" fill="none" stroke="#082765" stroke-width="1.5" stroke-linecap="round" stroke-linejoin="round" stroke-miterlimit="10" d="M78.995 165.075L44.35 269.34"/>
              <path clip-path="url(#SVGID_8_)" fill="none" stroke="#082765" stroke-width="1.5" stroke-linecap="round" stroke-linejoin="round" stroke-miterlimit="10" d="M82.637 168.566L47.993 272.832"/>
              <path clip-path="url(#SVGID_8_)" fill="none" stroke="#082765" stroke-width="1.5" stroke-linecap="round" stroke-linejoin="round" stroke-miterlimit="10" d="M86.278 172.058L51.636 276.324"/>
              <path clip-path="url(#SVGID_8_)" fill="none" stroke="#082765" stroke-width="1.5" stroke-linecap="round" stroke-linejoin="round" stroke-miterlimit="10" d="M89.92 175.55L55.276 279.816"/>
              <path clip-path="url(#SVGID_8_)" fill="none" stroke="#082765" stroke-width="1.5" stroke-linecap="round" stroke-linejoin="round" stroke-miterlimit="10" d="M93.562 179.042L58.92 283.307"/>
              <path clip-path="url(#SVGID_8_)" fill="none" stroke="#082765" stroke-width="1.5" stroke-linecap="round" stroke-linejoin="round" stroke-miterlimit="10" d="M97.203 182.535L62.56 286.8"/>
              <path clip-path="url(#SVGID_8_)" fill="none" stroke="#082765" stroke-width="1.5" stroke-linecap="round" stroke-linejoin="round" stroke-miterlimit="10" d="M100.845 186.027L66.2 290.29"/>
            </g>
          </g>
        </g>
        <path fill="none" stroke="#082765" stroke-width="2" stroke-linecap="round" stroke-linejoin="round" stroke-miterlimit="10" d="M98 233h41"/>
        <path fill="none" stroke="#082765" stroke-width="2" stroke-linecap="round" stroke-linejoin="round" stroke-miterlimit="10" d="M147 233h12"/>
        <path fill="none" stroke="#082765" stroke-width="2" stroke-linecap="round" stroke-linejoin="round" stroke-miterlimit="10" d="M166 233h18"/>
        <path fill="none" stroke="#082765" stroke-width="2" stroke-linecap="round" stroke-linejoin="round" stroke-miterlimit="10" d="M194 233h41"/>
        <path fill="none" stroke="#082765" stroke-width="2" stroke-linecap="round" stroke-linejoin="round" stroke-miterlimit="10" d="M165 213h65"/>
        <path fill="none" stroke="#082765" stroke-width="2" stroke-linecap="round" stroke-linejoin="round" stroke-miterlimit="10" d="M100 213h52"/>
        <path fill="none" stroke="#082765" stroke-width="2" stroke-linecap="round" stroke-linejoin="round" stroke-miterlimit="10" d="M237 193h15"/>
        <path fill="none" stroke="#082765" stroke-width="2" stroke-linecap="round" stroke-linejoin="round" stroke-miterlimit="10" d="M98 193h132"/>
        <path fill="none" stroke="#082765" stroke-width="2" stroke-linecap="round" stroke-linejoin="round" stroke-miterlimit="10" d="M79 307c0 .553-.448 1-1 1H25c-.552 0-1-.447-1-1v-47c0-.55.448-1 1-1h53c.552 0 1 .45 1 1v47z"/>
        <path fill="none" stroke="#082765" stroke-width="2" stroke-linecap="round" stroke-linejoin="round" stroke-miterlimit="10" d="M3 94h269"/>
        <path fill="none" stroke="#082765" stroke-width="2" stroke-linecap="round" stroke-linejoin="round" stroke-miterlimit="10" d="M79 167c0 .552-.448 1-1 1H25c-.552 0-1-.448-1-1v-47c0-.552.448-1 1-1h53c.552 0 1 .448 1 1v47z"/>
      </g>
    </g>
  </g>
</svg>
