<svg id="Слой_1" xmlns="http://www.w3.org/2000/svg" xmlns:xlink="http://www.w3.org/1999/xlink" width="468" height="461" viewBox="0 0 468 461">
  <g id="serv_x5F_img_x5F_2">
    <g id="page3">
      <path fill="#00133E" d="M433.908 414.69c0 1.858-1.508 3.364-3.365 3.364H39.273c-1.858 0-3.365-1.506-3.365-3.363V7.42c0-1.858 1.507-3.365 3.365-3.365h391.27c1.857 0 3.365 1.507 3.365 3.366v407.27z"/>
      <path fill="none" stroke="#082765" stroke-width="2" stroke-linecap="round" stroke-linejoin="round" stroke-miterlimit="10" d="M433.908 414.69c0 1.858-1.508 3.364-3.365 3.364H39.273c-1.858 0-3.365-1.506-3.365-3.363V7.42c0-1.858 1.507-3.365 3.365-3.365h391.27c1.857 0 3.365 1.507 3.365 3.366v407.27z"/>
    </g>
    <g id="page2">
      <path fill="#00133E" d="M451.908 434.69c0 1.858-1.508 3.364-3.365 3.364H22.273c-1.858 0-3.365-1.506-3.365-3.363V27.42c0-1.858 1.507-3.365 3.365-3.365h426.27c1.857 0 3.365 1.507 3.365 3.366v407.27z"/>
      <path fill="none" stroke="#143C81" stroke-width="2" stroke-linecap="round" stroke-linejoin="round" stroke-miterlimit="10" d="M451.908 434.69c0 1.858-1.508 3.364-3.365 3.364H22.273c-1.858 0-3.365-1.506-3.365-3.363V27.42c0-1.858 1.507-3.365 3.365-3.365h426.27c1.857 0 3.365 1.507 3.365 3.366v407.27z"/>
    </g>
    <g id="page1">
      <g id="bg">
        <path fill="#00133E" d="M464.908 454.69c0 1.858-1.508 3.364-3.365 3.364H6.273c-1.858 0-3.365-1.506-3.365-3.363V47.42c0-1.858 1.507-3.365 3.365-3.365h455.27c1.857 0 3.365 1.507 3.365 3.366v407.27z"/>
      </g>
      <g id="bg-border">
        <path fill="none" stroke="#285FAF" stroke-width="2" stroke-linecap="round" stroke-linejoin="round" stroke-miterlimit="10" d="M464.908 454.69c0 1.858-1.508 3.364-3.365 3.364H6.273c-1.858 0-3.365-1.506-3.365-3.363V47.42c0-1.858 1.507-3.365 3.365-3.365h455.27c1.857 0 3.365 1.507 3.365 3.366v407.27z"/>
      </g>
      <g id="circles">
        <path fill="#005BFD" d="M35.23 69.576c0 2.97-2.406 5.375-5.375 5.375-2.97 0-5.375-2.404-5.375-5.374 0-2.97 2.406-5.375 5.375-5.375 2.97 0 5.375 2.407 5.375 5.376"/>
        <circle fill="none" stroke="#1490E7" stroke-width="1.5" stroke-linecap="round" stroke-linejoin="round" stroke-miterlimit="10" cx="29.855" cy="69.576" r="5.375"/>
        <path fill="#00133E" d="M55.242 69.576c0 2.97-2.406 5.375-5.375 5.375s-5.375-2.404-5.375-5.374c0-2.97 2.406-5.375 5.375-5.375s5.375 2.407 5.375 5.376"/>
        <circle fill="none" stroke="#285FAF" stroke-width="1.5" stroke-linecap="round" stroke-linejoin="round" stroke-miterlimit="10" cx="49.867" cy="69.576" r="5.375"/>
        <path fill="#00133E" d="M75.254 69.576c0 2.97-2.406 5.375-5.375 5.375-2.97 0-5.376-2.404-5.376-5.374 0-2.97 2.406-5.375 5.375-5.375 2.968 0 5.374 2.407 5.374 5.376"/>
        <circle fill="none" stroke="#285FAF" stroke-width="1.5" stroke-linecap="round" stroke-linejoin="round" stroke-miterlimit="10" cx="69.879" cy="69.576" r="5.375"/>
      </g>
      <g id="lines">
        <path fill="none" stroke="#082765" stroke-width="2" stroke-linecap="round" stroke-linejoin="round" stroke-miterlimit="10" d="M265.908 171.056h178"/>
        <path fill="none" stroke="#082765" stroke-width="2" stroke-linecap="round" stroke-linejoin="round" stroke-miterlimit="10" d="M197.908 171.056h45"/>
        <path fill="none" stroke="#082765" stroke-width="2" stroke-linecap="round" stroke-linejoin="round" stroke-miterlimit="10" d="M88.908 171.056h74"/>
        <path fill="none" stroke="#082765" stroke-width="2" stroke-linecap="round" stroke-linejoin="round" stroke-miterlimit="10" d="M27.908 171.056h37"/>
        <path fill="none" stroke="#082765" stroke-width="2" stroke-linecap="round" stroke-linejoin="round" stroke-miterlimit="10" d="M265.908 123.056h178"/>
        <path fill="none" stroke="#082765" stroke-width="2" stroke-linecap="round" stroke-linejoin="round" stroke-miterlimit="10" d="M88.908 123.056h146"/>
        <path fill="none" stroke="#082765" stroke-width="2" stroke-linecap="round" stroke-linejoin="round" stroke-miterlimit="10" d="M27.908 123.056h37"/>
        <path fill="none" stroke="#082765" stroke-width="2" stroke-linecap="round" stroke-linejoin="round" stroke-miterlimit="10" d="M27.908 148.056h416"/>
        <path fill="none" stroke="#082765" stroke-width="2" stroke-linecap="round" stroke-linejoin="round" stroke-miterlimit="10" d="M143.908 304.057c0 .55-.448 1-1 1h-114c-.552 0-1-.45-1-1v-92c0-.552.448-1 1-1h114c.552 0 1 .448 1 1v92z"/>
        <path fill="none" stroke="#082765" stroke-width="2" stroke-linecap="round" stroke-linejoin="round" stroke-miterlimit="10" d="M3.908 95.056h461"/>
        <g opacity=".3">
          <g>
            <g>
              <defs>
                <path id="SVGID_1_" d="M27.908 211.056h116v94h-116z"/>
              </defs>
              <clipPath id="SVGID_2_">
                <use xlink:href="#SVGID_1_" overflow="visible"/>
              </clipPath>
              <path clip-path="url(#SVGID_2_)" fill="none" stroke="#082765" stroke-width="1.5" stroke-linecap="round" stroke-linejoin="round" stroke-miterlimit="10" d="M59.853 90.817l-73.416 201.665"/>
              <path clip-path="url(#SVGID_2_)" fill="none" stroke="#082765" stroke-width="1.5" stroke-linecap="round" stroke-linejoin="round" stroke-miterlimit="10" d="M67.57 97.57L-5.846 299.237"/>
              <path clip-path="url(#SVGID_2_)" fill="none" stroke="#082765" stroke-width="1.5" stroke-linecap="round" stroke-linejoin="round" stroke-miterlimit="10" d="M75.288 104.325L1.872 305.99"/>
              <path clip-path="url(#SVGID_2_)" fill="none" stroke="#082765" stroke-width="1.5" stroke-linecap="round" stroke-linejoin="round" stroke-miterlimit="10" d="M83.005 111.08L9.59 312.743"/>
              <path clip-path="url(#SVGID_2_)" fill="none" stroke="#082765" stroke-width="1.5" stroke-linecap="round" stroke-linejoin="round" stroke-miterlimit="10" d="M90.723 117.833L17.307 319.498"/>
              <path clip-path="url(#SVGID_2_)" fill="none" stroke="#082765" stroke-width="1.5" stroke-linecap="round" stroke-linejoin="round" stroke-miterlimit="10" d="M98.44 124.586L25.024 326.252"/>
              <path clip-path="url(#SVGID_2_)" fill="none" stroke="#082765" stroke-width="1.5" stroke-linecap="round" stroke-linejoin="round" stroke-miterlimit="10" d="M106.158 131.34L32.742 333.008"/>
              <path clip-path="url(#SVGID_2_)" fill="none" stroke="#082765" stroke-width="1.5" stroke-linecap="round" stroke-linejoin="round" stroke-miterlimit="10" d="M113.875 138.095L40.46 339.762"/>
              <path clip-path="url(#SVGID_2_)" fill="none" stroke="#082765" stroke-width="1.5" stroke-linecap="round" stroke-linejoin="round" stroke-miterlimit="10" d="M121.592 144.85L48.176 346.515"/>
              <path clip-path="url(#SVGID_2_)" fill="none" stroke="#082765" stroke-width="1.5" stroke-linecap="round" stroke-linejoin="round" stroke-miterlimit="10" d="M129.31 151.603L55.894 353.27"/>
              <path clip-path="url(#SVGID_2_)" fill="none" stroke="#082765" stroke-width="1.5" stroke-linecap="round" stroke-linejoin="round" stroke-miterlimit="10" d="M137.028 158.358L63.61 360.023"/>
              <path clip-path="url(#SVGID_2_)" fill="none" stroke="#082765" stroke-width="1.5" stroke-linecap="round" stroke-linejoin="round" stroke-miterlimit="10" d="M144.745 165.112L71.33 366.777"/>
              <path clip-path="url(#SVGID_2_)" fill="none" stroke="#082765" stroke-width="1.5" stroke-linecap="round" stroke-linejoin="round" stroke-miterlimit="10" d="M152.462 171.866L79.046 373.53"/>
              <path clip-path="url(#SVGID_2_)" fill="none" stroke="#082765" stroke-width="1.5" stroke-linecap="round" stroke-linejoin="round" stroke-miterlimit="10" d="M160.18 178.62L86.763 380.285"/>
              <path clip-path="url(#SVGID_2_)" fill="none" stroke="#082765" stroke-width="1.5" stroke-linecap="round" stroke-linejoin="round" stroke-miterlimit="10" d="M167.897 185.374L94.48 387.04"/>
              <path clip-path="url(#SVGID_2_)" fill="none" stroke="#082765" stroke-width="1.5" stroke-linecap="round" stroke-linejoin="round" stroke-miterlimit="10" d="M175.615 192.127L102.2 393.793"/>
              <path clip-path="url(#SVGID_2_)" fill="none" stroke="#082765" stroke-width="1.5" stroke-linecap="round" stroke-linejoin="round" stroke-miterlimit="10" d="M183.332 198.88l-73.416 201.667"/>
              <path clip-path="url(#SVGID_2_)" fill="none" stroke="#082765" stroke-width="1.5" stroke-linecap="round" stroke-linejoin="round" stroke-miterlimit="10" d="M191.05 205.636l-73.417 201.667"/>
            </g>
          </g>
        </g>
        <path fill="none" stroke="#082765" stroke-width="2" stroke-linecap="round" stroke-linejoin="round" stroke-miterlimit="10" d="M293.908 304.057c0 .55-.45 1-1 1h-114c-.552 0-1-.45-1-1v-92c0-.552.448-1 1-1h114c.55 0 1 .448 1 1v92z"/>
        <g opacity=".3">
          <g>
            <g>
              <defs>
                <path id="SVGID_3_" d="M177.908 211.056h116v94h-116z"/>
              </defs>
              <clipPath id="SVGID_4_">
                <use xlink:href="#SVGID_3_" overflow="visible"/>
              </clipPath>
              <path clip-path="url(#SVGID_4_)" fill="none" stroke="#082765" stroke-width="1.5" stroke-linecap="round" stroke-linejoin="round" stroke-miterlimit="10" d="M209.853 90.817l-73.416 201.665"/>
              <path clip-path="url(#SVGID_4_)" fill="none" stroke="#082765" stroke-width="1.5" stroke-linecap="round" stroke-linejoin="round" stroke-miterlimit="10" d="M217.57 97.57l-73.415 201.666"/>
              <path clip-path="url(#SVGID_4_)" fill="none" stroke="#082765" stroke-width="1.5" stroke-linecap="round" stroke-linejoin="round" stroke-miterlimit="10" d="M225.288 104.325L151.872 305.99"/>
              <path clip-path="url(#SVGID_4_)" fill="none" stroke="#082765" stroke-width="1.5" stroke-linecap="round" stroke-linejoin="round" stroke-miterlimit="10" d="M233.005 111.08L159.59 312.743"/>
              <path clip-path="url(#SVGID_4_)" fill="none" stroke="#082765" stroke-width="1.5" stroke-linecap="round" stroke-linejoin="round" stroke-miterlimit="10" d="M240.723 117.833l-73.416 201.665"/>
              <path clip-path="url(#SVGID_4_)" fill="none" stroke="#082765" stroke-width="1.5" stroke-linecap="round" stroke-linejoin="round" stroke-miterlimit="10" d="M248.44 124.586l-73.416 201.666"/>
              <path clip-path="url(#SVGID_4_)" fill="none" stroke="#082765" stroke-width="1.5" stroke-linecap="round" stroke-linejoin="round" stroke-miterlimit="10" d="M256.158 131.34l-73.416 201.668"/>
              <path clip-path="url(#SVGID_4_)" fill="none" stroke="#082765" stroke-width="1.5" stroke-linecap="round" stroke-linejoin="round" stroke-miterlimit="10" d="M263.875 138.095L190.46 339.762"/>
              <path clip-path="url(#SVGID_4_)" fill="none" stroke="#082765" stroke-width="1.5" stroke-linecap="round" stroke-linejoin="round" stroke-miterlimit="10" d="M271.592 144.85l-73.416 201.666"/>
              <path clip-path="url(#SVGID_4_)" fill="none" stroke="#082765" stroke-width="1.5" stroke-linecap="round" stroke-linejoin="round" stroke-miterlimit="10" d="M279.31 151.603L205.895 353.27"/>
              <path clip-path="url(#SVGID_4_)" fill="none" stroke="#082765" stroke-width="1.5" stroke-linecap="round" stroke-linejoin="round" stroke-miterlimit="10" d="M287.027 158.358l-73.415 201.665"/>
              <path clip-path="url(#SVGID_4_)" fill="none" stroke="#082765" stroke-width="1.5" stroke-linecap="round" stroke-linejoin="round" stroke-miterlimit="10" d="M294.744 165.112L221.33 366.777"/>
              <path clip-path="url(#SVGID_4_)" fill="none" stroke="#082765" stroke-width="1.5" stroke-linecap="round" stroke-linejoin="round" stroke-miterlimit="10" d="M302.463 171.866L229.046 373.53"/>
              <path clip-path="url(#SVGID_4_)" fill="none" stroke="#082765" stroke-width="1.5" stroke-linecap="round" stroke-linejoin="round" stroke-miterlimit="10" d="M310.18 178.62l-73.416 201.665"/>
              <path clip-path="url(#SVGID_4_)" fill="none" stroke="#082765" stroke-width="1.5" stroke-linecap="round" stroke-linejoin="round" stroke-miterlimit="10" d="M317.896 185.374L244.48 387.04"/>
              <path clip-path="url(#SVGID_4_)" fill="none" stroke="#082765" stroke-width="1.5" stroke-linecap="round" stroke-linejoin="round" stroke-miterlimit="10" d="M325.615 192.127L252.2 393.793"/>
              <path clip-path="url(#SVGID_4_)" fill="none" stroke="#082765" stroke-width="1.5" stroke-linecap="round" stroke-linejoin="round" stroke-miterlimit="10" d="M333.332 198.88l-73.416 201.667"/>
              <path clip-path="url(#SVGID_4_)" fill="none" stroke="#082765" stroke-width="1.5" stroke-linecap="round" stroke-linejoin="round" stroke-miterlimit="10" d="M341.05 205.636l-73.417 201.667"/>
            </g>
          </g>
        </g>
        <path fill="none" stroke="#082765" stroke-width="2" stroke-linecap="round" stroke-linejoin="round" stroke-miterlimit="10" d="M443.908 304.057c0 .55-.45 1-1 1h-114c-.553 0-1-.45-1-1v-92c0-.552.447-1 1-1h114c.55 0 1 .448 1 1v92z"/>
        <g opacity=".3">
          <g>
            <g>
              <defs>
                <path id="SVGID_5_" d="M327.908 211.056h116v94h-116z"/>
              </defs>
              <clipPath id="SVGID_6_">
                <use xlink:href="#SVGID_5_" overflow="visible"/>
              </clipPath>
              <path clip-path="url(#SVGID_6_)" fill="none" stroke="#082765" stroke-width="1.5" stroke-linecap="round" stroke-linejoin="round" stroke-miterlimit="10" d="M359.854 90.817l-73.416 201.665"/>
              <path clip-path="url(#SVGID_6_)" fill="none" stroke="#082765" stroke-width="1.5" stroke-linecap="round" stroke-linejoin="round" stroke-miterlimit="10" d="M367.57 97.57l-73.416 201.666"/>
              <path clip-path="url(#SVGID_6_)" fill="none" stroke="#082765" stroke-width="1.5" stroke-linecap="round" stroke-linejoin="round" stroke-miterlimit="10" d="M375.287 104.325L301.87 305.99"/>
              <path clip-path="url(#SVGID_6_)" fill="none" stroke="#082765" stroke-width="1.5" stroke-linecap="round" stroke-linejoin="round" stroke-miterlimit="10" d="M383.006 111.08L309.59 312.743"/>
              <path clip-path="url(#SVGID_6_)" fill="none" stroke="#082765" stroke-width="1.5" stroke-linecap="round" stroke-linejoin="round" stroke-miterlimit="10" d="M390.723 117.833l-73.416 201.665"/>
              <path clip-path="url(#SVGID_6_)" fill="none" stroke="#082765" stroke-width="1.5" stroke-linecap="round" stroke-linejoin="round" stroke-miterlimit="10" d="M398.44 124.586l-73.417 201.666"/>
              <path clip-path="url(#SVGID_6_)" fill="none" stroke="#082765" stroke-width="1.5" stroke-linecap="round" stroke-linejoin="round" stroke-miterlimit="10" d="M406.158 131.34l-73.416 201.668"/>
              <path clip-path="url(#SVGID_6_)" fill="none" stroke="#082765" stroke-width="1.5" stroke-linecap="round" stroke-linejoin="round" stroke-miterlimit="10" d="M413.875 138.095L340.46 339.762"/>
              <path clip-path="url(#SVGID_6_)" fill="none" stroke="#082765" stroke-width="1.5" stroke-linecap="round" stroke-linejoin="round" stroke-miterlimit="10" d="M421.592 144.85l-73.416 201.666"/>
              <path clip-path="url(#SVGID_6_)" fill="none" stroke="#082765" stroke-width="1.5" stroke-linecap="round" stroke-linejoin="round" stroke-miterlimit="10" d="M429.31 151.603L355.896 353.27"/>
              <path clip-path="url(#SVGID_6_)" fill="none" stroke="#082765" stroke-width="1.5" stroke-linecap="round" stroke-linejoin="round" stroke-miterlimit="10" d="M437.027 158.358L363.61 360.023"/>
              <path clip-path="url(#SVGID_6_)" fill="none" stroke="#082765" stroke-width="1.5" stroke-linecap="round" stroke-linejoin="round" stroke-miterlimit="10" d="M444.744 165.112l-73.416 201.665"/>
              <path clip-path="url(#SVGID_6_)" fill="none" stroke="#082765" stroke-width="1.5" stroke-linecap="round" stroke-linejoin="round" stroke-miterlimit="10" d="M452.463 171.866L379.047 373.53"/>
              <path clip-path="url(#SVGID_6_)" fill="none" stroke="#082765" stroke-width="1.5" stroke-linecap="round" stroke-linejoin="round" stroke-miterlimit="10" d="M460.18 178.62l-73.416 201.665"/>
              <path clip-path="url(#SVGID_6_)" fill="none" stroke="#082765" stroke-width="1.5" stroke-linecap="round" stroke-linejoin="round" stroke-miterlimit="10" d="M467.896 185.374L394.48 387.04"/>
              <path clip-path="url(#SVGID_6_)" fill="none" stroke="#082765" stroke-width="1.5" stroke-linecap="round" stroke-linejoin="round" stroke-miterlimit="10" d="M475.615 192.127L402.2 393.793"/>
              <path clip-path="url(#SVGID_6_)" fill="none" stroke="#082765" stroke-width="1.5" stroke-linecap="round" stroke-linejoin="round" stroke-miterlimit="10" d="M483.332 198.88l-73.416 201.667"/>
              <path clip-path="url(#SVGID_6_)" fill="none" stroke="#082765" stroke-width="1.5" stroke-linecap="round" stroke-linejoin="round" stroke-miterlimit="10" d="M491.05 205.636l-73.417 201.667"/>
            </g>
          </g>
        </g>
        <path fill="none" stroke="#082765" stroke-width="2" stroke-linecap="round" stroke-linejoin="round" stroke-miterlimit="10" d="M143.908 434.057c0 .55-.448 1-1 1h-114c-.552 0-1-.45-1-1v-92c0-.553.448-1 1-1h114c.552 0 1 .447 1 1v92z"/>
        <g opacity=".3">
          <g>
            <g>
              <defs>
                <path id="SVGID_7_" d="M27.908 341.057h116v94h-116z"/>
              </defs>
              <clipPath id="SVGID_8_">
                <use xlink:href="#SVGID_7_" overflow="visible"/>
              </clipPath>
              <path clip-path="url(#SVGID_8_)" fill="none" stroke="#082765" stroke-width="1.5" stroke-linecap="round" stroke-linejoin="round" stroke-miterlimit="10" d="M59.853 220.817l-73.416 201.665"/>
              <path clip-path="url(#SVGID_8_)" fill="none" stroke="#082765" stroke-width="1.5" stroke-linecap="round" stroke-linejoin="round" stroke-miterlimit="10" d="M67.57 227.57L-5.846 429.237"/>
              <path clip-path="url(#SVGID_8_)" fill="none" stroke="#082765" stroke-width="1.5" stroke-linecap="round" stroke-linejoin="round" stroke-miterlimit="10" d="M75.288 234.324L1.872 435.99"/>
              <path clip-path="url(#SVGID_8_)" fill="none" stroke="#082765" stroke-width="1.5" stroke-linecap="round" stroke-linejoin="round" stroke-miterlimit="10" d="M83.005 241.078L9.59 442.744"/>
              <path clip-path="url(#SVGID_8_)" fill="none" stroke="#082765" stroke-width="1.5" stroke-linecap="round" stroke-linejoin="round" stroke-miterlimit="10" d="M90.723 247.832L17.307 449.498"/>
              <path clip-path="url(#SVGID_8_)" fill="none" stroke="#082765" stroke-width="1.5" stroke-linecap="round" stroke-linejoin="round" stroke-miterlimit="10" d="M98.44 254.586L25.024 456.252"/>
              <path clip-path="url(#SVGID_8_)" fill="none" stroke="#082765" stroke-width="1.5" stroke-linecap="round" stroke-linejoin="round" stroke-miterlimit="10" d="M106.158 261.342L32.742 463.008"/>
              <path clip-path="url(#SVGID_8_)" fill="none" stroke="#082765" stroke-width="1.5" stroke-linecap="round" stroke-linejoin="round" stroke-miterlimit="10" d="M113.875 268.096L40.46 469.762"/>
              <path clip-path="url(#SVGID_8_)" fill="none" stroke="#082765" stroke-width="1.5" stroke-linecap="round" stroke-linejoin="round" stroke-miterlimit="10" d="M121.592 274.85L48.176 476.516"/>
              <path clip-path="url(#SVGID_8_)" fill="none" stroke="#082765" stroke-width="1.5" stroke-linecap="round" stroke-linejoin="round" stroke-miterlimit="10" d="M129.31 281.604L55.894 483.27"/>
              <path clip-path="url(#SVGID_8_)" fill="none" stroke="#082765" stroke-width="1.5" stroke-linecap="round" stroke-linejoin="round" stroke-miterlimit="10" d="M137.028 288.357L63.61 490.023"/>
              <path clip-path="url(#SVGID_8_)" fill="none" stroke="#082765" stroke-width="1.5" stroke-linecap="round" stroke-linejoin="round" stroke-miterlimit="10" d="M144.745 295.11L71.33 496.778"/>
              <path clip-path="url(#SVGID_8_)" fill="none" stroke="#082765" stroke-width="1.5" stroke-linecap="round" stroke-linejoin="round" stroke-miterlimit="10" d="M152.462 301.865L79.046 503.53"/>
              <path clip-path="url(#SVGID_8_)" fill="none" stroke="#082765" stroke-width="1.5" stroke-linecap="round" stroke-linejoin="round" stroke-miterlimit="10" d="M160.18 308.62L86.763 510.284"/>
              <path clip-path="url(#SVGID_8_)" fill="none" stroke="#082765" stroke-width="1.5" stroke-linecap="round" stroke-linejoin="round" stroke-miterlimit="10" d="M167.897 315.373L94.48 517.04"/>
              <path clip-path="url(#SVGID_8_)" fill="none" stroke="#082765" stroke-width="1.5" stroke-linecap="round" stroke-linejoin="round" stroke-miterlimit="10" d="M175.615 322.127L102.2 523.793"/>
              <path clip-path="url(#SVGID_8_)" fill="none" stroke="#082765" stroke-width="1.5" stroke-linecap="round" stroke-linejoin="round" stroke-miterlimit="10" d="M183.332 328.883L109.916 530.55"/>
              <path clip-path="url(#SVGID_8_)" fill="none" stroke="#082765" stroke-width="1.5" stroke-linecap="round" stroke-linejoin="round" stroke-miterlimit="10" d="M191.05 335.637l-73.417 201.666"/>
            </g>
          </g>
        </g>
        <path fill="none" stroke="#082765" stroke-width="2" stroke-linecap="round" stroke-linejoin="round" stroke-miterlimit="10" d="M293.908 434.057c0 .55-.45 1-1 1h-114c-.552 0-1-.45-1-1v-92c0-.553.448-1 1-1h114c.55 0 1 .447 1 1v92z"/>
        <g opacity=".3">
          <g>
            <g>
              <defs>
                <path id="SVGID_9_" d="M177.908 341.057h116v94h-116z"/>
              </defs>
              <clipPath id="SVGID_10_">
                <use xlink:href="#SVGID_9_" overflow="visible"/>
              </clipPath>
              <path clip-path="url(#SVGID_10_)" fill="none" stroke="#082765" stroke-width="1.5" stroke-linecap="round" stroke-linejoin="round" stroke-miterlimit="10" d="M209.853 220.817l-73.416 201.665"/>
              <path clip-path="url(#SVGID_10_)" fill="none" stroke="#082765" stroke-width="1.5" stroke-linecap="round" stroke-linejoin="round" stroke-miterlimit="10" d="M217.57 227.57l-73.415 201.666"/>
              <path clip-path="url(#SVGID_10_)" fill="none" stroke="#082765" stroke-width="1.5" stroke-linecap="round" stroke-linejoin="round" stroke-miterlimit="10" d="M225.288 234.324L151.872 435.99"/>
              <path clip-path="url(#SVGID_10_)" fill="none" stroke="#082765" stroke-width="1.5" stroke-linecap="round" stroke-linejoin="round" stroke-miterlimit="10" d="M233.005 241.078L159.59 442.744"/>
              <path clip-path="url(#SVGID_10_)" fill="none" stroke="#082765" stroke-width="1.5" stroke-linecap="round" stroke-linejoin="round" stroke-miterlimit="10" d="M240.723 247.832l-73.416 201.666"/>
              <path clip-path="url(#SVGID_10_)" fill="none" stroke="#082765" stroke-width="1.5" stroke-linecap="round" stroke-linejoin="round" stroke-miterlimit="10" d="M248.44 254.586l-73.416 201.666"/>
              <path clip-path="url(#SVGID_10_)" fill="none" stroke="#082765" stroke-width="1.5" stroke-linecap="round" stroke-linejoin="round" stroke-miterlimit="10" d="M256.158 261.342l-73.416 201.666"/>
              <path clip-path="url(#SVGID_10_)" fill="none" stroke="#082765" stroke-width="1.5" stroke-linecap="round" stroke-linejoin="round" stroke-miterlimit="10" d="M263.875 268.096L190.46 469.762"/>
              <path clip-path="url(#SVGID_10_)" fill="none" stroke="#082765" stroke-width="1.5" stroke-linecap="round" stroke-linejoin="round" stroke-miterlimit="10" d="M271.592 274.85l-73.416 201.666"/>
              <path clip-path="url(#SVGID_10_)" fill="none" stroke="#082765" stroke-width="1.5" stroke-linecap="round" stroke-linejoin="round" stroke-miterlimit="10" d="M279.31 281.604L205.895 483.27"/>
              <path clip-path="url(#SVGID_10_)" fill="none" stroke="#082765" stroke-width="1.5" stroke-linecap="round" stroke-linejoin="round" stroke-miterlimit="10" d="M287.027 288.357l-73.415 201.666"/>
              <path clip-path="url(#SVGID_10_)" fill="none" stroke="#082765" stroke-width="1.5" stroke-linecap="round" stroke-linejoin="round" stroke-miterlimit="10" d="M294.744 295.11L221.33 496.778"/>
              <path clip-path="url(#SVGID_10_)" fill="none" stroke="#082765" stroke-width="1.5" stroke-linecap="round" stroke-linejoin="round" stroke-miterlimit="10" d="M302.463 301.865L229.046 503.53"/>
              <path clip-path="url(#SVGID_10_)" fill="none" stroke="#082765" stroke-width="1.5" stroke-linecap="round" stroke-linejoin="round" stroke-miterlimit="10" d="M310.18 308.62l-73.416 201.665"/>
              <path clip-path="url(#SVGID_10_)" fill="none" stroke="#082765" stroke-width="1.5" stroke-linecap="round" stroke-linejoin="round" stroke-miterlimit="10" d="M317.896 315.373L244.48 517.04"/>
              <path clip-path="url(#SVGID_10_)" fill="none" stroke="#082765" stroke-width="1.5" stroke-linecap="round" stroke-linejoin="round" stroke-miterlimit="10" d="M325.615 322.127L252.2 523.793"/>
              <path clip-path="url(#SVGID_10_)" fill="none" stroke="#082765" stroke-width="1.5" stroke-linecap="round" stroke-linejoin="round" stroke-miterlimit="10" d="M333.332 328.883L259.916 530.55"/>
              <path clip-path="url(#SVGID_10_)" fill="none" stroke="#082765" stroke-width="1.5" stroke-linecap="round" stroke-linejoin="round" stroke-miterlimit="10" d="M341.05 335.637l-73.417 201.666"/>
            </g>
          </g>
        </g>
        <path fill="none" stroke="#082765" stroke-width="2" stroke-linecap="round" stroke-linejoin="round" stroke-miterlimit="10" d="M443.908 434.057c0 .55-.45 1-1 1h-114c-.553 0-1-.45-1-1v-92c0-.553.447-1 1-1h114c.55 0 1 .447 1 1v92z"/>
        <g opacity=".3">
          <g>
            <g>
              <defs>
                <path id="SVGID_11_" d="M327.908 341.057h116v94h-116z"/>
              </defs>
              <clipPath id="SVGID_12_">
                <use xlink:href="#SVGID_11_" overflow="visible"/>
              </clipPath>
              <path clip-path="url(#SVGID_12_)" fill="none" stroke="#082765" stroke-width="1.5" stroke-linecap="round" stroke-linejoin="round" stroke-miterlimit="10" d="M359.854 220.817l-73.416 201.665"/>
              <path clip-path="url(#SVGID_12_)" fill="none" stroke="#082765" stroke-width="1.5" stroke-linecap="round" stroke-linejoin="round" stroke-miterlimit="10" d="M367.57 227.57l-73.416 201.666"/>
              <path clip-path="url(#SVGID_12_)" fill="none" stroke="#082765" stroke-width="1.5" stroke-linecap="round" stroke-linejoin="round" stroke-miterlimit="10" d="M375.287 234.324L301.87 435.99"/>
              <path clip-path="url(#SVGID_12_)" fill="none" stroke="#082765" stroke-width="1.5" stroke-linecap="round" stroke-linejoin="round" stroke-miterlimit="10" d="M383.006 241.078L309.59 442.744"/>
              <path clip-path="url(#SVGID_12_)" fill="none" stroke="#082765" stroke-width="1.5" stroke-linecap="round" stroke-linejoin="round" stroke-miterlimit="10" d="M390.723 247.832l-73.416 201.666"/>
              <path clip-path="url(#SVGID_12_)" fill="none" stroke="#082765" stroke-width="1.5" stroke-linecap="round" stroke-linejoin="round" stroke-miterlimit="10" d="M398.44 254.586l-73.417 201.666"/>
              <path clip-path="url(#SVGID_12_)" fill="none" stroke="#082765" stroke-width="1.5" stroke-linecap="round" stroke-linejoin="round" stroke-miterlimit="10" d="M406.158 261.342l-73.416 201.666"/>
              <path clip-path="url(#SVGID_12_)" fill="none" stroke="#082765" stroke-width="1.5" stroke-linecap="round" stroke-linejoin="round" stroke-miterlimit="10" d="M413.875 268.096L340.46 469.762"/>
              <path clip-path="url(#SVGID_12_)" fill="none" stroke="#082765" stroke-width="1.5" stroke-linecap="round" stroke-linejoin="round" stroke-miterlimit="10" d="M421.592 274.85l-73.416 201.666"/>
              <path clip-path="url(#SVGID_12_)" fill="none" stroke="#082765" stroke-width="1.5" stroke-linecap="round" stroke-linejoin="round" stroke-miterlimit="10" d="M429.31 281.604L355.896 483.27"/>
              <path clip-path="url(#SVGID_12_)" fill="none" stroke="#082765" stroke-width="1.5" stroke-linecap="round" stroke-linejoin="round" stroke-miterlimit="10" d="M437.027 288.357L363.61 490.023"/>
              <path clip-path="url(#SVGID_12_)" fill="none" stroke="#082765" stroke-width="1.5" stroke-linecap="round" stroke-linejoin="round" stroke-miterlimit="10" d="M444.744 295.11l-73.416 201.667"/>
              <path clip-path="url(#SVGID_12_)" fill="none" stroke="#082765" stroke-width="1.5" stroke-linecap="round" stroke-linejoin="round" stroke-miterlimit="10" d="M452.463 301.865L379.047 503.53"/>
              <path clip-path="url(#SVGID_12_)" fill="none" stroke="#082765" stroke-width="1.5" stroke-linecap="round" stroke-linejoin="round" stroke-miterlimit="10" d="M460.18 308.62l-73.416 201.665"/>
              <path clip-path="url(#SVGID_12_)" fill="none" stroke="#082765" stroke-width="1.5" stroke-linecap="round" stroke-linejoin="round" stroke-miterlimit="10" d="M467.896 315.373L394.48 517.04"/>
              <path clip-path="url(#SVGID_12_)" fill="none" stroke="#082765" stroke-width="1.5" stroke-linecap="round" stroke-linejoin="round" stroke-miterlimit="10" d="M475.615 322.127L402.2 523.793"/>
              <path clip-path="url(#SVGID_12_)" fill="none" stroke="#082765" stroke-width="1.5" stroke-linecap="round" stroke-linejoin="round" stroke-miterlimit="10" d="M483.332 328.883L409.916 530.55"/>
              <path clip-path="url(#SVGID_12_)" fill="none" stroke="#082765" stroke-width="1.5" stroke-linecap="round" stroke-linejoin="round" stroke-miterlimit="10" d="M491.05 335.637l-73.417 201.666"/>
            </g>
          </g>
        </g>
      </g>
    </g>
  </g>
</svg>
