<svg id="Слой_1" xmlns="http://www.w3.org/2000/svg" xmlns:xlink="http://www.w3.org/1999/xlink" width="494" height="460" viewBox="0 0 494 460">
  <g id="serv_x5F_img_x5F_4">
    <g id="page3">
      <path fill="#00133E" d="M456.5 413.762c0 1.86-1.507 3.365-3.365 3.365H41.865c-1.858 0-3.365-1.506-3.365-3.365V6.492c0-1.858 1.507-3.365 3.365-3.365h411.27c1.858 0 3.365 1.507 3.365 3.366v407.27z"/>
      <path fill="none" stroke="#082765" stroke-width="2" stroke-linecap="round" stroke-linejoin="round" stroke-miterlimit="10" d="M456.5 413.762c0 1.86-1.507 3.365-3.365 3.365H41.865c-1.858 0-3.365-1.506-3.365-3.365V6.492c0-1.858 1.507-3.365 3.365-3.365h411.27c1.858 0 3.365 1.507 3.365 3.366v407.27z"/>
    </g>
    <g id="page2">
      <path fill="#00133E" d="M474.5 433.762c0 1.86-1.507 3.365-3.365 3.365H23.865c-1.858 0-3.365-1.506-3.365-3.365V26.492c0-1.858 1.507-3.365 3.365-3.365h447.27c1.858 0 3.365 1.507 3.365 3.366v407.27z"/>
      <path fill="none" stroke="#143C81" stroke-width="2" stroke-linecap="round" stroke-linejoin="round" stroke-miterlimit="10" d="M474.5 433.762c0 1.86-1.507 3.365-3.365 3.365H23.865c-1.858 0-3.365-1.506-3.365-3.365V26.492c0-1.858 1.507-3.365 3.365-3.365h447.27c1.858 0 3.365 1.507 3.365 3.366v407.27z"/>
    </g>
    <g id="page1">
      <g id="bg">
        <path fill="#00133E" d="M489.5 453.762c0 1.86-1.507 3.365-3.365 3.365H7.865c-1.858 0-3.365-1.506-3.365-3.365V46.492c0-1.858 1.507-3.365 3.365-3.365h478.27c1.858 0 3.365 1.507 3.365 3.366v407.27z"/>
      </g>
      <g id="bg-border">
        <path fill="none" stroke="#285FAF" stroke-width="2" stroke-linecap="round" stroke-linejoin="round" stroke-miterlimit="10" d="M489.5 453.762c0 1.86-1.507 3.365-3.365 3.365H7.865c-1.858 0-3.365-1.506-3.365-3.365V46.492c0-1.858 1.507-3.365 3.365-3.365h478.27c1.858 0 3.365 1.507 3.365 3.366v407.27z"/>
      </g>
      <g id="lines">
        <path fill="none" stroke="#005BFD" stroke-miterlimit="10" d="M365 429.627c0 .553-.448 1-1 1H129c-.552 0-1-.447-1-1v-35c0-.55.448-1 1-1h235c.552 0 1 .45 1 1v35z"/>
        <path fill="none" stroke="#082765" stroke-width="2" stroke-linecap="round" stroke-linejoin="round" stroke-miterlimit="10" d="M128.5 373.127h60"/>
        <path fill="none" stroke="#082765" stroke-width="2" stroke-linecap="round" stroke-linejoin="round" stroke-miterlimit="10" d="M200.5 373.127h60"/>
        <path fill="none" stroke="#082765" stroke-width="2" stroke-linecap="round" stroke-linejoin="round" stroke-miterlimit="10" d="M272.5 373.127h93"/>
        <path fill="none" stroke="#082765" stroke-width="2" stroke-linecap="round" stroke-linejoin="round" stroke-miterlimit="10" d="M257.5 353.127h108"/>
        <path fill="none" stroke="#082765" stroke-width="2" stroke-linecap="round" stroke-linejoin="round" stroke-miterlimit="10" d="M220.5 353.127h24"/>
        <path fill="none" stroke="#082765" stroke-width="2" stroke-linecap="round" stroke-linejoin="round" stroke-miterlimit="10" d="M161.5 353.127h40"/>
        <path fill="none" stroke="#082765" stroke-width="2" stroke-linecap="round" stroke-linejoin="round" stroke-miterlimit="10" d="M128.5 353.127h20"/>
        <path fill="none" stroke="#082765" stroke-width="2" stroke-linecap="round" stroke-linejoin="round" stroke-miterlimit="10" d="M310.5 333.127h55"/>
        <path fill="none" stroke="#082765" stroke-width="2" stroke-linecap="round" stroke-linejoin="round" stroke-miterlimit="10" d="M128.5 333.127h165"/>
        <path fill="none" stroke="#082765" stroke-width="2" stroke-linecap="round" stroke-linejoin="round" stroke-miterlimit="10" d="M365.5 266.127c0 .553-.448 1-1 1h-235c-.552 0-1-.447-1-1v-142c0-.552.448-1 1-1h235c.552 0 1 .448 1 1v142z"/>
        <path fill="none" stroke="#082765" stroke-width="2" stroke-miterlimit="10" d="M5.5 94.127h483"/>
        <g opacity=".3">
          <g>
            <g>
              <defs>
                <path id="SVGID_1_" d="M128.5 121.127h237v146h-237z"/>
              </defs>
              <clipPath id="SVGID_2_">
                <use xlink:href="#SVGID_1_" overflow="visible"/>
              </clipPath>
              <path clip-path="url(#SVGID_2_)" fill="none" stroke="#082765" stroke-width="1.5" stroke-linecap="round" stroke-linejoin="round" stroke-miterlimit="10" d="M194.254-65.136L44.657 247.61"/>
              <path clip-path="url(#SVGID_2_)" fill="none" stroke="#082765" stroke-width="1.5" stroke-linecap="round" stroke-linejoin="round" stroke-miterlimit="10" d="M209.98-54.662L60.383 258.084"/>
              <path clip-path="url(#SVGID_2_)" fill="none" stroke="#082765" stroke-width="1.5" stroke-linecap="round" stroke-linejoin="round" stroke-miterlimit="10" d="M225.706-44.187L76.108 268.56"/>
              <path clip-path="url(#SVGID_2_)" fill="none" stroke="#082765" stroke-width="1.5" stroke-linecap="round" stroke-linejoin="round" stroke-miterlimit="10" d="M241.43-33.713L91.835 279.033"/>
              <path clip-path="url(#SVGID_2_)" fill="none" stroke="#082765" stroke-width="1.5" stroke-linecap="round" stroke-linejoin="round" stroke-miterlimit="10" d="M257.156-23.238L107.56 289.508"/>
              <path clip-path="url(#SVGID_2_)" fill="none" stroke="#082765" stroke-width="1.5" stroke-linecap="round" stroke-linejoin="round" stroke-miterlimit="10" d="M272.882-12.764L123.285 299.982"/>
              <path clip-path="url(#SVGID_2_)" fill="none" stroke="#082765" stroke-width="1.5" stroke-linecap="round" stroke-linejoin="round" stroke-miterlimit="10" d="M288.607-2.29L139.01 310.457"/>
              <path clip-path="url(#SVGID_2_)" fill="none" stroke="#082765" stroke-width="1.5" stroke-linecap="round" stroke-linejoin="round" stroke-miterlimit="10" d="M304.333 8.185L154.736 320.93"/>
              <path clip-path="url(#SVGID_2_)" fill="none" stroke="#082765" stroke-width="1.5" stroke-linecap="round" stroke-linejoin="round" stroke-miterlimit="10" d="M320.06 18.66l-149.6 312.744"/>
              <path clip-path="url(#SVGID_2_)" fill="none" stroke="#082765" stroke-width="1.5" stroke-linecap="round" stroke-linejoin="round" stroke-miterlimit="10" d="M335.784 29.133L186.187 341.88"/>
              <path clip-path="url(#SVGID_2_)" fill="none" stroke="#082765" stroke-width="1.5" stroke-linecap="round" stroke-linejoin="round" stroke-miterlimit="10" d="M351.51 39.608L201.913 352.354"/>
              <path clip-path="url(#SVGID_2_)" fill="none" stroke="#082765" stroke-width="1.5" stroke-linecap="round" stroke-linejoin="round" stroke-miterlimit="10" d="M367.235 50.082L217.638 362.828"/>
              <path clip-path="url(#SVGID_2_)" fill="none" stroke="#082765" stroke-width="1.5" stroke-linecap="round" stroke-linejoin="round" stroke-miterlimit="10" d="M382.96 60.556L233.363 373.303"/>
              <path clip-path="url(#SVGID_2_)" fill="none" stroke="#082765" stroke-width="1.5" stroke-linecap="round" stroke-linejoin="round" stroke-miterlimit="10" d="M398.687 71.03L249.09 383.778"/>
              <path clip-path="url(#SVGID_2_)" fill="none" stroke="#082765" stroke-width="1.5" stroke-linecap="round" stroke-linejoin="round" stroke-miterlimit="10" d="M414.41 81.505L264.815 394.252"/>
              <path clip-path="url(#SVGID_2_)" fill="none" stroke="#082765" stroke-width="1.5" stroke-linecap="round" stroke-linejoin="round" stroke-miterlimit="10" d="M430.138 91.98L280.54 404.724"/>
              <path clip-path="url(#SVGID_2_)" fill="none" stroke="#082765" stroke-width="1.5" stroke-linecap="round" stroke-linejoin="round" stroke-miterlimit="10" d="M445.862 102.454L296.266 415.2"/>
              <path clip-path="url(#SVGID_2_)" fill="none" stroke="#082765" stroke-width="1.5" stroke-linecap="round" stroke-linejoin="round" stroke-miterlimit="10" d="M461.59 112.928l-149.6 312.746"/>
            </g>
          </g>
        </g>
        <path fill="none" stroke="#082765" stroke-width="2" stroke-linecap="round" stroke-linejoin="round" stroke-miterlimit="10" d="M177.5 313.127c0 .553-.448 1-1 1h-47c-.552 0-1-.447-1-1v-31c0-.55.448-1 1-1h47c.552 0 1 .45 1 1v31z"/>
        <g opacity=".3">
          <g>
            <g>
              <defs>
                <path id="SVGID_3_" d="M128.5 281.127h49v33h-49z"/>
              </defs>
              <clipPath id="SVGID_4_">
                <use xlink:href="#SVGID_3_" overflow="visible"/>
              </clipPath>
              <path clip-path="url(#SVGID_4_)" fill="none" stroke="#082765" stroke-width="1.5" stroke-linecap="round" stroke-linejoin="round" stroke-miterlimit="10" d="M141.824 238.412l-30.953 71.72"/>
              <path clip-path="url(#SVGID_4_)" fill="none" stroke="#082765" stroke-width="1.5" stroke-linecap="round" stroke-linejoin="round" stroke-miterlimit="10" d="M145.078 240.814l-30.954 71.72"/>
              <path clip-path="url(#SVGID_4_)" fill="none" stroke="#082765" stroke-width="1.5" stroke-linecap="round" stroke-linejoin="round" stroke-miterlimit="10" d="M148.332 243.217l-30.954 71.72"/>
              <path clip-path="url(#SVGID_4_)" fill="none" stroke="#082765" stroke-width="1.5" stroke-linecap="round" stroke-linejoin="round" stroke-miterlimit="10" d="M151.585 245.62l-30.953 71.72"/>
              <path clip-path="url(#SVGID_4_)" fill="none" stroke="#082765" stroke-width="1.5" stroke-linecap="round" stroke-linejoin="round" stroke-miterlimit="10" d="M154.84 248.02l-30.955 71.722"/>
              <path clip-path="url(#SVGID_4_)" fill="none" stroke="#082765" stroke-width="1.5" stroke-linecap="round" stroke-linejoin="round" stroke-miterlimit="10" d="M158.093 250.422l-30.953 71.723"/>
              <path clip-path="url(#SVGID_4_)" fill="none" stroke="#082765" stroke-width="1.5" stroke-linecap="round" stroke-linejoin="round" stroke-miterlimit="10" d="M161.347 252.824l-30.953 71.72"/>
              <path clip-path="url(#SVGID_4_)" fill="none" stroke="#082765" stroke-width="1.5" stroke-linecap="round" stroke-linejoin="round" stroke-miterlimit="10" d="M164.6 255.227l-30.954 71.72"/>
              <path clip-path="url(#SVGID_4_)" fill="none" stroke="#082765" stroke-width="1.5" stroke-linecap="round" stroke-linejoin="round" stroke-miterlimit="10" d="M167.854 257.63L136.9 329.35"/>
              <path clip-path="url(#SVGID_4_)" fill="none" stroke="#082765" stroke-width="1.5" stroke-linecap="round" stroke-linejoin="round" stroke-miterlimit="10" d="M171.108 260.03l-30.954 71.722"/>
              <path clip-path="url(#SVGID_4_)" fill="none" stroke="#082765" stroke-width="1.5" stroke-linecap="round" stroke-linejoin="round" stroke-miterlimit="10" d="M174.362 262.434l-30.954 71.72"/>
              <path clip-path="url(#SVGID_4_)" fill="none" stroke="#082765" stroke-width="1.5" stroke-linecap="round" stroke-linejoin="round" stroke-miterlimit="10" d="M177.616 264.834l-30.953 71.723"/>
              <path clip-path="url(#SVGID_4_)" fill="none" stroke="#082765" stroke-width="1.5" stroke-linecap="round" stroke-linejoin="round" stroke-miterlimit="10" d="M180.87 267.236l-30.954 71.72"/>
              <path clip-path="url(#SVGID_4_)" fill="none" stroke="#082765" stroke-width="1.5" stroke-linecap="round" stroke-linejoin="round" stroke-miterlimit="10" d="M184.124 269.64l-30.954 71.72"/>
              <path clip-path="url(#SVGID_4_)" fill="none" stroke="#082765" stroke-width="1.5" stroke-linecap="round" stroke-linejoin="round" stroke-miterlimit="10" d="M187.377 272.04l-30.953 71.722"/>
              <path clip-path="url(#SVGID_4_)" fill="none" stroke="#082765" stroke-width="1.5" stroke-linecap="round" stroke-linejoin="round" stroke-miterlimit="10" d="M190.63 274.443l-30.953 71.72"/>
              <path clip-path="url(#SVGID_4_)" fill="none" stroke="#082765" stroke-width="1.5" stroke-linecap="round" stroke-linejoin="round" stroke-miterlimit="10" d="M193.885 276.846l-30.953 71.72"/>
              <path clip-path="url(#SVGID_4_)" fill="none" stroke="#082765" stroke-width="1.5" stroke-linecap="round" stroke-linejoin="round" stroke-miterlimit="10" d="M197.14 279.246l-30.954 71.723"/>
            </g>
          </g>
        </g>
        <path fill="none" stroke="#082765" stroke-width="2" stroke-linecap="round" stroke-linejoin="round" stroke-miterlimit="10" d="M240.5 313.127c0 .553-.448 1-1 1h-47c-.552 0-1-.447-1-1v-31c0-.55.448-1 1-1h47c.552 0 1 .45 1 1v31z"/>
        <g opacity=".3">
          <g>
            <g>
              <defs>
                <path id="SVGID_5_" d="M191.5 281.127h49v33h-49z"/>
              </defs>
              <clipPath id="SVGID_6_">
                <use xlink:href="#SVGID_5_" overflow="visible"/>
              </clipPath>
              <path clip-path="url(#SVGID_6_)" fill="none" stroke="#082765" stroke-width="1.5" stroke-linecap="round" stroke-linejoin="round" stroke-miterlimit="10" d="M204.982 238.412l-30.954 71.72"/>
              <path clip-path="url(#SVGID_6_)" fill="none" stroke="#082765" stroke-width="1.5" stroke-linecap="round" stroke-linejoin="round" stroke-miterlimit="10" d="M208.236 240.814l-30.954 71.72"/>
              <path clip-path="url(#SVGID_6_)" fill="none" stroke="#082765" stroke-width="1.5" stroke-linecap="round" stroke-linejoin="round" stroke-miterlimit="10" d="M211.49 243.217l-30.953 71.72"/>
              <path clip-path="url(#SVGID_6_)" fill="none" stroke="#082765" stroke-width="1.5" stroke-linecap="round" stroke-linejoin="round" stroke-miterlimit="10" d="M214.744 245.62l-30.954 71.72"/>
              <path clip-path="url(#SVGID_6_)" fill="none" stroke="#082765" stroke-width="1.5" stroke-linecap="round" stroke-linejoin="round" stroke-miterlimit="10" d="M217.998 248.02l-30.953 71.722"/>
              <path clip-path="url(#SVGID_6_)" fill="none" stroke="#082765" stroke-width="1.5" stroke-linecap="round" stroke-linejoin="round" stroke-miterlimit="10" d="M221.25 250.422l-30.95 71.723"/>
              <path clip-path="url(#SVGID_6_)" fill="none" stroke="#082765" stroke-width="1.5" stroke-linecap="round" stroke-linejoin="round" stroke-miterlimit="10" d="M224.505 252.824l-30.954 71.72"/>
              <path clip-path="url(#SVGID_6_)" fill="none" stroke="#082765" stroke-width="1.5" stroke-linecap="round" stroke-linejoin="round" stroke-miterlimit="10" d="M227.76 255.227l-30.954 71.72"/>
              <path clip-path="url(#SVGID_6_)" fill="none" stroke="#082765" stroke-width="1.5" stroke-linecap="round" stroke-linejoin="round" stroke-miterlimit="10" d="M231.013 257.63l-30.953 71.72"/>
              <path clip-path="url(#SVGID_6_)" fill="none" stroke="#082765" stroke-width="1.5" stroke-linecap="round" stroke-linejoin="round" stroke-miterlimit="10" d="M234.267 260.03l-30.954 71.722"/>
              <path clip-path="url(#SVGID_6_)" fill="none" stroke="#082765" stroke-width="1.5" stroke-linecap="round" stroke-linejoin="round" stroke-miterlimit="10" d="M237.52 262.434l-30.952 71.72"/>
              <path clip-path="url(#SVGID_6_)" fill="none" stroke="#082765" stroke-width="1.5" stroke-linecap="round" stroke-linejoin="round" stroke-miterlimit="10" d="M240.774 264.834l-30.953 71.723"/>
              <path clip-path="url(#SVGID_6_)" fill="none" stroke="#082765" stroke-width="1.5" stroke-linecap="round" stroke-linejoin="round" stroke-miterlimit="10" d="M244.028 267.236l-30.954 71.72"/>
              <path clip-path="url(#SVGID_6_)" fill="none" stroke="#082765" stroke-width="1.5" stroke-linecap="round" stroke-linejoin="round" stroke-miterlimit="10" d="M247.282 269.64l-30.953 71.72"/>
              <path clip-path="url(#SVGID_6_)" fill="none" stroke="#082765" stroke-width="1.5" stroke-linecap="round" stroke-linejoin="round" stroke-miterlimit="10" d="M250.536 272.04l-30.953 71.722"/>
              <path clip-path="url(#SVGID_6_)" fill="none" stroke="#082765" stroke-width="1.5" stroke-linecap="round" stroke-linejoin="round" stroke-miterlimit="10" d="M253.79 274.443l-30.955 71.72"/>
              <path clip-path="url(#SVGID_6_)" fill="none" stroke="#082765" stroke-width="1.5" stroke-linecap="round" stroke-linejoin="round" stroke-miterlimit="10" d="M257.043 276.846l-30.953 71.72"/>
              <path clip-path="url(#SVGID_6_)" fill="none" stroke="#082765" stroke-width="1.5" stroke-linecap="round" stroke-linejoin="round" stroke-miterlimit="10" d="M260.297 279.246l-30.953 71.723"/>
            </g>
          </g>
        </g>
        <path fill="none" stroke="#082765" stroke-width="2" stroke-linecap="round" stroke-linejoin="round" stroke-miterlimit="10" d="M303.5 313.127c0 .553-.448 1-1 1h-47c-.552 0-1-.447-1-1v-31c0-.55.448-1 1-1h47c.552 0 1 .45 1 1v31z"/>
        <g opacity=".3">
          <g>
            <g>
              <defs>
                <path id="SVGID_7_" d="M254.5 281.127h49v33h-49z"/>
              </defs>
              <clipPath id="SVGID_8_">
                <use xlink:href="#SVGID_7_" overflow="visible"/>
              </clipPath>
              <path clip-path="url(#SVGID_8_)" fill="none" stroke="#082765" stroke-width="1.5" stroke-linecap="round" stroke-linejoin="round" stroke-miterlimit="10" d="M268.14 238.412l-30.952 71.72"/>
              <path clip-path="url(#SVGID_8_)" fill="none" stroke="#082765" stroke-width="1.5" stroke-linecap="round" stroke-linejoin="round" stroke-miterlimit="10" d="M271.395 240.814l-30.953 71.72"/>
              <path clip-path="url(#SVGID_8_)" fill="none" stroke="#082765" stroke-width="1.5" stroke-linecap="round" stroke-linejoin="round" stroke-miterlimit="10" d="M274.648 243.217l-30.952 71.72"/>
              <path clip-path="url(#SVGID_8_)" fill="none" stroke="#082765" stroke-width="1.5" stroke-linecap="round" stroke-linejoin="round" stroke-miterlimit="10" d="M277.902 245.62l-30.953 71.72"/>
              <path clip-path="url(#SVGID_8_)" fill="none" stroke="#082765" stroke-width="1.5" stroke-linecap="round" stroke-linejoin="round" stroke-miterlimit="10" d="M281.156 248.02l-30.953 71.722"/>
              <path clip-path="url(#SVGID_8_)" fill="none" stroke="#082765" stroke-width="1.5" stroke-linecap="round" stroke-linejoin="round" stroke-miterlimit="10" d="M284.41 250.422l-30.953 71.723"/>
              <path clip-path="url(#SVGID_8_)" fill="none" stroke="#082765" stroke-width="1.5" stroke-linecap="round" stroke-linejoin="round" stroke-miterlimit="10" d="M287.664 252.824l-30.954 71.72"/>
              <path clip-path="url(#SVGID_8_)" fill="none" stroke="#082765" stroke-width="1.5" stroke-linecap="round" stroke-linejoin="round" stroke-miterlimit="10" d="M290.918 255.227l-30.953 71.72"/>
              <path clip-path="url(#SVGID_8_)" fill="none" stroke="#082765" stroke-width="1.5" stroke-linecap="round" stroke-linejoin="round" stroke-miterlimit="10" d="M294.172 257.63l-30.953 71.72"/>
              <path clip-path="url(#SVGID_8_)" fill="none" stroke="#082765" stroke-width="1.5" stroke-linecap="round" stroke-linejoin="round" stroke-miterlimit="10" d="M297.426 260.03l-30.954 71.722"/>
              <path clip-path="url(#SVGID_8_)" fill="none" stroke="#082765" stroke-width="1.5" stroke-linecap="round" stroke-linejoin="round" stroke-miterlimit="10" d="M300.68 262.434l-30.953 71.72"/>
              <path clip-path="url(#SVGID_8_)" fill="none" stroke="#082765" stroke-width="1.5" stroke-linecap="round" stroke-linejoin="round" stroke-miterlimit="10" d="M303.934 264.834l-30.954 71.723"/>
              <path clip-path="url(#SVGID_8_)" fill="none" stroke="#082765" stroke-width="1.5" stroke-linecap="round" stroke-linejoin="round" stroke-miterlimit="10" d="M307.188 267.236l-30.956 71.72"/>
              <path clip-path="url(#SVGID_8_)" fill="none" stroke="#082765" stroke-width="1.5" stroke-linecap="round" stroke-linejoin="round" stroke-miterlimit="10" d="M310.44 269.64l-30.952 71.72"/>
              <path clip-path="url(#SVGID_8_)" fill="none" stroke="#082765" stroke-width="1.5" stroke-linecap="round" stroke-linejoin="round" stroke-miterlimit="10" d="M313.694 272.04l-30.954 71.722"/>
              <path clip-path="url(#SVGID_8_)" fill="none" stroke="#082765" stroke-width="1.5" stroke-linecap="round" stroke-linejoin="round" stroke-miterlimit="10" d="M316.948 274.443l-30.954 71.72"/>
              <path clip-path="url(#SVGID_8_)" fill="none" stroke="#082765" stroke-width="1.5" stroke-linecap="round" stroke-linejoin="round" stroke-miterlimit="10" d="M320.202 276.846l-30.953 71.72"/>
              <path clip-path="url(#SVGID_8_)" fill="none" stroke="#082765" stroke-width="1.5" stroke-linecap="round" stroke-linejoin="round" stroke-miterlimit="10" d="M323.456 279.246l-30.954 71.723"/>
            </g>
          </g>
        </g>
        <path fill="none" stroke="#082765" stroke-width="2" stroke-linecap="round" stroke-linejoin="round" stroke-miterlimit="10" d="M366.5 313.127c0 .553-.448 1-1 1h-47c-.552 0-1-.447-1-1v-31c0-.55.448-1 1-1h47c.552 0 1 .45 1 1v31z"/>
        <g opacity=".3">
          <g>
            <g>
              <defs>
                <path id="SVGID_9_" d="M317.5 281.127h49v33h-49z"/>
              </defs>
              <clipPath id="SVGID_10_">
                <use xlink:href="#SVGID_9_" overflow="visible"/>
              </clipPath>
              <path clip-path="url(#SVGID_10_)" fill="none" stroke="#082765" stroke-width="1.5" stroke-linecap="round" stroke-linejoin="round" stroke-miterlimit="10" d="M331.3 238.412l-30.954 71.72"/>
              <path clip-path="url(#SVGID_10_)" fill="none" stroke="#082765" stroke-width="1.5" stroke-linecap="round" stroke-linejoin="round" stroke-miterlimit="10" d="M334.554 240.814l-30.953 71.72"/>
              <path clip-path="url(#SVGID_10_)" fill="none" stroke="#082765" stroke-width="1.5" stroke-linecap="round" stroke-linejoin="round" stroke-miterlimit="10" d="M337.808 243.217l-30.954 71.72"/>
              <path clip-path="url(#SVGID_10_)" fill="none" stroke="#082765" stroke-width="1.5" stroke-linecap="round" stroke-linejoin="round" stroke-miterlimit="10" d="M341.062 245.62l-30.955 71.72"/>
              <path clip-path="url(#SVGID_10_)" fill="none" stroke="#082765" stroke-width="1.5" stroke-linecap="round" stroke-linejoin="round" stroke-miterlimit="10" d="M344.315 248.02l-30.953 71.722"/>
              <path clip-path="url(#SVGID_10_)" fill="none" stroke="#082765" stroke-width="1.5" stroke-linecap="round" stroke-linejoin="round" stroke-miterlimit="10" d="M347.57 250.422l-30.955 71.723"/>
              <path clip-path="url(#SVGID_10_)" fill="none" stroke="#082765" stroke-width="1.5" stroke-linecap="round" stroke-linejoin="round" stroke-miterlimit="10" d="M350.823 252.824l-30.954 71.72"/>
              <path clip-path="url(#SVGID_10_)" fill="none" stroke="#082765" stroke-width="1.5" stroke-linecap="round" stroke-linejoin="round" stroke-miterlimit="10" d="M354.077 255.227l-30.954 71.72"/>
              <path clip-path="url(#SVGID_10_)" fill="none" stroke="#082765" stroke-width="1.5" stroke-linecap="round" stroke-linejoin="round" stroke-miterlimit="10" d="M357.33 257.63l-30.953 71.72"/>
              <path clip-path="url(#SVGID_10_)" fill="none" stroke="#082765" stroke-width="1.5" stroke-linecap="round" stroke-linejoin="round" stroke-miterlimit="10" d="M360.584 260.03l-30.953 71.722"/>
              <path clip-path="url(#SVGID_10_)" fill="none" stroke="#082765" stroke-width="1.5" stroke-linecap="round" stroke-linejoin="round" stroke-miterlimit="10" d="M363.838 262.434l-30.953 71.72"/>
              <path clip-path="url(#SVGID_10_)" fill="none" stroke="#082765" stroke-width="1.5" stroke-linecap="round" stroke-linejoin="round" stroke-miterlimit="10" d="M367.092 264.834l-30.954 71.723"/>
              <path clip-path="url(#SVGID_10_)" fill="none" stroke="#082765" stroke-width="1.5" stroke-linecap="round" stroke-linejoin="round" stroke-miterlimit="10" d="M370.346 267.236l-30.953 71.72"/>
              <path clip-path="url(#SVGID_10_)" fill="none" stroke="#082765" stroke-width="1.5" stroke-linecap="round" stroke-linejoin="round" stroke-miterlimit="10" d="M373.6 269.64l-30.954 71.72"/>
              <path clip-path="url(#SVGID_10_)" fill="none" stroke="#082765" stroke-width="1.5" stroke-linecap="round" stroke-linejoin="round" stroke-miterlimit="10" d="M376.853 272.04L345.9 343.763"/>
              <path clip-path="url(#SVGID_10_)" fill="none" stroke="#082765" stroke-width="1.5" stroke-linecap="round" stroke-linejoin="round" stroke-miterlimit="10" d="M380.106 274.443l-30.953 71.72"/>
              <path clip-path="url(#SVGID_10_)" fill="none" stroke="#082765" stroke-width="1.5" stroke-linecap="round" stroke-linejoin="round" stroke-miterlimit="10" d="M383.36 276.846l-30.953 71.72"/>
              <path clip-path="url(#SVGID_10_)" fill="none" stroke="#082765" stroke-width="1.5" stroke-linecap="round" stroke-linejoin="round" stroke-miterlimit="10" d="M386.614 279.246L355.66 350.97"/>
            </g>
          </g>
        </g>
        <path fill="none" stroke="#082765" stroke-width="2" stroke-miterlimit="10" d="M97.167 179.878L85.472 192.21l11.695 11"/>
        <path fill="none" stroke="#082765" stroke-width="2" stroke-miterlimit="10" d="M395.472 203.212l11.695-12.334-11.695-11"/>
      </g>
      <g id="circles">
        <path fill="#005BFD" d="M36.823 68.647c0 2.97-2.406 5.375-5.375 5.375-2.97 0-5.375-2.406-5.375-5.375 0-2.97 2.406-5.375 5.375-5.375 2.97 0 5.375 2.406 5.375 5.375"/>
        <circle fill="none" stroke="#1490E7" stroke-width="1.5" stroke-linecap="round" stroke-linejoin="round" stroke-miterlimit="10" cx="31.448" cy="68.647" r="5.375"/>
        <path fill="#00133E" d="M56.834 68.647c0 2.97-2.406 5.375-5.375 5.375-2.97 0-5.376-2.406-5.376-5.375 0-2.97 2.406-5.375 5.375-5.375 2.97 0 5.374 2.406 5.374 5.375"/>
        <circle fill="none" stroke="#285FAF" stroke-width="1.5" stroke-linecap="round" stroke-linejoin="round" stroke-miterlimit="10" cx="51.459" cy="68.647" r="5.375"/>
        <path fill="#00133E" d="M76.847 68.647c0 2.97-2.406 5.375-5.375 5.375-2.97 0-5.375-2.406-5.375-5.375 0-2.97 2.406-5.375 5.375-5.375 2.968 0 5.375 2.406 5.375 5.375"/>
        <circle fill="none" stroke="#285FAF" stroke-width="1.5" stroke-linecap="round" stroke-linejoin="round" stroke-miterlimit="10" cx="71.472" cy="68.647" r="5.375"/>
      </g>
    </g>
  </g>
</svg>
