<?xml version="1.0" encoding="utf-8"?>
<!-- Generator: Adobe Illustrator 19.0.1, SVG Export Plug-In . SVG Version: 6.00 Build 0)  -->
<svg version="1.1" id="Шар_1" xmlns="http://www.w3.org/2000/svg" xmlns:xlink="http://www.w3.org/1999/xlink" x="0px" y="0px"
	 viewBox="0 0 29 51.3" style="enable-background:new 0 0 29 51.3;" xml:space="preserve">
<style type="text/css">
	.st0{fill:#005BFE;stroke:#FFFFFF;stroke-width:2;stroke-miterlimit:10;}
	.st1{fill:none;stroke:#FFFFFF;stroke-width:2;stroke-miterlimit:10;}
	.st2{opacity:0.3;fill:none;stroke:#FFFFFF;stroke-width:2;stroke-linecap:round;stroke-miterlimit:10;}
	.st3{fill:#FFFFFF;}
</style>
<path class="st0" d="M27,49.1c0,0.6-0.4,0.9-0.9,0.9H3c-0.5,0-1-0.3-1-0.9V12V3.4C2,2.8,2.5,2,3,2h23.1C26.6,2,27,2.8,27,3.4V49.1z"
	/>
<line class="st1" x1="27" y1="10" x2="2" y2="10"/>
<line class="st2" x1="20" y1="17" x2="9" y2="17"/>
<line class="st2" x1="20" y1="21" x2="9" y2="21"/>
<line class="st2" x1="20" y1="25" x2="9" y2="25"/>
<line class="st2" x1="20" y1="29" x2="9" y2="29"/>
<line class="st2" x1="20" y1="33" x2="9" y2="33"/>
<line class="st1" x1="27" y1="41" x2="2" y2="41"/>
<circle class="st3" cx="14.5" cy="45.7" r="1.6"/>
</svg>
