<?xml version="1.0" encoding="utf-8"?>
<!-- Generator: Adobe Illustrator 19.0.1, SVG Export Plug-In . SVG Version: 6.00 Build 0)  -->
<svg version="1.1" id="Шар_1" xmlns="http://www.w3.org/2000/svg" xmlns:xlink="http://www.w3.org/1999/xlink" x="0px" y="0px"
	 viewBox="0 0 52.7 58.3" style="enable-background:new 0 0 52.7 58.3;" xml:space="preserve">
<style type="text/css">
	.st0{fill:#005BFE;stroke:#FFFFFF;stroke-width:2;stroke-miterlimit:10;}
	.st1{opacity:0.3;fill:none;stroke:#FFFFFF;stroke-width:2;stroke-linecap:round;stroke-linejoin:round;stroke-miterlimit:10;}
	.st2{fill:none;stroke:#FFFFFF;stroke-width:2;stroke-linecap:round;stroke-linejoin:round;stroke-miterlimit:10;}
</style>
<path class="st0" d="M35.6,33.4c0,0.5-0.5,0.9-1,0.9H13.2c-0.6,0-1-0.4-1-0.9l-6.3-19c0-0.5,0.5-0.9,1-0.9h33.8c0.6,0,1,0.4,1,0.9
	L35.6,33.4z"/>
<circle class="st0" cx="15.7" cy="49.9" r="3.9"/>
<circle class="st0" cx="33.7" cy="49.9" r="3.9"/>
<line class="st1" x1="28.8" y1="21.3" x2="18.8" y2="21.3"/>
<line class="st1" x1="28.8" y1="26.3" x2="18.8" y2="26.3"/>
<polyline class="st2" points="41.2,16.3 45.8,4.3 49.8,4.3 "/>
<path class="st2" d="M35.8,32.8C35,35.9,34.5,39,29.8,39h-17"/>
</svg>
