<svg id="Слой_1" xmlns="http://www.w3.org/2000/svg" xmlns:xlink="http://www.w3.org/1999/xlink" width="438" height="460" viewBox="0 0 438 460">
  <g id="serv_x5F_img_x5F_1">
    <g id="page3">
      <path fill="#00133E" d="M405.5 413.635c0 1.858-1.506 3.364-3.365 3.364H35.865c-1.857 0-3.364-1.507-3.364-3.365V6.365C32.5 4.505 34.008 3 35.867 3h366.27c1.858 0 3.364 1.507 3.364 3.366v407.27z"/>
      <path fill="none" stroke="#082765" stroke-width="2" stroke-linecap="round" stroke-linejoin="round" stroke-miterlimit="10" d="M405.5 413.635c0 1.858-1.506 3.364-3.365 3.364H35.865c-1.857 0-3.364-1.507-3.364-3.365V6.365C32.5 4.505 34.008 3 35.867 3h366.27c1.858 0 3.364 1.507 3.364 3.366v407.27z"/>
    </g>
    <g id="page2">
      <path fill="#00133E" d="M421.5 433.635c0 1.858-1.506 3.364-3.365 3.364H19.865c-1.857 0-3.364-1.507-3.364-3.365V26.365c0-1.86 1.508-3.366 3.366-3.366h398.27c1.858 0 3.364 1.506 3.364 3.365v407.27z"/>
      <path fill="none" stroke="#143C81" stroke-width="2" stroke-linecap="round" stroke-linejoin="round" stroke-miterlimit="10" d="M421.5 433.635c0 1.858-1.506 3.364-3.365 3.364H19.865c-1.857 0-3.364-1.507-3.364-3.365V26.365c0-1.86 1.508-3.366 3.366-3.366h398.27c1.858 0 3.364 1.506 3.364 3.365v407.27z"/>
    </g>
    <g id="page1">
      <g id="bg">
        <path fill="#00133E" d="M432.135 457H5.865c-1.858 0-3.365-1.507-3.365-3.365V46.365C2.5 44.507 4.007 43 5.866 43h426.27c1.858 0 3.364 1.507 3.364 3.365v407.27c0 1.858-1.506 3.365-3.365 3.365"/>
      </g>
      <g id="bg-border">
        <path fill="none" stroke="#285FAF" stroke-width="2" stroke-linecap="round" stroke-linejoin="round" stroke-miterlimit="10" d="M432.135 457H5.865c-1.858 0-3.365-1.507-3.365-3.365V46.365C2.5 44.507 4.007 43 5.866 43h426.27c1.858 0 3.364 1.507 3.364 3.365v407.27c0 1.858-1.506 3.365-3.365 3.365z"/>
      </g>
      <g id="lines">
        <path fill="none" stroke="#005BFD" stroke-miterlimit="10" d="M388 263.5c0 .552-.447 1-1 1h-91c-.55 0-1-.448-1-1v-23c0-.552.45-1 1-1h91c.553 0 1 .448 1 1v23z"/>
        <path fill="none" stroke="#082765" stroke-width="2" stroke-linecap="round" stroke-linejoin="round" stroke-miterlimit="10" d="M350.5 400h60"/>
        <path fill="none" stroke="#082765" stroke-width="2" stroke-linecap="round" stroke-linejoin="round" stroke-miterlimit="10" d="M241.5 400h83"/>
        <path fill="none" stroke="#082765" stroke-width="2" stroke-linecap="round" stroke-linejoin="round" stroke-miterlimit="10" d="M122.5 400h101"/>
        <path fill="none" stroke="#082765" stroke-width="2" stroke-linecap="round" stroke-linejoin="round" stroke-miterlimit="10" d="M29.5 400h66"/>
        <path fill="none" stroke="#082765" stroke-width="2" stroke-linecap="round" stroke-linejoin="round" stroke-miterlimit="10" d="M29.5 380h129"/>
        <path fill="none" stroke="#082765" stroke-width="2" stroke-linecap="round" stroke-linejoin="round" stroke-miterlimit="10" d="M189.5 380h61"/>
        <path fill="none" stroke="#082765" stroke-width="2" stroke-linecap="round" stroke-linejoin="round" stroke-miterlimit="10" d="M282.5 380h128"/>
        <path fill="none" stroke="#082765" stroke-width="2" stroke-linecap="round" stroke-linejoin="round" stroke-miterlimit="10" d="M29.5 420h129"/>
        <path fill="none" stroke="#082765" stroke-width="2" stroke-linecap="round" stroke-linejoin="round" stroke-miterlimit="10" d="M189.5 420h61"/>
        <path fill="none" stroke="#082765" stroke-width="2" stroke-linecap="round" stroke-linejoin="round" stroke-miterlimit="10" d="M282.5 420h128"/>
        <path fill="none" stroke="#082765" stroke-width="2" stroke-linecap="round" stroke-linejoin="round" stroke-miterlimit="10" d="M29.5 360h95"/>
        <path fill="none" stroke="#082765" stroke-width="2" stroke-linecap="round" stroke-linejoin="round" stroke-miterlimit="10" d="M142.5 360h99"/>
        <path fill="none" stroke="#082765" stroke-width="2" stroke-linecap="round" stroke-linejoin="round" stroke-miterlimit="10" d="M259.5 360h151"/>
        <path fill="none" stroke="#082765" stroke-width="2" stroke-linecap="round" stroke-linejoin="round" stroke-miterlimit="10" d="M235.5 340h175"/>
        <path fill="none" stroke="#082765" stroke-width="2" stroke-linecap="round" stroke-linejoin="round" stroke-miterlimit="10" d="M177.5 340h39"/>
        <path fill="none" stroke="#082765" stroke-width="2" stroke-linecap="round" stroke-linejoin="round" stroke-miterlimit="10" d="M82.5 340h64"/>
        <path fill="none" stroke="#082765" stroke-width="2" stroke-linecap="round" stroke-linejoin="round" stroke-miterlimit="10" d="M29.5 340h31"/>
        <path fill="none" stroke="#082765" stroke-width="2" stroke-linecap="round" stroke-linejoin="round" stroke-miterlimit="10" d="M29.5 320h268"/>
        <path fill="none" stroke="#082765" stroke-width="2" stroke-linecap="round" stroke-linejoin="round" stroke-miterlimit="10" d="M322.5 320h88"/>
        <path fill="none" stroke="#082765" stroke-width="2" stroke-linecap="round" stroke-linejoin="round" stroke-miterlimit="10" d="M241.5 278c0 .552-.447 1-1 1h-210c-.552 0-1-.448-1-1V127c0-.552.448-1 1-1h210c.553 0 1 .448 1 1v151z"/>
        <path fill="none" stroke="#082765" stroke-width="2" stroke-linecap="round" stroke-linejoin="round" stroke-miterlimit="10" d="M410.5 278c0 .552-.447 1-1 1h-137c-.55 0-1-.448-1-1V127c0-.552.45-1 1-1h137c.553 0 1 .448 1 1v151z"/>
        <path fill="none" stroke="#082765" stroke-width="2" stroke-miterlimit="10" d="M3.5 94h431"/>
        <g opacity=".3">
          <g>
            <g>
              <defs>
                <path id="SVGID_1_" d="M29.5 126h212v153h-212z"/>
              </defs>
              <clipPath id="SVGID_2_">
                <use xlink:href="#SVGID_1_" overflow="visible"/>
              </clipPath>
              <path clip-path="url(#SVGID_2_)" fill="none" stroke="#082765" stroke-width="1.5" stroke-linecap="round" stroke-linejoin="round" stroke-miterlimit="10" d="M88.03-68.965L-46.252 258.4"/>
              <path clip-path="url(#SVGID_2_)" fill="none" stroke="#082765" stroke-width="1.5" stroke-linecap="round" stroke-linejoin="round" stroke-miterlimit="10" d="M102.146-58L-32.136 269.365"/>
              <path clip-path="url(#SVGID_2_)" fill="none" stroke="#082765" stroke-width="1.5" stroke-linecap="round" stroke-linejoin="round" stroke-miterlimit="10" d="M116.26-47.037L-18.02 280.33"/>
              <path clip-path="url(#SVGID_2_)" fill="none" stroke="#082765" stroke-width="1.5" stroke-linecap="round" stroke-linejoin="round" stroke-miterlimit="10" d="M130.377-36.073L-3.905 291.293"/>
              <path clip-path="url(#SVGID_2_)" fill="none" stroke="#082765" stroke-width="1.5" stroke-linecap="round" stroke-linejoin="round" stroke-miterlimit="10" d="M144.493-25.11L10.21 302.258"/>
              <path clip-path="url(#SVGID_2_)" fill="none" stroke="#082765" stroke-width="1.5" stroke-linecap="round" stroke-linejoin="round" stroke-miterlimit="10" d="M158.608-14.145L24.326 313.222"/>
              <path clip-path="url(#SVGID_2_)" fill="none" stroke="#082765" stroke-width="1.5" stroke-linecap="round" stroke-linejoin="round" stroke-miterlimit="10" d="M172.724-3.18L38.442 324.185"/>
              <path clip-path="url(#SVGID_2_)" fill="none" stroke="#082765" stroke-width="1.5" stroke-linecap="round" stroke-linejoin="round" stroke-miterlimit="10" d="M186.84 7.783L52.556 335.15"/>
              <path clip-path="url(#SVGID_2_)" fill="none" stroke="#082765" stroke-width="1.5" stroke-linecap="round" stroke-linejoin="round" stroke-miterlimit="10" d="M200.955 18.747L66.673 346.113"/>
              <path clip-path="url(#SVGID_2_)" fill="none" stroke="#082765" stroke-width="1.5" stroke-linecap="round" stroke-linejoin="round" stroke-miterlimit="10" d="M215.07 29.71L80.79 357.078"/>
              <path clip-path="url(#SVGID_2_)" fill="none" stroke="#082765" stroke-width="1.5" stroke-linecap="round" stroke-linejoin="round" stroke-miterlimit="10" d="M229.186 40.675L94.904 368.04"/>
              <path clip-path="url(#SVGID_2_)" fill="none" stroke="#082765" stroke-width="1.5" stroke-linecap="round" stroke-linejoin="round" stroke-miterlimit="10" d="M243.303 51.64L109.02 379.004"/>
              <path clip-path="url(#SVGID_2_)" fill="none" stroke="#082765" stroke-width="1.5" stroke-linecap="round" stroke-linejoin="round" stroke-miterlimit="10" d="M257.418 62.603L123.135 389.97"/>
              <path clip-path="url(#SVGID_2_)" fill="none" stroke="#082765" stroke-width="1.5" stroke-linecap="round" stroke-linejoin="round" stroke-miterlimit="10" d="M271.533 73.567L137.25 400.933"/>
              <path clip-path="url(#SVGID_2_)" fill="none" stroke="#082765" stroke-width="1.5" stroke-linecap="round" stroke-linejoin="round" stroke-miterlimit="10" d="M285.648 84.53l-134.28 327.367"/>
              <path clip-path="url(#SVGID_2_)" fill="none" stroke="#082765" stroke-width="1.5" stroke-linecap="round" stroke-linejoin="round" stroke-miterlimit="10" d="M299.764 95.495L165.482 422.86"/>
              <path clip-path="url(#SVGID_2_)" fill="none" stroke="#082765" stroke-width="1.5" stroke-linecap="round" stroke-linejoin="round" stroke-miterlimit="10" d="M313.88 106.46L179.6 433.824"/>
              <path clip-path="url(#SVGID_2_)" fill="none" stroke="#082765" stroke-width="1.5" stroke-linecap="round" stroke-linejoin="round" stroke-miterlimit="10" d="M327.996 117.423L193.713 444.79"/>
            </g>
          </g>
        </g>
        <path fill="none" stroke="#082765" stroke-width="2" stroke-linecap="round" stroke-linejoin="round" stroke-miterlimit="10" d="M293.5 155h94"/>
        <path fill="none" stroke="#082765" stroke-width="2" stroke-linecap="round" stroke-linejoin="round" stroke-miterlimit="10" d="M293.5 185h94"/>
        <path fill="none" stroke="#082765" stroke-width="2" stroke-linecap="round" stroke-linejoin="round" stroke-miterlimit="10" d="M293.5 215h94"/>
      </g>
      <g id="circles">
        <path fill="#005BFD" d="M34.823 68.52c0 2.97-2.406 5.375-5.375 5.375-2.97 0-5.375-2.406-5.375-5.375 0-2.97 2.406-5.375 5.375-5.375 2.97 0 5.375 2.406 5.375 5.375"/>
        <circle fill="none" stroke="#1490E7" stroke-width="1.5" stroke-linecap="round" stroke-linejoin="round" stroke-miterlimit="10" cx="29.448" cy="68.52" r="5.375"/>
        <path fill="#00133E" d="M54.835 68.52c0 2.97-2.406 5.375-5.375 5.375s-5.375-2.406-5.375-5.375c0-2.97 2.406-5.375 5.375-5.375s5.375 2.406 5.375 5.375"/>
        <circle fill="none" stroke="#285FAF" stroke-width="1.5" stroke-linecap="round" stroke-linejoin="round" stroke-miterlimit="10" cx="49.46" cy="68.52" r="5.375"/>
        <path fill="#00133E" d="M74.847 68.52c0 2.97-2.406 5.375-5.375 5.375-2.97 0-5.375-2.406-5.375-5.375 0-2.97 2.406-5.375 5.375-5.375 2.97 0 5.375 2.406 5.375 5.375"/>
        <circle fill="none" stroke="#285FAF" stroke-width="1.5" stroke-linecap="round" stroke-linejoin="round" stroke-miterlimit="10" cx="69.472" cy="68.52" r="5.375"/>
      </g>
    </g>
  </g>
</svg>
