<?xml version="1.0" encoding="utf-8"?>
<!-- Generator: Adobe Illustrator 19.0.1, SVG Export Plug-In . SVG Version: 6.00 Build 0)  -->
<svg version="1.1" id="Шар_1" xmlns="http://www.w3.org/2000/svg" xmlns:xlink="http://www.w3.org/1999/xlink" x="0px" y="0px"
	 viewBox="0 0 52.7 45.8" style="enable-background:new 0 0 52.7 45.8;" xml:space="preserve">
<style type="text/css">
	.st0{fill:#005BFE;stroke:#FFFFFF;stroke-width:2;stroke-miterlimit:10;}
	.st1{opacity:0.3;fill:none;stroke:#FFFFFF;stroke-width:2;stroke-linecap:round;stroke-linejoin:round;stroke-miterlimit:10;}
	.st2{fill:#005BFE;stroke:#FFFFFF;stroke-width:2;stroke-linecap:round;stroke-linejoin:round;stroke-miterlimit:10;}
</style>
<path class="st0" d="M45.8,40.9c0,1.6-1.3,2.9-2.9,2.9H7.8c-1.6,0-2.9-1.3-2.9-2.9V15.8c0-1.6,1.3-2.9,2.9-2.9h35.2
	c1.6,0,2.9,1.3,2.9,2.9V40.9z"/>
<line class="st1" x1="16.8" y1="30.8" x2="16.8" y2="37.8"/>
<line class="st1" x1="24.8" y1="30.8" x2="24.8" y2="37.8"/>
<line class="st1" x1="32.8" y1="30.8" x2="32.8" y2="37.8"/>
<path class="st0" d="M33.8,8.6c0,1.2-1,2.2-2.2,2.2H18.1c-1.2,0-2.2-1-2.2-2.2V4.1c0-1.2,1-2.2,2.2-2.2h13.5c1.2,0,2.2,1,2.2,2.2
	V8.6z"/>
<path class="st2" d="M46.2,24.6H4.6C3.2,24.6,2,23.4,2,22V7.6h47v14.2C49,23.4,47.7,24.6,46.2,24.6z"/>
<circle class="st1" cx="25.5" cy="16.4" r="2.6"/>
</svg>
