<?xml version="1.0" encoding="utf-8"?>
<!-- Generator: Adobe Illustrator 19.0.1, SVG Export Plug-In . SVG Version: 6.00 Build 0)  -->
<svg version="1.1" id="Шар_1" xmlns="http://www.w3.org/2000/svg" xmlns:xlink="http://www.w3.org/1999/xlink" x="0px" y="0px"
	 viewBox="0 0 52.7 58.3" style="enable-background:new 0 0 52.7 58.3;" xml:space="preserve">
<style type="text/css">
	.st0{fill:#005BFE;stroke:#FFFFFF;stroke-width:2;stroke-miterlimit:10;}
	.st1{opacity:0.3;fill:none;stroke:#FFFFFF;stroke-width:2;stroke-linecap:round;stroke-linejoin:round;stroke-miterlimit:10;}
</style>
<path class="st0" d="M34.8,10.1c0,1.2-1,2.2-2.2,2.2H19.1c-1.2,0-2.2-1-2.2-2.2V5.6c0-1.2,1-2.2,2.2-2.2h13.5c1.2,0,2.2,1,2.2,2.2
	V10.1z"/>
<path class="st0" d="M6.4,7.9h39.3c0.6,0,1.1,0.5,1.1,1.1v45.3c0,0.6-0.5,1.1-1.1,1.1H6.4c-0.6,0-1.1-0.5-1.1-1.1V8.9
	C5.4,8.4,5.8,7.9,6.4,7.9z"/>
<circle class="st1" cx="16.5" cy="21.6" r="2.6"/>
<line class="st1" x1="23.8" y1="22.3" x2="36.8" y2="22.3"/>
<circle class="st1" cx="16.5" cy="31.6" r="2.6"/>
<line class="st1" x1="23.8" y1="32.3" x2="36.8" y2="32.3"/>
<circle class="st1" cx="16.5" cy="41.6" r="2.6"/>
<line class="st1" x1="23.8" y1="42.3" x2="36.8" y2="42.3"/>
</svg>
