<?xml version="1.0" encoding="utf-8"?>
<!-- Generator: Adobe Illustrator 19.0.1, SVG Export Plug-In . SVG Version: 6.00 Build 0)  -->
<svg version="1.1" id="Шар_1" xmlns="http://www.w3.org/2000/svg" xmlns:xlink="http://www.w3.org/1999/xlink" x="0px" y="0px"
	 viewBox="0 0 32.7 55.8" style="enable-background:new 0 0 32.7 55.8;" xml:space="preserve">
<style type="text/css">
	.st0{fill:#005BFE;stroke:#FFFFFF;stroke-width:2;stroke-linecap:round;stroke-linejoin:round;stroke-miterlimit:10;}
	.st1{fill:none;stroke:#FFFFFF;stroke-width:2;stroke-linecap:round;stroke-linejoin:round;stroke-miterlimit:10;}
	.st2{opacity:0.3;fill:none;stroke:#FFFFFF;stroke-width:2;stroke-linecap:round;stroke-linejoin:round;stroke-miterlimit:10;}
</style>
<path class="st0" d="M26.2,24.4c0,13-9.7,22.3-9.7,22.3s-9.7-9.3-9.7-22.3s9.7-22.3,9.7-22.3S26.2,11.4,26.2,24.4z"/>
<line class="st1" x1="15.8" y1="38.5" x2="15.8" y2="49.5"/>
<circle class="st2" cx="16.5" cy="18.1" r="4.2"/>
<path class="st0" d="M7.8,34.8c0,0-5,1-5,7.2s0,10.9,0,10.9l9.7-9.6L7.8,34.8z"/>
<path class="st0" d="M24.2,34.8c0,0,4.7,1,4.7,7.2s0,10.9,0,10.9l-9.5-9.6L24.2,34.8z"/>
</svg>
