<?xml version="1.0" encoding="utf-8"?>
<!-- Generator: Adobe Illustrator 15.0.2, SVG Export Plug-In  -->
<!DOCTYPE svg PUBLIC "-//W3C//DTD SVG 1.1//EN" "http://www.w3.org/Graphics/SVG/1.1/DTD/svg11.dtd" [
	<!ENTITY ns_flows "http://ns.adobe.com/Flows/1.0/">
]>
<svg version="1.1"
	 xmlns="http://www.w3.org/2000/svg" xmlns:xlink="http://www.w3.org/1999/xlink" xmlns:a="http://ns.adobe.com/AdobeSVGViewerExtensions/3.0/"
	 x="0px" y="0px" width="34px" height="34px" viewBox="-1 -1 34 34" enable-background="new -1 -1 34 34" xml:space="preserve">
<defs>
</defs>
<path fill="#6476ae" d="M30.663,18.316c0.12-0.756,0.183-1.529,0.183-2.316c0-8.201-6.646-14.847-14.846-14.847
	c-0.788,0-1.563,0.064-2.318,0.182C12.314,0.49,10.701,0,8.972,0C4.017,0,0,4.016,0,8.972c0,1.729,0.489,3.34,1.335,4.712
	C1.218,14.441,1.154,15.21,1.154,16c0,8.199,6.646,14.846,14.844,14.846c0.788,0,1.563-0.061,2.318-0.182
	C19.686,31.509,21.299,32,23.027,32C27.982,32,32,27.982,32,23.027C32,21.299,31.51,19.686,30.663,18.316 M23.049,22.752
	c-0.629,0.904-1.551,1.611-2.758,2.117c-1.208,0.511-2.635,0.765-4.284,0.765c-1.976,0-3.611-0.347-4.903-1.046
	c-0.917-0.5-1.662-1.169-2.233-2.006c-0.575-0.838-0.864-1.657-0.864-2.457c0-0.471,0.18-0.881,0.529-1.215
	c0.354-0.338,0.809-0.506,1.347-0.506c0.441,0,0.818,0.131,1.127,0.396c0.306,0.263,0.562,0.644,0.771,1.147
	c0.251,0.586,0.526,1.073,0.816,1.463c0.288,0.385,0.694,0.705,1.22,0.957c0.521,0.252,1.214,0.377,2.08,0.377
	c1.187,0,2.146-0.254,2.879-0.762c0.737-0.511,1.092-1.132,1.092-1.884c0-0.599-0.192-1.075-0.582-1.444
	c-0.396-0.377-0.905-0.662-1.54-0.861c-0.635-0.203-1.49-0.416-2.559-0.643c-1.436-0.312-2.637-0.677-3.611-1.097
	s-1.75-0.995-2.325-1.722c-0.576-0.733-0.863-1.644-0.863-2.724c0-1.03,0.304-1.952,0.91-2.752c0.608-0.804,1.486-1.42,2.63-1.847
	c1.141-0.429,2.485-0.643,4.025-0.643c1.229,0,2.295,0.141,3.196,0.426c0.897,0.284,1.647,0.661,2.245,1.133
	c0.595,0.473,1.033,0.969,1.31,1.492c0.278,0.522,0.417,1.035,0.417,1.533c0,0.463-0.179,0.885-0.529,1.253
	c-0.351,0.37-0.799,0.557-1.322,0.556c-0.471,0-0.842-0.108-1.098-0.339c-0.25-0.224-0.513-0.578-0.797-1.073
	c-0.359-0.689-0.789-1.227-1.289-1.612c-0.486-0.377-1.29-0.574-2.408-0.572c-1.034,0-1.861,0.212-2.486,0.625
	c-0.628,0.42-0.928,0.907-0.93,1.478c0.002,0.358,0.104,0.659,0.31,0.916c0.211,0.261,0.504,0.486,0.879,0.678
	c0.377,0.192,0.759,0.341,1.142,0.449c0.389,0.11,1.035,0.269,1.931,0.479c1.122,0.244,2.144,0.514,3.06,0.809
	c0.916,0.297,1.695,0.655,2.342,1.08c0.648,0.426,1.157,0.967,1.521,1.622c0.364,0.654,0.545,1.455,0.545,2.396
	C23.992,20.83,23.676,21.849,23.049,22.752"/>
</svg>
