<?xml version="1.0" encoding="utf-8"?>
<!-- Generator: Adobe Illustrator 15.0.2, SVG Export Plug-In  -->
<!DOCTYPE svg PUBLIC "-//W3C//DTD SVG 1.1//EN" "http://www.w3.org/Graphics/SVG/1.1/DTD/svg11.dtd" [
	<!ENTITY ns_flows "http://ns.adobe.com/Flows/1.0/">
]>
<svg version="1.1"
	 xmlns="http://www.w3.org/2000/svg" xmlns:xlink="http://www.w3.org/1999/xlink" xmlns:a="http://ns.adobe.com/AdobeSVGViewerExtensions/3.0/"
	 x="0px" y="0px" width="15px" height="27px" viewBox="-0.95 -0.829 15 27" enable-background="new -0.95 -0.829 15 27"
	 xml:space="preserve">
<defs>
</defs>
<path fill="#005bfe" d="M12.512,0.005L9.393,0C5.89,0,3.626,2.415,3.626,6.153V8.99H0.49C0.22,8.99,0,9.217,0,9.499v4.111
	c0,0.281,0.22,0.509,0.49,0.509h3.136v10.372c0,0.281,0.22,0.509,0.491,0.509h4.089c0.271,0,0.49-0.228,0.49-0.509V14.119h3.666
	c0.271,0,0.49-0.228,0.49-0.509l0.002-4.111c0-0.135-0.053-0.264-0.145-0.36c-0.092-0.096-0.215-0.149-0.346-0.149H8.697V6.585
	c0-1.156,0.266-1.743,1.713-1.743l2.102-0.001C12.783,4.841,13,4.612,13,4.332V0.516C13,0.234,12.783,0.006,12.512,0.005"/>
</svg>
