<?xml version="1.0" encoding="utf-8"?>
<!-- Generator: Adobe Illustrator 15.0.2, SVG Export Plug-In  -->
<!DOCTYPE svg PUBLIC "-//W3C//DTD SVG 1.1//EN" "http://www.w3.org/Graphics/SVG/1.1/DTD/svg11.dtd" [
	<!ENTITY ns_flows "http://ns.adobe.com/Flows/1.0/">
]>
<svg version="1.1"
	 xmlns="http://www.w3.org/2000/svg" xmlns:xlink="http://www.w3.org/1999/xlink" xmlns:a="http://ns.adobe.com/AdobeSVGViewerExtensions/3.0/"
	 x="0px" y="0px" width="34px" height="28px" viewBox="-1.45 -1.475 34 28" enable-background="new -1.45 -1.475 34 28"
	 xml:space="preserve">
<defs>
</defs>
<path fill="#005bfe" d="M32,3.087c-1.259,0.542-2.519,0.88-3.776,1.017c1.42-0.854,2.381-2.059,2.883-3.616
	c-1.301,0.772-2.688,1.299-4.162,1.584C25.644,0.691,24.048,0,22.152,0c-1.813,0-3.36,0.64-4.64,1.92
	c-1.28,1.279-1.918,2.826-1.918,4.64c0,0.488,0.054,0.989,0.162,1.504c-2.681-0.135-5.195-0.81-7.543-2.021
	C5.864,4.83,3.871,3.216,2.233,1.197C1.638,2.213,1.34,3.317,1.34,4.509c0,1.124,0.264,2.167,0.792,3.129
	c0.528,0.96,1.239,1.739,2.132,2.335C3.208,9.933,2.22,9.655,1.3,9.14v0.081c0,1.584,0.497,2.976,1.492,4.175
	c0.995,1.199,2.251,1.954,3.766,2.264c-0.568,0.15-1.144,0.225-1.726,0.225c-0.378,0-0.792-0.034-1.239-0.102
	c0.42,1.314,1.192,2.395,2.315,3.24c1.124,0.846,2.396,1.283,3.817,1.311c-2.381,1.869-5.096,2.804-8.141,2.804
	c-0.582,0-1.11-0.026-1.584-0.082C3.046,25.019,6.403,26,10.071,26c2.328,0,4.514-0.368,6.557-1.106
	c2.045-0.737,3.791-1.726,5.239-2.965c1.448-1.24,2.698-2.665,3.747-4.276s1.83-3.293,2.345-5.049
	c0.515-1.754,0.771-3.511,0.771-5.271c0-0.379-0.006-0.663-0.021-0.853C29.996,5.545,31.093,4.414,32,3.087"/>
</svg>
