<?xml version="1.0" encoding="utf-8"?>
<!-- Generator: Adobe Illustrator 15.0.2, SVG Export Plug-In  -->
<!DOCTYPE svg PUBLIC "-//W3C//DTD SVG 1.1//EN" "http://www.w3.org/Graphics/SVG/1.1/DTD/svg11.dtd" [
	<!ENTITY ns_flows "http://ns.adobe.com/Flows/1.0/">
]>
<svg version="1.1"
	 xmlns="http://www.w3.org/2000/svg" xmlns:xlink="http://www.w3.org/1999/xlink" xmlns:a="http://ns.adobe.com/AdobeSVGViewerExtensions/3.0/"
	 x="0px" y="0px" width="29px" height="29px" viewBox="-0.913 -1 29 29" enable-background="new -0.913 -1 29 29"
	 xml:space="preserve">
<defs>
</defs>
<path fill="#005bfe" d="M24.297,0H2.704C1.214,0,0,1.213,0,2.703v21.593C0,25.786,1.214,27,2.704,27h21.593
	C25.787,27,27,25.786,27,24.296V2.703C27,1.213,25.787,0,24.297,0 M13.5,8.101c2.974,0,5.399,2.425,5.399,5.399
	c0,2.974-2.426,5.397-5.399,5.397c-2.973,0-5.398-2.424-5.398-5.397C8.102,10.526,10.527,8.101,13.5,8.101 M3.375,24.296
	c-0.401,0-0.671-0.27-0.671-0.671V12.148h2.833c-0.138,0.408-0.138,0.95-0.138,1.352c0,4.456,3.645,8.101,8.101,8.101
	c4.457,0,8.103-3.645,8.103-8.101c0-0.402,0-0.944-0.139-1.352h2.833v11.477c0,0.401-0.27,0.671-0.672,0.671H3.375z M24.297,6.078
	c0,0.402-0.27,0.672-0.672,0.672h-2.703c-0.401,0-0.672-0.27-0.672-0.672V3.375c0-0.402,0.271-0.672,0.672-0.672h2.703
	c0.402,0,0.672,0.27,0.672,0.672V6.078z"/>
</svg>
