<?xml version="1.0" encoding="utf-8"?>
<!-- Generator: Adobe Illustrator 15.0.2, SVG Export Plug-In  -->
<!DOCTYPE svg PUBLIC "-//W3C//DTD SVG 1.1//EN" "http://www.w3.org/Graphics/SVG/1.1/DTD/svg11.dtd" [
	<!ENTITY ns_flows "http://ns.adobe.com/Flows/1.0/">
]>
<svg version="1.1"
	 xmlns="http://www.w3.org/2000/svg" xmlns:xlink="http://www.w3.org/1999/xlink" xmlns:a="http://ns.adobe.com/AdobeSVGViewerExtensions/3.0/"
	 x="0px" y="0px" width="33px" height="33px" viewBox="-1 -1.23 33 33" enable-background="new -1 -1.23 33 33"
	 xml:space="preserve">
<defs>
</defs>
<path fill="#6476ae" d="M28.921,7.72c-1.385-2.375-3.266-4.254-5.641-5.641C20.908,0.693,18.312,0,15.501,0
	c-2.812,0-5.405,0.693-7.78,2.079C5.346,3.464,3.466,5.345,2.08,7.72C0.693,10.095,0,12.688,0,15.501c0,2.812,0.693,5.403,2.08,7.78
	c1.386,2.373,3.266,4.254,5.64,5.641C10.096,30.307,12.689,31,15.501,31c2.811,0,5.407-0.693,7.78-2.078
	c2.375-1.387,4.256-3.268,5.641-5.641C30.306,20.904,31,18.313,31,15.501C31,12.688,30.306,10.094,28.921,7.72 M15.501,2.261
	c3.336,0,6.25,1.103,8.739,3.309l-0.252,0.353c-0.102,0.142-0.354,0.414-0.758,0.818c-0.402,0.403-0.844,0.788-1.322,1.15
	c-0.479,0.363-1.125,0.777-1.947,1.241c-0.82,0.465-1.695,0.872-2.623,1.222c-1.547-2.853-3.202-5.422-4.965-7.71
	C13.435,2.388,14.478,2.261,15.501,2.261 M5.128,7.285C6.419,5.657,7.993,4.407,9.85,3.532c1.668,2.22,3.309,4.763,4.924,7.629
	c-4.091,1.076-8.167,1.614-12.23,1.614C2.975,10.744,3.836,8.914,5.128,7.285 M3.149,20.273c-0.592-1.514-0.888-3.105-0.888-4.772
	c0-0.189,0.007-0.33,0.021-0.425c4.871,0,9.398-0.625,13.582-1.877c0.43,0.835,0.788,1.581,1.071,2.241
	c-0.055,0.027-0.143,0.057-0.264,0.091c-0.121,0.033-0.209,0.057-0.264,0.07l-0.746,0.262c-0.512,0.189-1.181,0.51-2.008,0.969
	c-0.827,0.457-1.705,1.002-2.634,1.635c-0.928,0.633-1.887,1.471-2.876,2.514c-0.989,1.041-1.82,2.162-2.493,3.359
	C4.575,23.143,3.74,21.787,3.149,20.273 M15.501,28.738c-3.148,0-5.961-1.008-8.437-3.025l0.303,0.221
	c0.471-1.035,1.163-2.031,2.079-2.986s1.796-1.725,2.644-2.311c0.848-0.586,1.77-1.139,2.765-1.654
	c0.997-0.52,1.674-0.848,2.037-0.99c0.363-0.141,0.654-0.254,0.869-0.332l0.041-0.021h0.039c1.318,3.459,2.26,6.809,2.826,10.053
	C19,28.391,17.277,28.738,15.501,28.738 M26.642,22.654c-0.996,1.541-2.24,2.816-3.734,3.826c-0.553-3.096-1.412-6.25-2.582-9.467
	c2.676-0.416,5.428-0.223,8.254,0.586C28.283,19.428,27.638,21.113,26.642,22.654 M28.539,15.318
	c-0.135-0.027-0.303-0.057-0.506-0.091c-0.199-0.032-0.445-0.073-0.736-0.12c-0.289-0.048-0.611-0.091-0.969-0.131
	c-0.355-0.04-0.736-0.078-1.141-0.112c-0.402-0.033-0.834-0.06-1.291-0.08c-0.459-0.02-0.922-0.031-1.393-0.031
	s-0.965,0.015-1.484,0.041c-0.516,0.027-1.018,0.074-1.502,0.142c-0.041-0.068-0.092-0.179-0.15-0.334
	c-0.063-0.155-0.105-0.272-0.131-0.353c-0.258-0.565-0.553-1.204-0.891-1.917c0.93-0.378,1.814-0.811,2.656-1.302
	c0.84-0.491,1.512-0.929,2.018-1.312c0.504-0.384,0.982-0.79,1.434-1.221c0.451-0.43,0.742-0.73,0.877-0.898
	c0.135-0.169,0.262-0.333,0.383-0.495l0.021-0.02c1.965,2.396,2.967,5.153,3.008,8.275L28.539,15.318z"/>
</svg>
