<?xml version="1.0" encoding="utf-8"?>
<!-- Generator: Adobe Illustrator 15.0.2, SVG Export Plug-In  -->
<!DOCTYPE svg PUBLIC "-//W3C//DTD SVG 1.1//EN" "http://www.w3.org/Graphics/SVG/1.1/DTD/svg11.dtd" [
	<!ENTITY ns_flows "http://ns.adobe.com/Flows/1.0/">
]>
<svg version="1.1"
	 xmlns="http://www.w3.org/2000/svg" xmlns:xlink="http://www.w3.org/1999/xlink" xmlns:a="http://ns.adobe.com/AdobeSVGViewerExtensions/3.0/"
	 x="0px" y="0px" width="37px" height="24px" viewBox="-1.442 -0.922 37 24" enable-background="new -1.442 -0.922 37 24"
	 xml:space="preserve">
<defs>
</defs>
<path fill="#005bfe" d="M31.608,3.114h-8.771v-2.2h8.771V3.114z M17,12.137c0.566,0.886,0.849,1.96,0.849,3.222
	c0,1.307-0.319,2.477-0.968,3.512c-0.412,0.684-0.925,1.262-1.54,1.728c-0.693,0.539-1.516,0.907-2.46,1.104
	C11.936,21.901,10.91,22,9.807,22H0V0h10.518c2.65,0.044,4.53,0.819,5.639,2.344c0.666,0.935,0.997,2.055,0.997,3.359
	c0,1.345-0.334,2.421-1.006,3.238c-0.375,0.459-0.927,0.876-1.66,1.253C15.597,10.604,16.438,11.248,17,12.137 M5.022,8.674H9.63
	c0.948,0,1.713-0.182,2.302-0.546c0.591-0.363,0.883-1.007,0.883-1.934c0-1.024-0.389-1.703-1.17-2.03
	c-0.67-0.225-1.528-0.345-2.569-0.345H5.022V8.674z M13.259,15.044c0-1.143-0.461-1.932-1.384-2.355
	c-0.516-0.24-1.246-0.363-2.178-0.374H5.022v5.864h4.603c0.944,0,1.677-0.124,2.205-0.387
	C12.783,17.314,13.259,16.401,13.259,15.044 M34.861,11.467c0.105,0.719,0.152,1.763,0.135,3.129H23.638
	c0.063,1.582,0.604,2.69,1.629,3.323c0.619,0.397,1.369,0.594,2.248,0.594c0.928,0,1.683-0.238,2.265-0.723
	c0.317-0.26,0.597-0.625,0.839-1.082h4.162c-0.109,0.936-0.611,1.883-1.512,2.848c-1.395,1.531-3.354,2.3-5.867,2.3
	c-2.075,0-3.906-0.647-5.495-1.938c-1.584-1.295-2.377-3.397-2.377-6.313c0-2.733,0.714-4.826,2.146-6.282
	c1.438-1.46,3.295-2.185,5.58-2.185c1.355,0,2.58,0.244,3.668,0.737s1.985,1.268,2.693,2.332
	C34.257,9.146,34.669,10.23,34.861,11.467 M30.763,11.878c-0.076-1.096-0.438-1.924-1.09-2.492
	c-0.646-0.568-1.453-0.854-2.418-0.854c-1.047,0-1.856,0.305-2.433,0.906c-0.579,0.597-0.938,1.41-1.088,2.44H30.763z"/>
</svg>
